<svg fill="none" height="33" viewBox="0 0 132 33" width="132" xmlns="http://www.w3.org/2000/svg"><g clip-rule="evenodd" fill="#252423" fill-rule="evenodd"><path d="m.796878.15918h19.999922c1.1794 0 2.0109.628308 2.4772 1.18039.4299.50905.6706 1.07649.8134 1.48907.2921.84395.4406 1.84527.5293 2.73174.1802 1.8011.1801 3.9089.1801 5.21812v21.3806h-19.86661c-1.09648 0-1.92297-.5321-2.43741-1.0855-.469-.5046-.73944-1.0782-.90279-1.5072-.32988-.8662-.49575-1.889-.594003-2.7825-.199224-1.8118-.199154-3.9273-.199111-5.2346l.000001-.1099c-.000034-1.3092-.000088-3.4137.17969-5.2122.088613-.8865.237073-1.888.529323-2.7321.14288-.4128.38369-.9804.81394-1.4895.46673-.5523 1.29825-1.1798 2.47703-1.1798h14.66664c0-1.36135-.0026-3.22417-.1537-4.73453-.0222-.22227-.0463-.42169-.0714-.59878h-18.441522zm18.230522 4.36234c.0002-.00023.0025.00463.0067.01528-.0047-.00973-.0068-.01506-.0067-.01528zm.4361 11.63758h-13.10869c-.02505.177-.04917.3764-.07138.5986-.15097 1.5103-.15324 3.373-.15324 4.7347 0 1.3645.00276 3.2135.16716 4.7085.02587.2354.05399.4433.0829.6248h13.08325zm-12.87214 11.55c-.0001.0002-.00247-.0044-.0068-.0146.00474.0093.0069.0144.0068.0146zm-.02571-12.5206c.00011.0002-.002.0055-.00667.0153.00423-.0107.00656-.0156.00667-.0153z"/><path d="m108.986 1.33928c.467-.552189 1.298-1.1801 2.477-1.1801h16c1.179 0 2.011.627911 2.477 1.1801.431.50909.671 1.07661.814 1.48926.292.84405.441 1.84546.529 2.73194.18 1.7998.18 3.90594.18 5.21512v.1004c0 1.3092 0 3.4153-.18 5.2151-.088.8865-.237 1.8879-.529 2.732-.143.4126-.383.9801-.814 1.4892-.466.5522-1.298 1.1801-2.477 1.1801h-14.666c0 1.3616.002 3.2243.153 4.7347.022.2222.046.4216.072.5986h18.441v5.3334h-20c-1.179 0-2.01-.628-2.477-1.1801-.43-.5091-.671-1.0767-.813-1.4893-.293-.8441-.441-1.8455-.53-2.7319-.18-1.7998-.18-3.906-.18-5.2152v-10.767c0-1.30918 0-3.41532.18-5.21512.089-.88648.237-1.88789.53-2.73194.142-.41265.383-.98017.813-1.48926zm4.246 26.45732c0 .0002-.002-.0047-.006-.0153.004.0097.007.015.006.0153zm-.435-11.6375h13.108c.025-.177.049-.3764.072-.5987.151-1.5103.153-3.373.153-4.7346 0-1.36154-.002-3.22428-.153-4.73463-.023-.22224-.047-.42163-.072-.59868h-12.883c-.026.17705-.05.37644-.072.59868-.151 1.51035-.153 3.37309-.153 4.73463zm.435-11.63742c.001.00023-.002.00556-.006.01529.004-.01066.006-.01552.006-.01529zm12.462 0c0-.00023.003.00463.007.01529-.005-.00973-.007-.01506-.007-.01529zm0 12.60822c0-.0002.002-.0055.007-.0153-.004.0107-.007.0156-.007.0153z"/><path d="m59.4632 10.8252v21.3332h-5.3333v-21.3332z"/><path d="m59.4632.185547v5.413313h-5.3333v-5.413313z"/><path d="m28.9865 1.33928c.4665-.552189 1.298-1.1801 2.4771-1.1801h15.9999c1.1792 0 2.0107.627911 2.4772 1.1801.4301.50909.6708 1.07661.8136 1.48926.2922.84405.4407 1.84546.5293 2.73194.18 1.7998.18 3.90594.1799 5.21512v21.3835h-5.3333v-21.3333c0-1.36154-.0024-3.22428-.1534-4.73463-.0222-.22224-.0464-.42163-.0714-.59868h-12.8836c-.0251.17705-.0492.37644-.0714.59868-.1511 1.51035-.1535 3.37309-.1535 4.73463v21.3333h-5.3333v-21.3835c0-1.30918-.0001-3.41532.1799-5.21512.0887-.88648.2372-1.88789.5293-2.73194.1429-.41265.3836-.98017.8137-1.48926zm4.2462 3.1824c.0001.00023-.002.00556-.0067.01529.0042-.01066.0066-.01552.0067-.01529zm12.4618 0c.0001-.00023.0024.00463.0066.01529-.0046-.00973-.0067-.01506-.0066-.01529z"/><path d="m63.6527 1.33928c.4665-.552189 1.2981-1.1801 2.4772-1.1801h34.6661c1.18 0 2.011.627911 2.478 1.1801.43.50909.67 1.07661.813 1.48926.292.84405.441 1.84546.529 2.73194.18 1.7998.18 3.90594.18 5.21512v21.3835h-5.3329v-21.3333c0-1.36154-.0024-3.22428-.1535-4.73463-.0222-.22224-.0463-.42163-.0714-.59868h-31.5502c-.025.17705-.0491.37644-.0714.59868-.151 1.51035-.1534 3.37309-.1534 4.73463v21.3333h-5.3333v-21.3835c0-1.30918-.0001-3.41532.1799-5.21512.0886-.88648.2371-1.88789.5293-2.73194.1428-.41265.3836-.98017.8136-1.48926zm4.2462 3.1824c.0001.00023-.002.00556-.0066.01529.0042-.01066.0065-.01552.0066-.01529zm31.1284 0c.0001-.00024.0025.00463.0067.01529-.0047-.00973-.0068-.01506-.0067-.01529z"/></g></svg>