<svg fill="none" height="72" viewBox="0 0 72 72" width="72" xmlns="http://www.w3.org/2000/svg" xmlns:xlink="http://www.w3.org/1999/xlink"><linearGradient id="a" gradientUnits="userSpaceOnUse" x1="55.1691" x2="44.0142" y1="27.2081" y2="49.0377"><stop offset="0" stop-color="#cc9300"/><stop offset=".48" stop-color="#ea433a"/><stop offset="1" stop-color="#b327bf"/></linearGradient><linearGradient id="b" gradientUnits="userSpaceOnUse" x1="30.0488" x2="19.8562" y1="7.22145" y2="27.1274"><stop offset="0" stop-color="#cc9300"/><stop offset=".26" stop-color="#ea433a"/><stop offset=".48" stop-color="#b327bf"/><stop offset=".76" stop-color="#66f"/><stop offset="1" stop-color="#00bf9a"/></linearGradient><linearGradient id="c" gradientUnits="userSpaceOnUse" x1="24.4016" x2="39.7311" y1="60.6665" y2="41.7394"><stop offset="0" stop-color="#b327bf"/><stop offset=".48" stop-color="#66f"/><stop offset="1" stop-color="#00c09a"/></linearGradient><path clip-rule="evenodd" d="m34.6448 71.0795c-9.2532 1.5192-12.844.9668-16.573-.2762-3.6723-1.2451-6.8608-3.6123-9.11513-6.7673l-.41433-.4143c-2.07162-2.9003-3.59081-6.2149-4.9719-14.7776l-2.20973-14.3633c-1.519195-9.3914-1.10487-12.9822.27621-16.7111 1.28832-3.6503 3.58733-6.8593 6.62921-9.25328l.55243-.41432c2.90024-2.07163 6.21484-3.59082 14.63954-4.97191l14.087-2.209732c9.2533-1.519192 12.8441-.9667585 16.573.276222 3.6724 1.24511 6.8608 3.6123 9.1152 6.76731l.4143.55243c2.0716 2.90028 3.5908 6.21488 4.9719 14.77758l2.2097 14.2252c1.5192 9.3914 1.1049 12.9822-.2762 16.7111-1.2433 3.6735-3.5508 6.8944-6.6292 9.2533l-.5524.4143c-2.9003 2.0716-6.2149 3.5908-14.6395 4.9719z" fill="#000" fill-rule="evenodd"/><g stroke-linejoin="round"><path d="m50.403 45.5296c4.8053 0 8.7008-3.8955 8.7008-8.7008 0-4.8054-3.8955-8.7009-8.7008-8.7009-4.8054 0-8.7009 3.8955-8.7009 8.7009 0 4.8053 3.8955 8.7008 8.7009 8.7008z" stroke="url(#a)" stroke-width="2.42"/><path d="m31.253 15.0402-15.5836 2.5184 2.5184 15.5836 15.5837-2.5184z" stroke="url(#b)" stroke-width="2.43"/><path d="m29.6729 40.9717 12.2917 15.7443-18.9209 3.0384z" stroke="url(#c)" stroke-width="2.42"/></g></svg>