<svg fill="none" height="48" viewBox="0 0 190 48" width="190" xmlns="http://www.w3.org/2000/svg"><path d="m48 39.9999c0 4.4001-3.6 8.0001-8.0001 8.0001h-31.99997c-4.39994 0-7.99993-3.6-7.99993-8.0001v-31.99976c0-4.40015 3.59999-8.00014 7.99993-8.00014h31.99997c4.4001 0 8.0001 3.59999 8.0001 8.00014z" fill="#5b3b7e"/><path d="m17.8989 34.3963h8.6667c1.4902 0 2.6509-.3843 3.4668-1.1607.8234-.7687 1.2391-1.8667 1.2391-3.2785 0-1.3883-.4079-2.447-1.2391-3.2-.8314-.753-1.9766-1.1137-3.4668-1.1137h-8.6667zm0-12.2745h8.0001c1.1765 0 2.1568-.3293 2.9412-1.0038.7842-.6745 1.1765-1.6314 1.1765-2.8862 0-1.4118-.353-2.4079-1.059-2.9804-.7058-.5726-1.7254-.8627-3.0587-.8627h-8.0001zm-4.9021-11.7253h13.608c2.5098 0 4.5256.5726 6.0393 1.7255 1.5137 1.153 2.2744 2.8863 2.2744 5.2156 0 1.4118-.345 2.6197-1.0353 3.6235-.6902 1.0038-1.6783 1.7883-2.9647 2.3372v.0784c1.7256.3687 3.0354 1.1844 3.9216 2.4471.8863 1.2706 1.3333 2.8549 1.3333 4.7686 0 1.098-.1961 2.1255-.5881 3.0746-.3922.9568-1.0041 1.7803-1.8432 2.4705-.8392.6903-1.9059 1.2392-3.2158 1.6471-1.3098.4078-2.8627.6118-4.6665.6118h-12.863z" fill="#fff"/><g fill="#5b3b7e"><path d="m61.4656 31.9928h5.607c.9625 0 1.6385-.0359 2.0277-.1076.6861-.1229 1.2597-.3276 1.7207-.6143.4608-.2868.8394-.7041 1.1366-1.252.297-.548.4455-1.1804.4455-1.8973 0-.8396-.215-1.5695-.6451-2.1893-.4302-.6194-1.0267-1.0546-1.7898-1.3056-.763-.2507-1.8612-.3763-3.295-.3763h-5.2076zm0-10.4h4.8697c1.3212 0 2.2682-.0869 2.842-.2612.7578-.225 1.3289-.599 1.7127-1.1212.3843-.5225.5762-1.1777.5762-1.9664 0-.7475-.1793-1.4058-.5378-1.974-.3586-.5684-.8704-.9575-1.5361-1.1677-.6659-.2097-1.8078-.3148-3.4257-.3148h-4.501zm-2.9802 13.0576v-22.5205h8.4489c1.7205 0 3.1004.228 4.1401.6835 1.0395.456 1.8535 1.1576 2.4426 2.1046.5888.9476.8833 1.9382.8833 2.9726 0 .9627-.2612 1.869-.7834 2.7191-.5225.8501-1.3111 1.5362-2.3659 2.0584 1.3619.3994 2.4093 1.0806 3.1415 2.0431.7322.9627 1.0984 2.0995 1.0984 3.4104 0 1.0548-.2225 2.0353-.6682 2.9418-.4453.9063-.9961 1.6054-1.6513 2.0968-.6554.4916-1.4774.8631-2.4657 1.1137-.9883.2511-2.1994.3765-3.6331.3765z"/><path d="m81.0388 26.5043c0 2.0892.4555 3.6537 1.3671 4.6932.9115 1.0394 2.0586 1.5592 3.4412 1.5592 1.3723 0 2.5139-.5223 3.4257-1.567.9113-1.0445 1.3671-2.6369 1.3671-4.7775 0-2.0175-.4583-3.5459-1.3749-4.5856-.9168-1.0392-2.0561-1.5592-3.4179-1.5592-1.3826 0-2.5297.5172-3.4412 1.5515-.9116 1.0346-1.3671 2.5962-1.3671 4.6854zm-2.842 0c0-3.0209.8396-5.2589 2.5194-6.713 1.4029-1.2083 3.113-1.8128 5.1309-1.8128 2.2427 0 4.0759.7349 5.4994 2.2044 1.4233 1.4697 2.1353 3.5002 2.1353 6.0911 0 2.0993-.3148 3.7508-.9448 4.9543-.6297 1.2033-1.5465 2.1377-2.7495 2.8034-1.2037.6657-2.5171.9986-3.9404.9986-2.2839 0-4.13-.7322-5.5382-2.1969-1.4082-1.4644-2.1121-3.574-2.1121-6.3291z"/><path d="m98.5842 26.5043c0 2.0892.4555 3.6537 1.3671 4.6932.9117 1.0394 2.0587 1.5592 3.4407 1.5592 1.373 0 2.514-.5223 3.426-1.567.912-1.0445 1.367-2.6369 1.367-4.7775 0-2.0175-.458-3.5459-1.375-4.5856-.916-1.0392-2.056-1.5592-3.418-1.5592-1.382 0-2.529.5172-3.4407 1.5515-.9116 1.0346-1.3671 2.5962-1.3671 4.6854zm-2.842 0c0-3.0209.8396-5.2589 2.5194-6.713 1.403-1.2083 3.1134-1.8128 5.1304-1.8128 2.243 0 4.076.7349 5.5 2.2044 1.423 1.4697 2.135 3.5002 2.135 6.0911 0 2.0993-.315 3.7508-.945 4.9543-.629 1.2033-1.546 2.1377-2.749 2.8034-1.204.6657-2.517.9986-3.941.9986-2.283 0-4.1295-.7322-5.5377-2.1969-1.4082-1.4644-2.1121-3.574-2.1121-6.3291z"/><path d="m120.304 32.1038.4 2.4424c-.779.1638-1.475.2458-2.09.2458-1.003 0-1.782-.159-2.335-.4761-.553-.3173-.942-.7347-1.167-1.2521-.225-.5171-.338-1.6052-.338-3.2642v-9.3862h-2.028v-2.1506h2.028v-4.0403l2.75-1.659v5.6993h2.78v2.1506h-2.78v9.5397c0 .7888.048 1.2958.146 1.5208.097.2253.256.4048.476.5376.22.1332.535.1999.945.1999.307 0 .711-.0359 1.213-.1076z"/><path d="m121.844 29.7918 2.734-.4302c.154 1.0961.581 1.9357 1.283 2.5194s1.682.8757 2.942.8757c1.27 0 2.212-.2586 2.826-.7759.615-.517.922-1.1238.922-1.8203 0-.6246-.271-1.116-.814-1.4747-.379-.2458-1.321-.5583-2.827-.9371-2.027-.5122-3.433-.955-4.216-1.3289-.784-.3736-1.378-.891-1.782-1.5517-.405-.6605-.607-1.39-.607-2.1889 0-.7271.166-1.4004.499-2.02s.786-1.1343 1.36-1.5439c.43-.3173 1.016-.5862 1.759-.8067.742-.2198 1.538-.3301 2.388-.3301 1.28 0 2.405.1844 3.372.5531.968.3687 1.682.8679 2.143 1.4978.461.6298.778 1.4723.953 2.5269l-2.704.3688c-.123-.8396-.479-1.4953-1.068-1.9664-.589-.4708-1.421-.7066-2.496-.7066-1.27 0-2.176.21-2.719.6299-.543.4201-.814.9115-.814 1.4747 0 .3586.112.6812.338.9677.225.2972.578.543 1.06.7375.276.1023 1.09.3378 2.442.7066 1.956.5222 3.321.9499 4.094 1.2825.773.3331 1.38.817 1.821 1.4519.44.6351.66 1.4235.66 2.3656 0 .9219-.269 1.7898-.806 2.6038-.538.8144-1.314 1.444-2.328 1.8897-1.014.4453-2.161.6683-3.441.6683-2.12 0-3.735-.4403-4.847-1.3212-1.111-.8807-1.82-2.1865-2.127-3.9173z"/><path d="m144.782 32.1038.399 2.4424c-.778.1638-1.475.2458-2.089.2458-1.004 0-1.782-.159-2.335-.4761-.553-.3173-.942-.7347-1.168-1.2521-.225-.5171-.338-1.6052-.338-3.2642v-9.3862h-2.027v-2.1506h2.027v-4.0403l2.75-1.659v5.6993h2.781v2.1506h-2.781v9.5397c0 .7888.049 1.2958.146 1.5208.097.2253.256.4048.476.5376.22.1332.535.1999.945.1999.307 0 .712-.0359 1.214-.1076z"/><path d="m147.404 34.6615v-16.3143h2.489v2.4733c.635-1.1573 1.221-1.9202 1.759-2.2889s1.129-.5531 1.774-.5531c.932 0 1.879.2972 2.842.891l-.952 2.5653c-.676-.3993-1.352-.599-2.028-.599-.605 0-1.147.1821-1.628.5451-.482.3639-.825.8681-1.03 1.5133-.307.9833-.461 2.0586-.461 3.226v8.5413z"/><path d="m168.288 26.4737c-1.004.4096-2.509.758-4.516 1.0445-1.137.1638-1.941.3481-2.412.5531-.471.2049-.835.5044-1.091.8985-.256.3945-.384.8323-.384 1.3136 0 .7372.279 1.3518.837 1.8434.558.4917 1.375.7373 2.451.7373 1.065 0 2.012-.2329 2.842-.6991.829-.4656 1.438-1.1032 1.827-1.9124.297-.6244.446-1.5462.446-2.765zm.23 6.1754c-1.024.8704-2.009 1.4849-2.957 1.8434-.947.3584-1.964.5378-3.049.5378-1.792 0-3.17-.438-4.132-1.3134-.963-.8759-1.444-1.9947-1.444-3.3567 0-.7989.181-1.5286.545-2.1891.363-.6607.84-1.1905 1.429-1.59.588-.3994 1.252-.7012 1.989-.9063.543-.1433 1.362-.2817 2.458-.4147 2.232-.2664 3.876-.5839 4.931-.9524.01-.3788.015-.6196.015-.7222 0-1.1265-.261-1.9202-.783-2.381-.707-.6244-1.757-.9371-3.149-.9371-1.301 0-2.261.228-2.881.6836-.619.4559-1.077 1.2622-1.374 2.4195l-2.704-.3687c.246-1.1573.65-2.0915 1.213-2.8036.564-.7114 1.378-1.2597 2.443-1.6437 1.065-.3841 2.299-.576 3.702-.576 1.393 0 2.525.164 3.395.4916.87.3279 1.511.74 1.92 1.2367.41.4969.697 1.124.861 1.8818.092.4711.138 1.3211.138 2.55v3.6868c0 2.5708.059 4.1966.177 4.8776.117.681.35 1.3339.698 1.9585h-2.887c-.287-.5736-.472-1.2444-.554-2.0124z"/><path d="m177.96 26.5966c0 2.0993.424 3.6509 1.275 4.6545.85 1.0039 1.879 1.5056 3.087 1.5056 1.229 0 2.282-.5198 3.157-1.5593.876-1.0394 1.314-2.65 1.314-4.8313 0-2.079-.428-3.6355-1.283-4.6701-.855-1.0343-1.877-1.5515-3.065-1.5515-1.178 0-2.22.5506-3.126 1.6513-.906 1.1011-1.359 2.7015-1.359 4.8008zm-2.504 14.3171v-22.5665h2.519v2.1201c.594-.8297 1.265-1.4518 2.012-1.8667.748-.4147 1.654-.6221 2.719-.6221 1.393 0 2.622.3587 3.687 1.0754 1.065.7169 1.869 1.728 2.412 3.0339.543 1.3056.814 2.7369.814 4.2936 0 1.6693-.299 3.1721-.898 4.5088-.6 1.3362-1.47 2.3606-2.612 3.0725-1.142.7114-2.343 1.0675-3.602 1.0675-.922 0-1.749-.1946-2.481-.5839-.733-.389-1.334-.8807-1.805-1.4747v7.9421z"/></g></svg>