<svg fill="none" height="81" viewBox="0 0 73 81" width="73" xmlns="http://www.w3.org/2000/svg" xmlns:xlink="http://www.w3.org/1999/xlink"><linearGradient id="a" gradientUnits="userSpaceOnUse" x1="50.0927" x2="70.294" y1="32.69" y2="58.5464"><stop offset="0" stop-color="#3b009b"/><stop offset="1" stop-color="#390086"/></linearGradient><linearGradient id="b" gradientUnits="userSpaceOnUse" x1="19.0115" x2="40.4885" y1="51.2562" y2="78.7454"><stop offset="0" stop-color="#340084"/><stop offset="1" stop-color="#290064"/></linearGradient><linearGradient id="c" gradientUnits="userSpaceOnUse" x1="19.9188" x2="41.8996" y1="8.99533" y2="37.1296"><stop offset="0" stop-color="#a47ede"/><stop offset="1" stop-color="#9866d3"/></linearGradient><mask id="d" height="81" maskUnits="userSpaceOnUse" width="73" x="0" y="0"><path clip-rule="evenodd" d="m69.0097 17.9771-29.3887-16.96753c-1.6928-.977605-4.4635-.977605-6.1564 0l-29.38866 16.96753c-1.69319.9773-3.078381 3.3768-3.078381 5.3319v33.9349c.131801 2.2768 1.294661 4.1624 3.078381 5.3317l29.38866 16.9676c1.6929.9776 4.4636.9776 6.1564 0l29.3887-16.9676c1.9138-1.2727 3.003-3.1886 3.0784-5.3317v-33.9349c-.0688-2.0571-1.3006-4.1317-3.0784-5.3319z" fill="#fff" fill-rule="evenodd"/></mask><g mask="url(#d)"><path d="m77.5734 19.752h-41.7912v42.733h41.7912z" fill="url(#a)"/><path d="m77.5683 64.0123-53.7822-31.1207h-27.46188v51.5192h81.24408z" fill="url(#b)"/><path d="m-3.67578 63.571 81.24408-47.0132v-18.54999h-81.24408z" fill="url(#c)"/><g fill="#fff"><path d="m12.8469 40.2809c-.1393-23.1388 30.8529-33.35607 44.218-11.856l-10.2555 5.9344c-6.1909-10.2397-21.5626-6.5782-22.1142 5.9214.1656 11.5201 15.274 16.8715 22.1149 5.9208l10.2554 5.9341c-11.7784 20.4473-43.6245 13.0907-44.2186-11.8547z"/><path d="m51.9353 33.5947h1.9531l-1.3345 12.8907h-1.9897z"/><path d="m56.1198 33.5947h1.9531l-1.3345 12.8907h-1.9899z"/><path d="m59.5086 36.6455h-9.7657v1.8863h9.7657z"/><path d="m58.961 41.1816h-9.7657v1.8863h9.7657z"/></g></g></svg>