<svg width="80" height="80" viewBox="0 0 80 80" fill="none" xmlns="http://www.w3.org/2000/svg">
<path d="M40 80C62.0914 80 80 62.0914 80 40C80 17.9086 62.0914 0 40 0C17.9086 0 0 17.9086 0 40C0 62.0914 17.9086 80 40 80Z" fill="#2B2E3A"/>
<path d="M31.407 22.4028C23.2805 20.9228 16.8549 22.4719 14.2939 26.9075C12.383 30.2175 12.9292 34.606 15.6189 39.2969C15.672 39.3943 15.7441 39.4802 15.8308 39.5494C15.9175 39.6186 16.0172 39.6698 16.124 39.7C16.2308 39.7302 16.3425 39.7387 16.4526 39.7252C16.5627 39.7116 16.6691 39.6762 16.7653 39.621C16.8616 39.5658 16.9458 39.4919 17.0132 39.4037C17.0805 39.3155 17.1295 39.2147 17.1574 39.1073C17.1853 38.9999 17.1914 38.888 17.1755 38.7782C17.1595 38.6684 17.1218 38.5629 17.0645 38.4678C14.642 34.2422 14.1705 30.455 15.7374 27.741C17.8649 24.0563 23.5961 22.6744 31.1083 24.0425C31.3242 24.0785 31.5455 24.0281 31.7245 23.9022C31.9035 23.7763 32.0259 23.5851 32.0651 23.3698C32.1043 23.1545 32.0573 22.9324 31.9342 22.7515C31.8111 22.5706 31.6217 22.4453 31.407 22.4028V22.4028ZM19.8449 44.9988C23.1308 48.6097 27.3999 51.9969 32.2686 54.8075C44.057 61.6138 56.607 63.4328 62.792 59.2157C62.8846 59.1549 62.964 59.0763 63.0259 58.9845C63.0877 58.8927 63.1306 58.7895 63.1521 58.681C63.1736 58.5724 63.1733 58.4606 63.1511 58.3522C63.129 58.2438 63.0854 58.1408 63.0231 58.0494C62.9607 57.958 62.8808 57.8799 62.7879 57.8197C62.695 57.7595 62.5911 57.7184 62.4822 57.6988C62.3733 57.6791 62.2615 57.6814 62.1535 57.7055C62.0455 57.7295 61.9433 57.7748 61.853 57.8388C56.3174 61.6132 44.3961 59.885 33.102 53.3644C28.3789 50.6375 24.2449 47.3575 21.0777 43.8769C21.0041 43.7955 20.9152 43.7293 20.8161 43.6823C20.717 43.6353 20.6095 43.6084 20.4999 43.603C20.3903 43.5976 20.2808 43.6139 20.1775 43.651C20.0742 43.6881 19.9793 43.7452 19.8981 43.819C19.817 43.8929 19.7512 43.982 19.7046 44.0813C19.658 44.1807 19.6314 44.2882 19.6265 44.3978C19.6215 44.5074 19.6383 44.617 19.6758 44.7201C19.7132 44.8232 19.7707 44.9179 19.8449 44.9988V44.9988Z" fill="#9FEAF9"/>
<path d="M60.819 43.9859C66.1402 37.6997 67.998 31.3771 65.4424 26.9509C63.5621 23.6937 59.5868 21.974 54.3034 21.9053C54.0844 21.9056 53.8744 21.9921 53.7186 22.146C53.5629 22.3 53.4741 22.509 53.4712 22.7279C53.4684 22.9469 53.5518 23.1581 53.7035 23.3161C53.8552 23.474 54.0629 23.5658 54.2818 23.5718C59.0334 23.6337 62.4584 25.1153 63.9993 27.7843C66.1218 31.4609 64.4649 37.099 59.5468 42.909C59.4746 42.9924 59.4197 43.0892 59.3852 43.1939C59.3507 43.2986 59.3374 43.4091 59.3459 43.519C59.3544 43.6289 59.3846 43.736 59.4348 43.8342C59.4851 43.9323 59.5542 44.0195 59.6384 44.0907C59.7225 44.162 59.8199 44.2158 59.925 44.2491C60.0301 44.2824 60.1408 44.2945 60.2506 44.2848C60.3604 44.275 60.4672 44.2436 60.5647 44.1923C60.6623 44.141 60.7487 44.0708 60.819 43.9859ZM47.1437 22.6812C42.3324 23.7121 37.2112 25.7278 32.2931 28.5671C20.1237 35.5931 12.1852 45.9534 13.2877 53.4656C13.3024 53.5749 13.3387 53.6802 13.3944 53.7754C13.4501 53.8706 13.5242 53.9538 13.6122 54.0202C13.7003 54.0866 13.8007 54.1348 13.9076 54.1621C14.0145 54.1893 14.1257 54.1951 14.2348 54.1791C14.344 54.1631 14.4488 54.1255 14.5434 54.0687C14.6379 54.0118 14.7202 53.9368 14.7855 53.8479C14.8508 53.759 14.8978 53.658 14.9237 53.5508C14.9497 53.4436 14.9542 53.3323 14.9368 53.2234C13.9577 46.5534 21.4827 36.7331 33.1265 30.0106C37.8974 27.2559 42.8562 25.3043 47.4927 24.3109C47.6012 24.2895 47.7044 24.2467 47.7962 24.1851C47.888 24.1234 47.9667 24.0441 48.0275 23.9517C48.0884 23.8594 48.1302 23.7558 48.1507 23.6472C48.1711 23.5385 48.1697 23.4268 48.1465 23.3186C48.1234 23.2105 48.0789 23.108 48.0157 23.0173C47.9526 22.9265 47.872 22.8491 47.7786 22.7898C47.6853 22.7305 47.5811 22.6903 47.4721 22.6717C47.3631 22.653 47.2514 22.6563 47.1437 22.6812V22.6812Z" fill="#9FEAF9"/>
<path d="M27.4282 58.6731C30.2107 66.4418 34.7623 71.2253 39.8804 71.2253C43.6132 71.2253 47.0667 68.6806 49.7598 64.2009C49.8181 64.107 49.8571 64.0026 49.8747 63.8935C49.8922 63.7844 49.8879 63.673 49.862 63.5656C49.8361 63.4582 49.7891 63.357 49.7237 63.268C49.6583 63.1789 49.5759 63.1037 49.4812 63.0468C49.3866 62.9899 49.2815 62.9524 49.1722 62.9364C49.0629 62.9205 48.9515 62.9264 48.8445 62.9539C48.7375 62.9814 48.6371 63.0298 48.549 63.0965C48.4609 63.1631 48.3869 63.2466 48.3314 63.3421C45.9111 67.3681 42.9382 69.5584 39.8804 69.5584C35.6289 69.5584 31.5692 65.2921 28.9976 58.1115C28.9624 58.0064 28.9065 57.9093 28.8333 57.826C28.7601 57.7427 28.6711 57.6749 28.5713 57.6265C28.4716 57.578 28.3631 57.55 28.2524 57.544C28.1417 57.538 28.0309 57.5542 27.9265 57.5915C27.8221 57.6289 27.7262 57.6867 27.6444 57.7616C27.5627 57.8365 27.4967 57.927 27.4503 58.0277C27.4039 58.1284 27.3781 58.2374 27.3744 58.3482C27.3706 58.459 27.3891 58.5695 27.4286 58.6731H27.4282ZM52.8414 57.1534C54.282 52.5509 55.0554 47.2415 55.0554 41.7087C55.0554 27.9028 50.2232 16.0015 43.3407 12.9456C43.1397 12.8614 42.9136 12.8593 42.7111 12.9397C42.5085 13.0202 42.3455 13.1769 42.257 13.3761C42.1686 13.5753 42.1617 13.8013 42.2379 14.0055C42.314 14.2098 42.4672 14.376 42.6645 14.4687C48.8029 17.1946 53.3886 28.4893 53.3886 41.7087C53.3886 47.0765 52.6395 52.2181 51.2511 56.6556C51.2166 56.7605 51.2033 56.8712 51.2119 56.9813C51.2206 57.0914 51.2511 57.1987 51.3016 57.297C51.3521 57.3952 51.4217 57.4824 51.5062 57.5535C51.5907 57.6246 51.6885 57.6782 51.7939 57.7112C51.8993 57.7442 52.0102 57.7559 52.1202 57.7457C52.2302 57.7354 52.337 57.7034 52.4345 57.6515C52.532 57.5996 52.6182 57.5288 52.6881 57.4433C52.758 57.3578 52.8102 57.2592 52.8417 57.1534H52.8414ZM68.5364 56.3371C68.5364 54.1343 66.7507 52.3487 64.5479 52.3487C62.3451 52.3487 60.5595 54.1343 60.5595 56.3371C60.5595 58.5399 62.3451 60.3256 64.5479 60.3256C66.7507 60.3256 68.5364 58.5399 68.5364 56.3371ZM66.8698 56.3371C66.8698 56.642 66.8097 56.944 66.6931 57.2257C66.5764 57.5074 66.4054 57.7633 66.1897 57.9789C65.9741 58.1945 65.7182 58.3656 65.4365 58.4823C65.1548 58.5989 64.8528 58.659 64.5479 58.659C64.243 58.659 63.9411 58.5989 63.6594 58.4823C63.3777 58.3656 63.1217 58.1945 62.9061 57.9789C62.6905 57.7633 62.5195 57.5074 62.4028 57.2257C62.2861 56.944 62.2261 56.642 62.2261 56.3371C62.2261 55.7213 62.4707 55.1308 62.9061 54.6953C63.3415 54.2599 63.9321 54.0153 64.5479 54.0153C65.1637 54.0153 65.7543 54.2599 66.1897 54.6953C66.6252 55.1308 66.8698 55.7213 66.8698 56.3371ZM15.1554 60.3256C17.3586 60.3256 19.1442 58.5399 19.1442 56.3371C19.1442 54.1343 17.3582 52.3487 15.1554 52.3487C12.9529 52.3487 11.167 54.1343 11.167 56.3371C11.167 58.5399 12.9529 60.3256 15.1554 60.3256ZM15.1554 58.659C14.5396 58.659 13.9491 58.4144 13.5136 57.9789C13.0782 57.5435 12.8336 56.9529 12.8336 56.3371C12.8336 55.7213 13.0782 55.1308 13.5136 54.6953C13.9491 54.2599 14.5396 54.0153 15.1554 54.0153C15.7712 54.0153 16.3618 54.2599 16.7972 54.6953C17.2327 55.1308 17.4773 55.7213 17.4773 56.3371C17.4773 56.9529 17.2327 57.5435 16.7972 57.9789C16.3618 58.4144 15.7712 58.659 15.1554 58.659V58.659Z" fill="#9FEAF9"/>
<path d="M39.8803 17.014C42.0831 17.014 43.8687 15.2284 43.8687 13.0255C43.8687 10.8227 42.0831 9.03711 39.8803 9.03711C37.6775 9.03711 35.8918 10.8227 35.8918 13.0255C35.8918 15.2284 37.6775 17.014 39.8803 17.014V17.014ZM39.8803 15.3474C39.2645 15.3474 38.6739 15.1028 38.2385 14.6674C37.803 14.2319 37.5584 13.6413 37.5584 13.0255C37.5584 12.4097 37.803 11.8192 38.2385 11.3837C38.6739 10.9483 39.2645 10.7037 39.8803 10.7037C40.4961 10.7037 41.0867 10.9483 41.5221 11.3837C41.9575 11.8192 42.2022 12.4097 42.2022 13.0255C42.2022 13.6413 41.9575 14.2319 41.5221 14.6674C41.0867 15.1028 40.4961 15.3474 39.8803 15.3474V15.3474ZM40.4894 44.5293C38.9315 44.8659 37.3968 43.8759 37.0597 42.318C36.8982 41.57 37.0404 40.7884 37.4551 40.1452C37.8698 39.502 38.5229 39.0498 39.2709 38.888C40.8287 38.5515 42.3634 39.5415 42.7009 41.0993C43.0375 42.6571 42.0475 44.1921 40.4894 44.5293Z" fill="#9FEAF9"/>
</svg>
