<svg width="76" height="88" viewBox="0 0 76 88" fill="none" xmlns="http://www.w3.org/2000/svg">
<path d="M12.1307 38.7457C9.62573 39.924 2.99578 45.2283 1.71883 46.7999C0.392693 48.3714 -8.48557e-05 45.9159 1.375 41.8397C2.45519 38.5492 5.20584 34.08 9.82224 30.2494C12.5232 28.0394 18.466 24.8473 22.1001 22.9808C22.8369 22.5878 32.3646 18.5607 40.861 16.5472C41.5979 16.3507 39.9771 17.775 39.7314 18.5607C38.4545 22.2932 12.9652 38.3035 12.9652 38.3035L12.1307 38.7457ZM48.0313 83.7808C48.4733 86.4328 48.0805 86.6293 45.3304 86.9731C42.58 87.3169 40.5664 86.2854 39.8298 85.598C39.0929 84.9101 38.9459 83.388 39.6825 82.0129C40.1247 81.1288 40.5666 80.8341 40.8123 79.7537C41.0578 78.7225 41.2543 78.4768 41.4506 78.084C41.6468 77.7399 41.6963 77.3961 41.7452 74.9898C41.7944 72.5835 41.7452 68.065 41.9909 66.1499C42.2366 64.1855 50.733 67.0338 50.733 67.0338C50.733 67.0338 48.7192 72.0432 48.1791 73.2709C47.6388 74.4989 47.688 76.856 47.688 77.3472C47.688 77.8383 47.4917 78.8204 47.3441 78.8695C47.1968 78.9185 47.8353 80.1954 47.5404 80.9323C47.3439 81.6199 47.9824 83.388 48.0313 83.7808V83.7808ZM51.2729 8.68934C50.978 6.82313 51.2729 3.13941 51.6657 2.55037C52.8937 0.880423 59.3763 0.684157 60.7516 2.6485C61.3409 3.53242 61.2917 5.59514 61.1936 6.92126C61.0955 8.24714 60.7516 11.0956 60.7024 12.029C60.6535 12.7166 53.5321 13.7968 51.9606 11.9306C51.5183 11.4397 51.2729 8.68934 51.2729 8.68934V8.68934ZM65.7118 79.0169C68.7077 81.178 71.0159 81.5707 72.5383 82.3565C74.0607 83.1425 73.6679 84.6649 71.114 85.1069C69.0513 85.4997 65.81 84.7139 63.6491 84.7139C61.4882 84.7139 56.6751 84.9596 55.3981 84.0757C53.9249 83.0444 54.5632 81.1288 54.5632 81.1288C54.9562 80.0486 55.9382 77.6418 55.6436 75.6775C55.3489 73.7131 54.9559 72.6327 54.2193 70.8154C53.4827 68.9984 52.9426 64.5294 53.6303 64.2837C54.3179 64.038 54.1212 64.2837 55.0054 64.4799C55.8893 64.6762 56.8716 64.9711 58.787 64.9711C60.7024 64.9711 62.8141 64.6762 63.551 64.5291C64.2876 64.3818 64.8769 64.2342 64.6312 65.7569C64.3857 67.2793 63.6491 70.1278 63.5999 72.3378C63.551 74.5478 63.551 77.1017 63.6983 77.5437C63.8454 77.9856 64.926 78.4768 65.7118 79.0169V79.0169Z" fill="#010101"/>
<path d="M55.202 13.6002C49.7998 18.266 39.3388 19.5427 23.8196 25.5344C19.8415 27.0567 9.23334 31.6241 6.67944 36.388C15.274 31.4279 18.4664 38.2543 19.1538 45.2771C19.792 51.8581 23.0828 55.2961 31.53 55.0994C40.2229 54.9031 42.875 59.9614 45.2813 65.9041C49.9469 43.1652 57.4121 38.7454 62.2247 34.8657C72.4403 26.5656 59.8676 11.9303 55.202 13.6002Z" fill="#8AC640"/>
<path d="M55.2018 13.6006C42.2363 18.1188 29.4179 19.2484 14.3407 28.5305C10.7555 30.7406 3.19221 35.7497 1.71875 45.3267C7.21908 39.2367 19.9391 31.5755 35.5077 26.7135C43.3657 24.2578 49.1119 22.6373 56.0857 19.9361C55.5948 16.7927 55.5948 15.5649 55.2018 13.6006V13.6006Z" fill="#8AC640"/>
<path d="M71.7526 40.5133C71.7526 40.5133 70.8195 43.7056 68.9533 44.7371C68.9533 44.7371 67.5782 45.2283 64.828 43.7059C64.0422 43.2639 63.4529 41.7415 63.5019 41.2502C63.5511 40.0714 64.2877 39.5313 64.2877 39.5313C64.2877 39.5313 65.0737 38.2051 66.0066 38.2543C66.94 38.3033 68.5115 38.4506 69.0027 38.0086C69.4444 37.5175 71.851 38.8926 71.7526 40.5133V40.5133ZM51.715 9.62219C51.715 9.62219 51.5187 12.1271 51.1749 13.6984C51.1257 13.9933 49.6525 14.1404 48.5718 14.5826C50.6345 20.4759 63.0599 20.4267 64.6807 17.5292C63.8949 16.9891 62.3233 16.1542 61.5867 15.8595C60.8499 15.5647 60.899 15.6138 60.8499 14.2388C60.8009 12.8635 60.7025 10.3098 60.6042 9.62219C60.506 8.93453 52.8935 8.93453 51.715 9.62219Z" fill="#010101"/>
<path d="M52.206 9.62231C52.206 9.62231 52.206 11.0466 52.0586 12.4216C52.0097 13.0601 51.9605 13.4529 51.8624 13.944C51.8132 14.2389 53.5321 15.4172 54.0232 18.0203C56.3806 23.2751 61.8323 20.6723 64.0913 18.1676C63.3055 17.6273 62.0285 16.8907 60.5553 16.3014C59.8185 16.0065 60.1623 15.3683 60.1133 13.9932C60.0642 12.6181 59.8676 10.6044 59.7695 9.86776C59.6709 9.13117 53.3848 8.93466 52.206 9.62231V9.62231Z" fill="#F0EFEF"/>
<path d="M51.7151 9.62316C51.7151 9.62316 51.6659 10.5073 51.5188 11.5386C52.157 12.1768 52.992 13.0609 53.6307 13.6013C54.0727 13.9943 55.1529 13.9451 56.1354 13.9451C57.0194 13.9451 57.8052 14.0432 58.149 13.847C58.935 13.454 60.0644 12.4719 60.7029 11.7351C60.6539 10.8511 60.6048 10.0162 60.5558 9.62316C60.5061 8.93551 52.8936 8.93551 51.7151 9.62316V9.62316Z" fill="#010101"/>
<path d="M56.1843 13.3542C55.5948 13.3542 54.9071 13.3052 54.367 13.2068C54.1213 13.1579 53.8759 13.0106 53.6794 12.9122C53.3355 12.6665 52.9917 12.3721 52.5992 12.0772C51.8131 11.4879 51.7642 11.1441 51.7642 10.997C52.108 7.90284 51.6658 5.30002 51.6658 5.30002C51.6658 5.30002 51.322 3.9739 53.1882 3.63008C55.0544 3.28625 56.1841 3.2373 56.1841 3.2373C56.1841 3.2373 57.3629 3.2373 59.1799 3.63008C61.0462 3.9739 60.7023 5.30002 60.7023 5.30002C60.7023 5.30002 60.2604 7.90284 60.6042 10.997C60.6042 11.1441 60.5552 11.4879 59.7692 12.0772C59.0815 12.5684 58.5414 13.1085 58.0013 13.2068C57.461 13.3052 56.7733 13.3542 56.1843 13.3542V13.3542Z" fill="#010101"/>
<path d="M56.1843 1.96094C52.943 1.96094 52.3042 2.84486 51.3711 3.82715C51.1749 4.0726 51.3219 5.54604 51.666 8.68919H52.108C52.108 8.68919 51.8131 7.80503 51.8623 6.77379C51.9115 5.74255 52.108 5.79174 51.9604 5.54604C51.7641 5.25116 51.3711 4.76002 52.2553 4.26911C53.1392 3.77796 54.5143 4.66188 56.1843 4.71107C57.854 4.66188 59.2783 3.77796 60.1622 4.26911C61.0461 4.76002 60.6533 5.25116 60.4571 5.54604C60.2606 5.84068 60.506 5.74231 60.5552 6.77379C60.6042 7.80503 60.3095 8.68919 60.3095 8.68919H60.7515C61.0461 5.54604 61.2426 4.17098 61.0953 3.92528C60.2603 2.84486 59.4256 2.00988 56.1843 1.96094V1.96094ZM71.7526 40.6607C71.7526 40.6607 70.8195 43.6566 69.0024 44.6878C68.6094 44.4915 68.6586 44.1969 68.3148 43.7547C68.2164 43.6076 67.8726 43.509 67.7255 43.3619C67.5782 43.2146 67.6274 42.9689 67.3817 42.7726C67.1852 42.5761 67.0378 42.7235 66.8413 42.5761C66.6451 42.3799 66.5956 42.1342 66.4486 41.9871C66.3502 41.8887 65.9574 41.8398 65.8593 41.7414C65.6136 41.4957 63.4529 41.0538 63.5511 40.5626C63.7473 39.8258 64.1404 39.2857 64.1404 39.2857C64.1404 39.2857 65.0735 37.9106 66.0063 37.9596C66.9395 38.0087 67.8236 38.2052 68.3148 37.7633C68.8551 37.2719 71.9002 39.0892 71.7526 40.6607Z" fill="#010101"/>
<path d="M65.3681 18.9538C65.3681 18.9538 68.4622 18.217 70.5741 20.2308C72.686 22.2935 72.5385 24.8471 71.9002 26.4187C72.4403 27.0572 73.4226 28.825 72.686 30.9369C75.9274 33.687 74.5031 37.9108 71.6056 40.7102C71.6056 40.7102 70.9179 38.1563 68.1677 38.009C68.2659 37.0269 65.6138 36.2409 66.8416 33.687C64.9754 33.2451 65.0246 31.9681 64.7299 30.3968C64.4842 28.825 65.3681 18.9538 65.3681 18.9538V18.9538Z" fill="#010101"/>
<path d="M64.2386 20.3283C64.2386 20.3283 67.8237 18.5113 69.9357 20.574C72.0474 22.6367 71.4578 24.8957 70.8196 26.4672C71.3597 27.1055 72.6367 28.923 71.8509 31.0836C71.7035 31.5747 70.6231 31.5747 69.8371 32.8517C71.8014 31.7218 73.0294 32.0167 73.4714 33.4407C74.1591 35.6507 72.6364 38.3027 71.3105 39.7762C71.3105 39.727 71.2613 39.6778 71.2613 39.6289C71.0651 40.3657 70.8194 41.7897 69.3462 43.3613C68.6093 44.1471 68.02 44.0489 67.185 43.8524C66.203 43.6067 65.8591 43.1645 64.484 42.4282C63.6983 41.9862 64.1402 41.4459 64.1402 41.0039C64.1402 40.9058 64.2383 40.7582 64.3859 40.562C64.484 40.3163 64.7787 39.9237 65.2207 39.4815C65.2207 39.4815 65.8591 38.5976 66.7925 38.6466C67.7256 38.6958 68.7077 38.4995 68.9534 38.2538C68.9534 36.5349 66.989 36.4857 67.6764 33.5391C67.7256 33.3918 67.9713 33.1461 68.7569 33.0479C67.578 32.8022 67.0379 32.753 66.203 31.9675C65.6137 31.4274 65.1717 30.7398 65.0241 29.8558C64.7297 28.3335 64.2386 20.3283 64.2386 20.3283V20.3283Z" fill="#F0EFEF"/>
<path d="M53.8757 17.2346C53.5811 16.8416 52.0587 14.8773 49.161 14.0915C48.326 13.8458 47.7859 14.5335 46.9511 15.0246C46.7054 14.8773 45.625 14.3861 45.0357 14.7297C44.4464 15.0733 44.0536 15.4174 43.4641 15.6628C43.1692 15.5155 42.3837 15.5155 41.7452 15.761C41.1067 15.9575 40.1244 16.3994 39.1913 17.6764C38.602 19.7883 49.6029 18.2164 49.6029 18.2164L53.8757 17.2346Z" fill="#010101"/>
<path d="M53.9741 17.2342C52.4023 16.6939 52.648 14.8769 49.1609 14.5822C48.4733 14.5331 48.0313 15.0731 47.5402 15.417C47.7859 15.6627 48.0313 16.0554 48.1786 16.4482C47.7367 15.9573 46.9509 15.3186 46.1648 15.1713C45.4282 15.0242 44.9371 15.5643 44.1513 15.9573C44.2984 16.1044 44.4459 16.3501 44.6422 16.645C43.9545 16.203 43.4636 16.0557 42.5305 16.3993C41.892 16.5955 40.6643 17.1359 39.7312 18.462C39.1419 20.5739 49.6519 18.2163 49.6519 18.2163L53.9741 17.2342Z" fill="#8AC640"/>
<path d="M63.2073 18.0199C63.2073 18.0199 63.2073 17.4796 63.1581 16.9887C63.1581 16.8906 62.7654 16.6449 62.7654 16.5467L62.6672 16.4483C62.6672 16.4483 63.453 16.0064 64.0423 16.2521C64.6805 16.4483 65.0244 17.2833 65.0244 17.2833C66.154 16.8906 66.2521 17.3325 66.7925 17.9218C67.9713 17.6761 68.1184 18.1181 68.8552 19.1987C68.8552 19.1987 67.9713 19.0514 66.2524 19.3458C64.5824 19.5913 63.2073 17.9707 63.2073 18.0199V18.0199Z" fill="#010101"/>
<path d="M63.0109 17.774C63.0109 17.774 63.3055 17.5283 63.2071 17.4792C63.7472 17.1845 64.4841 16.8409 64.8279 17.774C65.9575 17.381 66.1049 17.9214 66.645 18.5109C68.02 17.8724 68.1182 18.658 68.2165 19.0018C67.7746 19.0018 67.1363 19.051 66.2522 19.1491C64.5825 19.3948 62.9617 17.7249 63.0109 17.774Z" fill="#8AC640"/>
<path d="M46.3127 16.5469C46.3127 16.5469 49.1121 17.5289 51.4695 17.3816C53.8269 17.1853 57.854 16.9888 60.0149 18.2658C60.0149 18.2658 62.2249 17.4797 64.2877 18.0201C66.3507 18.5602 70.1321 22.0963 69.0027 25.8288C68.9043 26.0744 68.2658 26.4672 67.5292 26.7129C67.5292 26.7129 67.9222 28.3826 67.2346 29.7577C66.5469 31.0838 65.0245 33.6377 64.9753 37.1736C64.9264 37.7629 64.8282 38.9906 64.7299 39.5799C60.899 39.4328 55.0057 38.0083 49.2105 38.1067C49.2594 37.4685 49.3086 37.0755 49.3578 36.437H49.5049C49.2102 34.8162 49.1121 33.9813 48.8172 32.7535C46.951 31.5749 44.9864 30.1999 43.3169 27.5968C41.6961 24.9938 46.3127 16.5469 46.3127 16.5469V16.5469ZM65.27 43.0671C65.27 43.0671 68.315 53.97 64.7299 58.5374C64.7299 58.5374 65.27 60.6491 64.0422 62.9083C63.8457 63.8903 63.6 64.7745 63.4529 65.7565C62.8144 69.8328 61.7338 71.5517 61.4391 78.0834L58.4922 78.0345C58.4922 78.0345 58.1484 73.3198 57.1171 70.8151C56.5281 69.3911 54.2194 67.4754 54.318 65.5603C54.4162 64.0868 54.7108 62.8591 57.2157 60.8945C57.412 58.0462 54.5635 55.3448 55.0057 44.7368L65.27 43.0671Z" fill="#010101"/>
<path d="M64.3861 42.6249C65.1719 47.6343 66.9889 55.0502 63.6984 58.6842C63.8926 59.6057 63.9092 60.5558 63.7474 61.4835C63.6493 62.0728 63.4527 62.7113 63.2073 63.3987C62.7161 64.5775 62.5196 66.2964 62.3723 67.3276C61.7338 71.4039 61.7338 71.6006 61.4392 78.1324L58.4923 78.0832C58.4923 78.0832 58.1484 73.3685 57.1172 70.864C56.5281 69.4398 55.3001 68.212 55.202 66.2966C55.1039 64.8234 56.1351 61.8768 58.5909 61.9749C58.4436 56.0325 55.6932 57.211 54.9566 44.8349L64.3861 42.6249ZM46.3128 16.5469C46.3128 16.5469 47.3932 16.8907 48.5718 16.9888C49.7506 17.087 51.0276 16.9888 52.157 16.9396C54.5144 16.7434 57.854 16.4977 60.0641 17.7746C60.0641 17.7746 61.2919 17.3816 62.618 17.4797C63.2073 17.5289 63.7968 18.0201 64.4842 18.2166C66.6451 18.7567 68.7079 22.3418 67.7745 25.5833C67.6764 25.829 66.9887 25.5833 66.2029 25.829C66.35 26.5166 66.4486 28.0882 65.6626 29.7579C64.8278 31.4279 63.7474 33.5887 63.9437 37.7142C58.7869 37.4685 56.4787 37.1249 51.3709 36.8792C50.929 35.0619 50.6341 33.2449 50.5851 32.3118C51.2728 31.968 51.6653 31.6736 52.2059 31.084C50.7327 31.3297 50.1432 31.2314 49.259 30.7402C48.3751 30.2491 46.8035 28.6775 46.0177 27.6463C45.9195 27.5479 45.3795 29.1684 44.1517 29.2178C43.7095 28.5794 45.5757 26.7621 45.2319 26.0747C44.0044 23.5698 46.3128 16.5469 46.3128 16.5469V16.5469Z" fill="#F0EFEF"/>
<path d="M64.7784 38.548C64.7784 38.548 64.8766 40.3161 64.8766 40.758C64.8766 41.2492 65.2696 42.7224 65.3185 43.41C64.7784 44.3431 62.4211 46.4551 58.1482 47.2408C53.9246 48.1248 48.3259 41.4949 48.3259 41.4949C48.4732 40.8564 48.9644 38.99 49.3082 38.0079C49.3574 37.9098 49.4556 37.6641 49.4556 37.566C49.8978 36.9275 64.7784 38.548 64.7784 38.548V38.548Z" fill="#010101"/>
<path d="M63.6982 38.6965C63.6982 39.9242 63.8945 40.8084 64.042 41.5942C64.2875 43.0184 64.6803 43.9515 64.6803 44.8847C64.6803 47.7329 60.9478 47.2418 57.8044 47.3401C53.5808 48.2243 49.9956 41.5942 49.9956 41.5942C50.2902 40.4646 50.4868 39.1879 50.9287 38.1072C50.9777 37.5179 51.076 36.7813 51.125 36.4375C57.1167 36.4375 61.3403 36.7813 63.7961 37.0265C63.8945 37.5669 63.7963 38.5 63.6982 38.6965Z" fill="#F0EFEF"/>
<path d="M58.9835 45.0315C58.9835 45.0315 56.3807 39.2363 48.5717 40.9555C46.7057 46.2103 44.2007 52.2511 45.8215 58.7829C44.2007 60.9929 42.3345 62.2209 42.3345 66.2969C42.3345 70.3731 42.531 71.0608 42.531 71.0608L48.277 71.3557C48.277 71.3557 50.1432 68.9494 50.8799 66.3463C51.0764 65.6095 51.2729 64.2836 51.1255 62.7612C51.3218 62.4666 52.1568 61.7792 52.2552 60.453C52.2552 60.453 55.0545 58.9798 56.6753 55.3947C58.1979 52.1527 57.8049 49.3534 58.9835 45.0315Z" fill="#010101"/>
<path d="M58.9834 45.0314C58.8363 44.4913 56.8717 39.1873 49.603 40.7586C45.3304 52.1526 46.902 56.8674 47.5403 58.9298C44.6425 62.6131 43.3166 63.3989 43.9062 70.8639H47.737C49.5049 68.0646 49.8979 67.0331 49.996 63.3499C49.996 63.2026 49.4559 63.6445 49.0629 64.1357C49.3578 62.6133 50.1925 62.3187 50.831 61.3856C51.1256 60.9925 51.3711 60.4033 51.3711 59.6175C54.8089 57.3093 56.0859 54.4116 56.8225 51.4158C57.412 49.3533 58.0994 45.9645 58.9834 45.0314V45.0314Z" fill="#F0EFEF"/>
<path d="M46.8529 37.125C46.8529 37.125 48.179 37.1739 49.3578 37.567C50.4875 37.9597 50.4875 38.2052 50.9294 38.6966C51.3714 39.188 52.4518 39.9243 52.2556 40.6609C52.1572 41.0539 51.9117 41.1521 51.5679 41.4959C51.4206 41.6432 50.3399 42.8218 50.0945 42.9691C49.9471 43.0672 49.7506 43.2148 49.6033 43.3129L48.8667 43.8041C48.3755 44.0498 48.0317 44.1971 47.4916 44.1479C47.4916 44.1479 46.2638 44.0987 45.4778 43.264C45.4778 43.264 45.3797 42.871 45.5762 42.6747C45.5762 42.6747 44.5447 41.7905 44.2501 41.2013C43.9552 40.6122 43.9552 39.7772 44.1519 39.3353C44.2501 38.8928 46.1652 37.6651 46.8529 37.125V37.125ZM48.0809 84.9104L47.9336 86.1384C47.9336 86.1384 47.4916 86.6785 44.2011 86.6295C40.8614 86.5804 39.9775 85.5491 39.6828 85.0088L39.4866 83.7318C39.4866 83.7318 40.125 82.7987 40.2724 82.7987C41.3528 82.8969 45.0363 84.3703 47.5902 84.7631C47.8352 84.7631 47.8841 84.8612 48.0809 84.9104ZM55.202 82.4057C55.202 82.9458 55.1528 82.9458 55.1528 83.4862C55.7421 83.9281 57.2158 84.1738 60.0149 84.1244C64.0912 84.0262 67.8729 85.3524 72.4893 84.5663L72.5385 83.6824L72.0965 83.6335L55.7421 82.3074L55.202 82.4057Z" fill="#010101"/>
<path d="M58.7872 84.124H60.015C62.6672 84.0259 65.1719 84.6152 67.8729 84.7625C69.2972 84.7133 71.0653 84.3695 70.918 83.3382L56.9702 82.1594C56.1352 83.0925 56.7734 83.8783 58.7872 84.124V84.124ZM42.7767 63.4481C43.2186 63.7428 46.2145 65.5108 51.0766 65.2651C50.9782 66.1982 51.0274 68.0155 48.8665 71.2076C47.7861 72.7792 46.8527 75.5296 46.6564 79.0165C46.7056 79.8023 47.1476 80.4897 46.5583 81.5212C46.7546 82.1594 47.5404 83.4364 47.9334 84.2222C48.3262 85.0082 48.5227 85.8921 45.9196 85.9413C43.2676 85.9902 38.9948 85.6956 39.5843 83.6331C39.8792 82.5527 40.7139 81.4231 40.8123 80.9809C40.9104 80.5389 40.9104 79.213 41.7452 78.3289C42.482 75.8734 42.2363 73.516 42.0892 71.306C41.8435 68.9976 41.7943 65.3143 42.7767 63.4481V63.4481ZM47.3441 23.4222C50.8311 18.7564 47.8842 15.0242 42.2857 16.1536C40.0265 16.5956 37.7675 18.1674 37.6199 21.0156C36.8833 21.1138 35.2136 21.2119 34.3786 24.2569C33.7404 26.6143 33.3965 27.0562 32.2667 28.2348C31.5301 29.0698 32.3159 30.7887 32.856 32.0167C34.6732 36.2402 40.2719 36.633 44.0536 39.8253C45.3305 39.4815 46.6564 38.0575 47.0495 37.1244C43.8571 33.3425 44.5445 31.8693 43.2676 29.905C44.6429 29.4136 47.7861 27.4984 47.3441 23.4222Z" fill="#010101"/>
<path d="M46.6564 23.1274C46.8527 22.8325 47.1965 22.1943 47.3441 21.9486C47.3933 21.8994 47.9334 22.8325 47.9826 22.7836C49.3085 20.6225 49.6523 17.4793 48.1297 17.1847C47.7858 17.1355 47.1476 16.9884 46.6073 16.7917C45.6252 16.4479 44.7413 16.4479 43.1694 16.7427C41.0086 17.1355 38.8477 18.7071 38.8477 20.9663C38.8477 21.1136 40.3698 21.5556 40.812 23.3729C40.0752 22.3414 38.7983 21.2118 37.2759 22.1941C35.6551 23.2253 36.4901 25.5827 34.3292 28.0381C33.5923 28.8731 33.6907 29.8554 34.4763 31.8198C35.7532 34.914 41.7941 36.5837 45.0846 39.5303C45.8704 39.1865 46.4105 38.4007 46.8035 37.8114C44.5935 35.5032 43.7093 33.3421 43.0711 31.7706C42.2853 29.9535 41.4011 28.9223 39.6822 27.5468C40.5664 27.8906 41.254 28.2344 41.6465 28.529C42.0885 28.8237 42.727 28.8729 43.3165 28.6764C45.4287 27.9403 46.5583 24.9934 46.6564 23.1274Z" fill="#F0EFEF"/>
<path d="M68.0202 23.9128C67.8728 25.779 66.4978 24.8459 65.7611 24.5021C64.2877 23.8636 62.8142 23.4217 61.0953 23.4217C59.3764 23.4217 57.1663 23.569 55.2512 24.0602C52.5991 24.7968 51.8131 24.7478 50.6345 24.1583C49.456 23.5198 47.3935 21.9482 47.3935 21.9482C47.3935 21.9482 47.3443 22.4394 47.8354 23.0779C48.4737 23.8636 49.8982 24.8459 51.8133 25.4842C52.7465 25.779 53.4833 25.5823 54.3183 25.386C58.6892 24.3056 63.3056 24.1091 67.1854 26.4665C67.3819 26.5646 68.0696 26.27 68.3642 25.828C68.7568 25.1898 68.0202 23.9128 68.0202 23.9128V23.9128Z" fill="#010101"/>
<path d="M45.6741 42.625C46.0669 42.8707 46.558 43.018 47.0981 43.46C47.0981 43.46 46.6561 43.46 46.4599 43.2637C46.2142 43.1164 45.723 42.6744 45.6741 42.625V42.625Z" fill="#0A1825"/>
<path d="M59.8676 3.68014C59.7203 3.23818 58.6396 2.45215 56.1352 2.45215C53.434 2.45215 52.6482 3.28712 52.5992 3.72908C52.5992 3.8764 52.4027 5.44822 52.3535 6.08644C52.3535 6.08644 52.3535 6.87223 52.4025 8.05079C52.4517 8.83657 52.6482 9.27853 52.7463 10.31C52.8444 11.3902 53.1393 12.0779 53.6794 12.962C53.9251 13.1091 54.1214 13.2567 54.3671 13.3058C55.3494 13.5021 57.0683 13.5513 58.0014 13.3058C58.5415 13.1585 59.2292 12.2254 59.3765 11.3904C59.5728 10.3592 59.7693 9.62236 59.8185 8.98413C59.9166 8.34591 59.9658 6.92141 60.0147 6.5284C60.1623 5.44822 59.9166 3.77827 59.8676 3.68014V3.68014Z" fill="#F0EFEF"/>
<path d="M54.7109 64.3818C54.7109 64.3818 57.314 65.5114 63.7477 64.5292C63.7477 64.5292 61.9307 73.6639 62.7656 78.2311C62.7656 78.2311 63.6004 79.4099 69.7886 81.6688C69.7886 81.6688 72.5388 82.3565 72.4406 83.7318C72.4406 83.7318 72.5388 84.0264 69.1993 83.9281C65.8599 83.8297 62.7165 83.2404 60.5064 83.2404C58.2963 83.2404 55.9389 83.3385 55.5462 82.7003C55.1042 82.111 55.6443 80.5884 56.2828 79.7043C56.9707 78.7714 56.7739 78.0835 56.725 76.414C56.5772 72.0432 53.2375 67.525 54.7109 64.3818V64.3818Z" fill="#010101"/>
<path d="M54.1706 65.2157C53.8267 65.7069 54.2195 67.5728 54.7107 69.3901C55.2018 71.2071 56.2825 72.2878 56.528 75.2834C56.7734 78.23 56.8226 78.623 55.9876 80.3417C55.1526 82.0603 54.9072 83.6321 57.8047 83.6813C60.7021 83.7305 62.274 83.6321 65.2207 84.0743C68.1676 84.5163 69.1988 84.6636 70.8196 84.4182C72.4404 84.1727 72.784 83.6321 72.0965 83.1412C71.4089 82.6501 68.5603 82.11 67.3326 81.1275C66.1538 80.2435 62.8143 78.7701 62.7654 78.3773C62.6181 77.0512 62.5689 72.2384 62.8143 70.6668C63.06 69.095 63.4036 66.836 63.502 66.2467C63.6004 65.6574 64.0913 65.0679 63.2563 65.2644C62.4215 65.4607 59.2784 65.9029 56.921 65.7556C54.5636 65.6085 54.3181 65.0681 54.1706 65.2157V65.2157Z" fill="#8AC640"/>
<path opacity="0.3" d="M55.8405 80.3916C56.6752 80.7843 57.9032 81.0792 58.8363 81.0792C58.8363 81.0792 58.4923 82.7 59.0326 83.682C59.5727 84.6643 55.1036 84.0751 55.1036 84.0751L54.9074 80.5881L55.8405 80.3916ZM68.8552 84.6151C69.641 84.3695 70.1813 83.4855 69.5428 82.6508C68.8552 81.8158 68.2659 81.6685 69.1498 81.6196C70.034 81.5704 73.2753 83.5347 73.2753 83.5347L71.6053 85.0571L68.8552 84.6151ZM54.0232 67.1314C55.1528 67.5244 56.8717 67.6225 58.3452 67.5733C59.8184 67.5244 62.0285 67.3276 63.453 66.8367C64.877 66.3456 64.2877 67.3768 64.2877 67.3768L63.5019 68.1136C63.5019 68.1136 61.6357 68.8502 58.5909 68.8013C55.0057 68.7521 53.925 68.3593 53.925 68.3593L54.0232 67.1314ZM54.1213 69.5871C55.2512 69.9801 56.9699 70.0782 58.4433 70.029C59.9165 69.9801 61.8811 69.9801 63.3054 69.4398C63.8947 69.2435 63.5511 70.0782 63.5511 70.0782L63.3054 70.5202C63.3054 70.5202 61.39 71.2078 58.3941 71.1584C54.809 71.1095 54.1705 70.8146 54.1705 70.8146L54.1213 69.5871Z" fill="#010101"/>
<path d="M50.8801 35.1602C50.8801 35.504 54.711 37.4191 56.8227 37.8122C58.9346 38.2049 63.3547 37.8122 64.0421 37.6648L63.9438 38.3525C63.9438 38.3525 58.6889 39.1383 54.6618 38.0578C50.6344 36.9774 51.0766 36.7317 51.0766 36.7317L50.8801 35.1602Z" fill="#010101"/>
<path d="M42.6781 77.052C43.2674 77.3469 45.3793 77.887 46.7544 77.5923C46.9507 77.5432 46.7544 74.2035 47.2948 72.6811C48.0806 70.5692 49.3575 68.8503 49.9466 65.1181C47.8838 64.9216 45.5267 64.3813 44.2987 63.9883C42.7273 68.8014 43.2677 72.9266 42.6781 77.052V77.052ZM45.9689 80.1462C46.3127 80.2443 46.5582 80.6371 46.6565 80.3919C46.8528 79.9497 46.3127 79.115 46.2635 78.5257V78.4765C45.8216 78.0837 42.8257 78.0345 43.0222 78.2308C42.6784 78.8693 42.1383 78.7711 41.942 80.0481C41.8439 80.6863 42.6297 80.1462 43.366 80.097C42.0401 80.9809 40.5177 82.1108 40.272 83.0929C39.9774 84.4679 40.4685 84.8609 41.942 85.5978C43.219 85.8924 44.7414 85.9416 45.9199 85.8924C47.2461 85.6467 47.4918 85.0085 47.0987 84.1243C46.509 82.7982 46.1162 81.0793 45.9689 80.1462V80.1462Z" fill="#F0EFEF"/>
<path d="M46.5089 16.3506C48.1297 17.2837 50.3889 17.0382 51.2236 16.9891C51.4202 16.9891 53.3848 16.6452 53.4829 16.6942C53.6792 16.7434 53.6792 16.8907 53.6792 16.8907C53.6792 16.8907 52.9426 17.2834 51.2728 17.3816C49.7012 17.4797 47.835 17.3816 46.8038 16.8907C45.5758 16.3506 46.5089 16.3506 46.5089 16.3506ZM63.2071 17.2837C63.5017 17.48 65.4171 18.2168 66.2521 19.1007C66.9887 19.8867 66.596 19.8375 66.4484 19.641C66.2521 19.3953 64.7295 18.3641 64.1402 18.1187C63.5509 17.8732 62.8141 17.431 62.8141 17.3329C62.8141 17.2347 63.2071 17.2837 63.2071 17.2837V17.2837Z" fill="#010101"/>
<path d="M46.2634 37.6645C47.6877 37.5664 49.1611 37.9102 50.0942 38.8923C50.5854 39.3834 51.3712 39.9235 51.2731 40.4147C51.2731 40.562 50.9782 40.955 50.733 41.2496C50.5856 41.4459 50.1437 41.8879 49.9961 42.0354C49.7998 42.1827 49.1122 42.7231 48.9649 42.8212C48.8175 42.9196 48.621 43.1653 48.4737 43.2142C47.9828 43.4599 47.4425 43.2634 46.9513 43.018C46.4604 42.7723 47.0497 42.7231 46.5093 42.3303C45.1835 41.3972 44.4466 40.7585 44.9869 38.9415C45.0359 38.5976 45.576 38.2046 46.2634 37.6645V37.6645Z" fill="#F0EFEF"/>
<path opacity="0.4" d="M33.7399 26.4183C29.3198 28.1864 18.073 33.7853 14.8809 35.5042C17.5329 37.1739 18.7606 41.2009 19.1537 45.2772C19.2026 45.6702 19.2518 46.014 19.301 46.4068C19.3499 46.7506 19.3991 46.9961 19.4481 47.1436C19.4481 47.1928 19.4481 47.2909 19.4973 47.3399C22.395 39.4331 32.7574 31.0841 33.1504 30.4456C33.3467 30.151 32.9047 28.874 33.5924 27.6465C34.4765 26.0745 36.1957 25.3868 33.7399 26.4183V26.4183ZM44.2499 63.4976C46.5089 58.9794 46.5581 54.6574 46.5089 49.5989C46.5089 47.487 48.0313 44.4911 47.2458 45.3261C44.2989 48.6163 36.8831 54.8047 31.5299 55.1483C39.044 54.9029 41.9907 58.6845 44.2499 63.4976Z" fill="#010101"/>
<path d="M10.5588 39.6782C13.3582 37.6647 27.8463 29.9544 31.3333 28.8737C34.8201 27.7441 33.7397 26.418 33.7397 26.418C33.7397 26.418 19.5954 32.5077 11.1481 37.7628" fill="#010101"/>
<path opacity="0.4" d="M51.813 25.4853C50.6834 25.0433 49.7995 26.3694 50.0941 27.6464C50.389 28.9233 53.041 30.3473 52.8934 35.0131C52.7953 38.8439 51.9603 40.4152 51.9603 40.4152L50.0941 38.0581C50.0941 38.0581 49.7995 32.7538 49.161 31.9681C48.5227 31.1823 46.509 29.758 45.7232 29.0214C44.9374 28.2846 46.6071 27.3025 46.509 25.9272C46.4108 24.6013 47.3439 21.9493 47.3439 21.9493L51.813 25.4853ZM58.6397 46.4066C58.5416 50.0899 59.3766 55.5414 59.7202 58.1445C60.064 60.7473 60.5059 60.9438 59.7202 62.1226C58.9344 63.2522 57.9031 65.1184 57.9031 65.1184L54.5142 64.8235C54.5142 64.8235 57.2154 61.3857 57.3625 60.7473C57.5098 60.1091 55.9874 55.247 55.9874 55.247L58.6397 46.4066ZM52.1079 12.0288C52.7956 13.5509 53.6303 14.2386 54.9562 14.6808C55.742 14.9754 58.836 15.3684 60.064 13.9931C60.6041 13.3546 60.2603 11.6357 60.2603 11.6357L57.4609 13.8947L53.6792 13.2073L53.2373 12.0777L52.1079 12.0288Z" fill="#010101"/>
<path d="M52.4023 15.417C53.6793 16.252 56.8716 17.0378 57.7556 17.1851C58.6395 17.3813 60.0638 16.252 60.7514 15.9573C61.4883 15.6135 62.7652 15.417 64.2384 16.7431C64.3858 16.8904 63.8946 17.5289 63.8946 17.5289C63.8454 17.4797 63.5508 17.4797 63.1577 17.2832C62.765 17.0869 62.4211 16.9394 61.8319 16.9886C59.3761 17.2832 58.9833 18.1182 56.8224 17.6268C54.6616 17.1354 54.1212 16.7429 52.0095 16.841" fill="#8AC640"/>
<path fill-rule="evenodd" clip-rule="evenodd" d="M55.1716 16.742C54.1039 16.4229 52.962 16.0112 52.2977 15.5769L52.507 15.2568C53.1197 15.6575 54.2125 16.0562 55.2811 16.3756C56.3443 16.6933 57.3553 16.9244 57.7871 16.9963C57.7904 16.9969 57.7938 16.9976 57.7971 16.9983C57.9718 17.0371 58.1897 17.013 58.4436 16.9346C58.6953 16.857 58.9655 16.7314 59.2372 16.5865C59.4721 16.4612 59.7025 16.3246 59.9197 16.1959C59.9536 16.1758 59.9871 16.156 60.0203 16.1363C60.2606 15.9943 60.4885 15.8622 60.6734 15.7827C61.067 15.5995 61.6057 15.4553 62.2423 15.5341C62.8819 15.6132 63.6048 15.9153 64.3664 16.6009C64.3689 16.6031 64.3713 16.6054 64.3737 16.6078C64.4386 16.6726 64.4559 16.7534 64.4572 16.815C64.4585 16.8756 64.4452 16.935 64.4293 16.9853C64.3975 17.0865 64.3413 17.1948 64.2868 17.2878C64.231 17.383 64.171 17.4721 64.1255 17.5368C64.1026 17.5693 64.0831 17.5961 64.0692 17.6148C64.0622 17.6243 64.0566 17.6317 64.0527 17.6369C64.0507 17.6394 64.0492 17.6415 64.0481 17.6429L64.0468 17.6446L64.0463 17.6453L64.0463 17.6453C64.0462 17.6453 64.0462 17.6454 63.8947 17.5288L64.0462 17.6454C64.0127 17.689 63.962 17.716 63.9071 17.7196C63.8652 17.7223 63.8241 17.7112 63.7896 17.6885C63.7849 17.6872 63.7781 17.6853 63.7685 17.683C63.751 17.6787 63.7301 17.6741 63.703 17.6681L63.7024 17.668C63.6758 17.6621 63.6449 17.6553 63.6109 17.6472C63.4735 17.6145 63.2864 17.5611 63.0724 17.4541C62.6935 17.2648 62.3876 17.1346 61.8512 17.1787C60.9263 17.29 60.3073 17.4771 59.7576 17.6433C59.5898 17.694 59.4285 17.7427 59.2669 17.7868C58.5653 17.9781 57.8949 18.0666 56.7801 17.8131C56.1821 17.6771 55.7105 17.55 55.2987 17.4389C54.2016 17.1431 53.5287 16.9617 52.0185 17.0319L52.0007 16.6499C53.5739 16.5768 54.3095 16.7752 55.4292 17.0771C55.8371 17.1871 56.296 17.3109 56.8649 17.4402C57.911 17.6781 58.5174 17.5948 59.1663 17.4178C59.316 17.377 59.4697 17.3305 59.6325 17.2813C60.1864 17.1137 60.8458 16.9142 61.8092 16.7986C61.8114 16.7983 61.8137 16.7981 61.816 16.7979C62.4562 16.7445 62.8374 16.9092 63.2433 17.112L63.2433 17.1121C63.4223 17.2015 63.579 17.2465 63.6995 17.2752C63.73 17.2824 63.7581 17.2887 63.7847 17.2945L63.7882 17.2953C63.7996 17.2978 63.8112 17.3003 63.8224 17.3029C63.8628 17.245 63.912 17.1711 63.9569 17.0944C64.0067 17.0094 64.0457 16.9305 64.0645 16.8706C64.067 16.8626 64.069 16.8556 64.0705 16.8494C63.3745 16.2347 62.7365 15.9805 62.1954 15.9136C61.6426 15.8452 61.1753 15.9704 60.8323 16.1305C60.8305 16.1313 60.8287 16.1322 60.8268 16.1329C60.6684 16.2008 60.4614 16.3198 60.2149 16.4655C60.1823 16.4848 60.1492 16.5044 60.1155 16.5244C59.8988 16.6528 59.6603 16.7942 59.4171 16.9239C59.1364 17.0736 58.8417 17.212 58.5563 17.3C58.2749 17.3869 57.9852 17.4304 57.7194 17.3727C57.2648 17.2965 56.2411 17.0616 55.1716 16.742ZM63.7977 17.6911C63.7996 17.6918 63.7991 17.6918 63.7969 17.6908C63.7972 17.6909 63.7975 17.691 63.7977 17.6911Z" fill="#010101"/>
<path d="M51.9604 15.5645C53.5812 16.2521 56.7244 16.9887 57.6083 17.1852C58.4923 17.3817 59.9165 16.4976 60.6042 16.0556C61.8322 15.2698 63.4035 15.9083 64.1404 16.7433C64.6313 17.2833 64.8281 17.6272 64.8281 17.7745C64.8281 17.9708 64.2388 17.7745 64.2388 17.7745C63.8949 17.6272 63.5019 17.5782 63.2075 17.3815C62.8145 17.1852 62.4215 16.8906 61.8324 16.9395C59.3767 17.2344 58.8855 18.0691 56.7738 17.578C54.6621 17.0868 54.1218 16.6449 51.8628 16.792" fill="#8AC640"/>
<path d="M44.3482 61.434C44.25 61.3359 44.4463 61.2377 44.3482 61.2377C43.7099 61.2377 42.8257 60.7466 42.3344 60.0589C40.2227 57.0142 37.1284 55.0006 31.5297 55.148C23.1314 55.3442 19.7917 51.9067 19.1535 45.3257C18.8097 41.7406 17.8274 38.2537 15.8138 36.2891L14.635 37.0259C16.894 38.9903 17.6309 42.1826 18.122 46.5535C18.9078 53.1344 24.2119 56.1794 30.4001 56.2776C36.8338 56.3757 39.142 57.7018 41.5483 60.9433C42.3341 61.9746 43.2183 62.3184 43.9057 62.4657L44.3482 61.434Z" fill="#010101"/>
<path opacity="0.4" d="M67.1362 29.8555C67.2835 30.5921 67.6763 32.0163 68.462 32.7037C68.8061 33.0475 68.8551 33.1457 68.5604 33.1457C68.2655 33.1457 66.1047 33.0475 66.1047 33.0475L65.5154 32.0163L67.1362 29.8555Z" fill="#010101"/>
</svg>
