<svg fill="none" height="88" viewBox="0 0 63 88" width="63" xmlns="http://www.w3.org/2000/svg"><path d="m5.79346 0h3.95381v3.91941h3.64443v-3.91941h3.9538v11.8614h-3.9538v-3.95381h-3.61004v3.95381h-3.9882zm16.77794 3.95379h-3.4897v-3.95379h10.9504v3.95379h-3.5069v7.90761h-3.9538zm9.1969-3.95379h4.1429l2.5442 4.17727 2.5442-4.17727h4.1429v11.8614h-3.9538v-5.87914l-2.7677 4.26324-2.7676-4.26324v5.87914h-3.8851zm15.3339 0h3.9539v7.94197h5.6041v3.91943h-9.558" fill="#000"/><path d="m5.67287 80.9526-5.67287-63.6733h62.3672l-5.6729 63.6389-25.5623 7.0825" fill="#e44d26"/><path d="m31.2031 82.645v-60.0805h25.4935l-4.8649 54.3217" fill="#f16529"/><path d="m11.5868 30.2881h19.5972v7.8044h-11.0363l.722 7.9936h10.3143v7.7872h-17.4656zm2.4754 27.5047h7.8389l.5501 6.2401 8.7328 2.3379v8.1482l-16.0216-4.4695" fill="#ebebeb"/><path d="m50.6642 30.2881h-19.5628v7.8044h18.8408zm-1.4268 15.798h-18.136v7.8044h9.6267l-.9111 10.1424-8.7156 2.3379v8.1139l15.9872-4.4352" fill="#fff"/></svg>