<svg width="134" height="44" viewBox="0 0 134 44" fill="none" xmlns="http://www.w3.org/2000/svg">
<path d="M23.3379 12.04C17.8379 12.04 13.3784 16.4995 13.3784 21.9995C13.3784 27.4995 17.8379 31.959 23.3379 31.959C28.8379 31.959 33.2973 27.4995 33.2973 21.9995C33.2676 16.4995 28.8081 12.04 23.3379 12.04Z" fill="#3880FF"/>
<path d="M37.6082 12.9323C40.1204 12.9323 42.1569 10.8958 42.1569 8.38361C42.1569 5.87146 40.1204 3.83496 37.6082 3.83496C35.0961 3.83496 33.0596 5.87146 33.0596 8.38361C33.0596 10.8958 35.0961 12.9323 37.6082 12.9323Z" fill="#3880FF"/>
<path d="M43.1973 12.9321L43.019 12.5159L42.7217 12.8727C41.9784 13.7051 41.0271 14.3591 39.9865 14.7456L39.6892 14.8645L39.8081 15.1618C40.7298 17.3321 41.1757 19.651 41.1757 21.9997C41.1757 31.8402 33.1784 39.8672 23.3081 39.8672C13.4379 39.8672 5.4703 31.8402 5.4703 21.9997C5.4703 12.1591 13.4676 4.13211 23.3379 4.13211C26.0135 4.13211 28.5703 4.72671 30.9784 5.85644L31.246 5.97535L31.3649 5.67806C31.8108 4.63752 32.4946 3.74562 33.3865 3.03211L33.7433 2.73481L33.3271 2.52671C30.2054 0.9213 26.846 0.0888672 23.3081 0.0888672C11.2676 0.0888672 1.45679 9.89968 1.45679 21.9402C1.45679 33.9808 11.2676 43.7916 23.3081 43.7916C35.3487 43.7916 45.1595 33.9808 45.1595 21.9402C45.1595 18.8483 44.5054 15.8159 43.1973 12.9321Z" fill="#3880FF"/>
<path d="M61.0351 12.4863H56.427V31.5134H61.0351V12.4863Z" fill="#3880FF"/>
<path d="M110.773 12.4863H106.165V31.5134H110.773V12.4863Z" fill="#3880FF"/>
<path d="M95.5216 12.04C92.281 12.04 89.7837 14.0022 89.2189 14.5373L88.9216 12.486H85.0864V31.513H89.6945V20.0076C89.6945 17.7481 92.7567 15.9049 95.0161 15.9049C97.2161 15.9049 98.9405 18.0454 98.9405 20.6022V31.513H103.549V21.0481C103.519 16.0536 101.349 12.04 95.5216 12.04Z" fill="#3880FF"/>
<path d="M122.843 28.0648C119.365 28.0648 117.076 25.3594 117.076 21.9999C117.076 18.6405 119.365 15.9351 122.843 15.9351C125.787 15.9351 127.6 18.7891 127.6 18.7891L130.93 16.5594C129.978 15.0729 128.849 14.181 127.333 13.2594C126.203 12.5756 124.687 12.0107 122.992 12.0107C117.224 12.0107 112.824 16.3513 112.795 21.9702C112.824 27.5891 117.224 31.9297 122.992 31.9297C124.687 31.9297 126.203 31.3648 127.333 30.681C128.849 29.7594 129.978 28.8675 130.93 27.381L127.6 25.1513C127.6 25.181 125.816 28.0648 122.843 28.0648Z" fill="#3880FF"/>
<path d="M73.0459 12.04C67.2486 12.04 63.0864 16.5887 63.0864 21.9103C63.0864 27.3211 67.1297 31.959 73.1351 31.959C78.5756 31.959 83.0053 27.7968 83.0053 22.0292C83.0053 15.4292 77.8324 12.04 73.0459 12.04ZM73.1053 15.9644C75.9594 15.9644 78.6648 18.2833 78.6648 22.0292C78.6648 25.686 75.9594 28.0644 73.0756 28.0644C69.9243 28.0644 67.427 25.5076 67.427 21.9995C67.427 18.5211 69.8945 15.9644 73.1053 15.9644Z" fill="#3880FF"/>
</svg>
