<svg fill="none" height="80" viewBox="0 0 81 80" width="81" xmlns="http://www.w3.org/2000/svg"><path d="m80.4975 0h-79.999941v80h79.999941z" fill="#f7df1e"/><path d="m54.2364 62.4107c1.6114 2.6311 3.7079 4.5651 7.4158 4.5651 3.115 0 5.1048-1.5568 5.1048-3.708 0-2.5777-2.0444-3.4908-5.473-4.9904l-1.8794-.8064c-5.4248-2.3111-9.0286-5.2063-9.0286-11.327 0-5.6381 4.2959-9.9301 11.0096-9.9301 4.7796 0 8.2158 1.6635 10.692 6.019l-5.8539 3.7587c-1.2889-2.3111-2.6794-3.2215-4.8381-3.2215-2.2019 0-3.5975 1.3968-3.5975 3.2215 0 2.2553 1.3968 3.1683 4.6222 4.5651l1.8794.8051c6.3873 2.7391 9.9936 5.5314 9.9936 11.8095 0 6.7683-5.3168 10.4762-12.4571 10.4762-6.9816 0-11.4921-3.327-13.6991-7.6876zm-26.5562.6514c1.1809 2.0953 2.2552 3.8667 4.8381 3.8667 2.4698 0 4.0279-.9664 4.0279-4.7238v-25.5619h7.5175v25.6635c0 7.7841-4.5639 11.327-11.2254 11.327-6.0191 0-9.5048-3.115-11.2775-6.8667z" fill="#000"/></svg>