<svg fill="none" height="38" viewBox="0 0 164 38" width="164" xmlns="http://www.w3.org/2000/svg"><g fill="#131b28"><path d="m70.4501 14.9469.0003-.0016-1.0463 3.7084z"/><path d="m75.8242 22.9326-1.1531-.0068z"/><path d="m75.5529 28.5117h.0012l-6.9082.0253 6.9073-.0253z"/><path d="m76.9818 22.9326-1.1534-.0068z"/><path d="m76.1476 27.9936 1.2033-4.5893-1.2033 4.5902z"/><path d="m101.573 6.88477-2.2417 10.53833z"/><path d="m95.8059 6.88539-1.7019 7.87251 1.7019-7.87313z"/><path d="m101.215 6.40527h-4.7932c-.266 0-.5301.21352-.5869.47323l-1.7015 7.8731-1.7019 7.8732c-.0565.26-.3202.4726-.5862.4726h-3.3928c-3.3566 0-2.9683-2.3215-2.2809-5.5024.0069-.0321.0137-.0633.0206-.0961l.0755-.4008c.0044-.0259.0097-.0518.0141-.0755l.1532-.8163.1642-.8747c.05-.2637.1258-.6493.1752-.8918l.7735-3.7799.7744-3.77984c.0534-.26065-.1211-.47479-.387-.47479h-4.9202c-.2663 0-.5294.21414-.584.47416l-1.0576 5.01917-1.0579 5.0184c-.001.0022-.0013.0054-.0016.0075l-.0983.4667c-1.2187 5.5632-.8953 10.8683 5.7271 11.0343.1083.0032.192.0038.192.0038h10.3953c.266 0 .5294-.2135.585-.4742l2.2419-10.5374 2.242-10.53827c.055-.26033-.118-.47384-.384-.47384z"/><path d="m120.319 23.165c.266 0 .44.2136.387.4742l-.466 2.2747"/><path d="m119.802 28.1545.465-2.2766-.465 2.2772c0-.0006 0-.0006 0-.0006z"/><path d="m119.218 28.6725c.001 0 .001-.0006.002-.0006-1.411.0115-5.65.0434-8.836.0434 3.878 0 8.834-.0428 8.834-.0428z"/><path d="m107.512 20.2615c-.004-.2491.28-.6783.546-.6783l-.599-.01c-.27 2.7133.053.6883.053.6883z"/><path d="m110.796 28.751c-.031 0-.062 0-.092.0006.03-.0006.061-.0006.092-.0006z"/><path d="m120.315 23.165c.266 0 .44.2136.387.4742l-.465 2.2747-.076.3711"/><path d="m111.535 28.751c-.039 0-.076 0-.113.0006.037-.0006.074-.0006.113-.0006z"/><path d="m111.832 28.751c-.097 0-.195.0006-.29.0006.095 0 .193-.0006.29-.0006z"/><path d="m113.057 28.6719c-.388.0015-.775.0031-1.156.004.381-.0006.769-.0022 1.156-.004z"/><path d="m119.19 28.6719c-1.033.0084-3.586.0274-6.132.0374 2.545-.0093 5.098-.029 6.132-.0374z"/><path d="m119.802 28.1834.39-1.9061-.39 1.9076c0-.0006 0-.0006 0-.0015z"/><path d="m40.9589 20.3202.7445-3.3007-.8512 3.773-.8169 3.8433.7161-3.3691c.0552-.2607.1489-.6867.2075-.9465z"/><path d="m49.8537 6.40527h-5.2641c-.2663 0-.532.21258-.5913.47167l-.4994 2.20318-.4991 2.20408c-.0587.2591.1111.4717.3774.4717h5.305c.266 0 .5304-.2126.5875-.4726l.4826-2.20318.4822-2.20162v-.00063c.0569-.25971-.1142-.4726-.3808-.4726z"/><path d="m48.7219 13.6686v-.0006l-1.5439 7.143z"/><path d="m42.4566 13.668-.7454 3.3007z"/><path d="m48.349 13.1895h-5.3057c-.2659 0-.5319.2125-.5906.4726l-.7454 3.3007-.7445 3.3007c-.0587.2597-.1523.6858-.2076.9464l-.716 3.3691-.7155 3.3691c-.0559.2597-.1701.6799-.2553.9321 0 0-.9911 2.9492-2.6577 2.9158-.0709-.0016-.1399-.0025-.2079-.0041-.8076-.0153-1.4419-.0265-1.4419-.0265h-.0012c-.2656-.0041-.5328.2032-.595.4617l-.55 2.313-.5497 2.3122c-.0615.2584.1052.4716.3696.4763.9452.0112 3.0616.035 4.3427.035 4.1622 0 6.3564-2.3062 7.7629-8.9423l1.6463-7.6162 1.5439-7.143c.0562-.2598-.1158-.4726-.3817-.4726z"/><path d="m123.706 28.4474c-.266 0-.439-.2135-.383-.4742l3.992-18.69488"/><path d="m129.258 27.9519 1.615-7.9792z"/><path d="m123.382 28.2003c-.033-.1302-.014-.4495.043-.7102l1.894-8.8739-1.996 9.3471c-.055.2607.117.4739.383.4739h.485c-.267 0-.777-.1068-.809-.2369z"/><path d="m128.929 28.3168c-.145.0587-.482.1068-.748.1068h.485c.266 0 .527-.2136.579-.4748l.097-.4742c-.053.2607-.268.7835-.413.8422z"/><path d="m130.057 23.9729.712-3.5217c0 .0022 0 .0053-.001.0068z"/><path d="m145.812 10.5557.22.9083c.06.2601-.108.4711-.373.4717"/><path d="m129.338 27.4784.711-3.5155z"/><path d="m145.579 9.59766.217.93054z"/><path d="m130.775 20.4887c.053-.2607.14-.6827.196-.9412l.761-3.5651-.862 4.0384z"/><path d="m127.368 8.95898c-.053.2516-.121.56937-.166.77976l-1.894 8.87456 1.996-9.34778z"/><path d="m146.014 11.4452-.219-.9084-.218-.93054-.11-.47104c-.431-1.67439-1.696-2.64082-4.443-2.64082l-4.277-.00437-3.938-.00468h-4.432c-.266 0-.529.21258-.584.47323l-.196.92616-.231 1.09347-.065.30654-1.995 9.34775-1.894 8.8739c-.057.2607-.076.5797-.043.7102.032.1301.542.2369.809.2369h3.998c.266 0 .603-.0481.748-.1068s.359-.5812.412-.8419l.711-3.5154.711-3.5149c.001-.0015.001-.0047.002-.0068l.095-.468.861-4.0383.762-3.5667c.056-.2591.318-.471.584-.4719l12.58-.006c.265-.0006.433-.2119.373-.4716z"/><path d="m162.209 3.22356c-.266.00188-.702.00375-.968.00375h-4.026c-.267 0-.608.1798-.758.39956l-8.903 13.04393c-.151.2204-.322.1876-.381-.0715l-.656-2.874c-.059-.2597-.325-.4716-.591-.4716h-5.724c-.267 0-.424.2088-.352.4648l2.565 8.985c.074.2563.079.6768.013.9346l-1.118 4.3486c-.066.2582.098.4692.364.4692h5.657c.266 0 .538-.211.604-.4692l1.118-4.3486c.066-.2578.251-.6433.412-.8559l14.454-19.18468c.161-.21257.074-.38582-.192-.38363l-1.517.00967z"/><path d="m116.765 14.4623v-.0053c-.034.2887-.3.5007-.566.5007h-7.257c-.251 0-.378-.1708-.342-.3812.003-.0059.004-.0112.007-.0165 0 0-.002.0006-.004.0022.002-.0085.002-.0163.004-.0247 0 0 .013-.0509.033-.1233.693-1.8426 2.105-3.0522 4.758-3.0522 2.987 0 3.57 1.4593 3.367 3.1003zm-2.129-8.37636c-9.315 0-11.522 5.65406-12.76 11.36056-1.239 5.8163-1.132 11.2547 8.507 11.2547h.342c.031-.0007.062-.0007.092-.0007h.622c.037-.0006.075-.0006.113-.0006.096 0 .193-.0006.29-.0006h.069c.381-.0006.768-.0025 1.156-.0038h.019c2.546-.0099 5.099-.029 6.133-.0374.265-.0041.523-.2173.578-.4757l.39-1.9073.076-.3712.466-2.2749c.053-.2607-.121-.4742-.388-.4742h-8.665c-3.447 0-4.47-.9158-4.093-3.6085h13.852l-.001.0016c.003 0 .007-.0016.009-.0016.221-.0037.424-.1554.505-.3574.015-.0387.028-.079.034-.1211l-.002.0015c2.057-7.7582 1.467-12.98305-7.344-12.98305z"/><path d="m70.6015 14.4467-.1311.4642c0 .0015-.0003.0015-.0003.0015l-1.046 3.7069-1.0454 3.7062c-.0725.2559-.3493.4657-.6159.4657h-5.5364c-4.1994 0-5.222-3.2845-4.1994-8.1291 1.0223-4.95544 3.027-8.03577 7.1602-8.34761 5.6481-.42578 6.7781 3.547 5.4143 8.13251zm3.7967 8.0592s2.6103-6.3377 3.203-9.9986c.8085-4.9005-1.645-12.0073-11.122-12.0073-9.423 0-13.5147 6.78528-15.0761 14.1615-1.5611 7.4295.4845 13.9454 9.8538 13.8921l7.3915-.0275 6.9082-.0253c.266-.0022.5382-.2132.6059-.4701l1.2034-4.5902c.0671-.2575-.0955-.4695-.3615-.4711l-1.1537-.0068-1.1528-.0069c-.2263-.0015-.3559-.1476-.3287-.3421.005-.035.0131-.0709.0284-.1083z"/><path d="m121.036 18.2947c0 .1754-.142.3178-.318.3178s-.318-.1424-.318-.3178.142-.3172.318-.3172.318.1421.318.3172z"/></g><path d="m2.43772 10.0193c-2.602115 3.7396-2.2781 8.6048-.29062 12.5782.04745.0952.09677.1888.14578.2828.03121.0593.06056.1205.09271.1789.01842.0352.03902.0696.05806.103.03402.0633.06867.1236.10363.1851.06181.1089.12487.2172.18979.3256.0359.0593.07117.1189.10832.1782.07148.1158.14515.2301.22007.3446.03121.0487.06181.0974.09396.1445.10363.1549.20945.3088.31871.4605.00281.004.00562.0084.00905.0121.01717.0244.03621.0481.054.0725.09427.1301.19198.259.29062.3864.03621.0465.07273.093.10925.1395.08803.1105.17762.2201.26876.33.03403.0412.06805.0821.10239.1227.12237.1439.24691.2871.37427.4273.00219.0022.00531.0053.0075.0078.0053.0059.00998.0097.01467.0159.12423.1358.25128.2682.3802.4008.03996.0412.08085.0824.12205.1227.09958.1005.20103.1998.30373.2981.04151.0397.08241.0799.12392.118.13704.1289.27532.2553.4161.379.0025.0021.00437.0037.00656.0053.02403.0212.04869.0412.07242.0615.12424.1077.25066.2144.37802.3193.05181.0421.10457.0833.1567.1252.10394.083.20914.1654.31496.2459.05619.0428.11206.0856.16856.1283.11706.0859.23474.1705.35367.2538.04339.0312.08522.0615.12861.0915.01218.0081.02341.0165.03559.025.11268.0777.22818.1523.34337.2272.04932.0328.09864.0671.14858.099.17668.112.35617.2225.53753.3293.04932.0281.09895.0555.14858.0836.13329.0771.26752.1527.40362.2263.07336.0397.1489.0771.22319.1152.09614.0503.19135.1015.28874.1502.02216.0106.04526.0212.0668.0321.03933.0191.07898.0372.11831.0572.15105.0724.30345.1432.45765.2116.0327.0147.0643.029.0967.0437.1764.0768.3543.1508.5338.2216.0431.0175.0865.0344.1299.0512.166.064.3346.1271.5038.1867.0212.0075.0418.0143.0634.0218.1854.065.373.1252.5615.1839.045.0128.0902.0275.1355.0403.1923.058.3821.1273.58.1638 12.5829 2.2947 16.2379-7.5616 16.2379-7.5616-3.0697 3.9993-8.5187 5.0541-13.6814 3.8798-.1954-.0443-.3852-.1052-.5759-.1617-.0484-.0144-.0962-.0287-.1439-.0434-.1861-.0571-.3712-.1174-.5547-.1804-.025-.0091-.0506-.0184-.0762-.0275-.1645-.058-.3274-.1189-.4891-.1813-.0459-.0185-.0915-.0359-.1374-.0544-.1776-.0699-.3539-.1432-.5281-.2194-.0356-.0153-.07-.0312-.1055-.0465-.1499-.0678-.2978-.1364-.4455-.2073-.0427-.0206-.0852-.0403-.1286-.0615-.1158-.0565-.2304-.1167-.3446-.1754-.0765-.0403-.1542-.0784-.2301-.1205-.1395-.0746-.2765-.1523-.4129-.2316-.0462-.0259-.0931-.0509-.1396-.0777-.1813-.1068-.3605-.2173-.5378-.3294-.049-.0312-.0968-.0646-.1452-.0967-.1286-.0831-.2566-.1677-.3827-.2544-.0418-.0285-.0821-.0587-.1233-.0868-.12171-.0862-.2422-.1733-.36176-.2616-.05431-.0403-.10769-.0809-.16044-.1211-.10957-.084-.21851-.1686-.32652-.2554-.049-.039-.0977-.0777-.14577-.1167-.13704-.1127-.27282-.2263-.40642-.3431-.01405-.0121-.02935-.0243-.04464-.0371-.14484-.1274-.28687-.2575-.42765-.3886-.04058-.0391-.08023-.0771-.12018-.1159-.10426-.0992-.20665-.1991-.30716-.3012-.04058-.0402-.08085-.0799-.12049-.1205-.12799-.1308-.25378-.2634-.37677-.3983-.00625-.0068-.0128-.0131-.01873-.02-.13048-.1423-.25753-.2881-.38239-.4351-.03371-.0403-.06649-.0793-.1002-.1189-.09271-.1121-.18511-.2254-.27501-.34-.03371-.0412-.06742-.0833-.10083-.1258-.10831-.1404-.21413-.2806-.31777-.4229-2.86619-3.9098-3.89599-9.3022-1.60509-13.73074" fill="#0868ac"/><path d="m10.5237 6.8999c-1.88171 2.70762-1.77963 6.3323-.3119 9.196.2463.4801.5229.9459.8322 1.3894.2822.404.5947.8847.9686 1.2093.1358.1495.2775.295.4224.4383.0365.0374.074.073.1111.1099.1408.1364.2837.2703.4314.4008.0062.0043.0115.0106.0175.0153.0015.0015.0031.0022.0043.0037.1633.1433.3322.2813.5039.4171.038.0287.0755.0593.1142.0889.1717.1321.3471.2616.5269.3849.0053.0041.01.0078.0153.0115.0793.055.1602.1059.2404.1586.0384.025.0752.0518.1139.0753.1283.0824.2585.1623.3905.2394.0188.0112.0372.0212.0553.0318.1139.0656.2294.1305.3452.1929.0406.0228.0815.0428.1227.064.0802.0418.1601.0846.2416.1249.0122.0062.025.0115.0365.0168.1658.0815.3331.1602.5038.2348.0366.0162.0743.0306.1115.0459.1364.0577.2744.1142.413.1676.0586.0222.1179.0434.1766.0646.1258.0465.2519.0893.3793.132.0574.0181.1139.0372.1714.0547.181.0565.3596.1273.5484.1585 9.7152 1.6095 11.958-5.8703 11.958-5.8703-2.0218 2.9121-5.9372 4.3011-10.1153 3.2167-.1858-.0487-.3687-.102-.5504-.1592-.0555-.0168-.1101-.0349-.1654-.0534-.1292-.0418-.2575-.0861-.3849-.1326-.058-.0212-.1164-.0425-.1735-.0646-.1396-.0534-.2775-.109-.4143-.167-.0374-.016-.0752-.0303-.1117-.0472-.1714-.0746-.3403-.1532-.5066-.2356-.0859-.0419-.1702-.0859-.2545-.1296-.0486-.025-.0977-.0502-.1467-.0752-.108-.0587-.2153-.1199-.3215-.1814-.025-.0147-.0515-.0284-.0768-.0437-.1317-.0768-.2612-.1561-.3895-.2375-.0397-.0253-.0778-.0528-.1174-.0787-.0846-.0549-.1692-.1105-.2522-.1667-.1792-.1236-.3534-.2531-.5251-.3842-.0396-.0313-.0793-.0619-.1183-.0931-1.8289-1.444-3.2785-3.4171-3.9678-5.6546-.7223-2.32058-.5665-4.9255.6849-7.03941" fill="#0868ac"/><path d="m17.3172 4.51771c-1.1091 1.63257-1.2183 3.65969-.4485 5.46269.8116 1.9135 2.475 3.415 4.416 4.1267.0802.0296.1601.0565.2413.0839.0353.0107.0705.0228.1061.0334.1146.0359.2279.0778.3462.0999 5.3644 1.0364 6.8193-2.7528 7.2067-3.3104-1.2745 1.8352-3.4165 2.2756-6.0445 1.6376-.2076-.0506-.4358-.1255-.6359-.1963-.2566-.0915-.5094-.1958-.7551-.3138-.4667-.2241-.9115-.4963-1.3238-.8078-2.3518-1.78428-3.8127-5.18832-2.2781-7.96055" fill="#0868ac"/></svg>