<svg fill="none" height="64" viewBox="0 0 62 64" width="62" xmlns="http://www.w3.org/2000/svg" xmlns:xlink="http://www.w3.org/1999/xlink"><clipPath id="a"><path d="m.018799 0h61.5385v64h-61.5385z"/></clipPath><g clip-path="url(#a)"><path clip-rule="evenodd" d="m61.097 14.2325c.0226.0838.0342.1703.0344.2572v13.504c0 .1733-.0457.3436-.1326.4935-.0869.15-.2118.2744-.3622.3606l-11.3341 6.5256v12.9341c0 .352-.1871.677-.4923.8542l-23.6591 13.6197c-.0541.0308-.1132.0504-.1723.0714-.0222.0074-.0431.0209-.0665.027-.1653.0436-.3392.0436-.5046 0-.0271-.0073-.0517-.0221-.0775-.032-.0542-.0196-.1108-.0369-.1625-.0664l-23.654132-13.6197c-.150268-.0863-.275125-.2107-.361988-.3607-.0868631-.15-.1326621-.3202-.1327812-.4935v-40.51196c0-.08862.0123077-.17477.0344616-.25847.0073846-.0283.0246154-.05415.0344615-.08246.0184611-.05169.0356921-.10461.0627691-.15261.018462-.032.045539-.05785.067692-.08739.028308-.03938.054154-.08.087385-.11446.028308-.02831.065231-.04923.097231-.07385.035692-.02953.067692-.06153.108308-.08492h.00123l11.827663-6.809846c.1498-.086178.3196-.131534.4923-.131534.1728 0 .3426.045356.4923.131534l11.8277 6.809846h.0025c.0394.02462.0726.05539.1083.08369.032.02462.0677.04677.096.07385.0345.03569.0591.07631.0886.11569.0209.02954.0493.05539.0665.08739.0283.04923.0443.10092.064.15261.0098.02831.0271.05416.0344.08369.0227.08388.0343.17036.0345.25724v25.30336l9.856-5.6751v-12.9353c0-.0862.0123-.1736.0345-.256.0086-.0296.0246-.0554.0344-.0837.0197-.0517.037-.1046.064-.1526.0185-.032.0456-.0579.0665-.0874.0295-.0394.0541-.08.0886-.1145.0283-.0283.064-.0492.096-.0738.0369-.0296.0689-.0616.1083-.085h.0012l11.829-6.80981c.1497-.0863.3195-.13172.4923-.13172s.3426.04542.4923.13172l11.8277 6.80981c.0418.0247.0738.0554.1107.0837.0308.0246.0665.0468.0948.0739.0345.0357.0591.0763.0886.1157.0222.0295.0493.0554.0665.0874.0283.048.0443.1009.064.1526.0111.0283.0271.0541.0345.0837zm-1.9373 13.1913v-11.2295l-4.1391 2.3828-5.7181 3.2923v11.2295l9.8585-5.6751zm-11.8277 20.3139v-11.2369l-5.6246 3.2123-16.0615 9.1667v11.3428zm-45.34151-38.23755v38.23755l21.68371 12.4837v-11.3403l-11.328-6.4111-.0037-.0025-.0049-.0024c-.0382-.0222-.0702-.0542-.1059-.0813-.0307-.0246-.0664-.0443-.0935-.0713l-.0025-.0037c-.032-.0308-.0541-.069-.0812-.1034-.0246-.0332-.0542-.0616-.0739-.096l-.0012-.0037c-.0221-.0369-.0357-.0812-.0517-.1231-.016-.0369-.0369-.0714-.0467-.1108v-.0012c-.0124-.0468-.0148-.096-.0197-.144-.005-.0369-.0148-.0738-.0148-.1108v-.0024-26.4382l-5.71693-3.2935-4.13908-2.38032zm10.84311-7.37723-9.8548 5.67262 9.8523 5.67266 9.8535-5.6739-9.8535-5.67138zm5.1249 35.40188 5.7169-3.2911v-24.73355l-4.1391 2.38275-5.7181 3.2923v24.7336zm30.3594-28.70773-9.8536 5.67263 9.8536 5.6726 9.8523-5.6738zm-.9859 13.05233-5.7181-3.2923-4.1391-2.3828v11.2295l5.7169 3.2911 4.1403 2.384zm-22.6732 25.3058 14.4529-8.251 7.2246-4.1231-9.8461-5.6689-11.3366 6.5267-10.3323 5.9483z" fill="#ff2d20" fill-rule="evenodd"/></g></svg>