<svg width="134" height="80" viewBox="0 0 134 80" fill="none" xmlns="http://www.w3.org/2000/svg">
<g clip-path="url(#clip0)">
<path d="M31.5754 21.0524H56.7103V23.0406H33.8795V38.0041H55.3488V39.9922H33.8795V56.4206H56.9721V58.4088H31.5754V21.0524ZM58.9619 21.0524H61.6325L73.4668 37.4809L85.5629 21.0524L102.016 0.18457L74.9854 39.2074L88.9142 58.4088H86.1389L73.4668 40.934L60.7423 58.4088H58.0194L72.053 39.2074L58.9619 21.0524ZM89.9091 23.0406V21.0524H118.552V23.0406H105.357V58.4088H103.053V23.0406H89.9091Z" fill="black"/>
<path d="M0.130859 21.0527H3.01089L42.7248 80.1954L26.313 58.4091L2.53961 23.878L2.43488 58.4091H0.130859V21.0527Z" fill="black"/>
<path d="M118.32 55.8202C118.797 55.8202 119.144 55.4572 119.144 54.9881C119.144 54.519 118.797 54.156 118.32 54.156C117.85 54.156 117.497 54.519 117.497 54.9881C117.497 55.4572 117.85 55.8202 118.32 55.8202ZM120.584 53.6311C120.584 55.016 121.587 55.9207 123.05 55.9207C124.608 55.9207 125.549 54.9881 125.549 53.3687V47.6671H124.294V53.3631C124.294 54.2621 123.84 54.7424 123.039 54.7424C122.322 54.7424 121.834 54.2956 121.817 53.6311H120.584ZM127.191 53.5585C127.281 54.9993 128.486 55.9207 130.279 55.9207C132.196 55.9207 133.395 54.9546 133.395 53.4133C133.395 52.2015 132.711 51.5314 131.052 51.1461L130.161 50.9283C129.108 50.6826 128.682 50.3532 128.682 49.778C128.682 49.052 129.343 48.5774 130.335 48.5774C131.277 48.5774 131.927 49.0409 132.044 49.7836H133.266C133.193 48.4266 131.994 47.4717 130.352 47.4717C128.587 47.4717 127.41 48.4266 127.41 49.8617C127.41 51.0456 128.077 51.7492 129.539 52.0899L130.582 52.3412C131.652 52.5925 132.123 52.961 132.123 53.5753C132.123 54.2901 131.383 54.8094 130.374 54.8094C129.293 54.8094 128.542 54.3236 128.435 53.5585H127.191Z" fill="black"/>
</g>
<defs>
<clipPath id="clip0">
<rect width="133.548" height="80" fill="white"/>
</clipPath>
</defs>
</svg>
