<svg fill="none" height="89" viewBox="0 0 143 89" width="143" xmlns="http://www.w3.org/2000/svg" xmlns:xlink="http://www.w3.org/1999/xlink"><linearGradient id="a"><stop offset="0" stop-color="#3f873f"/><stop offset=".3" stop-color="#3f8b3d"/><stop offset=".6" stop-color="#3e9637"/><stop offset=".9" stop-color="#3da92e"/><stop offset="1" stop-color="#3dae2b"/></linearGradient><linearGradient id="b" gradientUnits="userSpaceOnUse" x1="58.3199" x2="45.8441" xlink:href="#a" y1="26.9146" y2="52.0254"/><linearGradient id="c" gradientUnits="userSpaceOnUse" x1="50.7872" x2="85.3441" y1="40.1018" y2="14.9056"><stop offset=".1" stop-color="#3f873f"/><stop offset=".4" stop-color="#529f44"/><stop offset=".7" stop-color="#63b649"/><stop offset=".9" stop-color="#6abf4b"/></linearGradient><linearGradient id="d"><stop offset=".1" stop-color="#6abf4b"/><stop offset=".3" stop-color="#63b649"/><stop offset=".6" stop-color="#529f44"/><stop offset=".9" stop-color="#3f873f"/></linearGradient><linearGradient id="e" gradientUnits="userSpaceOnUse" x1="37.2255" x2="68.4516" xlink:href="#d" y1="18.1753" y2="18.1753"/><linearGradient id="f" gradientUnits="userSpaceOnUse" x1="3420.22" x2="6286.84" xlink:href="#d" y1="4061.01" y2="4061.01"/><linearGradient id="g" gradientUnits="userSpaceOnUse" x1="79.3806" x2="88.7489" xlink:href="#d" y1="79.7859" y2="79.7859"/><linearGradient id="h" gradientUnits="userSpaceOnUse" x1="1810.21" x2="3299.73" xlink:href="#d" y1="1556.67" y2="1556.67"/><linearGradient id="i" gradientUnits="userSpaceOnUse" x1="3516.89" x2="3100.24" xlink:href="#a" y1="805.472" y2="2148.19"/><clipPath id="j"><path d="m.483398.697266h141.835v88h-141.835z"/></clipPath><g clip-path="url(#j)"><path d="m70.6005 88.7334c-.4749-.0073-.9395-.1418-1.3465-.3898l-4.2641-2.5662c-.6412-.3574-.3206-.4873-.1282-.5523.6764-.2198 1.3228-.5255 1.9236-.9095.0515-.0238.1083-.0333.1646-.0276s.1102.0264.156.0601l3.2702 1.949c.0633.0371.1352.0566.2084.0566.0731 0 .145-.0195.2083-.0566l12.8242-7.4714c.0489-.0386.0886-.0879.1164-.1441.0277-.0562.0427-.1179.0439-.1807v-15.0078c-.0049-.0656-.0248-.1291-.0582-.1855s-.0793-.1041-.1342-.1393l-12.8241-7.4714c-.0545-.0285-.115-.0434-.1763-.0434-.0614 0-.1218.0149-.1764.0434l-12.8241 7.4714c-.0548.0352-.1008.0829-.1342.1393s-.0533.1199-.0582.1855v14.9753c-.0035.0717.0126.1431.0465.2061.034.0631.0844.1154.1459.1512l3.5266 2.0465c1.9236.9746 3.0778-.1624 3.0778-1.2993v-14.7804c-.0045-.0496.0014-.0996.0171-.1468.0157-.0471.0409-.0905.0741-.1272.0333-.0367.0737-.0659.1187-.0859.045-.0199.0936-.0301.1428-.0299h1.603c.0518-.0051.104.0016.1529.0194s.0934.0463.1301.0836c.0368.0372.065.0823.0826.1318.0175.0496.0241.1025.0191.155v14.7804c0 2.5987-1.3786 4.0605-3.7831 4.0605-.7374 0-1.3145 0-2.9496-.8121l-3.3663-1.9491c-.4084-.2427-.7474-.589-.9835-1.0048s-.3612-.8868-.363-1.3665v-14.9753c-.0015-.4804.1223-.9526.3587-1.369.2365-.4164.5772-.7622.9878-1.0024l12.8242-7.5039c.4093-.2218.8663-.3378 1.3305-.3378.4641 0 .9211.116 1.3305.3378l12.8241 7.4714c.4154.2429.7592.5938.9959 1.0164s.3578.9016.3506 1.3875v14.9428c.0016.4766-.1187.9455-.349 1.361-.2304.4156-.563.7636-.9654 1.0103l-12.8242 7.5039c-.4102.2366-.8745.3599-1.3465.3574z" fill="#679e63"/><path d="m74.5449 78.4004c-5.6106 0-6.7969-2.5987-6.7969-4.8076-.0002-.0498.0099-.0991.0296-.1447s.0486-.0866.0848-.1202c.0362-.0337.079-.0593.1256-.0752.0465-.0159.0958-.0218.1448-.0173h1.6671c.0882-.0003.1734.0328.2387.093.0653.0601.106.1429.114.2319.2565 1.6892.9939 2.5662 4.3923 2.5662 2.693 0 3.8472-.6496 3.8472-2.0789 0-.8446-.3206-1.4618-4.5205-1.8841-3.5267-.3249-5.6747-1.137-5.6747-3.9631 0-2.5988 2.1801-4.1905 5.835-4.1905 4.1037 0 6.1235 1.4618 6.4121 4.5478.0079.0607.0002.1225-.0222.1794-.0225.0569-.059.107-.1061.1454-.0708.0633-.1621.098-.2565.0975h-1.6671c-.0882.0004-.1734-.0328-.2387-.0929-.0653-.0602-.1059-.1429-.114-.2319-.4167-1.7867-1.3786-2.3389-4.0075-2.3389-2.9496 0-3.3022 1.0395-3.3022 1.8191 0 .9421.4168 1.2019 4.3922 1.7542 3.9755.5522 5.803 1.2668 5.803 4.0605 0 2.7936-2.3084 4.4503-6.4121 4.4503zm18.4668-15.7224c0 .4948-.1448.9784-.4161 1.3897-.2712.4113-.6568.7319-1.1079.9212-.4511.1894-.9474.2389-1.4263.1424s-.9187-.3348-1.264-.6846c-.3452-.3498-.5804-.7955-.6756-1.2807-.0953-.4852-.0464-.9881.1405-1.4452.1868-.457.5032-.8477.9092-1.1225s.8832-.4215 1.3715-.4215c.6547 0 1.2826.2635 1.7456.7326.463.469.7231 1.1053.7231 1.7686zm-4.5526 0c-.0064.419.1104.8304.3355 1.1818.2251.3515.5483.6272.9285.792.3801.1648.8001.2113 1.2064.1335.4064-.0777.7807-.2762 1.0753-.5702.2947-.294.4964-.6701.5794-1.0805.0831-.4105.0437-.8367-.113-1.2244-.1568-.3877-.4238-.7194-.7672-.9529-.3433-.2335-.7475-.3582-1.161-.3583-.5472 0-1.0724.218-1.4623.607-.3899.3889-.6132.9177-.6216 1.472zm1.1542-1.3968h.9618c.3206 0 .9618 0 .9618.7472.0108.1574-.0352.3135-.1296.439s-.2307.2119-.3834.2431c.3527 0 .3847.2924.4489.6497.0086.2539.0517.5053.1282.7472h-.5771l-.0962-.8771c-.032-.1624-.0962-.2599-.3206-.2599h-.4488v1.137h-.545zm.5129 1.2344h.4489c.0531.0045.1066-.0022.1571-.0198.0504-.0175.0967-.0455.1359-.0822s.0704-.0812.0917-.1307.0322-.103.032-.1571c0-.3898-.2564-.3898-.4167-.3898h-.4489z" fill="#679e63"/><g clip-rule="evenodd" fill-rule="evenodd"><path d="m30.9409 30.1042c-.0026-.2915-.081-.5772-.2273-.8281-.1464-.251-.3555-.4584-.6063-.6012l-13.5936-7.9262c-.2272-.1229-.4799-.1897-.7374-.1949h-.1603c-.2573.0064-.5097.0731-.7374.1949l-13.56154 7.9262c-.25551.1455-.467691.358-.61434.6152s-.222367.5496-.219228.8466v21.3097c.002667.1494.045982.2952.125176.4213s.191195.2276.32367.2933c.121842.0713.260062.1088.400752.1088.1407 0 .27891-.0375.40076-.1088l8.07923-4.6777c.25332-.1482.46362-.3613.60992-.6178.1463-.2566.2235-.5477.2236-.844v-9.9077c-.0007-.2883.0729-.5718.2135-.8225s.3433-.4599.5881-.6068l3.4625-2.0465c.2433-.1446.5194-.223.8015-.2274.2931-.0029.5815.0758.8336.2274l3.4304 2.014c.2448.147.4475.3561.5881.6068s.2141.5342.2134.8225v9.9402c.0034.2995.0854.5928.2375.8496.1521.2569.3689.4682.6282.6122l8.0151 4.6777c.1256.0775.2697.1184.4168.1184.147 0 .2912-.0409.4168-.1184.1243-.0727.228-.1767.301-.3019s.1129-.2673.1157-.4127zm65.3071-29.300853c-.1269-.066895-.2687-.099576-.4116-.094899-.143.004677-.2824.046554-.4048.121603-.1223.07505-.2236.180749-.294.306919s-.1075.26858-.1079.41352v21.11481c-.0064.1026-.0395.2017-.0958.2872-.0563.0856-.1338.1545-.2248.2-.0838.0455-.1774.0693-.2725.0693s-.1887-.0238-.2725-.0693l-3.3984-1.9815c-.2448-.1395-.5208-.2127-.8016-.2127-.2807 0-.5567.0732-.8015.2127l-13.6577 7.9586c-.247.1445-.4515.3531-.5924.6044-.1409.2512-.2131.536-.2091.825v15.8848c.0025.2915.081.5771.2273.8281.1464.2509.3555.4583.6063.6012l13.5615 7.9586c.2486.1454.5305.222.8176.222.287 0 .5689-.0766.8175-.222l13.5934-7.9586c.251-.1429.46-.3503.606-.6012.147-.251.225-.5366.228-.8281v-39.63086c-.006-.29473-.089-.58257-.241-.83382-.153-.25126-.368-.45682-.625-.59549zm-1.2824 40.410453c.0002.0712-.0173.1412-.0509.2037s-.0823.1153-.1415.1536l-4.6487 2.7287c-.0634.0371-.1353.0566-.2084.0566-.0732 0-.1451-.0195-.2084-.0566l-4.6488-2.7287c-.0608-.0314-.1131-.0774-.1522-.134-.0391-.0567-.0639-.1222-.0722-.1908v-5.4899c.0049-.0655.0248-.1291.0582-.1855s.0793-.1041.1341-.1393l4.6809-2.7612c.0633-.037.1352-.0565.2084-.0565.0731 0 .145.0195.2084.0565l4.6487 2.7287c.0652.0343.1202.0854.1596.1481.0394.0628.0618.1349.0648.2092zm46.5194-5.5873c.251-.1429.46-.3503.606-.6012.147-.251.225-.5366.228-.8281v-3.8656c-.003-.2915-.081-.5772-.228-.8281-.146-.251-.355-.4584-.606-.6012l-13.497-7.9587c-.249-.1454-.531-.2219-.818-.2219s-.569.0765-.817.2219l-13.594 7.9587c-.247.1444-.451.353-.592.6043-.141.2512-.213.536-.209.825v15.9173c.002.2915.081.5771.227.8281.146.2509.355.4583.606.6012l13.466 7.7962c.244.1395.52.2127.801.2127s.557-.0732.802-.2127l8.175-4.6128c.126-.0742.231-.1807.304-.309s.112-.2738.112-.4219c0-.148-.039-.2935-.112-.4218s-.178-.2349-.304-.3091l-13.658-7.9261c-.124-.0727-.228-.1767-.301-.3019s-.113-.2674-.116-.4128v-4.9701c0-.1461.039-.2896.112-.4153.073-.1258.179-.2292.305-.2993l4.264-2.5013c.122-.0713.26-.1088.401-.1088s.279.0375.401.1088l4.264 2.5013c.126.0701.232.1735.305.2993.073.1257.112.2692.112.4153v3.8981c-.004.146.031.2902.101.4176.071.1274.174.2333.298.3064.125.0731.267.1109.411.1092.144-.0016.285-.0425.408-.1185z" fill="#333"/><path d="m126.96 34.8687c.049-.0285.104-.0435.16-.0435.057 0 .112.015.161.0435l2.629 1.5268c.045.0266.084.0642.112.1096.028.0453.044.0969.048.1503v3.0535c.002.0589-.012.1172-.04.1687-.029.0515-.07.0942-.12.1236l-2.597 1.5268c-.049.0285-.104.0435-.161.0435-.056 0-.111-.015-.16-.0435l-2.629-1.5268c-.044-.0333-.079-.0778-.102-.129-.022-.0513-.031-.1075-.026-.1633v-3.0535c0-.0505.011-.1002.034-.1453.022-.0451.054-.0844.094-.1146z" fill="#679e63"/><path d="m53.6391 21.035c-.2437-.1426-.5201-.2176-.8015-.2176s-.5579.075-.8015.2176l-13.5616 7.9261c-.247.1445-.4515.3531-.5924.6044-.1409.2512-.2131.536-.2091.825v15.7873c-.004.289.0682.5737.2091.825.1409.2512.3454.4599.5924.6043l13.4974 7.8937c.2437.1425.5201.2176.8015.2176s.5579-.0751.8015-.2176l13.5295-7.8937c.253-.1402.464-.347.6107-.5986.1467-.2515.2237-.5385.2229-.8307v-15.8198c.0008-.2922-.0762-.5792-.2229-.8307-.1467-.2516-.3577-.4584-.6107-.5986z" fill="url(#b)"/></g><path d="m67.1701 28.9597-13.5295-7.9262c-.1308-.0736-.2711-.1282-.4168-.1624l-15.2287 26.3448c.1289.1526.2803.2841.4489.3898l13.5936 7.8937c.3797.2178.8286.2762 1.2503.1624l14.2669-26.4422c-.1156-.1134-.2449-.2116-.3847-.2924z" fill="url(#c)"/><path d="m51.5561 18.1104-.1923.1299h.2564z" fill="url(#e)"/><path d="m67.1702 47.6052c.1945-.1114.3654-.2605.503-.4389.1375-.1783.239-.3824.2986-.6006l-14.844-25.7276c-.3954-.0784-.8054-.0092-1.1542.1949l-13.4333 7.8613 14.5234 26.832c.2158-.0346.4227-.1119.6091-.2274z" fill="url(#f)"/><path d="m68.4541 47.3411-.0962-.1624v.2274z" fill="url(#g)"/><path d="m67.173 47.6062-13.4974 7.8937c-.1864.1155-.3934.1927-.6092.2273l.2565.4873 15.0363-8.8032v-.2274l-.3847-.6497c-.0558.224-.1555.4344-.2932.6185-.1377.1842-.3106.3384-.5083.4535z" fill="url(#h)"/><path d="m67.173 47.6062-13.4974 7.8937c-.1864.1155-.3934.1927-.6092.2273l.2565.4873 15.0363-8.8032v-.2274l-.3847-.6497c-.0558.224-.1555.4344-.2932.6185-.1377.1842-.3106.3384-.5083.4535z" fill="url(#i)"/></g></svg>