<svg width="90" height="80" viewBox="0 0 90 80" fill="none" xmlns="http://www.w3.org/2000/svg">
<path d="M89.8329 40.0092C89.8329 34.0581 82.3804 28.4184 70.9544 24.921C73.5912 13.2753 72.4193 4.01007 67.2557 1.04372C66.0655 0.347905 64.6738 0.0183105 63.154 0.0183105V4.10162C63.9963 4.10162 64.6738 4.26642 65.2415 4.57771C67.7317 6.00595 68.8121 11.4443 67.9698 18.439C67.7684 20.1602 67.4388 21.973 67.0359 23.8224C63.447 22.9435 59.5285 22.266 55.4086 21.8265C52.9366 18.439 50.3731 15.3628 47.7913 12.6711C53.7606 7.12291 59.3637 4.08331 63.1723 4.08331V0C58.1369 0 51.545 3.58892 44.8798 9.8146C38.2147 3.62554 31.6228 0.0732436 26.5873 0.0732436V4.15656C30.3777 4.15656 35.9991 7.17784 41.9684 12.6894C39.4049 15.3811 36.8414 18.439 34.406 21.8265C30.2678 22.266 26.3493 22.9435 22.7604 23.8407C22.3392 22.0096 22.0279 20.2335 21.8082 18.5306C20.9476 11.5358 22.0096 6.09751 24.4816 4.65095C25.0309 4.32136 25.745 4.17487 26.5873 4.17487V0.0915541C25.0492 0.0915541 23.6576 0.421149 22.4491 1.11696C17.3037 4.08331 16.1501 13.3303 18.8052 24.9393C7.41588 28.455 0 34.0764 0 40.0092C0 45.9602 7.4525 51.5999 18.8785 55.0973C16.2417 66.743 17.4136 76.0082 22.5772 78.9746C23.7675 79.6704 25.1591 80 26.6972 80C31.7327 80 38.3246 76.4111 44.9897 70.1854C51.6548 76.3745 58.2467 79.9268 63.2822 79.9268C64.8203 79.9268 66.2119 79.5972 67.4205 78.9013C72.5658 75.935 73.7194 66.688 71.0643 55.079C82.417 51.5816 89.8329 45.9419 89.8329 40.0092ZM65.9922 27.7958C65.3147 30.1579 64.4724 32.5933 63.5202 35.0286C62.7695 33.5637 61.9821 32.0989 61.1215 30.634C60.2792 29.1691 59.382 27.7409 58.4848 26.3493C61.0849 26.7338 63.5935 27.2099 65.9922 27.7958ZM57.6058 47.2969C56.1776 49.7688 54.7127 52.1126 53.1929 54.2916C50.4646 54.5296 47.6997 54.6578 44.9165 54.6578C42.1515 54.6578 39.3866 54.5296 36.6766 54.3099C35.1568 52.1309 33.6736 49.8054 32.2454 47.3518C30.8537 44.9531 29.5903 42.5177 28.4367 40.0641C29.572 37.6104 30.8537 35.1568 32.2271 32.7581C33.6553 30.2861 35.1202 27.9423 36.64 25.7633C39.3683 25.5253 42.1332 25.3971 44.9165 25.3971C47.6814 25.3971 50.4463 25.5253 53.1563 25.745C54.6761 27.924 56.1593 30.2495 57.5875 32.7031C58.9792 35.1019 60.2426 37.5372 61.3962 39.9908C60.2426 42.4445 58.9792 44.8981 57.6058 47.2969ZM63.5202 44.9165C64.509 47.3701 65.3513 49.8238 66.0471 52.2042C63.6484 52.7901 61.1215 53.2845 58.5031 53.669C59.4003 52.2591 60.2975 50.8125 61.1398 49.3294C61.9821 47.8645 62.7695 46.3813 63.5202 44.9165ZM44.9531 64.4541C43.2502 62.6963 41.5473 60.737 39.8627 58.5946C41.5106 58.6679 43.1952 58.7228 44.8981 58.7228C46.6194 58.7228 48.3223 58.6862 49.9885 58.5946C48.3406 60.737 46.6377 62.6963 44.9531 64.4541ZM31.3298 53.669C28.7297 53.2845 26.2211 52.8084 23.8224 52.2225C24.4999 49.8604 25.3422 47.425 26.2943 44.9897C27.0451 46.4546 27.8325 47.9194 28.6931 49.3843C29.5537 50.8492 30.4326 52.2774 31.3298 53.669ZM44.8615 15.5642C46.5644 17.322 48.2673 19.2813 49.9519 21.4237C48.304 21.3504 46.6194 21.2955 44.9165 21.2955C43.1952 21.2955 41.4923 21.3321 39.826 21.4237C41.474 19.2813 43.1769 17.322 44.8615 15.5642ZM31.3115 26.3493C30.4143 27.7592 29.517 29.2058 28.6747 30.6889C27.8325 32.1538 27.0451 33.6187 26.2943 35.0835C25.3056 32.6299 24.4633 30.1762 23.7675 27.7958C26.1662 27.2282 28.6931 26.7338 31.3115 26.3493ZM14.7402 49.2744C8.25818 46.5095 4.065 42.884 4.065 40.0092C4.065 37.1344 8.25818 33.4905 14.7402 30.7439C16.3149 30.0664 18.0362 29.4621 19.8123 28.8945C20.856 32.4834 22.2293 36.2188 23.9322 40.0458C22.2477 43.8544 20.8927 47.5715 19.8672 51.1421C18.0545 50.5745 16.3333 49.9519 14.7402 49.2744ZM24.5914 75.4406C22.1012 74.0124 21.0208 68.574 21.8631 61.5793C22.0645 59.8581 22.3941 58.0453 22.797 56.1959C26.3859 57.0748 30.3044 57.7523 34.4244 58.1918C36.8963 61.5793 39.4598 64.6555 42.0416 67.3472C36.0723 72.8954 30.4692 75.935 26.6606 75.935C25.8366 75.9167 25.1408 75.7519 24.5914 75.4406ZM68.0247 61.4878C68.8853 68.4825 67.8233 73.9208 65.3513 75.3674C64.802 75.697 64.0879 75.8434 63.2456 75.8434C59.4552 75.8434 53.8338 72.8222 47.8645 67.3106C50.428 64.6189 52.9915 61.561 55.4269 58.1735C59.5651 57.734 63.4836 57.0565 67.0725 56.1593C67.4937 58.0087 67.8233 59.7848 68.0247 61.4878ZM75.0744 49.2744C73.4996 49.9519 71.7784 50.5562 70.0023 51.1238C68.9586 47.5349 67.5853 43.7995 65.8823 39.9725C67.5669 36.1639 68.9219 32.4468 69.9473 28.8762C71.7601 29.4438 73.4813 30.0664 75.0927 30.7439C81.5747 33.5088 85.7679 37.1344 85.7679 40.0092C85.7496 42.884 81.5564 46.5278 75.0744 49.2744Z" fill="#61DAFB"/>
<path d="M44.8981 48.3767C49.5196 48.3767 53.2661 44.6302 53.2661 40.0087C53.2661 35.3871 49.5196 31.6406 44.8981 31.6406C40.2765 31.6406 36.53 35.3871 36.53 40.0087C36.53 44.6302 40.2765 48.3767 44.8981 48.3767Z" fill="#61DAFB"/>
</svg>
