<svg fill="none" height="72" viewBox="0 0 73 72" width="73" xmlns="http://www.w3.org/2000/svg" xmlns:xlink="http://www.w3.org/1999/xlink"><linearGradient id="a" gradientUnits="userSpaceOnUse" x1="43.3316" x2="29.7284" y1="-2.56916" y2="74.5781"><stop offset="0" stop-color="#faae42"/><stop offset="1" stop-color="#ef3e31"/></linearGradient><linearGradient id="b" gradientUnits="userSpaceOnUse" x1="37.2345" x2="27.2786" y1="1.16333" y2="57.6261"><stop offset="0" stop-color="#e39f3a"/><stop offset="1" stop-color="#d33929"/></linearGradient><clipPath id="c"><path d="m.5 0h72v72h-72z"/></clipPath><g clip-path="url(#c)"><path d="m16.5031 0h39.8813c1.9406 0 3.825.309375 5.6531.95625 2.6437.95625 5.0344 2.64375 6.8344 4.8375 1.8281 2.19375 3.0375 4.89375 3.4593 7.70625.1688 1.0406.1969 2.0812.1969 3.1219v36.1687 2.7281c0 1.2375-.0562 2.5032-.3093 3.7126-.5626 2.7843-1.8844 5.3999-3.7969 7.5093-1.8844 2.1094-4.3594 3.6844-7.0313 4.5281-1.6312.5063-3.3187.7313-5.0344.7313-.7593 0-39.9656 0-40.5562-.0281-2.8688-.1407-5.7094-1.0688-8.1-2.6719-2.33438-1.575-4.24688-3.7688-5.48438-6.3-1.06875-2.1656-1.603121-4.5844-1.603121-7.0031 0-.5625 0-39.4313 0-39.9938-.05625-2.3906.450001-4.7531 1.490621-6.8906 1.20938-2.53125 3.09375-4.75312 5.42813-6.32813 2.39062-1.63125 5.20315-2.587495 8.07185-2.72812.2813-.05625.5906-.05625.9-.05625z" fill="url(#a)"/><path d="m61.25 58.8937c-.2531-.3937-.5344-.7874-.8438-1.1531-.7031-.8437-1.5187-1.575-2.4187-2.1937-1.125-.7594-2.4469-1.2375-3.7969-1.2938-.9562-.0562-1.9125.1125-2.8125.45-.9.3094-1.7719.7594-2.6156 1.2094-.9844.5063-1.9688 1.0125-3.0094 1.4344-1.2375.5062-2.5312.9-3.8531 1.1812-1.6594.3094-3.3469.4219-5.0063.3938-3.0093-.0563-6.0187-.5063-8.8875-1.35-2.5312-.7594-4.95-1.8-7.2281-3.1219-1.9969-1.1531-3.8531-2.475-5.5969-3.9656-1.4343-1.2375-2.7562-2.5594-3.9937-3.9657-.8438-.9843-1.65938-2.025-2.41875-3.0937-.30938-.4219-.59063-.8719-.84375-1.3219l-7.425-8.0156v-18.1406c0-8.80315 7.11562-15.9469 15.9187-15.9469h14.2032l10.5187 10.6875c23.7375 16.1438 16.0594 33.9469 16.0594 33.9469s6.75 7.5937 4.05 14.2593z" fill="url(#b)"/><path d="m41.1969 10.6875c23.7375 16.1438 16.0594 33.9469 16.0594 33.9469s6.75 7.6218 4.0219 14.2875c0 0-2.7844-4.6688-7.4531-4.6688-4.5 0-7.1438 4.6688-16.2001 4.6688-20.1656 0-29.69995-16.8469-29.69995-16.8469 18.16875 11.9531 30.57185 3.4875 30.57185 3.4875-8.1844-4.7531-25.5937-27.4781-25.5937-27.4781 15.1593 12.9094 21.7125 16.3125 21.7125 16.3125-3.9094-3.2344-14.8782-19.0407-14.8782-19.0407 8.775 8.8875 26.2126 21.2907 26.2126 21.2907 4.95-13.725-4.7532-25.9594-4.7532-25.9594z" fill="#fff"/></g></svg>