<svg fill="none" height="72" viewBox="0 0 73 72" width="73" xmlns="http://www.w3.org/2000/svg" xmlns:xlink="http://www.w3.org/1999/xlink"><radialGradient id="a" cx="0" cy="0" gradientTransform="matrix(108.796 0 0 65.7563 36.3581 -3.17678)" gradientUnits="userSpaceOnUse" r="1"><stop offset=".202" stop-color="#27f5f1"/><stop offset=".29" stop-color="#25e2ee"/><stop offset=".468" stop-color="#20b1e7"/><stop offset=".717" stop-color="#1963db"/><stop offset=".857" stop-color="#1434d4"/><stop offset="1" stop-color="#0015b5"/></radialGradient><path d="m56.9741 72h-40.996c-8.56203 0-15.502026-6.94-15.502026-15.502v-21.56l30.000026-34.938h26.496c8.564 0 15.504 6.94 15.504 15.502v40.994c0 8.564-6.94 15.504-15.502 15.504z" fill="url(#a)"/><path d="m30.4761 0-30.000026 34.938c8.649996 11.502 29.626026 19.56 43.376026 6.936 8-10 3.376-26.376-2.626-31.75-3.014-2.7-6.622-6.584-10.75-10.124z" fill="#1a5cf9"/><path d="m30.4761 0-30.000026 31.366v3.572c10.158026 7.906 26.010026 11.02 37.126026.812 8-10 3.376-26.376-2.626-31.75-1.274-1.14-2.804-2.53-4.5-4z" fill="#21aaf5"/><path d="m.476074 24.954v6.412c9.371996 3.95 20.630026 3.932 29.126026-3.866 6.448-8.06 4.94-20.256.874-27.5h-6.3z" fill="#25e0f2"/><path d="m15.9781 0c-8.56203 0-15.502026 6.94-15.502026 15.502v9.452c6.951996.764 14.110026-.918 19.958026-6.288 4.238-5.298 4.92-12.376 3.742-18.666z" fill="#18ffff"/><path d="m13.6921 17.7393s13.666 20.654 25.156 27.64c-4.348 1.398-13.788 7.11-30.248-2.984 4.192 5.746 11.614 17.27 29.782 16.184 6.366-.31 10.248-2.33 13.82-3.726s6.988-1.242 9.938 4.038c.622-4.814.776-9.318-4.192-14.442 0 0 4.912-18.726-16.002-33.502 4.348 8.696 6.866 13.6 4.822 25.582-4.658-3.106-21.862-16.96-25.744-21.464 2.796 4.97 10.838 15.872 13.632 18.668-4.968-3.416-20.964-15.994-20.964-15.994z" fill="#000"/></svg>