<svg fill="none" height="28" viewBox="0 0 226 28" width="226" xmlns="http://www.w3.org/2000/svg" xmlns:xlink="http://www.w3.org/1999/xlink"><linearGradient id="a" gradientUnits="userSpaceOnUse" x1="-1.2963" x2="46.6667" y1=".000001" y2="27.6543"><stop offset="0" stop-color="#2298bd"/><stop offset="1" stop-color="#0ed7b5"/></linearGradient><g clip-rule="evenodd" fill-rule="evenodd"><path d="m23.3333 0c-6.2222 0-10.1111 3.11111-11.6666 9.33333 2.3333-3.11111 5.0555-4.27777 8.1666-3.5 1.7751.44377 3.0438 1.73151 4.4481 3.157 2.2877 2.32207 4.9355 5.00967 10.7186 5.00967 6.2222 0 10.1111-3.1111 11.6667-9.33333-2.3334 3.11111-5.0556 4.27777-8.1667 3.5-1.7751-.44377-3.0438-1.73151-4.4481-3.157-2.2877-2.3221-4.9354-5.00967-10.7186-5.00967zm-11.6666 14c-6.22226 0-10.11114 3.1111-11.6667 9.3333 2.33333-3.1111 5.05555-4.2777 8.16667-3.5 1.77506.4438 3.04383 1.7315 4.44813 3.157 2.2877 2.3221 4.9354 5.0097 10.7185 5.0097 6.2223 0 10.1111-3.1111 11.6667-9.3333-2.3333 3.1111-5.0556 4.2777-8.1667 3.5-1.775-.4438-3.0438-1.7315-4.4481-3.157-2.2877-2.3221-4.9354-5.0097-10.7185-5.0097z" fill="url(#a)"/><path d="m69.9966 11.7975h-4.0721v7.8815c0 2.1017 1.3792 2.0689 4.0721 1.9375v3.1854c-5.4514.6568-7.6188-.8538-7.6188-5.1229v-7.8815h-3.0212v-3.41531h3.0212v-4.41086l3.5467-1.05087v5.46173h4.0721zm15.5227-3.41531h3.5466v16.41971h-3.5466v-2.3644c-1.2479 1.7405-3.1854 2.7914-5.7469 2.7914-4.4662 0-8.1771-3.7766-8.1771-8.6368 0-4.8931 3.7109-8.63683 8.1771-8.63683 2.5615 0 4.499 1.05087 5.7469 2.75853zm-5.1887 13.46421c2.9556 0 5.1887-2.2003 5.1887-5.2543 0-3.0541-2.2331-5.2544-5.1887-5.2544-2.9555 0-5.1886 2.2003-5.1886 5.2544 0 3.054 2.2331 5.2543 5.1886 5.2543zm14.6465-15.92717c-1.2479 0-2.266-1.05087-2.266-2.26593 0-1.2479 1.0181-2.26593 2.266-2.26593s2.2659 1.01803 2.2659 2.26593c0 1.21506-1.018 2.26593-2.2659 2.26593zm-1.7734 18.88267v-16.41971h3.5467v16.41971zm7.6513 0v-23.972798h3.547v23.972798zm26.567-16.41971h3.744l-5.156 16.41971h-3.481l-3.415-11.0669-3.448 11.0669h-3.481l-5.156-16.41971h3.744l3.185 11.32961 3.448-11.32961h3.383l3.415 11.32961zm8.145-2.46296c-1.248 0-2.266-1.05087-2.266-2.26593 0-1.2479 1.018-2.26593 2.266-2.26593s2.266 1.01803 2.266 2.26593c0 1.21506-1.018 2.26593-2.266 2.26593zm-1.774 18.88267v-16.41971h3.547v16.41971zm16.289-16.84663c3.678 0 6.305 2.49583 6.305 6.76493v10.0817h-3.547v-9.7205c0-2.4958-1.445-3.8093-3.678-3.8093-2.331 0-4.17 1.3792-4.17 4.7289v8.8009h-3.547v-16.41971h3.547v2.10171c1.083-1.70764 2.857-2.52863 5.09-2.52863zm23.119-6.14098h3.546v22.98761h-3.546v-2.3644c-1.248 1.7405-3.186 2.7914-5.747 2.7914-4.466 0-8.177-3.7766-8.177-8.6368 0-4.8931 3.711-8.63683 8.177-8.63683 2.561 0 4.499 1.05087 5.747 2.75853zm-5.189 20.03211c2.956 0 5.189-2.2003 5.189-5.2543 0-3.0541-2.233-5.2544-5.189-5.2544-2.955 0-5.189 2.2003-5.189 5.2544 0 3.054 2.234 5.2543 5.189 5.2543zm20.623 3.3825c-4.958 0-8.669-3.7766-8.669-8.6368 0-4.8931 3.711-8.63683 8.669-8.63683 3.219 0 6.01 1.67482 7.324 4.23633l-3.055 1.7733c-.722-1.5435-2.331-2.5286-4.302-2.5286-2.889 0-5.09 2.2002-5.09 5.1558 0 2.9555 2.201 5.1558 5.09 5.1558 1.971 0 3.58-1.0181 4.368-2.5287l3.054 1.7405c-1.379 2.5943-4.17 4.2692-7.389 4.2692zm13.235-12.3149c0 2.9884 8.833 1.1823 8.833 7.2576 0 3.2839-2.857 5.0573-6.403 5.0573-3.284 0-5.649-1.4778-6.699-3.8423l3.054-1.7733c.525 1.4778 1.839 2.3644 3.645 2.3644 1.576 0 2.791-.5254 2.791-1.839 0-2.9227-8.834-1.2807-8.834-7.159 0-3.08689 2.66-5.02443 6.01-5.02443 2.693 0 4.926 1.24791 6.075 3.41533l-2.988 1.6748c-.591-1.2807-1.741-1.8719-3.087-1.8719-1.281 0-2.397.5583-2.397 1.7405zm15.139 0c0 2.9884 8.833 1.1823 8.833 7.2576 0 3.2839-2.857 5.0573-6.403 5.0573-3.284 0-5.649-1.4778-6.699-3.8423l3.054-1.7733c.525 1.4778 1.839 2.3644 3.645 2.3644 1.576 0 2.791-.5254 2.791-1.839 0-2.9227-8.834-1.2807-8.834-7.159 0-3.08689 2.66-5.02443 6.01-5.02443 2.693 0 4.926 1.24791 6.075 3.41533l-2.988 1.6748c-.591-1.2807-1.741-1.8719-3.087-1.8719-1.281 0-2.397.5583-2.397 1.7405z" fill="#2d3748"/></g></svg>