<svg width="80" height="80" viewBox="0 0 80 80" fill="none" xmlns="http://www.w3.org/2000/svg">
<path d="M72.1875 0H7.8125C3.49778 0 0 3.49778 0 7.8125V72.1875C0 76.5022 3.49778 80 7.8125 80H72.1875C76.5022 80 80 76.5022 80 72.1875V7.8125C80 3.49778 76.5022 0 72.1875 0Z" fill="#3178C6"/>
<path fill-rule="evenodd" clip-rule="evenodd" d="M49.5312 63.5934V71.4059C50.7969 72.0621 52.3438 72.5465 54.0625 72.8746C55.7812 73.2027 57.6562 73.359 59.5312 73.359C61.4062 73.359 63.125 73.1871 64.8438 72.8277C66.5625 72.4684 67.9688 71.8746 69.2188 71.109C70.4844 70.2809 71.5625 69.234 72.1875 67.8277C72.8125 66.4215 73.2969 64.859 73.2969 62.8277C73.2969 61.4059 73.0781 60.1715 72.6562 59.0777C72.2344 57.984 71.625 57.0465 70.7812 56.2652C69.9844 55.4371 69.0625 54.7027 67.9688 54.0777C66.875 53.4527 65.625 52.7965 64.2188 52.2027C63.1875 51.7809 62.3438 51.3746 61.4062 50.9684C60.5938 50.5621 59.8906 50.1559 59.375 49.7496C58.7969 49.3277 58.3594 48.8902 58.0469 48.4371C57.7344 47.9684 57.5781 47.4527 57.5781 46.8746C57.5781 46.3434 57.7172 45.859 58 45.4215C58.2828 44.984 58.6719 44.6246 59.1719 44.3121C59.6719 43.9996 60.2969 43.7652 61.0469 43.5934C61.7812 43.4215 62.5938 43.3434 63.5469 43.3434C64.2031 43.3434 64.8906 43.3918 65.5781 43.4902C66.2969 43.5887 67.0313 43.7402 67.7656 43.9434C68.5 44.1465 69.2188 44.3965 69.9531 44.709C70.6406 45.0215 71.2812 45.3809 71.8281 45.7871V38.4434C70.6406 37.9902 69.3281 37.6465 67.9219 37.4277C66.5156 37.209 64.9531 37.0996 63.0781 37.0996C61.2031 37.0996 59.4844 37.3027 57.7656 37.6934C56.0469 38.084 54.6406 38.709 53.3906 39.5684C52.125 40.4121 51.2031 41.4434 50.4219 42.8496C49.6875 44.1621 49.3281 45.6621 49.3281 47.5371C49.3281 49.8809 50 51.9121 51.3594 53.4746C52.7031 55.1934 54.7969 56.4434 57.4531 57.6934C58.5313 58.1309 59.4844 58.5684 60.4219 58.9902C61.3594 59.4121 62.1406 59.8496 62.7656 60.3027C63.4375 60.7559 63.9688 61.2559 64.3281 61.7871C64.7188 62.3184 64.9219 62.9434 64.9219 63.6621C64.9219 64.1621 64.8 64.6309 64.5625 65.0684C64.325 65.5059 63.9531 65.8809 63.4531 66.1934C62.9531 66.5059 62.3438 66.7559 61.5781 66.9434C60.8438 67.1152 60.0156 67.209 58.9219 67.209C57.2031 67.209 55.4844 66.9121 53.9219 66.3184C52.2031 65.7246 50.6406 64.834 49.2344 63.6621L49.5312 63.5934ZM36.4062 44.3746H46.4062V37.9684H18.4375V44.3746H28.4375V72.9684H36.4062V44.3746Z" fill="white"/>
</svg>
