<svg width="160" height="40" viewBox="0 0 160 40" fill="none" xmlns="http://www.w3.org/2000/svg">
<g clip-path="url(#clip0)">
<path d="M51.3527 15.6419C51.3527 12.789 48.5785 9.75898 43.7777 9.75898C38.3866 9.75898 32.4643 13.7137 31.5593 21.6035C30.6345 29.5721 35.5927 33.1136 40.5903 33.1136C45.5878 33.1136 48.2046 31.1658 50.8805 28.5686C48.5785 25.6763 45.6075 27.0143 45.0369 27.3094C44.4073 27.6242 43.6006 28.0571 41.9479 28.0571C40.0197 28.0571 38.0521 27.1913 38.0521 23.5908C50.4083 22.3709 51.3527 18.4948 51.3527 15.6419ZM45.2336 16.1141C45.1549 16.9995 44.8008 18.5145 38.544 19.3606C39.8623 14.6778 42.3807 14.3237 43.5416 14.3237C44.6237 14.3237 45.3123 15.1697 45.2336 16.1141ZM24.2991 16.8815C24.2991 16.8815 21.6429 25.2238 21.4265 25.9124C21.3478 25.2041 19.3999 10.2312 19.3999 10.2312C14.8746 10.2312 12.4545 13.4579 11.1756 16.8618C11.1756 16.8618 7.94884 25.2238 7.67339 25.9321C7.65371 25.2828 7.1815 16.9602 7.1815 16.9602C6.90605 12.789 3.08903 10.2509 0 10.2509L3.73832 32.9365C8.48008 32.9169 11.0379 29.7098 12.3758 26.306C12.3758 26.306 15.2287 18.9277 15.3468 18.5932C15.3665 18.908 17.393 32.9365 17.393 32.9365C22.1545 32.9365 24.7122 29.9262 26.0895 26.6404L32.7595 10.2509C28.0571 10.2509 25.578 13.4579 24.2991 16.8815ZM68.8244 9.71963C65.8928 9.71963 63.6498 11.3133 61.7609 13.6547V13.635L63.453 0C59.5573 0 56.3896 3.38416 55.7796 8.42105L52.8283 32.7595C55.0713 32.7595 57.452 32.1102 58.7309 30.4575C59.8721 31.9331 61.5839 33.1136 64.122 33.1136C70.6936 33.1136 75.1992 25.4796 75.1992 18.3178C75.1599 11.7855 71.9921 9.71963 68.8244 9.71963ZM68.2145 21.4265C67.5258 25.4206 65.3025 28.1358 63.1579 28.1358C60.9936 28.1358 60.0689 27.1717 60.0689 27.1717C60.482 23.6695 60.7378 21.5248 61.5248 19.6754C62.3119 17.8259 64.181 14.8746 66.1289 14.8746C68.0374 14.8746 68.9031 17.4127 68.2145 21.4265ZM91.6085 10.2509H87.0241L87.0438 10.0148C87.3586 7.0241 88.0669 5.45007 90.4083 5.19429C92.002 5.03689 92.7103 4.21053 92.8874 3.30546C93.0251 2.59715 93.4579 0.137727 93.4579 0.137727C84.2499 0.0787014 81.3576 4.05312 80.6099 10.1131L80.5903 10.2509H80.4919C78.9966 10.2509 77.3438 11.9429 77.0684 14.0876L76.97 14.8746H80.0393L77.4619 36.1633L76.6749 39.9803C76.7732 39.9803 76.8913 40 76.9897 40C81.2986 39.8426 84.0531 36.4388 84.6631 31.5002L86.6699 14.8746H88.1062C89.5229 14.8746 91.1756 13.4579 91.4707 11.0969L91.6085 10.2509ZM115.455 9.85735C110.162 9.85735 105.165 13.7531 103.63 19.8721C102.095 25.9911 104.417 33.2317 112.209 33.2317C119.98 33.2317 124.466 25.696 124.466 19.4196C124.466 13.1825 120.236 9.85735 115.455 9.85735ZM117.6 21.2297C117.324 24.0039 116.104 28.2145 112.759 28.2145C109.395 28.2145 109.867 23.2956 110.202 20.9543C110.556 18.4555 111.953 14.8942 114.963 14.8942C117.659 14.8942 117.914 18.1013 117.6 21.2297ZM150.615 16.8815C150.615 16.8815 147.959 25.2238 147.742 25.9124C147.664 25.2041 145.716 10.2312 145.716 10.2312C141.19 10.2312 138.77 13.4579 137.491 16.8618C137.491 16.8618 134.265 25.2238 133.989 25.9321C133.97 25.2828 133.497 16.9602 133.497 16.9602C133.222 12.789 129.405 10.2509 126.316 10.2509L130.034 32.9365C134.776 32.9169 137.334 29.7098 138.672 26.306C138.672 26.306 141.525 18.9277 141.623 18.5932C141.663 18.908 143.669 32.9365 143.669 32.9365C148.431 32.9365 150.989 29.9262 152.366 26.6404L159.036 10.2509C154.353 10.2509 151.874 13.4579 150.615 16.8815ZM95.937 0.137727L92.0807 31.2445L91.2937 35.0812C91.392 35.0812 91.5101 35.1008 91.6085 35.1008C95.76 35.0418 98.7113 31.4019 99.2622 26.8175L101.485 8.97196C102.154 3.52189 98.908 0.137727 95.937 0.137727Z" fill="black"/>
</g>
<defs>
<clipPath id="clip0">
<rect width="159.036" height="40" fill="white"/>
</clipPath>
</defs>
</svg>
