<svg fill="none" height="28" viewBox="0 0 28 28" width="28" xmlns="http://www.w3.org/2000/svg" xmlns:xlink="http://www.w3.org/1999/xlink"><linearGradient id="a" gradientUnits="userSpaceOnUse" x1="21.3006" x2="16.9626" y1="10.5807" y2="19.07"><stop offset="0" stop-color="#cc9300"/><stop offset=".48" stop-color="#ea433a"/><stop offset="1" stop-color="#b327bf"/></linearGradient><linearGradient id="b" gradientUnits="userSpaceOnUse" x1="11.5317" x2="7.5679" y1="2.80846" y2="10.5497"><stop offset="0" stop-color="#cc9300"/><stop offset=".26" stop-color="#ea433a"/><stop offset=".48" stop-color="#b327bf"/><stop offset=".76" stop-color="#66f"/><stop offset="1" stop-color="#00bf9a"/></linearGradient><linearGradient id="c" gradientUnits="userSpaceOnUse" x1="9.33542" x2="15.2969" y1="23.5924" y2="16.2318"><stop offset="0" stop-color="#b327bf"/><stop offset=".48" stop-color="#66f"/><stop offset="1" stop-color="#00c09a"/></linearGradient><g clip-rule="evenodd" fill-rule="evenodd"><path d="m13.319 27.642c-3.5985.5908-4.99493.376-6.44507-.1074-1.42812-.4842-2.66808-1.4048-3.54478-2.6317l-.16113-.1611c-.80563-1.1279-1.39642-2.4169-1.93351-5.7469l-.859345-5.5857c-.590797-3.6522-.4296701-5.04863.107418-6.49877.501011-1.41954 1.395067-2.6675 2.578027-3.59849l.21483-.16112c1.12789-.80564 2.4169-1.39643 5.69314-1.93352l5.47832-.859344c3.5985-.590797 4.9949-.3759618 6.445.107418 1.4282.484212 2.6681 1.404786 3.5448 2.631736l.1611.21483c.8057 1.12789 1.3965 2.4169 1.9336 5.74685l.8593 5.53201c.5908 3.6522.4297 5.0486-.1074 6.4988-.4835 1.4286-1.3809 2.6811-2.578 3.5985l-.2149.1611c-1.1279.8056-2.4169 1.3964-5.6931 1.9335z" fill="#000"/><path d="m19.4471 11.5883c-1.5098 0-2.7338 1.224-2.7338 2.7338s1.224 2.7338 2.7338 2.7338 2.7338-1.224 2.7338-2.7338-1.224-2.7338-2.7338-2.7338zm-4.0335 2.7338c0-2.2277 1.8058-4.0335 4.0335-4.0335s4.0335 1.8058 4.0335 4.0335-1.8058 4.0335-4.0335 4.0335-4.0335-1.8058-4.0335-4.0335z" fill="url(#a)"/><path d="m5.29551 6.93256c-.05749-.35578.18432-.69081.5401-.74831l6.06029-.97938c.3558-.0575.6908.18431.7483.5401l.9794 6.06033c.0575.3557-.1843.6908-.5401.7483l-6.06029.9794c-.35579.0575-.69082-.1844-.74831-.5401zm1.39252.43599.77117 4.77185 4.7719-.7711-.7712-4.77191z" fill="url(#b)"/><path d="m11.2807 15.2919c.2343-.0383.4708.0543.6169.2415l4.7801 6.1228c.1415.1812.1767.4236.0926.6375-.084.214-.2748.3676-.5018.404l-7.3581 1.1816c-.22637.0364-.45515-.0492-.60203-.2253-.14689-.176-.19015-.4164-.11384-.6326l2.57807-7.3044c.079-.2239.2738-.3869.5081-.4251zm.3226 1.9766-1.81911 5.1541 5.19201-.8337z" fill="url(#c)"/></g></svg>