<svg fill="none" height="24" viewBox="0 0 24 24" width="24" xmlns="http://www.w3.org/2000/svg"><path d="m24 21.3333c0 1.4727-1.194 2.6667-2.6667 2.6667h-18.66663c-1.47267 0-2.66667-1.194-2.66667-2.6667v-18.66663c0-1.47267 1.194-2.66667 2.66667-2.66667h18.66663c1.4727 0 2.6667 1.194 2.6667 2.66667z" fill="#77b255"/><path d="m19.52 4.24133c-.7706-.50067-1.8026-.28134-2.3053.49066l-7.25735 11.18601-3.35267-3.1c-.676-.6253-1.73066-.5833-2.35533.092-.62467.676-.58333 1.7307.09267 2.3553l4.806 4.444c.32.2967.72667.4434 1.13068.4434.4487 0 1.0227-.188 1.3993-.7594.2214-.3373 8.3334-12.84664 8.3334-12.84664.5006-.77267.2806-1.80467-.4914-2.30533z" fill="#fff"/></svg>