<svg clip-rule="evenodd" fill-rule="evenodd" stroke-linejoin="round" stroke-miterlimit="2" viewBox="0 0 854 100" xmlns="http://www.w3.org/2000/svg"><g fill="#fff"><path d="m112 300 80-50 80 50v-50l-80-50-80 50z" transform="matrix(.999963 0 0 .999963 -111.9959 -199.9924)"/><g fill-rule="nonzero"><path d="m.08 0h.279c.169 0 .245-.084.245-.196s-.079-.176-.151-.18v-.007c.067-.017.123-.062.123-.153 0-.108-.075-.191-.23-.191h-.266zm.11-.094v-.233h.162c.088 0 .143.057.143.126 0 .061-.042.107-.147.107zm0-.319v-.221h.149c.087 0 .129.046.129.106 0 .071-.057.115-.131.115z" transform="matrix(97.59744 0 0 97.59744 200.151614688 98.81929704)"/><path d="m.301.011c.154 0 .254-.113.254-.281 0-.17-.1-.283-.254-.283s-.254.113-.254.283c0 .168.1.281.254.281zm0-.089c-.1 0-.147-.088-.147-.193 0-.104.047-.193.147-.193s.147.089.147.193c0 .105-.047.193-.147.193z" transform="matrix(97.59744 0 0 97.59744 257.745795648 98.81929704)"/><path d="m.178-.324c0-.087.055-.137.13-.137.073 0 .117.047.117.127v.334h.106v-.347c0-.136-.074-.206-.187-.206-.084 0-.136.037-.161.096h-.007v-.27h-.105v.727h.107z" transform="matrix(97.59744 0 0 97.59744 310.27944768 98.81929704)"/><path d="m.306.011c.119 0 .204-.059.228-.147l-.101-.018c-.019.051-.065.077-.125.077-.091 0-.152-.059-.155-.164h.387v-.037c0-.197-.117-.275-.241-.275-.152 0-.252.116-.252.284 0 .169.099.28.259.28zm-.153-.331c.004-.078.06-.145.147-.145.082 0 .136.061.136.145z" transform="matrix(97.59744 0 0 97.59744 362.77873728 98.81929704)"/><path d="m.071 0h.107v-.336c0-.074.051-.125.111-.125.059 0 .1.039.1.098v.363h.106v-.348c0-.065.04-.113.109-.113.057 0 .103.031.103.105v.356h.106v-.366c0-.124-.07-.187-.168-.187-.079 0-.138.038-.164.096h-.006c-.024-.059-.074-.096-.147-.096-.072 0-.125.036-.148.096h-.007v-.088h-.102z" transform="matrix(97.59744 0 0 97.59744 413.8577808 98.81929704)"/><path d="m.071 0h.107v-.545h-.107zm.054-.63c.037 0 .067-.028.067-.063s-.03-.063-.067-.063-.067.028-.067.063.03.063.067.063z" transform="matrix(97.59744 0 0 97.59744 493.84091616 98.81929704)"/><path d="m.301.011c.129 0 .212-.077.224-.184h-.103c-.014.059-.059.094-.12.094-.09 0-.148-.075-.148-.194 0-.117.059-.19.148-.19.067 0 .109.043.12.094h.103c-.011-.11-.101-.184-.225-.184-.154 0-.253.116-.253.283 0 .164.096.281.254.281z" transform="matrix(97.59744 0 0 97.59744 511.89034272 98.81929704)"/><path d="m.23.012c.09 0 .141-.046.161-.087h.005v.075h.103v-.362c0-.159-.125-.191-.211-.191-.099 0-.19.04-.226.14l.1.022c.016-.038.056-.076.127-.076.069 0 .104.036.104.098v.003c0 .038-.04.038-.138.049-.103.012-.209.039-.209.163 0 .107.08.166.184.166zm.023-.085c-.06 0-.103-.027-.103-.08 0-.057.05-.077.112-.085.034-.005.116-.014.131-.029v.07c0 .065-.051.124-.14.124z" transform="matrix(97.59744 0 0 97.59744 561.0621696 98.81929704)"/><path d="m.477-.536h.105c-.003-.117-.106-.201-.254-.201-.145 0-.257.083-.257.209 0 .101.072.16.189.192l.086.023c.078.021.138.046.138.111 0 .071-.068.118-.162.118-.084 0-.154-.038-.161-.117h-.11c.007.132.109.213.272.213.171 0 .269-.09.269-.213 0-.131-.117-.182-.209-.205l-.071-.018c-.057-.015-.132-.041-.132-.111 0-.062.057-.107.146-.107.083 0 .143.039.151.106z" transform="matrix(97.59744 0 0 97.59744 629.98222848 98.81929704)"/><path d="m.326-.545h-.112v-.131h-.106v.131h-.08v.085h.08v.322c0 .099.075.147.159.145.034 0 .057-.007.069-.011l-.019-.088c-.007.001-.02.005-.038.005-.034 0-.065-.012-.065-.073v-.3h.112z" transform="matrix(97.59744 0 0 97.59744 686.5358784 98.81929704)"/><path d="m.301.011c.154 0 .254-.113.254-.281 0-.17-.1-.283-.254-.283s-.254.113-.254.283c0 .168.1.281.254.281zm0-.089c-.1 0-.147-.088-.147-.193 0-.104.047-.193.147-.193s.147.089.147.193c0 .105-.047.193-.147.193z" transform="matrix(97.59744 0 0 97.59744 716.5775904 98.81929704)"/><path d="m.071 0h.107v-.333c0-.071.055-.123.13-.123.022 0 .047.004.055.006v-.101c-.01-.002-.031-.003-.045-.003-.064 0-.118.037-.138.095h-.006v-.086h-.103z" transform="matrix(97.59744 0 0 97.59744 769.11144576 98.81929704)"/><path d="m.306.011c.119 0 .204-.059.228-.147l-.101-.018c-.019.051-.065.077-.125.077-.091 0-.152-.059-.155-.164h.387v-.037c0-.197-.117-.275-.241-.275-.152 0-.252.116-.252.284 0 .169.099.28.259.28zm-.153-.331c.004-.078.06-.145.147-.145.082 0 .136.061.136.145z" transform="matrix(97.59744 0 0 97.59744 800.36499264 98.81929704)"/></g></g></svg>