<svg width="40" height="40" viewBox="0 0 40 40" fill="none" xmlns="http://www.w3.org/2000/svg">
<path fill-rule="evenodd" clip-rule="evenodd" d="M40 30.3371L28.6619 18.999L21.001 11.3381L9.66292 0L0 9.66292L11.3381 21.001L18.999 28.6619L30.3371 40L40 30.3371ZM5.78141 9.66292L14.239 18.1001L18.1001 14.2186L15.1379 11.2564L12.7068 13.6874L9.82635 10.8069L12.2574 8.37589L9.66292 5.78141L5.78141 9.66292ZM25.7814 21.8795L21.8999 25.761L30.3371 34.1982L34.2186 30.3166L31.6241 27.7222L29.1931 30.1532L26.3126 27.2727L28.7436 24.8417L25.7814 21.8795Z" fill="#FCE96A"/>
<path d="M31.8693 15.7917L28.6619 18.9991L18.999 28.662L9.27477 38.3862H1.61389V30.7253L11.3381 21.0011L21.001 11.3382L24.2084 8.13086L31.8693 15.7917Z" fill="#FDF6B2"/>
<path d="M31.5861 0.765315L26.4001 5.95117L34.0562 13.6072L39.2421 8.42132L31.5861 0.765315Z" fill="#FDF6B2"/>
</svg>
