<svg width="36" height="36" viewBox="0 0 36 36" fill="none" xmlns="http://www.w3.org/2000/svg">
<path d="M8.54033 35.3407C12.8951 35.3407 16.4254 31.8104 16.4254 27.4556C16.4254 23.1008 12.8951 19.5706 8.54033 19.5706C4.18553 19.5706 0.655273 23.1008 0.655273 27.4556C0.655273 31.8104 4.18553 35.3407 8.54033 35.3407Z" fill="#31C48D"/>
<path d="M32.1951 14.8484H35.3491V0.655273H21.1561V3.80929H29.9652L16.8871 16.8874L19.117 19.1173L32.1951 6.03919V14.8484Z" fill="#31C48D"/>
<path d="M2.2299 13.9219L6.96093 9.19082L11.692 13.9219L13.9219 11.692L9.19082 6.96093L13.9219 2.2299L11.692 0L6.96093 4.73103L2.2299 0L0 2.2299L4.73103 6.96093L0 11.692L2.2299 13.9219ZM36 24.308L33.7701 22.0781L29.0391 26.8092L24.308 22.0781L22.0781 24.308L26.8092 29.0391L22.0781 33.7701L24.308 36L29.0391 31.269L33.7701 36L36 33.7701L31.269 29.0391L36 24.308Z" fill="#BDF0DA"/>
</svg>
