<svg fill="none" height="36" viewBox="0 0 36 36" width="36" xmlns="http://www.w3.org/2000/svg"><path d="m8.54033 35.3407c4.35477 0 7.88507-3.5303 7.88507-7.8851s-3.5303-7.885-7.88507-7.885c-4.3548 0-7.885057 3.5302-7.885057 7.885s3.530257 7.8851 7.885057 7.8851z" fill="#31c48d"/><path d="m32.1951 14.8484h3.154v-14.193127h-14.193v3.154017h8.8091l-13.0781 13.07811 2.2299 2.2299 13.0781-13.07811z" fill="#31c48d"/><path d="m2.2299 13.9219 4.73103-4.73108 4.73107 4.73108 2.2299-2.2299-4.73108-4.73107 4.73108-4.73103-2.2299-2.2299-4.73107 4.73103-4.73103-4.73103-2.2299 2.2299 4.73103 4.73103-4.73103 4.73107zm33.7701 10.3861-2.2299-2.2299-4.731 4.7311-4.7311-4.7311-2.2299 2.2299 4.7311 4.7311-4.7311 4.731 2.2299 2.2299 4.7311-4.731 4.731 4.731 2.2299-2.2299-4.731-4.731z" fill="#bdf0da"/></svg>