<svg fill="#d1d5db" height="400" viewBox="0 0 395 400" width="395" xmlns="http://www.w3.org/2000/svg"><path d="m197.266 166.797c-20.462 0-37.11 16.648-37.11 37.109 0 20.462 16.648 37.11 37.11 37.11 20.461 0 37.109-16.648 37.109-37.11 0-20.461-16.648-37.109-37.109-37.109zm0 62.5c-14.001 0-25.391-11.391-25.391-25.391 0-11.983 8.348-22.047 19.531-24.701v30.561h21.485v-11.719h-9.766v-18.842c11.184 2.654 19.531 12.718 19.531 24.701 0 14-11.39 25.391-25.39 25.391z"/><path d="m250 143.359v-19.514l-17.969-24.2192v-47.0742l-28.906-34.375v-18.1766h-11.719v18.1766l-28.906 34.375v47.075l-17.969 24.2184v19.514h-11.719v121.094h11.719v135.547h11.719v-10.547h82.031v10.547h11.719v-135.547h11.719v-121.094zm-52.734-113.9426 16.323 19.4117h-32.647zm-23.047 31.1305h46.093v35.1562h-46.093zm-17.97 67.1711 15.059-20.296h51.915l15.057 20.296v15.641h-82.031zm82.032 250.016h-82.031v-50.781h82.031zm0-62.5h-82.031v-50.781h82.031zm11.719-148.437h-11.328v11.719h11.328v50.781h-11.328v11.719h11.328v11.718h-105.469v-11.718h11.328v-11.719h-11.328v-50.781h11.328v-11.719h-11.328v-11.719h105.469z"/><path d="m365.43 51.5625c-.375 0-.749.007-1.124.0219-6.858-12.2453-19.793-19.9438-34.072-19.9438-10.994 0-21.21 4.4875-28.583 12.4367-1.739-.3218-3.506-.4836-5.285-.4836-13.282 0-24.788 9.1751-28.122 21.6469-10.376 1.9789-18.244 11.1196-18.244 22.0641 0 12.3851 10.076 22.4613 22.461 22.4613h92.969c16.047 0 29.101-13.0551 29.101-29.1019 0-16.0469-13.054-29.1016-29.101-29.1016zm0 46.4844h-92.969c-5.923 0-10.742-4.8188-10.742-10.7422 0-5.9235 4.819-10.7422 10.742-10.7422.166 0 .33.0062.494.0133l5.625.2492.472-5.6117c.751-8.9164 8.357-15.9008 17.315-15.9008 1.883 0 3.745.3047 5.534.9047l3.99 1.3398 2.543-3.3539c5.225-6.8906 13.171-10.8429 21.8-10.8429 11.05 0 20.952 6.5867 25.228 16.7796l1.851 4.4157 4.697-.936c1.125-.2242 2.276-.3383 3.42-.3383 9.585 0 17.382 7.7977 17.382 17.3829 0 9.5851-7.797 17.3828-17.382 17.3828z"/><path d="m78.3531 115.649c-4.1804-11.328-15.1164-19.1646-27.4937-19.1646-8.4336 0-16.3282 3.5916-21.8461 9.7786-1.4531-.268-2.925-.404-4.4039-.404-13.5696 0-24.6094 11.04-24.6094 24.61 0 13.569 11.0398 24.609 24.6094 24.609h49.6875c10.9851 0 19.9219-8.937 19.9219-19.922 0-9.595-6.8196-17.627-15.8657-19.507zm-4.0562 27.71h-49.6875c-7.1078 0-12.8906-5.782-12.8906-12.89s5.7828-12.891 12.8906-12.891c1.5383 0 3.0726.287 4.5617.852l4.3992 1.668 2.5797-3.935c3.268-4.984 8.7664-7.96 14.7094-7.96 8.3367 0 15.582 5.919 17.2289 14.074l.982 4.866 4.9617-.17c.1141-.003.2274-.01.3672-.019 4.4766.055 8.1016 3.713 8.1016 8.202-.0008 4.524-3.6805 8.203-8.2039 8.203z"/><path d="m118.359 33.2031c-1.109 0-2.214.0867-3.307.2602-4.762-5.1156-11.443-8.0727-18.5676-8.0727-10.5438 0-19.8805 6.561-23.6367 16.1094-7.7188 1.8539-13.4727 8.8141-13.4727 17.0938 0 9.6929 7.8859 17.5781 17.5781 17.5781h41.4059c11.846 0 21.485-9.6375 21.485-21.4844s-9.639-21.4844-21.485-21.4844zm0 31.25h-41.4059c-3.2312 0-5.8593-2.6281-5.8593-5.8593 0-3.1946 2.5695-5.8001 5.7507-5.8586.1024.0062.2047.0117.3086.0156l4.9516.1594.9805-4.8563c1.2804-6.3414 6.9156-10.9445 13.3992-10.9445 4.6226 0 8.8996 2.3148 11.4426 6.1922l2.579 3.9343 4.399-1.6679c1.13-.4289 2.293-.6461 3.455-.6461 5.385 0 9.766 4.3804 9.766 9.7656s-4.381 9.7656-9.767 9.7656z"/><path d="m185.547 119.922h-11.719v11.719h11.719z"/><path d="m220.703 119.922h-23.437v11.719h23.437z"/><path d="m179.688 335.938h-11.719v32.812h11.719z"/><path d="m203.125 335.938h-11.719v32.812h11.719z"/><path d="m226.562 335.938h-11.718v32.812h11.718z"/><path d="m179.688 273.438h-11.719v32.812h11.719z"/><path d="m203.125 273.438h-11.719v32.812h11.719z"/><path d="m226.562 273.438h-11.718v32.812h11.718z"/><path d="m326.953 74.6094h-11.719v11.7187h11.719z"/><path d="m366.797 74.6094h-28.125v11.7187h28.125z"/><path d="m303.516 74.6094h-11.719v11.7187h11.719z"/><path d="m57.0312 119.922h-11.7187v11.719h11.7187z"/><path d="m208.984 72.2656h-23.437v11.7188h23.437z"/></svg>