<svg fill="#111827" height="32" viewBox="0 0 32 32" width="32" xmlns="http://www.w3.org/2000/svg"><path d="m15.984 0c-8.832 0-15.984 7.168-15.984 16s7.152 16 15.984 16c8.848 0 16.016-7.168 16.016-16s-7.168-16-16.016-16zm11.088 9.6h-4.72c-.512-2-1.248-3.92-2.208-5.696 2.944 1.008 5.392 3.056 6.928 5.696zm-11.072-6.336c1.328 1.92 2.368 4.048 3.056 6.336h-6.112c.688-2.288 1.728-4.416 3.056-6.336zm-12.384 15.936c-.256-1.024-.416-2.096-.416-3.2s.16-2.176.416-3.2h5.408c-.128 1.056-.224 2.112-.224 3.2s.096 2.144.224 3.2zm1.312 3.2h4.72c.512 2 1.248 3.92 2.208 5.696-2.944-1.008-5.392-3.04-6.928-5.696zm4.72-12.8h-4.72c1.536-2.656 3.984-4.688 6.928-5.696-.96 1.776-1.696 3.696-2.208 5.696zm6.352 19.136c-1.328-1.92-2.368-4.048-3.056-6.336h6.112c-.688 2.288-1.728 4.416-3.056 6.336zm3.744-9.536h-7.488c-.144-1.056-.256-2.112-.256-3.2s.112-2.16.256-3.2h7.488c.144 1.04.256 2.112.256 3.2s-.112 2.144-.256 3.2zm.4 8.896c.96-1.776 1.696-3.696 2.208-5.696h4.72c-1.536 2.64-3.984 4.688-6.928 5.696zm2.832-8.896c.128-1.056.224-2.112.224-3.2s-.096-2.144-.224-3.2h5.408c.256 1.024.416 2.096.416 3.2s-.16 2.176-.416 3.2z"/></svg>