<?xml version="1.0" encoding="iso-8859-1"?>
<!-- Generator: Adobe Illustrator 19.0.0, SVG Export Plug-In . SVG Version: 6.00 Build 0)  -->
<svg version="1.1" id="Capa_1" xmlns="http://www.w3.org/2000/svg" xmlns:xlink="http://www.w3.org/1999/xlink" x="0px" y="0px"
	 viewBox="0 0 512 512" style="enable-background:new 0 0 512 512;" xml:space="preserve">
<g>
	<g>
		<path d="M256,213.5c-26.191,0-47.5,21.309-47.5,47.5s21.309,47.5,47.5,47.5c26.191,0,47.5-21.309,47.5-47.5
			C303.5,234.809,282.191,213.5,256,213.5z M256,293.5c-17.921,0-32.5-14.58-32.5-32.5c0-15.339,10.685-28.221,25-31.617V268.5H276
			v-15h-12.5v-24.117c14.315,3.396,25,16.278,25,31.617C288.5,278.92,273.921,293.5,256,293.5z"/>
	</g>
</g>
<g>
	<g>
		<path d="M323.5,183.5v-24.979l-23-31V67.266l-37-44V0h-15v23.266l-37,44v60.256l-23,31V183.5h-15v155h15V512h15v-13.5h105V512h15
			V338.5h15v-155H323.5z M256,37.653L276.894,62.5h-41.788L256,37.653z M226.5,77.5h59v45h-59V77.5z M203.499,163.479
			L203.499,163.479l19.275-25.979h66.451l19.274,25.979V183.5h-105V163.479z M308.5,483.5h-105v-65h105V483.5z M308.5,403.5h-105
			v-65h105V403.5z M323.5,213.5H309v15h14.5v65H309v15h14.5v15h-135v-15H203v-15h-14.5v-65H203v-15h-14.5v-15h135V213.5z"/>
	</g>
</g>
<g>
	<g>
		<path d="M471.25,66c-0.479,0-0.958,0.009-1.438,0.028C461.034,50.354,444.477,40.5,426.2,40.5
			c-14.073,0-27.149,5.744-36.587,15.919c-2.226-0.412-4.487-0.619-6.764-0.619c-17.002,0-31.729,11.744-35.997,27.708
			C333.571,86.041,323.5,97.741,323.5,111.75c0,15.853,12.897,28.75,28.75,28.75h119c20.54,0,37.25-16.71,37.25-37.25
			S491.79,66,471.25,66z M471.25,125.5h-119c-7.582,0-13.75-6.168-13.75-13.75c0-7.582,6.168-13.75,13.75-13.75
			c0.212,0,0.422,0.008,0.632,0.017l7.201,0.319l0.604-7.183C361.648,79.74,371.383,70.8,382.85,70.8c2.41,0,4.793,0.39,7.083,1.158
			l5.107,1.715l3.256-4.293c6.688-8.82,16.858-13.879,27.904-13.879c14.144,0,26.818,8.431,32.291,21.478l2.37,5.652l6.012-1.198
			c1.44-0.287,2.913-0.433,4.377-0.433c12.269,0,22.25,9.981,22.25,22.25S483.519,125.5,471.25,125.5z"/>
	</g>
</g>
<g>
	<g>
		<path d="M103.792,148.031C98.441,133.531,84.443,123.5,68.6,123.5c-10.795,0-20.9,4.597-27.963,12.517
			c-1.86-0.344-3.744-0.517-5.637-0.517c-17.369,0-31.5,14.131-31.5,31.5s14.131,31.5,31.5,31.5h63.6
			c14.061,0,25.5-11.439,25.5-25.5C124.1,160.718,115.371,150.437,103.792,148.031z M98.6,183.5H35c-9.098,0-16.5-7.402-16.5-16.5
			s7.402-16.5,16.5-16.5c1.969,0,3.933,0.367,5.839,1.09l5.631,2.136l3.302-5.037c4.183-6.38,11.221-10.189,18.828-10.189
			c10.671,0,19.945,7.576,22.053,18.015l1.257,6.228l6.351-0.217c0.146-0.005,0.291-0.013,0.47-0.025
			c5.73,0.07,10.37,4.753,10.37,10.499C109.1,178.79,104.39,183.5,98.6,183.5z"/>
	</g>
</g>
<g>
	<g>
		<path d="M155,42.5c-1.42,0-2.834,0.111-4.234,0.333C144.671,36.285,136.119,32.5,127,32.5c-13.496,0-25.447,8.398-30.255,20.62
			C86.865,55.493,79.5,64.402,79.5,75c0,12.407,10.094,22.5,22.5,22.5h53c15.163,0,27.5-12.336,27.5-27.5S170.163,42.5,155,42.5z
			 M155,82.5h-53c-4.136,0-7.5-3.364-7.5-7.5c0-4.089,3.289-7.424,7.361-7.499c0.131,0.008,0.262,0.015,0.395,0.02l6.338,0.204
			l1.255-6.216C111.488,53.392,118.701,47.5,127,47.5c5.917,0,11.392,2.963,14.646,7.926l3.302,5.036l5.63-2.135
			c1.447-0.549,2.936-0.827,4.423-0.827c6.893,0,12.5,5.607,12.5,12.5S161.893,82.5,155,82.5z"/>
	</g>
</g>
<g>
	<g>
		<rect x="226" y="153.5" width="15" height="15"/>
	</g>
</g>
<g>
	<g>
		<rect x="256" y="153.5" width="30" height="15"/>
	</g>
</g>
<g>
	<g>
		<rect x="218.5" y="430" width="15" height="42"/>
	</g>
</g>
<g>
	<g>
		<rect x="248.5" y="430" width="15" height="42"/>
	</g>
</g>
<g>
	<g>
		<rect x="278.5" y="430" width="15" height="42"/>
	</g>
</g>
<g>
	<g>
		<rect x="218.5" y="350" width="15" height="42"/>
	</g>
</g>
<g>
	<g>
		<rect x="248.5" y="350" width="15" height="42"/>
	</g>
</g>
<g>
	<g>
		<rect x="278.5" y="350" width="15" height="42"/>
	</g>
</g>
<g>
	<g>
		<rect x="407" y="95.5" width="15" height="15"/>
	</g>
</g>
<g>
	<g>
		<rect x="437" y="95.5" width="36" height="15"/>
	</g>
</g>
<g>
	<g>
		<rect x="377" y="95.5" width="15" height="15"/>
	</g>
</g>
<g>
	<g>
		<rect x="61.5" y="153.5" width="15" height="15"/>
	</g>
</g>
<g>
	<g>
		<rect x="241" y="92.5" width="30" height="15"/>
	</g>
</g>
<g>
</g>
<g>
</g>
<g>
</g>
<g>
</g>
<g>
</g>
<g>
</g>
<g>
</g>
<g>
</g>
<g>
</g>
<g>
</g>
<g>
</g>
<g>
</g>
<g>
</g>
<g>
</g>
<g>
</g>
</svg>
