<?xml version="1.0" encoding="iso-8859-1"?>
<!-- Generator: Adobe Illustrator 19.0.0, SVG Export Plug-In . SVG Version: 6.00 Build 0)  -->
<svg version="1.1" id="Capa_1" xmlns="http://www.w3.org/2000/svg" xmlns:xlink="http://www.w3.org/1999/xlink" x="0px" y="0px"
	 viewBox="0 0 512 512" style="enable-background:new 0 0 512 512;" xml:space="preserve">
<g>
	<g>
		<path d="M436.07,300.303h-11.81V159.504h22.967v-49.429h-14.979v34.451h-10.12l-13.846-40.595V11.216h-14.979v48.8L372.833,0
			l-21.469,62.944V11.216h-14.979v94.864h0.266l-13.113,38.445h-7.124v-34.451h-14.979v49.429h19.971v124.802l-20.288-33.432h0.317
			v-41.94h-14.979v17.779l-22.967-37.847v-37.35h17.974v-14.979h-17.974v-18.474h-14.979v18.474h-17.974v14.979h17.974v37.35
			l-22.967,37.847v-17.779h-14.979v41.94h0.317l-19.289,31.787V159.504h20.97v-49.429h-14.979v34.451h-8.122l-13.846-40.595V11.216
			h-14.979v48.8L140.166,0l-21.469,62.944V11.216h-14.979v94.864h0.266L90.87,144.525h-9.121v-34.451H66.771v49.429h21.969v140.799
			H75.93l-17.148,49.159V512h394.436V349.462L436.07,300.303z M88.739,497.021H73.761V352l12.809-36.719h2.17V497.021z
			 M372.833,46.399l33.47,98.128H381.82v-34.451h-14.979v34.451h-27.479L372.833,46.399z M256,205.395l57.594,94.907h-49.605
			v-46.434H249.01v46.434h-50.604L256,205.395z M140.166,46.399l33.47,98.128h-26.48v-34.451h-14.979v34.451h-25.482L140.166,46.399
			z M103.718,159.504h72.896v140.799h-72.896V159.504z M248.511,497.021h-30.956v-28.293h30.956V497.021z M248.511,453.75h-30.956
			v-38.612h30.956V453.75z M248.511,400.16h-30.956v-10.485c0-12.673,17.713-25.845,30.956-33.573V400.16z M294.445,497.021h-30.956
			v-28.293h30.956V497.021z M294.445,453.75h-30.956v-38.612h30.956V453.75z M294.445,400.16h-30.956v-44.073
			c13.244,7.713,30.956,20.873,30.956,33.588V400.16z M409.281,497.021h-99.857V389.675c0-29.374-45.208-50.462-50.364-52.77
			l-3.06-1.37l-3.06,1.37c-5.156,2.308-50.364,23.397-50.364,52.77v107.347h-98.859v-181.74h305.563V497.021z M409.281,300.303
			h-72.896V159.504h72.896V300.303z M438.239,497.021h-13.98v-181.74h1.171L438.239,352V497.021z"/>
	</g>
</g>
<g>
	<g>
		<path d="M140.166,185.467c-12.389,0-22.468,10.079-22.468,22.468v43.438h44.936v-43.438
			C162.633,195.546,152.555,185.467,140.166,185.467z M147.655,236.394h-14.979v-28.459c0-4.13,3.359-7.489,7.489-7.489
			c4.13,0,7.489,3.359,7.489,7.489V236.394z"/>
	</g>
</g>
<g>
	<g>
		<path d="M372.833,185.467c-12.389,0-22.468,10.079-22.468,22.468v43.438h44.936v-43.438
			C395.301,195.545,385.222,185.467,372.833,185.467z M380.322,236.394h-14.979v-28.459c0-4.13,3.359-7.489,7.489-7.489
			s7.489,3.359,7.489,7.489V236.394z"/>
	</g>
</g>
<g>
	<g>
		<path d="M140.166,330.26c-12.389,0-22.468,10.079-22.468,22.468v43.438h44.936v-43.438
			C162.633,340.338,152.555,330.26,140.166,330.26z M147.655,381.187h-14.979v-28.459c0-4.13,3.359-7.489,7.489-7.489
			c4.13,0,7.489,3.359,7.489,7.489V381.187z"/>
	</g>
</g>
<g>
	<g>
		<path d="M372.833,330.26c-12.389,0-22.468,10.079-22.468,22.468v43.438h44.936v-43.438
			C395.301,340.338,385.222,330.26,372.833,330.26z M380.322,381.187h-14.979v-28.459c0-4.13,3.359-7.489,7.489-7.489
			s7.489,3.359,7.489,7.489V381.187z"/>
	</g>
</g>
<g>
	<g>
		<rect x="123.194" y="427.119" width="15.977" height="14.979"/>
	</g>
</g>
<g>
	<g>
		<rect x="153.151" y="452.084" width="21.969" height="14.979"/>
	</g>
</g>
<g>
	<g>
		<rect x="122.195" y="470.058" width="16.976" height="14.979"/>
	</g>
</g>
<g>
	<g>
		<rect x="322.908" y="408.146" width="16.976" height="14.979"/>
	</g>
</g>
<g>
	<g>
		<rect x="300.94" y="329.259" width="38.944" height="14.979"/>
	</g>
</g>
<g>
	<g>
		<rect x="178.115" y="329.259" width="38.944" height="14.979"/>
	</g>
</g>
<g>
	<g>
		<rect x="349.87" y="434.109" width="33.951" height="14.979"/>
	</g>
</g>
<g>
	<g>
		<rect x="326.903" y="461.071" width="14.979" height="14.979"/>
	</g>
</g>
<g>
	<g>
		<rect x="370.84" y="469.059" width="25.963" height="14.979"/>
	</g>
</g>
<g>
	<g>
		<rect x="122.195" y="272.341" width="16.976" height="14.979"/>
	</g>
</g>
<g>
	<g>
		<rect x="371.838" y="270.344" width="16.976" height="14.979"/>
	</g>
</g>
<g>
</g>
<g>
</g>
<g>
</g>
<g>
</g>
<g>
</g>
<g>
</g>
<g>
</g>
<g>
</g>
<g>
</g>
<g>
</g>
<g>
</g>
<g>
</g>
<g>
</g>
<g>
</g>
<g>
</g>
</svg>
