<svg width="160" height="32" viewBox="0 0 160 32" fill="currentColor" xmlns="http://www.w3.org/2000/svg">
<path d="M6 7H33V4H3V23.5H0V28H21V23.5H6V7Z"/>
<path d="M6 7H33V4H3V23.5H0V28H21V23.5H6V7Z"/>
<path d="M36 10H24V28H36V10ZM33 23.5H27V13H33V23.5Z"/>
<path d="M74.6426 29.4863C78.0296 29.4863 80.7754 26.7406 80.7754 23.3535C80.7754 19.9665 78.0296 17.2207 74.6426 17.2207C71.2555 17.2207 68.5098 19.9665 68.5098 23.3535C68.5098 26.7406 71.2555 29.4863 74.6426 29.4863Z"/>
<path d="M93.0408 13.5488H95.4939V2.50977H84.4548V4.96289H91.3064L81.1345 15.1348L82.8689 16.8691L93.0408 6.69726V13.5488Z"/>
<path d="M69.7344 12.8281L73.4141 9.14842L77.0937 12.8281L78.8281 11.0937L75.1484 7.41405L78.8281 3.73436L77.0937 2L73.4141 5.67969L69.7344 2L68 3.73436L71.6797 7.41405L68 11.0937L69.7344 12.8281ZM96 20.9063L94.2656 19.1719L90.5859 22.8516L86.9063 19.1719L85.1719 20.9063L88.8516 24.5859L85.1719 28.2656L86.9063 30L90.5859 26.3203L94.2656 30L96 28.2656L92.3203 24.5859L96 20.9063Z"/>
<path fill-rule="evenodd" clip-rule="evenodd" d="M160 24.2697L150.93 15.1992L144.801 9.07048L135.73 0L128 7.73034L137.07 16.8008L143.199 22.9295L152.27 32L160 24.2697ZM132.625 7.73034L139.391 14.4801L142.48 11.3749L140.11 9.00511L138.165 10.9499L135.861 8.64556L137.806 6.70071L135.73 4.62513L132.625 7.73034ZM148.625 17.5036L145.52 20.6088L152.27 27.3585L155.375 24.2533L153.299 22.1777L151.354 24.1226L149.05 21.8182L150.995 19.8733L148.625 17.5036Z"/>
<path d="M153.495 12.6326L150.929 15.1985L143.199 22.9288L135.42 30.7082H129.291V24.5795L137.07 16.8001L144.801 9.06979L147.367 6.50391L153.495 12.6326Z"/>
<path d="M153.269 0.613033L149.12 4.76172L155.245 10.8865L159.394 6.73783L153.269 0.613033Z"/>
</svg>
