<svg fill="none" height="66" viewBox="0 0 336 66" width="336" xmlns="http://www.w3.org/2000/svg" xmlns:xlink="http://www.w3.org/1999/xlink"><clipPath id="a"><path d="m0 0h336v66h-336z"/></clipPath><g clip-path="url(#a)"><path d="m23.959 53.752c0-1.544-.546-2.748-1.639-3.611-1.091-.863-3.011-1.756-5.756-2.678-2.746-.923-4.989-1.815-6.734-2.678-5.671-2.788-8.507-6.62-8.507-11.495 0-2.426.707-4.568 2.12-6.424 1.412-1.856 3.411-3.3 5.997-4.333 2.585-1.033 5.491-1.55 8.718-1.55 3.145 0 5.967.563 8.462 1.686 2.495 1.124 4.434 2.723 5.816 4.799 1.383 2.076 2.075 4.449 2.075 7.116h-10.523c0-1.785-.546-3.169-1.638-4.152-1.093-.983-2.57-1.475-4.434-1.475-1.883 0-3.371.417-4.464 1.249s-1.639 1.891-1.639 3.175c0 1.124.602 2.141 1.804 3.054s3.316 1.855 6.342 2.828c3.026.974 5.511 2.021 7.455 3.144 4.729 2.729 7.094 6.49 7.094 11.284 0 3.831-1.443 6.84-4.328 9.027-2.887 2.187-6.844 3.28-11.874 3.28-3.547 0-6.758-.636-9.633-1.911-2.876-1.274-5.04-3.019-6.493-5.236-1.453-2.216-2.18-4.769-2.18-7.658h10.581c0 2.347.606 4.078 1.818 5.19 1.212 1.114 3.182 1.671 5.906 1.671 1.744 0 3.121-.376 4.134-1.128 1.013-.751 1.52-1.809 1.52-3.174zm15.235-34.573h10.16v46.218h-10.16zm15.077 5.236c0-1.454.521-2.643 1.563-3.573 1.042-.928 2.395-1.392 4.058-1.392s3.016.464 4.058 1.392c1.043.93 1.563 2.12 1.563 3.573s-.521 2.643-1.563 3.572-2.394 1.393-4.058 1.393c-1.663 0-3.016-.463-4.058-1.393-1.042-.929-1.563-2.119-1.563-3.572zm10.762 40.983h-10.16v-32.558h10.16zm3.839-16.52c0-5.155 1.113-9.217 3.337-12.186s5.33-4.453 9.318-4.453c2.905 0 5.35 1.144 7.334 3.431v-16.491h10.16v46.219h-9.108l-.511-3.491c-2.084 2.728-4.729 4.092-7.936 4.092-3.867 0-6.934-1.485-9.199-4.454-2.263-2.968-3.395-7.191-3.395-12.667zm10.131.631c0 5.778 1.684 8.667 5.05 8.667 2.244 0 3.847-.943 4.809-2.83v-12.395c-.922-1.926-2.505-2.889-4.749-2.889-3.127 0-4.821 2.527-5.081 7.582zm40.496 16.49c-4.989 0-9.028-1.49-12.114-4.469s-4.629-6.855-4.629-11.629v-.842c0-3.33.616-6.269 1.85-8.817 1.232-2.547 3.031-4.518 5.395-5.912s5.171-2.091 8.417-2.091c4.569 0 8.176 1.42 10.822 4.258 2.645 2.839 3.968 6.796 3.968 11.87v3.942h-20.14c.36 1.826 1.152 3.26 2.374 4.303 1.223 1.043 2.806 1.565 4.75 1.565 3.205 0 5.711-1.124 7.515-3.371l4.628 5.477c-1.262 1.745-3.051 3.135-5.365 4.167-2.315 1.033-4.806 1.549-7.471 1.549zm-1.143-25.937c-2.966 0-4.729 1.966-5.29 5.897h10.22v-.782c.04-1.626-.371-2.884-1.232-3.777-.862-.892-2.094-1.338-3.698-1.338zm35.01 16.188c0-.863-.451-1.555-1.352-2.076-.902-.522-2.616-1.063-5.141-1.626-2.525-.561-4.61-1.298-6.252-2.211-1.643-.913-2.896-2.021-3.758-3.325s-1.292-2.799-1.292-4.484c0-2.989 1.232-5.451 3.697-7.387 2.466-1.936 5.692-2.903 9.68-2.903 4.289 0 7.736.973 10.34 2.918 2.605 1.946 3.909 4.504 3.909 7.674h-10.16c0-2.608-1.373-3.911-4.118-3.911-1.063 0-1.954.295-2.675.887-.722.592-1.082 1.329-1.082 2.212 0 .903.44 1.635 1.322 2.196.881.563 2.289 1.023 4.223 1.385 1.934.361 3.632.792 5.094 1.294 4.89 1.685 7.336 4.704 7.336 9.057 0 2.969-1.319 5.387-3.953 7.252-2.636 1.865-6.047 2.798-10.236 2.798-2.786 0-5.27-.502-7.455-1.505-2.185-1.002-3.888-2.366-5.11-4.091s-1.833-3.54-1.833-5.446h9.468c.04 1.503.541 2.602 1.503 3.295.962.691 2.195 1.038 3.698 1.038 1.382 0 2.419-.281 3.11-.843.692-.563 1.037-1.295 1.037-2.198zm24.954 1.023h18.368v8.124h-28.918v-43.811h10.55zm20.847-32.858c0-1.454.521-2.643 1.563-3.573 1.041-.928 2.393-1.392 4.057-1.392 1.663 0 3.015.464 4.058 1.392 1.041.93 1.562 2.12 1.562 3.573s-.521 2.643-1.562 3.572c-1.043.929-2.395 1.393-4.058 1.393-1.664 0-3.017-.463-4.057-1.393-1.042-.929-1.563-2.119-1.563-3.572zm10.761 40.983h-10.161v-32.558h10.161zm18.125-12.067 5.14-20.49h10.67l-10.612 32.557h-10.339l-10.612-32.557h10.702zm32.242 12.668c-4.991 0-9.029-1.49-12.114-4.469-3.087-2.979-4.63-6.855-4.63-11.629v-.842c0-3.33.616-6.269 1.848-8.817 1.233-2.547 3.032-4.518 5.396-5.912 2.365-1.394 5.171-2.091 8.418-2.091 4.568 0 8.175 1.42 10.821 4.258 2.646 2.839 3.969 6.796 3.969 11.87v3.942h-20.141c.361 1.826 1.152 3.26 2.375 4.303s2.806 1.565 4.75 1.565c3.206 0 5.712-1.124 7.515-3.371l4.629 5.477c-1.263 1.745-3.052 3.135-5.366 4.167-2.315 1.033-4.805 1.549-7.47 1.549zm-1.143-25.937c-2.966 0-4.73 1.966-5.291 5.897h10.22v-.782c.04-1.626-.37-2.884-1.232-3.777-.862-.892-2.094-1.338-3.697-1.338zm42.584-28.087h-2.092v5.674h-3.863v-16.04205h6.306c1.9 0 3.387.423 4.458 1.266 1.071.844 1.607 2.036 1.607 3.577 0 1.116-.227 2.04-.678 2.773-.45.733-1.157 1.32805-2.118 1.78205l3.347 6.477v.166h-4.139zm-2.091-2.97505h2.443c.733 0 1.286-.193 1.657-.579.37-.387.555-.926.555-1.619 0-.692-.187-1.235-.561-1.629s-.925-.591-1.651-.591h-2.443zm20.695 1.84005h-6.076v3.834h7.176v2.975h-11.039v-16.04205h11.061v2.986h-7.199v3.383h6.076v2.86405zm15.626 1.377c-.052 1.117-.352 2.102-.902 2.958-.55.855-1.322 1.519-2.316 1.989-.995.471-2.13.705-3.407.705-2.104 0-3.764-.687-4.974-2.061-1.21-1.373-1.816-3.311-1.816-5.81605v-.793c0-1.572.274-2.947.82-4.126.547-1.179 1.334-2.09 2.361-2.732 1.026-.643 2.215-.964 3.565-.964 1.945 0 3.508.512 4.688 1.537 1.182 1.024 1.853 2.437 2.015 4.236h-3.852c-.028-.976-.275-1.678-.737-2.104s-1.166-.638-2.113-.638c-.961 0-1.665.359-2.112 1.08-.448.719-.683 1.869-.705 3.448v1.13505c0 1.711.215 2.934.644 3.668.43.735 1.168 1.102 2.218 1.102.889 0 1.566-.209 2.036-.627s.72-1.083.749-1.994h3.838z" fill="#000"/><path d="m275.998 19.204c5.298 0 9.592-4.299 9.592-9.602 0-5.30304-4.294-9.602-9.592-9.602s-9.592 4.29896-9.592 9.602c0 5.303 4.294 9.602 9.592 9.602z" fill="#dc1e30"/></g></svg>