<svg fill="none" height="62" viewBox="0 0 416 62" width="416" xmlns="http://www.w3.org/2000/svg"><path d="m.352 47v-44.8h8.192v38.4h19.84v6.4zm44.002.768c-2.7307 0-4.9707-.4267-6.72-1.28-1.7493-.896-3.0507-2.0693-3.904-3.52s-1.28-3.0507-1.28-4.8c0-2.944 1.152-5.3333 3.456-7.168s5.76-2.752 10.368-2.752h8.064v-.768c0-2.176-.6187-3.776-1.856-4.8s-2.7733-1.536-4.608-1.536c-1.664 0-3.1147.4053-4.352 1.216-1.2373.768-2.0053 1.92-2.304 3.456h-8c.2133-2.304.9813-4.3093 2.304-6.016 1.3653-1.7067 3.1147-3.008 5.248-3.904 2.1333-.9387 4.5227-1.408 7.168-1.408 4.5227 0 8.0853 1.1307 10.688 3.392s3.904 5.4613 3.904 9.6v19.52h-6.976l-.768-5.12c-.9387 1.7067-2.2613 3.1147-3.968 4.224-1.664 1.1093-3.8187 1.664-6.464 1.664zm1.856-6.4c2.3467 0 4.16-.768 5.44-2.304 1.3227-1.536 2.1547-3.4347 2.496-5.696h-6.976c-2.176 0-3.7333.4053-4.672 1.216-.9387.768-1.408 1.728-1.408 2.88 0 1.2373.4693 2.1973 1.408 2.88s2.176 1.024 3.712 1.024zm22.1375 5.632v-31.744h7.232l.64 5.376c.9813-1.8773 2.3893-3.3707 4.224-4.48 1.8773-1.1093 4.0747-1.664 6.592-1.664 3.9253 0 6.976 1.2373 9.152 3.712s3.264 6.1013 3.264 10.88v17.92h-8.192v-17.152c0-2.7307-.5547-4.8213-1.664-6.272s-2.8373-2.176-5.184-2.176c-2.304 0-4.2027.8107-5.696 2.432-1.4507 1.6213-2.176 3.8827-2.176 6.784v16.384zm51.5295.768c-2.987 0-5.653-.7253-8-2.176s-4.203-3.4347-5.568-5.952-2.048-5.376-2.048-8.576.683-6.0373 2.048-8.512c1.365-2.5173 3.221-4.48 5.568-5.888 2.347-1.4507 5.013-2.176 8-2.176 2.389 0 4.48.448 6.272 1.344s3.243 2.1547 4.352 3.776v-18.688002h8.192v46.080002h-7.296l-.896-4.544c-1.024 1.408-2.389 2.6453-4.096 3.712-1.664 1.0667-3.84 1.6-6.528 1.6zm1.728-7.168c2.645 0 4.8-.8747 6.464-2.624 1.707-1.792 2.56-4.0747 2.56-6.848s-.853-5.0347-2.56-6.784c-1.664-1.792-3.819-2.688-6.464-2.688-2.603 0-4.757.8747-6.464 2.624s-2.56 4.0107-2.56 6.784.853 5.056 2.56 6.848 3.861 2.688 6.464 2.688zm27.846-30.272c-1.493 0-2.731-.448-3.712-1.344-.939-.896-1.408-2.02667-1.408-3.392s.469-2.47467 1.408-3.328c.981-.896 2.219-1.344002 3.712-1.344002s2.709.448002 3.648 1.344002c.981.85333 1.472 1.96267 1.472 3.328s-.491 2.496-1.472 3.392c-.939.896-2.155 1.344-3.648 1.344zm-4.096 36.672v-31.744h8.192v31.744zm14.743 0v-31.744h7.232l.64 5.376c.981-1.8773 2.389-3.3707 4.224-4.48 1.877-1.1093 4.074-1.664 6.592-1.664 3.925 0 6.976 1.2373 9.152 3.712 2.175 2.4747 3.263 6.1013 3.263 10.88v17.92h-8.191v-17.152c0-2.7307-.555-4.8213-1.664-6.272-1.11-1.4507-2.838-2.176-5.184-2.176-2.304 0-4.203.8107-5.696 2.432-1.451 1.6213-2.176 3.8827-2.176 6.784v16.384zm50.377-9.472c-1.536 0-2.965-.1707-4.288-.512l-2.368 2.368c.725.384 1.707.704 2.944.96s3.243.512 6.016.768c4.224.384 7.296 1.3867 9.216 3.008s2.88 3.8613 2.88 6.72c0 1.8773-.512 3.648-1.536 5.312-1.024 1.7067-2.603 3.072-4.736 4.096-2.133 1.0667-4.864 1.6-8.192 1.6-4.523 0-8.171-.8533-10.944-2.56-2.773-1.664-4.16-4.1813-4.16-7.552 0-2.8587 1.387-5.3333 4.16-7.424-.853-.384-1.6-.7893-2.24-1.216-.597-.4267-1.131-.8747-1.6-1.344v-1.472l5.568-5.888c-2.475-2.176-3.712-4.9707-3.712-8.384 0-2.1333.512-4.0747 1.536-5.824 1.067-1.7493 2.56-3.136 4.48-4.16s4.245-1.536 6.976-1.536c1.792 0 3.456.256 4.992.768h12.032v4.992l-5.44.384c.853 1.6213 1.28 3.4133 1.28 5.376 0 2.1333-.512 4.0747-1.536 5.824s-2.517 3.136-4.48 4.16c-1.92 1.024-4.203 1.536-6.848 1.536zm0-6.272c1.664 0 3.029-.448 4.096-1.344 1.109-.896 1.664-2.176 1.664-3.84s-.555-2.944-1.664-3.84c-1.067-.896-2.432-1.344-4.096-1.344-1.749 0-3.157.448-4.224 1.344s-1.6 2.176-1.6 3.84.533 2.944 1.6 3.84 2.475 1.344 4.224 1.344zm-7.68 19.648c0 1.5787.725 2.752 2.176 3.52 1.493.8107 3.307 1.216 5.44 1.216 2.048 0 3.712-.4267 4.992-1.28 1.28-.8107 1.92-1.92 1.92-3.328 0-1.152-.427-2.112-1.28-2.88-.811-.768-2.453-1.2373-4.928-1.408-1.749-.128-3.371-.32-4.864-.576-1.237.6827-2.133 1.4293-2.688 2.24-.512.8107-.768 1.6427-.768 2.496zm41.928 10.176v-45.824h7.296l.896 4.544c1.024-1.408 2.368-2.6453 4.032-3.712 1.706-1.0667 3.904-1.6 6.592-1.6 2.986 0 5.653.7253 8 2.176 2.346 1.4507 4.202 3.4347 5.568 5.952 1.365 2.5173 2.048 5.376 2.048 8.576s-.683 6.0587-2.048 8.576c-1.366 2.4747-3.222 4.4373-5.568 5.888-2.347 1.408-5.014 2.112-8 2.112-2.39 0-4.48-.448-6.272-1.344s-3.243-2.1547-4.352-3.776v18.432zm17.088-20.48c2.602 0 4.757-.8747 6.464-2.624 1.706-1.7493 2.56-4.0107 2.56-6.784s-.854-5.056-2.56-6.848c-1.707-1.792-3.862-2.688-6.464-2.688-2.646 0-4.822.896-6.528 2.688-1.664 1.7493-2.496 4.0107-2.496 6.784s.832 5.056 2.496 6.848c1.706 1.7493 3.882 2.624 6.528 2.624zm33.606 7.168c-2.731 0-4.971-.4267-6.72-1.28-1.75-.896-3.051-2.0693-3.904-3.52-.854-1.4507-1.28-3.0507-1.28-4.8 0-2.944 1.152-5.3333 3.456-7.168s5.76-2.752 10.368-2.752h8.064v-.768c0-2.176-.619-3.776-1.856-4.8-1.238-1.024-2.774-1.536-4.608-1.536-1.664 0-3.115.4053-4.352 1.216-1.238.768-2.006 1.92-2.304 3.456h-8c.213-2.304.981-4.3093 2.304-6.016 1.365-1.7067 3.114-3.008 5.248-3.904 2.133-.9387 4.522-1.408 7.168-1.408 4.522 0 8.085 1.1307 10.688 3.392 2.602 2.2613 3.904 5.4613 3.904 9.6v19.52h-6.976l-.768-5.12c-.939 1.7067-2.262 3.1147-3.968 4.224-1.664 1.1093-3.819 1.664-6.464 1.664zm1.856-6.4c2.346 0 4.16-.768 5.44-2.304 1.322-1.536 2.154-3.4347 2.496-5.696h-6.976c-2.176 0-3.734.4053-4.672 1.216-.939.768-1.408 1.728-1.408 2.88 0 1.2373.469 2.1973 1.408 2.88.938.6827 2.176 1.024 3.712 1.024zm35.577-3.84c-1.536 0-2.965-.1707-4.288-.512l-2.368 2.368c.725.384 1.707.704 2.944.96s3.243.512 6.016.768c4.224.384 7.296 1.3867 9.216 3.008s2.88 3.8613 2.88 6.72c0 1.8773-.512 3.648-1.536 5.312-1.024 1.7067-2.603 3.072-4.736 4.096-2.133 1.0667-4.864 1.6-8.192 1.6-4.523 0-8.171-.8533-10.944-2.56-2.773-1.664-4.16-4.1813-4.16-7.552 0-2.8587 1.387-5.3333 4.16-7.424-.853-.384-1.6-.7893-2.24-1.216-.597-.4267-1.131-.8747-1.6-1.344v-1.472l5.568-5.888c-2.475-2.176-3.712-4.9707-3.712-8.384 0-2.1333.512-4.0747 1.536-5.824 1.067-1.7493 2.56-3.136 4.48-4.16s4.245-1.536 6.976-1.536c1.792 0 3.456.256 4.992.768h12.032v4.992l-5.44.384c.853 1.6213 1.28 3.4133 1.28 5.376 0 2.1333-.512 4.0747-1.536 5.824s-2.517 3.136-4.48 4.16c-1.92 1.024-4.203 1.536-6.848 1.536zm0-6.272c1.664 0 3.029-.448 4.096-1.344 1.109-.896 1.664-2.176 1.664-3.84s-.555-2.944-1.664-3.84c-1.067-.896-2.432-1.344-4.096-1.344-1.749 0-3.157.448-4.224 1.344s-1.6 2.176-1.6 3.84.533 2.944 1.6 3.84 2.475 1.344 4.224 1.344zm-7.68 19.648c0 1.5787.725 2.752 2.176 3.52 1.493.8107 3.307 1.216 5.44 1.216 2.048 0 3.712-.4267 4.992-1.28 1.28-.8107 1.92-1.92 1.92-3.328 0-1.152-.427-2.112-1.28-2.88-.811-.768-2.453-1.2373-4.928-1.408-1.749-.128-3.371-.32-4.864-.576-1.237.6827-2.133 1.4293-2.688 2.24-.512.8107-.768 1.6427-.768 2.496zm42.852-3.136c-3.2 0-6.038-.6827-8.512-2.048-2.475-1.3653-4.416-3.2853-5.824-5.76s-2.112-5.3333-2.112-8.576c0-3.2853.682-6.208 2.048-8.768 1.408-2.56 3.328-4.544 5.76-5.952 2.474-1.4507 5.376-2.176 8.704-2.176 3.114 0 5.866.6827 8.256 2.048 2.389 1.3653 4.245 3.2427 5.568 5.632 1.365 2.3467 2.048 4.9707 2.048 7.872 0 .4693-.022.96-.064 1.472 0 .512-.022 1.0453-.064 1.6h-24.128c.17 2.4747 1.024 4.416 2.56 5.824 1.578 1.408 3.477 2.112 5.696 2.112 1.664 0 3.05-.3627 4.16-1.088 1.152-.768 2.005-1.7493 2.56-2.944h8.32c-.598 2.0053-1.6 3.84-3.008 5.504-1.366 1.6213-3.072 2.9013-5.12 3.84-2.006.9387-4.288 1.408-6.848 1.408zm.064-26.624c-2.006 0-3.776.576-5.312 1.728-1.536 1.1093-2.518 2.816-2.944 5.12h15.808c-.128-2.0907-.896-3.7547-2.304-4.992s-3.158-1.856-5.248-1.856zm33.882 26.624c-2.816 0-5.291-.448-7.424-1.344-2.134-.9387-3.84-2.2187-5.12-3.84s-2.048-3.4987-2.304-5.632h8.256c.256 1.2373.938 2.304 2.048 3.2 1.152.8533 2.624 1.28 4.416 1.28s3.093-.3627 3.904-1.088c.853-.7253 1.28-1.5573 1.28-2.496 0-1.3653-.598-2.2827-1.792-2.752-1.195-.512-2.859-1.0027-4.992-1.472-1.366-.2987-2.752-.6613-4.16-1.088s-2.71-.96-3.904-1.6c-1.152-.6827-2.091-1.536-2.816-2.56-.726-1.0667-1.088-2.368-1.088-3.904 0-2.816 1.109-5.184 3.328-7.104 2.261-1.92 5.418-2.88 9.472-2.88 3.754 0 6.741.8747 8.96 2.624 2.261 1.7493 3.605 4.16 4.032 7.232h-7.744c-.47-2.3467-2.24-3.52-5.312-3.52-1.536 0-2.731.2987-3.584.896-.811.5973-1.216 1.344-1.216 2.24 0 .9387.618 1.6853 1.856 2.24 1.237.5547 2.88 1.0667 4.928 1.536 2.218.512 4.245 1.088 6.08 1.728 1.877.5973 3.37 1.5147 4.48 2.752 1.109 1.1947 1.664 2.9227 1.664 5.184.042 1.9627-.47 3.7333-1.536 5.312-1.067 1.5787-2.603 2.816-4.608 3.712-2.006.896-4.374 1.344-7.104 1.344z" fill="#059669"/></svg>