<svg fill="#e5e7eb" height="32" viewBox="0 0 34 32" width="34" xmlns="http://www.w3.org/2000/svg"><path clip-rule="evenodd" d="m16.5228 0c-9.12511.0008061-16.5228 7.399-16.5228 16.5258 0 6.0111 3.21044 11.2714 8.00987 14.1622.85646.5158 1.76353.9562 2.71203 1.312l3.8081-10.155c.0001 0-.0001-.0001 0 0-1.2459-.4673-2.2884-1.3571-2.9453-2.5143-.657-1.1572-.8868-2.5083-.6494-3.8177.2374-1.3093.927-2.4937 1.9484-3.3466 1.0215-.8529 2.3099-1.3201 3.6406-1.3201s2.6192.4672 3.6406 1.3201 1.711 2.0373 1.9484 3.3466c.2374 1.3094.0076 2.6605-.6493 3.8177-.657 1.1572-1.6994 2.0471-2.9454 2.5143l3.8082 10.155c.9484-.3558 1.8555-.7962 2.712-1.312 4.7994-2.8908 8.0098-8.1511 8.0098-14.1622 0-9.1268-7.3977-16.52499403-16.5243-16.5258-.0002 0-.0012 0-.0015 0zm.0015 3c7.4698.00081 13.5243 6.05585 13.5243 13.5258 0 4.717-2.4166 8.8742-6.0852 11.2947l-1.7702-4.7207c.7474-.6446 1.385-1.4167 1.8797-2.288 1.0039-1.7684 1.3551-3.8331.9923-5.834s-1.4166-3.8109-2.9775-5.11422c-1.5609-1.30333-3.5299-2.01728-5.5634-2.01728s-4.0024.71395-5.5634 2.01728c-1.56087 1.30332-2.61465 3.11332-2.97746 5.11422-.3628 2.0009-.0116 4.0656.99233 5.834.49465.8713 1.13233 1.6434 1.87963 2.288l-1.77023 4.7207c-3.66854-2.4205-6.08517-6.5777-6.08517-11.2947 0-7.47013 6.05472-13.52499 13.5228-13.5258" fill-rule="evenodd"/></svg>