<svg fill="#d1d5db" height="400" viewBox="0 0 309 400" width="309" xmlns="http://www.w3.org/2000/svg"><path d="m294.756 234.612h-9.226v-110h17.943v-38.6159h-11.703v26.9149h-7.906l-10.817-31.7149v-72.4336h-11.702v38.125l-15.993-46.8875-16.772 49.175v-40.4125h-11.703v74.1125h.208l-10.244 30.035h-5.566v-26.9147h-11.702v38.6167h15.602v97.501l-15.85-26.118h.248v-32.766h-11.703v13.89l-17.943-29.568v-29.18h14.043v-11.702h-14.043v-14.4331h-11.702v14.4331h-14.042v11.702h14.042v29.18l-17.943 29.568v-13.89h-11.702v32.766h.247l-15.069 24.833v-96.216h16.383v-38.6159h-11.703v26.9149h-6.345l-10.8172-31.7149v-72.4336h-11.7024v38.125l-15.9921-46.8875-16.7727 49.175v-40.4125h-11.7023v74.1125h.2078l-10.2453 30.035h-7.1258v-26.9147h-11.70159v38.6167h17.16329v109.999h-10.0078l-13.3969 38.405v126.984h308.153v-126.983zm-271.3521 153.686h-11.7016v-113.298l10.0071-28.687h1.6953v141.985zm221.9481-352.0488 26.149 76.6628h-19.128v-26.9151h-11.702v26.9151h-21.468zm-91.275 124.2158 44.995 74.146h-38.754v-36.277h-11.702v36.277h-39.535zm-90.4957-124.2158 26.1484 76.6628h-20.6875v-26.9151h-11.7024v26.9151h-19.9078zm-28.475 88.3628h56.95v110h-56.95zm113.1197 263.686h-24.185v-22.104h24.185zm0-33.806h-24.185v-30.165h24.185zm0-41.867h-24.185v-8.191c0-9.901 13.839-20.192 24.185-26.229zm35.886 75.673h-24.185v-22.104h24.185zm0-33.806h-24.185v-30.165h24.185zm0-41.867h-24.185v-34.432c10.347 6.026 24.185 16.307 24.185 26.241zm89.715 75.673h-78.013v-83.864c0-22.949-35.319-39.424-39.347-41.227l-2.39-1.07-2.391 1.07c-4.028 1.803-39.347 18.279-39.347 41.227v83.864h-77.2335v-141.984h238.7215zm0-153.686h-56.95v-110h56.95zm22.624 153.686h-10.922v-141.985h.915l10.007 28.687z"/><path d="m63.5812 144.896c-9.6789 0-17.5531 7.875-17.5531 17.554v33.936h35.1062v-33.936c-.0008-9.679-7.8742-17.554-17.5531-17.554zm5.8508 39.787h-11.7024v-22.233c0-3.227 2.6243-5.851 5.8508-5.851 3.2266 0 5.8508 2.624 5.8508 5.851v22.233z"/><path d="m245.352 144.896c-9.679 0-17.553 7.875-17.553 17.554v33.936h35.106v-33.936c0-9.68-7.874-17.554-17.553-17.554zm5.851 39.787h-11.702v-22.233c0-3.227 2.624-5.851 5.851-5.851 3.226 0 5.85 2.624 5.85 5.851v22.233z"/><path d="m63.5812 258.016c-9.6789 0-17.5531 7.874-17.5531 17.553v33.936h35.1062v-33.936c-.0008-9.68-7.8742-17.553-17.5531-17.553zm5.8508 39.786h-11.7024v-22.233c0-3.227 2.6243-5.851 5.8508-5.851 3.2266 0 5.8508 2.624 5.8508 5.851v22.233z"/><path d="m245.352 258.016c-9.679 0-17.553 7.874-17.553 17.553v33.936h35.106v-33.936c0-9.68-7.874-17.553-17.553-17.553zm5.851 39.786h-11.702v-22.233c0-3.227 2.624-5.851 5.851-5.851 3.226 0 5.85 2.624 5.85 5.851v22.233z"/><path d="m62.8036 333.686h-12.4821v11.702h12.4821z"/><path d="m90.8892 353.191h-17.1632v11.703h17.1632z"/><path d="m62.8036 367.23h-13.2625v11.703h13.2625z"/><path d="m219.611 318.861h-13.263v11.703h13.263z"/><path d="m219.611 257.232h-30.425v11.703h30.425z"/><path d="m123.654 257.232h-30.4251v11.703h30.4251z"/><path d="m253.936 339.148h-26.524v11.703h26.524z"/><path d="m221.172 360.211h-11.703v11.702h11.703z"/><path d="m264.079 366.455h-20.284v11.702h20.284z"/><path d="m62.8036 212.764h-13.2625v11.702h13.2625z"/><path d="m257.838 211.207h-13.263v11.702h13.263z"/></svg>