<svg fill="#111827" height="32" viewBox="0 0 33 32" width="33" xmlns="http://www.w3.org/2000/svg"><path d="m25.1819 12.0281-11.3688 11.3689-6.81813-6.8181 2.26734-2.2673 4.55079 4.5507 9.1015-9.1015zm-21.96582 3.9719c0-3.7467 1.6402-7.10754 4.21307-9.45528l3.82715 3.82718v-9.648282h-9.64826l3.53769 3.537692c-3.15176 2.92663-5.14573 7.09149-5.14573 11.73869 0 8.3457 6.35176 15.196 14.4724 16v-3.2482c-6.33572-.788-11.25632-6.2071-11.25632-12.7518zm28.94472 0c0-8.34573-6.3518-15.19598-14.4724-16v3.24824c6.3357.78794 11.2563 6.20704 11.2563 12.75176 0 3.7467-1.6402 7.1075-4.213 9.4553l-3.8272-3.8272v9.6483h9.6483l-3.5377-3.5377c3.1517-2.9266 5.1457-7.0915 5.1457-11.7387z"/></svg>