<svg fill="none" height="48" viewBox="0 0 230 48" width="230" xmlns="http://www.w3.org/2000/svg"><rect fill="#d1d5db" height="48" rx="24" width="230"/><g fill="#4b5563"><path d="m40.6175 12 2.9786 9.1672h9.639l-7.7981 5.6656 2.9786 9.1672-7.7981-5.6656-7.798 5.6656 2.9786-9.1672-7.7981-5.6656h9.6389z"/><path d="m77.8527 12 2.9786 9.1672h9.6389l-7.7981 5.6656 2.9786 9.1672-7.798-5.6656-7.7981 5.6656 2.9786-9.1672-7.7981-5.6656h9.639z"/><path d="m115.088 12 2.978 9.1672h9.639l-7.798 5.6656 2.979 9.1672-7.798-5.6656-7.798 5.6656 2.978-9.1672-7.798-5.6656h9.639z"/><path d="m152.323 12 2.978 9.1672h9.639l-7.798 5.6656 2.979 9.1672-7.798-5.6656-7.798 5.6656 2.978-9.1672-7.798-5.6656h9.639z"/><path d="m189.558 12 2.979 9.1672h9.639l-7.799 5.6656 2.979 9.1672-7.798-5.6656-7.798 5.6656 2.979-9.1672-7.799-5.6656h9.639z"/></g></svg>