<svg clip-rule="evenodd" fill-rule="evenodd" stroke-linejoin="round" stroke-miterlimit="1.41421" viewBox="0 0 293 200" xmlns="http://www.w3.org/2000/svg"><path d="m75 75v-37.932l75 62.932-75 62.932v-37.932h-75v-50z" fill="#efb92a"/><path d="m260.496 120c-9.276 45.622-49.653 80-97.996 80-29.559 0-57.604-13.078-76.604-35.721l38.302-32.14c9.5 11.322 23.522 17.861 38.302 17.861 20.486 0 38.112-12.347 45.833-30zm-52.163-40c-7.721-17.653-25.347-30-45.833-30-14.78 0-28.802 6.539-38.302 17.861l-38.302-32.14c19-22.643 47.045-35.721 76.604-35.721 48.343 0 88.72 34.378 97.996 80z" fill="#1a1200"/><g fill="#efb92a"><path d="m225 112.5h-5v-25h5l13.75 20 13.75-20h5v25h-4.588l-.412-16.364-11.25 16.364h-5l-11.25-16.364z"/><path d="m182.5 112.5h-5v-25h5l13.75 20 13.75-20h5v25h-4.588l-.412-16.364-11.25 16.364h-5l-11.25-16.364z"/><path d="m275 112.5v-20h-12.5v-5h30v5h-12.5v20z"/></g></svg>