<?xml version="1.0" encoding="UTF-8" standalone="no"?><!DOCTYPE svg PUBLIC "-//W3C//DTD SVG 1.1//EN" "http://www.w3.org/Graphics/SVG/1.1/DTD/svg11.dtd"><svg width="100%" height="100%" viewBox="0 0 293 200" version="1.1" xmlns="http://www.w3.org/2000/svg" xmlns:xlink="http://www.w3.org/1999/xlink" xml:space="preserve" xmlns:serif="http://www.serif.com/" style="fill-rule:evenodd;clip-rule:evenodd;stroke-linejoin:round;stroke-miterlimit:1.41421;"><path d="M75,75l0,-37.932l75,62.932l-75,62.932l0,-37.932l-75,0l0,-50l75,0Z" style="fill:#efb92a;"/><path d="M260.496,120c-9.276,45.622 -49.653,80 -97.996,80c-29.559,0 -57.604,-13.078 -76.604,-35.721l38.302,-32.14c9.5,11.322 23.522,17.861 38.302,17.861c20.486,0 38.112,-12.347 45.833,-30l52.163,0Zm-52.163,-40c-7.721,-17.653 -25.347,-30 -45.833,-30c-14.78,0 -28.802,6.539 -38.302,17.861l-38.302,-32.14c19,-22.643 47.045,-35.721 76.604,-35.721c48.343,0 88.72,34.378 97.996,80l-52.163,0Z" style="fill:#1a1200;"/><g><path d="M225,112.5l-5,0l0,-25l5,0l13.75,20l13.75,-20l5,0l0,25l-4.588,0l-0.412,-16.364l-11.25,16.364l-5,0l-11.25,-16.364l0,16.364Z" style="fill:#efb92a;"/><path d="M182.5,112.5l-5,0l0,-25l5,0l13.75,20l13.75,-20l5,0l0,25l-4.588,0l-0.412,-16.364l-11.25,16.364l-5,0l-11.25,-16.364l0,16.364Z" style="fill:#efb92a;"/><path d="M275,112.5l0,-20l-12.5,0l0,-5l30,0l0,5l-12.5,0l0,20l-5,0Z" style="fill:#efb92a;"/></g></svg>