<svg fill="none" height="62" viewBox="0 0 256 62" width="256" xmlns="http://www.w3.org/2000/svg"><path d="m.0395002 46.8691v-44.79996h17.9839998c4.6507 0 8.192 1.088 10.624 3.264 2.4747 2.13333 3.712 4.88536 3.712 8.25596 0 2.816-.768 5.0774-2.304 6.784-1.4933 1.664-3.328 2.7947-5.504 3.392 2.56.512 4.672 1.792 6.336 3.84 1.664 2.0054 2.496 4.352 2.496 7.04 0 3.5414-1.28 6.464-3.84 8.768s-6.1867 3.456-10.88 3.456zm8.1919998-25.984h8.576c2.304 0 4.0747-.5333 5.312-1.6 1.2373-1.0666 1.856-2.5813 1.856-4.544 0-1.8773-.6187-3.3493-1.856-4.416-1.1947-1.10929-3.008-1.66396-5.44-1.66396h-8.448zm0 19.328h9.152c2.432 0 4.3093-.5546 5.632-1.664 1.3653-1.152 2.048-2.752 2.048-4.8 0-2.0906-.704-3.7333-2.112-4.928-1.408-1.1946-3.3067-1.792-5.696-1.792h-9.024zm29.991 6.656v-31.744h7.296l.768 5.952c1.152-2.048 2.7093-3.6693 4.672-4.864 2.0053-1.2373 4.352-1.856 7.04-1.856v8.64h-2.304c-1.792 0-3.392.2774-4.8.832-1.408.5547-2.5173 1.5147-3.328 2.88-.768 1.3654-1.152 3.264-1.152 5.696v14.464zm34.319.768c-2.7307 0-4.9707-.4266-6.72-1.28-1.7493-.896-3.0507-2.0693-3.904-3.52-.8533-1.4506-1.28-3.0506-1.28-4.8 0-2.944 1.152-5.3333 3.456-7.168 2.304-1.8346 5.76-2.752 10.368-2.752h8.064v-.768c0-2.176-.6187-3.776-1.856-4.8s-2.7733-1.536-4.608-1.536c-1.664 0-3.1147.4054-4.352 1.216-1.2373.768-2.0053 1.92-2.304 3.456h-8c.2133-2.304.9813-4.3093 2.304-6.016 1.3653-1.7066 3.1147-3.008 5.248-3.904 2.1333-.9386 4.5227-1.408 7.168-1.408 4.5227 0 8.0853 1.1307 10.688 3.392 2.6027 2.2614 3.904 5.4614 3.904 9.6v19.52h-6.976l-.768-5.12c-.9387 1.7067-2.2613 3.1147-3.968 4.224-1.664 1.1094-3.8187 1.664-6.464 1.664zm1.856-6.4c2.3467 0 4.16-.768 5.44-2.304 1.3227-1.536 2.1547-3.4346 2.496-5.696h-6.976c-2.176 0-3.7333.4054-4.672 1.216-.9387.768-1.408 1.728-1.408 2.88 0 1.2374.4693 2.1974 1.408 2.88.9387.6827 2.176 1.024 3.712 1.024zm22.1375 5.632v-31.744h7.232l.64 5.376c.981-1.8773 2.389-3.3706 4.224-4.48 1.877-1.1093 4.075-1.664 6.592-1.664 3.925 0 6.976 1.2374 9.152 3.712 2.176 2.4747 3.264 6.1014 3.264 10.88v17.92h-8.192v-17.152c0-2.7306-.555-4.8213-1.664-6.272-1.109-1.4506-2.837-2.176-5.184-2.176-2.304 0-4.203.8107-5.696 2.432-1.451 1.6214-2.176 3.8827-2.176 6.784v16.384zm51.53.768c-2.987 0-5.654-.7253-8-2.176-2.347-1.4506-4.203-3.4346-5.568-5.952-1.366-2.5173-2.048-5.376-2.048-8.576s.682-6.0373 2.048-8.512c1.365-2.5173 3.221-4.48 5.568-5.888 2.346-1.4506 5.013-2.176 8-2.176 2.389 0 4.48.448 6.272 1.344s3.242 2.1547 4.352 3.776v-18.687961h8.192v46.079961h-7.296l-.896-4.544c-1.024 1.408-2.39 2.6454-4.096 3.712-1.664 1.0667-3.84 1.6-6.528 1.6zm1.728-7.168c2.645 0 4.8-.8746 6.464-2.624 1.706-1.792 2.56-4.0746 2.56-6.848 0-2.7733-.854-5.0346-2.56-6.784-1.664-1.792-3.819-2.688-6.464-2.688-2.603 0-4.758.8747-6.464 2.624-1.707 1.7494-2.56 4.0107-2.56 6.784 0 2.7734.853 5.056 2.56 6.848 1.706 1.792 3.861 2.688 6.464 2.688zm27.846-30.272c-1.494 0-2.731-.44796-3.712-1.34396-.939-.896-1.408-2.02667-1.408-3.392s.469-2.47467 1.408-3.328c.981-.896 2.218-1.344001 3.712-1.344001 1.493 0 2.709.448001 3.648 1.344001.981.85333 1.472 1.96267 1.472 3.328s-.491 2.496-1.472 3.392c-.939.896-2.155 1.34396-3.648 1.34396zm-4.096 36.672v-31.744h8.192v31.744zm14.742 0v-31.744h7.232l.64 5.376c.981-1.8773 2.389-3.3706 4.224-4.48 1.877-1.1093 4.075-1.664 6.592-1.664 3.925 0 6.976 1.2374 9.152 3.712 2.176 2.4747 3.264 6.1014 3.264 10.88v17.92h-8.192v-17.152c0-2.7306-.555-4.8213-1.664-6.272-1.109-1.4506-2.837-2.176-5.184-2.176-2.304 0-4.203.8107-5.696 2.432-1.451 1.6214-2.176 3.8827-2.176 6.784v16.384zm50.378-9.472c-1.536 0-2.966-.1706-4.288-.512l-2.368 2.368c.725.384 1.706.704 2.944.96 1.237.256 3.242.512 6.016.768 4.224.384 7.296 1.3867 9.216 3.008 1.92 1.6214 2.879 3.8614 2.879 6.72 0 1.8774-.511 3.648-1.535 5.312-1.024 1.7067-2.603 3.072-4.736 4.096-2.134 1.0667-4.864 1.6-8.192 1.6-4.523 0-8.171-.8533-10.944-2.56-2.774-1.664-4.16-4.1813-4.16-7.552 0-2.8586 1.386-5.3333 4.16-7.424-.854-.384-1.6-.7893-2.24-1.216-.598-.4266-1.131-.8746-1.6-1.344v-1.472l5.568-5.888c-2.475-2.176-3.712-4.9706-3.712-8.384 0-2.1333.512-4.0746 1.536-5.824 1.066-1.7493 2.56-3.136 4.48-4.16s4.245-1.536 6.976-1.536c1.792 0 3.456.256 4.992.768h12.032v4.992l-5.44.384c.853 1.6214 1.28 3.4134 1.28 5.376 0 2.1334-.512 4.0747-1.536 5.824-1.024 1.7494-2.518 3.136-4.48 4.16-1.92 1.024-4.203 1.536-6.848 1.536zm0-6.272c1.664 0 3.029-.448 4.096-1.344 1.109-.896 1.664-2.176 1.664-3.84s-.555-2.944-1.664-3.84c-1.067-.896-2.432-1.344-4.096-1.344-1.75 0-3.158.448-4.224 1.344-1.067.896-1.6 2.176-1.6 3.84s.533 2.944 1.6 3.84c1.066.896 2.474 1.344 4.224 1.344zm-7.68 19.648c0 1.5787.725 2.752 2.176 3.52 1.493.8107 3.306 1.216 5.44 1.216 2.048 0 3.712-.4266 4.992-1.28 1.28-.8106 1.92-1.92 1.92-3.328 0-1.152-.427-2.112-1.28-2.88-.811-.768-2.454-1.2373-4.928-1.408-1.75-.128-3.371-.32-4.864-.576-1.238.6827-2.134 1.4294-2.688 2.24-.512.8107-.768 1.6427-.768 2.496z" fill="#0284c7"/></svg>