<svg width="582" height="80" viewBox="0 0 582 80" fill="none" xmlns="http://www.w3.org/2000/svg">
<path d="M113.334 62.5677V17.9411H130.496C135.219 17.9411 138.795 19.0248 141.222 21.1924C143.649 23.36 144.862 26.0801 144.862 29.3527C144.862 32.2003 144.082 34.4741 142.522 36.1742C140.962 37.8318 139.076 38.9581 136.866 39.5531C138.6 39.8931 140.138 40.5731 141.482 41.5932C142.868 42.6132 143.952 43.8882 144.732 45.4183C145.512 46.9483 145.902 48.6059 145.902 50.391C145.902 52.686 145.317 54.7686 144.147 56.6387C143.02 58.4663 141.352 59.9113 139.141 60.9738C136.931 62.0364 134.223 62.5677 131.016 62.5677H113.334ZM120.225 37.0667H129.651C132.294 37.0667 134.309 36.4717 135.696 35.2817C137.083 34.0491 137.776 32.3703 137.776 30.2452C137.776 28.1627 137.083 26.5051 135.696 25.2726C134.353 24.04 132.294 23.4238 129.521 23.4238H120.225V37.0667ZM120.225 57.0212H130.106C132.879 57.0212 135.024 56.3837 136.541 55.1086C138.101 53.8336 138.881 52.0485 138.881 49.7534C138.881 47.4584 138.08 45.652 136.476 44.3345C134.873 42.9745 132.706 42.2944 129.976 42.2944H120.225V57.0212Z" fill="#98A6BA"/>
<path d="M165.026 63.3327C161.949 63.3327 159.176 62.6527 156.705 61.2926C154.278 59.8901 152.35 57.9562 150.92 55.4911C149.49 52.9836 148.775 50.0722 148.775 46.7571C148.775 43.442 149.49 40.5519 150.92 38.0868C152.393 35.5792 154.365 33.6454 156.835 32.2853C159.306 30.8828 162.058 30.1815 165.091 30.1815C168.168 30.1815 170.92 30.8828 173.347 32.2853C175.817 33.6454 177.767 35.5792 179.197 38.0868C180.671 40.5519 181.408 43.442 181.408 46.7571C181.408 50.0722 180.671 52.9836 179.197 55.4911C177.767 57.9562 175.817 59.8901 173.347 61.2926C170.877 62.6527 168.103 63.3327 165.026 63.3327ZM165.026 57.5312C166.673 57.5312 168.19 57.1275 169.577 56.3199C171.007 55.5124 172.155 54.3224 173.022 52.7498C173.889 51.1347 174.322 49.1372 174.322 46.7571C174.322 44.377 173.889 42.4007 173.022 40.8281C172.198 39.2131 171.072 38.0018 169.642 37.1942C168.255 36.3867 166.738 35.983 165.091 35.983C163.444 35.983 161.906 36.3867 160.476 37.1942C159.089 38.0018 157.962 39.2131 157.095 40.8281C156.229 42.4007 155.795 44.377 155.795 46.7571C155.795 49.1372 156.229 51.1347 157.095 52.7498C157.962 54.3224 159.089 55.5124 160.476 56.3199C161.862 57.1275 163.379 57.5312 165.026 57.5312Z" fill="#98A6BA"/>
<path d="M185.609 62.5677V16.666H192.5V36.0467C193.583 34.2191 195.078 32.7953 196.985 31.7753C198.936 30.7128 201.081 30.1815 203.421 30.1815C207.278 30.1815 210.312 31.3715 212.522 33.7516C214.732 36.1317 215.837 39.6806 215.837 44.3983V62.5677H209.011V45.0995C209.011 38.9793 206.52 35.9192 201.536 35.9192C198.936 35.9192 196.769 36.8117 195.035 38.5968C193.345 40.3819 192.5 42.932 192.5 46.2471V62.5677H185.609Z" fill="#98A6BA"/>
<path d="M235.784 63.3327C232.62 63.3327 229.803 62.6527 227.333 61.2926C224.906 59.8901 222.999 57.9562 221.613 55.4911C220.226 53.0261 219.532 50.1572 219.532 46.8846C219.532 43.5695 220.204 40.6581 221.548 38.1505C222.934 35.6429 224.841 33.6879 227.268 32.2853C229.738 30.8828 232.599 30.1815 235.849 30.1815C239.013 30.1815 241.764 30.8828 244.105 32.2853C246.445 33.6454 248.265 35.4729 249.565 37.768C250.865 40.0631 251.515 42.5919 251.515 45.3545C251.515 45.7796 251.494 46.2471 251.45 46.7571C251.45 47.2246 251.429 47.7559 251.385 48.3509H226.293C226.51 51.411 227.528 53.7486 229.348 55.3636C231.212 56.9362 233.357 57.7225 235.784 57.7225C237.734 57.7225 239.359 57.2975 240.659 56.4474C242.003 55.5549 243 54.3649 243.65 52.8773H250.54C249.674 55.8524 247.94 58.3388 245.34 60.3363C242.783 62.3339 239.598 63.3327 235.784 63.3327ZM235.784 35.7279C233.487 35.7279 231.45 36.408 229.673 37.768C227.896 39.0856 226.813 41.0831 226.423 43.7607H244.625C244.495 41.2956 243.606 39.3406 241.959 37.8955C240.313 36.4505 238.254 35.7279 235.784 35.7279Z" fill="#98A6BA"/>
<path d="M255.415 62.5677V30.9465H261.525L262.11 35.4092C263.15 33.7941 264.516 32.5191 266.206 31.584C267.939 30.649 269.933 30.1815 272.186 30.1815C277.3 30.1815 280.854 32.1578 282.847 36.1105C284.017 34.2829 285.578 32.8378 287.528 31.7753C289.521 30.7128 291.667 30.1815 293.963 30.1815C297.994 30.1815 301.157 31.3715 303.454 33.7516C305.751 36.1317 306.9 39.6806 306.9 44.3983V62.5677H300.009V45.0995C300.009 38.9793 297.625 35.9192 292.858 35.9192C290.431 35.9192 288.438 36.8117 286.878 38.5968C285.361 40.3819 284.603 42.932 284.603 46.2471V62.5677H277.712V45.0995C277.712 38.9793 275.307 35.9192 270.496 35.9192C268.113 35.9192 266.141 36.8117 264.581 38.5968C263.064 40.3819 262.305 42.932 262.305 46.2471V62.5677H255.415Z" fill="#98A6BA"/>
<path d="M315.612 24.9538C314.311 24.9538 313.228 24.5713 312.361 23.8063C311.538 22.9987 311.126 22 311.126 20.8099C311.126 19.6199 311.538 18.6423 312.361 17.8773C313.228 17.0698 314.311 16.666 315.612 16.666C316.912 16.666 317.973 17.0698 318.797 17.8773C319.664 18.6423 320.097 19.6199 320.097 20.8099C320.097 22 319.664 22.9987 318.797 23.8063C317.973 24.5713 316.912 24.9538 315.612 24.9538ZM312.166 62.5677V30.9465H319.057V62.5677H312.166Z" fill="#98A6BA"/>
<path d="M340.179 63.3327C337.016 63.3327 334.177 62.6314 331.664 61.2289C329.193 59.8263 327.243 57.8925 325.813 55.4274C324.426 52.9198 323.733 50.0297 323.733 46.7571C323.733 43.4845 324.426 40.6156 325.813 38.1505C327.243 35.6429 329.193 33.6879 331.664 32.2853C334.177 30.8828 337.016 30.1815 340.179 30.1815C344.166 30.1815 347.503 31.2015 350.19 33.2416C352.921 35.2817 354.676 38.0443 355.456 41.5294H348.24C347.807 39.7868 346.853 38.4268 345.38 37.4493C343.906 36.4717 342.173 35.983 340.179 35.983C338.489 35.983 336.929 36.408 335.499 37.258C334.069 38.0655 332.92 39.2768 332.054 40.8919C331.187 42.4644 330.753 44.4195 330.753 46.7571C330.753 49.0947 331.187 51.071 332.054 52.686C332.92 54.2586 334.069 55.4699 335.499 56.3199C336.929 57.17 338.489 57.595 340.179 57.595C342.173 57.595 343.906 57.1062 345.38 56.1287C346.853 55.1511 347.807 53.7698 348.24 51.9848H355.456C354.719 55.3849 352.986 58.1262 350.255 60.2088C347.525 62.2914 344.166 63.3327 340.179 63.3327Z" fill="#98A6BA"/>
<path d="M370.6 63.3327C367.869 63.3327 365.616 62.8864 363.839 61.9939C362.062 61.1013 360.74 59.9326 359.874 58.4875C359.007 57 358.574 55.3849 358.574 53.6423C358.574 50.5822 359.787 48.1596 362.214 46.3746C364.641 44.5895 368.108 43.697 372.615 43.697H381.066V43.1232C381.066 40.6581 380.372 38.8093 378.986 37.5768C377.642 36.3442 375.887 35.7279 373.72 35.7279C371.813 35.7279 370.145 36.1955 368.715 37.1305C367.328 38.023 366.483 39.3618 366.179 41.1469H359.289C359.505 38.8518 360.285 36.8967 361.629 35.2817C363.016 33.6241 364.749 32.3703 366.829 31.5203C368.953 30.6278 371.271 30.1815 373.785 30.1815C378.292 30.1815 381.781 31.3503 384.251 33.6879C386.721 35.983 387.956 39.1281 387.956 43.1232V62.5677H381.976L381.391 57.1487C380.481 58.8913 379.159 60.3576 377.425 61.5476C375.692 62.7377 373.417 63.3327 370.6 63.3327ZM371.965 57.85C373.828 57.85 375.388 57.425 376.645 56.5749C377.945 55.6824 378.942 54.5136 379.636 53.0686C380.372 51.6235 380.827 50.0297 381.001 48.2871H373.33C370.6 48.2871 368.65 48.7547 367.479 49.6897C366.353 50.6247 365.789 51.7935 365.789 53.1961C365.789 54.6411 366.331 55.7887 367.414 56.6387C368.541 57.4462 370.058 57.85 371.965 57.85Z" fill="#98A6BA"/>
<path d="M421.145 63.3327C417.808 63.3327 414.883 62.7589 412.369 61.6114C409.856 60.4638 407.884 58.8275 406.454 56.7024C405.067 54.5774 404.352 52.0485 404.308 49.1159H411.589C411.633 51.496 412.478 53.5148 414.124 55.1724C415.771 56.8299 418.09 57.6587 421.08 57.6587C423.724 57.6587 425.782 57.0425 427.256 55.8099C428.772 54.5349 429.531 52.9198 429.531 50.9647C429.531 49.3922 429.163 48.1171 428.426 47.1396C427.732 46.1621 426.757 45.3545 425.501 44.717C424.287 44.0795 422.879 43.5057 421.275 42.9957C419.672 42.4857 417.981 41.9332 416.205 41.3381C412.694 40.1906 410.051 38.7031 408.274 36.8755C406.54 35.0479 405.674 32.6466 405.674 29.6715C405.63 27.1639 406.215 24.9751 407.429 23.105C408.686 21.2349 410.419 19.7899 412.629 18.7698C414.883 17.7073 417.505 17.176 420.495 17.176C423.442 17.176 426.021 17.7073 428.231 18.7698C430.484 19.8324 432.239 21.3199 433.496 23.2325C434.753 25.1026 435.403 27.2914 435.446 29.799H428.166C428.166 28.6514 427.862 27.5677 427.256 26.5476C426.649 25.4851 425.761 24.6138 424.59 23.9338C423.42 23.2538 421.99 22.9137 420.3 22.9137C418.133 22.8712 416.335 23.4025 414.904 24.5075C413.518 25.6126 412.824 27.1426 412.824 29.0977C412.824 30.8403 413.344 32.1791 414.384 33.1141C415.425 34.0491 416.855 34.8354 418.675 35.4729C420.495 36.068 422.575 36.7692 424.915 37.5768C427.169 38.2993 429.184 39.1706 430.961 40.1906C432.738 41.2106 434.146 42.5494 435.186 44.207C436.27 45.8646 436.812 47.9684 436.812 50.5185C436.812 52.7711 436.227 54.8749 435.056 56.8299C433.886 58.7425 432.131 60.3151 429.791 61.5476C427.451 62.7377 424.569 63.3327 421.145 63.3327Z" fill="#98A6BA"/>
<path d="M454.356 62.5677C451.193 62.5677 448.679 61.8239 446.815 60.3363C444.952 58.8063 444.02 56.1074 444.02 52.2398V36.6205H438.495V30.9465H444.02L444.865 22.9137H450.911V30.9465H460.012V36.6205H450.911V52.2398C450.911 53.9823 451.279 55.1936 452.016 55.8737C452.796 56.5112 454.118 56.8299 455.981 56.8299H459.687V62.5677H454.356Z" fill="#98A6BA"/>
<path d="M475.763 63.3327C471.862 63.3327 468.785 62.1426 466.532 59.7626C464.321 57.3825 463.216 53.8336 463.216 49.1159V30.9465H470.107V48.4146C470.107 54.5349 472.664 57.595 477.778 57.595C480.335 57.595 482.436 56.7024 484.083 54.9174C485.73 53.1323 486.554 50.5822 486.554 47.2671V30.9465H493.444V62.5677H487.334L486.814 57.0212C485.817 58.9763 484.343 60.5276 482.393 61.6751C480.486 62.7802 478.276 63.3327 475.763 63.3327Z" fill="#98A6BA"/>
<path d="M513.651 63.3327C510.531 63.3327 507.779 62.6102 505.395 61.1651C503.012 59.7201 501.148 57.7437 499.805 55.2361C498.461 52.7286 497.789 49.8809 497.789 46.6933C497.789 43.5057 498.461 40.6794 499.805 38.2143C501.148 35.7067 503.012 33.7516 505.395 32.3491C507.822 30.904 510.596 30.1815 513.716 30.1815C516.273 30.1815 518.505 30.6703 520.412 31.6478C522.362 32.6253 523.879 34.0066 524.962 35.7917V16.666H531.853V62.5677H525.677L524.962 57.6587C523.922 59.1463 522.492 60.4638 520.672 61.6114C518.851 62.7589 516.511 63.3327 513.651 63.3327ZM514.886 57.4675C517.833 57.4675 520.238 56.4687 522.102 54.4711C524.009 52.4735 524.962 49.9022 524.962 46.7571C524.962 43.5695 524.009 40.9981 522.102 39.0431C520.238 37.0455 517.833 36.0467 514.886 36.0467C511.939 36.0467 509.512 37.0455 507.605 39.0431C505.699 40.9981 504.745 43.5695 504.745 46.7571C504.745 48.8397 505.179 50.6885 506.045 52.3035C506.912 53.9186 508.104 55.1936 509.621 56.1287C511.181 57.0212 512.936 57.4675 514.886 57.4675Z" fill="#98A6BA"/>
<path d="M541.191 24.9538C539.891 24.9538 538.807 24.5713 537.94 23.8063C537.117 22.9987 536.705 22 536.705 20.8099C536.705 19.6199 537.117 18.6423 537.94 17.8773C538.807 17.0698 539.891 16.666 541.191 16.666C542.491 16.666 543.553 17.0698 544.376 17.8773C545.243 18.6423 545.676 19.6199 545.676 20.8099C545.676 22 545.243 22.9987 544.376 23.8063C543.553 24.5713 542.491 24.9538 541.191 24.9538ZM537.745 62.5677V30.9465H544.636V62.5677H537.745Z" fill="#98A6BA"/>
<path d="M565.564 63.3327C562.487 63.3327 559.713 62.6527 557.243 61.2926C554.816 59.8901 552.887 57.9562 551.457 55.4911C550.027 52.9836 549.312 50.0722 549.312 46.7571C549.312 43.442 550.027 40.5519 551.457 38.0868C552.931 35.5792 554.903 33.6454 557.373 32.2853C559.843 30.8828 562.595 30.1815 565.629 30.1815C568.706 30.1815 571.457 30.8828 573.884 32.2853C576.355 33.6454 578.305 35.5792 579.735 38.0868C581.208 40.5519 581.945 43.442 581.945 46.7571C581.945 50.0722 581.208 52.9836 579.735 55.4911C578.305 57.9562 576.355 59.8901 573.884 61.2926C571.414 62.6527 568.641 63.3327 565.564 63.3327ZM565.564 57.5312C567.21 57.5312 568.727 57.1275 570.114 56.3199C571.544 55.5124 572.693 54.3224 573.559 52.7498C574.426 51.1347 574.859 49.1372 574.859 46.7571C574.859 44.377 574.426 42.4007 573.559 40.8281C572.736 39.2131 571.609 38.0018 570.179 37.1942C568.792 36.3867 567.275 35.983 565.629 35.983C563.982 35.983 562.443 36.3867 561.013 37.1942C559.626 38.0018 558.5 39.2131 557.633 40.8281C556.766 42.4007 556.333 44.377 556.333 46.7571C556.333 49.1372 556.766 51.1347 557.633 52.7498C558.5 54.3224 559.626 55.5124 561.013 56.3199C562.4 57.1275 563.917 57.5312 565.564 57.5312Z" fill="#98A6BA"/>
<rect width="80" height="80" fill="#98A6BA"/>
<path fill-rule="evenodd" clip-rule="evenodd" d="M13.333 55L39.9997 40L66.6663 55V40L39.9997 25L13.333 40V55Z" fill="white"/>
</svg>
