<svg width="582" height="80" viewBox="0 0 582 80" fill="none" xmlns="http://www.w3.org/2000/svg">
<path d="M113.334 62.5667V17.9401H130.496C135.219 17.9401 138.795 19.0239 141.222 21.1914C143.649 23.359 144.862 26.0791 144.862 29.3517C144.862 32.1993 144.082 34.4732 142.522 36.1732C140.962 37.8308 139.076 38.9571 136.866 39.5521C138.6 39.8921 140.138 40.5721 141.482 41.5922C142.868 42.6122 143.952 43.8873 144.732 45.4173C145.512 46.9474 145.902 48.6049 145.902 50.39C145.902 52.6851 145.317 54.7676 144.147 56.6377C143.02 58.4653 141.352 59.9103 139.141 60.9729C136.931 62.0354 134.223 62.5667 131.016 62.5667H113.334ZM120.225 37.0658H129.651C132.294 37.0658 134.309 36.4707 135.696 35.2807C137.083 34.0482 137.776 32.3693 137.776 30.2443C137.776 28.1617 137.083 26.5041 135.696 25.2716C134.353 24.0391 132.294 23.4228 129.521 23.4228H120.225V37.0658ZM120.225 57.0202H130.106C132.879 57.0202 135.024 56.3827 136.541 55.1077C138.101 53.8326 138.881 52.0475 138.881 49.7525C138.881 47.4574 138.08 45.6511 136.476 44.3335C134.873 42.9735 132.706 42.2935 129.976 42.2935H120.225V57.0202Z" fill="white"/>
<path d="M165.026 63.3317C161.949 63.3317 159.176 62.6517 156.705 61.2916C154.278 59.8891 152.35 57.9553 150.92 55.4902C149.49 52.9826 148.775 50.0712 148.775 46.7561C148.775 43.441 149.49 40.5509 150.92 38.0858C152.393 35.5782 154.365 33.6444 156.835 32.2843C159.306 30.8818 162.058 30.1805 165.091 30.1805C168.168 30.1805 170.92 30.8818 173.347 32.2843C175.817 33.6444 177.767 35.5782 179.197 38.0858C180.671 40.5509 181.408 43.441 181.408 46.7561C181.408 50.0712 180.671 52.9826 179.197 55.4902C177.767 57.9553 175.817 59.8891 173.347 61.2916C170.877 62.6517 168.103 63.3317 165.026 63.3317ZM165.026 57.5302C166.673 57.5302 168.19 57.1265 169.577 56.319C171.007 55.5114 172.155 54.3214 173.022 52.7488C173.889 51.1338 174.322 49.1362 174.322 46.7561C174.322 44.376 173.889 42.3997 173.022 40.8271C172.198 39.2121 171.072 38.0008 169.642 37.1933C168.255 36.3857 166.738 35.982 165.091 35.982C163.444 35.982 161.906 36.3857 160.476 37.1933C159.089 38.0008 157.962 39.2121 157.095 40.8271C156.229 42.3997 155.795 44.376 155.795 46.7561C155.795 49.1362 156.229 51.1338 157.095 52.7488C157.962 54.3214 159.089 55.5114 160.476 56.319C161.862 57.1265 163.379 57.5302 165.026 57.5302Z" fill="white"/>
<path d="M185.609 62.5667V16.665H192.5V36.0457C193.583 34.2182 195.078 32.7944 196.985 31.7743C198.936 30.7118 201.081 30.1805 203.421 30.1805C207.278 30.1805 210.312 31.3706 212.522 33.7506C214.732 36.1307 215.837 39.6796 215.837 44.3973V62.5667H209.011V45.0986C209.011 38.9783 206.52 35.9182 201.536 35.9182C198.936 35.9182 196.769 36.8108 195.035 38.5958C193.345 40.3809 192.5 42.931 192.5 46.2461V62.5667H185.609Z" fill="white"/>
<path d="M235.784 63.3317C232.62 63.3317 229.803 62.6517 227.333 61.2916C224.906 59.8891 222.999 57.9553 221.613 55.4902C220.226 53.0251 219.532 50.1562 219.532 46.8836C219.532 43.5685 220.204 40.6571 221.548 38.1496C222.934 35.642 224.841 33.6869 227.268 32.2843C229.738 30.8818 232.599 30.1805 235.849 30.1805C239.013 30.1805 241.764 30.8818 244.105 32.2843C246.445 33.6444 248.265 35.472 249.565 37.767C250.865 40.0621 251.515 42.591 251.515 45.3536C251.515 45.7786 251.494 46.2461 251.45 46.7561C251.45 47.2236 251.429 47.7549 251.385 48.3499H226.293C226.51 51.41 227.528 53.7476 229.348 55.3627C231.212 56.9352 233.357 57.7215 235.784 57.7215C237.734 57.7215 239.359 57.2965 240.659 56.4465C242.003 55.5539 243 54.3639 243.65 52.8763H250.54C249.674 55.8514 247.94 58.3378 245.34 60.3353C242.783 62.3329 239.598 63.3317 235.784 63.3317ZM235.784 35.727C233.487 35.727 231.45 36.407 229.673 37.767C227.896 39.0846 226.813 41.0822 226.423 43.7598H244.625C244.495 41.2947 243.606 39.3396 241.959 37.8945C240.313 36.4495 238.254 35.727 235.784 35.727Z" fill="white"/>
<path d="M255.415 62.5667V30.9455H261.525L262.11 35.4082C263.15 33.7931 264.516 32.5181 266.206 31.5831C267.939 30.648 269.933 30.1805 272.186 30.1805C277.3 30.1805 280.854 32.1568 282.847 36.1095C284.017 34.2819 285.578 32.8369 287.528 31.7743C289.521 30.7118 291.667 30.1805 293.963 30.1805C297.994 30.1805 301.157 31.3706 303.454 33.7506C305.751 36.1307 306.9 39.6796 306.9 44.3973V62.5667H300.009V45.0986C300.009 38.9783 297.625 35.9182 292.858 35.9182C290.431 35.9182 288.438 36.8108 286.878 38.5958C285.361 40.3809 284.603 42.931 284.603 46.2461V62.5667H277.712V45.0986C277.712 38.9783 275.307 35.9182 270.496 35.9182C268.113 35.9182 266.141 36.8108 264.581 38.5958C263.064 40.3809 262.305 42.931 262.305 46.2461V62.5667H255.415Z" fill="white"/>
<path d="M315.612 24.9528C314.311 24.9528 313.228 24.5703 312.361 23.8053C311.538 22.9978 311.126 21.999 311.126 20.8089C311.126 19.6189 311.538 18.6414 312.361 17.8763C313.228 17.0688 314.311 16.665 315.612 16.665C316.912 16.665 317.973 17.0688 318.797 17.8763C319.664 18.6414 320.097 19.6189 320.097 20.8089C320.097 21.999 319.664 22.9978 318.797 23.8053C317.973 24.5703 316.912 24.9528 315.612 24.9528ZM312.166 62.5667V30.9455H319.057V62.5667H312.166Z" fill="white"/>
<path d="M340.179 63.3317C337.016 63.3317 334.177 62.6304 331.664 61.2279C329.193 59.8253 327.243 57.8915 325.813 55.4264C324.426 52.9188 323.733 50.0287 323.733 46.7561C323.733 43.4835 324.426 40.6146 325.813 38.1496C327.243 35.642 329.193 33.6869 331.664 32.2843C334.177 30.8818 337.016 30.1805 340.179 30.1805C344.166 30.1805 347.503 31.2006 350.19 33.2406C352.921 35.2807 354.676 38.0433 355.456 41.5284H348.24C347.807 39.7859 346.853 38.4258 345.38 37.4483C343.906 36.4707 342.173 35.982 340.179 35.982C338.489 35.982 336.929 36.407 335.499 37.257C334.069 38.0646 332.92 39.2758 332.054 40.8909C331.187 42.4635 330.753 44.4185 330.753 46.7561C330.753 49.0937 331.187 51.07 332.054 52.6851C332.92 54.2576 334.069 55.4689 335.499 56.319C336.929 57.169 338.489 57.594 340.179 57.594C342.173 57.594 343.906 57.1052 345.38 56.1277C346.853 55.1502 347.807 53.7689 348.24 51.9838H355.456C354.719 55.3839 352.986 58.1253 350.255 60.2078C347.525 62.2904 344.166 63.3317 340.179 63.3317Z" fill="white"/>
<path d="M370.6 63.3317C367.869 63.3317 365.616 62.8854 363.839 61.9929C362.062 61.1004 360.74 59.9316 359.874 58.4865C359.007 56.999 358.574 55.3839 358.574 53.6414C358.574 50.5812 359.787 48.1587 362.214 46.3736C364.641 44.5885 368.108 43.696 372.615 43.696H381.066V43.1222C381.066 40.6571 380.372 38.8083 378.986 37.5758C377.642 36.3432 375.887 35.727 373.72 35.727C371.813 35.727 370.145 36.1945 368.715 37.1295C367.328 38.022 366.483 39.3608 366.179 41.1459H359.289C359.505 38.8508 360.285 36.8958 361.629 35.2807C363.016 33.6231 364.749 32.3693 366.829 31.5193C368.953 30.6268 371.271 30.1805 373.785 30.1805C378.292 30.1805 381.781 31.3493 384.251 33.6869C386.721 35.982 387.956 39.1271 387.956 43.1222V62.5667H381.976L381.391 57.1477C380.481 58.8903 379.159 60.3566 377.425 61.5466C375.692 62.7367 373.417 63.3317 370.6 63.3317ZM371.965 57.849C373.828 57.849 375.388 57.424 376.645 56.574C377.945 55.6814 378.942 54.5126 379.636 53.0676C380.372 51.6225 380.827 50.0287 381.001 48.2862H373.33C370.6 48.2862 368.65 48.7537 367.479 49.6887C366.353 50.6237 365.789 51.7925 365.789 53.1951C365.789 54.6401 366.331 55.7877 367.414 56.6377C368.541 57.4452 370.058 57.849 371.965 57.849Z" fill="white"/>
<path d="M421.145 63.3317C417.808 63.3317 414.883 62.7579 412.369 61.6104C409.856 60.4628 407.884 58.8265 406.454 56.7015C405.067 54.5764 404.352 52.0475 404.308 49.1149H411.589C411.633 51.495 412.478 53.5139 414.124 55.1714C415.771 56.829 418.09 57.6578 421.08 57.6578C423.724 57.6578 425.782 57.0415 427.256 55.8089C428.772 54.5339 429.531 52.9188 429.531 50.9638C429.531 49.3912 429.163 48.1162 428.426 47.1386C427.732 46.1611 426.757 45.3536 425.501 44.716C424.287 44.0785 422.879 43.5047 421.275 42.9947C419.672 42.4847 417.981 41.9322 416.205 41.3372C412.694 40.1896 410.051 38.7021 408.274 36.8745C406.54 35.0469 405.674 32.6456 405.674 29.6705C405.63 27.1629 406.215 24.9741 407.429 23.104C408.686 21.234 410.419 19.7889 412.629 18.7689C414.883 17.7063 417.505 17.1751 420.495 17.1751C423.442 17.1751 426.021 17.7063 428.231 18.7689C430.484 19.8314 432.239 21.319 433.496 23.2315C434.753 25.1016 435.403 27.2904 435.446 29.798H428.166C428.166 28.6505 427.862 27.5667 427.256 26.5466C426.649 25.4841 425.761 24.6128 424.59 23.9328C423.42 23.2528 421.99 22.9128 420.3 22.9128C418.133 22.8703 416.335 23.4015 414.904 24.5066C413.518 25.6116 412.824 27.1417 412.824 29.0967C412.824 30.8393 413.344 32.1781 414.384 33.1131C415.425 34.0482 416.855 34.8344 418.675 35.472C420.495 36.067 422.575 36.7683 424.915 37.5758C427.169 38.2983 429.184 39.1696 430.961 40.1896C432.738 41.2097 434.146 42.5485 435.186 44.206C436.27 45.8636 436.812 47.9674 436.812 50.5175C436.812 52.7701 436.227 54.8739 435.056 56.829C433.886 58.7415 432.131 60.3141 429.791 61.5466C427.451 62.7367 424.569 63.3317 421.145 63.3317Z" fill="white"/>
<path d="M454.356 62.5667C451.193 62.5667 448.679 61.8229 446.815 60.3353C444.952 58.8053 444.02 56.1064 444.02 52.2388V36.6195H438.495V30.9455H444.02L444.865 22.9128H450.911V30.9455H460.012V36.6195H450.911V52.2388C450.911 53.9814 451.279 55.1927 452.016 55.8727C452.796 56.5102 454.118 56.829 455.981 56.829H459.687V62.5667H454.356Z" fill="white"/>
<path d="M475.763 63.3317C471.862 63.3317 468.785 62.1417 466.532 59.7616C464.321 57.3815 463.216 53.8326 463.216 49.1149V30.9455H470.107V48.4137C470.107 54.5339 472.664 57.594 477.778 57.594C480.335 57.594 482.436 56.7015 484.083 54.9164C485.73 53.1313 486.554 50.5812 486.554 47.2661V30.9455H493.444V62.5667H487.334L486.814 57.0202C485.817 58.9753 484.343 60.5266 482.393 61.6741C480.486 62.7792 478.276 63.3317 475.763 63.3317Z" fill="white"/>
<path d="M513.651 63.3317C510.531 63.3317 507.779 62.6092 505.395 61.1641C503.012 59.7191 501.148 57.7428 499.805 55.2352C498.461 52.7276 497.789 49.88 497.789 46.6924C497.789 43.5047 498.461 40.6784 499.805 38.2133C501.148 35.7057 503.012 33.7506 505.395 32.3481C507.822 30.903 510.596 30.1805 513.716 30.1805C516.273 30.1805 518.505 30.6693 520.412 31.6468C522.362 32.6244 523.879 34.0057 524.962 35.7907V16.665H531.853V62.5667H525.677L524.962 57.6578C523.922 59.1453 522.492 60.4628 520.672 61.6104C518.851 62.7579 516.511 63.3317 513.651 63.3317ZM514.886 57.4665C517.833 57.4665 520.238 56.4677 522.102 54.4701C524.009 52.4726 524.962 49.9012 524.962 46.7561C524.962 43.5685 524.009 40.9972 522.102 39.0421C520.238 37.0445 517.833 36.0457 514.886 36.0457C511.939 36.0457 509.512 37.0445 507.605 39.0421C505.699 40.9972 504.745 43.5685 504.745 46.7561C504.745 48.8387 505.179 50.6875 506.045 52.3026C506.912 53.9176 508.104 55.1927 509.621 56.1277C511.181 57.0202 512.936 57.4665 514.886 57.4665Z" fill="white"/>
<path d="M541.191 24.9528C539.891 24.9528 538.807 24.5703 537.94 23.8053C537.117 22.9978 536.705 21.999 536.705 20.8089C536.705 19.6189 537.117 18.6414 537.94 17.8763C538.807 17.0688 539.891 16.665 541.191 16.665C542.491 16.665 543.553 17.0688 544.376 17.8763C545.243 18.6414 545.676 19.6189 545.676 20.8089C545.676 21.999 545.243 22.9978 544.376 23.8053C543.553 24.5703 542.491 24.9528 541.191 24.9528ZM537.745 62.5667V30.9455H544.636V62.5667H537.745Z" fill="white"/>
<path d="M565.564 63.3317C562.487 63.3317 559.713 62.6517 557.243 61.2916C554.816 59.8891 552.887 57.9553 551.457 55.4902C550.027 52.9826 549.312 50.0712 549.312 46.7561C549.312 43.441 550.027 40.5509 551.457 38.0858C552.931 35.5782 554.903 33.6444 557.373 32.2843C559.843 30.8818 562.595 30.1805 565.629 30.1805C568.706 30.1805 571.457 30.8818 573.884 32.2843C576.355 33.6444 578.305 35.5782 579.735 38.0858C581.208 40.5509 581.945 43.441 581.945 46.7561C581.945 50.0712 581.208 52.9826 579.735 55.4902C578.305 57.9553 576.355 59.8891 573.884 61.2916C571.414 62.6517 568.641 63.3317 565.564 63.3317ZM565.564 57.5302C567.21 57.5302 568.727 57.1265 570.114 56.319C571.544 55.5114 572.693 54.3214 573.559 52.7488C574.426 51.1338 574.859 49.1362 574.859 46.7561C574.859 44.376 574.426 42.3997 573.559 40.8271C572.736 39.2121 571.609 38.0008 570.179 37.1933C568.792 36.3857 567.275 35.982 565.629 35.982C563.982 35.982 562.443 36.3857 561.013 37.1933C559.626 38.0008 558.5 39.2121 557.633 40.8271C556.766 42.3997 556.333 44.376 556.333 46.7561C556.333 49.1362 556.766 51.1338 557.633 52.7488C558.5 54.3214 559.626 55.5114 561.013 56.319C562.4 57.1265 563.917 57.5302 565.564 57.5302Z" fill="white"/>
<path fill-rule="evenodd" clip-rule="evenodd" d="M80 0H0V80H80V0ZM39.9999 40L13.3333 55V40L39.9999 25L66.6666 40V55L39.9999 40Z" fill="white"/>
</svg>
