<svg width="582" height="80" viewBox="0 0 582 80" fill="none" xmlns="http://www.w3.org/2000/svg">
<path d="M113.334 62.5657V17.9391H130.496C135.219 17.9391 138.795 19.0229 141.222 21.1905C143.649 23.358 144.862 26.0781 144.862 29.3508C144.862 32.1984 144.082 34.4722 142.522 36.1723C140.962 37.8298 139.076 38.9561 136.866 39.5511C138.6 39.8911 140.138 40.5712 141.482 41.5912C142.868 42.6112 143.952 43.8863 144.732 45.4163C145.512 46.9464 145.902 48.6039 145.902 50.389C145.902 52.6841 145.317 54.7667 144.147 56.6367C143.02 58.4643 141.352 59.9094 139.141 60.9719C136.931 62.0344 134.223 62.5657 131.016 62.5657H113.334ZM120.225 37.0648H129.651C132.294 37.0648 134.309 36.4698 135.696 35.2797C137.083 34.0472 137.776 32.3684 137.776 30.2433C137.776 28.1607 137.083 26.5032 135.696 25.2706C134.353 24.0381 132.294 23.4218 129.521 23.4218H120.225V37.0648ZM120.225 57.0193H130.106C132.879 57.0193 135.024 56.3817 136.541 55.1067C138.101 53.8316 138.881 52.0466 138.881 49.7515C138.881 47.4564 138.08 45.6501 136.476 44.3325C134.873 42.9725 132.706 42.2925 129.976 42.2925H120.225V57.0193Z" fill="#1E429F"/>
<path d="M165.026 63.3307C161.949 63.3307 159.176 62.6507 156.705 61.2907C154.278 59.8881 152.35 57.9543 150.92 55.4892C149.49 52.9816 148.775 50.0703 148.775 46.7551C148.775 43.44 149.49 40.5499 150.92 38.0848C152.393 35.5772 154.365 33.6434 156.835 32.2834C159.306 30.8808 162.058 30.1795 165.091 30.1795C168.168 30.1795 170.92 30.8808 173.347 32.2834C175.817 33.6434 177.767 35.5772 179.197 38.0848C180.671 40.5499 181.408 43.44 181.408 46.7551C181.408 50.0703 180.671 52.9816 179.197 55.4892C177.767 57.9543 175.817 59.8881 173.347 61.2907C170.877 62.6507 168.103 63.3307 165.026 63.3307ZM165.026 57.5293C166.673 57.5293 168.19 57.1255 169.577 56.318C171.007 55.5104 172.155 54.3204 173.022 52.7478C173.889 51.1328 174.322 49.1352 174.322 46.7551C174.322 44.3751 173.889 42.3987 173.022 40.8262C172.198 39.2111 171.072 37.9998 169.642 37.1923C168.255 36.3848 166.738 35.981 165.091 35.981C163.444 35.981 161.906 36.3848 160.476 37.1923C159.089 37.9998 157.962 39.2111 157.095 40.8262C156.229 42.3987 155.795 44.3751 155.795 46.7551C155.795 49.1352 156.229 51.1328 157.095 52.7478C157.962 54.3204 159.089 55.5104 160.476 56.318C161.862 57.1255 163.379 57.5293 165.026 57.5293Z" fill="#1E429F"/>
<path d="M185.609 62.5657V16.6641H192.5V36.0448C193.583 34.2172 195.078 32.7934 196.985 31.7734C198.936 30.7108 201.081 30.1795 203.421 30.1795C207.278 30.1795 210.312 31.3696 212.522 33.7497C214.732 36.1298 215.837 39.6786 215.837 44.3963V62.5657H209.011V45.0976C209.011 38.9774 206.52 35.9172 201.536 35.9172C198.936 35.9172 196.769 36.8098 195.035 38.5948C193.345 40.3799 192.5 42.93 192.5 46.2451V62.5657H185.609Z" fill="#1E429F"/>
<path d="M235.784 63.3307C232.62 63.3307 229.803 62.6507 227.333 61.2907C224.906 59.8881 222.999 57.9543 221.613 55.4892C220.226 53.0241 219.532 50.1553 219.532 46.8826C219.532 43.5675 220.204 40.6562 221.548 38.1486C222.934 35.641 224.841 33.6859 227.268 32.2834C229.738 30.8808 232.599 30.1795 235.849 30.1795C239.013 30.1795 241.764 30.8808 244.105 32.2834C246.445 33.6434 248.265 35.471 249.565 37.7661C250.865 40.0611 251.515 42.59 251.515 45.3526C251.515 45.7776 251.494 46.2451 251.45 46.7551C251.45 47.2227 251.429 47.7539 251.385 48.3489H226.293C226.51 51.4091 227.528 53.7466 229.348 55.3617C231.212 56.9342 233.357 57.7205 235.784 57.7205C237.734 57.7205 239.359 57.2955 240.659 56.4455C242.003 55.5529 243 54.3629 243.65 52.8754H250.54C249.674 55.8505 247.94 58.3368 245.34 60.3344C242.783 62.3319 239.598 63.3307 235.784 63.3307ZM235.784 35.726C233.487 35.726 231.45 36.406 229.673 37.7661C227.896 39.0836 226.813 41.0812 226.423 43.7588H244.625C244.495 41.2937 243.606 39.3386 241.959 37.8936C240.313 36.4485 238.254 35.726 235.784 35.726Z" fill="#1E429F"/>
<path d="M255.415 62.5657V30.9446H261.525L262.11 35.4072C263.15 33.7922 264.516 32.5171 266.206 31.5821C267.939 30.6471 269.933 30.1795 272.186 30.1795C277.3 30.1795 280.854 32.1559 282.847 36.1085C284.017 34.2809 285.578 32.8359 287.528 31.7734C289.521 30.7108 291.667 30.1795 293.963 30.1795C297.994 30.1795 301.157 31.3696 303.454 33.7497C305.751 36.1298 306.9 39.6786 306.9 44.3963V62.5657H300.009V45.0976C300.009 38.9774 297.625 35.9172 292.858 35.9172C290.431 35.9172 288.438 36.8098 286.878 38.5948C285.361 40.3799 284.603 42.93 284.603 46.2451V62.5657H277.712V45.0976C277.712 38.9774 275.307 35.9172 270.496 35.9172C268.113 35.9172 266.141 36.8098 264.581 38.5948C263.064 40.3799 262.305 42.93 262.305 46.2451V62.5657H255.415Z" fill="#1E429F"/>
<path d="M315.612 24.9519C314.311 24.9519 313.228 24.5693 312.361 23.8043C311.538 22.9968 311.126 21.998 311.126 20.808C311.126 19.6179 311.538 18.6404 312.361 17.8754C313.228 17.0678 314.311 16.6641 315.612 16.6641C316.912 16.6641 317.973 17.0678 318.797 17.8754C319.664 18.6404 320.097 19.6179 320.097 20.808C320.097 21.998 319.664 22.9968 318.797 23.8043C317.973 24.5693 316.912 24.9519 315.612 24.9519ZM312.166 62.5657V30.9446H319.057V62.5657H312.166Z" fill="#1E429F"/>
<path d="M340.179 63.3307C337.016 63.3307 334.177 62.6295 331.664 61.2269C329.193 59.8244 327.243 57.8905 325.813 55.4254C324.426 52.9179 323.733 50.0278 323.733 46.7551C323.733 43.4825 324.426 40.6137 325.813 38.1486C327.243 35.641 329.193 33.6859 331.664 32.2834C334.177 30.8808 337.016 30.1795 340.179 30.1795C344.166 30.1795 347.503 31.1996 350.19 33.2397C352.921 35.2797 354.676 38.0423 355.456 41.5274H348.24C347.807 39.7849 346.853 38.4248 345.38 37.4473C343.906 36.4698 342.173 35.981 340.179 35.981C338.489 35.981 336.929 36.406 335.499 37.256C334.069 38.0636 332.92 39.2749 332.054 40.8899C331.187 42.4625 330.753 44.4176 330.753 46.7551C330.753 49.0927 331.187 51.069 332.054 52.6841C332.92 54.2567 334.069 55.4679 335.499 56.318C336.929 57.168 338.489 57.593 340.179 57.593C342.173 57.593 343.906 57.1043 345.38 56.1267C346.853 55.1492 347.807 53.7679 348.24 51.9828H355.456C354.719 55.3829 352.986 58.1243 350.255 60.2069C347.525 62.2894 344.166 63.3307 340.179 63.3307Z" fill="#1E429F"/>
<path d="M370.6 63.3307C367.869 63.3307 365.616 62.8845 363.839 61.9919C362.062 61.0994 360.74 59.9306 359.874 58.4856C359.007 56.998 358.574 55.3829 358.574 53.6404C358.574 50.5803 359.787 48.1577 362.214 46.3726C364.641 44.5876 368.108 43.695 372.615 43.695H381.066V43.1213C381.066 40.6562 380.372 38.8074 378.986 37.5748C377.642 36.3423 375.887 35.726 373.72 35.726C371.813 35.726 370.145 36.1935 368.715 37.1285C367.328 38.0211 366.483 39.3599 366.179 41.1449H359.289C359.505 38.8499 360.285 36.8948 361.629 35.2797C363.016 33.6222 364.749 32.3684 366.829 31.5183C368.953 30.6258 371.271 30.1795 373.785 30.1795C378.292 30.1795 381.781 31.3483 384.251 33.6859C386.721 35.981 387.956 39.1261 387.956 43.1213V62.5657H381.976L381.391 57.1468C380.481 58.8893 379.159 60.3556 377.425 61.5457C375.692 62.7357 373.417 63.3307 370.6 63.3307ZM371.965 57.848C373.828 57.848 375.388 57.423 376.645 56.573C377.945 55.6805 378.942 54.5117 379.636 53.0666C380.372 51.6216 380.827 50.0278 381.001 48.2852H373.33C370.6 48.2852 368.65 48.7527 367.479 49.6877C366.353 50.6228 365.789 51.7916 365.789 53.1941C365.789 54.6392 366.331 55.7867 367.414 56.6367C368.541 57.4443 370.058 57.848 371.965 57.848Z" fill="#1E429F"/>
<path d="M421.145 63.3307C417.808 63.3307 414.883 62.757 412.369 61.6094C409.856 60.4619 407.884 58.8256 406.454 56.7005C405.067 54.5754 404.352 52.0466 404.308 49.114H411.589C411.633 51.4941 412.478 53.5129 414.124 55.1704C415.771 56.828 418.09 57.6568 421.08 57.6568C423.724 57.6568 425.782 57.0405 427.256 55.808C428.772 54.5329 429.531 52.9179 429.531 50.9628C429.531 49.3902 429.163 48.1152 428.426 47.1376C427.732 46.1601 426.757 45.3526 425.501 44.7151C424.287 44.0775 422.879 43.5038 421.275 42.9938C419.672 42.4837 417.981 41.9312 416.205 41.3362C412.694 40.1887 410.051 38.7011 408.274 36.8735C406.54 35.046 405.674 32.6446 405.674 29.6695C405.63 27.1619 406.215 24.9731 407.429 23.103C408.686 21.233 410.419 19.7879 412.629 18.7679C414.883 17.7054 417.505 17.1741 420.495 17.1741C423.442 17.1741 426.021 17.7054 428.231 18.7679C430.484 19.8304 432.239 21.318 433.496 23.2305C434.753 25.1006 435.403 27.2894 435.446 29.797H428.166C428.166 28.6495 427.862 27.5657 427.256 26.5457C426.649 25.4831 425.761 24.6118 424.59 23.9318C423.42 23.2518 421.99 22.9118 420.3 22.9118C418.133 22.8693 416.335 23.4006 414.904 24.5056C413.518 25.6106 412.824 27.1407 412.824 29.0958C412.824 30.8383 413.344 32.1771 414.384 33.1121C415.425 34.0472 416.855 34.8335 418.675 35.471C420.495 36.066 422.575 36.7673 424.915 37.5748C427.169 38.2973 429.184 39.1686 430.961 40.1887C432.738 41.2087 434.146 42.5475 435.186 44.205C436.27 45.8626 436.812 47.9664 436.812 50.5165C436.812 52.7691 436.227 54.8729 435.056 56.828C433.886 58.7406 432.131 60.3131 429.791 61.5457C427.451 62.7357 424.569 63.3307 421.145 63.3307Z" fill="#1E429F"/>
<path d="M454.356 62.5657C451.193 62.5657 448.679 61.8219 446.815 60.3344C444.952 58.8043 444.02 56.1055 444.02 52.2378V36.6185H438.495V30.9446H444.02L444.865 22.9118H450.911V30.9446H460.012V36.6185H450.911V52.2378C450.911 53.9804 451.279 55.1917 452.016 55.8717C452.796 56.5092 454.118 56.828 455.981 56.828H459.687V62.5657H454.356Z" fill="#1E429F"/>
<path d="M475.763 63.3307C471.862 63.3307 468.785 62.1407 466.532 59.7606C464.321 57.3805 463.216 53.8316 463.216 49.114V30.9446H470.107V48.4127C470.107 54.5329 472.664 57.593 477.778 57.593C480.335 57.593 482.436 56.7005 484.083 54.9154C485.73 53.1304 486.554 50.5803 486.554 47.2652V30.9446H493.444V62.5657H487.334L486.814 57.0193C485.817 58.9743 484.343 60.5256 482.393 61.6732C480.486 62.7782 478.276 63.3307 475.763 63.3307Z" fill="#1E429F"/>
<path d="M513.651 63.3307C510.531 63.3307 507.779 62.6082 505.395 61.1631C503.012 59.7181 501.148 57.7418 499.805 55.2342C498.461 52.7266 497.789 49.879 497.789 46.6914C497.789 43.5038 498.461 40.6774 499.805 38.2123C501.148 35.7047 503.012 33.7497 505.395 32.3471C507.822 30.9021 510.596 30.1795 513.716 30.1795C516.273 30.1795 518.505 30.6683 520.412 31.6458C522.362 32.6234 523.879 34.0047 524.962 35.7897V16.6641H531.853V62.5657H525.677L524.962 57.6568C523.922 59.1443 522.492 60.4619 520.672 61.6094C518.851 62.757 516.511 63.3307 513.651 63.3307ZM514.886 57.4655C517.833 57.4655 520.238 56.4667 522.102 54.4692C524.009 52.4716 524.962 49.9002 524.962 46.7551C524.962 43.5675 524.009 40.9962 522.102 39.0411C520.238 37.0435 517.833 36.0448 514.886 36.0448C511.939 36.0448 509.512 37.0435 507.605 39.0411C505.699 40.9962 504.745 43.5675 504.745 46.7551C504.745 48.8377 505.179 50.6865 506.045 52.3016C506.912 53.9166 508.104 55.1917 509.621 56.1267C511.181 57.0192 512.936 57.4655 514.886 57.4655Z" fill="#1E429F"/>
<path d="M541.191 24.9519C539.891 24.9519 538.807 24.5693 537.94 23.8043C537.117 22.9968 536.705 21.998 536.705 20.808C536.705 19.6179 537.117 18.6404 537.94 17.8754C538.807 17.0678 539.891 16.6641 541.191 16.6641C542.491 16.6641 543.553 17.0678 544.376 17.8754C545.243 18.6404 545.676 19.6179 545.676 20.808C545.676 21.998 545.243 22.9968 544.376 23.8043C543.553 24.5693 542.491 24.9519 541.191 24.9519ZM537.745 62.5657V30.9446H544.636V62.5657H537.745Z" fill="#1E429F"/>
<path d="M565.564 63.3307C562.487 63.3307 559.713 62.6507 557.243 61.2907C554.816 59.8881 552.887 57.9543 551.457 55.4892C550.027 52.9816 549.312 50.0703 549.312 46.7551C549.312 43.44 550.027 40.5499 551.457 38.0848C552.931 35.5772 554.903 33.6434 557.373 32.2834C559.843 30.8808 562.595 30.1795 565.629 30.1795C568.706 30.1795 571.457 30.8808 573.884 32.2834C576.355 33.6434 578.305 35.5772 579.735 38.0848C581.208 40.5499 581.945 43.44 581.945 46.7551C581.945 50.0703 581.208 52.9816 579.735 55.4892C578.305 57.9543 576.355 59.8881 573.884 61.2907C571.414 62.6507 568.641 63.3307 565.564 63.3307ZM565.564 57.5293C567.21 57.5293 568.727 57.1255 570.114 56.318C571.544 55.5104 572.693 54.3204 573.559 52.7478C574.426 51.1328 574.859 49.1352 574.859 46.7551C574.859 44.3751 574.426 42.3987 573.559 40.8262C572.736 39.2111 571.609 37.9998 570.179 37.1923C568.792 36.3848 567.275 35.981 565.629 35.981C563.982 35.981 562.443 36.3848 561.013 37.1923C559.626 37.9998 558.5 39.2111 557.633 40.8262C556.766 42.3987 556.333 44.3751 556.333 46.7551C556.333 49.1352 556.766 51.1328 557.633 52.7478C558.5 54.3204 559.626 55.5104 561.013 56.318C562.4 57.1255 563.917 57.5293 565.564 57.5293Z" fill="#1E429F"/>
<rect width="80" height="80" fill="#76A9FA"/>
<path fill-rule="evenodd" clip-rule="evenodd" d="M13.333 55L39.9997 40L66.6663 55V40L39.9997 25L13.333 40V55Z" fill="white"/>
</svg>
