<?xml version="1.0" encoding="UTF-8" standalone="no"?><!DOCTYPE svg PUBLIC "-//W3C//DTD SVG 1.1//EN" "http://www.w3.org/Graphics/SVG/1.1/DTD/svg11.dtd"><svg width="100%" height="100%" viewBox="0 0 800 800" version="1.1" xmlns="http://www.w3.org/2000/svg" xmlns:xlink="http://www.w3.org/1999/xlink" xml:space="preserve" xmlns:serif="http://www.serif.com/" style="fill-rule:evenodd;clip-rule:evenodd;stroke-linejoin:round;stroke-miterlimit:1.41421;"><rect x="0" y="0" width="800" height="800" style="fill:#fffbef;"/><text x="-2.312px" y="24px" style="font-family:'RobotoMono-Medium', 'Roboto Mono';font-weight:500;font-size:32px;fill:#0d0d0d;">B<tspan x="15.867px 34.046px 52.225px 70.404px 88.583px 106.762px 124.941px 143.12px 161.3px 179.479px 197.658px 215.837px 234.016px 252.195px 270.374px 288.553px " y="24px 24px 24px 24px 24px 24px 24px 24px 24px 24px 24px 24px 24px 24px 24px 24px ">ackground colour</tspan></text><rect x="50" y="100" width="600" height="600" style="fill:#ffd75f;"/><text x="549.402px" y="217.062px" style="font-family:'RobotoMono-Medium', 'Roboto Mono';font-weight:500;font-size:24px;fill:#dfa700;">#<tspan x="563.037px 576.671px 590.305px 603.94px 617.574px 631.208px " y="217.062px 217.062px 217.062px 217.062px 217.062px 217.062px ">DFA700</tspan></text><rect x="150" y="200" width="400" height="400" style="fill:#dfa700;"/><text x="199.402px" y="442.297px" style="font-family:'RobotoMono-Medium', 'Roboto Mono';font-weight:500;font-size:24px;fill:#3f3b2f;">#<tspan x="213.037px 226.671px 240.305px 253.94px 267.574px 281.208px " y="442.297px 442.297px 442.297px 442.297px 442.297px 442.297px ">3F3B2F</tspan></text><rect x="100" y="425" width="100" height="100" style="fill:#3f3b2f;"/><rect x="100" y="275" width="100" height="100" style="fill:#6f5f2f;"/><rect x="600" y="425" width="100" height="100" style="fill:#9f9b8f;"/><rect x="600" y="275" width="100" height="100" style="fill:#cfbf8f;"/><text x="47.969px" y="124px" style="font-family:'RobotoMono-Medium', 'Roboto Mono';font-weight:500;font-size:32px;fill:#0d0d0d;">H<tspan x="66.148px 84.327px 102.506px 120.685px 138.864px 157.043px 175.223px 193.402px 211.581px 229.76px 247.939px 266.118px 284.297px 302.476px 320.656px " y="124px 124px 124px 124px 124px 124px 124px 124px 124px 124px 124px 124px 124px 124px 124px ">ighlight colour</tspan></text><text x="148.578px" y="224px" style="font-family:'RobotoMono-Medium', 'Roboto Mono';font-weight:500;font-size:32px;fill:#0d0d0d;">H<tspan x="166.757px 184.936px 203.115px 221.295px 239.474px 257.653px 275.832px 294.011px 312.19px 330.369px 348.548px 366.728px 384.907px 403.086px 421.265px 439.444px 457.623px 475.802px 493.981px " y="224px 224px 224px 224px 224px 224px 224px 224px 224px 224px 224px 224px 224px 224px 224px 224px 224px 224px 224px ">igh contrast colour</tspan></text><g transform="matrix(6.12323e-17,1,-1,6.12323e-17,458.411,-79.2438)"><text x="352.103px" y="358.083px" style="font-family:'RobotoMono-Medium', 'Roboto Mono';font-weight:500;font-size:32px;">D<tspan x="370.282px 388.461px 406.641px 424.82px 442.999px 461.178px 479.357px 497.536px 515.715px 533.894px 552.074px 570.253px 588.432px 606.611px 624.79px " y="358.083px 358.083px 358.083px 358.083px 358.083px 358.083px 358.083px 358.083px 358.083px 358.083px 358.083px 358.083px 358.083px 358.083px 358.083px ">ark text colour</tspan></text></g><g transform="matrix(6.12323e-17,1,-1,6.12323e-17,964.193,-586.119)"><text x="858.431px" y="357.536px" style="font-family:'RobotoMono-Medium', 'Roboto Mono';font-weight:500;font-size:32px;fill:#0d0d0d;">L<tspan x="876.61px 894.79px 912.969px 931.148px 949.327px 967.506px 985.685px 1003.86px 1022.04px 1040.22px 1058.4px 1076.58px 1094.76px 1112.94px 1131.12px 1149.3px " y="357.536px 357.536px 357.536px 357.536px 357.536px 357.536px 357.536px 357.536px 357.536px 357.536px 357.536px 357.536px 357.536px 357.536px 357.536px 357.536px ">ight text colour</tspan></text></g><text x="199.402px" y="292.297px" style="font-family:'RobotoMono-Medium', 'Roboto Mono';font-weight:500;font-size:24px;fill:#6f5f2f;">#<tspan x="213.037px 226.671px 240.305px 253.94px 267.574px 281.208px " y="292.297px 292.297px 292.297px 292.297px 292.297px 292.297px ">6F5F2F</tspan></text><text x="699.402px" y="292.285px" style="font-family:'RobotoMono-Medium', 'Roboto Mono';font-weight:500;font-size:24px;fill:#cfbf8f;">#<tspan x="713.037px 726.671px 740.305px 753.94px 767.574px 781.208px " y="292.285px 292.285px 292.285px 292.285px 292.285px 292.285px ">CFBF8F</tspan></text><text x="699.402px" y="442.309px" style="font-family:'RobotoMono-Medium', 'Roboto Mono';font-weight:500;font-size:24px;fill:#9f9b8f;">#<tspan x="713.037px 726.671px 740.305px 753.94px 767.574px 781.208px " y="442.309px 442.309px 442.309px 442.309px 442.309px 442.309px ">9F9B8F</tspan></text><text x="705.174px" y="17.062px" style="font-family:'RobotoMono-Medium', 'Roboto Mono';font-weight:500;font-size:24px;fill:#0d0d0d;">#<tspan x="718.809px 732.443px 746.077px 759.712px 773.346px 786.98px " y="17.062px 17.062px 17.062px 17.062px 17.062px 17.062px ">FFFBEF</tspan></text><text x="649.402px" y="117.062px" style="font-family:'RobotoMono-Medium', 'Roboto Mono';font-weight:500;font-size:24px;fill:#ffd75f;">#<tspan x="663.037px 676.671px 690.305px 703.94px 717.574px 731.208px " y="117.062px 117.062px 117.062px 117.062px 117.062px 117.062px ">FFD75F</tspan></text></svg>