<svg clip-rule="evenodd" fill-rule="evenodd" stroke-linejoin="round" stroke-miterlimit="2" viewBox="0 0 633 80" xmlns="http://www.w3.org/2000/svg"><g fill-rule="nonzero"><g fill="#1f3544" transform="matrix(.40226326468 0 0 .40226296734 -363.15304315 -21.878846958)"><path d="m1046.7 149.032c3.07-.897 5.66.033 7.33 2.158.24.732.31 1.442.27 2.107-.46 2.551-2.69 4.23-5.07 4.408-2.38.197-4.97-.933-6.04-3.379-.15-.355-.23-.695-.28-1.029-.52-1.79.59-3.338 3.79-4.265zm-10.9 6.726c.72 1.008 1.4 1.967 2.35 2.903.94.936 2.08 1.844 3.38 2.657 2.49 1.582 5.66 2.849 9.6 2.737 3.2-.077 5.69-1.251 7.73-3.188.49-.484.96-1.015 1.37-1.585.36-.577.67-1.193.94-1.839.53-1.291.87-2.701 1-4.146-.02-1.619-.29-3.278-.85-4.847-.11-.309-.25-.578-.41-.82l-.02-.05c-2.15-2.93-5.17-4.619-8.49-4.975-3.37-.367-6.88.517-10.01 2.113-2.56 1.301-4.62 2.803-5.8 4.222-.55.709-1.08 1.44-1.4 2.166-.3.726-.39 1.449-.23 2.191.01.793.27 1.602.84 2.461z"/><path d="m1024.67 198.411c-1.13-.432-2.1-1.22-2.78-2.209-1.36-1.976-1.66-4.744-.07-6.828.21-.341.45-.613.69-.85.67-.64 1.47-.892 2.42-.699.96.216 1.97.714 3.16 1.869 1.14 1.09 1.86 2.319 2.17 3.619.16.646.22 1.321.17 1.979-.07.629-.24 1.256-.49 1.863-.53.554-1.12.951-1.72 1.226-1.13.569-2.43.466-3.55.03zm4.99-14.624c-1.21-.788-2.37-1.402-3.45-1.85-1.06-.433-2.16-.847-3.09-1.019-.96-.198-1.78-.191-2.53-.061-.8.067-1.48.318-2.06.781-.59.549-1.19 1.108-1.66 1.992-1.02 2.162-1.83 4.613-1.94 7.697-.1 3.056.38 6.413 2.43 9.74 1.63 2.605 3.93 4.32 6.63 5.126 1.34.397 2.7.39 4.11.253 1.39-.158 2.82-.5 4.06-1.252 1.4-.811 2.78-1.748 3.8-3.096.2-.269.36-.542.47-.814l.03-.05c.75-1.633 1.13-3.309 1.15-4.94-.04-1.713-.43-3.368-1.1-4.901-1.34-3.072-3.86-5.659-6.85-7.606z"/><path d="m1093.15 175.6c-.48 2.207-1.22 4.427-2.59 6.293-1.86 2.536-5.18 4.924-7.85 5.577.88-1.407 1.52-3.117 1.74-4.989.26-2.241-.1-4.114-.99-5.551-.85-1.427-2.07-2.376-3.42-2.829-1.35-.455-2.84-.421-4.25.103-.7.262-1.39.647-2.03 1.161-.66.508-1.34 1.125-1.93 1.889-.88 1.13-1.52 2.344-1.96 3.614-.4 1.289-.83 2.532-.95 3.856-.29 2.62.11 5.36.88 7.618-2.48.377-4.86 1.525-7.01 3.06-1.09.76-2.08 1.659-2.92 2.707-.41.524-.79 1.086-1.13 1.686-.36.576-.7 1.175-.98 1.825-1.53 3.499-.7 6.838 1.43 8.722 2.12 1.891 5.7 2.202 9.41-.391 1.62-1.064 2.64-2.623 3.4-4.127.66 2.158.53 5.317-.27 7.609-.77 2.363-2.03 4.566-3.65 6.35-1.69 1.719-3.67 3.088-5.7 4.002-1.98.963-4.22 1.228-6.15 1.148-1.96-.111-3.73-.703-5.16-1.768-2.11-1.568-2.71-3.904-2.6-6.545.09-2.679 1.01-5.518 1.75-8.69.4-1.52.82-3.072 1.23-4.616.38-1.526.63-3.12.87-4.571.21-1.472.38-2.834.38-4.125-.03-1.321-.17-2.516-.44-3.553-.88-3.307-2.43-6.042-4.55-8.426-2.09-2.353-4.57-4.237-7.22-5.808-5.33-3.129-11.2-5.053-16.38-6.828 1.57-1.812 2.53-4 3.59-6.088 3.94 3.494 8.73 7.724 14.1 10.777 5.36 3.038 11.42 4.806 18.21 3.104 2.06-.587 4.31-1.987 6.71-3.8 2.27-1.844 4.54-4.157 6.85-6.372 2.13-2.248 4.32-4.413 6.59-5.834 2.22-1.415 4.46-2.102 6.98-1.148 3.04 1.121 5.17 4.31 6.03 8.439.2 1.026.35 2.108.36 3.205-.04 1.091-.16 2.205-.38 3.314zm-56.74 41.268c-1.08-.338-2.18-.638-3.29-.908s-2.22-.51-3.32-.725l-1.65-.312-1.68-.387c-1.9-.427-3.67-.877-5.3-1.415-1.65-.605-3.18-1.394-4.54-2.272-1.36-.908-2.55-1.893-3.6-3.219-1.04-1.336-1.91-2.872-2.61-4.674-1.54-4.024-1.76-8.115-1.55-11.899.25-3.686.82-7.46 1.45-10.434.07-.307.08-.621.07-.937.93-.427 1.92-.677 2.85-1.091.45-.242.91-.467 1.37-.678l.7-.304.65-.422c.86-.554 1.79-.997 2.56-1.696.41-.313.84-.602 1.26-.899.36-.369.74-.724 1.12-1.067.28.171.57.324.88.433 1.57.568 3.09 1.062 4.74 1.712 1.64.646 3.37 1.396 5.09 2.274 3.42 1.747 6.79 3.932 9.54 7.325 2.36 2.935 3.41 5.953 3.66 9.289.17 1.704-.06 3.283-.35 5.029-.33 1.698-.7 3.604-1.37 5.34-.74 2.086-1.42 4.323-2.05 6.52-.68 2.12-1.24 4.288-1.55 6.423v-.008c-1-.384-2.01-.684-3.08-.998zm1.13 18.565c-.73 1.658-1.98 3.161-3.56 4.545-1.59 1.328-3.48 2.643-5.65 3.269-2.15.694-4.48 1.034-6.75.884-3.11-.292-6.85-2.101-8.75-4.077 1.66.072 3.46-.195 5.19-.917 2.09-.806 3.49-2.274 4.31-3.672.82-1.432 1.03-2.951.75-4.348-.58-2.821-3.04-5.06-6.82-5.505-1.42-.226-2.8-.2-4.12.034-1.32.231-2.59.708-3.8 1.16-2.41.994-4.58 2.651-6.14 4.604-1.56-1.953-3.736-3.608-6.149-4.601-1.214-.45-2.48-.929-3.801-1.16-1.322-.234-2.695-.261-4.115-.037-3.798.443-6.247 2.686-6.821 5.511-.276 1.399-.054 2.918.765 4.35.823 1.398 2.219 2.862 4.292 3.664 1.763.736 3.597.994 5.285.907-1.536 1.646-4.315 2.961-6.736 3.57-2.454.637-4.959.43-7.335-.055-1.183-.267-2.336-.612-3.404-1.099-1.056-.526-2.045-1.139-2.943-1.816-1.795-1.358-3.224-2.957-4.121-4.675-.867-1.794-1.227-3.656-1.014-5.448.317-2.632 2.037-4.29 4.358-5.465.583-.296 1.2-.549 1.856-.801.666-.273 1.363-.527 2.081-.763 1.435-.475 2.955-.886 4.487-1.272.77-.202 1.53-.358 2.308-.582l2.323-.71c1.53-.473 3.009-.949 4.38-1.45 2.763-1.098 5.119-2.476 6.623-3.923 1.201-1.139 2.21-2.488 3.04-3.895.829-1.396 1.477-2.841 1.973-4.318.988-2.954 1.378-6.035 1.408-9.121s-.29-6.18-.74-9.142c-.45-2.999-1.056-5.68-1.575-8.447.572.158 1.177.145 1.775.155.6.021 1.2.064 1.8.13.6-.066 1.19-.109 1.79-.13.6-.01 1.21.003 1.78-.155-.52 2.767-1.12 5.448-1.57 8.447-.45 2.96-.77 6.054-.74 9.138.03 3.086.42 6.166 1.41 9.121.49 1.477 1.14 2.922 1.97 4.319.83 1.408 1.84 2.757 3.04 3.898 1.53 1.484 3.9 2.873 6.64 3.966 1.37.499 2.83.971 4.35 1.439 1.52.483 3.08.94 4.58 1.279 3.01.726 6.05 1.704 8.36 2.822 2.32 1.171 4.07 2.828 4.48 5.461.25 1.561-.02 3.241-.75 4.911zm-42.915-63.811c-.398-.155-.752-.415-1.148-.575-.394-.167-.803-.311-1.14-.597-.359-.241-.732-.456-1.123-.647-.35-.259-.668-.562-1.029-.804-.178-.126-.36-.246-.548-.361-.163-.144-.304-.317-.464-.465-.313-.306-.645-.588-.998-.853-.265-.354-.548-.686-.853-.998-.149-.161-.322-.301-.466-.465-.115-.187-.235-.37-.36-.547-.242-.362-.546-.68-.804-1.029-.192-.392-.407-.764-.647-1.124-.286-.336-.431-.746-.597-1.139-.16-.396-.42-.75-.575-1.148-.175-.841-.69-1.565-.769-2.431-.594-1.609-.53-3.375-.738-5.142.208-1.767.144-3.534.738-5.143.079-.865.594-1.59.769-2.431.155-.398.415-.751.575-1.147.166-.394.311-.803.597-1.14.24-.359.455-.732.647-1.123.258-.35.562-.668.804-1.029.125-.178.245-.36.36-.548.144-.164.317-.304.466-.464.305-.313.588-.645.853-.999.353-.264.685-.547.998-.852.16-.149.301-.321.464-.466.188-.115.37-.235.548-.361.361-.241.679-.545 1.029-.803.391-.192.764-.407 1.123-.647.337-.286.746-.431 1.14-.597.396-.16.75-.421 1.148-.575.84-.176 1.565-.69 2.43-.77 1.609-.593 3.375-.529 5.145-.737 1.77.208 3.53.144 5.14.737.87.08 1.59.594 2.43.77.4.154.75.415 1.15.575.39.166.8.311 1.14.597.36.24.73.455 1.12.647.35.258.67.562 1.03.803.18.126.36.246.55.361.16.145.3.317.46.466.32.305.65.588 1 .852.27.355.55.686.85.999.15.16.33.3.47.464.11.188.23.37.36.548.24.361.55.679.8 1.029.2.391.41.764.65 1.123.29.337.43.746.6 1.14.16.396.42.75.57 1.147.18.841.69 1.566.77 2.431.6 1.609.53 3.376.74 5.143-.21 1.767-.14 3.533-.74 5.142-.08.866-.59 1.59-.77 2.431-.15.398-.41.752-.57 1.148-.17.393-.31.803-.6 1.139-.24.36-.45.732-.65 1.124-.25.349-.56.667-.8 1.029-.13.177-.25.36-.36.547-.14.164-.32.304-.47.465-.3.312-.58.644-.85.998-.35.265-.68.547-1 .853-.16.148-.3.321-.46.465-.19.115-.37.235-.55.361-.36.242-.68.545-1.03.804-.39.191-.76.406-1.12.647-.34.286-.75.43-1.14.597-.4.16-.75.42-1.15.575-.84.175-1.56.689-2.43.769-1.61.593-3.37.529-5.14.738-1.77-.209-3.536-.145-5.145-.738-.865-.08-1.59-.594-2.43-.769zm-30.711 5.209c-2.653 1.573-5.136 3.457-7.219 5.811-2.129 2.383-3.673 5.118-4.556 8.423-.284 1.061-.428 2.271-.465 3.598.001 1.295.168 2.658.381 4.122.232 1.445.48 3.024.861 4.537.407 1.528.817 3.062 1.218 4.565.734 3.135 1.635 5.954 1.729 8.624.108 2.637-.473 4.998-2.533 6.654-2.42 1.955-6.354 2.341-10.347 1.02-3.855-1.439-7.845-4.446-9.689-8.698-.645-1.409-1.127-3.099-1.278-4.806-.121-1.736.017-3.43.412-4.771.766 1.474 1.773 2.996 3.367 4.041 3.732 2.606 7.299 2.286 9.418.389 2.121-1.891 2.947-5.234 1.427-8.72-.282-.651-.623-1.252-.987-1.828-.335-.602-.714-1.164-1.131-1.689-.833-1.048-1.821-1.948-2.915-2.708-2.154-1.534-4.536-2.679-7.011-3.054.772-2.259 1.17-5 .873-7.62-.122-1.324-.554-2.567-.948-3.855-.436-1.271-1.077-2.483-1.96-3.612-.592-.768-1.271-1.387-1.932-1.896-.639-.515-1.324-.901-2.028-1.162-1.409-.523-2.897-.552-4.249-.092-1.352.458-2.566 1.412-3.413 2.84-.89 1.438-1.256 3.307-.989 5.536.225 1.905.873 3.644 1.799 5.061-2.204-.504-4.679-2.281-6.396-4.088-.854-.919-1.663-1.91-2.245-2.992-.576-1.083-1.039-2.224-1.39-3.385-.667-2.329-1.044-4.704-.666-6.946.638-4.49 2.776-8.089 6.203-9.488 2.466-1.038 4.705-.378 6.911 1.038 2.276 1.421 4.497 3.611 6.65 5.883 2.328 2.242 4.625 4.577 6.906 6.433 2.409 1.823 4.649 3.225 6.667 3.8 6.783 1.71 12.84-.06 18.209-3.101 5.364-3.055 10.159-7.288 14.1-10.78 1.056 2.088 2.016 4.276 3.584 6.087-5.177 1.776-11.047 3.7-16.368 6.829zm-36.327-23.534c1.724-1.337 3.359-2.906 4.897-4.552.775-.822 1.501-1.667 2.244-2.513.801-.841 1.578-1.687 2.328-2.523 1.327-1.434 2.454-2.77 3.868-3.884 1.384-1.119 2.766-2.073 4.197-2.813.722-.369 1.43-.693 2.204-.943.794-.243 1.604-.429 2.436-.552 1.663-.245 3.415-.235 5.314.059 4.237.662 7.895 2.523 11.096 4.599 1.597 1.042 3.075 2.144 4.412 3.224 1.432 1.111 2.771 2.212 3.929 3.238.24.211.509.382.79.534-.192.477-.2.999-.273 1.504-.069.507-.154 1.01-.256 1.513-.089 1.028-.057 2.074-.195 3.109.138 1.034.106 2.08.195 3.108.102.503.187 1.006.256 1.513.073.505.081 1.028.273 1.504-.281.153-.55.323-.79.535-1.158 1.026-2.497 2.126-3.929 3.238-1.337 1.08-2.815 2.182-4.412 3.224-3.201 2.075-6.859 3.937-11.096 4.599-1.869.289-3.606.296-5.267.05-.83-.123-1.64-.31-2.437-.554-.777-.25-1.489-.574-2.215-.943-1.441-.742-2.836-1.696-4.228-2.814-1.419-1.113-2.553-2.447-3.872-3.872-.753-.84-1.532-1.687-2.334-2.529-.743-.847-1.471-1.692-2.245-2.515-1.539-1.645-3.175-3.211-4.899-4.544zm-16.338-22.303c.474-2.208 1.218-4.428 2.586-6.293 1.862-2.537 5.18-4.924 7.855-5.578-.888 1.407-1.521 3.118-1.74 4.99-.269 2.24.1 4.113.99 5.55.849 1.427 2.064 2.376 3.416 2.83 1.353.454 2.842.421 4.25-.103.704-.262 1.388-.648 2.027-1.162.66-.507 1.338-1.124 1.929-1.889.885-1.13 1.527-2.343 1.964-3.614.396-1.288.827-2.531.949-3.855.296-2.621-.105-5.36-.878-7.619 2.475-.376 4.856-1.525 7.01-3.059 1.094-.76 2.081-1.66 2.915-2.708.417-.524.795-1.085 1.13-1.686.365-.576.706-1.175.988-1.825 1.53-3.499.696-6.837-1.432-8.721-2.127-1.891-5.7-2.203-9.413.391-1.623 1.064-2.635 2.622-3.401 4.126-.661-2.157-.533-5.316.272-7.608.765-2.363 2.029-4.566 3.651-6.35 1.69-1.719 3.673-3.088 5.698-4.002 1.985-.963 4.217-1.228 6.148-1.148 1.96.111 3.732.703 5.167 1.767 2.107 1.569 2.703 3.905 2.597 6.546-.088 2.678-1.009 5.518-1.749 8.69-.404 1.52-.818 3.072-1.229 4.615-.385 1.526-.634 3.12-.87 4.572-.214 1.471-.386 2.834-.388 4.125.034 1.321.172 2.516.448 3.553.879 3.306 2.422 6.041 4.55 8.425 2.083 2.354 4.567 4.237 7.221 5.809 5.324 3.129 11.197 5.052 16.372 6.828-1.568 1.811-2.527 3.999-3.584 6.087-3.941-3.494-8.735-7.723-14.099-10.776-5.368-3.038-11.426-4.806-18.21-3.105-2.067.588-4.318 1.988-6.716 3.8-2.272 1.845-4.535 4.158-6.845 6.373-2.128 2.248-4.325 4.412-6.596 5.833-2.22 1.416-4.459 2.102-6.977 1.148-3.038-1.12-5.173-4.31-6.025-8.439-.204-1.026-.353-2.108-.361-3.205.032-1.09.158-2.205.38-3.313zm56.738-41.268c1.079.338 2.181.638 3.288.908s2.22.51 3.323.725l1.65.311 1.673.388c1.904.427 3.674.877 5.302 1.415 1.648.605 3.183 1.394 4.541 2.272 1.366.907 2.556 1.892 3.599 3.219 1.046 1.336 1.915 2.872 2.61 4.673 1.546 4.024 1.759 8.115 1.551 11.899-.251 3.687-.822 7.461-1.448 10.434-.066.307-.081.622-.074.937-.928.427-1.916.677-2.846 1.091-.451.242-.907.467-1.371.678l-.704.304-.643.422c-.861.554-1.795.998-2.565 1.696-.408.313-.834.603-1.256.899-.364.37-.738.725-1.124 1.068-.278-.171-.568-.324-.881-.433-1.562-.569-3.083-1.062-4.733-1.713-1.645-.645-3.37-1.395-5.095-2.274-3.419-1.746-6.787-3.931-9.539-7.324-2.357-2.936-3.408-5.954-3.661-9.289-.165-1.704.066-3.283.352-5.03.331-1.697.697-3.603 1.365-5.34.741-2.086 1.428-4.322 2.054-6.519.677-2.12 1.237-4.288 1.547-6.423l.005.009c.997.383 2.013.683 3.08.997zm-1.133-18.565c.729-1.658 1.981-3.161 3.558-4.545 1.594-1.328 3.484-2.642 5.655-3.269 2.149-.693 4.474-1.034 6.751-.884 3.109.291 6.849 2.101 8.747 4.077-1.662-.073-3.462.194-5.194.917-2.084.805-3.482 2.274-4.303 3.672-.818 1.432-1.035 2.95-.754 4.347.583 2.822 3.04 5.061 6.821 5.506 1.423.226 2.798.2 4.119-.034 1.322-.231 2.589-.709 3.802-1.16 2.413-.994 4.584-2.651 6.144-4.605 1.56 1.954 3.73 3.608 6.15 4.602 1.21.451 2.47.929 3.8 1.16 1.32.234 2.69.261 4.11.037 3.8-.443 6.25-2.686 6.82-5.511.28-1.399.06-2.918-.76-4.35-.83-1.398-2.22-2.863-4.3-3.664-1.76-.736-3.59-.994-5.28-.907 1.54-1.646 4.31-2.961 6.74-3.571 2.45-.636 4.95-.429 7.33.056 1.18.267 2.34.612 3.4 1.098 1.06.527 2.05 1.14 2.95 1.817 1.79 1.358 3.22 2.957 4.12 4.675.87 1.794 1.23 3.656 1.01 5.447-.31 2.632-2.03 4.291-4.36 5.466-.58.296-1.2.548-1.85.8-.67.274-1.36.527-2.08.765-1.44.474-2.96.885-4.49 1.271-.77.201-1.53.358-2.31.582l-2.32.71c-1.53.473-3.01.949-4.38 1.449-2.76 1.099-5.12 2.476-6.62 3.924-1.2 1.139-2.21 2.488-3.04 3.895-.83 1.396-1.48 2.841-1.98 4.318-.99 2.954-1.38 6.035-1.41 9.121-.02 3.085.3 6.18.75 9.141.45 2.999 1.05 5.681 1.57 8.447-.57-.157-1.18-.145-1.78-.155-.6-.02-1.19-.064-1.79-.129-.6.065-1.2.109-1.8.129-.598.01-1.202-.002-1.775.155.52-2.767 1.125-5.448 1.575-8.446.45-2.961.77-6.054.74-9.139s-.42-6.166-1.413-9.12c-.496-1.477-1.143-2.923-1.971-4.319-.829-1.408-1.837-2.757-3.037-3.898-1.538-1.484-3.9-2.873-6.647-3.965-1.363-.5-2.83-.972-4.345-1.44-1.52-.483-3.08-.941-4.583-1.28-3.013-.725-6.052-1.704-8.358-2.821-2.319-1.171-4.068-2.828-4.483-5.461-.243-1.56.025-3.241.751-4.911zm73.626 58.601c2.65-1.572 5.14-3.456 7.22-5.81 2.13-2.384 3.67-5.118 4.56-8.423.28-1.062.42-2.272.46-3.598 0-1.296-.17-2.659-.38-4.123-.23-1.444-.48-3.024-.86-4.536-.41-1.528-.82-3.062-1.22-4.565-.73-3.136-1.63-5.954-1.73-8.624-.11-2.637.48-4.998 2.54-6.654 2.42-1.955 6.35-2.341 10.34-1.02 3.86 1.439 7.85 4.446 9.69 8.698.65 1.409 1.13 3.099 1.28 4.806.12 1.737-.02 3.43-.41 4.771-.77-1.474-1.78-2.996-3.37-4.041-3.73-2.606-7.3-2.286-9.42-.389-2.12 1.891-2.94 5.234-1.42 8.719.28.652.62 1.252.98 1.829.34.602.72 1.164 1.13 1.688.84 1.049 1.82 1.948 2.92 2.708 2.15 1.534 4.53 2.679 7.01 3.054-.77 2.26-1.17 5-.87 7.62.12 1.325.55 2.568.95 3.855.43 1.271 1.07 2.484 1.95 3.612.6.768 1.28 1.388 1.94 1.897.64.515 1.32.9 2.02 1.162 1.41.523 2.9.551 4.25.092 1.36-.459 2.57-1.412 3.42-2.841.89-1.438 1.25-3.307.99-5.536-.23-1.905-.88-3.644-1.8-5.061 2.2.504 4.68 2.281 6.39 4.088.86.92 1.67 1.91 2.25 2.992.57 1.084 1.04 2.225 1.39 3.386.67 2.328 1.04 4.703.66 6.946-.63 4.489-2.77 8.089-6.2 9.487-2.47 1.038-4.7.378-6.91-1.038-2.28-1.421-4.5-3.611-6.65-5.883-2.33-2.241-4.63-4.577-6.91-6.432-2.41-1.823-4.64-3.225-6.66-3.801-6.79-1.709-12.84.06-18.21 3.101-5.37 3.055-10.16 7.288-14.1 10.78-1.06-2.087-2.02-4.275-3.59-6.087 5.18-1.776 11.05-3.699 16.37-6.829zm-11.11 28.156c.07-.507.15-1.01.25-1.513.09-1.028.06-2.074.2-3.108-.14-1.035-.11-2.081-.2-3.109-.1-.503-.18-1.006-.25-1.513-.08-.505-.08-1.027-.28-1.504.28-.152.55-.323.79-.534 1.16-1.026 2.5-2.127 3.93-3.238 1.34-1.08 2.82-2.182 4.41-3.224 3.21-2.076 6.86-3.937 11.1-4.599 1.87-.29 3.61-.297 5.27-.05.83.123 1.64.309 2.43.553.78.25 1.49.574 2.22.943 1.44.742 2.84 1.696 4.23 2.814 1.42 1.113 2.55 2.447 3.87 3.873.75.839 1.53 1.687 2.33 2.529.75.847 1.47 1.692 2.25 2.514 1.54 1.645 3.17 3.212 4.9 4.545h-.01c-1.73 1.337-3.36 2.906-4.9 4.551-.77.823-1.5 1.668-2.24 2.513-.8.842-1.58 1.687-2.33 2.524-1.33 1.433-2.45 2.769-3.87 3.883-1.38 1.12-2.76 2.073-4.2 2.814-.72.369-1.43.692-2.2.942-.79.244-1.6.429-2.43.552-1.67.245-3.42.236-5.32-.058-4.24-.662-7.89-2.524-11.1-4.599-1.59-1.043-3.07-2.144-4.41-3.224-1.43-1.112-2.77-2.212-3.93-3.238-.24-.212-.51-.382-.79-.535.2-.476.2-.998.28-1.504zm71.64 6.796c-1.13-4.857-3.63-8.753-6.56-11.417h.02c2.93-2.665 5.42-6.579 6.54-11.445.5-2.428.71-5.092.58-7.902-.17-2.8-.91-5.717-1.92-8.684-.8-2.536-2.22-4.802-3.63-6.875-1.45-2.062-3.03-3.883-4.89-5.31-3.62-2.906-7.4-4.594-11.06-4.779.77-1.602 1.3-3.449 1.56-5.484.13-1.017.19-2.079.19-3.178-.05-1.071-.18-2.169-.38-3.294-.4-2.246-1.09-4.598-2.09-6.911-1.1-2.234-2.49-4.452-4.16-6.526-4.05-4.798-8.88-8.002-13.68-9.403-4.7-1.57-9.39-1.294-13.21-.049l-8.83 15.272c.31 2.136.87 4.305 1.55 6.424.63 2.197 1.32 4.43 2.05 6.509.68 1.747 1.05 3.652 1.38 5.341.29 1.74.53 3.309.37 5.004-.25 3.318-1.3 6.33-3.69 9.314-2.75 3.393-6.12 5.578-9.54 7.324-1.72.879-3.45 1.629-5.09 2.274-1.65.651-3.17 1.144-4.74 1.713-.31.109-.6.262-.88.433-.38-.343-.76-.698-1.12-1.068-.42-.296-.85-.585-1.26-.899-.77-.698-1.7-1.142-2.56-1.696l-.65-.422-.7-.304c-.46-.211-.92-.436-1.37-.678-.93-.414-1.92-.664-2.85-1.091.01-.315 0-.63-.07-.937-.63-2.973-1.2-6.747-1.45-10.434-.21-3.784.01-7.875 1.55-11.899.69-1.773 1.55-3.295 2.6-4.627 1.04-1.325 2.23-2.313 3.6-3.23 1.37-.885 2.91-1.686 4.56-2.297 1.63-.546 3.4-1 5.29-1.425l1.68-.389 1.65-.312c1.11-.215 2.22-.456 3.33-.726s2.21-.571 3.29-.91c1.06-.314 2.08-.616 3.07-1.001l8.84-15.279c-.72-4.109-3.04-7.935-6.65-11.473-3.71-3.275-8.84-6.125-15.07-7.092-1.31-.233-2.62-.389-3.91-.473-1.3-.031-2.59.048-3.85.172-2.51.267-4.88.761-7.02 1.54-4.3 1.738-7.65 4.287-9.63 7.184-1.98-2.897-5.328-5.443-9.628-7.179-2.142-.779-4.516-1.272-7.025-1.539-1.254-.125-2.544-.204-3.844-.175-1.293.083-2.604.239-3.918.47-6.269.966-11.393 3.826-15.087 7.108-3.603 3.541-5.905 7.368-6.625 11.473l-.009-.016c-3.819-1.249-8.518-1.506-13.22.077-4.805 1.414-9.622 4.626-13.662 9.39-1.663 2.072-3.061 4.288-4.158 6.521-1.005 2.313-1.692 4.665-2.093 6.911-.198 1.126-.327 2.224-.373 3.295-.006 1.099.058 2.162.189 3.179.261 2.036.793 3.884 1.563 5.485-3.661.186-7.445 1.874-11.061 4.78-1.853 1.428-3.436 3.249-4.884 5.312-1.412 2.072-2.833 4.338-3.644 6.875-1.016 2.983-1.756 5.909-1.923 8.714-.128 2.813.087 5.475.588 7.899 1.134 4.858 3.632 8.754 6.559 11.418h-.018c-2.93 2.664-5.42 6.578-6.542 11.445-.496 2.428-.706 5.091-.577 7.901.171 2.8.906 5.718 1.913 8.684.808 2.537 2.226 4.803 3.637 6.875 1.448 2.063 3.031 3.884 4.885 5.311 3.618 2.906 7.405 4.593 11.065 4.779-.77 1.601-1.301 3.449-1.562 5.483-.13 1.017-.194 2.08-.187 3.179.046 1.071.176 2.169.374 3.294.402 2.246 1.089 4.598 2.094 6.911 1.096 2.234 2.494 4.451 4.155 6.527 4.058 4.797 8.884 8.001 13.685 9.402 4.701 1.57 9.39 1.294 13.206.048l8.834-15.27c-.314-2.137-.876-4.306-1.554-6.425-.627-2.197-1.314-4.43-2.052-6.51-.672-1.746-1.041-3.651-1.377-5.341-.291-1.74-.527-3.309-.367-5.004.245-3.317 1.294-6.33 3.688-9.313 2.752-3.393 6.12-5.578 9.539-7.325 1.725-.878 3.45-1.628 5.095-2.274 1.65-.65 3.171-1.144 4.733-1.712.313-.109.603-.263.881-.433.386.343.759.698 1.123 1.067.423.297.849.586 1.257.899.77.699 1.704 1.142 2.565 1.696l.643.422.704.304c.464.211.92.436 1.371.678.93.414 1.918.664 2.846 1.091-.007.315.008.63.074.937.626 2.974 1.197 6.748 1.448 10.434.208 3.784-.005 7.875-1.551 11.899-.684 1.773-1.548 3.296-2.593 4.628-1.043 1.324-2.237 2.313-3.608 3.23-1.363.885-2.906 1.686-4.557 2.297-1.631.545-3.401 1-5.294 1.425l-1.678.388-1.652.312c-1.105.216-2.218.456-3.326.727-1.107.27-2.208.571-3.287.91-1.065.315-2.081.616-3.076 1.001l-8.838 15.278c.717 4.11 3.041 7.936 6.656 11.473 3.708 3.277 8.834 6.126 15.065 7.093 1.313.232 2.624.389 3.915.473 1.3.031 2.59-.048 3.843-.173 2.509-.266 4.883-.76 7.025-1.539 4.3-1.738 7.642-4.287 9.632-7.184 1.98 2.897 5.32 5.443 9.62 7.179 2.15.779 4.52 1.272 7.03 1.539 1.25.124 2.54.204 3.84.175 1.3-.084 2.61-.239 3.92-.47 6.27-.966 11.39-3.826 15.09-7.107 3.6-3.542 5.9-7.369 6.62-11.475l.01.016c3.82 1.25 8.52 1.507 13.22-.077 4.81-1.413 9.62-4.626 13.66-9.389 1.67-2.072 3.06-4.288 4.16-6.522 1.01-2.312 1.69-4.664 2.09-6.91.2-1.126.33-2.224.38-3.295 0-1.099-.06-2.163-.19-3.18-.26-2.035-.79-3.884-1.56-5.485 3.66-.185 7.44-1.873 11.06-4.78 1.85-1.427 3.43-3.248 4.88-5.311 1.41-2.073 2.83-4.339 3.64-6.875 1.02-2.983 1.76-5.909 1.93-8.714.13-2.814-.09-5.476-.59-7.9z"/><path d="m974.903 191.816c1.073-2.228 3.189-3.663 5.929-3.524.39.032.731.118 1.049.232.837.351 1.489.856 1.824 1.714.327.869.343 2.099-.059 3.699-.752 3.091-2.862 4.905-5.56 5.346-.78-.105-1.377-.494-1.907-.902-.998-.794-1.609-1.884-1.822-3.028-.218-1.144.037-2.458.546-3.537zm-2.665 13.378c1.317.962 2.95 1.443 4.598 1.72.327.052.633.058.924.035l.056.002c1.736-.05 3.432-.693 4.874-1.537 1.449-.853 2.674-1.977 3.656-3.303.98-1.314 1.729-2.866 2.25-4.526.516-1.645.802-3.387.915-5.205.168-2.926-.131-5.366-.777-7.074-.291-.943-.663-1.737-1.146-2.327-.486-.584-1.085-.972-1.723-1.341-.704-.352-1.566-.465-2.594-.394-2.235-.038-5.022.798-7.619 2.074-2.643 1.379-5.355 3.519-7.194 6.947-1.444 2.709-1.92 5.738-1.138 8.316.361 1.317.966 2.594 1.767 3.772.87 1.075 1.945 2.038 3.151 2.841z"/><path d="m955.17 148.888c2.375-.197 4.963.933 6.035 3.379.152.355.234.696.28 1.03.52 1.789-.594 3.338-3.787 4.265-3.071.897-5.659-.034-7.33-2.159-.242-.732-.314-1.442-.27-2.106.462-2.552 2.69-4.231 5.072-4.409zm-11.685 10.075.025.05c2.144 2.93 5.166 4.62 8.481 4.976 3.377.367 6.88-.518 10.014-2.113 2.558-1.302 4.618-2.803 5.801-4.223.552-.708 1.085-1.439 1.396-2.166.303-.725.389-1.449.238-2.19-.013-.794-.279-1.602-.844-2.462-.722-1.008-1.402-1.966-2.345-2.903-.941-.936-2.082-1.844-3.387-2.657-2.484-1.582-5.657-2.848-9.595-2.737-3.207.078-5.694 1.252-7.728 3.189-.5.484-.961 1.015-1.38 1.585-.359.576-.668 1.193-.933 1.838-.529 1.291-.869 2.702-1.001 4.147.017 1.618.284 3.278.847 4.846.111.31.252.579.411.82z"/><path d="m979.728 108.183c1.125.431 2.093 1.22 2.778 2.208 1.362 1.976 1.663 4.744.068 6.828-.211.341-.446.613-.693.85-.667.641-1.469.892-2.418.7-.962-.216-1.97-.715-3.162-1.87-1.133-1.089-1.857-2.319-2.168-3.618-.154-.647-.214-1.322-.164-1.979.067-.63.234-1.256.488-1.863.524-.554 1.115-.951 1.722-1.226 1.13-.57 2.426-.466 3.549-.03zm-4.996 14.623c1.209.788 2.374 1.402 3.452 1.851 1.067.433 2.164.846 3.095 1.018.952.198 1.773.191 2.527.061.795-.066 1.479-.317 2.059-.781.593-.548 1.19-1.107 1.657-1.991 1.028-2.163 1.835-4.614 1.945-7.698.094-3.055-.384-6.412-2.436-9.74-1.623-2.604-3.928-4.32-6.628-5.126-1.342-.396-2.697-.389-4.103-.253-1.397.159-2.825.501-4.062 1.252-1.4.811-2.785 1.748-3.807 3.097-.2.268-.351.541-.47.814l-.029.049c-.745 1.633-1.124 3.31-1.148 4.94.043 1.713.429 3.368 1.102 4.901 1.34 3.072 3.855 5.659 6.846 7.606z"/><path d="m1029.49 114.777c-1.07 2.229-3.19 3.664-5.93 3.525-.39-.032-.73-.119-1.05-.233-.83-.35-1.48-.855-1.82-1.713-.33-.869-.34-2.099.06-3.7.75-3.091 2.86-4.905 5.56-5.346.78.105 1.38.494 1.91.903.99.794 1.61 1.883 1.82 3.027.22 1.144-.04 2.459-.55 3.537zm2.67-13.378c-1.32-.962-2.95-1.441-4.6-1.719-.33-.052-.63-.058-.92-.035l-.06-.002c-1.74.05-3.43.693-4.87 1.537-1.45.852-2.68 1.977-3.66 3.302-.98 1.315-1.73 2.866-2.25 4.526-.52 1.645-.8 3.387-.91 5.206-.17 2.925.13 5.366.77 7.073.29.943.66 1.737 1.15 2.327.48.585 1.08.973 1.72 1.341.7.352 1.57.466 2.59.395 2.24.037 5.03-.798 7.62-2.075 2.65-1.379 5.36-3.518 7.2-6.947 1.44-2.709 1.92-5.738 1.14-8.315-.37-1.318-.97-2.594-1.77-3.773-.87-1.075-1.95-2.037-3.15-2.841z"/></g><g fill="#f25a45"><path d="m.085 0h.532v-.107h-.411v-.199h.341v-.107h-.341v-.18h.401v-.107h-.522zm-.105.255h.697v-.096h-.697z" transform="matrix(71.99993129809 0 0 72.00002735102 113.43129713167 55.80594500515)"/><path d="m.14 0 .119-.165.118.165h.13l-.182-.255.177-.245h-.127l-.114.157-.113-.157h-.13l.178.248-.183.252zm-.16.159v.096h.561v-.096z" transform="matrix(71.99993129809 0 0 72.00002735102 160.7372982287 55.80594500515)"/><path d="m.414.255h.114v-.755h-.114v.067c-.024-.039-.085-.077-.154-.077-.133 0-.218.112-.218.26s.088.26.223.26c.067 0 .125-.038.149-.077zm-.135-.339c-.07 0-.123-.063-.123-.166s.053-.166.123-.166h.009c.065 0 .126.063.126.166s-.061.166-.126.166zm-.299.339h.328v-.096h-.328z" transform="matrix(71.99993129809 0 0 72.00002735102 194.86460464896 55.80594500515)"/><path d="m.066-.176c0 .11.058.186.169.186.071 0 .127-.038.152-.093v.083h.115v-.5h-.115v.274c0 .082-.052.142-.112.142h-.009c-.056 0-.085-.038-.085-.109v-.307h-.115zm-.086.431h.613v-.096h-.613z" transform="matrix(71.99993129809 0 0 72.00002735102 237.99180496747 55.80594500515)"/><path d="m.065-.576h.125v-.124h-.125zm.005.576h.116v-.5h-.116zm-.09.255h.296v-.096h-.296z" transform="matrix(71.99993129809 0 0 72.00002735102 279.24933648712 55.80594500515)"/><path d="m.034-.161c.002.104.079.171.212.171.124 0 .201-.065.201-.152 0-.081-.048-.127-.139-.148l-.072-.017c-.045-.009-.067-.028-.067-.056 0-.032.031-.055.075-.055h.008c.051 0 .08.03.085.079h.115c0-.104-.073-.171-.202-.171-.114 0-.196.061-.196.154 0 .08.052.125.151.148l.069.015c.041.008.058.027.058.056 0 .033-.032.055-.077.055h-.009c-.055 0-.092-.03-.095-.079zm-.054.416h.533v-.096h-.533z" transform="matrix(71.99993129809 0 0 72.00002735102 297.68078634286 55.80594500515)"/><path d="m.065-.576h.125v-.124h-.125zm.005.576h.116v-.5h-.116zm-.09.255h.296v-.096h-.296z" transform="matrix(71.99993129809 0 0 72.00002735102 333.24869987657 55.80594500515)"/><path d="m.123-.122c0 .08.043.122.122.122h.124v-.099h-.082c-.04 0-.049-.009-.049-.049v-.257h.116v-.095h-.116v-.162h-.115v.162h-.106v.095h.106zm-.143.377h.437v-.096h-.437z" transform="matrix(71.99993129809 0 0 72.00002735102 351.68014973231 55.80594500515)"/><path d="m.042-.25c0 .164.108.26.237.26.115 0 .198-.064.218-.164h-.114c-.011.043-.048.07-.097.07h-.006c-.061 0-.12-.051-.126-.136h.344c.001-.022.001-.039.001-.051 0-.139-.083-.239-.222-.239-.137 0-.235.102-.235.26zm.115-.06c.01-.069.058-.106.114-.106h.007c.057 0 .104.037.108.106zm-.177.565h.579v-.096h-.579z" transform="matrix(71.99993129809 0 0 72.00002735102 379.54315554556 55.80594500515)"/><path d="m.085 0h.121v-.296h.326v.296h.12v-.7h-.12v.296h-.326v-.296h-.121zm-.105.255h.777v-.096h-.777z" transform="matrix(71.99993129809 0 0 72.00002735102 417.77645227652 55.80594500515)"/><path d="m.042-.25c0 .164.108.26.237.26.115 0 .198-.064.218-.164h-.114c-.011.043-.048.07-.097.07h-.006c-.061 0-.12-.051-.126-.136h.344c.001-.022.001-.039.001-.051 0-.139-.083-.239-.222-.239-.137 0-.235.102-.235.26zm.115-.06c.01-.069.058-.106.114-.106h.007c.057 0 .104.037.108.106zm-.177.565h.579v-.096h-.579z" transform="matrix(71.99993129809 0 0 72.00002735102 469.83333639929 55.80594500515)"/><path d="m.07 0h.116v-.279c0-.078.054-.137.119-.137h.009c.057 0 .088.039.088.107v.309h.115v-.327c0-.108-.061-.183-.177-.183-.068 0-.123.031-.154.082v-.072h-.116zm-.09.255h.622v-.096h-.622z" transform="matrix(71.99993129809 0 0 72.00002735102 508.92735687492 55.80594500515)"/><path d="m.07 0h.116v-.279c0-.078.054-.137.119-.137h.009c.057 0 .088.039.088.107v.309h.115v-.327c0-.108-.061-.183-.177-.183-.068 0-.123.031-.154.082v-.072h-.116zm-.09.255h.622v-.096h-.622z" transform="matrix(71.99993129809 0 0 72.00002735102 550.90519195129 55.80594500515)"/><path d="m.226-.298c-.105.008-.183.058-.183.161 0 .087.072.147.165.147.068 0 .125-.034.152-.079.001.032.003.055.006.069h.108c-.003-.023-.005-.06-.005-.11v-.216c0-.11-.079-.184-.207-.184-.118 0-.201.067-.209.161h.115c.004-.039.041-.067.092-.067h.005c.056 0 .091.037.091.093v.014zm.13.104c0 .061-.061.11-.122.11h-.007c-.041 0-.07-.025-.07-.06 0-.041.037-.064.084-.069l.115-.01zm-.372.353v.096h.571v-.096z" transform="matrix(71.99993129809 0 0 72.00002735102 592.88042665381 55.80594500515)"/></g></g></svg>