<svg width="440" height="62" viewBox="0 0 440 62" fill="none" xmlns="http://www.w3.org/2000/svg">
<path d="M0.352 47V2.2H8.544V40.6H28.384V47H0.352ZM46.354 47.768C43.6233 47.768 41.3833 47.3413 39.634 46.488C37.8847 45.592 36.5833 44.4187 35.73 42.968C34.8767 41.5173 34.45 39.9173 34.45 38.168C34.45 35.224 35.602 32.8347 37.906 31C40.21 29.1653 43.666 28.248 48.274 28.248H56.338V27.48C56.338 25.304 55.7193 23.704 54.482 22.68C53.2447 21.656 51.7087 21.144 49.874 21.144C48.21 21.144 46.7593 21.5493 45.522 22.36C44.2847 23.128 43.5167 24.28 43.218 25.816H35.218C35.4313 23.512 36.1993 21.5067 37.522 19.8C38.8873 18.0933 40.6367 16.792 42.77 15.896C44.9033 14.9573 47.2927 14.488 49.938 14.488C54.4607 14.488 58.0233 15.6187 60.626 17.88C63.2287 20.1413 64.53 23.3413 64.53 27.48V47H57.554L56.786 41.88C55.8473 43.5867 54.5247 44.9947 52.818 46.104C51.154 47.2133 48.9993 47.768 46.354 47.768ZM48.21 41.368C50.5567 41.368 52.37 40.6 53.65 39.064C54.9727 37.528 55.8047 35.6293 56.146 33.368H49.17C46.994 33.368 45.4367 33.7733 44.498 34.584C43.5593 35.352 43.09 36.312 43.09 37.464C43.09 38.7013 43.5593 39.6613 44.498 40.344C45.4367 41.0267 46.674 41.368 48.21 41.368ZM72.3475 47V15.256H79.5795L80.2195 20.632C81.2008 18.7547 82.6088 17.2613 84.4435 16.152C86.3208 15.0427 88.5182 14.488 91.0355 14.488C94.9608 14.488 98.0115 15.7253 100.188 18.2C102.363 20.6747 103.451 24.3013 103.451 29.08V47H95.2595V29.848C95.2595 27.1173 94.7048 25.0267 93.5955 23.576C92.4862 22.1253 90.7582 21.4 88.4115 21.4C86.1075 21.4 84.2088 22.2107 82.7155 23.832C81.2648 25.4533 80.5395 27.7147 80.5395 30.616V47H72.3475ZM125.877 47.768C122.89 47.768 120.224 47.0427 117.877 45.592C115.53 44.1413 113.674 42.1573 112.309 39.64C110.944 37.1227 110.261 34.264 110.261 31.064C110.261 27.864 110.944 25.0267 112.309 22.552C113.674 20.0347 115.53 18.072 117.877 16.664C120.224 15.2133 122.89 14.488 125.877 14.488C128.266 14.488 130.357 14.936 132.149 15.832C133.941 16.728 135.392 17.9867 136.501 19.608V0.919998H144.693V47H137.397L136.501 42.456C135.477 43.864 134.112 45.1013 132.405 46.168C130.741 47.2347 128.565 47.768 125.877 47.768ZM127.605 40.6C130.25 40.6 132.405 39.7253 134.069 37.976C135.776 36.184 136.629 33.9013 136.629 31.128C136.629 28.3547 135.776 26.0933 134.069 24.344C132.405 22.552 130.25 21.656 127.605 21.656C125.002 21.656 122.848 22.5307 121.141 24.28C119.434 26.0293 118.581 28.2907 118.581 31.064C118.581 33.8373 119.434 36.12 121.141 37.912C122.848 39.704 125.002 40.6 127.605 40.6ZM157.451 10.328C155.958 10.328 154.72 9.88 153.739 8.984C152.8 8.088 152.331 6.95733 152.331 5.592C152.331 4.22667 152.8 3.11733 153.739 2.264C154.72 1.368 155.958 0.919998 157.451 0.919998C158.944 0.919998 160.16 1.368 161.099 2.264C162.08 3.11733 162.571 4.22667 162.571 5.592C162.571 6.95733 162.08 8.088 161.099 8.984C160.16 9.88 158.944 10.328 157.451 10.328ZM153.355 47V15.256H161.547V47H153.355ZM170.098 47V15.256H177.33L177.97 20.632C178.951 18.7547 180.359 17.2613 182.194 16.152C184.071 15.0427 186.268 14.488 188.786 14.488C192.711 14.488 195.762 15.7253 197.938 18.2C200.113 20.6747 201.201 24.3013 201.201 29.08V47H193.01V29.848C193.01 27.1173 192.455 25.0267 191.346 23.576C190.236 22.1253 188.508 21.4 186.162 21.4C183.858 21.4 181.959 22.2107 180.466 23.832C179.015 25.4533 178.29 27.7147 178.29 30.616V47H170.098ZM222.475 37.528C220.939 37.528 219.51 37.3573 218.187 37.016L215.819 39.384C216.544 39.768 217.526 40.088 218.763 40.344C220 40.6 222.006 40.856 224.779 41.112C229.003 41.496 232.075 42.4987 233.995 44.12C235.915 45.7413 236.875 47.9813 236.875 50.84C236.875 52.7173 236.363 54.488 235.339 56.152C234.315 57.8587 232.736 59.224 230.603 60.248C228.47 61.3147 225.739 61.848 222.411 61.848C217.888 61.848 214.24 60.9947 211.467 59.288C208.694 57.624 207.307 55.1067 207.307 51.736C207.307 48.8773 208.694 46.4027 211.467 44.312C210.614 43.928 209.867 43.5227 209.227 43.096C208.63 42.6693 208.096 42.2213 207.627 41.752V40.28L213.195 34.392C210.72 32.216 209.483 29.4213 209.483 26.008C209.483 23.8747 209.995 21.9333 211.019 20.184C212.086 18.4347 213.579 17.048 215.499 16.024C217.419 15 219.744 14.488 222.475 14.488C224.267 14.488 225.931 14.744 227.467 15.256H239.499V20.248L234.059 20.632C234.912 22.2533 235.339 24.0453 235.339 26.008C235.339 28.1413 234.827 30.0827 233.803 31.832C232.779 33.5813 231.286 34.968 229.323 35.992C227.403 37.016 225.12 37.528 222.475 37.528ZM222.475 31.256C224.139 31.256 225.504 30.808 226.571 29.912C227.68 29.016 228.235 27.736 228.235 26.072C228.235 24.408 227.68 23.128 226.571 22.232C225.504 21.336 224.139 20.888 222.475 20.888C220.726 20.888 219.318 21.336 218.251 22.232C217.184 23.128 216.651 24.408 216.651 26.072C216.651 27.736 217.184 29.016 218.251 29.912C219.318 30.808 220.726 31.256 222.475 31.256ZM214.795 50.904C214.795 52.4827 215.52 53.656 216.971 54.424C218.464 55.2347 220.278 55.64 222.411 55.64C224.459 55.64 226.123 55.2133 227.403 54.36C228.683 53.5493 229.323 52.44 229.323 51.032C229.323 49.88 228.896 48.92 228.043 48.152C227.232 47.384 225.59 46.9147 223.115 46.744C221.366 46.616 219.744 46.424 218.251 46.168C217.014 46.8507 216.118 47.5973 215.563 48.408C215.051 49.2187 214.795 50.0507 214.795 50.904ZM260.723 61.08V15.256H268.019L268.915 19.8C269.939 18.392 271.283 17.1547 272.947 16.088C274.653 15.0213 276.851 14.488 279.539 14.488C282.525 14.488 285.192 15.2133 287.539 16.664C289.885 18.1147 291.741 20.0987 293.107 22.616C294.472 25.1333 295.155 27.992 295.155 31.192C295.155 34.392 294.472 37.2507 293.107 39.768C291.741 42.2427 289.885 44.2053 287.539 45.656C285.192 47.064 282.525 47.768 279.539 47.768C277.149 47.768 275.059 47.32 273.267 46.424C271.475 45.528 270.024 44.2693 268.915 42.648V61.08H260.723ZM277.811 40.6C280.413 40.6 282.568 39.7253 284.275 37.976C285.981 36.2267 286.835 33.9653 286.835 31.192C286.835 28.4187 285.981 26.136 284.275 24.344C282.568 22.552 280.413 21.656 277.811 21.656C275.165 21.656 272.989 22.552 271.283 24.344C269.619 26.0933 268.787 28.3547 268.787 31.128C268.787 33.9013 269.619 36.184 271.283 37.976C272.989 39.7253 275.165 40.6 277.811 40.6ZM313.417 47.768C310.686 47.768 308.446 47.3413 306.697 46.488C304.947 45.592 303.646 44.4187 302.793 42.968C301.939 41.5173 301.513 39.9173 301.513 38.168C301.513 35.224 302.665 32.8347 304.969 31C307.273 29.1653 310.729 28.248 315.337 28.248H323.401V27.48C323.401 25.304 322.782 23.704 321.545 22.68C320.307 21.656 318.771 21.144 316.937 21.144C315.273 21.144 313.822 21.5493 312.585 22.36C311.347 23.128 310.579 24.28 310.281 25.816H302.281C302.494 23.512 303.262 21.5067 304.585 19.8C305.95 18.0933 307.699 16.792 309.833 15.896C311.966 14.9573 314.355 14.488 317.001 14.488C321.523 14.488 325.086 15.6187 327.689 17.88C330.291 20.1413 331.593 23.3413 331.593 27.48V47H324.617L323.849 41.88C322.91 43.5867 321.587 44.9947 319.881 46.104C318.217 47.2133 316.062 47.768 313.417 47.768ZM315.273 41.368C317.619 41.368 319.433 40.6 320.713 39.064C322.035 37.528 322.867 35.6293 323.209 33.368H316.233C314.057 33.368 312.499 33.7733 311.561 34.584C310.622 35.352 310.153 36.312 310.153 37.464C310.153 38.7013 310.622 39.6613 311.561 40.344C312.499 41.0267 313.737 41.368 315.273 41.368ZM352.85 37.528C351.314 37.528 349.885 37.3573 348.562 37.016L346.194 39.384C346.919 39.768 347.901 40.088 349.138 40.344C350.375 40.6 352.381 40.856 355.154 41.112C359.378 41.496 362.45 42.4987 364.37 44.12C366.29 45.7413 367.25 47.9813 367.25 50.84C367.25 52.7173 366.738 54.488 365.714 56.152C364.69 57.8587 363.111 59.224 360.978 60.248C358.845 61.3147 356.114 61.848 352.786 61.848C348.263 61.848 344.615 60.9947 341.842 59.288C339.069 57.624 337.682 55.1067 337.682 51.736C337.682 48.8773 339.069 46.4027 341.842 44.312C340.989 43.928 340.242 43.5227 339.602 43.096C339.005 42.6693 338.471 42.2213 338.002 41.752V40.28L343.57 34.392C341.095 32.216 339.858 29.4213 339.858 26.008C339.858 23.8747 340.37 21.9333 341.394 20.184C342.461 18.4347 343.954 17.048 345.874 16.024C347.794 15 350.119 14.488 352.85 14.488C354.642 14.488 356.306 14.744 357.842 15.256H369.874V20.248L364.434 20.632C365.287 22.2533 365.714 24.0453 365.714 26.008C365.714 28.1413 365.202 30.0827 364.178 31.832C363.154 33.5813 361.661 34.968 359.698 35.992C357.778 37.016 355.495 37.528 352.85 37.528ZM352.85 31.256C354.514 31.256 355.879 30.808 356.946 29.912C358.055 29.016 358.61 27.736 358.61 26.072C358.61 24.408 358.055 23.128 356.946 22.232C355.879 21.336 354.514 20.888 352.85 20.888C351.101 20.888 349.693 21.336 348.626 22.232C347.559 23.128 347.026 24.408 347.026 26.072C347.026 27.736 347.559 29.016 348.626 29.912C349.693 30.808 351.101 31.256 352.85 31.256ZM345.17 50.904C345.17 52.4827 345.895 53.656 347.346 54.424C348.839 55.2347 350.653 55.64 352.786 55.64C354.834 55.64 356.498 55.2133 357.778 54.36C359.058 53.5493 359.698 52.44 359.698 51.032C359.698 49.88 359.271 48.92 358.418 48.152C357.607 47.384 355.965 46.9147 353.49 46.744C351.741 46.616 350.119 46.424 348.626 46.168C347.389 46.8507 346.493 47.5973 345.938 48.408C345.426 49.2187 345.17 50.0507 345.17 50.904ZM390.022 47.768C386.822 47.768 383.984 47.0853 381.51 45.72C379.035 44.3547 377.094 42.4347 375.686 39.96C374.278 37.4853 373.574 34.6267 373.574 31.384C373.574 28.0987 374.256 25.176 375.622 22.616C377.03 20.056 378.95 18.072 381.382 16.664C383.856 15.2133 386.758 14.488 390.086 14.488C393.2 14.488 395.952 15.1707 398.342 16.536C400.731 17.9013 402.587 19.7787 403.91 22.168C405.275 24.5147 405.958 27.1387 405.958 30.04C405.958 30.5093 405.936 31 405.894 31.512C405.894 32.024 405.872 32.5573 405.83 33.112H381.702C381.872 35.5867 382.726 37.528 384.262 38.936C385.84 40.344 387.739 41.048 389.958 41.048C391.622 41.048 393.008 40.6853 394.118 39.96C395.27 39.192 396.123 38.2107 396.678 37.016H404.998C404.4 39.0213 403.398 40.856 401.99 42.52C400.624 44.1413 398.918 45.4213 396.87 46.36C394.864 47.2987 392.582 47.768 390.022 47.768ZM390.086 21.144C388.08 21.144 386.31 21.72 384.774 22.872C383.238 23.9813 382.256 25.688 381.83 27.992H397.638C397.51 25.9013 396.742 24.2373 395.334 23C393.926 21.7627 392.176 21.144 390.086 21.144ZM425.968 47.768C423.152 47.768 420.677 47.32 418.544 46.424C416.41 45.4853 414.704 44.2053 413.424 42.584C412.144 40.9627 411.376 39.0853 411.12 36.952H419.376C419.632 38.1893 420.314 39.256 421.424 40.152C422.576 41.0053 424.048 41.432 425.84 41.432C427.632 41.432 428.933 41.0693 429.744 40.344C430.597 39.6187 431.024 38.7867 431.024 37.848C431.024 36.4827 430.426 35.5653 429.232 35.096C428.037 34.584 426.373 34.0933 424.24 33.624C422.874 33.3253 421.488 32.9627 420.08 32.536C418.672 32.1093 417.37 31.576 416.176 30.936C415.024 30.2533 414.085 29.4 413.36 28.376C412.634 27.3093 412.272 26.008 412.272 24.472C412.272 21.656 413.381 19.288 415.6 17.368C417.861 15.448 421.018 14.488 425.072 14.488C428.826 14.488 431.813 15.3627 434.032 17.112C436.293 18.8613 437.637 21.272 438.064 24.344H430.32C429.85 21.9973 428.08 20.824 425.008 20.824C423.472 20.824 422.277 21.1227 421.424 21.72C420.613 22.3173 420.208 23.064 420.208 23.96C420.208 24.8987 420.826 25.6453 422.064 26.2C423.301 26.7547 424.944 27.2667 426.992 27.736C429.21 28.248 431.237 28.824 433.072 29.464C434.949 30.0613 436.442 30.9787 437.552 32.216C438.661 33.4107 439.216 35.1387 439.216 37.4C439.258 39.3627 438.746 41.1333 437.68 42.712C436.613 44.2907 435.077 45.528 433.072 46.424C431.066 47.32 428.698 47.768 425.968 47.768Z" fill="#059669"/>
</svg>
