<svg fill="none" height="60" viewBox="0 0 171 60" width="171" xmlns="http://www.w3.org/2000/svg"><path d="m.0395002 44.8691v-44.7999624h8.1919998v38.3999624h19.84v6.4zm48.8524998.768c-3.072 0-5.8453-.704-8.32-2.112-2.432-1.408-4.3733-3.3493-5.824-5.824-1.408-2.5173-2.112-5.4186-2.112-8.704 0-3.2853.7253-6.1653 2.176-8.64 1.4507-2.5173 3.392-4.48 5.824-5.888 2.4747-1.408 5.248-2.112 8.32-2.112 3.0293 0 5.76.704 8.192 2.112 2.4747 1.408 4.416 3.3707 5.824 5.888 1.4507 2.4747 2.176 5.3547 2.176 8.64 0 3.2854-.7253 6.1867-2.176 8.704-1.408 2.4747-3.3493 4.416-5.824 5.824s-5.2267 2.112-8.256 2.112zm0-7.104c2.1333 0 3.9893-.7893 5.568-2.368 1.5787-1.6213 2.368-4.0106 2.368-7.168 0-3.1573-.7893-5.5253-2.368-7.104-1.5787-1.6213-3.4133-2.432-5.504-2.432-2.176 0-4.0533.8107-5.632 2.432-1.536 1.5787-2.304 3.9467-2.304 7.104 0 3.1574.768 5.5467 2.304 7.168 1.5787 1.5787 3.4347 2.368 5.568 2.368zm35.0205-3.136c-1.536 0-2.9653-.1706-4.288-.512l-2.368 2.368c.7253.384 1.7067.704 2.944.96s3.2427.512 6.016.768c4.224.384 7.296 1.3867 9.216 3.008 1.92 1.6214 2.88 3.8614 2.88 6.72 0 1.8774-.512 3.648-1.536 5.312-1.024 1.7067-2.6027 3.072-4.736 4.096-2.1333 1.0667-4.864 1.6-8.192 1.6-4.5227 0-8.1707-.8533-10.944-2.56-2.7733-1.664-4.16-4.1813-4.16-7.552 0-2.8586 1.3867-5.3333 4.16-7.424-.8533-.384-1.6-.7893-2.24-1.216-.5973-.4266-1.1307-.8746-1.6-1.344v-1.472l5.568-5.888c-2.4747-2.176-3.712-4.9706-3.712-8.384 0-2.1333.512-4.0746 1.536-5.824 1.0667-1.7493 2.56-3.136 4.48-4.16s4.2453-1.536 6.976-1.536c1.792 0 3.456.256 4.992.768h12.0325v4.992l-5.4405.384c.8533 1.6214 1.28 3.4134 1.28 5.376 0 2.1334-.512 4.0747-1.536 5.824-1.024 1.7494-2.5173 3.136-4.48 4.16-1.92 1.024-4.2027 1.536-6.848 1.536zm0-6.272c1.664 0 3.0293-.448 4.096-1.344 1.1093-.896 1.664-2.176 1.664-3.84s-.5547-2.944-1.664-3.84c-1.0667-.896-2.432-1.344-4.096-1.344-1.7493 0-3.1573.448-4.224 1.344s-1.6 2.176-1.6 3.84.5333 2.944 1.6 3.84 2.4747 1.344 4.224 1.344zm-7.68 19.648c0 1.5787.7253 2.752 2.176 3.52 1.4933.8107 3.3067 1.216 5.44 1.216 2.048 0 3.712-.4266 4.992-1.28 1.28-.8106 1.92-1.92 1.92-3.328 0-1.152-.4267-2.112-1.28-2.88-.8107-.768-2.4533-1.2373-4.928-1.408-1.7493-.128-3.3707-.32-4.864-.576-1.2373.6827-2.1333 1.4294-2.688 2.24-.512.8107-.768 1.6427-.768 2.496zm44.6595-3.136c-3.072 0-5.845-.704-8.32-2.112-2.432-1.408-4.373-3.3493-5.824-5.824-1.408-2.5173-2.112-5.4186-2.112-8.704 0-3.2853.725-6.1653 2.176-8.64 1.451-2.5173 3.392-4.48 5.824-5.888 2.475-1.408 5.248-2.112 8.32-2.112 3.029 0 5.76.704 8.192 2.112 2.475 1.408 4.416 3.3707 5.824 5.888 1.451 2.4747 2.176 5.3547 2.176 8.64 0 3.2854-.725 6.1867-2.176 8.704-1.408 2.4747-3.349 4.416-5.824 5.824s-5.227 2.112-8.256 2.112zm0-7.104c2.133 0 3.989-.7893 5.568-2.368 1.579-1.6213 2.368-4.0106 2.368-7.168 0-3.1573-.789-5.5253-2.368-7.104-1.579-1.6213-3.413-2.432-5.504-2.432-2.176 0-4.053.8107-5.632 2.432-1.536 1.5787-2.304 3.9467-2.304 7.104 0 3.1574.768 5.5467 2.304 7.168 1.579 1.5787 3.435 2.368 5.568 2.368zm36.701 7.104c-2.816 0-5.291-.448-7.424-1.344-2.134-.9386-3.84-2.2186-5.12-3.84-1.28-1.6213-2.048-3.4986-2.304-5.632h8.256c.256 1.2374.938 2.304 2.048 3.2 1.152.8534 2.624 1.28 4.416 1.28s3.093-.3626 3.904-1.088c.853-.7253 1.28-1.5573 1.28-2.496 0-1.3653-.598-2.2826-1.792-2.752-1.195-.512-2.859-1.0026-4.992-1.472-1.366-.2986-2.752-.6613-4.16-1.088-1.408-.4266-2.71-.96-3.904-1.6-1.152-.6826-2.091-1.536-2.816-2.56-.726-1.0666-1.088-2.368-1.088-3.904 0-2.816 1.109-5.184 3.328-7.104 2.261-1.92 5.418-2.88 9.472-2.88 3.754 0 6.741.8747 8.96 2.624 2.261 1.7494 3.605 4.16 4.032 7.232h-7.744c-.47-2.3466-2.24-3.52-5.312-3.52-1.536 0-2.731.2987-3.584.896-.811.5974-1.216 1.344-1.216 2.24 0 .9387.618 1.6854 1.856 2.24 1.237.5547 2.88 1.0667 4.928 1.536 2.218.512 4.245 1.088 6.08 1.728 1.877.5974 3.37 1.5147 4.48 2.752 1.109 1.1947 1.664 2.9227 1.664 5.184.042 1.9627-.47 3.7334-1.536 5.312-1.067 1.5787-2.603 2.816-4.608 3.712-2.006.896-4.374 1.344-7.104 1.344z" fill="#0284c7"/></svg>