<svg clip-rule="evenodd" fill-rule="evenodd" stroke-linejoin="round" stroke-miterlimit="2" viewBox="0 0 1125 634" xmlns="http://www.w3.org/2000/svg"><g transform="scale(4.16667)"><g fill="#fed041"><path d="m176.599 68.123 3.19 7.174 3.023-7.174h17.808l-5.833 3.694v8.405l5.833 3.694h-19.284l5.5-3.694v-10.228l-5.928 13.922h-4.309l-5.952-13.425v9.731l5.475 3.694h-15.784l5.833-3.694v-8.405l-5.833-3.694z" fill-rule="nonzero"/><path d="m217.166 68.123 3.191 7.174 3.023-7.174h17.808l-5.833 3.694v8.405l5.833 3.694h-19.284l5.5-3.694v-10.228l-5.928 13.922h-4.31l-5.951-13.425v9.731l5.475 3.694h-15.784l5.833-3.694v-8.405l-5.833-3.694z" fill-rule="nonzero"/><path d="m268.9 68.123.524 7.648-6.071-4.854h-3.714v9.305l5.833 3.694h-19.879l5.832-3.694v-9.305h-3.714l-6.07 4.854.523-7.648z" fill-rule="nonzero"/><path d="m.3 50.405h87.509v-37.531l62.489 63.026-62.489 63.265v-37.566h-87.509z"/></g><path d="m164.048.245c36.135 0 66.357 25.293 73.939 59.14h-44.608c-5.796-10.2-16.759-17.081-29.331-17.081-9.106 0-17.368 3.611-23.434 9.478l-29.612-29.866c13.668-13.403 32.39-21.671 53.046-21.671zm73.939 92.408c-7.582 33.847-37.804 59.14-73.939 59.14-20.671 0-39.406-8.28-53.077-21.701l29.555-29.922c6.075 5.918 14.372 9.564 23.522 9.564 12.572 0 23.535-6.881 29.331-17.081z" fill="#231f20"/></g></svg>