<?xml version="1.0" encoding="UTF-8" standalone="no"?>
<!DOCTYPE svg PUBLIC "-//W3C//DTD SVG 1.1//EN" "http://www.w3.org/Graphics/SVG/1.1/DTD/svg11.dtd">
<svg width="100%" height="100%" viewBox="0 0 1125 634" version="1.1" xmlns="http://www.w3.org/2000/svg" xmlns:xlink="http://www.w3.org/1999/xlink" xml:space="preserve" xmlns:serif="http://www.serif.com/" style="fill-rule:evenodd;clip-rule:evenodd;stroke-linejoin:round;stroke-miterlimit:2;">
    <g>
        <g transform="matrix(4.16667,0,0,4.16667,0,0)">
            <path d="M176.599,68.123L179.789,75.297L182.812,68.123L200.62,68.123L194.787,71.817L194.787,80.222L200.62,83.916L181.336,83.916L186.836,80.222L186.836,69.994L180.908,83.916L176.599,83.916L170.647,70.491L170.647,80.222L176.122,83.916L160.338,83.916L166.171,80.222L166.171,71.817L160.338,68.123L176.599,68.123Z" style="fill:rgb(254,208,65);fill-rule:nonzero;"/>
        </g>
        <g transform="matrix(4.16667,0,0,4.16667,0,0)">
            <path d="M217.166,68.123L220.357,75.297L223.38,68.123L241.188,68.123L235.355,71.817L235.355,80.222L241.188,83.916L221.904,83.916L227.404,80.222L227.404,69.994L221.476,83.916L217.166,83.916L211.215,70.491L211.215,80.222L216.69,83.916L200.906,83.916L206.739,80.222L206.739,71.817L200.906,68.123L217.166,68.123Z" style="fill:rgb(254,208,65);fill-rule:nonzero;"/>
        </g>
        <g transform="matrix(4.16667,0,0,4.16667,0,0)">
            <path d="M268.9,68.123L269.424,75.771L263.353,70.917L259.639,70.917L259.639,80.222L265.472,83.916L245.593,83.916L251.425,80.222L251.425,70.917L247.711,70.917L241.641,75.771L242.164,68.123L268.9,68.123Z" style="fill:rgb(254,208,65);fill-rule:nonzero;"/>
        </g>
        <g transform="matrix(4.16667,0,0,4.16667,0,0)">
            <path d="M0.3,50.405L87.809,50.405L87.809,12.874L150.298,75.9L87.809,139.165L87.809,101.599L0.3,101.599L0.3,50.405Z" style="fill:rgb(254,208,65);"/>
        </g>
        <g transform="matrix(4.16667,0,0,4.16667,0,0)">
            <path d="M164.048,0.245C200.183,0.245 230.405,25.538 237.987,59.385L193.379,59.385C187.583,49.185 176.62,42.304 164.048,42.304C154.942,42.304 146.68,45.915 140.614,51.782L111.002,21.916C124.67,8.513 143.392,0.245 164.048,0.245ZM237.987,92.653C230.405,126.5 200.183,151.793 164.048,151.793C143.377,151.793 124.642,143.513 110.971,130.092L140.526,100.17C146.601,106.088 154.898,109.734 164.048,109.734C176.62,109.734 187.583,102.853 193.379,92.653L237.987,92.653Z" style="fill:rgb(35,31,32);"/>
        </g>
    </g>
</svg>
