<svg fill="none" height="667" viewBox="0 0 375 667" width="375" xmlns="http://www.w3.org/2000/svg" xmlns:xlink="http://www.w3.org/1999/xlink"><linearGradient id="a" gradientUnits="userSpaceOnUse" x1="138" x2="233" y1="202" y2="202"><stop offset="0" stop-color="#76a9fa"/><stop offset="1" stop-color="#1a57db"/></linearGradient><path d="m0 0h375v667h-375z" fill="#fff"/><path d="m0 0h375v667h-375z" fill="#e1effe"/><path d="m8 317.2c0-17.922 0-26.883 3.4878-33.728 3.0679-6.021 7.9633-10.916 13.9845-13.984 6.8452-3.488 15.806-3.488 33.7277-3.488h256.6c17.922 0 26.883 0 33.728 3.488 6.021 3.068 10.916 7.963 13.984 13.984 3.488 6.845 3.488 15.806 3.488 33.728v157.6c0 17.922 0 26.883-3.488 33.728-3.068 6.021-7.963 10.916-13.984 13.984-6.845 3.488-15.806 3.488-33.728 3.488h-256.6c-17.9217 0-26.8825 0-33.7277-3.488-6.0212-3.068-10.9166-7.963-13.9845-13.984-3.4878-6.845-3.4878-15.806-3.4878-33.728z" fill="#fff"/><rect fill="#1a57db" height="48" rx="16" width="177" x="99" y="502"/><path d="m147.314 528.688c.092 2.216 1.943 3.619 4.798 3.619 3.005 0 4.856-1.477 4.856-3.868 0-1.851-1.037-2.889-3.445-3.403l-1.444-.307c-1.403-.308-1.976-.748-1.976-1.503 0-.938.83-1.544 2.084-1.544 1.212 0 2.092.639 2.208 1.619h2.357c-.074-2.117-1.942-3.586-4.582-3.586-2.764 0-4.582 1.477-4.582 3.71 0 1.818 1.071 2.939 3.254 3.404l1.561.34c1.469.324 2.067.78 2.067 1.569 0 .929-.922 1.585-2.225 1.585-1.411 0-2.391-.639-2.507-1.635zm19.662-5.827h-2.416v5.279c0 1.254-.647 2.026-1.851 2.026-1.112 0-1.685-.656-1.685-1.951v-5.354h-2.416v5.951c0 2.126 1.229 3.379 3.205 3.379 1.386 0 2.241-.598 2.672-1.66h.15v1.469h2.341zm7.409 9.28c2.299 0 3.71-1.785 3.71-4.715 0-2.947-1.394-4.715-3.71-4.715-1.253 0-2.283.606-2.748 1.611h-.149v-4.956h-2.416v12.634h2.341v-1.436h.15c.489.996 1.527 1.577 2.822 1.577zm-.838-7.471c1.278 0 2.066 1.055 2.066 2.756 0 1.719-.78 2.764-2.066 2.764-1.279 0-2.076-1.054-2.084-2.755.008-1.702.814-2.765 2.084-2.765zm5.898.855c0 1.403.863 2.242 2.64 2.632l1.66.373c.805.183 1.154.465 1.154.93 0 .606-.648 1.021-1.586 1.021-.963 0-1.552-.374-1.735-1.004h-2.357c.166 1.726 1.627 2.714 4.043 2.714 2.398 0 4.034-1.179 4.034-2.988 0-1.362-.797-2.109-2.574-2.499l-1.718-.373c-.846-.191-1.237-.482-1.237-.947 0-.597.64-1.004 1.503-1.004.896 0 1.452.373 1.577.979h2.233c-.133-1.726-1.503-2.697-3.827-2.697-2.283 0-3.81 1.153-3.81 2.863zm17.528.523c-.199-2.042-1.652-3.386-4.076-3.386-2.863 0-4.474 1.734-4.474 4.748 0 3.046 1.619 4.781 4.474 4.781 2.383 0 3.877-1.312 4.076-3.32h-2.258c-.182.913-.83 1.402-1.818 1.402-1.294 0-2.033-1.021-2.033-2.863 0-1.818.73-2.823 2.033-2.823 1.03 0 1.652.581 1.818 1.461zm1.483 5.952h2.415v-5.113c0-1.287.905-2.075 2.225-2.075.39 0 .954.066 1.145.132v-2.125c-.207-.066-.614-.108-.946-.108-1.162 0-2.108.689-2.349 1.602h-.149v-1.452h-2.341zm8.223-10.542c.747 0 1.361-.598 1.361-1.345 0-.755-.614-1.353-1.361-1.353-.748 0-1.37.598-1.37 1.353 0 .747.622 1.345 1.37 1.345zm-1.212 10.542h2.415v-9.139h-2.415zm9.849.141c2.3 0 3.711-1.785 3.711-4.715 0-2.947-1.395-4.715-3.711-4.715-1.253 0-2.282.606-2.747 1.611h-.15v-4.956h-2.415v12.634h2.341v-1.436h.149c.49.996 1.527 1.577 2.822 1.577zm-.838-7.471c1.278 0 2.067 1.055 2.067 2.756 0 1.719-.78 2.764-2.067 2.764-1.278 0-2.075-1.054-2.083-2.755.008-1.702.813-2.765 2.083-2.765zm12.025 4.748c-.258.623-.914.972-1.868.972-1.262 0-2.059-.872-2.092-2.266v-.125h6.284v-.722c0-2.889-1.594-4.615-4.292-4.615-2.722 0-4.399 1.842-4.399 4.814 0 2.955 1.643 4.715 4.432 4.715 2.242 0 3.827-1.071 4.184-2.773zm-1.959-4.955c1.129 0 1.859.78 1.909 2.034h-3.902c.083-1.229.872-2.034 1.993-2.034z" fill="#fff"/><rect fill="#cfd8e3" height="28" rx="8" width="61" x="110" y="290"/><g fill="#000"><path clip-rule="evenodd" d="m345.089 8.56h14.822c1.248 0 1.7.12995 2.157.37398.456.24403.814.60214 1.058 1.05843s.374.90889.374 2.15699v4.3212c0 1.2481-.13 1.7007-.374 2.157s-.602.8144-1.058 1.0584c-.457.244-.909.374-2.157.374h-14.822c-1.248 0-1.7-.13-2.157-.374-.456-.244-.814-.6021-1.058-1.0584s-.374-.9089-.374-2.157v-4.3212c0-1.2481.13-1.7007.374-2.15699s.602-.8144 1.058-1.05843c.457-.24403.909-.37398 2.157-.37398zm0 1c-.987 0-1.331.06653-1.685.2558-.282.15083-.497.3662-.648.6482-.189.3539-.256.6985-.256 1.6854v4.3212c0 .9869.067 1.3315.256 1.6854.151.282.366.4974.648.6482.354.1893.698.2558 1.685.2558h14.822c.987 0 1.331-.0665 1.685-.2558.282-.1508.497-.3662.648-.6482.189-.3539.256-.6985.256-1.6854v-4.3212c0-.9869-.067-1.3315-.256-1.6854-.151-.282-.366-.49737-.648-.6482-.354-.18927-.698-.2558-1.685-.2558zm20.911 4.69c0 1.2366-1.5 2-1.5 2v-4s1.5.7634 1.5 2z" fill-opacity=".36" fill-rule="evenodd"/><rect height="7.66667" rx="1.6" width="18" x="343.5" y="10.4767"/><path clip-rule="evenodd" d="m328.8 11.0963c2.235.0001 4.384.8587 6.003 2.3983.122.1188.317.1173.437-.0034l1.166-1.1764c.061-.0613.094-.1442.094-.2305-.001-.0863-.035-.1688-.097-.2293-4.25-4.07334-10.956-4.07334-15.206 0-.062.0604-.096.143-.097.2292-.001.0863.033.1693.094.2306l1.166 1.1764c.12.1209.315.1224.437.0034 1.62-1.5397 3.769-2.3983 6.003-2.3983zm0 3.8274c1.228 0 2.412.4563 3.322 1.2803.123.117.317.1144.437-.0057l1.164-1.1764c.062-.0617.096-.1454.095-.2324s-.037-.17-.1-.2305c-2.771-2.5777-7.062-2.5777-9.833 0-.063.0605-.099.1435-.099.2305-.001.0871.033.1708.094.2324l1.164 1.1764c.12.1201.314.1227.437.0057.91-.8235 2.093-1.2798 3.319-1.2803zm2.238 2.8076c.062-.0611.097-.1452.095-.2324s-.04-.1699-.104-.2284c-1.287-1.0879-3.171-1.0879-4.457 0-.064.0585-.102.1411-.104.2283-.002.0873.032.1714.095.2325l2.014 2.0325c.059.0598.139.0934.223.0934s.165-.0336.224-.0934z" fill-rule="evenodd"/><path d="m176.797 20.2563c2.688 0 4.285-2.102 4.285-5.6689 0-3.501-1.699-5.41992-4.226-5.41992-2.3 0-3.926 1.54542-3.926 3.70602 0 2.0288 1.465 3.5083 3.479 3.5083 1.238 0 2.241-.5713 2.739-1.5747h.125c-.022 2.4829-.908 3.9038-2.454 3.9038-.908 0-1.633-.498-1.86-1.3037h-1.882c.307 1.7212 1.787 2.8491 3.72 2.8491zm.066-5.332c-1.23 0-2.08-.8642-2.08-2.1094 0-1.1938.894-2.1093 2.088-2.1093 1.193 0 2.087.9301 2.087 2.146 0 1.2011-.872 2.0727-2.095 2.0727zm7.372-1.7651c.696 0 1.172-.4834 1.172-1.1353 0-.6518-.476-1.1352-1.172-1.1352-.689 0-1.172.4834-1.172 1.1352 0 .6519.483 1.1353 1.172 1.1353zm0 5.376c.696 0 1.172-.4908 1.172-1.1353 0-.6519-.476-1.1353-1.172-1.1353-.689 0-1.172.4834-1.172 1.1353 0 .6445.483 1.1353 1.172 1.1353zm8.309 1.4648h1.809v-2.0288h1.428v-1.5601h-1.428v-6.97995h-2.666c-1.435 2.18265-2.937 4.61425-4.307 6.99465v1.5454h5.164zm-3.413-3.6548c1.033-1.7944 2.256-3.75 3.34-5.4053h.102v5.5152h-3.442zm10.814 3.6548h1.89v-10.56885h-1.883l-2.761 1.94095v1.7798l2.629-1.8604h.125z"/><path clip-rule="evenodd" d="m22.123 9.96589c-.023.11591-.023.25531-.023.53411v7.7c0 .2788 0 .4182.023.5341.0947.476.4669.8482.9429.9428.1159.0231.2553.0231.5341.0231s.4182 0 .5341-.0231c.476-.0946.8481-.4668.9428-.9428.0231-.1159.0231-.2553.0231-.5341v-7.7c0-.2788 0-.4182-.0231-.53411-.0947-.47603-.4668-.84814-.9428-.94283-.1159-.02306-.2553-.02306-.5341-.02306s-.4182 0-.5341.02306c-.476.09469-.8482.4668-.9429.94283zm-4.723 2.93411c0-.2788 0-.4182.0231-.5341.0946-.476.4668-.8482.9428-.9428.1159-.0231.2553-.0231.5341-.0231s.4182 0 .5341.0231c.476.0946.8481.4668.9428.9428.0231.1159.0231.2553.0231.5341v5.3c0 .2788 0 .4182-.0231.5341-.0947.476-.4668.8482-.9428.9428-.1159.0231-.2553.0231-.5341.0231s-.4182 0-.5341-.0231c-.476-.0946-.8482-.4668-.9428-.9428-.0231-.1159-.0231-.2553-.0231-.5341zm-4.577 1.7659c-.023.1159-.023.2553-.023.5341v3c0 .2788 0 .4182.023.5341.0947.476.4669.8482.9429.9428.1159.0231.2553.0231.5341.0231s.4182 0 .5341-.0231c.476-.0946.8481-.4668.9428-.9428.0231-.1159.0231-.2553.0231-.5341v-3c0-.2788 0-.4182-.0231-.5341-.0947-.476-.4668-.8482-.9428-.9428-.1159-.0231-.2553-.0231-.5341-.0231s-.4182 0-.5341.0231c-.476.0946-.8482.4668-.9429.9428zm-4.79994 2c-.02306.1159-.02306.2553-.02306.5341v1c0 .2788 0 .4182.02306.5341.09469.476.4668.8482.94283.9428.11592.0231.25532.0231.53411.0231s.41819 0 .5341-.0231c.476-.0946.8482-.4668.9428-.9428.0231-.1159.0231-.2553.0231-.5341v-1c0-.2788 0-.4182-.0231-.5341-.0946-.476-.4668-.8482-.9428-.9428-.11591-.0231-.25531-.0231-.5341-.0231s-.41819 0-.53411.0231c-.47603.0946-.84814.4668-.94283.9428z" fill-rule="evenodd"/></g><path d="m26.2402 116.328c4.6621 0 7.8887-2.557 8.5039-6.781h-3.4589c-.5469 2.379-2.42 3.787-5.0313 3.787-3.418 0-5.5781-2.775-5.5781-7.205 0-4.402 2.1738-7.1915 5.5644-7.1915 2.5567 0 4.5664 1.6265 5.0313 4.1015h3.4726c-.4375-4.2382-3.9238-7.0956-8.5039-7.0956-5.6054 0-9.1738 3.8964-9.1738 10.1856 0 6.33 3.541 10.199 9.1738 10.199zm17.5916-.041c4.2519 0 7.0137-2.83 7.0137-7.533 0-4.69-2.7891-7.547-7.0137-7.547s-7.0137 2.871-7.0137 7.547c0 4.703 2.7617 7.533 7.0137 7.533zm0-2.693c-2.1602 0-3.5547-1.75-3.5547-4.84 0-3.076 1.4082-4.84 3.5547-4.84 2.1601 0 3.5547 1.764 3.5547 4.84 0 3.09-1.3946 4.84-3.5547 4.84zm9.5388 2.406h3.4043v-8.395c0-2.078 1.2441-3.486 3.1992-3.486 1.9414 0 2.8985 1.149 2.8985 3.199v8.682h3.4043v-9.365c0-3.35-1.8184-5.401-5.0176-5.401-2.2285 0-3.7735 1.039-4.5528 2.762h-.0683v-2.488h-3.2676zm16.9216 0h3.4043v-11.867h2.8438v-2.584h-2.8985v-1.19c0-1.1754.5879-1.7906 1.8868-1.7906.3964 0 .7929.041 1.08.082v-2.3789c-.4238-.082-1.1621-.1504-1.832-.1504-3.1445 0-4.4844 1.3262-4.4844 4.1429v1.285h-1.9824v2.584h1.9824zm10.6053-16.6797c1.039 0 1.8593-.834 1.8593-1.8457 0-1.0254-.8203-1.8457-1.8593-1.8457-1.0391 0-1.8731.8203-1.8731 1.8457 0 1.0117.834 1.8457 1.8731 1.8457zm-1.6953 16.6797h3.4042v-14.492h-3.4042zm6.5993 0h3.4043v-8.436c0-2.037 1.1621-3.281 3.0899-3.281.5742 0 1.0937.082 1.3808.192v-3.077c-.2461-.054-.6289-.136-1.0664-.136-1.709 0-2.9805 1.011-3.4726 2.775h-.0684v-2.529h-3.2676zm9.9627 0h3.4043v-8.873c0-1.75 1.1485-3.022 2.7895-3.022 1.585 0 2.57.999 2.57 2.612v9.283h3.308v-8.955c0-1.736 1.122-2.94 2.762-2.94 1.668 0 2.598 1.012 2.598 2.79v9.105h3.404v-9.939c0-2.899-1.873-4.827-4.73-4.827-2.092 0-3.815 1.121-4.512 2.912h-.082c-.533-1.859-1.996-2.912-4.047-2.912-1.969 0-3.5 1.108-4.1289 2.789h-.0684v-2.515h-3.2675zm29.5908-10.336c0 2.147 1.395 3.514 4.17 4.129l2.407.533c1.517.342 2.037.834 2.037 1.709 0 1.08-1.026 1.764-2.68 1.764-1.723 0-2.693-.711-2.953-2.119h-3.35c.274 2.802 2.516 4.607 6.303 4.607 3.555 0 6.07-1.846 6.07-4.58 0-2.105-1.162-3.268-4.17-3.937l-2.406-.534c-1.517-.341-2.119-.916-2.119-1.75 0-1.066.998-1.777 2.502-1.777 1.572 0 2.543.834 2.68 2.146h3.172c-.082-2.748-2.325-4.648-5.852-4.648-3.5 0-5.811 1.805-5.811 4.457zm27.367-4.156h-3.404v8.381c0 2.105-1.217 3.5-3.185 3.5-1.914 0-2.926-1.121-2.926-3.2v-8.681h-3.405v9.365c0 3.35 1.997 5.387 5.141 5.387 2.201 0 3.664-1.012 4.43-2.776h.068v2.516h3.281zm11.235 14.724c3.664 0 5.974-2.843 5.974-7.478s-2.324-7.492-5.974-7.492c-2.051 0-3.706 1.039-4.526 2.734h-.082v-7.7245h-3.404v19.7285h3.336v-2.475h.068c.848 1.682 2.475 2.707 4.608 2.707zm-1.053-12.168c2.174 0 3.541 1.819 3.541 4.69 0 2.885-1.354 4.689-3.541 4.689-2.106 0-3.569-1.845-3.569-4.689 0-2.816 1.463-4.69 3.569-4.69zm9.32 1.6c0 2.147 1.394 3.514 4.17 4.129l2.406.533c1.518.342 2.037.834 2.037 1.709 0 1.08-1.025 1.764-2.68 1.764-1.722 0-2.693-.711-2.953-2.119h-3.349c.273 2.802 2.515 4.607 6.302 4.607 3.555 0 6.071-1.846 6.071-4.58 0-2.105-1.162-3.268-4.17-3.937l-2.406-.534c-1.518-.341-2.12-.916-2.12-1.75 0-1.066.999-1.777 2.502-1.777 1.573 0 2.543.834 2.68 2.146h3.172c-.082-2.748-2.324-4.648-5.852-4.648-3.5 0-5.81 1.805-5.81 4.457zm27.285 1.012c-.233-3.049-2.598-5.469-6.426-5.469-4.211 0-6.945 2.912-6.945 7.547 0 4.703 2.734 7.533 6.972 7.533 3.637 0 6.139-2.133 6.412-5.373h-3.212c-.315 1.641-1.436 2.625-3.159 2.625-2.16 0-3.554-1.75-3.554-4.785 0-2.981 1.381-4.785 3.527-4.785 1.818 0 2.898 1.162 3.172 2.707zm2.388 9.324h3.405v-8.436c0-2.037 1.162-3.281 3.089-3.281.575 0 1.094.082 1.381.192v-3.077c-.246-.054-.629-.136-1.066-.136-1.709 0-2.981 1.011-3.473 2.775h-.068v-2.529h-3.268zm11.74-16.6797c1.039 0 1.86-.834 1.86-1.8457 0-1.0254-.821-1.8457-1.86-1.8457s-1.873.8203-1.873 1.8457c0 1.0117.834 1.8457 1.873 1.8457zm-1.695 16.6797h3.404v-14.492h-3.404zm14.556-14.738c-2.105 0-3.746 1.066-4.566 2.748h-.068v-2.502h-3.323v19.263h3.405v-7.177h.068c.793 1.627 2.434 2.638 4.539 2.638 3.637 0 5.961-2.857 5.961-7.478 0-4.635-2.338-7.492-6.016-7.492zm-1.039 12.181c-2.119 0-3.527-1.845-3.541-4.689.014-2.816 1.422-4.69 3.541-4.69 2.201 0 3.569 1.832 3.569 4.69 0 2.871-1.368 4.689-3.569 4.689zm10.523-15.3258v3.3908h-2.078v2.625h2.078v8.012c0 2.816 1.231 3.923 4.362 3.923.724 0 1.394-.054 1.763-.136v-2.598c-.218.041-.656.068-.97.068-1.203 0-1.75-.547-1.75-1.736v-7.533h2.734v-2.625h-2.734v-3.3908zm10.578 1.2031c1.039 0 1.86-.834 1.86-1.8457 0-1.0254-.821-1.8457-1.86-1.8457s-1.873.8203-1.873 1.8457c0 1.0117.834 1.8457 1.873 1.8457zm-1.695 16.6797h3.404v-14.492h-3.404zm13.011.287c4.252 0 7.014-2.83 7.014-7.533 0-4.69-2.789-7.547-7.014-7.547-4.224 0-7.013 2.871-7.013 7.547 0 4.703 2.762 7.533 7.013 7.533zm0-2.693c-2.16 0-3.554-1.75-3.554-4.84 0-3.076 1.408-4.84 3.554-4.84 2.161 0 3.555 1.764 3.555 4.84 0 3.09-1.394 4.84-3.555 4.84zm9.539 2.406h3.405v-8.395c0-2.078 1.244-3.486 3.199-3.486 1.941 0 2.898 1.149 2.898 3.199v8.682h3.405v-9.365c0-3.35-1.819-5.401-5.018-5.401-2.229 0-3.773 1.039-4.553 2.762h-.068v-2.488h-3.268z" fill="#27303f"/><path clip-rule="evenodd" d="m28 77c11.0457 0 20-8.9543 20-20s-8.9543-20-20-20-20 8.9543-20 20 8.9543 20 20 20z" fill="#9fa6b3" fill-rule="evenodd"/><path d="m22.9453 61.1641c-.3281.3281-.3437.914.0078 1.25.336.3515.9297.3359 1.2578.0078l3.7891-3.7891 3.7891 3.7891c.3359.3359.914.3437 1.25-.0078.3515-.336.3437-.9219.0078-1.2579l-3.7891-3.789 3.7891-3.7813c.3359-.3437.3437-.9218-.0078-1.2578-.336-.3515-.9141-.3437-1.25-.0078l-3.7891 3.7891-3.7891-3.7891c-.3281-.3281-.9218-.3437-1.2578.0078-.3515.336-.3359.9219-.0078 1.25l3.7891 3.7891z" fill="#fff"/><g fill="#98a6ba"><path d="m38.8647 310v-9.911h3.5943v-2.067h-9.6953v2.067h3.5942v9.911zm4.197 0h2.4155v-5.113c0-1.287.9048-2.075 2.2246-2.075.3902 0 .9546.066 1.1455.132v-2.125c-.2075-.066-.6142-.108-.9463-.108-1.1621 0-2.1084.689-2.3491 1.602h-.1494v-1.452h-2.3408zm9.3351.141c1.187 0 2.1831-.506 2.6562-1.353h.1495v1.212h2.3408v-6.242c0-1.951-1.3696-3.096-3.7935-3.096-2.2993 0-3.8515 1.054-4.0093 2.731h2.2247c.1992-.573.7802-.88 1.6518-.88.9961 0 1.544.456 1.544 1.245v.755l-2.2164.133c-2.2744.133-3.5444 1.096-3.5444 2.748 0 1.668 1.2368 2.747 2.9966 2.747zm.7969-1.768c-.8384 0-1.4278-.423-1.4278-1.129 0-.672.5064-1.062 1.544-1.129l1.8511-.124v.68c0 .963-.8467 1.702-1.9673 1.702zm6.3136 1.627h2.4155v-5.288c0-1.236.689-2.033 1.8096-2.033 1.1455 0 1.6851.672 1.6851 1.959v5.362h2.4155v-5.91c0-2.183-1.0957-3.428-3.1294-3.428-1.353 0-2.2827.639-2.7061 1.668h-.1494v-1.469h-2.3408zm10.0573-6.475c0 1.403.8633 2.242 2.6396 2.632l1.6602.373c.8052.183 1.1538.465 1.1538.93 0 .606-.6475 1.021-1.5854 1.021-.9629 0-1.5523-.374-1.7349-1.004h-2.3574c.166 1.726 1.6269 2.714 4.0424 2.714 2.399 0 4.0342-1.179 4.0342-2.988 0-1.362-.7968-2.109-2.5732-2.499l-1.7183-.373c-.8467-.191-1.2368-.482-1.2368-.947 0-.597.6392-1.004 1.5025-1.004.8964 0 1.4526.373 1.5771.979h2.2329c-.1328-1.726-1.5024-2.697-3.8267-2.697-2.2827 0-3.81 1.153-3.81 2.863zm10.132 6.475h2.4155v-7.222h1.8926v-1.834h-1.9424v-.772c0-.797.3486-1.187 1.2949-1.187.3155 0 .5645.025.7222.05v-1.669c-.3486-.05-.7554-.091-1.2451-.091-2.208 0-3.1377.913-3.1377 2.731v.938h-1.4776v1.834h1.4776zm11.4269-2.582c-.2573.623-.9131.972-1.8677.972-1.2617 0-2.0586-.872-2.0918-2.266v-.125h6.2837v-.722c0-2.889-1.5937-4.615-4.2915-4.615-2.7226 0-4.3994 1.842-4.3994 4.814 0 2.955 1.6436 4.715 4.4326 4.715 2.2412 0 3.8267-1.071 4.1836-2.773zm-1.959-4.955c1.1289 0 1.8594.78 1.9092 2.034h-3.9014c.083-1.229.8716-2.034 1.9922-2.034zm5.8571 7.537h2.4155v-5.113c0-1.287.9048-2.075 2.2246-2.075.3903 0 .9543.066 1.1453.132v-2.125c-.207-.066-.614-.108-.946-.108-1.1622 0-2.1084.689-2.3492 1.602h-.1494v-1.452h-2.3408z"/><path d="m180.917 310h2.416v-7.222h1.893v-1.834h-1.943v-.772c0-.797.349-1.187 1.295-1.187.316 0 .565.025.722.05v-1.669c-.348-.05-.755-.091-1.245-.091-2.208 0-3.138.913-3.138 2.731v.938h-1.477v1.834h1.477zm5.824 0h2.416v-5.113c0-1.287.905-2.075 2.225-2.075.39 0 .954.066 1.145.132v-2.125c-.208-.066-.614-.108-.946-.108-1.162 0-2.109.689-2.349 1.602h-.15v-1.452h-2.341zm10.838.191c2.814 0 4.507-1.776 4.507-4.765 0-2.963-1.718-4.764-4.507-4.764s-4.507 1.809-4.507 4.764c0 2.98 1.693 4.765 4.507 4.765zm0-1.909c-1.295 0-2.025-1.046-2.025-2.856 0-1.793.738-2.847 2.025-2.847 1.278 0 2.025 1.054 2.025 2.847 0 1.81-.738 2.856-2.025 2.856zm6.073 1.718h2.415v-5.512c0-1.046.673-1.809 1.619-1.809s1.511.564 1.511 1.544v5.777h2.324v-5.62c0-.987.631-1.701 1.61-1.701 1.021 0 1.528.548 1.528 1.652v5.669h2.415v-6.275c0-1.885-1.137-3.063-2.963-3.063-1.278 0-2.333.672-2.756 1.685h-.149c-.366-1.046-1.246-1.685-2.532-1.685-1.204 0-2.158.639-2.532 1.685h-.149v-1.486h-2.341z"/><path d="m281.901 336.678v2.266h-1.428v1.834h1.428v4.757c0 1.776.88 2.498 3.104 2.498.465 0 .913-.05 1.212-.108v-1.784c-.232.025-.398.041-.714.041-.821 0-1.187-.382-1.187-1.203v-4.201h1.901v-1.834h-1.901v-2.266zm9.916 11.513c2.814 0 4.507-1.776 4.507-4.765 0-2.963-1.718-4.764-4.507-4.764s-4.507 1.809-4.507 4.764c0 2.98 1.693 4.765 4.507 4.765zm0-1.909c-1.295 0-2.025-1.046-2.025-2.856 0-1.793.738-2.847 2.025-2.847 1.278 0 2.025 1.054 2.025 2.847 0 1.81-.738 2.856-2.025 2.856z"/><path d="m115.271 386.191c2.814 0 4.507-1.776 4.507-4.765 0-2.963-1.718-4.764-4.507-4.764s-4.507 1.809-4.507 4.764c0 2.98 1.693 4.765 4.507 4.765zm0-1.909c-1.295 0-2.025-1.046-2.025-2.856 0-1.793.738-2.847 2.025-2.847 1.278 0 2.025 1.054 2.025 2.847 0 1.81-.738 2.856-2.025 2.856zm13.967-7.421h-2.548l-1.876 6.873h-.15l-1.892-6.873h-2.599l3.18 9.139h2.722zm6.762 6.557c-.257.623-.913.972-1.868.972-1.262 0-2.058-.872-2.092-2.266v-.125h6.284v-.722c0-2.889-1.594-4.615-4.291-4.615-2.723 0-4.4 1.842-4.4 4.814 0 2.955 1.644 4.715 4.433 4.715 2.241 0 3.826-1.071 4.183-2.773zm-1.959-4.955c1.129 0 1.859.78 1.909 2.034h-3.901c.083-1.229.871-2.034 1.992-2.034zm5.857 7.537h2.415v-5.113c0-1.287.905-2.075 2.225-2.075.39 0 .955.066 1.146.132v-2.125c-.208-.066-.615-.108-.947-.108-1.162 0-2.108.689-2.349 1.602h-.149v-1.452h-2.341zm11.656-11.322v2.266h-1.428v1.834h1.428v4.757c0 1.776.88 2.498 3.104 2.498.465 0 .914-.05 1.212-.108v-1.784c-.232.025-.398.041-.713.041-.822 0-1.187-.382-1.187-1.203v-4.201h1.9v-1.834h-1.9v-2.266zm6.007 11.322h2.415v-5.263c0-1.212.697-2.033 1.909-2.033 1.096 0 1.685.664 1.685 1.959v5.337h2.416v-5.885c0-2.192-1.171-3.428-3.138-3.428-1.345 0-2.341.63-2.764 1.668h-.149v-4.989h-2.374zm16.282-2.582c-.257.623-.913.972-1.867.972-1.262 0-2.059-.872-2.092-2.266v-.125h6.284v-.722c0-2.889-1.594-4.615-4.292-4.615-2.723 0-4.399 1.842-4.399 4.814 0 2.955 1.643 4.715 4.432 4.715 2.242 0 3.827-1.071 4.184-2.773zm-1.959-4.955c1.129 0 1.86.78 1.91 2.034h-3.902c.083-1.229.872-2.034 1.992-2.034zm15.118-1.752c-1.262 0-2.299.623-2.797 1.652h-.15v-1.502h-2.341v12.169h2.416v-4.425h.149c.448.963 1.453 1.536 2.764 1.536 2.291 0 3.694-1.776 3.694-4.715 0-2.947-1.419-4.715-3.735-4.715zm-.822 7.479c-1.278 0-2.075-1.045-2.075-2.755s.797-2.765 2.083-2.765c1.287 0 2.067 1.038 2.067 2.756 0 1.727-.772 2.764-2.075 2.764zm12.033-.772c-.257.623-.913.972-1.868.972-1.261 0-2.058-.872-2.091-2.266v-.125h6.283v-.722c0-2.889-1.594-4.615-4.291-4.615-2.723 0-4.4 1.842-4.4 4.814 0 2.955 1.644 4.715 4.433 4.715 2.241 0 3.827-1.071 4.184-2.773zm-1.959-4.955c1.129 0 1.859.78 1.909 2.034h-3.901c.083-1.229.871-2.034 1.992-2.034zm5.857 7.537h2.416v-5.113c0-1.287.904-2.075 2.224-2.075.39 0 .955.066 1.146.132v-2.125c-.208-.066-.615-.108-.947-.108-1.162 0-2.108.689-2.349 1.602h-.149v-1.452h-2.341zm8.223-10.542c.747 0 1.361-.598 1.361-1.345 0-.755-.614-1.353-1.361-1.353s-1.37.598-1.37 1.353c0 .747.623 1.345 1.37 1.345zm-1.212 10.542h2.416v-9.139h-2.416zm8.513.191c2.814 0 4.508-1.776 4.508-4.765 0-2.963-1.719-4.764-4.508-4.764s-4.507 1.809-4.507 4.764c0 2.98 1.693 4.765 4.507 4.765zm0-1.909c-1.295 0-2.025-1.046-2.025-2.856 0-1.793.739-2.847 2.025-2.847 1.279 0 2.026 1.054 2.026 2.847 0 1.81-.739 2.856-2.026 2.856zm9.352 1.859c1.27 0 2.308-.589 2.797-1.577h.15v1.436h2.341v-12.634h-2.416v4.956h-.141c-.473-1.013-1.494-1.611-2.731-1.611-2.299 0-3.727 1.802-3.727 4.707 0 2.914 1.419 4.723 3.727 4.723zm.822-7.471c1.286 0 2.075 1.055 2.075 2.765s-.78 2.755-2.075 2.755-2.067-1.037-2.067-2.764c0-1.718.78-2.756 2.067-2.756zm14.594 7.521c2.814 0 4.508-1.776 4.508-4.765 0-2.963-1.719-4.764-4.508-4.764s-4.507 1.809-4.507 4.764c0 2.98 1.693 4.765 4.507 4.765zm0-1.909c-1.295 0-2.025-1.046-2.025-2.856 0-1.793.739-2.847 2.025-2.847 1.279 0 2.026 1.054 2.026 2.847 0 1.81-.739 2.856-2.026 2.856zm6.779 1.718h2.415v-7.222h1.893v-1.834h-1.942v-.772c0-.797.348-1.187 1.294-1.187.316 0 .565.025.723.05v-1.669c-.349-.05-.756-.091-1.245-.091-2.208 0-3.138.913-3.138 2.731v.938h-1.478v1.834h1.478z"/><path d="m38.6074 424.141c2.2993 0 3.7105-1.785 3.7105-4.715 0-2.947-1.3946-4.715-3.7105-4.715-1.2534 0-2.2827.606-2.7475 1.611h-.1495v-4.956h-2.4155v12.634h2.3408v-1.436h.1495c.4897.996 1.5273 1.577 2.8222 1.577zm-.8384-7.471c1.2784 0 2.0669 1.055 2.0669 2.756 0 1.719-.7802 2.764-2.0669 2.764-1.2783 0-2.0752-1.054-2.0835-2.755.0083-1.702.8135-2.765 2.0835-2.765zm12.0246 4.748c-.2573.623-.9131.972-1.8677.972-1.2617 0-2.0586-.872-2.0918-2.266v-.125h6.2837v-.722c0-2.889-1.5937-4.615-4.2915-4.615-2.7226 0-4.3994 1.842-4.3994 4.814 0 2.955 1.6436 4.715 4.4326 4.715 2.2412 0 3.8267-1.071 4.1836-2.773zm-1.959-4.955c1.1289 0 1.8594.78 1.9092 2.034h-3.9014c.083-1.229.8716-2.034 1.9922-2.034zm9.8913 10.998c2.7642 0 4.5156-1.344 4.5156-3.478v-9.122h-2.3408v1.461h-.1494c-.4898-.996-1.544-1.611-2.7808-1.611-2.3242 0-3.7519 1.81-3.7519 4.641 0 2.739 1.4194 4.515 3.7021 4.515 1.2866 0 2.2495-.523 2.7559-1.486h.1494v1.702c0 1.054-.7554 1.668-2.0503 1.668-1.0459 0-1.7266-.365-1.8511-.946h-2.3906c.1494 1.602 1.7598 2.656 4.1919 2.656zm.0332-5.445c-1.3115 0-2.0586-1.029-2.0586-2.673 0-1.643.7554-2.673 2.0586-2.673s2.0918 1.03 2.0918 2.673c0 1.644-.7803 2.673-2.0918 2.673zm7.7248-8.558c.747 0 1.3613-.598 1.3613-1.345 0-.755-.6143-1.353-1.3613-1.353-.7471 0-1.3697.598-1.3697 1.353 0 .747.6226 1.345 1.3697 1.345zm-1.2119 10.542h2.4155v-9.139h-2.4155zm4.4542 0h2.4155v-5.288c0-1.236.689-2.033 1.8096-2.033 1.1455 0 1.6851.672 1.6851 1.959v5.362h2.4155v-5.91c0-2.183-1.0957-3.428-3.1294-3.428-1.353 0-2.2827.639-2.7061 1.668h-.1494v-1.469h-2.3408zm11.4933-10.542c.7471 0 1.3614-.598 1.3614-1.345 0-.755-.6143-1.353-1.3614-1.353-.747 0-1.3696.598-1.3696 1.353 0 .747.6226 1.345 1.3696 1.345zm-1.2119 10.542h2.4155v-9.139h-2.4155zm4.4543 0h2.4155v-5.288c0-1.236.689-2.033 1.8096-2.033 1.1455 0 1.685.672 1.685 1.959v5.362h2.4156v-5.91c0-2.183-1.0957-3.428-3.1294-3.428-1.3531 0-2.2827.639-2.7061 1.668h-.1494v-1.469h-2.3408zm14.299 3.461c2.7641 0 4.5151-1.344 4.5151-3.478v-9.122h-2.3403v1.461h-.1494c-.4898-.996-1.544-1.611-2.7808-1.611-2.3242 0-3.752 1.81-3.752 4.641 0 2.739 1.4195 4.515 3.7022 4.515 1.2866 0 2.2495-.523 2.7558-1.486h.1495v1.702c0 1.054-.7554 1.668-2.0503 1.668-1.0459 0-1.7266-.365-1.8511-.946h-2.3906c.1494 1.602 1.7597 2.656 4.1919 2.656zm.0332-5.445c-1.3116 0-2.0586-1.029-2.0586-2.673 0-1.643.7553-2.673 2.0586-2.673 1.3032 0 2.0918 1.03 2.0918 2.673 0 1.644-.7803 2.673-2.0918 2.673z"/><path d="m209.496 414.861h-2.415v5.279c0 1.254-.648 2.026-1.852 2.026-1.112 0-1.685-.656-1.685-1.951v-5.354h-2.415v5.951c0 2.126 1.228 3.379 3.204 3.379 1.386 0 2.241-.598 2.673-1.66h.149v1.469h2.341zm2.014 9.139h2.415v-5.288c0-1.236.689-2.033 1.81-2.033 1.146 0 1.685.672 1.685 1.959v5.362h2.416v-5.91c0-2.183-1.096-3.428-3.13-3.428-1.353 0-2.283.639-2.706 1.668h-.149v-1.469h-2.341zm10.954-11.322v2.266h-1.428v1.834h1.428v4.757c0 1.776.88 2.498 3.104 2.498.465 0 .913-.05 1.212-.108v-1.784c-.232.025-.398.041-.714.041-.822 0-1.187-.382-1.187-1.203v-4.201h1.901v-1.834h-1.901v-2.266zm7.152.78c.747 0 1.361-.598 1.361-1.345 0-.755-.614-1.353-1.361-1.353s-1.37.598-1.37 1.353c0 .747.623 1.345 1.37 1.345zm-1.212 10.542h2.415v-9.139h-2.415zm4.537 0h2.416v-12.634h-2.416z"/></g><path d="m112.826 648v-4.958h.097l3.577 4.958h1.343v-7.75h-1.553v4.936h-.096l-3.567-4.936h-1.353v7.75zm9.443.124c1.82 0 2.916-1.15 2.916-3.083 0-1.918-1.112-3.083-2.916-3.083-1.805 0-2.917 1.17-2.917 3.083 0 1.928 1.096 3.083 2.917 3.083zm0-1.236c-.838 0-1.311-.677-1.311-1.847 0-1.161.478-1.843 1.311-1.843.827 0 1.31.682 1.31 1.843 0 1.17-.478 1.847-1.31 1.847zm12.413-2.739c-.129-1.321-1.069-2.191-2.638-2.191-1.853 0-2.895 1.122-2.895 3.072 0 1.971 1.048 3.094 2.895 3.094 1.542 0 2.509-.849 2.638-2.149h-1.461c-.119.591-.538.908-1.177.908-.838 0-1.316-.661-1.316-1.853 0-1.176.473-1.826 1.316-1.826.666 0 1.069.376 1.177.945zm2.916 3.942c.768 0 1.413-.327 1.719-.875h.097v.784h1.514v-4.039c0-1.262-.886-2.003-2.454-2.003-1.488 0-2.493.682-2.595 1.767h1.44c.129-.371.505-.57 1.069-.57.644 0 .999.296.999.806v.489l-1.434.086c-1.472.086-2.294.709-2.294 1.777 0 1.08.801 1.778 1.939 1.778zm.516-1.144c-.543 0-.924-.274-.924-.73 0-.435.328-.688.999-.731l1.198-.08v.44c0 .623-.548 1.101-1.273 1.101zm4.42 1.053h1.563v-3.421c0-.801.446-1.316 1.171-1.316.741 0 1.091.435 1.091 1.267v3.47h1.563v-3.824c0-1.413-.709-2.218-2.025-2.218-.876 0-1.477.413-1.751 1.079h-.097v-.951h-1.515zm12.22-3.851c-.129-1.321-1.069-2.191-2.637-2.191-1.853 0-2.895 1.122-2.895 3.072 0 1.971 1.047 3.094 2.895 3.094 1.541 0 2.508-.849 2.637-2.149h-1.461c-.118.591-.537.908-1.176.908-.838 0-1.316-.661-1.316-1.853 0-1.176.472-1.826 1.316-1.826.666 0 1.068.376 1.176.945zm5.124 2.181c-.166.402-.591.628-1.208.628-.817 0-1.333-.564-1.354-1.466v-.081h4.066v-.467c0-1.869-1.031-2.986-2.777-2.986-1.762 0-2.847 1.192-2.847 3.115 0 1.912 1.064 3.051 2.869 3.051 1.45 0 2.476-.693 2.707-1.794zm-1.268-3.207c.731 0 1.204.505 1.236 1.316h-2.525c.054-.795.564-1.316 1.289-1.316zm4.179 4.877h1.563v-8.175h-1.563zm3.314 0h1.563v-8.175h-1.563zm4.883.091c.768 0 1.413-.327 1.719-.875h.096v.784h1.515v-4.039c0-1.262-.886-2.003-2.455-2.003-1.487 0-2.492.682-2.594 1.767h1.44c.129-.371.505-.57 1.069-.57.644 0 .999.296.999.806v.489l-1.435.086c-1.471.086-2.293.709-2.293 1.777 0 1.08.8 1.778 1.939 1.778zm.516-1.144c-.543 0-.924-.274-.924-.73 0-.435.327-.688.999-.731l1.198-.08v.44c0 .623-.548 1.101-1.273 1.101zm4.866-6.273v1.466h-.924v1.187h.924v3.078c0 1.149.569 1.616 2.009 1.616.301 0 .591-.032.784-.069v-1.155c-.15.016-.258.027-.462.027-.532 0-.768-.247-.768-.779v-2.718h1.23v-1.187h-1.23v-1.466zm4.963.505c.483 0 .881-.387.881-.87 0-.489-.398-.876-.881-.876s-.886.387-.886.876c0 .483.403.87.886.87zm-.784 6.821h1.563v-5.914h-1.563zm5.844.124c1.821 0 2.916-1.15 2.916-3.083 0-1.918-1.112-3.083-2.916-3.083-1.805 0-2.917 1.17-2.917 3.083 0 1.928 1.096 3.083 2.917 3.083zm0-1.236c-.838 0-1.311-.677-1.311-1.847 0-1.161.478-1.843 1.311-1.843.827 0 1.31.682 1.31 1.843 0 1.17-.478 1.847-1.31 1.847zm4.265 1.112h1.563v-3.421c0-.801.445-1.316 1.17-1.316.742 0 1.091.435 1.091 1.267v3.47h1.563v-3.824c0-1.413-.709-2.218-2.025-2.218-.876 0-1.477.413-1.751 1.079h-.097v-.951h-1.514zm10.339 0h1.563v-4.673h1.225v-1.187h-1.257v-.499c0-.516.226-.768.838-.768.204 0 .365.016.467.032v-1.08c-.225-.032-.489-.059-.805-.059-1.429 0-2.031.591-2.031 1.767v.607h-.956v1.187h.956zm7.729-1.67c-.166.402-.59.628-1.208.628-.816 0-1.332-.564-1.354-1.466v-.081h4.066v-.467c0-1.869-1.031-2.986-2.776-2.986-1.762 0-2.847 1.192-2.847 3.115 0 1.912 1.063 3.051 2.868 3.051 1.45 0 2.476-.693 2.707-1.794zm-1.267-3.207c.73 0 1.203.505 1.235 1.316h-2.524c.054-.795.564-1.316 1.289-1.316zm7.955 3.207c-.167.402-.591.628-1.209.628-.816 0-1.332-.564-1.353-1.466v-.081h4.066v-.467c0-1.869-1.032-2.986-2.777-2.986-1.762 0-2.847 1.192-2.847 3.115 0 1.912 1.064 3.051 2.868 3.051 1.45 0 2.476-.693 2.707-1.794zm-1.268-3.207c.731 0 1.203.505 1.235 1.316h-2.524c.054-.795.564-1.316 1.289-1.316zm8.653 4.968c.768 0 1.413-.327 1.719-.875h.097v.784h1.514v-4.039c0-1.262-.886-2.003-2.454-2.003-1.488 0-2.492.682-2.594 1.767h1.439c.129-.371.505-.57 1.069-.57.644 0 .999.296.999.806v.489l-1.434.086c-1.472.086-2.294.709-2.294 1.777 0 1.08.801 1.778 1.939 1.778zm.516-1.144c-.543 0-.924-.274-.924-.73 0-.435.328-.688.999-.731l1.198-.08v.44c0 .623-.548 1.101-1.273 1.101zm7.842-4.957c-.817 0-1.488.403-1.81 1.069h-.097v-.973h-1.515v7.874h1.563v-2.862h.097c.29.623.94.993 1.789.993 1.482 0 2.39-1.149 2.39-3.05 0-1.907-.919-3.051-2.417-3.051zm-.532 4.839c-.827 0-1.343-.677-1.343-1.783 0-1.107.516-1.789 1.349-1.789.832 0 1.337.672 1.337 1.784 0 1.117-.5 1.788-1.343 1.788zm7.713-4.839c-.816 0-1.488.403-1.81 1.069h-.097v-.973h-1.514v7.874h1.563v-2.862h.096c.291.623.94.993 1.789.993 1.482 0 2.39-1.149 2.39-3.05 0-1.907-.918-3.051-2.417-3.051zm-.532 4.839c-.827 0-1.342-.677-1.342-1.783 0-1.107.515-1.789 1.348-1.789.832 0 1.337.672 1.337 1.784 0 1.117-.499 1.788-1.343 1.788zm4.346 1.171h1.563v-8.175h-1.563zm4.055-6.821c.484 0 .881-.387.881-.87 0-.489-.397-.876-.881-.876-.483 0-.886.387-.886.876 0 .483.403.87.886.87zm-.784 6.821h1.563v-5.914h-1.563zm7.047-1.67c-.166.402-.591.628-1.208.628-.817 0-1.332-.564-1.354-1.466v-.081h4.066v-.467c0-1.869-1.031-2.986-2.777-2.986-1.762 0-2.847 1.192-2.847 3.115 0 1.912 1.064 3.051 2.869 3.051 1.45 0 2.476-.693 2.707-1.794zm-1.267-3.207c.73 0 1.203.505 1.235 1.316h-2.525c.054-.795.564-1.316 1.29-1.316zm3.99.688c0 .907.559 1.45 1.708 1.702l1.075.242c.521.118.746.301.746.601 0 .393-.419.661-1.026.661-.623 0-1.004-.242-1.122-.65h-1.526c.108 1.117 1.053 1.757 2.616 1.757 1.552 0 2.61-.763 2.61-1.934 0-.881-.515-1.364-1.665-1.617l-1.111-.241c-.548-.124-.801-.312-.801-.613 0-.386.414-.65.972-.65.581 0 .94.242 1.021.634h1.445c-.086-1.117-.972-1.745-2.476-1.745-1.477 0-2.466.746-2.466 1.853zm7.563 4.323c.58 0 .951-.386.951-.913 0-.526-.371-.908-.951-.908-.575 0-.951.382-.951.908 0 .527.376.913.951.913z" fill="#27303f"/><path d="m90 590h196c11.046 0 20 8.954 20 20s-8.954 20-20 20h-196z" fill="#bdf0da"/><path d="m126.512 607v-3.174l2.734-4.576h-1.337l-1.95 3.378h-.091l-1.95-3.378h-1.337l2.728 4.576v3.174zm5.533.113c1.708 0 2.755-1.144 2.755-3.03 0-1.885-1.053-3.029-2.755-3.029-1.708 0-2.761 1.15-2.761 3.029 0 1.886 1.047 3.03 2.761 3.03zm0-.983c-1.005 0-1.569-.747-1.569-2.047 0-1.299.564-2.051 1.569-2.051.999 0 1.568.752 1.568 2.051 0 1.295-.569 2.047-1.568 2.047zm9.147-4.963h-1.155v3.421c0 .94-.51 1.51-1.445 1.51-.849 0-1.23-.462-1.23-1.429v-3.502h-1.155v3.787c0 1.369.72 2.159 2.015 2.159.886 0 1.482-.376 1.767-1.037h.091v.924h1.112zm9.775 1.875c-.15-1.134-1.036-1.988-2.502-1.988-1.703 0-2.74 1.155-2.74 3.008 0 1.891 1.042 3.051 2.745 3.051 1.445 0 2.347-.811 2.497-1.961h-1.122c-.15.634-.65.978-1.38.978-.962 0-1.558-.779-1.558-2.068 0-1.262.591-2.025 1.558-2.025.773 0 1.246.435 1.38 1.005zm3.008 4.055c.769 0 1.408-.333 1.757-.924h.091v.827h1.112v-3.991c0-1.224-.827-1.955-2.294-1.955-1.326 0-2.271.639-2.39 1.622h1.118c.128-.424.574-.666 1.219-.666.789 0 1.198.36 1.198.999v.511l-1.585.096c-1.391.086-2.175.693-2.175 1.74 0 1.064.822 1.741 1.949 1.741zm.296-.93c-.629 0-1.085-.316-1.085-.859 0-.532.365-.816 1.171-.87l1.429-.097v.505c0 .752-.645 1.321-1.515 1.321zm4.377.833h1.155v-3.421c0-.94.543-1.52 1.397-1.52s1.262.472 1.262 1.439v3.502h1.155v-3.776c0-1.391-.72-2.17-2.025-2.17-.881 0-1.461.392-1.746 1.037h-.086v-.924h-1.112zm9.61-4.2c0 .865.515 1.359 1.627 1.617l1.021.241c.585.14.859.376.859.741 0 .478-.51.811-1.23.811-.698 0-1.128-.284-1.273-.741h-1.155c.102 1.015 1.01 1.644 2.401 1.644 1.397 0 2.423-.736 2.423-1.821 0-.849-.521-1.327-1.633-1.584l-.972-.226c-.634-.15-.93-.376-.93-.736 0-.473.489-.789 1.134-.789.655 0 1.074.284 1.181.719h1.107c-.113-1.009-.972-1.622-2.288-1.622-1.322 0-2.272.731-2.272 1.746zm6.499-3.105v1.488h-.929v.924h.929v3.357c0 1.122.51 1.574 1.794 1.574.225 0 .44-.027.628-.059v-.919c-.161.016-.263.027-.44.027-.575 0-.827-.274-.827-.902v-3.078h1.267v-.924h-1.267v-1.488zm6.257 7.418c1.708 0 2.756-1.144 2.756-3.03 0-1.885-1.053-3.029-2.756-3.029-1.708 0-2.76 1.15-2.76 3.029 0 1.886 1.047 3.03 2.76 3.03zm0-.983c-1.004 0-1.568-.747-1.568-2.047 0-1.299.564-2.051 1.568-2.051.999 0 1.569.752 1.569 2.051 0 1.295-.57 2.047-1.569 2.047zm7.252-5.065c-.795 0-1.483.403-1.837 1.069h-.086v-.967h-1.112v7.777h1.155v-2.825h.091c.306.618.967.978 1.799.978 1.477 0 2.417-1.171 2.417-3.014 0-1.853-.94-3.018-2.427-3.018zm-.328 5.043c-.967 0-1.574-.778-1.574-2.025 0-1.251.607-2.03 1.579-2.03.978 0 1.563.763 1.563 2.03 0 1.268-.585 2.025-1.568 2.025zm7.702-6.413v1.488h-.929v.924h.929v3.357c0 1.122.511 1.574 1.794 1.574.226 0 .441-.027.629-.059v-.919c-.161.016-.263.027-.441.027-.574 0-.827-.274-.827-.902v-3.078h1.268v-.924h-1.268v-1.488zm3.905 7.305h1.155v-3.416c0-.913.527-1.52 1.472-1.52.816 0 1.251.478 1.251 1.439v3.497h1.155v-3.771c0-1.38-.768-2.169-2.014-2.169-.881 0-1.499.386-1.783 1.036h-.092v-3.217h-1.144zm10.566-1.563c-.215.473-.693.73-1.392.73-.923 0-1.52-.666-1.557-1.724v-.053h4.13v-.398c0-1.826-.983-2.938-2.61-2.938-1.649 0-2.696 1.187-2.696 3.04 0 1.864 1.025 3.019 2.701 3.019 1.338 0 2.283-.645 2.535-1.676zm-1.435-3.443c.854 0 1.413.618 1.44 1.563h-2.954c.064-.94.66-1.563 1.514-1.563zm7.015.806c0 .865.516 1.359 1.628 1.617l1.02.241c.586.14.86.376.86.741 0 .478-.51.811-1.23.811-.698 0-1.128-.284-1.273-.741h-1.155c.102 1.015 1.01 1.644 2.401 1.644 1.396 0 2.422-.736 2.422-1.821 0-.849-.521-1.327-1.633-1.584l-.972-.226c-.633-.15-.929-.376-.929-.736 0-.473.489-.789 1.133-.789.656 0 1.075.284 1.182.719h1.107c-.113-1.009-.973-1.622-2.289-1.622-1.321 0-2.272.731-2.272 1.746zm11.065-1.633h-1.155v3.421c0 .94-.51 1.51-1.445 1.51-.848 0-1.23-.462-1.23-1.429v-3.502h-1.154v3.787c0 1.369.719 2.159 2.014 2.159.886 0 1.482-.376 1.767-1.037h.091v.924h1.112zm4.845 5.93c1.477 0 2.417-1.177 2.417-3.014 0-1.853-.935-3.018-2.417-3.018-.8 0-1.488.392-1.799 1.026h-.092v-3.212h-1.154v8.121h1.111v-.924h.086c.349.645 1.032 1.021 1.848 1.021zm-.333-5.044c.978 0 1.563.768 1.563 2.03 0 1.263-.585 2.025-1.563 2.025-.972 0-1.574-.773-1.579-2.025.005-1.251.612-2.03 1.579-2.03zm4.077.747c0 .865.515 1.359 1.627 1.617l1.021.241c.585.14.859.376.859.741 0 .478-.51.811-1.23.811-.698 0-1.128-.284-1.273-.741h-1.155c.102 1.015 1.01 1.644 2.401 1.644 1.397 0 2.423-.736 2.423-1.821 0-.849-.521-1.327-1.633-1.584l-.972-.226c-.634-.15-.93-.376-.93-.736 0-.473.489-.789 1.134-.789.655 0 1.074.284 1.181.719h1.107c-.113-1.009-.972-1.622-2.288-1.622-1.322 0-2.272.731-2.272 1.746zm11.086.242c-.15-1.134-1.037-1.988-2.503-1.988-1.703 0-2.739 1.155-2.739 3.008 0 1.891 1.042 3.051 2.744 3.051 1.445 0 2.348-.811 2.498-1.961h-1.123c-.15.634-.65.978-1.38.978-.961 0-1.558-.779-1.558-2.068 0-1.262.591-2.025 1.558-2.025.773 0 1.246.435 1.38 1.005zm1.391 3.958h1.155v-3.486c0-.822.618-1.386 1.493-1.386.204 0 .548.038.645.065v-1.085c-.124-.027-.344-.043-.516-.043-.763 0-1.413.414-1.579.988h-.086v-.886h-1.112zm5.071-6.875c.403 0 .73-.328.73-.725 0-.403-.327-.731-.73-.731s-.731.328-.731.731c0 .397.328.725.731.725zm-.575 6.875h1.149v-5.833h-1.149zm5.951-5.935c-.795 0-1.482.403-1.837 1.069h-.086v-.967h-1.111v7.777h1.154v-2.825h.092c.306.618.967.978 1.799.978 1.477 0 2.417-1.171 2.417-3.014 0-1.853-.94-3.018-2.428-3.018zm-.327 5.043c-.967 0-1.574-.778-1.574-2.025 0-1.251.607-2.03 1.579-2.03.978 0 1.563.763 1.563 2.03 0 1.268-.585 2.025-1.568 2.025zm4.624-6.413v1.488h-.929v.924h.929v3.357c0 1.122.511 1.574 1.794 1.574.226 0 .441-.027.629-.059v-.919c-.161.016-.263.027-.441.027-.574 0-.827-.274-.827-.902v-3.078h1.268v-.924h-1.268v-1.488zm4.448.43c.403 0 .73-.328.73-.725 0-.403-.327-.731-.73-.731s-.731.328-.731.731c0 .397.328.725.731.725zm-.575 6.875h1.15v-5.833h-1.15zm5.388.113c1.708 0 2.755-1.144 2.755-3.03 0-1.885-1.053-3.029-2.755-3.029-1.709 0-2.761 1.15-2.761 3.029 0 1.886 1.047 3.03 2.761 3.03zm0-.983c-1.005 0-1.569-.747-1.569-2.047 0-1.299.564-2.051 1.569-2.051.999 0 1.568.752 1.568 2.051 0 1.295-.569 2.047-1.568 2.047zm4.216.87h1.155v-3.421c0-.94.542-1.52 1.396-1.52s1.262.472 1.262 1.439v3.502h1.155v-3.776c0-1.391-.719-2.17-2.025-2.17-.881 0-1.461.392-1.745 1.037h-.086v-.924h-1.112zm-137.021 13.097c.768 0 1.407-.333 1.756-.924h.092v.827h1.111v-3.991c0-1.224-.827-1.955-2.293-1.955-1.327 0-2.272.639-2.39 1.622h1.117c.129-.424.575-.666 1.219-.666.79 0 1.198.36 1.198.999v.511l-1.584.096c-1.392.086-2.176.693-2.176 1.74 0 1.064.822 1.741 1.95 1.741zm.295-.93c-.628 0-1.085-.316-1.085-.859 0-.532.366-.816 1.171-.87l1.429-.097v.505c0 .752-.644 1.321-1.515 1.321zm4.378.833h1.155v-3.421c0-.94.542-1.52 1.396-1.52s1.262.472 1.262 1.439v3.502h1.155v-3.776c0-1.391-.719-2.17-2.025-2.17-.88 0-1.461.392-1.745 1.037h-.086v-.924h-1.112zm7.052 2.116c1.193 0 1.746-.446 2.246-1.847l2.18-6.102h-1.224l-1.461 4.673h-.092l-1.466-4.673h-1.257l2.116 5.849-.086.301c-.198.618-.51.849-1.058.849-.107 0-.284-.006-.376-.022v.945c.108.016.382.027.478.027zm6.086-9.421v1.488h-.929v.924h.929v3.357c0 1.122.51 1.574 1.794 1.574.226 0 .44-.027.628-.059v-.919c-.161.016-.263.027-.44.027-.575 0-.827-.274-.827-.902v-3.078h1.267v-.924h-1.267v-1.488zm4.448.43c.402 0 .73-.328.73-.725 0-.403-.328-.731-.73-.731-.403 0-.731.328-.731.731 0 .397.328.725.731.725zm-.575 6.875h1.149v-5.833h-1.149zm2.916 0h1.155v-3.583c0-.762.532-1.358 1.236-1.358.687 0 1.128.413 1.128 1.079v3.862h1.133v-3.69c0-.704.489-1.251 1.235-1.251.758 0 1.134.392 1.134 1.197v3.744h1.154v-4.023c0-1.214-.687-1.923-1.869-1.923-.811 0-1.482.414-1.778 1.042h-.091c-.258-.628-.811-1.042-1.611-1.042-.779 0-1.37.387-1.628 1.042h-.086v-.929h-1.112zm13.702-1.563c-.215.473-.693.73-1.391.73-.924 0-1.52-.666-1.557-1.724v-.053h4.13v-.398c0-1.826-.983-2.938-2.61-2.938-1.649 0-2.697 1.187-2.697 3.04 0 1.864 1.026 3.019 2.702 3.019 1.337 0 2.283-.645 2.535-1.676zm-1.434-3.443c.854 0 1.413.618 1.44 1.563h-2.954c.064-.94.66-1.563 1.514-1.563zm14.766-.827h-1.155l-1.042 4.501h-.091l-1.203-4.501h-1.107l-1.203 4.501h-.086l-1.047-4.501h-1.171l1.611 5.833h1.187l1.203-4.351h.092l1.208 4.351h1.198zm1.858-1.042c.403 0 .731-.328.731-.725 0-.403-.328-.731-.731-.731s-.73.328-.73.731c0 .397.327.725.73.725zm-.574 6.875h1.149v-5.833h-1.149zm3.324-7.305v1.488h-.929v.924h.929v3.357c0 1.122.511 1.574 1.794 1.574.226 0 .441-.027.629-.059v-.919c-.161.016-.263.027-.441.027-.574 0-.827-.274-.827-.902v-3.078h1.268v-.924h-1.268v-1.488zm3.905 7.305h1.155v-3.416c0-.913.527-1.52 1.472-1.52.816 0 1.251.478 1.251 1.439v3.497h1.155v-3.771c0-1.38-.768-2.169-2.014-2.169-.881 0-1.499.386-1.783 1.036h-.092v-3.217h-1.144zm9.577-2.068c.086 1.375 1.241 2.256 2.96 2.256 1.837 0 2.986-.924 2.986-2.39 0-1.16-.655-1.799-2.245-2.181l-.854-.209c-1.01-.247-1.418-.57-1.418-1.134 0-.725.634-1.192 1.585-1.192.902 0 1.525.451 1.638 1.187h1.171c-.07-1.294-1.22-2.207-2.793-2.207-1.692 0-2.82.913-2.82 2.277 0 1.128.639 1.794 2.041 2.132l.999.242c1.026.247 1.477.623 1.477 1.23 0 .709-.709 1.219-1.676 1.219-1.036 0-1.756-.478-1.858-1.23zm12.397-3.765h-1.155v3.421c0 .94-.51 1.51-1.444 1.51-.849 0-1.23-.462-1.23-1.429v-3.502h-1.155v3.787c0 1.369.719 2.159 2.014 2.159.886 0 1.482-.376 1.767-1.037h.091v.924h1.112zm4.781-.102c-.795 0-1.483.403-1.837 1.069h-.086v-.967h-1.112v7.777h1.155v-2.825h.091c.306.618.967.978 1.799.978 1.477 0 2.417-1.171 2.417-3.014 0-1.853-.94-3.018-2.427-3.018zm-.328 5.043c-.967 0-1.574-.778-1.574-2.025 0-1.251.607-2.03 1.579-2.03.978 0 1.563.763 1.563 2.03 0 1.268-.585 2.025-1.568 2.025zm8.051-.671c-.214.473-.693.73-1.391.73-.924 0-1.52-.666-1.557-1.724v-.053h4.13v-.398c0-1.826-.983-2.938-2.61-2.938-1.649 0-2.697 1.187-2.697 3.04 0 1.864 1.026 3.019 2.702 3.019 1.337 0 2.283-.645 2.535-1.676zm-1.434-3.443c.854 0 1.413.618 1.44 1.563h-2.954c.064-.94.66-1.563 1.514-1.563zm4.072 5.006h1.155v-3.486c0-.822.617-1.386 1.493-1.386.204 0 .548.038.644.065v-1.085c-.123-.027-.344-.043-.515-.043-.763 0-1.413.414-1.579.988h-.086v-.886h-1.112zm5.811 0v-3.244h3.331v-1.015h-3.331v-2.455h3.637v-1.036h-4.84v7.75zm5.189 0h1.155v-8.121h-1.155zm5.43.113c1.708 0 2.756-1.144 2.756-3.03 0-1.885-1.053-3.029-2.756-3.029-1.708 0-2.76 1.15-2.76 3.029 0 1.886 1.047 3.03 2.76 3.03zm0-.983c-1.004 0-1.568-.747-1.568-2.047 0-1.299.564-2.051 1.568-2.051.999 0 1.569.752 1.569 2.051 0 1.295-.57 2.047-1.569 2.047zm11.608-4.963h-1.155l-1.042 4.501h-.092l-1.203-4.501h-1.106l-1.203 4.501h-.086l-1.048-4.501h-1.17l1.611 5.833h1.187l1.203-4.351h.091l1.209 4.351h1.198zm1.375 5.914c.456 0 .789-.339.789-.774s-.333-.773-.789-.773c-.451 0-.79.338-.79.773s.339.774.79.774z" fill="#27303f"/><rect fill="#31c48d" height="40" rx="16" width="40" x="70" y="590"/><path d="m84.9375 606.508h2.0039c.1289-1.676 1.2539-2.719 3.0234-2.719 1.7461 0 2.8711 1.066 2.8711 2.52 0 1.253-.5273 1.992-1.8867 2.824-1.6054.961-2.3554 2.015-2.3437 3.562v1.078h2.0507v-.761c0-1.231.4219-1.887 1.9102-2.766 1.5-.902 2.4492-2.203 2.4492-4.043 0-2.414-2.0156-4.242-4.9687-4.242-3.293 0-4.9805 2.016-5.1094 4.547zm4.8516 12.703c.9492 0 1.6171-.68 1.6171-1.629 0-.961-.6679-1.641-1.6171-1.641-.9493 0-1.6289.68-1.6289 1.641 0 .949.6796 1.629 1.6289 1.629z" fill="#fff"/><path d="m119.062 303.053v1.157h1.934c.044.227.073.454.073.681 0 1.187-.777 2.117-1.948 2.344v1.655h8.056v-1.765h-5.215v-.095c.74-.432 1.202-1.253 1.202-2.227 0-.205-.022-.395-.059-.593h3.003v-1.157h-3.318c-.154-.476-.293-.945-.293-1.428 0-1.011.769-1.641 2.205-1.641.805 0 1.582.146 1.999.359v-1.692c-.432-.227-1.362-.396-2.314-.396-2.564 0-4.051 1.238-4.051 3.106 0 .578.162 1.135.337 1.692zm14.006 6.211c2.754 0 4.409-2.117 4.409-5.64 0-3.45-1.692-5.464-4.373-5.464-2.365 0-4.043 1.553-4.043 3.743 0 2.021 1.472 3.493 3.479 3.493 1.231 0 2.212-.556 2.696-1.552h.131c.008 2.3-.835 3.662-2.27 3.662-.835 0-1.516-.454-1.707-1.172h-2.19c.293 1.75 1.861 2.93 3.868 2.93zm.051-5.508c-1.128 0-1.912-.791-1.912-1.919 0-1.084.813-1.926 1.919-1.926s1.912.857 1.912 1.963c0 1.084-.791 1.882-1.919 1.882zm6.872 5.427c.791 0 1.296-.527 1.296-1.245s-.505-1.238-1.296-1.238c-.784 0-1.297.52-1.297 1.238s.513 1.245 1.297 1.245zm6.674.081c2.754 0 4.409-2.117 4.409-5.64 0-3.45-1.692-5.464-4.373-5.464-2.365 0-4.043 1.553-4.043 3.743 0 2.021 1.473 3.493 3.479 3.493 1.231 0 2.212-.556 2.696-1.552h.132c.007 2.3-.835 3.662-2.271 3.662-.835 0-1.516-.454-1.706-1.172h-2.19c.293 1.75 1.86 2.93 3.867 2.93zm.051-5.508c-1.128 0-1.912-.791-1.912-1.919 0-1.084.813-1.926 1.919-1.926s1.912.857 1.912 1.963c0 1.084-.791 1.882-1.919 1.882zm9.977 5.508c2.754 0 4.41-2.117 4.41-5.64 0-3.45-1.692-5.464-4.373-5.464-2.366 0-4.043 1.553-4.043 3.743 0 2.021 1.472 3.493 3.479 3.493 1.23 0 2.212-.556 2.695-1.552h.132c.007 2.3-.835 3.662-2.27 3.662-.835 0-1.516-.454-1.707-1.172h-2.19c.293 1.75 1.86 2.93 3.867 2.93zm.052-5.508c-1.128 0-1.912-.791-1.912-1.919 0-1.084.813-1.926 1.919-1.926s1.912.857 1.912 1.963c0 1.084-.791 1.882-1.919 1.882z" fill="#364152"/><rect fill="#cfd8e3" height="28" rx="8" width="75" x="262" y="366"/><path d="m273.618 380.364h1.34c1.187 0 1.919.6 1.919 1.567 0 .93-.783 1.56-1.904 1.56-1.135 0-1.897-.578-1.963-1.494h-2.116c.095 1.978 1.721 3.274 4.108 3.274 2.388 0 4.131-1.311 4.131-3.157 0-1.421-.893-2.358-2.365-2.578v-.132c1.135-.285 1.94-1.12 1.948-2.402.007-1.545-1.297-2.842-3.64-2.842-2.381 0-3.882 1.311-3.955 3.237h2.043c.073-.974.732-1.53 1.802-1.53 1.033 0 1.655.622 1.655 1.435 0 .879-.681 1.487-1.684 1.487h-1.319zm11.237 4.907c2.615 0 4.197-2.065 4.197-5.566 0-3.509-1.604-5.545-4.197-5.545-2.6 0-4.197 2.036-4.197 5.537 0 3.509 1.582 5.574 4.197 5.574zm0-1.75c-1.208 0-1.955-1.29-1.955-3.824 0-2.512.754-3.786 1.955-3.786 1.209 0 1.956 1.267 1.956 3.786 0 2.534-.74 3.824-1.956 3.824zm12.484 1.604c1.121 0 2.036-.521 2.468-1.392h.132v1.267h2.066v-11.147h-2.132v4.372h-.124c-.418-.893-1.319-1.421-2.41-1.421-2.029 0-3.288 1.59-3.288 4.153 0 2.571 1.252 4.168 3.288 4.168zm.725-6.592c1.135 0 1.831.93 1.831 2.439 0 1.508-.688 2.431-1.831 2.431-1.142 0-1.824-.915-1.824-2.439 0-1.516.689-2.431 1.824-2.431zm8.124 6.592c1.048 0 1.927-.447 2.344-1.194h.132v1.069h2.065v-5.508c0-1.721-1.208-2.732-3.347-2.732-2.029 0-3.398.93-3.537 2.41h1.963c.175-.505.688-.776 1.457-.776.879 0 1.362.402 1.362 1.098v.667l-1.955.117c-2.007.117-3.128.967-3.128 2.424 0 1.472 1.092 2.425 2.644 2.425zm.704-1.561c-.74 0-1.26-.373-1.26-.996 0-.593.447-.937 1.362-.996l1.633-.11v.601c0 .85-.747 1.501-1.735 1.501zm6.476 4.366c2.014 0 3.003-.718 3.691-2.776l2.783-8.218h-2.255l-1.7 6.152h-.131l-1.7-6.152h-2.351l2.835 8.108-.073.308c-.176.651-.63.915-1.429.915-.088 0-.41-.007-.483-.022v1.663c.088.014.732.022.813.022zm7.318-8.643c0 1.238.762 1.978 2.33 2.322l1.464.329c.711.162 1.018.411 1.018.821 0 .534-.571.901-1.398.901-.85 0-1.37-.33-1.531-.887h-2.08c.146 1.524 1.435 2.395 3.567 2.395 2.116 0 3.559-1.04 3.559-2.636 0-1.201-.703-1.861-2.27-2.205l-1.516-.329c-.748-.169-1.092-.425-1.092-.835 0-.528.564-.887 1.326-.887.791 0 1.282.33 1.392.865h1.97c-.117-1.524-1.326-2.381-3.377-2.381-2.014 0-3.362 1.018-3.362 2.527z" fill="#364152"/><rect fill="#cfd8e3" height="28" rx="8" width="70" x="32" y="366"/><path d="m40.8057 382.078c.0805 1.955 1.7138 3.193 4.2334 3.193 2.6513 0 4.2846-1.304 4.2846-3.413 0-1.633-.9155-2.549-3.0395-3.003l-1.2744-.271c-1.2378-.271-1.7432-.659-1.7432-1.326 0-.827.7324-1.362 1.8384-1.362 1.0693 0 1.8457.564 1.9482 1.428h2.0801c-.0659-1.867-1.7139-3.164-4.043-3.164-2.4389 0-4.0429 1.304-4.0429 3.274 0 1.604.9448 2.593 2.8711 3.003l1.3769.3c1.2964.286 1.8237.689 1.8237 1.385 0 .82-.8129 1.399-1.9629 1.399-1.2451 0-2.1093-.564-2.2119-1.443zm14.8259-5.274c-1.1133 0-2.0288.55-2.4683 1.458h-.1318v-1.326h-2.0654v10.737h2.1313v-3.903h.1318c.3955.849 1.2818 1.355 2.439 1.355 2.0215 0 3.2593-1.568 3.2593-4.161 0-2.6-1.2525-4.16-3.2959-4.16zm-.7251 6.599c-1.1279 0-1.8311-.923-1.8311-2.431 0-1.509.7032-2.439 1.8384-2.439 1.1353 0 1.8237.915 1.8237 2.431 0 1.524-.6811 2.439-1.831 2.439zm9.0984 1.765c2.4829 0 3.977-1.567 3.977-4.204 0-2.614-1.5161-4.204-3.977-4.204-2.461 0-3.9771 1.597-3.9771 4.204 0 2.63 1.4942 4.204 3.9771 4.204zm0-1.684c-1.1426 0-1.7871-.923-1.7871-2.52 0-1.582.6518-2.512 1.7871-2.512 1.1279 0 1.7871.93 1.7871 2.512 0 1.597-.6519 2.52-1.7871 2.52zm6.0881-8.474v1.999h-1.2598v1.619h1.2598v4.197c0 1.567.7764 2.204 2.7392 2.204.4102 0 .8057-.044 1.0694-.095v-1.575c-.2051.022-.3516.037-.6299.037-.7251 0-1.0474-.337-1.0474-1.062v-3.706h1.6773v-1.619h-1.6773v-1.999zm6.4324.688c.6591 0 1.2011-.527 1.2011-1.186 0-.667-.542-1.194-1.2011-1.194-.6592 0-1.2085.527-1.2085 1.194 0 .659.5493 1.186 1.2085 1.186zm-1.0694 9.302h2.1314v-8.064h-2.1314zm4.6746 0h2.1313v-6.372h1.6699v-1.619h-1.7138v-.681c0-.703.3076-1.047 1.1425-1.047.2784 0 .4981.022.6373.044v-1.472c-.3077-.044-.6666-.081-1.0987-.081-1.9482 0-2.7685.806-2.7685 2.41v.827h-1.3037v1.619h1.3037zm6.2639 2.93c2.0141 0 3.0029-.718 3.6914-2.776l2.7832-8.218h-2.2559l-1.6992 6.152h-.1318l-1.6992-6.152h-2.3511l2.8344 8.108-.0732.308c-.1758.651-.6299.915-1.4282.915-.0879 0-.4102-.007-.4834-.022v1.663c.0879.014.7324.022.813.022z" fill="#364152"/><rect fill="#3f83f8" height="28" rx="8" width="240" x="32" y="328"/><path d="m40.8203 344.136c.0952 1.912 1.6992 3.128 4.1235 3.128 2.5635 0 4.1529-1.275 4.1529-3.326 0-1.604-.9009-2.497-3.0469-2.988l-1.2158-.278c-1.3111-.308-1.8457-.725-1.8457-1.45 0-.916.8056-1.516 2.0215-1.516 1.1572 0 1.9775.593 2.1093 1.538h1.8091c-.0879-1.809-1.6919-3.077-3.9111-3.077-2.3657 0-3.9331 1.275-3.9331 3.179 0 1.568.9009 2.512 2.8198 2.952l1.3696.315c1.355.315 1.9336.783 1.9336 1.553 0 .9-.9008 1.552-2.146 1.552-1.3403 0-2.2778-.615-2.395-1.582zm10.5486-7.104v2.014h-1.2671v1.413h1.2671v4.417c0 1.545.7324 2.161 2.5708 2.161.3516 0 .6885-.03.9521-.081v-1.392c-.2197.022-.3589.037-.6152.037-.7617 0-1.0986-.359-1.0986-1.157v-3.985h1.7138v-1.413h-1.7138v-2.014zm10.2483 7.778c-.2637.601-.8863.938-1.7871.938-1.1939 0-1.9629-.85-2.0069-2.205v-.095h5.5957v-.579c0-2.512-1.3696-4.028-3.6548-4.028-2.3217 0-3.7646 1.618-3.7646 4.189 0 2.564 1.4209 4.131 3.7793 4.131 1.8896 0 3.23-.908 3.5596-2.351zm-1.8604-4.556c1.0913 0 1.8091.769 1.8457 1.985h-3.772c.0806-1.201.8423-1.985 1.9263-1.985zm9.6111-1.391c-1.0986 0-2.0288.549-2.4902 1.457h-.1246v-1.325h-1.7504v10.664h1.8164v-3.875h.1245c.4101.85 1.2964 1.348 2.4463 1.348 2.0214 0 3.2812-1.59 3.2812-4.131 0-2.563-1.2744-4.138-3.3032-4.138zm-.5713 6.76c-1.2378 0-2.0068-1.003-2.0142-2.622.0074-1.619.7837-2.622 2.0215-2.622 1.2451 0 1.9995.981 1.9995 2.622s-.747 2.622-2.0068 2.622zm7.6628 1.509c1.0474 0 1.9263-.454 2.3731-1.231h.1245v1.099h1.7505v-5.471c0-1.692-1.1572-2.688-3.2154-2.688-1.9042 0-3.2299.893-3.3764 2.292h1.7139c.1684-.549.7397-.849 1.5747-.849.9814 0 1.5087.446 1.5087 1.245v.688l-2.0654.125c-1.9482.11-3.0395.952-3.0395 2.387 0 1.465 1.1059 2.403 2.6513 2.403zm.5347-1.399c-.8057 0-1.3843-.403-1.3843-1.091 0-.667.4761-1.04 1.4942-1.106l1.809-.125v.652c0 .952-.8203 1.67-1.9189 1.67zm5.6633 1.267h1.8164v-4.666c0-1.201.6812-1.955 1.7652-1.955 1.1059 0 1.6186.622 1.6186 1.868v4.753h1.8164v-5.178c0-1.905-.9741-2.981-2.7612-2.981-1.1939 0-1.9995.542-2.3804 1.435h-.1245v-1.281h-1.7505zm10.0432-6.313 1.3843-4.256h-1.8603l-.8057 4.256zm2.199.593c0 1.201.7251 1.904 2.2632 2.256l1.4209.329c.7617.176 1.1059.469 1.1059.923 0 .608-.6372 1.025-1.5527 1.025-.9082 0-1.4722-.366-1.648-.959h-1.7944c.1392 1.443 1.3989 2.307 3.3984 2.307 1.9991 0 3.4131-1.018 3.4131-2.549 0-1.179-.71-1.831-2.2412-2.182l-1.4136-.315c-.8056-.191-1.1865-.476-1.1865-.93 0-.594.6226-.997 1.4502-.997.8496 0 1.3843.367 1.5161.931h1.707c-.132-1.443-1.326-2.278-3.2304-2.278-1.8897 0-3.208 1.003-3.208 2.439zm11.6704 2.856c.096 1.912 1.7 3.128 4.124 3.128 2.563 0 4.153-1.275 4.153-3.326 0-1.604-.901-2.497-3.047-2.988l-1.216-.278c-1.311-.308-1.846-.725-1.846-1.45 0-.916.806-1.516 2.022-1.516 1.157 0 1.977.593 2.109 1.538h1.809c-.088-1.809-1.692-3.077-3.911-3.077-2.365 0-3.933 1.275-3.933 3.179 0 1.568.901 2.512 2.82 2.952l1.37.315c1.355.315 1.933.783 1.933 1.553 0 .9-.901 1.552-2.146 1.552-1.34 0-2.278-.615-2.395-1.582zm16.943-5.141h-1.816v4.665c0 1.209-.645 1.941-1.824 1.941-1.084 0-1.589-.601-1.589-1.846v-4.76h-1.817v5.2c0 1.875 1.026 2.966 2.776 2.966 1.223 0 2.007-.52 2.395-1.435h.125v1.274h1.75zm6.352-.132c-1.099 0-2.029.549-2.49 1.457h-.125v-1.325h-1.75v10.664h1.816v-3.875h.125c.41.85 1.296 1.348 2.446 1.348 2.021 0 3.281-1.59 3.281-4.131 0-2.563-1.274-4.138-3.303-4.138zm-.571 6.76c-1.238 0-2.007-1.003-2.015-2.622.008-1.619.784-2.622 2.022-2.622 1.245 0 1.999.981 1.999 2.622s-.747 2.622-2.006 2.622zm10.68-.813c-.264.601-.886.938-1.787.938-1.194 0-1.963-.85-2.007-2.205v-.095h5.596v-.579c0-2.512-1.37-4.028-3.655-4.028-2.322 0-3.765 1.618-3.765 4.189 0 2.564 1.421 4.131 3.78 4.131 1.889 0 3.23-.908 3.559-2.351zm-1.86-4.556c1.091 0 1.809.769 1.845 1.985h-3.772c.081-1.201.843-1.985 1.927-1.985zm5.245 6.746h1.817v-4.651c0-1.128.82-1.86 1.999-1.86.308 0 .791.051.931.102v-1.655c-.169-.044-.491-.073-.755-.073-1.033 0-1.897.586-2.117 1.377h-.124v-1.245h-1.751zm8.081 0v-4.314h4.431v-1.538h-4.431v-3.127h4.848v-1.59h-6.738v10.569zm6.586 0h1.816v-11.104h-1.816zm7.333.161c2.395 0 3.853-1.567 3.853-4.167 0-2.586-1.465-4.153-3.853-4.153-2.38 0-3.852 1.575-3.852 4.153 0 2.6 1.45 4.167 3.852 4.167zm0-1.487c-1.267 0-1.992-.981-1.992-2.673s.725-2.673 1.992-2.673c1.26 0 1.985.981 1.985 2.673s-.718 2.673-1.985 2.673zm15.852-6.679h-1.81l-1.325 6.013h-.125l-1.552-6.013h-1.736l-1.538 6.013h-.125l-1.333-6.013h-1.831l2.168 8.005h1.89l1.552-5.801h.125l1.56 5.801h1.912zm12.117 8.005h2.029l-3.757-10.569h-2.124l-3.75 10.569h1.911l.908-2.732h3.89zm-2.893-8.584h.125l1.435 4.395h-3.01zm12.79 3.252c-.191-1.655-1.436-2.827-3.494-2.827-2.409 0-3.823 1.545-3.823 4.138 0 2.622 1.421 4.182 3.831 4.182 2.028 0 3.288-1.128 3.486-2.783h-1.729c-.19.842-.82 1.289-1.765 1.289-1.238 0-1.985-.989-1.985-2.688 0-1.67.74-2.651 1.985-2.651.996 0 1.597.564 1.765 1.34zm8.417 0c-.19-1.655-1.435-2.827-3.494-2.827-2.409 0-3.823 1.545-3.823 4.138 0 2.622 1.421 4.182 3.831 4.182 2.029 0 3.288-1.128 3.486-2.783h-1.728c-.191.842-.821 1.289-1.766 1.289-1.237 0-1.984-.989-1.984-2.688 0-1.67.739-2.651 1.984-2.651.997 0 1.597.564 1.766 1.34zm4.953 5.493c2.395 0 3.853-1.567 3.853-4.167 0-2.586-1.465-4.153-3.853-4.153-2.38 0-3.853 1.575-3.853 4.153 0 2.6 1.451 4.167 3.853 4.167zm0-1.487c-1.267 0-1.992-.981-1.992-2.673s.725-2.673 1.992-2.673c1.26 0 1.985.981 1.985 2.673s-.718 2.673-1.985 2.673zm12.416-6.679h-1.816v4.665c0 1.209-.645 1.941-1.824 1.941-1.084 0-1.589-.601-1.589-1.846v-4.76h-1.817v5.2c0 1.875 1.026 2.966 2.776 2.966 1.223 0 2.007-.52 2.395-1.435h.125v1.274h1.75zm1.987 8.005h1.816v-4.666c0-1.201.681-1.955 1.765-1.955 1.106 0 1.619.622 1.619 1.868v4.753h1.816v-5.178c0-1.905-.974-2.981-2.761-2.981-1.194 0-1.999.542-2.38 1.435h-.125v-1.281h-1.75zm9.508-9.968v2.014h-1.267v1.413h1.267v4.417c0 1.545.733 2.161 2.571 2.161.352 0 .689-.03.952-.081v-1.392c-.219.022-.359.037-.615.037-.762 0-1.099-.359-1.099-1.157v-3.985h1.714v-1.413h-1.714v-2.014z" fill="#fff"/><path clip-rule="evenodd" d="m262.572 338.001 1.428 1.425-6.494 6.507-6.506-6.506 1.427-1.427 5.077 5.078z" fill="#fff" fill-rule="evenodd"/><rect fill="#3f83f8" height="28" rx="8" width="76" x="112" y="404"/><path d="m121.692 413.032v2.014h-1.267v1.413h1.267v4.417c0 1.545.732 2.161 2.571 2.161.351 0 .688-.03.952-.081v-1.392c-.22.022-.359.037-.615.037-.762 0-1.099-.359-1.099-1.157v-3.985h1.714v-1.413h-1.714v-2.014zm8.483 10.129c2.395 0 3.853-1.567 3.853-4.167 0-2.586-1.465-4.153-3.853-4.153-2.38 0-3.852 1.575-3.852 4.153 0 2.6 1.45 4.167 3.852 4.167zm0-1.487c-1.267 0-1.992-.981-1.992-2.673s.725-2.673 1.992-2.673c1.26 0 1.985.981 1.985 2.673s-.718 2.673-1.985 2.673zm8.344 1.458c1.113 0 2.036-.52 2.49-1.399h.125v1.267h1.758v-11.104h-1.817v4.373h-.124c-.425-.879-1.333-1.406-2.432-1.406-2.021 0-3.296 1.596-3.296 4.131 0 2.541 1.267 4.138 3.296 4.138zm.564-6.753c1.245 0 2.014 1.003 2.014 2.622 0 1.626-.762 2.622-2.014 2.622-1.245 0-2-.981-2-2.622 0-1.633.762-2.622 2-2.622zm8.066 6.753c1.047 0 1.926-.454 2.373-1.231h.124v1.099h1.751v-5.471c0-1.692-1.158-2.688-3.216-2.688-1.904 0-3.23.893-3.376 2.292h1.714c.168-.549.74-.849 1.574-.849.982 0 1.509.446 1.509 1.245v.688l-2.065.125c-1.948.11-3.04.952-3.04 2.387 0 1.465 1.106 2.403 2.652 2.403zm.534-1.399c-.805 0-1.384-.403-1.384-1.091 0-.667.476-1.04 1.494-1.106l1.809-.125v.652c0 .952-.82 1.67-1.919 1.67zm6.294 4.167c1.794 0 2.651-.651 3.332-2.622l2.893-8.283h-1.919l-1.868 6.284h-.124l-1.875-6.284h-1.992l2.864 8.034-.096.374c-.234.754-.666 1.047-1.435 1.047-.125 0-.396-.007-.498-.022v1.443c.117.022.608.029.718.029z" fill="#fff"/><path clip-rule="evenodd" d="m178.572 414.001 1.428 1.425-6.494 6.507-6.506-6.506 1.427-1.427 5.077 5.078z" fill="#fff" fill-rule="evenodd"/><rect fill="#3f83f8" height="28" rx="8" width="170" x="32" y="442"/><path d="m41.6919 451.032v2.014h-1.2671v1.413h1.2671v4.417c0 1.545.7324 2.161 2.5708 2.161.3516 0 .6885-.03.9521-.081v-1.392c-.2197.022-.3588.037-.6152.037-.7617 0-1.0986-.359-1.0986-1.157v-3.985h1.7138v-1.413h-1.7138v-2.014zm5.1726 9.968h1.8164v-4.651c0-1.172.6665-1.955 1.8604-1.955 1.0546 0 1.6113.629 1.6113 1.867v4.739h1.8164v-5.164c0-1.904-1.0401-2.988-2.7539-2.988-1.1939 0-2.0508.542-2.4317 1.443h-.1318v-4.395h-1.7871zm14.24-2.19c-.2637.601-.8863.938-1.7871.938-1.1939 0-1.9629-.85-2.0069-2.205v-.095h5.5957v-.579c0-2.512-1.3696-4.028-3.6548-4.028-2.3217 0-3.7646 1.618-3.7646 4.189 0 2.564 1.4209 4.131 3.7793 4.131 1.8896 0 3.23-.908 3.5596-2.351zm-1.8604-4.556c1.0913 0 1.8091.769 1.8457 1.985h-3.7719c.0805-1.201.8422-1.985 1.9262-1.985zm14.2271 4.556c-.2637.601-.8863.938-1.7872.938-1.1938 0-1.9628-.85-2.0068-2.205v-.095h5.5957v-.579c0-2.512-1.3696-4.028-3.6548-4.028-2.3218 0-3.7646 1.618-3.7646 4.189 0 2.564 1.4209 4.131 3.7793 4.131 1.8896 0 3.23-.908 3.5595-2.351zm-1.8604-4.556c1.0913 0 1.8091.769 1.8457 1.985h-3.772c.0806-1.201.8423-1.985 1.9263-1.985zm5.2458 6.746h1.8164v-4.666c0-1.201.6812-1.955 1.7652-1.955 1.1059 0 1.6186.622 1.6186 1.868v4.753h1.8164v-5.178c0-1.905-.9741-2.981-2.7612-2.981-1.1938 0-1.9995.542-2.3804 1.435h-.1245v-1.281h-1.7505zm11.8304.132c1.1132 0 2.0361-.52 2.4902-1.399h.1245v1.267h1.7578v-11.104h-1.8164v4.373h-.1245c-.4248-.879-1.333-1.406-2.4316-1.406-2.0215 0-3.2959 1.596-3.2959 4.131 0 2.541 1.267 4.138 3.2959 4.138zm.5639-6.753c1.2451 0 2.0142 1.003 2.0142 2.622 0 1.626-.7617 2.622-2.0142 2.622-1.2451 0-1.9995-.981-1.9995-2.622 0-1.633.7617-2.622 1.9995-2.622zm13.0771 6.782c2.395 0 3.853-1.567 3.853-4.167 0-2.586-1.465-4.153-3.853-4.153-2.3803 0-3.8525 1.575-3.8525 4.153 0 2.6 1.4502 4.167 3.8525 4.167zm0-1.487c-1.267 0-1.992-.981-1.992-2.673s.725-2.673 1.992-2.673c1.26 0 1.985.981 1.985 2.673s-.718 2.673-1.985 2.673zm6.03 1.326h1.809v-6.541h1.721v-1.413h-1.743v-.74c0-.762.337-1.142 1.194-1.142.256 0 .476.022.622.044v-1.312c-.293-.051-.622-.073-1.011-.073-1.779 0-2.592.784-2.592 2.381v.842h-1.311v1.413h1.311zm9.385-9.968v2.014h-1.267v1.413h1.267v4.417c0 1.545.733 2.161 2.571 2.161.352 0 .689-.03.952-.081v-1.392c-.219.022-.359.037-.615.037-.762 0-1.099-.359-1.099-1.157v-3.985h1.714v-1.413h-1.714v-2.014zm5.173 9.968h1.816v-4.651c0-1.172.667-1.955 1.861-1.955 1.054 0 1.611.629 1.611 1.867v4.739h1.816v-5.164c0-1.904-1.04-2.988-2.754-2.988-1.193 0-2.05.542-2.431 1.443h-.132v-4.395h-1.787zm14.24-2.19c-.264.601-.886.938-1.787.938-1.194 0-1.963-.85-2.007-2.205v-.095h5.596v-.579c0-2.512-1.37-4.028-3.655-4.028-2.322 0-3.765 1.618-3.765 4.189 0 2.564 1.421 4.131 3.779 4.131 1.89 0 3.23-.908 3.56-2.351zm-1.86-4.556c1.091 0 1.809.769 1.845 1.985h-3.772c.081-1.201.843-1.985 1.927-1.985zm9.883 9.646c1.795 0 2.652-.651 3.333-2.622l2.893-8.283h-1.919l-1.868 6.284h-.124l-1.875-6.284h-1.992l2.863 8.034-.095.374c-.234.754-.666 1.047-1.435 1.047-.125 0-.396-.007-.498-.022v1.443c.117.022.607.029.717.029zm12.453-5.09c-.264.601-.886.938-1.787.938-1.194 0-1.963-.85-2.007-2.205v-.095h5.596v-.579c0-2.512-1.37-4.028-3.655-4.028-2.322 0-3.765 1.618-3.765 4.189 0 2.564 1.421 4.131 3.78 4.131 1.889 0 3.23-.908 3.559-2.351zm-1.86-4.556c1.091 0 1.809.769 1.846 1.985h-3.772c.08-1.201.842-1.985 1.926-1.985zm7.45 6.878c1.048 0 1.927-.454 2.373-1.231h.125v1.099h1.75v-5.471c0-1.692-1.157-2.688-3.215-2.688-1.904 0-3.23.893-3.377 2.292h1.714c.169-.549.74-.849 1.575-.849.982 0 1.509.446 1.509 1.245v.688l-2.066.125c-1.948.11-3.039.952-3.039 2.387 0 1.465 1.106 2.403 2.651 2.403zm.535-1.399c-.806 0-1.384-.403-1.384-1.091 0-.667.476-1.04 1.494-1.106l1.809-.125v.652c0 .952-.82 1.67-1.919 1.67zm5.663 1.267h1.817v-4.651c0-1.128.82-1.86 1.999-1.86.308 0 .791.051.93.102v-1.655c-.168-.044-.49-.073-.754-.073-1.033 0-1.897.586-2.117 1.377h-.124v-1.245h-1.751z" fill="#fff"/><path clip-rule="evenodd" d="m192.572 452.001 1.428 1.425-6.494 6.507-6.506-6.506 1.427-1.427 5.077 5.078z" fill="#fff" fill-rule="evenodd"/><circle cx="289" cy="202" fill="#fff" r="32"/><path d="m300.831 199.73c-6.447-3.828-17.081-4.18-23.235-2.312-.989.3-2.034-.258-2.333-1.247-.3-.989.257-2.033 1.246-2.333 7.065-2.145 18.809-1.73 26.231 2.675.889.528 1.181 1.676.654 2.563-.528.889-1.677 1.182-2.563.654zm-.212 5.671c-.452.734-1.411.964-2.144.513-5.375-3.303-13.571-4.26-19.93-2.33-.824.249-1.695-.216-1.946-1.039-.248-.825.217-1.694 1.04-1.945 7.264-2.204 16.294-1.136 22.467 2.657.733.452.964 1.412.513 2.144zm-2.447 5.446c-.359.589-1.127.774-1.714.415-4.696-2.871-10.608-3.519-17.569-1.929-.671.154-1.34-.267-1.493-.937-.154-.671.265-1.339.938-1.493 7.618-1.741 14.153-.992 19.425 2.23.588.359.773 1.126.413 1.714zm-9.172-28.847c-11.046 0-20 8.954-20 20s8.954 20 20 20 20-8.954 20-20-8.954-20-20-20z" fill="#1ed760"/><circle cx="86" cy="202" fill="#fff" r="32"/><path d="m70.5312 206.49c.164 3.61 3.1855 5.838 7.7519 5.838 4.7442 0 7.711-2.379 7.711-6.152 0-2.926-1.7364-4.594-5.8926-5.455l-2.1328-.438c-2.461-.519-3.4453-1.381-3.4453-2.721 0-1.654 1.5586-2.693 3.7461-2.693 2.2558 0 3.8144 1.121 3.9785 2.981h3.3769c-.082-3.528-2.9668-5.907-7.3281-5.907-4.2793 0-7.3281 2.352-7.3281 5.825 0 2.884 1.8457 4.744 5.7968 5.55l2.1192.438c2.5703.533 3.5547 1.408 3.5547 2.83 0 1.641-1.6543 2.816-4.0332 2.816-2.461 0-4.2383-1.093-4.4981-2.912zm21.9689 5.51v-8.053h8.2719v-2.871h-8.2719v-5.824h9.0509v-2.981h-12.5783v19.729z" fill="#3f83f8"/><path d="m140 200h91" stroke="url(#a)" stroke-dasharray=".1 15" stroke-linecap="round" stroke-linejoin="round" stroke-width="4"/></svg>