<svg fill="none" height="667" viewBox="0 0 375 667" width="375" xmlns="http://www.w3.org/2000/svg" xmlns:xlink="http://www.w3.org/1999/xlink"><linearGradient id="a" gradientUnits="userSpaceOnUse" x1="240.776" x2="217.064" y1="321.612" y2="318.406"><stop offset="0" stop-color="#101c50"/><stop offset=".236" stop-color="#0d267a"/><stop offset=".4973" stop-color="#085aa4"/><stop offset=".6549" stop-color="#058bbf"/><stop offset="1" stop-color="#b1ffff"/></linearGradient><clipPath id="b"><path d="m0 0h375v667h-375z"/></clipPath><g clip-path="url(#b)"><path d="m0 0h375v667h-375z" fill="#fff"/><path d="m0 0h375v667h-375z" fill="#19202e"/><path d="m0 272.2c0-17.922 0-26.883 3.48779-33.728 3.06795-6.021 7.96331-10.916 13.98451-13.984 6.8452-3.488 15.806-3.488 33.7277-3.488h272.6c17.922 0 26.883 0 33.728 3.488 6.021 3.068 10.916 7.963 13.984 13.984 3.488 6.845 3.488 15.806 3.488 33.728v394.8h-375z" fill="#364152"/><path d="m16.6982 262.574c.0967 2.922 2.5567 4.684 6.252 4.684 3.8779 0 6.2519-1.912 6.2519-4.942 0-2.352-1.4287-3.673-4.705-4.329l-1.6436-.333c-1.8262-.365-2.5781-.956-2.5781-1.912 0-1.138 1.0742-1.89 2.6748-1.89 1.6328 0 2.7822.794 2.8896 2.116h3.0616c-.0537-2.847-2.3311-4.738-5.9512-4.738-3.4482 0-5.919 1.88-5.919 4.716 0 2.31 1.5147 3.792 4.6084 4.405l1.6329.322c1.9443.397 2.6748.977 2.6748 1.998 0 1.139-1.1817 1.976-2.9112 1.976-1.7617 0-3.0722-.773-3.2763-2.073zm25.2075-7.09h-3.1368v6.596c0 1.525-.8701 2.524-2.2666 2.524-1.3857 0-2.1484-.816-2.1484-2.352v-6.768h-3.1367v7.423c0 2.686 1.6543 4.308 4.1465 4.308 1.7402 0 2.8789-.838 3.4482-2.288h.0645v2.073h3.0293zm9.2338 11.699c2.9003 0 4.6728-2.235 4.6728-5.941 0-3.717-1.7832-5.94-4.6836-5.94-1.6435 0-2.9219.816-3.5557 2.18h-.0644v-5.983h-3.1367v15.501h3.0937v-1.977h.0645c.6338 1.343 1.9228 2.16 3.6094 2.16zm-1.085-9.368c1.5576 0 2.5459 1.332 2.5459 3.427 0 2.106-.9775 3.416-2.5459 3.416-1.5254 0-2.5566-1.332-2.5566-3.416 0-2.062 1.0419-3.427 2.5566-3.427zm7.5473 1.053c0 1.73 1.1279 2.847 3.3515 3.32l1.9658.408c1.128.258 1.5254.601 1.5254 1.214 0 .752-.7304 1.235-1.9121 1.235-1.2461 0-1.9658-.537-2.1592-1.547h-3.0615c.2041 2.267 2.041 3.749 5.2207 3.749 2.9649 0 5.0381-1.493 5.0381-3.76 0-1.686-.9883-2.632-3.3945-3.136l-1.9658-.419c-1.1602-.247-1.5899-.645-1.5899-1.236 0-.762.7197-1.257 1.8047-1.257 1.1602 0 1.8584.634 1.9551 1.569h2.8896c-.0644-2.256-1.8906-3.771-4.8447-3.771-2.9326 0-4.8232 1.44-4.8232 3.631zm22.3285.903c-.1397-2.611-2.1162-4.534-5.2315-4.534-3.4482 0-5.6504 2.299-5.6504 5.994 0 3.76 2.2022 6.016 5.6719 6.016 3.0293 0 5.0596-1.751 5.2207-4.469h-2.9219c-.1933 1.257-1.0097 2.009-2.2666 2.009-1.5576 0-2.5244-1.289-2.5244-3.556 0-2.223.9668-3.534 2.5137-3.534 1.2891 0 2.0947.86 2.2773 2.074zm1.8754 7.229h3.1367v-6.435c0-1.622.9023-2.567 2.4492-2.567.4512 0 .8809.075 1.1387.183v-2.761c-.2149-.065-.5264-.118-.8916-.118-1.3535 0-2.3311.795-2.7393 2.256h-.0644v-2.074h-3.0293zm9.975-13.073c.913 0 1.6328-.731 1.6328-1.612 0-.891-.7198-1.611-1.6328-1.611-.9131 0-1.6328.72-1.6328 1.611 0 .881.7197 1.612 1.6328 1.612zm-1.5577 13.073h3.1368v-11.516h-3.1368zm12.306-11.698c-1.665 0-2.9433.838-3.5663 2.191h-.0645v-2.009h-3.0937v15.276h3.1367v-5.694h.0645c.6123 1.3 1.9013 2.117 3.5773 2.117 2.879 0 4.662-2.235 4.662-5.941 0-3.717-1.794-5.94-4.716-5.94zm-1.053 9.356c-1.5358 0-2.5455-1.332-2.5455-3.416 0-2.062 1.0097-3.427 2.5455-3.427 1.569 0 2.557 1.343 2.557 3.427 0 2.095-.988 3.416-2.557 3.416zm8.579-11.827v2.653h-1.622v2.364h1.622v6.048c0 2.245 1.053 3.147 3.76 3.147.633 0 1.171-.054 1.493-.129v-2.31c-.194.033-.484.054-.763.054-.924 0-1.353-.419-1.353-1.3v-5.51h2.127v-2.364h-2.127v-2.653zm8.944 1.096c.913 0 1.632-.731 1.632-1.612 0-.891-.719-1.611-1.632-1.611s-1.633.72-1.633 1.611c0 .881.72 1.612 1.633 1.612zm-1.558 13.073h3.137v-11.516h-3.137zm10.867.247c3.48 0 5.704-2.224 5.704-6.016 0-3.738-2.256-5.994-5.704-5.994-3.449 0-5.704 2.267-5.704 5.994 0 3.782 2.223 6.016 5.704 6.016zm0-2.395c-1.547 0-2.525-1.3-2.525-3.61 0-2.288.999-3.609 2.525-3.609 1.525 0 2.513 1.321 2.513 3.609 0 2.31-.977 3.61-2.513 3.61zm7.676 2.148h3.137v-6.606c0-1.494.891-2.525 2.298-2.525 1.408 0 2.117.86 2.117 2.363v6.768h3.136v-7.423c0-2.696-1.439-4.307-3.996-4.307-1.772 0-2.986.837-3.598 2.266h-.065v-2.052h-3.029zm12.832-8.132c0 1.73 1.128 2.847 3.352 3.32l1.966.408c1.128.258 1.525.601 1.525 1.214 0 .752-.73 1.235-1.912 1.235-1.246 0-1.966-.537-2.159-1.547h-3.062c.204 2.267 2.041 3.749 5.221 3.749 2.965 0 5.038-1.493 5.038-3.76 0-1.686-.988-2.632-3.395-3.136l-1.965-.419c-1.161-.247-1.59-.645-1.59-1.236 0-.762.719-1.257 1.804-1.257 1.161 0 1.859.634 1.956 1.569h2.889c-.064-2.256-1.89-3.771-4.845-3.771-2.932 0-4.823 1.44-4.823 3.631z" fill="#fbfdfe"/><rect fill="#cfd8e3" height="130" rx="24" width="156" x="195" y="293"/><path d="m273 339 4.33-6h-8.66z" fill="#475569"/><path d="m292.665 337.037h-4.996v-.146c.762-.403 1.216-1.231 1.165-2.08 0-.162-.029-.301-.081-.433h2.52v-1.618h-2.952c-.183-.454-.3-.806-.3-1.304 0-.901.813-1.457 2.124-1.457.732 0 1.362.065 2.043.227v-1.839c-.651-.161-1.391-.227-2.373-.227-2.512 0-3.999 1.033-3.999 2.791 0 .652.184 1.223.418 1.809h-1.604v1.618h2.058c.044.118.081.264.081.44-.03 1.245-.887 2.182-2.154 2.366v1.816h8.05zm5.839 1.963h1.948v-2h1.406v-1.669h-1.435v-2.703h-1.853v2.666h-2.579v-.132l3.106-6.731h-2.102l-3.215 6.9v1.669h4.724zm8.197.139c.886 0 1.611-.747 1.611-1.648 0-.908-.725-1.655-1.611-1.655s-1.611.747-1.611 1.655c0 .901.725 1.648 1.611 1.648zm9.047.081c2.483 0 4.16-1.238 4.16-3.069 0-1.304-.9-2.359-2.292-2.673v-.132c1.143-.271 1.868-1.165 1.868-2.278 0-1.677-1.553-2.857-3.736-2.857-2.19 0-3.742 1.18-3.742 2.857 0 1.113.725 2.007 1.867 2.278v.132c-1.399.329-2.292 1.376-2.292 2.673 0 1.831 1.677 3.069 4.167 3.069zm0-6.482c-1.018 0-1.692-.601-1.692-1.48s.674-1.479 1.692-1.479c1.011 0 1.685.6 1.685 1.479s-.674 1.48-1.685 1.48zm0 4.878c-1.201 0-2.014-.674-2.014-1.663s.813-1.662 2.014-1.662c1.194 0 2.007.673 2.007 1.662s-.813 1.663-2.007 1.663zm5.026-5.655c0 1.978 1.363 3.399 3.238 3.399.659 0 1.296-.242 1.684-.645l.147.022c-.081.176-.198.352-.484.74l-2.651 3.516h2.344c.278-.337 1.882-2.41 2.226-2.93 1.07-1.509 1.516-2.695 1.516-3.962 0-2.315-1.64-3.89-4.035-3.89-2.271 0-3.985 1.612-3.985 3.75zm4.021-1.984c1.121 0 1.956.813 1.956 1.911 0 1.099-.835 1.919-1.956 1.919-1.12 0-1.955-.82-1.955-1.919 0-1.098.835-1.911 1.955-1.911zm9.018 9.243c2.483 0 4.16-1.238 4.16-3.069 0-1.304-.901-2.359-2.292-2.673v-.132c1.142-.271 1.868-1.165 1.868-2.278 0-1.677-1.553-2.857-3.736-2.857-2.19 0-3.742 1.18-3.742 2.857 0 1.113.725 2.007 1.867 2.278v.132c-1.399.329-2.292 1.376-2.292 2.673 0 1.831 1.677 3.069 4.167 3.069zm0-6.482c-1.018 0-1.692-.601-1.692-1.48s.674-1.479 1.692-1.479c1.011 0 1.685.6 1.685 1.479s-.674 1.48-1.685 1.48zm0 4.878c-1.201 0-2.014-.674-2.014-1.663s.813-1.662 2.014-1.662c1.194 0 2.007.673 2.007 1.662s-.813 1.663-2.007 1.663z" fill="#475569"/><circle cx="227" cy="325" fill="#fff" r="20"/><rect fill="#cfd8e3" height="130" rx="24" width="156" x="24" y="293"/><circle cx="56" cy="325" fill="#fff" r="20"/><path d="m64.2815 323.411c-4.5128-2.68-11.9566-2.926-16.2646-1.618-.6919.209-1.4235-.181-1.633-.873-.2098-.692.1804-1.423.8727-1.634 4.9454-1.501 13.1663-1.211 18.3615 1.873.6224.37.8265 1.173.4576 1.794-.3692.623-1.1735.828-1.7942.458zm-.1478 3.97c-.3164.514-.9882.675-1.5012.359-3.7624-2.312-9.4996-2.982-13.9507-1.631-.5771.174-1.1868-.151-1.3622-.727-.1739-.578.1516-1.186.7279-1.362 5.0847-1.543 11.4059-.795 15.7271 1.86.5131.316.6746.988.3591 1.501zm-1.7131 3.812c-.2514.412-.7887.542-1.1996.29-3.2878-2.009-7.4257-2.463-12.299-1.35-.4696.108-.9377-.186-1.0447-.656-.1076-.469.1856-.937.6562-1.044 5.333-1.22 9.9076-.695 13.5978 1.56.4114.251.5409.789.2893 1.2zm-6.4206-20.193c-7.7318 0-14 6.268-14 14s6.2682 14 14 14c7.7323 0 14.0002-6.268 14.0002-14s-6.2679-14-14.0002-14z" fill="#1ed760"/><g fill="#fff"><path clip-rule="evenodd" d="m345.089 8.56h14.822c1.248 0 1.7.12995 2.157.37398.456.24403.814.60214 1.058 1.05843s.374.90889.374 2.15699v4.3212c0 1.2481-.13 1.7007-.374 2.157s-.602.8144-1.058 1.0584c-.457.244-.909.374-2.157.374h-14.822c-1.248 0-1.7-.13-2.157-.374-.456-.244-.814-.6021-1.058-1.0584s-.374-.9089-.374-2.157v-4.3212c0-1.2481.13-1.7007.374-2.15699s.602-.8144 1.058-1.05843c.457-.24403.909-.37398 2.157-.37398zm0 1c-.987 0-1.331.06653-1.685.2558-.282.15083-.497.3662-.648.6482-.189.3539-.256.6985-.256 1.6854v4.3212c0 .9869.067 1.3315.256 1.6854.151.282.366.4974.648.6482.354.1893.698.2558 1.685.2558h14.822c.987 0 1.331-.0665 1.685-.2558.282-.1508.497-.3662.648-.6482.189-.3539.256-.6985.256-1.6854v-4.3212c0-.9869-.067-1.3315-.256-1.6854-.151-.282-.366-.49737-.648-.6482-.354-.18927-.698-.2558-1.685-.2558zm20.911 4.69c0 1.2366-1.5 2-1.5 2v-4s1.5.7634 1.5 2z" fill-opacity=".36" fill-rule="evenodd"/><rect height="7.66667" rx="1.6" width="18" x="343.5" y="10.4767"/><path clip-rule="evenodd" d="m328.8 11.0963c2.235.0001 4.384.8587 6.003 2.3983.122.1188.317.1173.437-.0034l1.166-1.1764c.061-.0613.094-.1442.094-.2305-.001-.0863-.035-.1688-.097-.2293-4.25-4.07334-10.956-4.07334-15.206 0-.062.0604-.096.143-.097.2292-.001.0863.033.1693.094.2306l1.166 1.1764c.12.1209.315.1224.437.0034 1.62-1.5397 3.769-2.3983 6.003-2.3983zm0 3.8274c1.228 0 2.412.4563 3.322 1.2803.123.117.317.1144.437-.0057l1.164-1.1764c.062-.0617.096-.1454.095-.2324s-.037-.17-.1-.2305c-2.771-2.5777-7.062-2.5777-9.833 0-.063.0605-.099.1435-.099.2305-.001.0871.033.1708.094.2324l1.164 1.1764c.12.1201.314.1227.437.0057.91-.8235 2.093-1.2798 3.319-1.2803zm2.238 2.8076c.062-.0611.097-.1452.095-.2324s-.04-.1699-.104-.2284c-1.287-1.0879-3.171-1.0879-4.457 0-.064.0585-.102.1411-.104.2283-.002.0873.032.1714.095.2325l2.014 2.0325c.059.0598.139.0934.223.0934s.165-.0336.224-.0934z" fill-rule="evenodd"/><path d="m176.797 20.2563c2.688 0 4.285-2.102 4.285-5.6689 0-3.501-1.699-5.41992-4.226-5.41992-2.3 0-3.926 1.54542-3.926 3.70602 0 2.0288 1.465 3.5083 3.479 3.5083 1.238 0 2.241-.5713 2.739-1.5747h.125c-.022 2.4829-.908 3.9038-2.454 3.9038-.908 0-1.633-.498-1.86-1.3037h-1.882c.307 1.7212 1.787 2.8491 3.72 2.8491zm.066-5.332c-1.23 0-2.08-.8642-2.08-2.1094 0-1.1938.894-2.1093 2.088-2.1093 1.193 0 2.087.9301 2.087 2.146 0 1.2011-.872 2.0727-2.095 2.0727zm7.372-1.7651c.696 0 1.172-.4834 1.172-1.1353 0-.6518-.476-1.1352-1.172-1.1352-.689 0-1.172.4834-1.172 1.1352 0 .6519.483 1.1353 1.172 1.1353zm0 5.376c.696 0 1.172-.4908 1.172-1.1353 0-.6519-.476-1.1353-1.172-1.1353-.689 0-1.172.4834-1.172 1.1353 0 .6445.483 1.1353 1.172 1.1353zm8.309 1.4648h1.809v-2.0288h1.428v-1.5601h-1.428v-6.97995h-2.666c-1.435 2.18265-2.937 4.61425-4.307 6.99465v1.5454h5.164zm-3.413-3.6548c1.033-1.7944 2.256-3.75 3.34-5.4053h.102v5.5152h-3.442zm10.814 3.6548h1.89v-10.56885h-1.883l-2.761 1.94095v1.7798l2.629-1.8604h.125z"/><path clip-rule="evenodd" d="m22.123 9.96589c-.023.11591-.023.25531-.023.53411v7.7c0 .2788 0 .4182.023.5341.0947.476.4669.8482.9429.9428.1159.0231.2553.0231.5341.0231s.4182 0 .5341-.0231c.476-.0946.8481-.4668.9428-.9428.0231-.1159.0231-.2553.0231-.5341v-7.7c0-.2788 0-.4182-.0231-.53411-.0947-.47603-.4668-.84814-.9428-.94283-.1159-.02306-.2553-.02306-.5341-.02306s-.4182 0-.5341.02306c-.476.09469-.8482.4668-.9429.94283zm-4.723 2.93411c0-.2788 0-.4182.0231-.5341.0946-.476.4668-.8482.9428-.9428.1159-.0231.2553-.0231.5341-.0231s.4182 0 .5341.0231c.476.0946.8481.4668.9428.9428.0231.1159.0231.2553.0231.5341v5.3c0 .2788 0 .4182-.0231.5341-.0947.476-.4668.8482-.9428.9428-.1159.0231-.2553.0231-.5341.0231s-.4182 0-.5341-.0231c-.476-.0946-.8482-.4668-.9428-.9428-.0231-.1159-.0231-.2553-.0231-.5341zm-4.577 1.7659c-.023.1159-.023.2553-.023.5341v3c0 .2788 0 .4182.023.5341.0947.476.4669.8482.9429.9428.1159.0231.2553.0231.5341.0231s.4182 0 .5341-.0231c.476-.0946.8481-.4668.9428-.9428.0231-.1159.0231-.2553.0231-.5341v-3c0-.2788 0-.4182-.0231-.5341-.0947-.476-.4668-.8482-.9428-.9428-.1159-.0231-.2553-.0231-.5341-.0231s-.4182 0-.5341.0231c-.476.0946-.8482.4668-.9429.9428zm-4.79994 2c-.02306.1159-.02306.2553-.02306.5341v1c0 .2788 0 .4182.02306.5341.09469.476.4668.8482.94283.9428.11592.0231.25532.0231.53411.0231s.41819 0 .5341-.0231c.476-.0946.8482-.4668.9428-.9428.0231-.1159.0231-.2553.0231-.5341v-1c0-.2788 0-.4182-.0231-.5341-.0946-.476-.4668-.8482-.9428-.9428-.11591-.0231-.25531-.0231-.5341-.0231s-.41819 0-.53411.0231c-.47603.0946-.84814.4668-.94283.9428z" fill-rule="evenodd"/></g><path d="m107.01 120.924h-9.5295v-.246c1.4629-.848 2.3379-2.461 2.2695-4.157 0-.451-.0684-.833-.2051-1.298h4.9631v-2.598h-5.7014c-.4511-1.244-.6425-1.887-.6425-2.898 0-1.901 1.5175-3.022 4.0879-3.022 1.367 0 2.461.15 3.732.506v-2.94c-1.312-.382-2.447-.492-4.17-.492-4.4839 0-7.1363 1.955-7.1363 5.278 0 1.203.3008 2.255.8067 3.568h-3.0078v2.598h3.7734c.1367.41.2188.847.2188 1.353-.0411 2.297-1.6543 4.129-3.9922 4.553v2.871h14.5334zm21.169-10.869v.082h3.104v-.096c0-2.064 1.381-3.445 3.472-3.445 2.051 0 3.405 1.23 3.405 3.117 0 1.422-.67 2.461-3.282 5.209l-6.521 6.795v2.283h13.344v-2.816h-8.791v-.246l4.17-4.252c3.253-3.295 4.306-5.059 4.306-7.165 0-3.363-2.638-5.646-6.535-5.646-3.924 0-6.672 2.529-6.672 6.18zm23.32 18.621 2.516-9.229h-3.801l-1.558 9.229zm16.334-13.535h2.311c2.447 0 4.019 1.271 4.019 3.254 0 1.941-1.531 3.171-3.951 3.171-2.27 0-3.815-1.189-3.979-3.048h-3.076c.178 3.568 2.994 5.878 7.137 5.878 4.225 0 7.178-2.392 7.178-5.824 0-2.652-1.586-4.429-4.239-4.758v-.232c2.147-.478 3.446-2.187 3.446-4.525 0-3.063-2.639-5.182-6.453-5.182-3.965 0-6.508 2.201-6.7 5.783h3.022c.15-1.9 1.504-3.076 3.568-3.076 2.065 0 3.418 1.148 3.418 2.953 0 1.819-1.394 3.063-3.459 3.063h-2.242zm27.353 2.365c0-3.623-2.584-6.303-6.07-6.303-1.244 0-2.543.506-3.213 1.272l-.246-.055c.137-.287.205-.41.807-1.231l5.127-6.918h-3.76c-.369.465-3.801 5.114-4.252 5.797-1.942 2.776-2.748 4.936-2.748 7.287 0 4.157 2.953 7.041 7.191 7.041 4.115 0 7.164-2.925 7.164-6.89zm-7.191 4.088c-2.242 0-3.938-1.696-3.938-3.951 0-2.256 1.696-3.952 3.938-3.952s3.937 1.696 3.937 3.952c0 2.255-1.695 3.951-3.937 3.951zm17.578 2.83c4.429 0 7.451-2.324 7.451-5.729 0-2.447-1.668-4.457-4.184-5.004v-.232c2.092-.533 3.391-2.201 3.391-4.307 0-3.103-2.762-5.304-6.658-5.304-3.897 0-6.658 2.201-6.658 5.304 0 2.106 1.312 3.787 3.377 4.307v.232c-2.543.602-4.17 2.571-4.17 5.004 0 3.405 3.021 5.729 7.451 5.729zm0-11.963c-2.051 0-3.405-1.217-3.405-3.022 0-1.791 1.354-3.007 3.405-3.007 2.037 0 3.404 1.216 3.404 3.007 0 1.805-1.367 3.022-3.404 3.022zm0 9.351c-2.406 0-4.061-1.394-4.061-3.404 0-2.023 1.655-3.404 4.061-3.404s4.06 1.381 4.06 3.404c0 2.01-1.654 3.404-4.06 3.404zm17.605 2.379c1.531 0 2.789-1.298 2.789-2.857s-1.258-2.844-2.789-2.844-2.789 1.285-2.789 2.844 1.258 2.857 2.789 2.857zm15.24-9.05h2.311c2.447 0 4.019 1.271 4.019 3.254 0 1.941-1.531 3.171-3.951 3.171-2.27 0-3.815-1.189-3.979-3.048h-3.076c.178 3.568 2.994 5.878 7.137 5.878 4.225 0 7.178-2.392 7.178-5.824 0-2.652-1.586-4.429-4.239-4.758v-.232c2.147-.478 3.446-2.187 3.446-4.525 0-3.063-2.639-5.182-6.453-5.182-3.965 0-6.508 2.201-6.7 5.783h3.022c.15-1.9 1.504-3.076 3.568-3.076 2.065 0 3.418 1.148 3.418 2.953 0 1.819-1.394 3.063-3.459 3.063h-2.242zm21.912 8.859h3.062v-3.91h2.789v-2.707h-2.816v-5.278h-2.953v5.25h-5.469v-.218l6.125-12.866h-3.349l-6.276 13.18v2.639h8.887zm23.361 0v-2.775h-5.25v-16.954h-3.227l-5.55 3.665v3.212l5.304-3.486h.233v13.563h-5.51v2.775z" fill="#fafcfd"/><path d="m124.573 157v-1.504h-2.343v-7.656h-1.764l-2.476 1.657v1.701l2.362-1.568h.114v5.866h-2.469v1.504zm4.401.19c2.203 0 3.447-1.72 3.447-4.773s-1.244-4.773-3.447-4.773c-2.196 0-3.44 1.72-3.44 4.773s1.244 4.773 3.44 4.773zm-1.676-4.773c0-2.126.591-3.282 1.676-3.282.717 0 1.213.495 1.473 1.435l-3.149 2.082c0-.076 0-.152 0-.235zm1.676 3.282c-.711 0-1.206-.489-1.466-1.422l3.148-2.082v.222c0 2.133-.59 3.282-1.682 3.282zm7.956 1.422c.768 0 1.397-.648 1.397-1.429 0-.787-.629-1.434-1.397-1.434s-1.396.647-1.396 1.434c0 .781.628 1.429 1.396 1.429zm6.839-4.139h1.092c1.054 0 1.733.527 1.733 1.346 0 .806-.667 1.32-1.714 1.32-.984 0-1.644-.495-1.707-1.276h-1.67c.083 1.714 1.428 2.812 3.428 2.812 2.05 0 3.453-1.111 3.453-2.736 0-1.212-.736-2.025-1.974-2.171v-.114c1.003-.203 1.619-.996 1.619-2.076 0-1.447-1.264-2.431-3.123-2.431-1.937 0-3.162 1.054-3.225 2.774h1.606c.057-.806.66-1.32 1.561-1.32.921 0 1.505.482 1.505 1.244 0 .768-.597 1.27-1.511 1.27h-1.073zm9.023 4.202c2.031 0 3.396-1.301 3.396-3.256 0-1.784-1.181-3.022-2.869-3.022-.857 0-1.549.318-1.943.895h-.114l.197-2.444h4.17v-1.517h-5.598l-.432 5.294h1.739c.33-.552.832-.831 1.492-.831.977 0 1.644.673 1.644 1.669 0 .99-.66 1.657-1.644 1.657-.851 0-1.492-.495-1.6-1.232h-1.739c.051 1.657 1.384 2.787 3.301 2.787zm5.918-4.907c1.137 0 1.841-.838 1.841-2.183v-.337c0-1.282-.723-2.113-1.841-2.113-1.123 0-1.847.831-1.847 2.113v.337c0 1.345.705 2.183 1.847 2.183zm6.107-4.437-8.036 8.157v1.003l8.036-8.157zm-6.107 3.352c-.482 0-.749-.381-.749-1.06v-.349c0-.679.267-1.06.749-1.06.476 0 .743.381.743 1.06v.349c0 .679-.267 1.06-.743 1.06zm4.177 6.017c1.143 0 1.847-.831 1.847-2.183v-.337c0-1.275-.723-2.113-1.847-2.113-1.117 0-1.841.838-1.841 2.113v.337c0 1.352.705 2.183 1.841 2.183zm0-1.085c-.476 0-.743-.381-.743-1.06v-.349c0-.679.267-1.06.743-1.06.483 0 .749.381.749 1.06v.349c0 .679-.266 1.06-.749 1.06zm14.605-6.233c-1.022 0-1.714.469-1.962 1.314h-.133v-1.206h-1.784v9.331h1.809v-3.517h.127c.235.838.933 1.308 1.943 1.308 1.606 0 2.552-1.105 2.552-3.016v-1.206c0-1.904-.946-3.008-2.552-3.008zm-.667 1.51c.895 0 1.448.591 1.448 1.549v1.162c0 .958-.553 1.549-1.448 1.549-.901 0-1.447-.584-1.447-1.549v-1.162c0-.965.546-1.549 1.447-1.549zm9.359 3.631c-.127.457-.679.775-1.377.775-.908 0-1.498-.597-1.498-1.511v-.381h4.513v-.965c0-1.879-1.187-3.097-3.041-3.097-1.904 0-3.173 1.212-3.173 3.046v1.124c0 1.987 1.168 3.129 3.205 3.129 1.625 0 2.863-.882 3.009-2.12zm-1.434-3.834c.876 0 1.396.603 1.396 1.606h-2.837c0-1.003.539-1.606 1.441-1.606zm7.74 2.698c0-1.504.806-2.253 2.457-2.253.393 0 .85.082 1.167.203v-1.886c-.247-.095-.603-.146-.996-.146-1.32 0-2.038.591-2.342 1.981h-.273v-1.796h-3.136v1.282h1.46v4.443h-1.333v1.276h5.027v-1.276h-2.031z" fill="#31c48d"/><path d="m106 151 4.33 6h-8.66z" fill="#31c48d"/><rect fill="#364152" height="26" rx="8" width="72" x="203" y="139"/><path clip-rule="evenodd" d="m265.901 149.001 1.099 1.096-4.996 5.005-5.004-5.004 1.098-1.098 3.905 3.906z" fill="#84e1bc" fill-rule="evenodd"/><path d="m218.554 151.566c0-1.11-.47-1.713-1.333-1.713-.667 0-1.156.438-1.302 1.187h-.184c-.146-.756-.59-1.187-1.225-1.187-.692 0-1.168.438-1.326 1.244h-.184v-1.098h-1.518v7.001h1.473v-4.805c0-.514.273-.844.692-.844.413 0 .647.298.647.799v4.85h1.454v-4.805c0-.514.273-.844.686-.844.399 0 .647.298.647.799v4.85h1.473zm4.42 5.586c1.974 0 3.218-1.199 3.218-3.11v-1.079c0-1.911-1.244-3.11-3.218-3.11s-3.218 1.199-3.218 3.11v1.079c0 1.911 1.244 3.11 3.218 3.11zm0-5.878c.933 0 1.511.673 1.511 1.759v.939c0 1.079-.578 1.758-1.511 1.758s-1.511-.679-1.511-1.758v-.939c0-1.086.578-1.759 1.511-1.759zm4.84 5.726h1.733v-4.043c0-.972.577-1.587 1.466-1.587.882 0 1.295.488 1.295 1.517v4.113h1.739v-4.526c0-1.707-.812-2.621-2.336-2.621-1.009 0-1.765.476-2.107 1.32h-.108v-1.174h-1.682zm9.625-9.001v2.069h-1.822v1.39h1.822v3.327c0 1.625.73 2.228 2.634 2.228.14 0 1.524-.013 1.594-.026v-1.371c-.076.007-1.289.013-1.454.013-.666 0-1.041-.298-1.041-.825v-3.346h2.577v-1.39h-2.609v-2.069zm6.262 9.001h1.732v-4.024c0-.965.591-1.587 1.505-1.587.882 0 1.314.501 1.314 1.523v4.088h1.739v-4.513c0-1.689-.838-2.615-2.355-2.615-1.022 0-1.803.482-2.139 1.32h-.102v-3.859h-1.694z" fill="#84e1bc"/><path clip-rule="evenodd" d="m345 37c-.596 0-1.078.482-1.078 1.0777v.1842c0 .5149-.361.9743-.871 1.0576-.245.0375-.489.086-.731.139-.5.1156-1.005-.1667-1.202-.641l-.07-.1667c-.228-.5505-.856-.8128-1.406-.5834-.551.2274-.813.8561-.583 1.4059l.07.1745c.2.4716.041 1.0344-.396 1.3045-.212.1311-.419.2701-.618.4141-.419.2979-.997.2294-1.361-.1337l-.128-.1312c-.422-.4193-1.103-.4193-1.524 0-.42.4213-.42 1.1029 0 1.5242l.131.1286c.363.3638.431.9414.133 1.3607-.144.199-.283.4064-.414.6183-.27.4368-.833.5958-1.307.3987l-.172-.0704c-.548-.2275-1.181.0323-1.408.5828-.227.5479.033 1.1785.583 1.4059l.17.0678c.471.1971.756.7017.64 1.2018-.053.2423-.101.4865-.141.7314-.081.5079-.54.871-1.055.871h-.184c-.596 0-1.078.482-1.078 1.0777s.482 1.0777 1.078 1.0777h.184c.515 0 .974.3612 1.058.871.037.2449.085.4891.138.7314.116.5001-.166 1.0047-.64 1.2018l-.167.0704c-.551.2274-.813.8554-.584 1.4059.228.5505.856.8128 1.406.5828l.175-.0704c.474-.1971 1.034-.0381 1.307.3961.131.2119.267.4193.411.6209.301.4193.232.9969-.131 1.3581l-.133.1312c-.42.4212-.42 1.1029 0 1.5216.421.4219 1.102.4219 1.524 0l.131-.1286c.364-.3631.939-.4342 1.358-.1338.202.1441.409.283.618.4142.437.2701.599.8328.402 1.3071l-.073.1693c-.228.5498.034 1.1811.582 1.4104.55.2275 1.179-.0323 1.409-.5828l.068-.1692c.197-.4717.701-.7566 1.201-.6436.242.0556.484.1034.732.1441.505.0782.868.5376.868 1.0525v.1842c0 .5957.482 1.0777 1.078 1.0777s1.078-.482 1.078-1.0777v-.1842c0-.5149.361-.9743.871-1.0576.245-.0375.489-.086.731-.139.5-.1156 1.005.1667 1.202.641l.07.1667c.228.5505.856.8128 1.406.5834.551-.2274.813-.8561.583-1.4059l-.07-.1745c-.197-.4742-.039-1.0344.396-1.3071.212-.1311.419-.2675.621-.4115.419-.3005.997-.232 1.358.1311l.131.1338c.421.4193 1.103.4193 1.521 0 .422-.4213.422-1.1029 0-1.5242l-.128-.1312c-.363-.3637-.434-.9388-.134-1.3581.144-.2016.283-.409.414-.6209.27-.4342.833-.5957 1.307-.3987l.17.073c.55.2275 1.181-.0349 1.41-.5828.228-.5498-.032-1.1785-.583-1.4085l-.169-.0678c-.472-.1971-.757-.7017-.643-1.2012.055-.2423.103-.4845.144-.732.078-.5053.537-.8684 1.052-.8684h.184c.596 0 1.078-.482 1.078-1.0777s-.482-1.0777-1.078-1.0777h-.184c-.515 0-.974-.3612-1.058-.871-.037-.2449-.085-.4891-.138-.7314-.116-.5001.166-1.0047.64-1.2018l.167-.0704c.551-.2274.813-.8554.584-1.4059-.228-.5505-.856-.8128-1.406-.5828l-.175.0704c-.474.1971-1.034.0381-1.307-.3961-.131-.2119-.267-.4193-.411-.6209-.301-.4193-.232-.9969.131-1.3581l.133-.1312c.42-.4212.42-1.1029 0-1.5242-.421-.4193-1.102-.4193-1.524 0l-.128.1338c-.364.3631-.942.4342-1.361.1337-.202-.144-.409-.283-.621-.4141-.434-.2701-.593-.8329-.396-1.3071l.07-.1719c.228-.5479-.032-1.1811-.582-1.4085-.548-.2268-1.179.0329-1.406.5834l-.071.1693c-.197.4717-.701.7566-1.201.641-.242-.053-.484-.1015-.732-.1415-.507-.0808-.868-.5402-.868-1.0551v-.1842c0-.5957-.482-1.0777-1.078-1.0777zm0 5.386c4.392 0 8.01 3.2887 8.541 7.5363h-6.678c-.384-.6662-1.095-1.0752-1.863-1.0752h-.003l-3.339-5.7898c1.028-.4316 2.156-.6713 3.342-.6713zm-5.202 1.7568 3.339 5.7795c-.189.3282-.29.6991-.29 1.0777 0 .3761.101.7469.29 1.0726l-3.341 5.782c-2.07-1.5745-3.41-4.0556-3.41-6.8546 0-2.8015 1.343-5.2826 3.412-6.8572zm7.065 7.9349h6.678c-.531 4.2475-4.149 7.5363-8.541 7.5363-1.186 0-2.314-.2397-3.342-.6713l3.339-5.7899h.003c.769 0 1.479-.4115 1.863-1.0751z" fill="#e2e8f0" fill-rule="evenodd"/><path d="m102 339 4.33-6h-8.6601z" fill="#475569"/><path d="m121.665 337.037h-4.996v-.146c.762-.403 1.216-1.231 1.165-2.08 0-.162-.029-.301-.081-.433h2.52v-1.618h-2.952c-.183-.454-.3-.806-.3-1.304 0-.901.813-1.457 2.124-1.457.732 0 1.362.065 2.043.227v-1.839c-.651-.161-1.391-.227-2.373-.227-2.512 0-3.999 1.033-3.999 2.791 0 .652.184 1.223.418 1.809h-1.604v1.618h2.058c.044.118.081.264.081.44-.03 1.245-.887 2.182-2.154 2.366v1.816h8.05zm2.162 1.963h2.183l4.475-8.826v-1.75h-7.515v1.736h5.42v.124zm11.874.139c.886 0 1.611-.747 1.611-1.648 0-.908-.725-1.655-1.611-1.655s-1.611.747-1.611 1.655c0 .901.725 1.648 1.611 1.648zm9.868-.139h1.948v-2h1.406v-1.669h-1.435v-2.703h-1.854v2.666h-2.578v-.132l3.106-6.731h-2.102l-3.216 6.9v1.669h4.725zm8.138.212c2.344 0 3.919-1.501 3.919-3.757 0-2.058-1.362-3.486-3.311-3.486-.988 0-1.787.366-2.241 1.032h-.132l.227-2.819h4.812v-1.751h-6.46l-.498 6.109h2.007c.381-.638.96-.96 1.721-.96 1.128 0 1.897.776 1.897 1.926 0 1.143-.761 1.912-1.897 1.912-.981 0-1.721-.571-1.845-1.421h-2.007c.058 1.912 1.597 3.215 3.808 3.215zm13.193-.212v-1.736h-2.703v-8.833h-2.036l-2.856 1.912v1.963l2.724-1.809h.132v6.767h-2.849v1.736z" fill="#475569"/><rect fill="#98a6ba" height="24" rx="12" width="132" x="36" y="357"/><path d="m44.8823 368.89v.952h1.7202c.0572.248.0953.489.0953.737 0 1.022-.73 1.879-1.7837 2.101v1.257h6.8935v-1.327h-4.6909v-.083c.6665-.374 1.1426-1.098 1.1426-2.012 0-.228-.0254-.451-.0762-.673h2.6343v-.952h-2.9136c-.1587-.47-.3047-.933-.3047-1.415 0-.921.7173-1.492 2.0059-1.492.7173 0 1.4282.14 1.7773.324v-1.302c-.3935-.196-1.1679-.336-1.9741-.336-2.1582 0-3.4277 1.041-3.4277 2.672 0 .527.165 1.041.3364 1.549zm11.9806 5.332c2.3296 0 3.7134-1.822 3.7134-4.913 0-3.034-1.4727-4.697-3.6626-4.697-1.9932 0-3.4024 1.339-3.4024 3.212 0 1.758 1.2695 3.04 3.0151 3.04 1.0728 0 1.9424-.495 2.3741-1.364h.1079c-.0191 2.151-.7871 3.383-2.1265 3.383-.7871 0-1.4155-.432-1.6123-1.13h-1.6313c.2666 1.492 1.5488 2.469 3.2246 2.469zm.0571-4.621c-1.0664 0-1.8027-.749-1.8027-1.828 0-1.035.7744-1.828 1.809-1.828 1.0347 0 1.8091.806 1.8091 1.86 0 1.041-.7553 1.796-1.8154 1.796zm5.9058 4.526c.6031 0 1.0157-.425 1.0157-.99 0-.559-.4126-.984-1.0157-.984-.5966 0-1.0156.425-1.0156.984 0 .565.419.99 1.0156.99zm5.6837.095c2.3296 0 3.7134-1.822 3.7134-4.913 0-3.034-1.4727-4.697-3.6626-4.697-1.9932 0-3.4024 1.339-3.4024 3.212 0 1.758 1.2696 3.04 3.0152 3.04 1.0727 0 1.9424-.495 2.374-1.364h.1079c-.019 2.151-.7871 3.383-2.1264 3.383-.7872 0-1.4156-.432-1.6123-1.13h-1.6314c.2666 1.492 1.5488 2.469 3.2246 2.469zm.0571-4.621c-1.0664 0-1.8027-.749-1.8027-1.828 0-1.035.7744-1.828 1.8091-1.828s1.8091.806 1.8091 1.86c0 1.041-.7554 1.796-1.8155 1.796zm8.5338 4.621c2.3296 0 3.7134-1.822 3.7134-4.913 0-3.034-1.4727-4.697-3.6626-4.697-1.9932 0-3.4024 1.339-3.4024 3.212 0 1.758 1.2696 3.04 3.0152 3.04 1.0727 0 1.9424-.495 2.374-1.364h.1079c-.019 2.151-.7871 3.383-2.1264 3.383-.7872 0-1.4156-.432-1.6124-1.13h-1.6313c.2666 1.492 1.5488 2.469 3.2246 2.469zm.0571-4.621c-1.0664 0-1.8027-.749-1.8027-1.828 0-1.035.7744-1.828 1.8091-1.828s1.8091.806 1.8091 1.86c0 1.041-.7554 1.796-1.8155 1.796zm12.51-2.653c-.9522 0-1.7583.476-2.1582 1.263h-.108v-1.149h-1.517v9.242h1.5742v-3.358h.1079c.3555.737 1.1235 1.168 2.1201 1.168 1.752 0 2.8438-1.377 2.8438-3.58 0-2.222-1.1045-3.586-2.8628-3.586zm-.4952 5.859c-1.0727 0-1.7392-.87-1.7456-2.273.0064-1.403.6792-2.272 1.752-2.272 1.0791 0 1.7329.85 1.7329 2.272s-.6475 2.273-1.7393 2.273zm9.3844-.705c-.2285.521-.7681.813-1.5488.813-1.0347 0-1.7012-.737-1.7393-1.911v-.083h4.8494v-.501c0-2.177-1.1868-3.491-3.1673-3.491-2.0122 0-3.2627 1.403-3.2627 3.631 0 2.221 1.2315 3.58 3.2754 3.58 1.6377 0 2.7994-.787 3.0846-2.038zm-1.6123-3.948c.9458 0 1.5679.666 1.5996 1.72h-3.269c.0698-1.041.7299-1.72 1.6694-1.72zm4.6746 5.846h1.574v-4.031c0-.977.711-1.612 1.733-1.612.267 0 .685.044.806.089v-1.435c-.146-.038-.425-.063-.654-.063-.895 0-1.644.508-1.834 1.193h-.108v-1.079h-1.517zm10.815-4.088h1.149c1.13 0 1.815.565 1.815 1.485 0 .889-.742 1.486-1.796 1.486-1.06 0-1.777-.546-1.847-1.397h-1.568c.076 1.657 1.441 2.743 3.434 2.743 1.98 0 3.453-1.143 3.453-2.717 0-1.251-.781-2.057-2.025-2.247v-.108c.971-.261 1.663-.99 1.67-2.095.006-1.314-1.092-2.45-3.041-2.45-1.987 0-3.231 1.123-3.313 2.729h1.536c.07-.914.692-1.422 1.688-1.422.971 0 1.549.597 1.549 1.352 0 .832-.647 1.416-1.587 1.416h-1.117zm9.644 4.317c2.19 0 3.492-1.771 3.492-4.806 0-3.04-1.321-4.811-3.492-4.811-2.177 0-3.497 1.771-3.497 4.799 0 3.04 1.301 4.818 3.497 4.818zm0-1.327c-1.161 0-1.84-1.206-1.84-3.491 0-2.266.692-3.466 1.84-3.466 1.149 0 1.835 1.193 1.835 3.466 0 2.291-.673 3.491-1.835 3.491zm11.108 1.212c.964 0 1.764-.45 2.158-1.212h.108v1.098h1.523v-9.623h-1.574v3.79h-.108c-.368-.762-1.155-1.219-2.107-1.219-1.752 0-2.857 1.384-2.857 3.58 0 2.202 1.098 3.586 2.857 3.586zm.488-5.852c1.079 0 1.746.869 1.746 2.272 0 1.409-.66 2.273-1.746 2.273-1.079 0-1.733-.851-1.733-2.273 0-1.415.661-2.272 1.733-2.272zm7.119 5.852c.907 0 1.669-.393 2.056-1.066h.108v.952h1.517v-4.742c0-1.466-1.003-2.329-2.786-2.329-1.651 0-2.8.774-2.927 1.987h1.486c.146-.477.641-.737 1.364-.737.851 0 1.308.387 1.308 1.079v.597l-1.79.108c-1.688.095-2.634.825-2.634 2.069 0 1.27.958 2.082 2.298 2.082zm.463-1.212c-.698 0-1.2-.349-1.2-.946 0-.578.413-.901 1.295-.958l1.568-.108v.565c0 .825-.711 1.447-1.663 1.447zm5.582 3.612c1.555 0 2.298-.565 2.888-2.273l2.508-7.179h-1.663l-1.619 5.446h-.108l-1.625-5.446h-1.727l2.482 6.963-.082.324c-.203.654-.578.908-1.244.908-.108 0-.343-.007-.432-.019v1.25c.102.019.527.026.622.026zm6.325-7.472c0 1.041.628 1.651 1.961 1.956l1.232.285c.66.153.958.406.958.8 0 .527-.552.889-1.345.889-.788 0-1.276-.318-1.429-.832h-1.555c.121 1.251 1.213 2 2.945 2 1.733 0 2.958-.883 2.958-2.209 0-1.022-.615-1.587-1.942-1.892l-1.225-.273c-.698-.165-1.028-.412-1.028-.806 0-.514.539-.863 1.256-.863.737 0 1.2.317 1.314.806h1.479c-.114-1.251-1.148-1.974-2.799-1.974-1.638 0-2.78.869-2.78 2.113z" fill="#e2e8f0"/><rect fill="#98a6ba" height="24" rx="12" width="118" x="36" y="387"/><path d="m51.0078 397.062h-1.5742v4.043c0 1.048-.5586 1.683-1.5806 1.683-.9394 0-1.3774-.521-1.3774-1.6v-4.126h-1.5742v4.507c0 1.625.8886 2.571 2.4057 2.571 1.0601 0 1.7393-.451 2.0757-1.244h.1079v1.104h1.5171zm1.8497 6.938h1.5742v-4.043c0-1.041.5904-1.695 1.5298-1.695.9585 0 1.4028.539 1.4028 1.618v4.12h1.5743v-4.488c0-1.65-.8443-2.583-2.3931-2.583-1.0347 0-1.7329.469-2.063 1.244h-.1079v-1.111h-1.5171zm8.3687-8.639v1.745h-1.0981v1.226h1.0981v3.827c0 1.34.6348 1.873 2.2281 1.873.3046 0 .5966-.026.8252-.07v-1.206c-.1905.019-.3111.032-.5332.032-.6602 0-.9522-.311-.9522-1.003v-3.453h1.4854v-1.226h-1.4854v-1.745zm5.3473.539c.5205 0 .9458-.412.9458-.933 0-.514-.4253-.933-.9458-.933-.5142 0-.9395.419-.9395.933 0 .521.4253.933.9395.933zm-.7808 8.1h1.5679v-6.938h-1.5679zm3.5064 0h1.5743v-9.623h-1.5743zm7.673-8.1c.5206 0 .9458-.412.9458-.933 0-.514-.4252-.933-.9458-.933-.5141 0-.9394.419-.9394.933 0 .521.4253.933.9394.933zm-.7807 8.1h1.5679v-6.938h-1.5679zm3.4429 0h1.5743v-4.043c0-1.041.5903-1.695 1.5297-1.695.9585 0 1.4029.539 1.4029 1.618v4.12h1.5742v-4.488c0-1.65-.8442-2.583-2.3931-2.583-1.0346 0-1.7329.469-2.063 1.244h-.1079v-1.111h-1.5171zm10.381.114c.9648 0 1.7646-.45 2.1582-1.212h.1079v1.098h1.5234v-9.623h-1.5742v3.79h-.1079c-.3682-.762-1.1553-1.219-2.1074-1.219-1.752 0-2.8565 1.384-2.8565 3.58 0 2.202 1.0982 3.586 2.8565 3.586zm.4887-5.852c1.0791 0 1.7456.869 1.7456 2.272 0 1.409-.6601 2.273-1.7456 2.273-1.0791 0-1.7329-.851-1.7329-2.273 0-1.415.6602-2.272 1.7329-2.272zm9.734 3.84c-.229.521-.7685.813-1.5493.813-1.0347 0-1.7012-.737-1.7393-1.911v-.083h4.8496v-.501c0-2.177-1.187-3.491-3.1674-3.491-2.0122 0-3.2627 1.403-3.2627 3.631 0 2.221 1.2314 3.58 3.2754 3.58 1.6377 0 2.7997-.787 3.0847-2.038zm-1.6128-3.948c.9458 0 1.5678.666 1.5998 1.72h-3.2692c.0698-1.041.73-1.72 1.6694-1.72zm5.1818 5.846h1.568v-5.668h1.492v-1.226h-1.511v-.641c0-.66.292-.99 1.035-.99.222 0 .413.019.539.038v-1.136c-.253-.044-.539-.064-.876-.064-1.542 0-2.247.68-2.247 2.063v.73h-1.136v1.226h1.136zm5.303-8.1c.521 0 .946-.412.946-.933 0-.514-.425-.933-.946-.933-.514 0-.939.419-.939.933 0 .521.425.933.939.933zm-.781 8.1h1.568v-6.938h-1.568zm3.443 0h1.575v-4.043c0-1.041.59-1.695 1.529-1.695.959 0 1.403.539 1.403 1.618v4.12h1.574v-4.488c0-1.65-.844-2.583-2.393-2.583-1.034 0-1.732.469-2.063 1.244h-.107v-1.111h-1.518zm8.667-8.1c.521 0 .946-.412.946-.933 0-.514-.425-.933-.946-.933-.514 0-.939.419-.939.933 0 .521.425.933.939.933zm-.78 8.1h1.568v-6.938h-1.568zm3.944-8.639v1.745h-1.098v1.226h1.098v3.827c0 1.34.635 1.873 2.228 1.873.305 0 .597-.026.825-.07v-1.206c-.19.019-.311.032-.533.032-.66 0-.952-.311-.952-1.003v-3.453h1.485v-1.226h-1.485v-1.745zm9.01 6.741c-.229.521-.768.813-1.549.813-1.035 0-1.701-.737-1.739-1.911v-.083h4.85v-.501c0-2.177-1.187-3.491-3.168-3.491-2.012 0-3.263 1.403-3.263 3.631 0 2.221 1.232 3.58 3.276 3.58 1.637 0 2.799-.787 3.085-2.038zm-1.612-3.948c.945 0 1.568.666 1.599 1.72h-3.269c.07-1.041.73-1.72 1.67-1.72zm4.738 5.846h1.574v-9.623h-1.574zm4.249 2.514c1.555 0 2.298-.565 2.888-2.273l2.507-7.179h-1.663l-1.619 5.446h-.107l-1.625-5.446h-1.727l2.482 6.963-.083.324c-.203.654-.577.908-1.244.908-.108 0-.343-.007-.431-.019v1.25c.101.019.526.026.622.026z" fill="#e2e8f0"/><path d="m225.528 327.783c.017.003.021.003.038.006.289.039.572.091.789.188.2.088.318.201.426.401.163.303.174.728.026 1.05-.11.239-.352.44-.574.546-.229.112-.456.165-.715.194-.454.05-.944-.044-1.353-.241-.242-.118-.537-.321-.686-.583-.109-.192-.106-.442.028-.624.212-.291.667-.354 1.009-.342.261.01.731.09.979.179.069.024.322.123.367.168.031.032.051.078.037.12-.057.173-.478.265-.599.283-.326.05-.495-.073-.865-.219-.091-.036-.214-.076-.307-.085-.168-.016-.371.031-.403.214-.016.095.095.183.179.22.199.086.36.116.555.119.577.009 1.226-.086 1.698-.42.064-.046.128-.114.128-.199.002-.171-.299-.276-.299-.276-.318-.133-.905-.198-1.208-.222-.317-.028-.817-.069-.937-.087-.123-.017-.258-.042-.365-.09-.107-.049-.212-.157-.243-.278-.056-.216.015-.482.135-.655.316-.454 1.054-.626 1.606-.694.534-.067 1.398-.066 1.922.213.081.043.123.084.106.17-.034.163-.156.268-.305.313-.155.05-.476.069-.617.078-.633.036-1.397.017-2 .181-.047.014-.128.036-.155.065-.094.103.175.132.233.144.017.004.02.004.038.006zm-3.763-2.82s.103-.154.189-.272c.157-.213.441-.508.655-.691.065-.056.142-.12.142-.12s-.12.013-.189.027c-.162.031-.4.19-.519.292-.196.168-.412.441-.314.683.014.035.036.081.036.081zm1.091.292c.31-.022.6-.111.87-.261.265-.148.655-.437.615-.778-.012-.11-.084-.193-.175-.232-.119-.051-.18-.042-.331.002-.11.033-.16.052-.263.111-.304.177-.735.555-.969.857-.055.071-.109.151-.152.205-.027.034-.048.065-.045.073.009.034.329.031.45.023zm-.79.579c-.032.034-.065.116-.101.175-.018.031-.053.072-.076.088-.081.06-.149.062-.227-.006-.109-.097-.172-.246-.177-.391-.002-.064.009-.134-.003-.187-.02-.091-.11-.184-.159-.27-.057-.102-.104-.279-.109-.393-.02-.357.168-.686.413-.945.246-.263.568-.481.918-.629.331-.139.816-.234 1.179-.108.119.04.284.141.366.246.018.022.032.046.05.057.017.011.059.015.092.021.116.02.283.108.352.166.137.118.212.231.246.395.07.33-.12.692-.336.912-.371.379-.737.646-1.211.832-.208.081-.532.157-.768.136-.073-.007-.149-.026-.22-.031-.037-.003-.17-.037-.184-.047-.018-.013-.041-.025-.045-.021zm.424.732c.014.002.036.009.055.016.167.063.235.217.276.386.095.392.135 1.26.151 1.599.012.255.018.506.029.758.009.213.026.497-.019.697-.016.072-.064.155-.133.198-.079.051-.258.055-.357.034-.243-.05-.322-.206-.357-.447-.083-.574-.043-1.701.006-2.176.016-.157.075-.66.157-.871.028-.071.088-.215.192-.194zm-7.401.955s-.362.026-.611.053c-.317.034-.913.137-1.257.26-.103.037-.312.125-.33.231-.02.11.049.195.125.284.043.052.292.291.361.349.292.244.884.619 1.32.802.15.062.397.151.397.151s-.018-.706-.015-1.401c.002-.366.01-.729.01-.729zm6.639.281c.02.189-.028.547-.037.595-.015.109-.097.36-.111.391-.066.152-.132.277-.201.402-.119.214-.401.553-.568.697-.624.539-1.588.846-2.416.947-.562.068-1.207.058-1.802-.052-.205-.038-.51-.108-.51-.108s.001.122-.008.208c-.005.039-.035.142-.051.175-.043.089-.114.136-.218.155-.124.024-.257.031-.372-.018-.189-.08-.257-.257-.29-.461-.026-.163-.054-.447-.054-.447s-.142-.067-.26-.126c-.362-.178-.706-.394-1.008-.617-.083-.062-.441-.362-.52-.437-.222-.21-.422-.42-.574-.689-.118-.21-.152-.396-.062-.619.124-.31.569-.543.873-.677.223-.098.918-.325 1.207-.367.136-.02.347-.057.36-.066.005-.004.009-.007.013-.012.007-.009.018-.316.016-.428-.003-.111.081-.836.109-.99.014-.083.077-.402.141-.486.042-.056.116-.052.176-.015.331.206.432.92.456 1.283.015.221.022.554.022.554s.38-.011.614-.004c.227.005.477.041.712.078.302.049.89.177 1.227.348.277.14.537.378.621.628.079.231.067.39-.052.597-.134.235-.388.409-.644.424-.077.004-.365-.034-.453-.103-.035-.027-.033-.076-.008-.11.009-.012.144-.083.223-.125.04-.022.073-.045.104-.073.066-.058.125-.122.119-.197-.009-.097-.112-.157-.21-.196-.461-.183-1.38-.335-1.824-.361-.174-.01-.421-.019-.421-.019l.052 2.453s.205.039.366.065c.092.014.484.049.588.052.793.021 1.677-.05 2.405-.394.319-.15.612-.337.834-.59.292-.335.445-.794.405-1.273-.045-.523-.413-1.144-.707-1.523-.777-.999-2.109-1.821-3.28-2.302-1.197-.492-2.379-.775-3.648-.822-.328-.012-1.041.004-1.402.104-.051.014-.103.032-.151.043-.038.009-.098.034-.114.047-.009.007-.018.017-.018.017s.022.013.044.022c.038.016.199.026.282.042.074.014.152.053.183.107.029.052.032.093-.002.136-.082.1-.39.083-.525.062-.141-.023-.316-.066-.348-.189-.038-.144.031-.285.105-.416.149-.262.362-.398.674-.483.443-.122 1.003-.208 1.422-.224.948-.035 1.845.13 2.763.409.526.159 1.214.426 1.717.668.362.174.931.495 1.251.704.101.067.691.501.783.577.191.156.442.381.623.561.35.348.787.88.998 1.303.051.101.091.201.157.318.022.04.119.28.135.35.016.069.039.17.043.174.004.036.049.243.046.323zm11.914-.543c-.444.103-1.611.159-1.611.159l-.147.461s.583-.049 1.007-.005c0 0 .138-.016.154.156.006.16-.014.333-.014.333s-.008.104-.156.13c-.16.027-1.257.069-1.257.069l-.178.601s-.066.139.082.1c.138-.037 1.287-.253 1.437-.222.16.04.338.254.287.449-.061.241-1.209.973-1.908.922 0 0-.367.024-.677-.472-.289-.472.109-1.366.109-1.366s-.182-.417-.05-.559c0 0 .079-.071.309-.088l.281-.581s-.32.022-.511-.214c-.178-.223-.192-.326-.056-.388.145-.072 1.479-.315 2.397-.284 0 0 .319-.032.596.522 0 0 .134.223-.094.277zm-3.452 2.237c-.118.277-.429.572-.815.389-.381-.184-.988-1.427-.988-1.427s-.23-.463-.275-.451c0 0-.05-.09-.08.416-.032.504.006 1.487-.195 1.642-.191.155-.421.093-.541-.088-.109-.179-.154-.603-.094-1.348.069-.747.243-1.541.464-1.789.222-.245.399-.067.468-.002 0 0 .296.268.785 1.056l.086.146s.443.744.49.742c0 0 .036.034.068.01.047-.014.028-.252.028-.252s-.092-.811-.497-2.184c0 0-.061-.171-.02-.332.042-.162.204-.086.204-.086s.627.315.932 1.337c.302 1.021.099 1.943-.02 2.221zm6.75-.611c-.286.498-1.092 1.541-2.163 1.295-.354.857-.651 1.725-.821 3.024 0 0-.037.252-.247.164-.208-.072-.55-.418-.619-.896-.075-.628.205-1.689.776-2.906-.166-.271-.28-.658-.183-1.209 0 0 .144-1.024 1.171-1.946 0 0 .124-.106.195-.074.079.033.042.366-.02.528-.065.161-.523.953-.523.953s-.285.536-.205.958c.539-.829 1.765-2.5 2.524-1.973.255.182.373.579.373 1.007 0 .376-.091.775-.258 1.075zm-.222-1.313s-.042-.329-.364.034c-.277.306-.777.88-1.179 1.659.422-.047.829-.276.952-.393.2-.177.666-.659.591-1.3zm6.123-.075h-1.964c-.039-.667-.119-1.317-.246-1.986-.013-.07-.073-.12-.143-.12h-.453c-.039 0-.077.018-.102.049-.026.031-.036.071-.028.11.128.648.21 1.285.25 1.948h-1.889c-.088 0-.159.071-.159.159v.408c0 .088.071.16.159.16h1.916c.001.1.002.191.002.275 0 .588-.025 1.073-.084 1.62-.005.042.009.084.037.115.028.032.068.049.11.049h.419c.082 0 .15-.061.158-.143.058-.55.082-1.041.082-1.641 0-.084 0-.175-.002-.275h1.937c.087 0 .159-.072.159-.16v-.408c0-.088-.072-.16-.159-.16z" fill="#101c50"/><path d="m216.591 322.027c-.028.042-.035.092-.019.14.017.048.053.084.1.1l.352.119c.021.006.042.01.063.01.065 0 .127-.032.163-.087 1.153-1.693 2.713-3.103 4.512-4.077 1.857-1.006 3.961-1.538 6.086-1.538 2.566 0 5.041.757 7.16 2.189 2.066 1.397 3.672 3.345 4.642 5.635.028.069.095.113.17.113h.42c.048 0 .094-.024.121-.065.028-.04.033-.092.015-.137-1.001-2.462-2.692-4.561-4.892-6.069-2.253-1.544-4.893-2.36-7.636-2.36-4.535 0-8.744 2.253-11.257 6.027z" fill="url(#a)"/><rect fill="#98a6ba" height="24" rx="12" width="132" x="207" y="357"/><path d="m215.882 368.89v.952h1.721c.057.248.095.489.095.737 0 1.022-.73 1.879-1.784 2.101v1.257h6.894v-1.327h-4.691v-.083c.666-.374 1.142-1.098 1.142-2.012 0-.228-.025-.451-.076-.673h2.634v-.952h-2.913c-.159-.47-.305-.933-.305-1.415 0-.921.717-1.492 2.006-1.492.717 0 1.428.14 1.777.324v-1.302c-.393-.196-1.168-.336-1.974-.336-2.158 0-3.428 1.041-3.428 2.672 0 .527.166 1.041.337 1.549zm12.108 5.339c1.999 0 3.339-1.314 3.339-3.231 0-1.841-1.27-3.016-2.838-3.016-.933 0-1.606.318-2.012.883h-.108l.254-2.679h4.215v-1.346h-5.491l-.501 5.326h1.485c.311-.603.914-.965 1.695-.965 1.009 0 1.72.73 1.72 1.822 0 1.123-.711 1.873-1.765 1.873-.933 0-1.637-.565-1.739-1.422h-1.53c.07 1.606 1.384 2.755 3.276 2.755zm5.709-.102c.603 0 1.016-.425 1.016-.99 0-.559-.413-.984-1.016-.984-.597 0-1.016.425-1.016.984 0 .565.419.99 1.016.99zm5.684.095c2.329 0 3.713-1.822 3.713-4.913 0-3.034-1.473-4.697-3.663-4.697-1.993 0-3.402 1.339-3.402 3.212 0 1.758 1.27 3.04 3.015 3.04 1.073 0 1.943-.495 2.374-1.364h.108c-.019 2.151-.787 3.383-2.126 3.383-.788 0-1.416-.432-1.613-1.13h-1.631c.267 1.492 1.549 2.469 3.225 2.469zm.057-4.621c-1.067 0-1.803-.749-1.803-1.828 0-1.035.774-1.828 1.809-1.828s1.809.806 1.809 1.86c0 1.041-.755 1.796-1.815 1.796zm8.533 4.621c2.33 0 3.714-1.822 3.714-4.913 0-3.034-1.473-4.697-3.663-4.697-1.993 0-3.402 1.339-3.402 3.212 0 1.758 1.269 3.04 3.015 3.04 1.073 0 1.942-.495 2.374-1.364h.108c-.019 2.151-.787 3.383-2.126 3.383-.788 0-1.416-.432-1.613-1.13h-1.631c.266 1.492 1.549 2.469 3.224 2.469zm.058-4.621c-1.067 0-1.803-.749-1.803-1.828 0-1.035.774-1.828 1.809-1.828s1.809.806 1.809 1.86c0 1.041-.755 1.796-1.815 1.796zm12.51-2.653c-.953 0-1.759.476-2.159 1.263h-.108v-1.149h-1.517v9.242h1.575v-3.358h.107c.356.737 1.124 1.168 2.121 1.168 1.752 0 2.843-1.377 2.843-3.58 0-2.222-1.104-3.586-2.862-3.586zm-.496 5.859c-1.072 0-1.739-.87-1.745-2.273.006-1.403.679-2.272 1.752-2.272 1.079 0 1.733.85 1.733 2.272s-.648 2.273-1.74 2.273zm9.385-.705c-.229.521-.768.813-1.549.813-1.035 0-1.701-.737-1.739-1.911v-.083h4.849v-.501c0-2.177-1.187-3.491-3.167-3.491-2.012 0-3.263 1.403-3.263 3.631 0 2.221 1.232 3.58 3.275 3.58 1.638 0 2.8-.787 3.085-2.038zm-1.613-3.948c.946 0 1.568.666 1.6 1.72h-3.269c.07-1.041.73-1.72 1.669-1.72zm4.675 5.846h1.574v-4.031c0-.977.711-1.612 1.733-1.612.267 0 .686.044.806.089v-1.435c-.146-.038-.425-.063-.654-.063-.895 0-1.644.508-1.834 1.193h-.108v-1.079h-1.517zm10.815-4.088h1.149c1.13 0 1.815.565 1.815 1.485 0 .889-.742 1.486-1.796 1.486-1.06 0-1.777-.546-1.847-1.397h-1.568c.076 1.657 1.441 2.743 3.434 2.743 1.98 0 3.453-1.143 3.453-2.717 0-1.251-.781-2.057-2.025-2.247v-.108c.971-.261 1.663-.99 1.67-2.095.006-1.314-1.092-2.45-3.041-2.45-1.987 0-3.231 1.123-3.313 2.729h1.536c.07-.914.692-1.422 1.688-1.422.971 0 1.549.597 1.549 1.352 0 .832-.647 1.416-1.587 1.416h-1.117zm9.645 4.317c2.189 0 3.491-1.771 3.491-4.806 0-3.04-1.321-4.811-3.491-4.811-2.178 0-3.498 1.771-3.498 4.799 0 3.04 1.301 4.818 3.498 4.818zm0-1.327c-1.162 0-1.841-1.206-1.841-3.491 0-2.266.692-3.466 1.841-3.466 1.148 0 1.834 1.193 1.834 3.466 0 2.291-.673 3.491-1.834 3.491zm11.107 1.212c.964 0 1.764-.45 2.158-1.212h.108v1.098h1.523v-9.623h-1.574v3.79h-.108c-.368-.762-1.155-1.219-2.107-1.219-1.752 0-2.857 1.384-2.857 3.58 0 2.202 1.098 3.586 2.857 3.586zm.488-5.852c1.08 0 1.746.869 1.746 2.272 0 1.409-.66 2.273-1.746 2.273-1.079 0-1.733-.851-1.733-2.273 0-1.415.661-2.272 1.733-2.272zm7.119 5.852c.907 0 1.669-.393 2.056-1.066h.108v.952h1.517v-4.742c0-1.466-1.003-2.329-2.786-2.329-1.651 0-2.8.774-2.927 1.987h1.486c.146-.477.641-.737 1.364-.737.851 0 1.308.387 1.308 1.079v.597l-1.79.108c-1.688.095-2.634.825-2.634 2.069 0 1.27.958 2.082 2.298 2.082zm.463-1.212c-.698 0-1.2-.349-1.2-.946 0-.578.413-.901 1.295-.958l1.568-.108v.565c0 .825-.711 1.447-1.663 1.447zm5.582 3.612c1.555 0 2.298-.565 2.888-2.273l2.508-7.179h-1.663l-1.619 5.446h-.108l-1.625-5.446h-1.727l2.482 6.963-.082.324c-.203.654-.578.908-1.244.908-.108 0-.343-.007-.432-.019v1.25c.102.019.527.026.622.026zm6.325-7.472c0 1.041.628 1.651 1.961 1.956l1.232.285c.66.153.958.406.958.8 0 .527-.552.889-1.345.889-.788 0-1.276-.318-1.429-.832h-1.555c.121 1.251 1.213 2 2.945 2 1.733 0 2.959-.883 2.959-2.209 0-1.022-.616-1.587-1.943-1.892l-1.225-.273c-.698-.165-1.028-.412-1.028-.806 0-.514.539-.863 1.257-.863.736 0 1.199.317 1.314.806h1.479c-.115-1.251-1.149-1.974-2.8-1.974-1.638 0-2.78.869-2.78 2.113z" fill="#e2e8f0"/><rect fill="#98a6ba" height="24" rx="12" width="118" x="207" y="387"/><path d="m222.008 397.062h-1.574v4.043c0 1.048-.559 1.683-1.581 1.683-.939 0-1.377-.521-1.377-1.6v-4.126h-1.575v4.507c0 1.625.889 2.571 2.406 2.571 1.06 0 1.739-.451 2.076-1.244h.108v1.104h1.517zm1.85 6.938h1.574v-4.043c0-1.041.59-1.695 1.53-1.695.958 0 1.402.539 1.402 1.618v4.12h1.575v-4.488c0-1.65-.845-2.583-2.394-2.583-1.034 0-1.732.469-2.062 1.244h-.108v-1.111h-1.517zm8.368-8.639v1.745h-1.098v1.226h1.098v3.827c0 1.34.635 1.873 2.228 1.873.305 0 .597-.026.825-.07v-1.206c-.19.019-.311.032-.533.032-.66 0-.952-.311-.952-1.003v-3.453h1.485v-1.226h-1.485v-1.745zm5.347.539c.521 0 .946-.412.946-.933 0-.514-.425-.933-.946-.933-.514 0-.939.419-.939.933 0 .521.425.933.939.933zm-.78 8.1h1.568v-6.938h-1.568zm3.506 0h1.574v-9.623h-1.574zm9.076 0h1.638v-9.16h-1.632l-2.393 1.682v1.543l2.279-1.612h.108zm7.486.229c2 0 3.339-1.314 3.339-3.231 0-1.841-1.269-3.016-2.837-3.016-.933 0-1.606.318-2.012.883h-.108l.254-2.679h4.214v-1.346h-5.49l-.502 5.326h1.486c.311-.603.914-.965 1.694-.965 1.01 0 1.721.73 1.721 1.822 0 1.123-.711 1.873-1.765 1.873-.933 0-1.638-.565-1.739-1.422h-1.53c.07 1.606 1.384 2.755 3.275 2.755zm5.506 1.732 3.288-11.584h-1.415l-3.295 11.584zm6.458-1.961h1.638v-9.16h-1.631l-2.393 1.682v1.543l2.278-1.612h.108zm6.37 0h1.637v-9.16h-1.631l-2.393 1.682v1.543l2.279-1.612h.108zm4.655 1.961 3.288-11.584h-1.415l-3.295 11.584zm4.122-8.41h1.536c0-.965.635-1.625 1.632-1.625.958 0 1.529.641 1.529 1.472 0 .699-.279 1.137-1.434 2.305l-3.174 3.193v1.104h6.36v-1.358h-4.138v-.108l1.967-1.936c1.575-1.543 2.038-2.286 2.038-3.352 0-1.523-1.238-2.634-3.06-2.634-1.91 0-3.256 1.206-3.256 2.939zm11.562 6.678c2.19 0 3.491-1.771 3.491-4.806 0-3.04-1.32-4.811-3.491-4.811-2.178 0-3.498 1.771-3.498 4.799 0 3.04 1.301 4.818 3.498 4.818zm0-1.327c-1.162 0-1.841-1.206-1.841-3.491 0-2.266.692-3.466 1.841-3.466s1.834 1.193 1.834 3.466c0 2.291-.673 3.491-1.834 3.491zm5.112-5.351h1.536c0-.965.635-1.625 1.632-1.625.958 0 1.529.641 1.529 1.472 0 .699-.279 1.137-1.434 2.305l-3.174 3.193v1.104h6.36v-1.358h-4.138v-.108l1.967-1.936c1.575-1.543 2.038-2.286 2.038-3.352 0-1.523-1.238-2.634-3.06-2.634-1.91 0-3.256 1.206-3.256 2.939zm11.562 6.678c2.19 0 3.491-1.771 3.491-4.806 0-3.04-1.32-4.811-3.491-4.811-2.178 0-3.498 1.771-3.498 4.799 0 3.04 1.301 4.818 3.498 4.818zm0-1.327c-1.162 0-1.841-1.206-1.841-3.491 0-2.266.692-3.466 1.841-3.466s1.834 1.193 1.834 3.466c0 2.291-.673 3.491-1.834 3.491z" fill="#e2e8f0"/><rect fill="#cfd8e3" height="130" rx="24" width="156" x="24" y="438"/><path d="m96 484 4.33-6h-8.6601z" fill="#475569"/><path d="m115.665 482.037h-4.996v-.146c.762-.403 1.216-1.231 1.165-2.08 0-.162-.029-.301-.081-.433h2.52v-1.618h-2.952c-.183-.454-.3-.806-.3-1.304 0-.901.813-1.457 2.124-1.457.732 0 1.362.065 2.043.227v-1.839c-.651-.161-1.391-.227-2.373-.227-2.512 0-3.999 1.033-3.999 2.791 0 .652.184 1.223.418 1.809h-1.604v1.618h2.058c.044.118.081.264.081.44-.03 1.245-.887 2.182-2.154 2.366v1.816h8.05zm1.21-5.42v.044h1.933v-.051c0-1.011.703-1.699 1.751-1.699 1.025 0 1.692.6 1.692 1.516 0 .71-.374 1.267-1.817 2.71l-3.442 3.405v1.458h7.449v-1.75h-4.622v-.132l2.066-1.971c1.787-1.713 2.395-2.702 2.395-3.859 0-1.831-1.473-3.069-3.655-3.069-2.219 0-3.75 1.377-3.75 3.398zm12.826 7.522c.886 0 1.611-.747 1.611-1.648 0-.908-.725-1.655-1.611-1.655s-1.611.747-1.611 1.655c0 .901.725 1.648 1.611 1.648zm7.744-4.775h1.259c1.216 0 2 .608 2 1.553 0 .93-.769 1.523-1.978 1.523-1.135 0-1.897-.571-1.97-1.472h-1.926c.095 1.977 1.648 3.244 3.955 3.244 2.366 0 3.984-1.281 3.984-3.156 0-1.399-.849-2.337-2.278-2.505v-.132c1.158-.234 1.868-1.15 1.868-2.395 0-1.67-1.457-2.805-3.603-2.805-2.234 0-3.648 1.216-3.721 3.2h1.853c.066-.93.762-1.523 1.802-1.523 1.062 0 1.736.557 1.736 1.436 0 .886-.689 1.464-1.744 1.464h-1.237zm11.156 4.636h1.948v-2h1.407v-1.669h-1.436v-2.703h-1.853v2.666h-2.578v-.132l3.105-6.731h-2.102l-3.215 6.9v1.669h4.724zm8.198.22c2.541 0 3.977-1.985 3.977-5.508s-1.436-5.508-3.977-5.508c-2.535 0-3.97 1.985-3.97 5.508s1.435 5.508 3.97 5.508zm-1.934-5.508c0-2.454.681-3.787 1.934-3.787.827 0 1.398.572 1.699 1.656l-3.633 2.402c0-.088 0-.176 0-.271zm1.934 3.787c-.821 0-1.392-.564-1.692-1.641l3.632-2.402v.256c0 2.461-.681 3.787-1.94 3.787z" fill="#475569"/><circle cx="56" cy="470" fill="#fff" r="20"/><rect fill="#98a6ba" height="24" rx="12" width="132" x="36" y="502"/><path d="m44.8823 513.89v.952h1.7202c.0572.248.0953.489.0953.737 0 1.022-.73 1.879-1.7837 2.101v1.257h6.8935v-1.327h-4.6909v-.083c.6665-.374 1.1426-1.098 1.1426-2.012 0-.228-.0254-.451-.0762-.673h2.6343v-.952h-2.9136c-.1587-.47-.3047-.933-.3047-1.415 0-.921.7173-1.492 2.0059-1.492.7173 0 1.4282.14 1.7773.324v-1.302c-.3935-.196-1.1679-.336-1.9741-.336-2.1582 0-3.4277 1.041-3.4277 2.672 0 .527.165 1.041.3364 1.549zm9.1813 5.11h1.7138l3.9165-7.795v-1.365h-6.373v1.34h4.7226v.101zm6.8199.127c.603 0 1.0156-.425 1.0156-.99 0-.559-.4126-.984-1.0156-.984-.5967 0-1.0157.425-1.0157.984 0 .565.419.99 1.0157.99zm5.6836.095c2.3296 0 3.7134-1.822 3.7134-4.913 0-3.034-1.4726-4.697-3.6626-4.697-1.9932 0-3.4023 1.339-3.4023 3.212 0 1.758 1.2695 3.04 3.0151 3.04 1.0728 0 1.9424-.495 2.374-1.364h.1079c-.019 2.151-.7871 3.383-2.1264 3.383-.7871 0-1.4156-.432-1.6123-1.13h-1.6314c.2666 1.492 1.5488 2.469 3.2246 2.469zm.0572-4.621c-1.0664 0-1.8028-.749-1.8028-1.828 0-1.035.7744-1.828 1.8091-1.828s1.8091.806 1.8091 1.86c0 1.041-.7554 1.796-1.8154 1.796zm8.5337 4.621c2.3296 0 3.7134-1.822 3.7134-4.913 0-3.034-1.4726-4.697-3.6626-4.697-1.9932 0-3.4023 1.339-3.4023 3.212 0 1.758 1.2695 3.04 3.0151 3.04 1.0728 0 1.9424-.495 2.374-1.364h.1079c-.019 2.151-.7871 3.383-2.1264 3.383-.7871 0-1.4156-.432-1.6123-1.13h-1.6314c.2666 1.492 1.5488 2.469 3.2246 2.469zm.0572-4.621c-1.0664 0-1.8028-.749-1.8028-1.828 0-1.035.7744-1.828 1.8091-1.828s1.8091.806 1.8091 1.86c0 1.041-.7554 1.796-1.8154 1.796zm12.5099-2.653c-.9522 0-1.7583.476-2.1582 1.263h-.1079v-1.149h-1.5171v9.242h1.5742v-3.358h.1079c.3555.737 1.1235 1.168 2.1201 1.168 1.752 0 2.8438-1.377 2.8438-3.58 0-2.222-1.1045-3.586-2.8628-3.586zm-.4951 5.859c-1.0728 0-1.7393-.87-1.7456-2.273.0063-1.403.6792-2.272 1.7519-2.272 1.0791 0 1.7329.85 1.7329 2.272s-.6474 2.273-1.7392 2.273zm9.3843-.705c-.2285.521-.7681.813-1.5488.813-1.0347 0-1.7012-.737-1.7393-1.911v-.083h4.8496v-.501c0-2.177-1.187-3.491-3.1674-3.491-2.0122 0-3.2627 1.403-3.2627 3.631 0 2.221 1.2314 3.58 3.2754 3.58 1.6376 0 2.7993-.787 3.0849-2.038zm-1.6123-3.948c.9458 0 1.5679.666 1.5996 1.72h-3.269c.0698-1.041.73-1.72 1.6694-1.72zm4.6744 5.846h1.5746v-4.031c0-.977.711-1.612 1.733-1.612.266 0 .685.044.806.089v-1.435c-.146-.038-.426-.063-.654-.063-.895 0-1.644.508-1.835 1.193h-.108v-1.079h-1.5166zm10.8156-4.088h1.148c1.13 0 1.816.565 1.816 1.485 0 .889-.743 1.486-1.797 1.486-1.06 0-1.777-.546-1.847-1.397h-1.568c.077 1.657 1.441 2.743 3.435 2.743 1.98 0 3.453-1.143 3.453-2.717 0-1.251-.781-2.057-2.025-2.247v-.108c.971-.261 1.663-.99 1.669-2.095.007-1.314-1.092-2.45-3.04-2.45-1.987 0-3.231 1.123-3.314 2.729h1.536c.07-.914.692-1.422 1.689-1.422.971 0 1.549.597 1.549 1.352 0 .832-.648 1.416-1.587 1.416h-1.117zm9.644 4.317c2.19 0 3.491-1.771 3.491-4.806 0-3.04-1.32-4.811-3.491-4.811-2.177 0-3.497 1.771-3.497 4.799 0 3.04 1.301 4.818 3.497 4.818zm0-1.327c-1.162 0-1.841-1.206-1.841-3.491 0-2.266.692-3.466 1.841-3.466s1.835 1.193 1.835 3.466c0 2.291-.673 3.491-1.835 3.491zm11.107 1.212c.965 0 1.765-.45 2.158-1.212h.108v1.098h1.524v-9.623h-1.574v3.79h-.108c-.369-.762-1.156-1.219-2.108-1.219-1.752 0-2.856 1.384-2.856 3.58 0 2.202 1.098 3.586 2.856 3.586zm.489-5.852c1.079 0 1.746.869 1.746 2.272 0 1.409-.661 2.273-1.746 2.273-1.079 0-1.733-.851-1.733-2.273 0-1.415.66-2.272 1.733-2.272zm7.118 5.852c.908 0 1.67-.393 2.057-1.066h.108v.952h1.517v-4.742c0-1.466-1.003-2.329-2.787-2.329-1.65 0-2.799.774-2.926 1.987h1.485c.146-.477.641-.737 1.365-.737.851 0 1.308.387 1.308 1.079v.597l-1.79.108c-1.689.095-2.635.825-2.635 2.069 0 1.27.959 2.082 2.298 2.082zm.464-1.212c-.699 0-1.2-.349-1.2-.946 0-.578.412-.901 1.295-.958l1.568-.108v.565c0 .825-.711 1.447-1.663 1.447zm5.582 3.612c1.555 0 2.298-.565 2.888-2.273l2.507-7.179h-1.663l-1.619 5.446h-.107l-1.625-5.446h-1.727l2.482 6.963-.083.324c-.203.654-.577.908-1.244.908-.108 0-.342-.007-.431-.019v1.25c.101.019.526.026.622.026zm6.324-7.472c0 1.041.629 1.651 1.962 1.956l1.231.285c.661.153.959.406.959.8 0 .527-.552.889-1.346.889-.787 0-1.276-.318-1.428-.832h-1.555c.12 1.251 1.212 2 2.945 2s2.958-.883 2.958-2.209c0-1.022-.616-1.587-1.942-1.892l-1.225-.273c-.699-.165-1.029-.412-1.029-.806 0-.514.54-.863 1.257-.863.736 0 1.2.317 1.314.806h1.479c-.114-1.251-1.149-1.974-2.799-1.974-1.638 0-2.781.869-2.781 2.113z" fill="#e2e8f0"/><rect fill="#98a6ba" height="24" rx="12" width="109" x="36" y="532"/><path d="m51.0078 542.062h-1.5742v4.043c0 1.048-.5586 1.683-1.5806 1.683-.9394 0-1.3774-.521-1.3774-1.6v-4.126h-1.5742v4.507c0 1.625.8886 2.571 2.4057 2.571 1.0601 0 1.7393-.451 2.0757-1.244h.1079v1.104h1.5171zm1.8497 6.938h1.5742v-4.043c0-1.041.5904-1.695 1.5298-1.695.9585 0 1.4028.539 1.4028 1.618v4.12h1.5743v-4.488c0-1.65-.8443-2.583-2.3931-2.583-1.0347 0-1.7329.469-2.063 1.244h-.1079v-1.111h-1.5171zm8.3687-8.639v1.745h-1.0981v1.226h1.0981v3.827c0 1.34.6348 1.873 2.2281 1.873.3046 0 .5966-.026.8252-.07v-1.206c-.1905.019-.3111.032-.5332.032-.6602 0-.9522-.311-.9522-1.003v-3.453h1.4854v-1.226h-1.4854v-1.745zm5.3473.539c.5205 0 .9458-.412.9458-.933 0-.514-.4253-.933-.9458-.933-.5142 0-.9395.419-.9395.933 0 .521.4253.933.9395.933zm-.7808 8.1h1.5679v-6.938h-1.5679zm3.5064 0h1.5743v-9.623h-1.5743zm16.4963 0v-9.16h-1.917l-2.7549 6.799h-.1142l-2.7549-6.799h-1.917v9.16h1.5234v-6.494h.0889l2.5327 6.208h1.168l2.5327-6.208h.0889v6.494zm3.9254.114c.9077 0 1.6694-.393 2.0566-1.066h.1079v.952h1.5171v-4.742c0-1.466-1.0029-2.329-2.7866-2.329-1.6504 0-2.7993.774-2.9263 1.987h1.4854c.146-.477.6411-.737 1.3647-.737.8506 0 1.3076.387 1.3076 1.079v.597l-1.79.108c-1.6885.095-2.6343.825-2.6343 2.069 0 1.27.9585 2.082 2.2979 2.082zm.4633-1.212c-.6982 0-1.1997-.349-1.1997-.946 0-.578.4126-.901 1.295-.958l1.5678-.108v.565c0 .825-.7109 1.447-1.6631 1.447zm5.5822 3.612c1.5551 0 2.2978-.565 2.8881-2.273l2.5076-7.179h-1.6633l-1.6187 5.446h-.1079l-1.625-5.446h-1.7266l2.482 6.963-.0825.324c-.2032.654-.5777.908-1.2442.908-.1079 0-.3428-.007-.4316-.019v1.25c.1015.019.5268.026.6221.026zm9.9647-8.963h1.536c0-.965.635-1.625 1.631-1.625.959 0 1.53.641 1.53 1.472 0 .699-.279 1.137-1.435 2.305l-3.173 3.193v1.104h6.36v-1.358h-4.139v-.108l1.968-1.936c1.574-1.543 2.038-2.286 2.038-3.352 0-1.523-1.238-2.634-3.06-2.634-1.911 0-3.256 1.206-3.256 2.939zm11.561 6.678c2.19 0 3.492-1.771 3.492-4.806 0-3.04-1.321-4.811-3.492-4.811-2.177 0-3.497 1.771-3.497 4.799 0 3.04 1.301 4.818 3.497 4.818zm0-1.327c-1.161 0-1.84-1.206-1.84-3.491 0-2.266.691-3.466 1.84-3.466s1.835 1.193 1.835 3.466c0 2.291-.673 3.491-1.835 3.491zm5.113-5.351h1.536c0-.965.635-1.625 1.631-1.625.959 0 1.53.641 1.53 1.472 0 .699-.279 1.137-1.435 2.305l-3.173 3.193v1.104h6.36v-1.358h-4.139v-.108l1.968-1.936c1.574-1.543 2.038-2.286 2.038-3.352 0-1.523-1.238-2.634-3.06-2.634-1.911 0-3.256 1.206-3.256 2.939zm10.406 6.449h1.638v-9.16h-1.632l-2.393 1.682v1.543l2.279-1.612h.108z" fill="#e2e8f0"/><g clip-rule="evenodd" fill-rule="evenodd"><path d="m61.6993 468.09c-.4007 0-.7048.183-.9328.547-.1928.32-.2842.71-.2842 1.187 0 .471.0914.862.2842 1.171.2176.36.5272.542.9225.542h.0455c.2891 0 .5273-.106.725-.314.1928-.213.3297-.487.3855-.827 0-.025-.0104-.045-.0306-.065-.0253-.021-.0455-.026-.0811-.036h-.2536c-.0608 0-.0963.03-.1112.086-.0914.462-.3198.7-.6643.72-.2585-.01-.4513-.162-.5728-.471-.0963-.218-.1473-.507-.1473-.837 0-.334.0559-.608.1626-.831.1266-.284.3194-.431.5829-.446.1724.005.3193.081.4309.213.1064.121.1725.279.2081.476.015.061.0456.102.1064.117l.2634.005c.0712-.015.1015-.046.1015-.106-.0456-.345-.1672-.619-.3649-.817-.1978-.208-.441-.314-.7302-.314zm5.161.076c-.0261-.001-.0515.008-.0712.025-.0202.021-.0355.046-.0355.066v1.922c0 .441.0811.77.2284.983.1724.248.4257.376.7552.376.3802 0 .6642-.209.8567-.619v.456c0 .02.0153.041.0355.066.0197.017.0451.026.0712.026h.2432c.0276.001.0547-.008.0762-.026l.0253-.066v-3.118l-.0303-.061c-.0088-.01-.0198-.018-.0321-.023s-.0257-.008-.0391-.007h-.2838c-.0261-.001-.0515.008-.0712.025-.0202.021-.0355.041-.0355.066v1.668c0 .345-.0708.619-.2078.832-.0723.099-.1659.18-.2738.238-.1014.061-.2027.096-.2891.096-.0911 0-.1776-.03-.2586-.086-.0756-.062-.1363-.14-.1775-.228-.0658-.132-.1014-.324-.1014-.598v-1.922l-.0303-.066c-.0181-.016-.0417-.025-.0661-.025zm3.1736-1.166h-.2887c-.013.001-.0256.004-.0371.01-.0114.006-.0213.015-.029.025-.0253.011-.0352.041-.0352.061v4.279c0 .02.01.041.0352.066.0088.008.0191.015.0305.019.0113.005.0234.007.0356.006h.2887c.0257 0 .0508-.005.0712-.025s.0303-.041.0303-.066v-.922l.5832-.781.7603 1.698c.0306.066.0761.096.1422.096h.2839c.0355 0 .0559-.005.0761-.03.0202-.026.0253-.056.01-.081l-.9481-2.023.7963-1.049c.0202-.021.0202-.046.0049-.071-.0104-.026-.0306-.041-.0559-.041h-.2941c-.0608 0-.1116.025-.1522.086l-1.2066 1.542v-2.703c-.0012-.026-.0119-.052-.0303-.071-.0253-.015-.0455-.025-.0712-.025zm-3.8531 3.944c-.0861-.005-.1518.021-.2077.081-.0295.024-.053.054-.0689.089-.0159.034-.0236.071-.0225.109 0 .071.0305.137.0914.198.0559.056.1216.081.2077.081.0814 0 .1571-.025.213-.081.0559-.061.0811-.127.0862-.198-.0049-.081-.0303-.147-.0862-.198-.0559-.06-.1316-.086-.213-.081zm-6.0787 0c-.081-.005-.1473.021-.2081.081-.0555.051-.091.117-.0861.198-.0049.071.0306.137.0861.198.0608.056.1269.081.2081.081.0862 0 .1523-.025.2131-.081.0608-.051.0861-.127.091-.198-.0049-.081-.0302-.147-.091-.198-.027-.029-.0602-.051-.0971-.065s-.0766-.019-.116-.016zm-14.4187-2.266c-.1571-.38-.4259-.573-.7808-.573-.3801 0-.6489.193-.7858.573h-.0153v-.401c-.0051-.065-.0455-.101-.1116-.106h-.5575c-.0812 0-.1217.041-.1217.112v3.087c.0102.061.0406.091.1166.096l.5983-.005c.0759 0 .1114-.03.1167-.106v-1.627c-.0051-.274.0049-.462.0404-.558.0608-.203.1775-.294.3702-.294.1875 0 .3093.091.3497.294.0152.071.0253.258.0253.558v1.627c-.0101.066.0305.106.1066.111l.6032-.005c.081 0 .1114-.03.1114-.106v-1.627c0-.31.0153-.508.0608-.594.0253-.081.076-.142.147-.187.0608-.046.1318-.071.2128-.066.1978 0 .3145.086.3449.269.0204.045.0204.238.0204.578v1.627c0 .066.0406.107.1114.112l.5983-.005c.081 0 .1165-.031.1165-.107v-2.454c-.0151-.193-.071-.345-.1471-.456-.1671-.228-.3955-.34-.6997-.34-.1875 0-.3449.046-.4918.147-.1517.091-.2733.238-.3392.426zm5.663-.512c-.0812 0-.1116.03-.1116.111v.437c0 .075.0406.116.1167.116h1.0342l-1.1914 1.693c-.0455.076-.071.173-.071.31v.441c0 .035.0102.071.0456.086.0304.03.0608.035.0912.015.3244-.172.6844-.259 1.0697-.253.3752.01.7097.086 1.0242.253l.1014-.015c.0304-.015.0455-.046.0455-.086v-.472c-.0151-.076-.0455-.137-.1063-.172-.2992-.168-.6794-.249-1.1306-.233l1.0242-1.461c.1015-.141.1521-.233.1521-.289v-.37c0-.081-.0406-.111-.1116-.111zm7.9293.304c-.1522-.248-.3851-.365-.7048-.365-.2027 0-.3698.051-.5018.157-.1217.102-.228.249-.3145.467h-.01v-.472c-.0069-.023-.0208-.044-.0399-.059-.0191-.016-.0424-.025-.0668-.027h-.5626c-.0712 0-.1116.031-.1116.102v3.082c-.005.066.0355.106.1067.111l.5981-.005c.0761 0 .1112-.03.1216-.106v-1.658c0-.248.0302-.441.0963-.583.0709-.167.1825-.243.35-.243.1771-.011.2838.091.3343.284.0202.086.0355.263.0406.542v1.678c0 .061.041.086.1018.091l.603-.005c.0661 0 .1067-.025.1167-.086v-1.942c0-.476-.0557-.796-.1571-.963z" fill="#000"/><path d="m42.753 471.842c-.0304.045-.0202.091.0355.137.6778.615 1.4609 1.102 2.3119 1.439.8822.345 1.8049.518 2.7834.518.743-.01 1.4813-.119 2.1953-.325.7706-.233 1.4348-.553 1.9772-.958.0863-.066.1167-.132.0608-.208-.0455-.081-.1267-.091-.223-.051-1.2573.533-2.5553.791-3.8887.791-.9176 0-1.82-.121-2.7073-.36-.8618-.233-1.6629-.557-2.3979-.988-.061-.041-.1118-.036-.1472.005z" fill="#dfa63d"/><path d="m53.0093 471.751c-.0355-.041-.1114-.077-.2483-.107l-.4614-.041c-.4563.005-.8265.112-1.1205.31-.0456.04-.071.081-.0558.116 0 .031.0305.046.0862.036.7909-.087 1.2268-.071 1.3233.05.0963.127-.0102.558-.2991 1.288-.0305.051-.0152.086.0153.101.0353.011.0759.005.1216-.035.2738-.228.4716-.558.5983-.989.0455-.172.071-.329.0812-.471-.0002-.137-.0102-.223-.0408-.258z" fill="#dfa63d"/><path d="m41.3283 469.439-.1217.015c-.2332.03-.4209.081-.5577.137-.2028.091-.3548.212-.4665.375-.1216.172-.1824.37-.1824.603 0 .299.0863.533.2636.705.1572.162.3753.233.6441.233.1622 0 .2991-.02.4207-.056.0355-.01.0711-.02.1015-.035.142-.061.294-.178.4613-.345l.1472.198.2028.208c.0557.025.1014.02.142-.016l.4614-.4c.0506-.035.0506-.096 0-.157l-.152-.233c-.0506-.102-.071-.203-.071-.32v-.938c0-.284-.0153-.476-.0254-.562-.0304-.193-.1167-.355-.2432-.472-.2028-.203-.5071-.299-.9026-.299h-.1216c-.2788.015-.5171.081-.7148.198-.279.157-.4463.4-.5071.725-.0202.066.0102.106.0861.126l.5779.056c.0608 0 .0963-.035.1065-.111.0304-.112.0862-.203.1825-.264.071-.056.1622-.086.2687-.091.0102-.005.0202-.005.0304-.005.1572 0 .2739.055.3449.162.0355.045.0608.117.0659.213l.0051.299zm0 1.459c-.0254.006-.0558.006-.0812.006-.1166 0-.2078-.041-.2688-.122-.0659-.071-.1014-.177-.1014-.315 0-.278.152-.461.4512-.542.1216-.035.2738-.051.4461-.051v.122c-.0051.162-.0102.274-.0102.335-.0151.111-.0557.208-.1065.299-.0858.157-.1923.243-.3292.268zm7.8879-1.459-.1216.015c-.2332.03-.4208.081-.5577.137-.2028.091-.3549.212-.4665.375-.1216.172-.1826.37-.1826.603 0 .299.0863.533.2636.705.1572.162.3753.233.6439.233.1622 0 .2991-.02.4208-.056.0355-.01.071-.02.1014-.035.1418-.061.294-.178.4614-.345l.1471.198.2028.208c.0557.025.1014.02.1419-.016l.4613-.4c.0507-.035.0507-.096 0-.157l-.152-.233c-.0506-.102-.071-.203-.071-.32v-.938c0-.284-.0151-.476-.0253-.562-.0304-.193-.1167-.355-.2435-.472-.2026-.203-.5069-.299-.9023-.299h-.1217c-.2787.015-.5171.081-.7148.198-.2788.157-.4461.4-.5069.725-.0202.066.0102.106.0863.126l.5779.056c.0608 0 .0963-.035.1065-.111.0304-.112.0863-.203.1825-.264.071-.056.1622-.086.2687-.091.0102-.005.0202-.005.0304-.005.1572 0 .2737.055.3447.162.0355.045.0608.117.0659.213l.0051.299zm0 1.459c-.0253.006-.0557.006-.081.006-.1167 0-.2079-.041-.2687-.122-.0659-.071-.1014-.177-.1014-.315 0-.278.152-.461.4511-.542.1217-.035.2739-.051.4463-.051v.122c-.0051.162-.0102.274-.0102.335-.0153.111-.0559.208-.1065.299-.0861.157-.1926.243-.3296.268zm5.9276-2.793c-.4208 0-.7606.167-1.0038.497-.2333.304-.3549.71-.3549 1.212 0 .497.1216.897.3549 1.216.2383.34.5779.508 1.0038.508h.0102c.4057-.006.7352-.173.9888-.492.2433-.32.3698-.71.3698-1.192 0-.512-.1216-.917-.3495-1.237-.2486-.34-.5883-.512-1.0091-.512zm.01 2.783h-.0102c-.2077 0-.3449-.141-.4157-.436-.0304-.162-.0506-.4-.0506-.735 0-.269.0202-.482.0659-.629.071-.233.2079-.354.4057-.354h.0051c.1875.005.3193.111.3854.309.0609.193.0862.461.0862.811 0 .289-.0202.517-.0659.664-.0762.249-.2131.37-.4059.37zm9.2831-2.798c-.4108.005-.7351.167-.9634.512-.2329.314-.3396.71-.3396 1.196 0 .477.0963.873.2992 1.192.2234.365.5376.547.9431.547h.0608c.4004-.01.7251-.187.9634-.527.2231-.319.3396-.72.3447-1.207-.0049-.471-.1063-.861-.3145-1.181-.2328-.349-.5424-.532-.9428-.532zm0 3.026c-.1266-.004-.2482-.045-.3447-.121-.1147-.075-.2061-.18-.2638-.304-.1064-.224-.1623-.517-.1623-.893 0-.339.0455-.618.1419-.821.0608-.147.1422-.254.2536-.34.1167-.081.2332-.126.3753-.126.1116 0 .223.03.3395.106.0964.066.1825.167.2486.279.1216.218.1824.517.1824.902 0 .355-.0455.634-.1418.832-.1369.314-.35.471-.6287.486z" fill="#000"/></g><path d="m0 518.2c0-17.922 0-26.883 3.48779-33.728 3.06795-6.021 7.96331-10.916 13.98451-13.984 6.8452-3.488 15.806-3.488 33.7277-3.488h272.6c17.922 0 26.883 0 33.728 3.488 6.021 3.068 10.916 7.963 13.984 13.984 3.488 6.845 3.488 15.806 3.488 33.728v148.8h-375z" fill="#64748b"/><rect fill="#cfd8e3" height="5" rx="2.5" width="134" x="121" y="483"/><path d="m20.5332 513v-15.501h-3.2441v15.501zm2.6596 0h3.1367v-6.606c0-1.494.8916-2.525 2.2988-2.525s2.1162.86 2.1162 2.363v6.768h3.1367v-7.423c0-2.696-1.4394-4.307-3.996-4.307-1.7725 0-2.9864.837-3.5987 2.266h-.0644v-2.052h-3.0293zm23.4886-7.229c-.1396-2.611-2.1162-4.534-5.2314-4.534-3.4482 0-5.6504 2.299-5.6504 5.994 0 3.76 2.2022 6.016 5.6719 6.016 3.0293 0 5.0596-1.751 5.2207-4.469h-2.9219c-.1933 1.257-1.0098 2.009-2.2666 2.009-1.5576 0-2.5244-1.289-2.5244-3.556 0-2.223.9668-3.534 2.5137-3.534 1.289 0 2.0947.86 2.2773 2.074zm7.1606 7.476c3.4805 0 5.7041-2.224 5.7041-6.016 0-3.738-2.2559-5.994-5.7041-5.994-3.4483 0-5.7041 2.267-5.7041 5.994 0 3.782 2.2236 6.016 5.7041 6.016zm0-2.395c-1.5469 0-2.5244-1.3-2.5244-3.61 0-2.288.999-3.609 2.5244-3.609s2.5137 1.321 2.5137 3.609c0 2.31-.9776 3.61-2.5137 3.61zm7.6762 2.148h3.1367v-6.95c0-1.289.8056-2.192 1.998-2.192 1.1602 0 1.8584.731 1.8584 1.966v7.176h3.0186v-6.993c0-1.278.7842-2.149 1.9765-2.149 1.2139 0 1.8799.731 1.8799 2.063v7.079h3.1367v-7.863c0-2.321-1.5146-3.867-3.7705-3.867-1.6865 0-3.0615.913-3.5771 2.363h-.0645c-.3867-1.504-1.5468-2.363-3.2119-2.363-1.5683 0-2.8037.913-3.2871 2.298h-.0644v-2.084h-3.0293zm26.9691-3.523c-.29.88-1.1709 1.45-2.3203 1.45-1.6006 0-2.6426-1.128-2.6426-2.772v-.193h7.9385v-.956c0-3.502-2.1162-5.769-5.4678-5.769-3.4053 0-5.5537 2.385-5.5537 6.059 0 3.684 2.127 5.951 5.6719 5.951 2.8467 0 4.9092-1.515 5.2529-3.77zm-2.46-5.919c1.3965 0 2.3526 1.009 2.417 2.481h-4.8877c.1075-1.439 1.0957-2.481 2.4707-2.481z" fill="#fbfdfe"/><rect fill="#364152" height="130" rx="24" width="156" x="24" y="539"/><circle cx="56" cy="571" fill="#fff" r="20"/><path d="m87 582 4.3301 6h-8.6602z" fill="#e2e8f0"/><path d="m103.509 585.299h-4.3288v-.127c.6601-.349 1.0538-1.067 1.0088-1.803 0-.14-.025-.26-.069-.374h2.183v-1.403h-2.5579c-.1587-.394-.2602-.698-.2602-1.13 0-.781.7041-1.263 1.8411-1.263.634 0 1.18.057 1.771.197v-1.594c-.565-.139-1.206-.197-2.057-.197-2.1772 0-3.4658.895-3.4658 2.419 0 .565.1587 1.06.3618 1.568h-1.3901v1.403h1.7837c.0381.101.0698.228.0698.38-.0254 1.08-.7681 1.892-1.8662 2.051v1.574h6.9758zm8.02 1.701v-1.504h-2.342v-7.656h-1.765l-2.476 1.657v1.701l2.362-1.568h.114v5.866h-2.469v1.504zm1.113-6.398v.038h1.676v-.045c0-.876.609-1.472 1.517-1.472.889 0 1.466.52 1.466 1.314 0 .615-.323 1.098-1.574 2.348l-2.983 2.952v1.263h6.455v-1.517h-4.005v-.114l1.79-1.708c1.549-1.485 2.076-2.342 2.076-3.345 0-1.587-1.276-2.66-3.168-2.66-1.923 0-3.25 1.194-3.25 2.946zm11.194 6.582c2.031 0 3.396-1.301 3.396-3.256 0-1.784-1.181-3.022-2.869-3.022-.857 0-1.549.318-1.943.895h-.114l.197-2.444h4.17v-1.517h-5.599l-.431 5.294h1.739c.33-.552.832-.831 1.492-.831.977 0 1.644.673 1.644 1.669 0 .99-.66 1.657-1.644 1.657-.851 0-1.492-.495-1.6-1.232h-1.739c.051 1.657 1.384 2.787 3.301 2.787zm11.555-3.25c0-1.688-1.193-2.945-2.806-2.945-.571 0-1.13.209-1.466.565l-.127-.019c.07-.153.133-.267.413-.641l2.304-3.054h-2.038c-.241.305-1.631 2.095-1.929 2.546-.915 1.295-1.302 2.323-1.302 3.427 0 2.006 1.422 3.371 3.498 3.371 1.974 0 3.453-1.396 3.453-3.25zm-3.485 1.72c-.965 0-1.695-.704-1.695-1.656 0-.953.73-1.657 1.695-1.657.971 0 1.695.704 1.695 1.657 0 .952-.724 1.656-1.695 1.656zm7.893 1.467c.768 0 1.396-.648 1.396-1.429 0-.787-.628-1.434-1.396-1.434s-1.397.647-1.397 1.434c0 .781.629 1.429 1.397 1.429zm8.679-.121h1.689v-1.733h1.219v-1.447h-1.244v-2.342h-1.606v2.31h-2.235v-.114l2.692-5.834h-1.822l-2.787 5.98v1.447h4.094zm7.182.184c2.031 0 3.396-1.301 3.396-3.256 0-1.784-1.18-3.022-2.869-3.022-.857 0-1.549.318-1.942.895h-.115l.197-2.444h4.171v-1.517h-5.599l-.432 5.294h1.74c.33-.552.831-.831 1.491-.831.978 0 1.644.673 1.644 1.669 0 .99-.66 1.657-1.644 1.657-.85 0-1.491-.495-1.599-1.232h-1.74c.051 1.657 1.384 2.787 3.301 2.787zm11.562-.184v-1.504h-2.342v-7.656h-1.765l-2.476 1.657v1.701l2.362-1.568h.114v5.866h-2.469v1.504z" fill="#e2e8f0"/><rect fill="#98a6ba" height="24" rx="12" width="132" x="36" y="603"/><path d="m44.8823 614.89v.952h1.7202c.0572.248.0953.489.0953.737 0 1.022-.73 1.879-1.7837 2.101v1.257h6.8935v-1.327h-4.6909v-.083c.6665-.374 1.1426-1.098 1.1426-2.012 0-.228-.0254-.451-.0762-.673h2.6343v-.952h-2.9136c-.1587-.47-.3047-.933-.3047-1.415 0-.921.7173-1.492 2.0059-1.492.7173 0 1.4282.14 1.7773.324v-1.302c-.3935-.196-1.1679-.336-1.9741-.336-2.1582 0-3.4277 1.041-3.4277 2.672 0 .527.165 1.041.3364 1.549zm8.6925-1.339h1.5361c0-.965.6348-1.625 1.6314-1.625.9585 0 1.5298.641 1.5298 1.472 0 .699-.2793 1.137-1.4346 2.305l-3.1738 3.193v1.104h6.3603v-1.358h-4.1387v-.108l1.9678-1.936c1.5742-1.543 2.0376-2.286 2.0376-3.352 0-1.523-1.2378-2.634-3.0596-2.634-1.9106 0-3.2563 1.206-3.2563 2.939zm11.5616 6.678c2.1899 0 3.4912-1.771 3.4912-4.806 0-3.04-1.3203-4.811-3.4912-4.811-2.1773 0-3.4976 1.771-3.4976 4.799 0 3.04 1.3013 4.818 3.4976 4.818zm0-1.327c-1.1616 0-1.8408-1.206-1.8408-3.491 0-2.266.6919-3.466 1.8408-3.466s1.8345 1.193 1.8345 3.466c0 2.291-.6729 3.491-1.8345 3.491zm8.5655 1.327c2.1899 0 3.4912-1.771 3.4912-4.806 0-3.04-1.3203-4.811-3.4912-4.811-2.1773 0-3.4976 1.771-3.4976 4.799 0 3.04 1.3013 4.818 3.4976 4.818zm0-1.327c-1.1616 0-1.8408-1.206-1.8408-3.491 0-2.266.6919-3.466 1.8408-3.466s1.8345 1.193 1.8345 3.466c0 2.291-.6729 3.491-1.8345 3.491zm8.5655 1.327c2.1899 0 3.4912-1.771 3.4912-4.806 0-3.04-1.3203-4.811-3.4912-4.811-2.1772 0-3.4976 1.771-3.4976 4.799 0 3.04 1.3013 4.818 3.4976 4.818zm0-1.327c-1.1616 0-1.8408-1.206-1.8408-3.491 0-2.266.6919-3.466 1.8408-3.466s1.8345 1.193 1.8345 3.466c0 2.291-.6729 3.491-1.8345 3.491zm12.3766-5.954c-.9521 0-1.7583.476-2.1582 1.263h-.1079v-1.149h-1.5171v9.242h1.5742v-3.358h.1079c.3555.737 1.1236 1.168 2.1202 1.168 1.7519 0 2.8437-1.377 2.8437-3.58 0-2.222-1.1045-3.586-2.8628-3.586zm-.4951 5.859c-1.0727 0-1.7393-.87-1.7456-2.273.0063-1.403.6792-2.272 1.752-2.272 1.0791 0 1.7329.85 1.7329 2.272s-.6475 2.273-1.7393 2.273zm9.3841-.705c-.228.521-.768.813-1.549.813-1.034 0-1.701-.737-1.739-1.911v-.083h4.85v-.501c0-2.177-1.187-3.491-3.168-3.491-2.0119 0-3.2624 1.403-3.2624 3.631 0 2.221 1.2315 3.58 3.2754 3.58 1.638 0 2.799-.787 3.085-2.038zm-1.612-3.948c.946 0 1.568.666 1.6 1.72h-3.269c.069-1.041.73-1.72 1.669-1.72zm4.674 5.846h1.575v-4.031c0-.977.711-1.612 1.732-1.612.267 0 .686.044.807.089v-1.435c-.146-.038-.426-.063-.654-.063-.895 0-1.644.508-1.835 1.193h-.108v-1.079h-1.517zm10.815-4.088h1.149c1.13 0 1.816.565 1.816 1.485 0 .889-.743 1.486-1.797 1.486-1.06 0-1.777-.546-1.847-1.397h-1.568c.077 1.657 1.441 2.743 3.434 2.743 1.981 0 3.454-1.143 3.454-2.717 0-1.251-.781-2.057-2.025-2.247v-.108c.971-.261 1.663-.99 1.669-2.095.006-1.314-1.092-2.45-3.04-2.45-1.987 0-3.231 1.123-3.314 2.729h1.536c.07-.914.692-1.422 1.689-1.422.971 0 1.549.597 1.549 1.352 0 .832-.648 1.416-1.587 1.416h-1.118zm9.645 4.317c2.19 0 3.491-1.771 3.491-4.806 0-3.04-1.32-4.811-3.491-4.811-2.177 0-3.497 1.771-3.497 4.799 0 3.04 1.301 4.818 3.497 4.818zm0-1.327c-1.162 0-1.841-1.206-1.841-3.491 0-2.266.692-3.466 1.841-3.466s1.835 1.193 1.835 3.466c0 2.291-.673 3.491-1.835 3.491zm11.107 1.212c.965 0 1.765-.45 2.158-1.212h.108v1.098h1.524v-9.623h-1.575v3.79h-.107c-.369-.762-1.156-1.219-2.108-1.219-1.752 0-2.856 1.384-2.856 3.58 0 2.202 1.098 3.586 2.856 3.586zm.489-5.852c1.079 0 1.746.869 1.746 2.272 0 1.409-.661 2.273-1.746 2.273-1.079 0-1.733-.851-1.733-2.273 0-1.415.66-2.272 1.733-2.272zm7.118 5.852c.908 0 1.67-.393 2.057-1.066h.108v.952h1.517v-4.742c0-1.466-1.003-2.329-2.787-2.329-1.65 0-2.799.774-2.926 1.987h1.485c.146-.477.641-.737 1.365-.737.851 0 1.308.387 1.308 1.079v.597l-1.79.108c-1.689.095-2.635.825-2.635 2.069 0 1.27.959 2.082 2.298 2.082zm.464-1.212c-.699 0-1.2-.349-1.2-.946 0-.578.412-.901 1.295-.958l1.568-.108v.565c0 .825-.711 1.447-1.663 1.447zm5.582 3.612c1.555 0 2.298-.565 2.888-2.273l2.507-7.179h-1.663l-1.619 5.446h-.107l-1.625-5.446h-1.727l2.482 6.963-.083.324c-.203.654-.577.908-1.244.908-.108 0-.343-.007-.431-.019v1.25c.101.019.526.026.622.026zm6.324-7.472c0 1.041.629 1.651 1.962 1.956l1.231.285c.66.153.959.406.959.8 0 .527-.552.889-1.346.889-.787 0-1.276-.318-1.428-.832h-1.555c.12 1.251 1.212 2 2.945 2s2.958-.883 2.958-2.209c0-1.022-.616-1.587-1.942-1.892l-1.225-.273c-.699-.165-1.029-.412-1.029-.806 0-.514.54-.863 1.257-.863.736 0 1.2.317 1.314.806h1.479c-.114-1.251-1.149-1.974-2.799-1.974-1.638 0-2.781.869-2.781 2.113z" fill="#364152"/><rect fill="#98a6ba" height="24" rx="12" width="81" x="36" y="633"/><path d="m51.0078 643.062h-1.5742v4.043c0 1.048-.5586 1.683-1.5806 1.683-.9394 0-1.3774-.521-1.3774-1.6v-4.126h-1.5742v4.507c0 1.625.8886 2.571 2.4057 2.571 1.0601 0 1.7393-.451 2.0757-1.244h.1079v1.104h1.5171zm1.8497 6.938h1.5742v-4.043c0-1.041.5904-1.695 1.5298-1.695.9585 0 1.4028.539 1.4028 1.618v4.12h1.5743v-4.488c0-1.65-.8443-2.583-2.3931-2.583-1.0347 0-1.7329.469-2.063 1.244h-.1079v-1.111h-1.5171zm8.3687-8.639v1.745h-1.0981v1.226h1.0981v3.827c0 1.34.6348 1.873 2.2281 1.873.3046 0 .5966-.026.8252-.07v-1.206c-.1905.019-.3111.032-.5332.032-.6602 0-.9522-.311-.9522-1.003v-3.453h1.4854v-1.226h-1.4854v-1.745zm5.3473.539c.5205 0 .9458-.412.9458-.933 0-.514-.4253-.933-.9458-.933-.5142 0-.9395.419-.9395.933 0 .521.4253.933.9395.933zm-.7808 8.1h1.5679v-6.938h-1.5679zm3.5064 0h1.5743v-9.623h-1.5743zm6.778-6.449h1.5362c0-.965.6347-1.625 1.6313-1.625.9585 0 1.5298.641 1.5298 1.472 0 .699-.2793 1.137-1.4346 2.305l-3.1738 3.193v1.104h6.3603v-1.358h-4.1386v-.108l1.9677-1.936c1.5743-1.543 2.0376-2.286 2.0376-3.352 0-1.523-1.2377-2.634-3.0595-2.634-1.9107 0-3.2564 1.206-3.2564 2.939zm11.5616 6.678c2.19 0 3.4912-1.771 3.4912-4.806 0-3.04-1.3203-4.811-3.4912-4.811-2.1772 0-3.4975 1.771-3.4975 4.799 0 3.04 1.3012 4.818 3.4975 4.818zm0-1.327c-1.1616 0-1.8408-1.206-1.8408-3.491 0-2.266.6919-3.466 1.8408-3.466 1.149 0 1.8345 1.193 1.8345 3.466 0 2.291-.6728 3.491-1.8345 3.491zm5.1124-5.351h1.5361c0-.965.6348-1.625 1.6314-1.625.9585 0 1.5298.641 1.5298 1.472 0 .699-.2793 1.137-1.4346 2.305l-3.1738 3.193v1.104h6.3603v-1.358h-4.1386v-.108l1.9677-1.936c1.5743-1.543 2.0376-2.286 2.0376-3.352 0-1.523-1.2378-2.634-3.0595-2.634-1.9107 0-3.2564 1.206-3.2564 2.939zm10.4059 6.449h1.638v-9.16h-1.631l-2.393 1.682v1.543l2.279-1.612h.107z" fill="#364152"/><path d="m47.0878 573.852c.0938 2.062 1.8203 3.336 4.4297 3.336 2.7109 0 4.4062-1.36 4.4062-3.516 0-1.672-.9921-2.625-3.3671-3.117l-1.2188-.25c-1.4062-.297-1.9687-.789-1.9687-1.555 0-.945.8906-1.539 2.1406-1.539 1.289 0 2.1797.641 2.2734 1.703h1.9297c-.0469-2.016-1.6953-3.375-4.1875-3.375-2.4453 0-4.1875 1.344-4.1875 3.328 0 1.649 1.0547 2.711 3.3125 3.172l1.2109.25c1.4688.305 2.0313.805 2.0313 1.617 0 .938-.9453 1.61-2.3047 1.61-1.4062 0-2.4219-.625-2.5703-1.664zm12.6994 3.148v-4.602h4.7266v-1.64h-4.7266v-3.328h5.1719v-1.703h-7.1875v11.273z" fill="#3f83f8"/></g></svg>