<svg width="375" height="667" viewBox="0 0 375 667" fill="none" xmlns="http://www.w3.org/2000/svg">
<rect width="375" height="667" fill="white"/>
<path d="M8 144.2C8 126.278 8 117.317 11.4878 110.472C14.5557 104.451 19.4511 99.5557 25.4723 96.4878C32.3175 93 41.2783 93 59.2 93H315.8C333.722 93 342.683 93 349.528 96.4878C355.549 99.5557 360.444 104.451 363.512 110.472C367 117.317 367 126.278 367 144.2V219.8C367 237.722 367 246.683 363.512 253.528C360.444 259.549 355.549 264.444 349.528 267.512C342.683 271 333.722 271 315.8 271H59.2C41.2783 271 32.3175 271 25.4723 267.512C19.4511 264.444 14.5557 259.549 11.4878 253.528C8 246.683 8 237.722 8 219.8V144.2Z" fill="#E1EFFE"/>
<path fill-rule="evenodd" clip-rule="evenodd" d="M345.089 8.56H359.911C361.159 8.56 361.611 8.68995 362.068 8.93398C362.524 9.17801 362.882 9.53612 363.126 9.99241C363.37 10.4487 363.5 10.9013 363.5 12.1494V16.4706C363.5 17.7187 363.37 18.1713 363.126 18.6276C362.882 19.0839 362.524 19.442 362.068 19.686C361.611 19.93 361.159 20.06 359.911 20.06H345.089C343.841 20.06 343.389 19.93 342.932 19.686C342.476 19.442 342.118 19.0839 341.874 18.6276C341.63 18.1713 341.5 17.7187 341.5 16.4706V12.1494C341.5 10.9013 341.63 10.4487 341.874 9.99241C342.118 9.53612 342.476 9.17801 342.932 8.93398C343.389 8.68995 343.841 8.56 345.089 8.56ZM345.089 9.56C344.102 9.56 343.758 9.62653 343.404 9.8158C343.122 9.96663 342.907 10.182 342.756 10.464C342.567 10.8179 342.5 11.1625 342.5 12.1494V16.4706C342.5 17.4575 342.567 17.8021 342.756 18.156C342.907 18.438 343.122 18.6534 343.404 18.8042C343.758 18.9935 344.102 19.06 345.089 19.06H359.911C360.898 19.06 361.242 18.9935 361.596 18.8042C361.878 18.6534 362.093 18.438 362.244 18.156C362.433 17.8021 362.5 17.4575 362.5 16.4706V12.1494C362.5 11.1625 362.433 10.8179 362.244 10.464C362.093 10.182 361.878 9.96663 361.596 9.8158C361.242 9.62653 360.898 9.56 359.911 9.56H345.089ZM366 14.25C366 15.4866 364.5 16.25 364.5 16.25V12.25C364.5 12.25 366 13.0134 366 14.25Z" fill="black" fill-opacity="0.36"/>
<rect x="343.5" y="10.4767" width="18" height="7.66667" rx="1.6" fill="black"/>
<path fill-rule="evenodd" clip-rule="evenodd" d="M328.8 11.0963C331.035 11.0964 333.184 11.955 334.803 13.4946C334.925 13.6134 335.12 13.6119 335.24 13.4912L336.406 12.3148C336.467 12.2535 336.5 12.1706 336.5 12.0843C336.499 11.998 336.465 11.9155 336.403 11.855C332.153 7.78166 325.447 7.78166 321.197 11.855C321.135 11.9154 321.101 11.998 321.1 12.0842C321.099 12.1705 321.133 12.2535 321.194 12.3148L322.36 13.4912C322.48 13.6121 322.675 13.6136 322.797 13.4946C324.417 11.9549 326.566 11.0963 328.8 11.0963ZM328.8 14.9237C330.028 14.9237 331.212 15.38 332.122 16.204C332.245 16.321 332.439 16.3184 332.559 16.1983L333.723 15.0219C333.785 14.9602 333.819 14.8765 333.818 14.7895C333.817 14.7025 333.781 14.6195 333.718 14.559C330.947 11.9813 326.656 11.9813 323.885 14.559C323.822 14.6195 323.786 14.7025 323.786 14.7895C323.785 14.8766 323.819 14.9603 323.88 15.0219L325.044 16.1983C325.164 16.3184 325.358 16.321 325.481 16.204C326.391 15.3805 327.574 14.9242 328.8 14.9237ZM331.038 17.7313C331.1 17.6702 331.135 17.5861 331.133 17.4989C331.131 17.4117 331.093 17.329 331.029 17.2705C329.742 16.1826 327.858 16.1826 326.572 17.2705C326.508 17.329 326.47 17.4116 326.468 17.4988C326.466 17.5861 326.5 17.6702 326.563 17.7313L328.577 19.7638C328.636 19.8236 328.716 19.8572 328.8 19.8572C328.884 19.8572 328.965 19.8236 329.024 19.7638L331.038 17.7313Z" fill="black"/>
<path d="M176.797 20.2563C179.485 20.2563 181.082 18.1543 181.082 14.5874C181.082 11.0864 179.383 9.16748 176.856 9.16748C174.556 9.16748 172.93 10.7129 172.93 12.8735C172.93 14.9023 174.395 16.3818 176.409 16.3818C177.647 16.3818 178.65 15.8105 179.148 14.8071H179.273C179.251 17.29 178.365 18.7109 176.819 18.7109C175.911 18.7109 175.186 18.2129 174.959 17.4072H173.077C173.384 19.1284 174.864 20.2563 176.797 20.2563ZM176.863 14.9243C175.633 14.9243 174.783 14.0601 174.783 12.8149C174.783 11.6211 175.677 10.7056 176.871 10.7056C178.064 10.7056 178.958 11.6357 178.958 12.8516C178.958 14.0527 178.086 14.9243 176.863 14.9243ZM184.235 13.1592C184.931 13.1592 185.407 12.6758 185.407 12.0239C185.407 11.3721 184.931 10.8887 184.235 10.8887C183.546 10.8887 183.063 11.3721 183.063 12.0239C183.063 12.6758 183.546 13.1592 184.235 13.1592ZM184.235 18.5352C184.931 18.5352 185.407 18.0444 185.407 17.3999C185.407 16.748 184.931 16.2646 184.235 16.2646C183.546 16.2646 183.063 16.748 183.063 17.3999C183.063 18.0444 183.546 18.5352 184.235 18.5352ZM192.544 20H194.353V17.9712H195.781V16.4111H194.353V9.43115H191.687C190.252 11.6138 188.75 14.0454 187.38 16.4258V17.9712H192.544V20ZM189.131 16.3452C190.164 14.5508 191.387 12.5952 192.471 10.9399H192.573V16.4551H189.131V16.3452ZM199.945 20H201.835V9.43115H199.952L197.191 11.3721V13.1519L199.82 11.2915H199.945V20Z" fill="black"/>
<path fill-rule="evenodd" clip-rule="evenodd" d="M22.123 9.96589C22.1 10.0818 22.1 10.2212 22.1 10.5V18.2C22.1 18.4788 22.1 18.6182 22.123 18.7341C22.2177 19.2101 22.5899 19.5823 23.0659 19.6769C23.1818 19.7 23.3212 19.7 23.6 19.7C23.8788 19.7 24.0182 19.7 24.1341 19.6769C24.6101 19.5823 24.9822 19.2101 25.0769 18.7341C25.1 18.6182 25.1 18.4788 25.1 18.2V10.5C25.1 10.2212 25.1 10.0818 25.0769 9.96589C24.9822 9.48986 24.6101 9.11775 24.1341 9.02306C24.0182 9 23.8788 9 23.6 9C23.3212 9 23.1818 9 23.0659 9.02306C22.5899 9.11775 22.2177 9.48986 22.123 9.96589ZM17.4 12.9C17.4 12.6212 17.4 12.4818 17.4231 12.3659C17.5177 11.8899 17.8899 11.5177 18.3659 11.4231C18.4818 11.4 18.6212 11.4 18.9 11.4C19.1788 11.4 19.3182 11.4 19.4341 11.4231C19.9101 11.5177 20.2822 11.8899 20.3769 12.3659C20.4 12.4818 20.4 12.6212 20.4 12.9V18.2C20.4 18.4788 20.4 18.6182 20.3769 18.7341C20.2822 19.2101 19.9101 19.5823 19.4341 19.6769C19.3182 19.7 19.1788 19.7 18.9 19.7C18.6212 19.7 18.4818 19.7 18.3659 19.6769C17.8899 19.5823 17.5177 19.2101 17.4231 18.7341C17.4 18.6182 17.4 18.4788 17.4 18.2V12.9ZM12.823 14.6659C12.8 14.7818 12.8 14.9212 12.8 15.2V18.2C12.8 18.4788 12.8 18.6182 12.823 18.7341C12.9177 19.2101 13.2899 19.5823 13.7659 19.6769C13.8818 19.7 14.0212 19.7 14.3 19.7C14.5788 19.7 14.7182 19.7 14.8341 19.6769C15.3101 19.5823 15.6822 19.2101 15.7769 18.7341C15.8 18.6182 15.8 18.4788 15.8 18.2V15.2C15.8 14.9212 15.8 14.7818 15.7769 14.6659C15.6822 14.1899 15.3101 13.8177 14.8341 13.7231C14.7182 13.7 14.5788 13.7 14.3 13.7C14.0212 13.7 13.8818 13.7 13.7659 13.7231C13.2899 13.8177 12.9177 14.1899 12.823 14.6659ZM8.02306 16.6659C8 16.7818 8 16.9212 8 17.2V18.2C8 18.4788 8 18.6182 8.02306 18.7341C8.11775 19.2101 8.48986 19.5823 8.96589 19.6769C9.08181 19.7 9.22121 19.7 9.5 19.7C9.77879 19.7 9.91819 19.7 10.0341 19.6769C10.5101 19.5823 10.8823 19.2101 10.9769 18.7341C11 18.6182 11 18.4788 11 18.2V17.2C11 16.9212 11 16.7818 10.9769 16.6659C10.8823 16.1899 10.5101 15.8177 10.0341 15.7231C9.91819 15.7 9.77879 15.7 9.5 15.7C9.22121 15.7 9.08181 15.7 8.96589 15.7231C8.48986 15.8177 8.11775 16.1899 8.02306 16.6659Z" fill="black"/>
<path d="M33.445 209.318V210.563H35.6945C35.7692 210.887 35.819 211.202 35.819 211.526C35.819 212.862 34.8644 213.983 33.4865 214.273V215.917H42.5012V214.182H36.3669V214.074C37.2385 213.584 37.861 212.638 37.861 211.443C37.861 211.144 37.8278 210.854 37.7614 210.563H41.2062V209.318H37.3962C37.1887 208.704 36.9977 208.098 36.9977 207.467C36.9977 206.263 37.9357 205.516 39.6208 205.516C40.5588 205.516 41.4885 205.699 41.945 205.939V204.238C41.4304 203.98 40.4177 203.798 39.3635 203.798C36.5412 203.798 34.881 205.159 34.881 207.292C34.881 207.981 35.0969 208.654 35.321 209.318H33.445ZM48.8065 216.291C51.8529 216.291 53.6624 213.908 53.6624 209.866C53.6624 205.898 51.7367 203.723 48.8729 203.723C46.2664 203.723 44.4237 205.475 44.4237 207.923C44.4237 210.223 46.0838 211.899 48.3665 211.899C49.7694 211.899 50.9066 211.252 51.471 210.115H51.6121C51.5872 212.929 50.5829 214.539 48.8314 214.539C47.8021 214.539 46.9803 213.975 46.723 213.062H44.5897C44.9383 215.012 46.6151 216.291 48.8065 216.291ZM48.8812 210.248C47.4867 210.248 46.5238 209.268 46.5238 207.857C46.5238 206.504 47.5365 205.466 48.8895 205.466C50.2425 205.466 51.2552 206.521 51.2552 207.898C51.2552 209.26 50.2674 210.248 48.8812 210.248ZM56.2988 216.166C57.0874 216.166 57.627 215.61 57.627 214.871C57.627 214.141 57.0874 213.584 56.2988 213.584C55.5186 213.584 54.9707 214.141 54.9707 214.871C54.9707 215.61 55.5186 216.166 56.2988 216.166ZM63.4259 216.291C66.4723 216.291 68.2819 213.908 68.2819 209.866C68.2819 205.898 66.3561 203.723 63.4923 203.723C60.8859 203.723 59.0431 205.475 59.0431 207.923C59.0431 210.223 60.7033 211.899 62.986 211.899C64.3888 211.899 65.526 211.252 66.0905 210.115H66.2316C66.2067 212.929 65.2023 214.539 63.4508 214.539C62.4215 214.539 61.5998 213.975 61.3424 213.062H59.2091C59.5578 215.012 61.2345 216.291 63.4259 216.291ZM63.5006 210.248C62.1061 210.248 61.1432 209.268 61.1432 207.857C61.1432 206.504 62.1559 205.466 63.5089 205.466C64.862 205.466 65.8747 206.521 65.8747 207.898C65.8747 209.26 64.8869 210.248 63.5006 210.248ZM74.3548 216.291C77.4012 216.291 79.2108 213.908 79.2108 209.866C79.2108 205.898 77.285 203.723 74.4212 203.723C71.8148 203.723 69.972 205.475 69.972 207.923C69.972 210.223 71.6321 211.899 73.9149 211.899C75.3177 211.899 76.4549 211.252 77.0194 210.115H77.1605C77.1356 212.929 76.1312 214.539 74.3797 214.539C73.3504 214.539 72.5286 213.975 72.2713 213.062H70.138C70.4866 215.012 72.1634 216.291 74.3548 216.291ZM74.4295 210.248C73.035 210.248 72.0721 209.268 72.0721 207.857C72.0721 206.504 73.0848 205.466 74.4378 205.466C75.7908 205.466 76.8035 206.521 76.8035 207.898C76.8035 209.26 75.8157 210.248 74.4295 210.248ZM81.7475 218.565L86.0473 203.416H84.1963L79.8882 218.565H81.7475ZM86.9572 216H89.0158V210.48C89.0158 209.351 89.7711 208.496 90.7921 208.496C91.8048 208.496 92.4357 209.11 92.4357 210.115V216H94.4362V210.331C94.4362 209.293 95.1417 208.496 96.2125 208.496C97.3165 208.496 97.8727 209.085 97.8727 210.264V216H99.923V209.758C99.923 207.874 98.8273 206.753 97.0094 206.753C95.7477 206.753 94.7018 207.4 94.2536 208.388H94.1124C93.7306 207.384 92.859 206.753 91.6056 206.753C90.402 206.753 89.4723 207.367 89.0822 208.388H88.9411V206.927H86.9572V216ZM105.871 216.183C108.586 216.183 110.238 214.406 110.238 211.459C110.238 208.529 108.577 206.753 105.871 206.753C103.174 206.753 101.505 208.538 101.505 211.459C101.505 214.406 103.149 216.183 105.871 216.183ZM105.871 214.498C104.435 214.498 103.614 213.385 103.614 211.468C103.614 209.55 104.435 208.438 105.871 208.438C107.299 208.438 108.121 209.55 108.121 211.468C108.121 213.385 107.307 214.498 105.871 214.498ZM111.903 216H113.961V210.712C113.961 209.351 114.733 208.496 115.962 208.496C117.215 208.496 117.796 209.202 117.796 210.613V216H119.855V210.131C119.855 207.973 118.751 206.753 116.726 206.753C115.373 206.753 114.459 207.367 114.028 208.38H113.887V206.927H111.903V216ZM122.541 204.703V206.985H121.105V208.587H122.541V213.593C122.541 215.344 123.371 216.042 125.455 216.042C125.853 216.042 126.235 216.008 126.534 215.95V214.373C126.285 214.398 126.127 214.415 125.837 214.415C124.973 214.415 124.591 214.008 124.591 213.103V208.587H126.534V206.985H124.591V204.703H122.541ZM128.265 216H130.324V210.729C130.324 209.401 131.079 208.513 132.432 208.513C133.628 208.513 134.259 209.227 134.259 210.629V216H136.317V210.148C136.317 207.99 135.138 206.761 133.196 206.761C131.843 206.761 130.872 207.375 130.44 208.396H130.291V203.416H128.265V216ZM144.968 216.149C146.155 216.149 147.151 215.635 147.658 214.755H147.799V216H149.783V209.799C149.783 207.882 148.471 206.753 146.139 206.753C143.981 206.753 142.478 207.766 142.312 209.351H144.254C144.445 208.729 145.093 208.388 146.039 208.388C147.151 208.388 147.749 208.895 147.749 209.799V210.58L145.408 210.721C143.2 210.845 141.963 211.8 141.963 213.427C141.963 215.087 143.217 216.149 144.968 216.149ZM145.574 214.564C144.661 214.564 144.005 214.107 144.005 213.327C144.005 212.572 144.545 212.148 145.699 212.074L147.749 211.933V212.671C147.749 213.75 146.819 214.564 145.574 214.564ZM152.519 216H154.569V208.587H156.52V206.985H154.544V206.147C154.544 205.284 154.926 204.852 155.897 204.852C156.188 204.852 156.437 204.877 156.603 204.902V203.416C156.271 203.358 155.897 203.333 155.457 203.333C153.44 203.333 152.519 204.221 152.519 206.031V206.985H151.033V208.587H152.519V216ZM158.808 204.703V206.985H157.372V208.587H158.808V213.593C158.808 215.344 159.638 216.042 161.721 216.042C162.12 216.042 162.501 216.008 162.8 215.95V214.373C162.551 214.398 162.393 214.415 162.103 214.415C161.24 214.415 160.858 214.008 160.858 213.103V208.587H162.8V206.985H160.858V204.703H158.808ZM170.284 213.518C169.985 214.199 169.28 214.581 168.259 214.581C166.906 214.581 166.034 213.618 165.984 212.082V211.974H172.326V211.318C172.326 208.471 170.774 206.753 168.184 206.753C165.553 206.753 163.918 208.587 163.918 211.501C163.918 214.406 165.528 216.183 168.201 216.183C170.342 216.183 171.861 215.153 172.235 213.518H170.284ZM168.176 208.355C169.413 208.355 170.226 209.227 170.268 210.604H165.993C166.084 209.243 166.947 208.355 168.176 208.355ZM173.983 216H176.042V210.729C176.042 209.451 176.971 208.621 178.308 208.621C178.656 208.621 179.204 208.679 179.362 208.737V206.861C179.171 206.811 178.806 206.778 178.507 206.778C177.337 206.778 176.357 207.442 176.108 208.338H175.967V206.927H173.983V216ZM188.686 216.183C191.4 216.183 193.052 214.406 193.052 211.459C193.052 208.529 191.392 206.753 188.686 206.753C185.988 206.753 184.319 208.538 184.319 211.459C184.319 214.406 185.963 216.183 188.686 216.183ZM188.686 214.498C187.25 214.498 186.428 213.385 186.428 211.468C186.428 209.55 187.25 208.438 188.686 208.438C190.113 208.438 190.935 209.55 190.935 211.468C190.935 213.385 190.122 214.498 188.686 214.498ZM195.381 216H197.431V208.587H199.382V206.985H197.406V206.147C197.406 205.284 197.788 204.852 198.759 204.852C199.05 204.852 199.299 204.877 199.465 204.902V203.416C199.133 203.358 198.759 203.333 198.32 203.333C196.302 203.333 195.381 204.221 195.381 206.031V206.985H193.895V208.587H195.381V216ZM201.678 216H203.728V208.587H205.679V206.985H203.703V206.147C203.703 205.284 204.085 204.852 205.057 204.852C205.347 204.852 205.596 204.877 205.762 204.902V203.416C205.43 203.358 205.057 203.333 204.617 203.333C202.599 203.333 201.678 204.221 201.678 206.031V206.985H200.192V208.587H201.678V216ZM212.848 213.518C212.549 214.199 211.843 214.581 210.822 214.581C209.469 214.581 208.598 213.618 208.548 212.082V211.974H214.89V211.318C214.89 208.471 213.337 206.753 210.748 206.753C208.116 206.753 206.481 208.587 206.481 211.501C206.481 214.406 208.091 216.183 210.764 216.183C212.906 216.183 214.425 215.153 214.798 213.518H212.848ZM210.739 208.355C211.976 208.355 212.79 209.227 212.831 210.604H208.556C208.647 209.243 209.511 208.355 210.739 208.355ZM216.547 216H218.605V210.729C218.605 209.451 219.535 208.621 220.871 208.621C221.22 208.621 221.768 208.679 221.925 208.737V206.861C221.735 206.811 221.369 206.778 221.07 206.778C219.9 206.778 218.921 207.442 218.672 208.338H218.53V206.927H216.547V216ZM232.278 206.778C231.033 206.778 229.979 207.4 229.456 208.43H229.315V206.927H227.331V219.013H229.39V214.622H229.531C229.996 215.585 231 216.149 232.303 216.149C234.594 216.149 236.022 214.348 236.022 211.468C236.022 208.562 234.578 206.778 232.278 206.778ZM231.631 214.439C230.228 214.439 229.356 213.302 229.348 211.468C229.356 209.633 230.236 208.496 231.639 208.496C233.05 208.496 233.905 209.608 233.905 211.468C233.905 213.327 233.059 214.439 231.631 214.439ZM243.597 213.518C243.299 214.199 242.593 214.581 241.572 214.581C240.219 214.581 239.347 213.618 239.298 212.082V211.974H245.639V211.318C245.639 208.471 244.087 206.753 241.497 206.753C238.866 206.753 237.231 208.587 237.231 211.501C237.231 214.406 238.841 216.183 241.514 216.183C243.655 216.183 245.174 215.153 245.548 213.518H243.597ZM241.489 208.355C242.726 208.355 243.539 209.227 243.581 210.604H239.306C239.397 209.243 240.26 208.355 241.489 208.355ZM247.296 216H249.355V210.729C249.355 209.451 250.285 208.621 251.621 208.621C251.97 208.621 252.517 208.679 252.675 208.737V206.861C252.484 206.811 252.119 206.778 251.82 206.778C250.65 206.778 249.67 207.442 249.421 208.338H249.28V206.927H247.296V216ZM255.004 205.408C255.685 205.408 256.241 204.869 256.241 204.188C256.241 203.516 255.685 202.968 255.004 202.968C254.332 202.968 253.776 203.516 253.776 204.188C253.776 204.869 254.332 205.408 255.004 205.408ZM253.983 216H256.034V206.927H253.983V216ZM262.098 216.183C264.813 216.183 266.465 214.406 266.465 211.459C266.465 208.529 264.804 206.753 262.098 206.753C259.401 206.753 257.732 208.538 257.732 211.459C257.732 214.406 259.376 216.183 262.098 216.183ZM262.098 214.498C260.662 214.498 259.84 213.385 259.84 211.468C259.84 209.55 260.662 208.438 262.098 208.438C263.526 208.438 264.348 209.55 264.348 211.468C264.348 213.385 263.534 214.498 262.098 214.498ZM271.417 216.149C272.679 216.149 273.724 215.56 274.239 214.564H274.38V216H276.372V203.416H274.314V208.372H274.173C273.691 207.375 272.662 206.778 271.417 206.778C269.126 206.778 267.681 208.587 267.681 211.459C267.681 214.34 269.117 216.149 271.417 216.149ZM272.056 208.496C273.467 208.496 274.339 209.633 274.339 211.468C274.339 213.311 273.475 214.439 272.056 214.439C270.645 214.439 269.79 213.327 269.79 211.468C269.79 209.617 270.653 208.496 272.056 208.496Z" fill="#1E429F"/>
<path d="M34.5708 187V177.84H33.1489V187H34.5708ZM36.63 187H37.9947V182.957C37.9947 181.846 38.6358 181.16 39.6451 181.16C40.6544 181.16 41.1368 181.719 41.1368 182.861V187H42.5015V182.538C42.5015 180.894 41.651 179.973 40.1085 179.973C39.0675 179.973 38.3819 180.437 38.0455 181.198H37.9439V180.106H36.63V187ZM46.8713 187.114C47.8234 187.114 48.6296 186.664 49.0421 185.908H49.1501V187H50.4577V177.402H49.0929V181.198H48.9914C48.6169 180.443 47.8171 179.986 46.8713 179.986C45.1256 179.986 44.0021 181.376 44.0021 183.547C44.0021 185.73 45.1129 187.114 46.8713 187.114ZM47.2585 181.154C48.401 181.154 49.1183 182.081 49.1183 183.553C49.1183 185.039 48.4074 185.946 47.2585 185.946C46.1032 185.946 45.4113 185.051 45.4113 183.553C45.4113 182.062 46.1095 181.154 47.2585 181.154ZM53.1326 178.875C53.6086 178.875 53.9958 178.488 53.9958 178.018C53.9958 177.542 53.6086 177.155 53.1326 177.155C52.6565 177.155 52.2693 177.542 52.2693 178.018C52.2693 178.488 52.6565 178.875 53.1326 178.875ZM52.4534 187H53.8118V180.106H52.4534V187ZM61.5902 180.106H60.1429L58.429 185.604H58.3211L56.6009 180.106H55.1409L57.6356 187H59.1019L61.5902 180.106ZM63.5985 178.875C64.0746 178.875 64.4618 178.488 64.4618 178.018C64.4618 177.542 64.0746 177.155 63.5985 177.155C63.1225 177.155 62.7353 177.542 62.7353 178.018C62.7353 178.488 63.1225 178.875 63.5985 178.875ZM62.9193 187H64.2777V180.106H62.9193V187ZM68.73 187.114C69.6821 187.114 70.4883 186.664 70.9009 185.908H71.0088V187H72.3164V177.402H70.9516V181.198H70.8501C70.4756 180.443 69.6758 179.986 68.73 179.986C66.9844 179.986 65.8608 181.376 65.8608 183.547C65.8608 185.73 66.9717 187.114 68.73 187.114ZM69.1172 181.154C70.2597 181.154 70.977 182.081 70.977 183.553C70.977 185.039 70.2661 185.946 69.1172 185.946C67.9619 185.946 67.27 185.051 67.27 183.553C67.27 182.062 67.9682 181.154 69.1172 181.154ZM80.1138 180.106H78.7491V184.15C78.7491 185.261 78.1461 185.934 77.0416 185.934C76.0386 185.934 75.5879 185.388 75.5879 184.245V180.106H74.2232V184.582C74.2232 186.2 75.0738 187.133 76.6036 187.133C77.6509 187.133 78.3555 186.689 78.692 185.908H78.7999V187H80.1138V180.106ZM83.9249 187.114C84.8327 187.114 85.588 186.721 86.0006 186.022H86.1085V187H87.4225V182.284C87.4225 180.836 86.445 179.973 84.7121 179.973C83.1442 179.973 82.027 180.729 81.8873 181.89H83.2077C83.36 181.389 83.8869 181.103 84.6486 181.103C85.5817 181.103 86.0641 181.528 86.0641 182.284V182.887L84.1915 183.001C82.5475 183.103 81.6207 183.82 81.6207 185.058C81.6207 186.314 82.5919 187.114 83.9249 187.114ZM84.2741 186.016C83.5314 186.016 82.9918 185.642 82.9918 185C82.9918 184.372 83.4235 184.036 84.3756 183.972L86.0641 183.858V184.455C86.0641 185.343 85.3024 186.016 84.2741 186.016ZM89.3484 187H90.7131V177.402H89.3484V187ZM99.7445 179.986C98.8051 179.986 97.9926 180.462 97.5736 181.249H97.472V180.106H96.1581V189.298H97.5228V185.959H97.6307C97.9926 186.689 98.7733 187.114 99.7572 187.114C101.503 187.114 102.614 185.73 102.614 183.553C102.614 181.363 101.503 179.986 99.7445 179.986ZM99.3573 185.946C98.2147 185.946 97.4974 185.026 97.4974 183.553C97.4974 182.074 98.2147 181.154 99.3637 181.154C100.519 181.154 101.211 182.055 101.211 183.553C101.211 185.051 100.519 185.946 99.3573 185.946ZM104.241 187H105.606V177.402H104.241V187ZM109.487 187.114C110.395 187.114 111.15 186.721 111.563 186.022H111.67V187H112.984V182.284C112.984 180.836 112.007 179.973 110.274 179.973C108.706 179.973 107.589 180.729 107.449 181.89H108.77C108.922 181.389 109.449 181.103 110.21 181.103C111.144 181.103 111.626 181.528 111.626 182.284V182.887L109.753 183.001C108.109 183.103 107.183 183.82 107.183 185.058C107.183 186.314 108.154 187.114 109.487 187.114ZM109.836 186.016C109.093 186.016 108.554 185.642 108.554 185C108.554 184.372 108.985 184.036 109.938 183.972L111.626 183.858V184.455C111.626 185.343 110.864 186.016 109.836 186.016ZM114.847 187H116.212V182.957C116.212 181.846 116.853 181.16 117.862 181.16C118.871 181.16 119.354 181.719 119.354 182.861V187H120.718V182.538C120.718 180.894 119.868 179.973 118.325 179.973C117.284 179.973 116.599 180.437 116.262 181.198H116.161V180.106H114.847V187ZM131.546 183.94V182.677H125.046V183.94H131.546ZM138.127 187H139.549V177.84H138.134L135.722 179.554V180.951L138.019 179.307H138.127V187ZM147.521 187.114C148.428 187.114 149.184 186.721 149.596 186.022H149.704V187H151.018V182.284C151.018 180.836 150.041 179.973 148.308 179.973C146.74 179.973 145.623 180.729 145.483 181.89H146.803C146.956 181.389 147.483 181.103 148.244 181.103C149.177 181.103 149.66 181.528 149.66 182.284V182.887L147.787 183.001C146.143 183.103 145.216 183.82 145.216 185.058C145.216 186.314 146.188 187.114 147.521 187.114ZM147.87 186.016C147.127 186.016 146.588 185.642 146.588 185C146.588 184.372 147.019 184.036 147.971 183.972L149.66 183.858V184.455C149.66 185.343 148.898 186.016 147.87 186.016ZM158.733 182.322C158.555 180.982 157.508 179.973 155.775 179.973C153.763 179.973 152.538 181.338 152.538 183.528C152.538 185.762 153.769 187.133 155.781 187.133C157.489 187.133 158.555 186.175 158.733 184.816H157.406C157.229 185.565 156.638 185.972 155.775 185.972C154.639 185.972 153.934 185.051 153.934 183.528C153.934 182.036 154.632 181.135 155.775 181.135C156.689 181.135 157.248 181.649 157.406 182.322H158.733ZM166.067 182.322C165.889 180.982 164.842 179.973 163.109 179.973C161.097 179.973 159.872 181.338 159.872 183.528C159.872 185.762 161.103 187.133 163.115 187.133C164.823 187.133 165.889 186.175 166.067 184.816H164.74C164.563 185.565 163.972 185.972 163.109 185.972C161.973 185.972 161.268 185.051 161.268 183.528C161.268 182.036 161.967 181.135 163.109 181.135C164.023 181.135 164.582 181.649 164.74 182.322H166.067ZM170.469 187.133C172.487 187.133 173.725 185.781 173.725 183.553C173.725 181.325 172.481 179.973 170.469 179.973C168.45 179.973 167.206 181.332 167.206 183.553C167.206 185.781 168.444 187.133 170.469 187.133ZM170.469 185.972C169.282 185.972 168.615 185.089 168.615 183.553C168.615 182.017 169.282 181.128 170.469 181.128C171.649 181.128 172.322 182.017 172.322 183.553C172.322 185.083 171.649 185.972 170.469 185.972ZM181.116 180.106H179.751V184.15C179.751 185.261 179.148 185.934 178.044 185.934C177.041 185.934 176.59 185.388 176.59 184.245V180.106H175.226V184.582C175.226 186.2 176.076 187.133 177.606 187.133C178.653 187.133 179.358 186.689 179.694 185.908H179.802V187H181.116V180.106ZM183.017 187H184.381V182.957C184.381 181.846 185.022 181.16 186.032 181.16C187.041 181.16 187.523 181.719 187.523 182.861V187H188.888V182.538C188.888 180.894 188.038 179.973 186.495 179.973C185.454 179.973 184.769 180.437 184.432 181.198H184.331V180.106H183.017V187ZM191.214 178.367V180.125H190.116V181.217H191.214V185.185C191.214 186.511 191.817 187.044 193.334 187.044C193.601 187.044 193.855 187.013 194.077 186.975V185.889C193.886 185.908 193.766 185.921 193.556 185.921C192.877 185.921 192.579 185.597 192.579 184.854V181.217H194.077V180.125H192.579V178.367H191.214Z" fill="#64748B"/>
<path d="M201.969 252V245.12H204.467V244.25H198.505V245.12H201.002V252H201.969ZM208.673 250.501C208.431 251.012 207.926 251.286 207.179 251.286C206.196 251.286 205.557 250.561 205.509 249.417V249.374H209.672V249.019C209.672 247.22 208.721 246.108 207.158 246.108C205.568 246.108 204.548 247.29 204.548 249.11C204.548 250.942 205.552 252.102 207.158 252.102C208.425 252.102 209.328 251.49 209.596 250.501H208.673ZM207.147 246.924C208.066 246.924 208.678 247.601 208.699 248.627H205.509C205.579 247.601 206.223 246.924 207.147 246.924ZM211.192 252H212.116V248.412C212.116 247.596 212.755 247.005 213.636 247.005C213.818 247.005 214.151 247.037 214.226 247.059V246.135C214.108 246.119 213.915 246.108 213.765 246.108C212.996 246.108 212.33 246.505 212.159 247.069H212.073V246.21H211.192V252ZM215.559 252H216.482V248.412C216.482 247.596 217.068 246.94 217.825 246.94C218.556 246.94 219.034 247.381 219.034 248.068V252H219.958V248.278C219.958 247.542 220.495 246.94 221.3 246.94C222.117 246.94 222.52 247.359 222.52 248.213V252H223.443V247.999C223.443 246.785 222.783 246.108 221.601 246.108C220.801 246.108 220.14 246.511 219.829 247.123H219.743C219.474 246.521 218.926 246.108 218.142 246.108C217.369 246.108 216.789 246.479 216.525 247.123H216.439V246.21H215.559V252ZM225.066 247.794C225.066 248.632 225.56 249.1 226.645 249.363L227.638 249.604C228.256 249.755 228.557 250.023 228.557 250.421C228.557 250.953 227.998 251.323 227.219 251.323C226.478 251.323 226.016 251.012 225.861 250.523H224.91C225.012 251.484 225.898 252.102 227.187 252.102C228.503 252.102 229.508 251.388 229.508 250.351C229.508 249.519 228.981 249.046 227.891 248.783L226.999 248.568C226.317 248.401 225.995 248.154 225.995 247.757C225.995 247.241 226.532 246.892 227.219 246.892C227.918 246.892 228.369 247.198 228.492 247.66H229.405C229.282 246.709 228.439 246.108 227.225 246.108C225.995 246.108 225.066 246.833 225.066 247.794ZM235.814 252.102C236.587 252.102 237.221 251.764 237.597 251.146H237.683V252H238.564V248.036C238.564 246.833 237.774 246.108 236.361 246.108C235.126 246.108 234.213 246.72 234.089 247.649H235.024C235.153 247.193 235.636 246.93 236.329 246.93C237.194 246.93 237.64 247.322 237.64 248.036V248.562L235.969 248.665C234.621 248.745 233.858 249.341 233.858 250.378C233.858 251.436 234.691 252.102 235.814 252.102ZM235.985 251.291C235.314 251.291 234.815 250.947 234.815 250.356C234.815 249.776 235.201 249.47 236.082 249.411L237.64 249.309V249.841C237.64 250.668 236.936 251.291 235.985 251.291ZM240.342 252H241.265V248.573C241.265 247.558 241.862 246.94 242.785 246.94C243.709 246.94 244.15 247.435 244.15 248.477V252H245.073V248.251C245.073 246.876 244.348 246.108 243.049 246.108C242.162 246.108 241.598 246.484 241.308 247.123H241.222V246.21H240.342V252ZM248.978 252.102C249.779 252.102 250.466 251.721 250.831 251.076H250.917V252H251.798V243.911H250.874V247.123H250.794C250.466 246.489 249.784 246.108 248.978 246.108C247.507 246.108 246.545 247.29 246.545 249.105C246.545 250.926 247.496 252.102 248.978 252.102ZM249.193 246.94C250.241 246.94 250.896 247.778 250.896 249.105C250.896 250.442 250.246 251.27 249.193 251.27C248.135 251.27 247.501 250.458 247.501 249.105C247.501 247.757 248.141 246.94 249.193 246.94ZM261.628 247.982C261.467 246.951 260.607 246.108 259.2 246.108C257.578 246.108 256.547 247.279 256.547 249.083C256.547 250.926 257.583 252.102 259.205 252.102C260.596 252.102 261.461 251.318 261.628 250.254H260.693C260.521 250.91 259.979 251.27 259.2 251.27C258.169 251.27 257.503 250.421 257.503 249.083C257.503 247.773 258.158 246.94 259.2 246.94C260.033 246.94 260.543 247.408 260.693 247.982H261.628ZM265.441 252.102C267.09 252.102 268.111 250.963 268.111 249.105C268.111 247.241 267.09 246.108 265.441 246.108C263.792 246.108 262.772 247.241 262.772 249.105C262.772 250.963 263.792 252.102 265.441 252.102ZM265.441 251.27C264.346 251.27 263.728 250.475 263.728 249.105C263.728 247.73 264.346 246.94 265.441 246.94C266.537 246.94 267.155 247.73 267.155 249.105C267.155 250.475 266.537 251.27 265.441 251.27ZM269.631 252H270.555V248.573C270.555 247.558 271.151 246.94 272.075 246.94C272.999 246.94 273.439 247.435 273.439 248.477V252H274.363V248.251C274.363 246.876 273.638 246.108 272.338 246.108C271.452 246.108 270.888 246.484 270.598 247.123H270.512V246.21H269.631V252ZM278.268 252.102C279.068 252.102 279.756 251.721 280.121 251.076H280.207V252H281.088V243.911H280.164V247.123H280.083C279.756 246.489 279.074 246.108 278.268 246.108C276.796 246.108 275.835 247.29 275.835 249.105C275.835 250.926 276.785 252.102 278.268 252.102ZM278.483 246.94C279.53 246.94 280.185 247.778 280.185 249.105C280.185 250.442 279.535 251.27 278.483 251.27C277.425 251.27 276.791 250.458 276.791 249.105C276.791 247.757 277.43 246.94 278.483 246.94ZM283.435 245.093C283.79 245.093 284.08 244.803 284.08 244.448C284.08 244.094 283.79 243.804 283.435 243.804C283.081 243.804 282.791 244.094 282.791 244.448C282.791 244.803 283.081 245.093 283.435 245.093ZM282.973 252H283.897V246.21H282.973V252ZM286.115 244.711V246.21H285.181V246.983H286.115V250.496C286.115 251.603 286.593 252.043 287.786 252.043C287.968 252.043 288.146 252.021 288.328 251.989V251.21C288.156 251.227 288.065 251.232 287.899 251.232C287.297 251.232 287.039 250.942 287.039 250.26V246.983H288.328V246.21H287.039V244.711H286.115ZM290.278 245.093C290.633 245.093 290.923 244.803 290.923 244.448C290.923 244.094 290.633 243.804 290.278 243.804C289.924 243.804 289.634 244.094 289.634 244.448C289.634 244.803 289.924 245.093 290.278 245.093ZM289.816 252H290.74V246.21H289.816V252ZM294.951 252.102C296.6 252.102 297.621 250.963 297.621 249.105C297.621 247.241 296.6 246.108 294.951 246.108C293.302 246.108 292.282 247.241 292.282 249.105C292.282 250.963 293.302 252.102 294.951 252.102ZM294.951 251.27C293.856 251.27 293.238 250.475 293.238 249.105C293.238 247.73 293.856 246.94 294.951 246.94C296.047 246.94 296.665 247.73 296.665 249.105C296.665 250.475 296.047 251.27 294.951 251.27ZM299.141 252H300.065V248.573C300.065 247.558 300.661 246.94 301.585 246.94C302.509 246.94 302.949 247.435 302.949 248.477V252H303.873V248.251C303.873 246.876 303.148 246.108 301.848 246.108C300.962 246.108 300.398 246.484 300.108 247.123H300.022V246.21H299.141V252ZM305.5 247.794C305.5 248.632 305.995 249.1 307.08 249.363L308.073 249.604C308.691 249.755 308.992 250.023 308.992 250.421C308.992 250.953 308.433 251.323 307.654 251.323C306.913 251.323 306.451 251.012 306.295 250.523H305.345C305.447 251.484 306.333 252.102 307.622 252.102C308.938 252.102 309.942 251.388 309.942 250.351C309.942 249.519 309.416 249.046 308.326 248.783L307.434 248.568C306.752 248.401 306.43 248.154 306.43 247.757C306.43 247.241 306.967 246.892 307.654 246.892C308.352 246.892 308.804 247.198 308.927 247.66H309.84C309.717 246.709 308.873 246.108 307.66 246.108C306.43 246.108 305.5 246.833 305.5 247.794ZM316.248 252.102C317.022 252.102 317.656 251.764 318.032 251.146H318.117V252H318.998V248.036C318.998 246.833 318.209 246.108 316.796 246.108C315.561 246.108 314.648 246.72 314.524 247.649H315.459C315.588 247.193 316.071 246.93 316.764 246.93C317.629 246.93 318.074 247.322 318.074 248.036V248.562L316.404 248.665C315.056 248.745 314.293 249.341 314.293 250.378C314.293 251.436 315.126 252.102 316.248 252.102ZM316.42 251.291C315.749 251.291 315.249 250.947 315.249 250.356C315.249 249.776 315.636 249.47 316.517 249.411L318.074 249.309V249.841C318.074 250.668 317.371 251.291 316.42 251.291ZM323.596 246.108C322.807 246.108 322.114 246.511 321.743 247.177H321.657V246.21H320.776V253.934H321.7V251.13H321.786C322.103 251.742 322.769 252.102 323.596 252.102C325.068 252.102 326.029 250.915 326.029 249.105C326.029 247.284 325.073 246.108 323.596 246.108ZM323.376 251.27C322.334 251.27 321.673 250.432 321.673 249.105C321.673 247.773 322.334 246.94 323.381 246.94C324.439 246.94 325.073 247.751 325.073 249.105C325.073 250.458 324.439 251.27 323.376 251.27ZM330.369 246.108C329.58 246.108 328.887 246.511 328.516 247.177H328.43V246.21H327.549V253.934H328.473V251.13H328.559C328.876 251.742 329.542 252.102 330.369 252.102C331.841 252.102 332.802 250.915 332.802 249.105C332.802 247.284 331.846 246.108 330.369 246.108ZM330.149 251.27C329.107 251.27 328.446 250.432 328.446 249.105C328.446 247.773 329.107 246.94 330.154 246.94C331.213 246.94 331.846 247.751 331.846 249.105C331.846 250.458 331.213 251.27 330.149 251.27ZM334.376 252H335.3V243.911H334.376V252ZM337.658 254.095C338.684 254.095 339.146 253.697 339.64 252.354L341.901 246.21H340.918L339.334 250.974H339.248L337.658 246.21H336.659L338.802 252.005L338.695 252.349C338.453 253.047 338.163 253.3 337.631 253.3C337.502 253.3 337.357 253.294 337.245 253.273V254.062C337.374 254.084 337.535 254.095 337.658 254.095Z" fill="#6B7280"/>
<path d="M198 253.987H342.267V254.632H198V253.987Z" fill="#6B7280"/>
<rect x="32" y="233" width="102" height="22" rx="11" fill="#31C48D"/>
<path d="M46.6533 244.6H47.6362C48.5063 244.6 49.0435 245.041 49.0435 245.75C49.0435 246.432 48.4688 246.894 47.647 246.894C46.8145 246.894 46.2559 246.469 46.2075 245.798H44.6553C44.7251 247.248 45.9175 248.199 47.6685 248.199C49.4194 248.199 50.6978 247.237 50.6978 245.884C50.6978 244.842 50.0425 244.154 48.9629 243.993V243.896C49.7954 243.687 50.3862 243.075 50.3916 242.135C50.397 241.001 49.4409 240.051 47.7222 240.051C45.9766 240.051 44.8755 241.012 44.8218 242.425H46.3203C46.374 241.71 46.8574 241.302 47.6416 241.302C48.3989 241.302 48.8555 241.759 48.8555 242.355C48.8555 243 48.356 243.445 47.6201 243.445H46.6533V244.6ZM55.1185 248H56.6815V244.434C56.6815 243.757 57.1166 243.263 57.7289 243.263C58.3412 243.263 58.7064 243.628 58.7064 244.262V248H60.2103V244.364C60.2103 243.725 60.6185 243.263 61.2523 243.263C61.9129 243.263 62.2406 243.617 62.2406 244.332V248H63.8036V243.939C63.8036 242.72 63.0677 241.958 61.8861 241.958C61.0589 241.958 60.3768 242.393 60.1029 243.048H60.0062C59.7699 242.371 59.2005 241.958 58.368 241.958C57.5892 241.958 56.9715 242.371 56.7298 243.048H56.6332V242.086H55.1185V248ZM68.0201 248.124C69.8409 248.124 70.9366 246.974 70.9366 245.041C70.9366 243.123 69.8247 241.958 68.0201 241.958C66.2154 241.958 65.1036 243.128 65.1036 245.041C65.1036 246.969 66.1993 248.124 68.0201 248.124ZM68.0201 246.888C67.1822 246.888 66.7095 246.211 66.7095 245.041C66.7095 243.88 67.1875 243.198 68.0201 243.198C68.8472 243.198 69.3306 243.88 69.3306 245.041C69.3306 246.211 68.8526 246.888 68.0201 246.888ZM72.2849 248H73.8479V244.579C73.8479 243.778 74.2937 243.263 75.0188 243.263C75.76 243.263 76.1091 243.698 76.1091 244.53V248H77.6721V244.176C77.6721 242.763 76.9631 241.958 75.6472 241.958C74.7717 241.958 74.1701 242.371 73.8962 243.037H73.7995V242.086H72.2849V248ZM79.7079 240.674V242.14H78.7841V243.327H79.7079V246.405C79.7079 247.554 80.2772 248.021 81.7167 248.021C82.0175 248.021 82.3075 247.989 82.5009 247.952V246.797C82.3505 246.813 82.2431 246.824 82.039 246.824C81.5072 246.824 81.2709 246.577 81.2709 246.045V243.327H82.5009V242.14H81.2709V240.674H79.7079ZM83.9298 248H85.4928V244.595C85.4928 243.811 85.9439 243.279 86.7281 243.279C87.4371 243.279 87.8184 243.708 87.8184 244.546V248H89.3814V244.192C89.3814 242.774 88.6241 241.974 87.3512 241.974C86.481 241.974 85.8365 242.382 85.5626 243.053H85.4659V239.825H83.9298V248ZM90.8372 243.811C90.8372 244.718 91.3958 245.261 92.5452 245.513L93.6194 245.755C94.1404 245.873 94.366 246.056 94.366 246.356C94.366 246.749 93.947 247.017 93.3401 247.017C92.7171 247.017 92.3357 246.775 92.2175 246.367H90.6922C90.7996 247.484 91.7449 248.124 93.3079 248.124C94.8601 248.124 95.9182 247.361 95.9182 246.19C95.9182 245.309 95.4026 244.826 94.2532 244.573L93.1414 244.332C92.5935 244.208 92.3411 244.02 92.3411 243.719C92.3411 243.333 92.7547 243.069 93.3132 243.069C93.8933 243.069 94.2532 243.311 94.3338 243.703H95.7786C95.6926 242.586 94.8064 241.958 93.3025 241.958C91.8255 241.958 90.8372 242.704 90.8372 243.811ZM100.634 248H102.197V243.327H103.422V242.14H102.165V241.641C102.165 241.125 102.391 240.873 103.003 240.873C103.207 240.873 103.368 240.889 103.47 240.905V239.825C103.245 239.793 102.982 239.766 102.665 239.766C101.236 239.766 100.634 240.357 100.634 241.533V242.14H99.6783V243.327H100.634V248ZM104.738 248H106.301V244.691C106.301 243.859 106.887 243.349 107.741 243.349C107.993 243.349 108.358 243.392 108.482 243.435V242.06C108.347 242.017 108.084 241.99 107.869 241.99C107.117 241.99 106.505 242.436 106.349 243.026H106.253V242.086H104.738V248ZM113.289 246.33C113.123 246.732 112.698 246.958 112.081 246.958C111.264 246.958 110.749 246.394 110.727 245.492V245.411H114.793V244.944C114.793 243.075 113.762 241.958 112.016 241.958C110.254 241.958 109.169 243.15 109.169 245.073C109.169 246.985 110.233 248.124 112.038 248.124C113.488 248.124 114.514 247.431 114.745 246.33H113.289ZM112.021 243.123C112.752 243.123 113.225 243.628 113.257 244.439H110.732C110.786 243.644 111.296 243.123 112.021 243.123ZM119.976 246.33C119.81 246.732 119.385 246.958 118.768 246.958C117.951 246.958 117.436 246.394 117.414 245.492V245.411H121.48V244.944C121.48 243.075 120.449 241.958 118.703 241.958C116.942 241.958 115.857 243.15 115.857 245.073C115.857 246.985 116.92 248.124 118.725 248.124C120.175 248.124 121.201 247.431 121.432 246.33H119.976ZM118.709 243.123C119.439 243.123 119.912 243.628 119.944 244.439H117.42C117.473 243.644 117.984 243.123 118.709 243.123Z" fill="white"/>
<circle cx="48" cy="133" r="24" fill="white"/>
<path d="M57.4646 131.184C52.3071 128.121 43.7999 127.84 38.8765 129.334C38.0857 129.574 37.2496 129.128 37.0102 128.337C36.7704 127.546 37.2163 126.71 38.0075 126.47C43.6595 124.755 53.0547 125.086 58.9921 128.611C59.7034 129.033 59.9367 129.951 59.515 130.661C59.0932 131.372 58.174 131.607 57.4646 131.184ZM57.2957 135.721C56.934 136.308 56.1663 136.492 55.58 136.132C51.2801 133.489 44.7233 132.723 39.6363 134.267C38.9768 134.467 38.28 134.095 38.0796 133.436C37.8809 132.776 38.2528 132.081 38.9114 131.88C44.7225 130.117 51.9467 130.971 56.8853 134.006C57.4716 134.367 57.6562 135.135 57.2957 135.721ZM55.3379 140.078C55.0505 140.549 54.4365 140.697 53.9668 140.41C50.2094 138.113 45.4803 137.594 39.9109 138.867C39.3742 138.99 38.8392 138.653 38.7169 138.117C38.5939 137.58 38.929 137.045 39.4668 136.923C45.5617 135.53 50.7899 136.129 55.0072 138.706C55.4774 138.993 55.6254 139.608 55.3379 140.078ZM48 117C39.1636 117 32 124.163 32 133C32 141.837 39.1636 149 48 149C56.8369 149 64.0002 141.837 64.0002 133C64.0002 124.163 56.8369 117 48 117Z" fill="#1ED760"/>
<path d="M80.916 137.49C81.0801 141.1 84.1016 143.328 88.668 143.328C93.4121 143.328 96.3789 140.949 96.3789 137.176C96.3789 134.25 94.6426 132.582 90.4863 131.721L88.3535 131.283C85.8926 130.764 84.9082 129.902 84.9082 128.562C84.9082 126.908 86.4668 125.869 88.6543 125.869C90.9102 125.869 92.4688 126.99 92.6328 128.85H96.0098C95.9277 125.322 93.043 122.943 88.6816 122.943C84.4023 122.943 81.3535 125.295 81.3535 128.768C81.3535 131.652 83.1992 133.512 87.1504 134.318L89.2695 134.756C91.8398 135.289 92.8242 136.164 92.8242 137.586C92.8242 139.227 91.1699 140.402 88.791 140.402C86.3301 140.402 84.5527 139.309 84.293 137.49H80.916ZM106.97 128.262C104.865 128.262 103.224 129.328 102.404 131.01H102.336V128.508H99.0134V147.771H102.418V140.594H102.486C103.279 142.221 104.92 143.232 107.025 143.232C110.662 143.232 112.986 140.375 112.986 135.754C112.986 131.119 110.648 128.262 106.97 128.262ZM105.931 140.443C103.812 140.443 102.404 138.598 102.39 135.754C102.404 132.938 103.812 131.064 105.931 131.064C108.133 131.064 109.5 132.896 109.5 135.754C109.5 138.625 108.133 140.443 105.931 140.443ZM121.923 143.287C126.175 143.287 128.937 140.457 128.937 135.754C128.937 131.064 126.148 128.207 121.923 128.207C117.699 128.207 114.91 131.078 114.91 135.754C114.91 140.457 117.671 143.287 121.923 143.287ZM121.923 140.594C119.763 140.594 118.369 138.844 118.369 135.754C118.369 132.678 119.777 130.914 121.923 130.914C124.083 130.914 125.478 132.678 125.478 135.754C125.478 138.844 124.083 140.594 121.923 140.594ZM132.406 125.117V128.508H130.327V131.133H132.406V139.145C132.406 141.961 133.636 143.068 136.767 143.068C137.491 143.068 138.161 143.014 138.531 142.932V140.334C138.312 140.375 137.874 140.402 137.56 140.402C136.357 140.402 135.81 139.855 135.81 138.666V131.133H138.544V128.508H135.81V125.117H132.406ZM142.983 126.32C144.022 126.32 144.843 125.486 144.843 124.475C144.843 123.449 144.022 122.629 142.983 122.629C141.944 122.629 141.11 123.449 141.11 124.475C141.11 125.486 141.944 126.32 142.983 126.32ZM141.288 143H144.692V128.508H141.288V143ZM148.831 143H152.235V131.133H155.079V128.549H152.18V127.359C152.18 126.184 152.768 125.568 154.067 125.568C154.464 125.568 154.86 125.609 155.147 125.65V123.271C154.723 123.189 153.985 123.121 153.315 123.121C150.171 123.121 148.831 124.447 148.831 127.264V128.549H146.848V131.133H148.831V143ZM159.286 148.387C162.594 148.387 164.194 147.17 165.424 143.574L170.674 128.508H167.092L163.674 140.102H163.606L160.202 128.508H156.483L161.637 143.014C161.651 143.055 161.432 143.779 161.432 143.82C161.063 145.16 160.338 145.693 158.93 145.693C158.725 145.693 158.124 145.68 157.946 145.639V148.332C158.124 148.373 159.081 148.387 159.286 148.387Z" fill="#475569"/>
<path d="M89.1865 497H90.6084V487.84H89.1929L86.7808 489.554V490.951L89.0786 489.307H89.1865V497ZM93.5816 497H95.0733L99.0596 489.072V487.84H92.8199V489.04H97.6187V489.142L93.5816 497ZM100.592 498.955L103.886 487.402H102.68L99.3922 498.955H100.592ZM108.078 497.222C110.211 497.222 111.455 495.464 111.455 492.43C111.455 489.389 110.192 487.618 108.078 487.618C105.952 487.618 104.689 489.389 104.689 492.411C104.689 495.458 105.939 497.222 108.078 497.222ZM108.078 496.042C106.834 496.042 106.123 494.772 106.123 492.411C106.123 490.081 106.847 488.805 108.078 488.805C109.31 488.805 110.021 490.068 110.021 492.411C110.021 494.778 109.323 496.042 108.078 496.042ZM116.403 497.222C118.345 497.222 119.659 495.921 119.659 494.017C119.659 492.188 118.389 490.995 116.841 490.995C115.914 490.995 115.235 491.293 114.816 491.858H114.708L114.974 489.046H119.183V487.84H113.87L113.356 493.128H114.657C114.993 492.493 115.635 492.112 116.447 492.112C117.526 492.112 118.269 492.887 118.269 494.042C118.269 495.235 117.52 496.035 116.409 496.035C115.412 496.035 114.67 495.432 114.568 494.518H113.21C113.299 496.111 114.581 497.222 116.403 497.222ZM121.629 498.955L124.924 487.402H123.718L120.43 498.955H121.629ZM125.802 490.494H127.148C127.148 489.478 127.827 488.792 128.862 488.792C129.877 488.792 130.48 489.472 130.48 490.36C130.48 491.103 130.176 491.56 129.014 492.772L125.878 496.035V497H132.048V495.788H127.821V495.68L129.839 493.648C131.445 492.036 131.909 491.281 131.909 490.221C131.909 488.716 130.671 487.618 128.951 487.618C127.103 487.618 125.802 488.812 125.802 490.494ZM137.072 497.222C139.205 497.222 140.449 495.464 140.449 492.43C140.449 489.389 139.186 487.618 137.072 487.618C134.945 487.618 133.682 489.389 133.682 492.411C133.682 495.458 134.933 497.222 137.072 497.222ZM137.072 496.042C135.828 496.042 135.117 494.772 135.117 492.411C135.117 490.081 135.84 488.805 137.072 488.805C138.303 488.805 139.014 490.068 139.014 492.411C139.014 494.778 138.316 496.042 137.072 496.042ZM142.121 490.494H143.466C143.466 489.478 144.146 488.792 145.18 488.792C146.196 488.792 146.799 489.472 146.799 490.36C146.799 491.103 146.494 491.56 145.333 492.772L142.197 496.035V497H148.367V495.788H144.139V495.68L146.158 493.648C147.764 492.036 148.227 491.281 148.227 490.221C148.227 488.716 146.989 487.618 145.269 487.618C143.422 487.618 142.121 488.812 142.121 490.494ZM153.39 497.222C155.523 497.222 156.767 495.464 156.767 492.43C156.767 489.389 155.504 487.618 153.39 487.618C151.264 487.618 150.001 489.389 150.001 492.411C150.001 495.458 151.251 497.222 153.39 497.222ZM153.39 496.042C152.146 496.042 151.435 494.772 151.435 492.411C151.435 490.081 152.159 488.805 153.39 488.805C154.622 488.805 155.333 490.068 155.333 492.411C155.333 494.778 154.634 496.042 153.39 496.042Z" fill="#64748B"/>
<path d="M162.215 421.423C162.215 423.778 162.933 425.835 164.278 427.32H166.062C164.691 425.245 164.139 423.569 164.139 421.423C164.139 419.271 164.691 417.589 166.062 415.514H164.278C162.933 416.999 162.215 419.062 162.215 421.423ZM175.465 424.299H171.136V424.172C171.796 423.823 172.19 423.105 172.146 422.369C172.146 422.229 172.12 422.109 172.076 421.995H174.259V420.592H171.701C171.543 420.198 171.441 419.894 171.441 419.462C171.441 418.681 172.146 418.199 173.282 418.199C173.917 418.199 174.462 418.256 175.053 418.396V416.802C174.488 416.663 173.847 416.605 172.996 416.605C170.819 416.605 169.53 417.5 169.53 419.024C169.53 419.589 169.689 420.084 169.892 420.592H168.502V421.995H170.286C170.324 422.096 170.356 422.223 170.356 422.375C170.33 423.455 169.587 424.267 168.489 424.426V426H175.465V424.299ZM176.471 419.9C176.471 421.614 177.652 422.845 179.277 422.845C179.848 422.845 180.4 422.636 180.736 422.287L180.863 422.306C180.794 422.458 180.692 422.61 180.444 422.947L178.147 425.994H180.178C180.419 425.702 181.809 423.905 182.108 423.455C183.034 422.147 183.422 421.119 183.422 420.021C183.422 418.015 182 416.65 179.924 416.65C177.956 416.65 176.471 418.046 176.471 419.9ZM179.956 418.18C180.927 418.18 181.651 418.884 181.651 419.836C181.651 420.789 180.927 421.5 179.956 421.5C178.985 421.5 178.261 420.789 178.261 419.836C178.261 418.884 178.985 418.18 179.956 418.18ZM187.886 426.121C188.655 426.121 189.283 425.473 189.283 424.692C189.283 423.905 188.655 423.258 187.886 423.258C187.118 423.258 186.49 423.905 186.49 424.692C186.49 425.473 187.118 426.121 187.886 426.121ZM192.383 419.9C192.383 421.614 193.564 422.845 195.189 422.845C195.76 422.845 196.312 422.636 196.649 422.287L196.776 422.306C196.706 422.458 196.604 422.61 196.357 422.947L194.059 425.994H196.09C196.331 425.702 197.722 423.905 198.02 423.455C198.947 422.147 199.334 421.119 199.334 420.021C199.334 418.015 197.912 416.65 195.836 416.65C193.868 416.65 192.383 418.046 192.383 419.9ZM195.868 418.18C196.839 418.18 197.563 418.884 197.563 419.836C197.563 420.789 196.839 421.5 195.868 421.5C194.897 421.5 194.173 420.789 194.173 419.836C194.173 418.884 194.897 418.18 195.868 418.18ZM200.339 419.9C200.339 421.614 201.52 422.845 203.145 422.845C203.716 422.845 204.268 422.636 204.605 422.287L204.732 422.306C204.662 422.458 204.56 422.61 204.313 422.947L202.015 425.994H204.046C204.287 425.702 205.678 423.905 205.976 423.455C206.903 422.147 207.29 421.119 207.29 420.021C207.29 418.015 205.868 416.65 203.792 416.65C201.825 416.65 200.339 418.046 200.339 419.9ZM203.824 418.18C204.795 418.18 205.519 418.884 205.519 419.836C205.519 420.789 204.795 421.5 203.824 421.5C202.853 421.5 202.129 420.789 202.129 419.836C202.129 418.884 202.853 418.18 203.824 418.18ZM213.558 421.423C213.558 419.062 212.84 416.999 211.495 415.514H209.711C211.082 417.589 211.634 419.271 211.634 421.423C211.634 423.569 211.082 425.245 209.711 427.32H211.495C212.84 425.835 213.558 423.778 213.558 421.423Z" fill="#98A6BA"/>
<path d="M221.187 497H222.608V487.84H221.193L218.781 489.554V490.951L221.079 489.307H221.187V497ZM225.582 497H227.073L231.06 489.072V487.84H224.82V489.04H229.619V489.142L225.582 497ZM232.592 498.955L235.886 487.402H234.68L231.392 498.955H232.592ZM240.078 497.222C242.211 497.222 243.455 495.464 243.455 492.43C243.455 489.389 242.192 487.618 240.078 487.618C237.952 487.618 236.689 489.389 236.689 492.411C236.689 495.458 237.939 497.222 240.078 497.222ZM240.078 496.042C238.834 496.042 238.123 494.772 238.123 492.411C238.123 490.081 238.847 488.805 240.078 488.805C241.31 488.805 242.021 490.068 242.021 492.411C242.021 494.778 241.323 496.042 240.078 496.042ZM248.587 497.216C250.529 497.216 251.907 495.889 251.907 494.029C251.907 492.265 250.637 490.976 248.898 490.976C247.812 490.976 246.93 491.484 246.492 492.366H246.384C246.409 490.043 247.247 488.818 248.676 488.818C249.539 488.818 250.167 489.262 250.345 490.037H251.773C251.545 488.583 250.364 487.618 248.644 487.618C246.416 487.618 245.019 489.434 245.019 492.544C245.019 495.661 246.524 497.216 248.587 497.216ZM248.574 496.029C247.482 496.029 246.651 495.166 246.651 494.036C246.651 492.918 247.457 492.112 248.587 492.112C249.717 492.112 250.497 492.918 250.497 494.067C250.497 495.178 249.666 496.029 248.574 496.029ZM253.883 498.955L257.178 487.402H255.972L252.683 498.955H253.883ZM258.056 490.494H259.402C259.402 489.478 260.081 488.792 261.116 488.792C262.131 488.792 262.734 489.472 262.734 490.36C262.734 491.103 262.43 491.56 261.268 492.772L258.132 496.035V497H264.302V495.788H260.075V495.68L262.093 493.648C263.699 492.036 264.163 491.281 264.163 490.221C264.163 488.716 262.925 487.618 261.205 487.618C259.357 487.618 258.056 488.812 258.056 490.494ZM269.326 497.222C271.459 497.222 272.703 495.464 272.703 492.43C272.703 489.389 271.44 487.618 269.326 487.618C267.199 487.618 265.936 489.389 265.936 492.411C265.936 495.458 267.187 497.222 269.326 497.222ZM269.326 496.042C268.082 496.042 267.371 494.772 267.371 492.411C267.371 490.081 268.094 488.805 269.326 488.805C270.557 488.805 271.268 490.068 271.268 492.411C271.268 494.778 270.57 496.042 269.326 496.042ZM274.375 490.494H275.72C275.72 489.478 276.4 488.792 277.434 488.792C278.45 488.792 279.053 489.472 279.053 490.36C279.053 491.103 278.748 491.56 277.587 492.772L274.451 496.035V497H280.621V495.788H276.393V495.68L278.412 493.648C280.018 492.036 280.481 491.281 280.481 490.221C280.481 488.716 279.243 487.618 277.523 487.618C275.676 487.618 274.375 488.812 274.375 490.494ZM285.644 497.222C287.777 497.222 289.021 495.464 289.021 492.43C289.021 489.389 287.758 487.618 285.644 487.618C283.518 487.618 282.255 489.389 282.255 492.411C282.255 495.458 283.505 497.222 285.644 497.222ZM285.644 496.042C284.4 496.042 283.689 494.772 283.689 492.411C283.689 490.081 284.413 488.805 285.644 488.805C286.876 488.805 287.587 490.068 287.587 492.411C287.587 494.778 286.888 496.042 285.644 496.042Z" fill="#64748B"/>
<path d="M254.019 471C290.627 434.396 290.627 375.043 254.019 338.438C217.438 301.854 158.038 301.854 121.453 338.438C84.849 375.043 84.849 434.396 121.453 471" stroke="#E2E8F0" stroke-width="8" stroke-miterlimit="1.5" stroke-linecap="round" stroke-linejoin="round"/>
<path d="M254.019 338.438C217.438 301.854 158.038 301.854 121.453 338.438C84.849 375.043 84.849 434.396 121.453 471" stroke="url(#paint0_linear)" stroke-width="8" stroke-miterlimit="1.5" stroke-linecap="round" stroke-linejoin="round"/>
<path d="M161.013 404.383H154.353V404.188C155.368 403.65 155.974 402.547 155.905 401.414C155.905 401.199 155.866 401.014 155.798 400.838H159.157V398.68H155.222C154.978 398.074 154.821 397.605 154.821 396.941C154.821 395.74 155.905 394.998 157.654 394.998C158.63 394.998 159.47 395.086 160.378 395.301V392.85C159.509 392.635 158.523 392.547 157.214 392.547C153.864 392.547 151.882 393.924 151.882 396.268C151.882 397.137 152.126 397.898 152.439 398.68H150.3V400.838H153.044C153.103 400.994 153.152 401.189 153.152 401.424C153.112 403.084 151.97 404.334 150.28 404.578V407H161.013V404.383ZM164.596 407H167.506L173.473 395.232V392.898H163.453V395.213H170.68V395.379L164.596 407ZM181.128 407.186C182.31 407.186 183.277 406.189 183.277 404.988C183.277 403.777 182.31 402.781 181.128 402.781C179.947 402.781 178.98 403.777 178.98 404.988C178.98 406.189 179.947 407.186 181.128 407.186ZM194.985 407H197.583V404.334H199.458V402.107H197.544V398.504H195.073V402.059H191.635V401.883L195.776 392.908H192.973L188.686 402.107V404.334H194.985V407ZM206.537 407.283C209.662 407.283 211.761 405.281 211.761 402.273C211.761 399.529 209.945 397.625 207.347 397.625C206.029 397.625 204.965 398.113 204.359 399.002H204.183L204.486 395.242H210.902V392.908H202.289L201.625 401.053H204.3C204.808 400.203 205.58 399.773 206.595 399.773C208.099 399.773 209.125 400.809 209.125 402.342C209.125 403.865 208.109 404.891 206.595 404.891C205.287 404.891 204.3 404.129 204.134 402.996H201.459C201.537 405.545 203.588 407.283 206.537 407.283ZM224.827 407V404.686H221.223V392.908H218.509L214.7 395.457V398.074L218.333 395.662H218.509V404.686H214.71V407H224.827Z" fill="#1A57DB"/>
<rect x="95" y="560" width="186" height="38" rx="16" fill="#CFD8E3"/>
<path d="M112.011 576.529V576.573H113.673V576.522C113.673 575.416 114.413 574.676 115.534 574.676C116.632 574.676 117.357 575.335 117.357 576.346C117.357 577.108 116.999 577.665 115.6 579.137L112.106 582.777V584H119.254V582.491H114.545V582.359L116.779 580.082C118.522 578.316 119.086 577.372 119.086 576.244C119.086 574.442 117.672 573.219 115.585 573.219C113.483 573.219 112.011 574.574 112.011 576.529ZM124.595 584.212C126.866 584.212 128.389 582.733 128.389 580.521C128.389 578.456 127.034 577.02 125.079 577.02C124.112 577.02 123.328 577.372 122.852 578.016H122.728L122.984 574.94H127.767V573.431H121.578L121.065 579.481H122.764C123.16 578.792 123.819 578.434 124.654 578.434C125.87 578.434 126.698 579.291 126.698 580.565C126.698 581.832 125.877 582.682 124.654 582.682C123.57 582.682 122.75 582.03 122.633 581.078H120.919C120.999 582.945 122.486 584.212 124.595 584.212ZM142.734 578.521C143.554 578.521 144.228 577.833 144.228 576.991C144.228 576.148 143.554 575.467 142.734 575.467C141.913 575.467 141.239 576.148 141.239 576.991C141.239 577.833 141.913 578.521 142.734 578.521ZM142.734 584.103C143.554 584.103 144.228 583.407 144.228 582.572C144.228 581.729 143.554 581.048 142.734 581.048C141.913 581.048 141.239 581.729 141.239 582.572C141.239 583.407 141.913 584.103 142.734 584.103ZM160.806 584.227C163.245 584.227 164.614 582.25 164.614 578.712C164.614 575.182 163.245 573.204 160.806 573.204C158.36 573.204 156.99 575.182 156.99 578.712C156.99 582.25 158.36 584.227 160.806 584.227ZM158.726 578.712C158.726 576.09 159.451 574.684 160.806 574.684C161.699 574.684 162.322 575.299 162.637 576.485L158.74 579.342C158.733 579.144 158.726 578.932 158.726 578.712ZM160.806 582.748C159.905 582.748 159.29 582.132 158.975 580.953L162.864 578.089C162.871 578.287 162.879 578.5 162.879 578.712C162.879 581.341 162.154 582.748 160.806 582.748ZM165.993 576.903C165.993 578.858 167.363 580.279 169.245 580.279C169.904 580.279 170.585 580.016 170.944 579.598L171.076 579.635C171.003 579.789 170.908 579.928 170.644 580.294L167.897 583.993H169.904C170.102 583.758 171.94 581.268 172.182 580.887C173.244 579.378 173.684 578.221 173.684 576.983C173.684 574.757 172.094 573.211 169.824 573.211C167.619 573.211 165.993 574.786 165.993 576.903ZM169.838 574.72C171.047 574.72 171.948 575.628 171.948 576.837C171.948 578.045 171.047 578.954 169.838 578.954C168.637 578.954 167.736 578.045 167.736 576.837C167.736 575.628 168.637 574.72 169.838 574.72ZM187.896 578.521C188.716 578.521 189.39 577.833 189.39 576.991C189.39 576.148 188.716 575.467 187.896 575.467C187.076 575.467 186.402 576.148 186.402 576.991C186.402 577.833 187.076 578.521 187.896 578.521ZM187.896 584.103C188.716 584.103 189.39 583.407 189.39 582.572C189.39 581.729 188.716 581.048 187.896 581.048C187.076 581.048 186.402 581.729 186.402 582.572C186.402 583.407 187.076 584.103 187.896 584.103ZM204.672 579.254H205.91C207.221 579.254 208.063 579.935 208.063 580.997C208.063 582.037 207.243 582.696 205.946 582.696C204.73 582.696 203.903 582.059 203.815 581.063H202.167C202.262 582.975 203.771 584.212 205.99 584.212C208.253 584.212 209.835 582.931 209.835 581.092C209.835 579.671 208.986 578.719 207.565 578.543V578.419C208.715 578.163 209.411 577.247 209.411 575.995C209.411 574.354 207.997 573.219 205.954 573.219C203.829 573.219 202.467 574.398 202.365 576.317H203.983C204.064 575.299 204.789 574.669 205.895 574.669C207.001 574.669 207.726 575.284 207.726 576.251C207.726 577.225 206.979 577.892 205.873 577.892H204.672V579.254ZM215.989 584H217.63V581.905H219.124V580.455H217.615V577.628H216.033V580.44H213.104V580.323L216.385 573.431H214.59L211.229 580.492V581.905H215.989V584ZM233.058 578.521C233.879 578.521 234.552 577.833 234.552 576.991C234.552 576.148 233.879 575.467 233.058 575.467C232.238 575.467 231.564 576.148 231.564 576.991C231.564 577.833 232.238 578.521 233.058 578.521ZM233.058 584.103C233.879 584.103 234.552 583.407 234.552 582.572C234.552 581.729 233.879 581.048 233.058 581.048C232.238 581.048 231.564 581.729 231.564 582.572C231.564 583.407 232.238 584.103 233.058 584.103ZM255.181 584V582.513H252.368V573.431H250.64L247.666 575.394V577.115L250.508 575.248H250.632V582.513H247.681V584H255.181ZM264.213 584V582.513H261.401V573.431H259.672L256.699 575.394V577.115L259.54 575.248H259.665V582.513H256.713V584H264.213Z" fill="#364152"/>
<path d="M120.492 553V548.042H120.589L124.166 553H125.509V545.25H123.957V550.186H123.86L120.293 545.25H118.94V553H120.492ZM132.599 551.663H129.086V549.702H132.4V548.456H129.086V546.587H132.599V545.25H127.464V553H132.599V551.663ZM133.91 553H135.661L137.347 550.336H137.444L139.109 553H140.956L138.443 549.122L140.994 545.25H139.179L137.546 547.994H137.449L135.832 545.25H133.926L136.386 549.095L133.91 553ZM145.973 553V546.587H148.299V545.25H142.025V546.587H144.351V553H145.973ZM152.709 545.25V553H154.331V550.556H155.862C157.495 550.556 158.628 549.493 158.628 547.914C158.628 546.313 157.537 545.25 155.942 545.25H152.709ZM154.331 546.539H155.513C156.447 546.539 156.979 547.017 156.979 547.919C156.979 548.8 156.436 549.283 155.507 549.283H154.331V546.539ZM165.326 551.663H161.813V549.702H165.127V548.456H161.813V546.587H165.326V545.25H160.191V553H165.326V551.663ZM168.726 550.164H170.053L171.497 553H173.334L171.701 549.922C172.593 549.573 173.109 548.714 173.109 547.72C173.109 546.189 172.061 545.25 170.359 545.25H167.104V553H168.726V550.164ZM168.726 546.517H170.133C170.939 546.517 171.444 546.99 171.444 547.742C171.444 548.51 170.966 548.956 170.149 548.956H168.726V546.517ZM176.434 553V545.25H174.811V553H176.434ZM181.773 545.051C179.49 545.051 178.04 546.608 178.04 549.122C178.04 551.63 179.468 553.199 181.773 553.199C184.061 553.199 185.5 551.63 185.5 549.122C185.5 546.614 184.055 545.051 181.773 545.051ZM181.773 546.426C183.029 546.426 183.84 547.473 183.84 549.122C183.84 550.766 183.035 551.824 181.773 551.824C180.494 551.824 179.699 550.766 179.699 549.122C179.699 547.473 180.51 546.426 181.773 546.426ZM187.112 545.25V553H190.162C192.483 553 193.799 551.582 193.799 549.074C193.799 546.641 192.467 545.25 190.162 545.25H187.112ZM188.734 546.587H189.905C191.312 546.587 192.144 547.5 192.144 549.101C192.144 550.76 191.339 551.663 189.905 551.663H188.734V546.587ZM201.797 553C203.451 553 204.477 552.146 204.477 550.782C204.477 549.783 203.73 549.015 202.704 548.934V548.837C203.499 548.719 204.106 548.005 204.106 547.183C204.106 545.985 203.209 545.25 201.705 545.25H198.316V553H201.797ZM199.938 546.453H201.292C202.065 546.453 202.511 546.829 202.511 547.462C202.511 548.107 202.033 548.472 201.157 548.472H199.938V546.453ZM199.938 551.792V549.541H201.345C202.301 549.541 202.822 549.928 202.822 550.653C202.822 551.394 202.318 551.792 201.383 551.792H199.938ZM211.148 551.663H207.635V549.702H210.949V548.456H207.635V546.587H211.148V545.25H206.013V553H211.148V551.663ZM219.736 549.853V548.87H216.481V550.051H218.163L218.157 550.196C218.125 551.163 217.389 551.813 216.326 551.813C215.047 551.813 214.242 550.787 214.242 549.101C214.242 547.446 215.01 546.431 216.261 546.431C217.164 546.431 217.813 546.893 218.055 547.704H219.667C219.441 546.098 218.093 545.051 216.261 545.051C214.005 545.051 212.582 546.625 212.582 549.117C212.582 551.646 213.995 553.199 216.299 553.199C218.415 553.199 219.736 551.91 219.736 549.853ZM222.986 553V545.25H221.364V553H222.986ZM226.488 553V548.042H226.585L230.162 553H231.505V545.25H229.953V550.186H229.856L226.289 545.25H224.936V553H226.488ZM233.111 550.857C233.17 552.291 234.368 553.199 236.215 553.199C238.16 553.199 239.357 552.243 239.357 550.696C239.357 549.498 238.686 548.827 237.128 548.494L236.194 548.295C235.286 548.096 234.916 547.812 234.916 547.323C234.916 546.716 235.453 546.324 236.264 546.324C237.048 546.324 237.617 546.737 237.692 547.371H239.218C239.169 546.001 237.961 545.051 236.253 545.051C234.464 545.051 233.288 546.007 233.288 547.452C233.288 548.628 233.981 549.353 235.394 549.654L236.403 549.874C237.354 550.083 237.741 550.379 237.741 550.889C237.741 551.491 237.145 551.915 236.301 551.915C235.388 551.915 234.754 551.501 234.679 550.857H233.111ZM245.492 553V545.25H243.87V553H245.492ZM248.994 553V548.042H249.09L252.668 553H254.01V545.25H252.458V550.186H252.361L248.795 545.25H247.441V553H248.994ZM256.938 549.321C257.518 549.321 257.888 548.934 257.888 548.408C257.888 547.881 257.518 547.5 256.938 547.5C256.363 547.5 255.987 547.881 255.987 548.408C255.987 548.934 256.363 549.321 256.938 549.321ZM256.938 553.134C257.518 553.134 257.888 552.748 257.888 552.221C257.888 551.695 257.518 551.313 256.938 551.313C256.363 551.313 255.987 551.695 255.987 552.221C255.987 552.748 256.363 553.134 256.938 553.134Z" fill="#3F83F8"/>
<path d="M137.189 648.193C138.978 648.193 140.289 647.135 140.471 645.567H139.107C138.919 646.437 138.172 646.99 137.189 646.99C135.868 646.99 135.046 645.889 135.046 644.122C135.046 642.36 135.868 641.259 137.184 641.259C138.162 641.259 138.908 641.866 139.102 642.801H140.466C140.305 641.195 138.946 640.056 137.184 640.056C134.987 640.056 133.628 641.608 133.628 644.127C133.628 646.636 134.993 648.193 137.189 648.193ZM143.56 648.097C144.328 648.097 144.972 647.764 145.3 647.194H145.391V648H146.675V643.988C146.675 642.747 145.826 642.017 144.317 642.017C142.921 642.017 141.948 642.672 141.841 643.698H143.098C143.221 643.295 143.64 643.075 144.253 643.075C144.972 643.075 145.359 643.402 145.359 643.988V644.493L143.844 644.584C142.416 644.665 141.615 645.282 141.615 646.335C141.615 647.409 142.426 648.097 143.56 648.097ZM143.952 647.071C143.361 647.071 142.937 646.775 142.937 646.271C142.937 645.782 143.286 645.508 144.032 645.459L145.359 645.368V645.846C145.359 646.544 144.757 647.071 143.952 647.071ZM148.351 648H149.683V644.579C149.683 643.698 150.182 643.145 150.977 643.145C151.788 643.145 152.164 643.601 152.164 644.514V648H153.496V644.203C153.496 642.806 152.782 642.017 151.472 642.017C150.596 642.017 150.005 642.414 149.726 643.069H149.635V642.129H148.351V648ZM160.221 644.09C160.082 642.876 159.168 642.017 157.659 642.017C155.892 642.017 154.856 643.15 154.856 645.051C154.856 646.974 155.897 648.118 157.665 648.118C159.152 648.118 160.076 647.291 160.221 646.077H158.954C158.814 646.695 158.352 647.022 157.659 647.022C156.752 647.022 156.204 646.297 156.204 645.051C156.204 643.827 156.746 643.107 157.659 643.107C158.39 643.107 158.83 643.521 158.954 644.09H160.221ZM165.394 646.394C165.2 646.834 164.744 647.082 164.083 647.082C163.208 647.082 162.644 646.458 162.612 645.465V645.395H166.715V644.971C166.715 643.128 165.711 642.017 164.035 642.017C162.332 642.017 161.274 643.204 161.274 645.089C161.274 646.969 162.316 648.118 164.046 648.118C165.431 648.118 166.414 647.452 166.656 646.394H165.394ZM164.03 643.053C164.83 643.053 165.356 643.617 165.383 644.509H162.617C162.676 643.628 163.235 643.053 164.03 643.053ZM168.176 648H169.508V639.857H168.176V648ZM174.133 643.805C174.133 644.686 174.665 645.202 175.793 645.459L176.835 645.701C177.393 645.83 177.646 646.045 177.646 646.378C177.646 646.824 177.178 647.13 176.507 647.13C175.841 647.13 175.428 646.861 175.299 646.426H173.983C174.085 647.484 175.009 648.118 176.475 648.118C177.941 648.118 178.978 647.372 178.978 646.249C178.978 645.384 178.457 644.906 177.334 644.648L176.298 644.417C175.707 644.278 175.428 644.068 175.428 643.735C175.428 643.3 175.884 643.005 176.491 643.005C177.114 643.005 177.506 643.273 177.603 643.687H178.854C178.758 642.629 177.882 642.017 176.486 642.017C175.1 642.017 174.133 642.752 174.133 643.805ZM185.509 642.129H184.177V645.551C184.177 646.437 183.705 646.974 182.84 646.974C182.045 646.974 181.674 646.534 181.674 645.621V642.129H180.342V645.943C180.342 647.318 181.094 648.118 182.378 648.118C183.275 648.118 183.85 647.737 184.134 647.065H184.226V648H185.509V642.129ZM190.478 648.097C191.96 648.097 192.889 646.931 192.889 645.067C192.889 643.193 191.965 642.033 190.478 642.033C189.672 642.033 188.995 642.425 188.689 643.064H188.598V639.857H187.266V648H188.549V647.071H188.641C188.974 647.715 189.656 648.097 190.478 648.097ZM190.059 643.145C190.966 643.145 191.52 643.87 191.52 645.067C191.52 646.265 190.972 646.99 190.059 646.99C189.146 646.99 188.576 646.254 188.576 645.067C188.576 643.88 189.151 643.145 190.059 643.145ZM194.162 643.805C194.162 644.686 194.694 645.202 195.822 645.459L196.864 645.701C197.423 645.83 197.675 646.045 197.675 646.378C197.675 646.824 197.208 647.13 196.536 647.13C195.87 647.13 195.457 646.861 195.328 646.426H194.012C194.114 647.484 195.038 648.118 196.504 648.118C197.971 648.118 199.007 647.372 199.007 646.249C199.007 645.384 198.486 644.906 197.364 644.648L196.327 644.417C195.736 644.278 195.457 644.068 195.457 643.735C195.457 643.3 195.913 643.005 196.52 643.005C197.143 643.005 197.535 643.273 197.632 643.687H198.884C198.787 642.629 197.911 642.017 196.515 642.017C195.129 642.017 194.162 642.752 194.162 643.805ZM205.501 644.09C205.361 642.876 204.448 642.017 202.939 642.017C201.172 642.017 200.135 643.15 200.135 645.051C200.135 646.974 201.177 648.118 202.944 648.118C204.432 648.118 205.356 647.291 205.501 646.077H204.233C204.094 646.695 203.632 647.022 202.939 647.022C202.031 647.022 201.483 646.297 201.483 645.051C201.483 643.827 202.026 643.107 202.939 643.107C203.669 643.107 204.11 643.521 204.233 644.09H205.501ZM206.844 648H208.176V644.589C208.176 643.762 208.777 643.225 209.642 643.225C209.868 643.225 210.222 643.263 210.324 643.3V642.086C210.201 642.054 209.965 642.033 209.771 642.033C209.014 642.033 208.38 642.462 208.219 643.042H208.128V642.129H206.844V648ZM212.167 641.146C212.607 641.146 212.967 640.797 212.967 640.357C212.967 639.922 212.607 639.567 212.167 639.567C211.732 639.567 211.372 639.922 211.372 640.357C211.372 640.797 211.732 641.146 212.167 641.146ZM211.506 648H212.833V642.129H211.506V648ZM217.758 642.033C216.953 642.033 216.271 642.436 215.932 643.102H215.841V642.129H214.557V649.95H215.889V647.108H215.98C216.281 647.731 216.931 648.097 217.774 648.097C219.257 648.097 220.181 646.931 220.181 645.067C220.181 643.188 219.246 642.033 217.758 642.033ZM217.339 646.99C216.432 646.99 215.868 646.254 215.862 645.067C215.868 643.88 216.437 643.145 217.345 643.145C218.258 643.145 218.811 643.864 218.811 645.067C218.811 646.271 218.263 646.99 217.339 646.99ZM222.012 640.69V642.167H221.083V643.204H222.012V646.442C222.012 647.576 222.55 648.027 223.898 648.027C224.155 648.027 224.403 648.005 224.596 647.968V646.947C224.435 646.963 224.333 646.974 224.145 646.974C223.586 646.974 223.339 646.711 223.339 646.125V643.204H224.596V642.167H223.339V640.69H222.012ZM226.675 641.146C227.115 641.146 227.475 640.797 227.475 640.357C227.475 639.922 227.115 639.567 226.675 639.567C226.24 639.567 225.88 639.922 225.88 640.357C225.88 640.797 226.24 641.146 226.675 641.146ZM226.014 648H227.341V642.129H226.014V648ZM231.6 648.118C233.357 648.118 234.425 646.969 234.425 645.062C234.425 643.166 233.351 642.017 231.6 642.017C229.855 642.017 228.775 643.171 228.775 645.062C228.775 646.969 229.838 648.118 231.6 648.118ZM231.6 647.028C230.671 647.028 230.139 646.308 230.139 645.067C230.139 643.827 230.671 643.107 231.6 643.107C232.524 643.107 233.056 643.827 233.056 645.067C233.056 646.308 232.529 647.028 231.6 647.028ZM235.838 648H237.17V644.579C237.17 643.698 237.67 643.145 238.465 643.145C239.276 643.145 239.652 643.601 239.652 644.514V648H240.984V644.203C240.984 642.806 240.269 642.017 238.959 642.017C238.083 642.017 237.492 642.414 237.213 643.069H237.122V642.129H235.838V648Z" fill="#6B7280"/>
<path d="M133 650.003H241.746V650.89H133V650.003Z" fill="#6B7280"/>
<path fill-rule="evenodd" clip-rule="evenodd" d="M17.5371 66.5827L8.29215 57.4458C7.90262 57.0612 7.90262 56.4398 8.29215 56.0542L17.5371 46.9173C18.0995 46.3609 19.0144 46.3609 19.5777 46.9173C20.14 47.4738 20.14 48.3769 19.5777 48.9333L11.6691 56.7505L19.5777 64.5657C20.14 65.1231 20.14 66.0262 19.5777 66.5827C19.0144 67.1391 18.0995 67.1391 17.5371 66.5827Z" fill="#1A57DB"/>
<path d="M31.7007 63C34.249 63 35.7598 61.7466 35.7598 59.6382C35.7598 58.0527 34.7222 56.9321 33.0869 56.7246V56.5918C34.2407 56.3843 35.1538 55.2554 35.1538 54.0103C35.1538 52.1758 33.8091 51.022 31.6094 51.022H27.0273V63H31.7007ZM28.5215 52.3418H31.2939C32.7798 52.3418 33.6431 53.0474 33.6431 54.2676C33.6431 55.5376 32.7217 56.1851 30.9121 56.1851H28.5215V52.3418ZM28.5215 61.6802V57.4717H31.3354C33.2446 57.4717 34.2241 58.1772 34.2241 59.5635C34.2241 60.9497 33.2778 61.6802 31.4766 61.6802H28.5215ZM40.0978 63.1577C41.2931 63.1577 42.2726 62.6348 42.8537 61.6802H42.9865V63H44.3478V56.874C44.3478 55.0146 43.1276 53.894 40.9445 53.894C39.0353 53.894 37.6242 54.8403 37.4333 56.2764H38.8776C39.0768 55.5708 39.8239 55.1641 40.8947 55.1641C42.2311 55.1641 42.9201 55.77 42.9201 56.874V57.6875L40.3385 57.8452C38.255 57.9697 37.0763 58.8911 37.0763 60.4932C37.0763 62.1284 38.3629 63.1577 40.0978 63.1577ZM40.3634 61.9043C39.3258 61.9043 38.5539 61.373 38.5539 60.46C38.5539 59.5635 39.1515 59.0903 40.5129 58.999L42.9201 58.8413V59.6631C42.9201 60.9414 41.8327 61.9043 40.3634 61.9043ZM53.9818 56.791C53.7327 55.1973 52.4046 53.894 50.2298 53.894C47.723 53.894 46.1292 55.7036 46.1292 58.4927C46.1292 61.3398 47.7313 63.1577 50.2381 63.1577C52.388 63.1577 53.7244 61.9458 53.9818 60.3022H52.5374C52.2718 61.3149 51.4334 61.8711 50.2298 61.8711C48.6361 61.8711 47.6068 60.5596 47.6068 58.4927C47.6068 56.4673 48.6195 55.1807 50.2298 55.1807C51.5164 55.1807 52.305 55.9028 52.5374 56.791H53.9818ZM57.3237 57.9614H57.1909V50.499H55.7632V63H57.1909V59.605L58.0459 58.8081L61.3994 63H63.2173L59.1084 57.8867L62.9599 54.0518H61.2085L57.3237 57.9614Z" fill="#1A57DB"/>
<defs>
<linearGradient id="paint0_linear" x1="121" y1="471" x2="254" y2="471" gradientUnits="userSpaceOnUse">
<stop stop-color="#76A9FA"/>
<stop offset="1" stop-color="#1A57DB"/>
<stop offset="1" stop-color="#1A57DB"/>
</linearGradient>
</defs>
</svg>
