<svg fill="none" height="667" viewBox="0 0 375 667" width="375" xmlns="http://www.w3.org/2000/svg" xmlns:xlink="http://www.w3.org/1999/xlink"><linearGradient id="a" gradientUnits="userSpaceOnUse" x1="121" x2="254" y1="471" y2="471"><stop offset="0" stop-color="#76a9fa"/><stop offset="1" stop-color="#1a57db"/></linearGradient><path d="m0 0h375v667h-375z" fill="#fff"/><path d="m8 144.2c0-17.922 0-26.883 3.4878-33.728 3.0679-6.021 7.9633-10.9163 13.9845-13.9842 6.8452-3.4878 15.806-3.4878 33.7277-3.4878h256.6c17.922 0 26.883 0 33.728 3.4878 6.021 3.0679 10.916 7.9632 13.984 13.9842 3.488 6.845 3.488 15.806 3.488 33.728v75.6c0 17.922 0 26.883-3.488 33.728-3.068 6.021-7.963 10.916-13.984 13.984-6.845 3.488-15.806 3.488-33.728 3.488h-256.6c-17.9217 0-26.8825 0-33.7277-3.488-6.0212-3.068-10.9166-7.963-13.9845-13.984-3.4878-6.845-3.4878-15.806-3.4878-33.728z" fill="#e1effe"/><g fill="#000"><path clip-rule="evenodd" d="m345.089 8.56h14.822c1.248 0 1.7.12995 2.157.37398.456.24403.814.60214 1.058 1.05843s.374.90889.374 2.15699v4.3212c0 1.2481-.13 1.7007-.374 2.157s-.602.8144-1.058 1.0584c-.457.244-.909.374-2.157.374h-14.822c-1.248 0-1.7-.13-2.157-.374-.456-.244-.814-.6021-1.058-1.0584s-.374-.9089-.374-2.157v-4.3212c0-1.2481.13-1.7007.374-2.15699s.602-.8144 1.058-1.05843c.457-.24403.909-.37398 2.157-.37398zm0 1c-.987 0-1.331.06653-1.685.2558-.282.15083-.497.3662-.648.6482-.189.3539-.256.6985-.256 1.6854v4.3212c0 .9869.067 1.3315.256 1.6854.151.282.366.4974.648.6482.354.1893.698.2558 1.685.2558h14.822c.987 0 1.331-.0665 1.685-.2558.282-.1508.497-.3662.648-.6482.189-.3539.256-.6985.256-1.6854v-4.3212c0-.9869-.067-1.3315-.256-1.6854-.151-.282-.366-.49737-.648-.6482-.354-.18927-.698-.2558-1.685-.2558zm20.911 4.69c0 1.2366-1.5 2-1.5 2v-4s1.5.7634 1.5 2z" fill-opacity=".36" fill-rule="evenodd"/><rect height="7.66667" rx="1.6" width="18" x="343.5" y="10.4767"/><path clip-rule="evenodd" d="m328.8 11.0963c2.235.0001 4.384.8587 6.003 2.3983.122.1188.317.1173.437-.0034l1.166-1.1764c.061-.0613.094-.1442.094-.2305-.001-.0863-.035-.1688-.097-.2293-4.25-4.07334-10.956-4.07334-15.206 0-.062.0604-.096.143-.097.2292-.001.0863.033.1693.094.2306l1.166 1.1764c.12.1209.315.1224.437.0034 1.62-1.5397 3.769-2.3983 6.003-2.3983zm0 3.8274c1.228 0 2.412.4563 3.322 1.2803.123.117.317.1144.437-.0057l1.164-1.1764c.062-.0617.096-.1454.095-.2324s-.037-.17-.1-.2305c-2.771-2.5777-7.062-2.5777-9.833 0-.063.0605-.099.1435-.099.2305-.001.0871.033.1708.094.2324l1.164 1.1764c.12.1201.314.1227.437.0057.91-.8235 2.093-1.2798 3.319-1.2803zm2.238 2.8076c.062-.0611.097-.1452.095-.2324s-.04-.1699-.104-.2284c-1.287-1.0879-3.171-1.0879-4.457 0-.064.0585-.102.1411-.104.2283-.002.0873.032.1714.095.2325l2.014 2.0325c.059.0598.139.0934.223.0934s.165-.0336.224-.0934z" fill-rule="evenodd"/><path d="m176.797 20.2563c2.688 0 4.285-2.102 4.285-5.6689 0-3.501-1.699-5.41992-4.226-5.41992-2.3 0-3.926 1.54542-3.926 3.70602 0 2.0288 1.465 3.5083 3.479 3.5083 1.238 0 2.241-.5713 2.739-1.5747h.125c-.022 2.4829-.908 3.9038-2.454 3.9038-.908 0-1.633-.498-1.86-1.3037h-1.882c.307 1.7212 1.787 2.8491 3.72 2.8491zm.066-5.332c-1.23 0-2.08-.8642-2.08-2.1094 0-1.1938.894-2.1093 2.088-2.1093 1.193 0 2.087.9301 2.087 2.146 0 1.2011-.872 2.0727-2.095 2.0727zm7.372-1.7651c.696 0 1.172-.4834 1.172-1.1353 0-.6518-.476-1.1352-1.172-1.1352-.689 0-1.172.4834-1.172 1.1352 0 .6519.483 1.1353 1.172 1.1353zm0 5.376c.696 0 1.172-.4908 1.172-1.1353 0-.6519-.476-1.1353-1.172-1.1353-.689 0-1.172.4834-1.172 1.1353 0 .6445.483 1.1353 1.172 1.1353zm8.309 1.4648h1.809v-2.0288h1.428v-1.5601h-1.428v-6.97995h-2.666c-1.435 2.18265-2.937 4.61425-4.307 6.99465v1.5454h5.164zm-3.413-3.6548c1.033-1.7944 2.256-3.75 3.34-5.4053h.102v5.5152h-3.442zm10.814 3.6548h1.89v-10.56885h-1.883l-2.761 1.94095v1.7798l2.629-1.8604h.125z"/><path clip-rule="evenodd" d="m22.123 9.96589c-.023.11591-.023.25531-.023.53411v7.7c0 .2788 0 .4182.023.5341.0947.476.4669.8482.9429.9428.1159.0231.2553.0231.5341.0231s.4182 0 .5341-.0231c.476-.0946.8481-.4668.9428-.9428.0231-.1159.0231-.2553.0231-.5341v-7.7c0-.2788 0-.4182-.0231-.53411-.0947-.47603-.4668-.84814-.9428-.94283-.1159-.02306-.2553-.02306-.5341-.02306s-.4182 0-.5341.02306c-.476.09469-.8482.4668-.9429.94283zm-4.723 2.93411c0-.2788 0-.4182.0231-.5341.0946-.476.4668-.8482.9428-.9428.1159-.0231.2553-.0231.5341-.0231s.4182 0 .5341.0231c.476.0946.8481.4668.9428.9428.0231.1159.0231.2553.0231.5341v5.3c0 .2788 0 .4182-.0231.5341-.0947.476-.4668.8482-.9428.9428-.1159.0231-.2553.0231-.5341.0231s-.4182 0-.5341-.0231c-.476-.0946-.8482-.4668-.9428-.9428-.0231-.1159-.0231-.2553-.0231-.5341zm-4.577 1.7659c-.023.1159-.023.2553-.023.5341v3c0 .2788 0 .4182.023.5341.0947.476.4669.8482.9429.9428.1159.0231.2553.0231.5341.0231s.4182 0 .5341-.0231c.476-.0946.8481-.4668.9428-.9428.0231-.1159.0231-.2553.0231-.5341v-3c0-.2788 0-.4182-.0231-.5341-.0947-.476-.4668-.8482-.9428-.9428-.1159-.0231-.2553-.0231-.5341-.0231s-.4182 0-.5341.0231c-.476.0946-.8482.4668-.9429.9428zm-4.79994 2c-.02306.1159-.02306.2553-.02306.5341v1c0 .2788 0 .4182.02306.5341.09469.476.4668.8482.94283.9428.11592.0231.25532.0231.53411.0231s.41819 0 .5341-.0231c.476-.0946.8482-.4668.9428-.9428.0231-.1159.0231-.2553.0231-.5341v-1c0-.2788 0-.4182-.0231-.5341-.0946-.476-.4668-.8482-.9428-.9428-.11591-.0231-.25531-.0231-.5341-.0231s-.41819 0-.53411.0231c-.47603.0946-.84814.4668-.94283.9428z" fill-rule="evenodd"/></g><path d="m33.445 209.318v1.245h2.2495c.0747.324.1245.639.1245.963 0 1.336-.9546 2.457-2.3325 2.747v1.644h9.0147v-1.735h-6.1343v-.108c.8716-.49 1.4941-1.436 1.4941-2.631 0-.299-.0332-.589-.0996-.88h3.4448v-1.245h-3.81c-.2075-.614-.3985-1.22-.3985-1.851 0-1.204.938-1.951 2.6231-1.951.938 0 1.8677.183 2.3242.423v-1.701c-.5146-.258-1.5273-.44-2.5815-.44-2.8223 0-4.4825 1.361-4.4825 3.494 0 .689.2159 1.362.44 2.026zm15.3615 6.973c3.0464 0 4.8559-2.383 4.8559-6.425 0-3.968-1.9257-6.143-4.7895-6.143-2.6065 0-4.4492 1.752-4.4492 4.2 0 2.3 1.6601 3.976 3.9428 3.976 1.4029 0 2.5401-.647 3.1045-1.784h.1411c-.0249 2.814-1.0292 4.424-2.7807 4.424-1.0293 0-1.8511-.564-2.1084-1.477h-2.1333c.3486 1.95 2.0254 3.229 4.2168 3.229zm.0747-6.043c-1.3945 0-2.3574-.98-2.3574-2.391 0-1.353 1.0127-2.391 2.3657-2.391s2.3657 1.055 2.3657 2.432c0 1.362-.9878 2.35-2.374 2.35zm7.4176 5.918c.7886 0 1.3282-.556 1.3282-1.295 0-.73-.5396-1.287-1.3282-1.287-.7802 0-1.3281.557-1.3281 1.287 0 .739.5479 1.295 1.3281 1.295zm7.1271.125c3.0464 0 4.856-2.383 4.856-6.425 0-3.968-1.9258-6.143-4.7896-6.143-2.6064 0-4.4492 1.752-4.4492 4.2 0 2.3 1.6602 3.976 3.9429 3.976 1.4028 0 2.54-.647 3.1045-1.784h.1411c-.0249 2.814-1.0293 4.424-2.7808 4.424-1.0293 0-1.851-.564-2.1084-1.477h-2.1333c.3487 1.95 2.0254 3.229 4.2168 3.229zm.0747-6.043c-1.3945 0-2.3574-.98-2.3574-2.391 0-1.353 1.0127-2.391 2.3657-2.391 1.3531 0 2.3658 1.055 2.3658 2.432 0 1.362-.9878 2.35-2.3741 2.35zm10.8542 6.043c3.0464 0 4.856-2.383 4.856-6.425 0-3.968-1.9258-6.143-4.7896-6.143-2.6064 0-4.4492 1.752-4.4492 4.2 0 2.3 1.6601 3.976 3.9429 3.976 1.4028 0 2.54-.647 3.1045-1.784h.1411c-.0249 2.814-1.0293 4.424-2.7808 4.424-1.0293 0-1.8511-.564-2.1084-1.477h-2.1333c.3486 1.95 2.0254 3.229 4.2168 3.229zm.0747-6.043c-1.3945 0-2.3574-.98-2.3574-2.391 0-1.353 1.0127-2.391 2.3657-2.391s2.3657 1.055 2.3657 2.432c0 1.362-.9878 2.35-2.374 2.35zm7.318 8.317 4.2998-15.149h-1.851l-4.3081 15.149zm5.2097-2.565h2.0586v-5.52c0-1.129.7553-1.984 1.7763-1.984 1.0127 0 1.6436.614 1.6436 1.619v5.885h2.0005v-5.669c0-1.038.7055-1.835 1.7763-1.835 1.104 0 1.6602.589 1.6602 1.768v5.736h2.0503v-6.242c0-1.884-1.0957-3.005-2.9136-3.005-1.2617 0-2.3076.647-2.7558 1.635h-.1412c-.3818-1.004-1.2534-1.635-2.5068-1.635-1.2036 0-2.1333.614-2.5234 1.635h-.1411v-1.461h-1.9839zm18.9138.183c2.715 0 4.367-1.777 4.367-4.724 0-2.93-1.661-4.706-4.367-4.706-2.697 0-4.366 1.785-4.366 4.706 0 2.947 1.644 4.724 4.366 4.724zm0-1.685c-1.436 0-2.257-1.113-2.257-3.03 0-1.918.821-3.03 2.257-3.03 1.428 0 2.25 1.112 2.25 3.03 0 1.917-.814 3.03-2.25 3.03zm6.032 1.502h2.058v-5.288c0-1.361.772-2.216 2.001-2.216 1.253 0 1.834.706 1.834 2.117v5.387h2.059v-5.869c0-2.158-1.104-3.378-3.129-3.378-1.353 0-2.267.614-2.698 1.627h-.141v-1.453h-1.984zm10.638-11.297v2.282h-1.436v1.602h1.436v5.006c0 1.751.83 2.449 2.914 2.449.398 0 .78-.034 1.079-.092v-1.577c-.249.025-.407.042-.697.042-.864 0-1.246-.407-1.246-1.312v-4.516h1.943v-1.602h-1.943v-2.282zm5.724 11.297h2.059v-5.271c0-1.328.755-2.216 2.108-2.216 1.196 0 1.827.714 1.827 2.116v5.371h2.058v-5.852c0-2.158-1.179-3.387-3.121-3.387-1.353 0-2.324.614-2.756 1.635h-.149v-4.98h-2.026zm16.703.149c1.187 0 2.183-.514 2.69-1.394h.141v1.245h1.984v-6.201c0-1.917-1.312-3.046-3.644-3.046-2.158 0-3.661 1.013-3.827 2.598h1.942c.191-.622.839-.963 1.785-.963 1.112 0 1.71.507 1.71 1.411v.781l-2.341.141c-2.208.124-3.445 1.079-3.445 2.706 0 1.66 1.254 2.722 3.005 2.722zm.606-1.585c-.913 0-1.569-.457-1.569-1.237 0-.755.54-1.179 1.694-1.253l2.05-.141v.738c0 1.079-.93 1.893-2.175 1.893zm6.945 1.436h2.05v-7.413h1.951v-1.602h-1.976v-.838c0-.863.382-1.295 1.353-1.295.291 0 .54.025.706.05v-1.486c-.332-.058-.706-.083-1.146-.083-2.017 0-2.938.888-2.938 2.698v.954h-1.486v1.602h1.486zm6.289-11.297v2.282h-1.436v1.602h1.436v5.006c0 1.751.83 2.449 2.913 2.449.399 0 .78-.034 1.079-.092v-1.577c-.249.025-.407.042-.697.042-.863 0-1.245-.407-1.245-1.312v-4.516h1.942v-1.602h-1.942v-2.282zm11.476 8.815c-.299.681-1.004 1.063-2.025 1.063-1.353 0-2.225-.963-2.275-2.499v-.108h6.342v-.656c0-2.847-1.552-4.565-4.142-4.565-2.631 0-4.266 1.834-4.266 4.748 0 2.905 1.61 4.682 4.283 4.682 2.141 0 3.66-1.03 4.034-2.665zm-2.108-5.163c1.237 0 2.05.872 2.092 2.249h-4.275c.091-1.361.954-2.249 2.183-2.249zm5.807 7.645h2.059v-5.271c0-1.278.929-2.108 2.266-2.108.348 0 .896.058 1.054.116v-1.876c-.191-.05-.556-.083-.855-.083-1.17 0-2.15.664-2.399 1.56h-.141v-1.411h-1.984zm14.703.183c2.714 0 4.366-1.777 4.366-4.724 0-2.93-1.66-4.706-4.366-4.706-2.698 0-4.367 1.785-4.367 4.706 0 2.947 1.644 4.724 4.367 4.724zm0-1.685c-1.436 0-2.258-1.113-2.258-3.03 0-1.918.822-3.03 2.258-3.03 1.427 0 2.249 1.112 2.249 3.03 0 1.917-.813 3.03-2.249 3.03zm6.695 1.502h2.05v-7.413h1.951v-1.602h-1.976v-.838c0-.863.382-1.295 1.353-1.295.291 0 .54.025.706.05v-1.486c-.332-.058-.706-.083-1.145-.083-2.018 0-2.939.888-2.939 2.698v.954h-1.486v1.602h1.486zm6.297 0h2.05v-7.413h1.951v-1.602h-1.976v-.838c0-.863.382-1.295 1.354-1.295.29 0 .539.025.705.05v-1.486c-.332-.058-.705-.083-1.145-.083-2.018 0-2.939.888-2.939 2.698v.954h-1.486v1.602h1.486zm11.17-2.482c-.299.681-1.005 1.063-2.026 1.063-1.353 0-2.224-.963-2.274-2.499v-.108h6.342v-.656c0-2.847-1.553-4.565-4.142-4.565-2.632 0-4.267 1.834-4.267 4.748 0 2.905 1.61 4.682 4.283 4.682 2.142 0 3.661-1.03 4.034-2.665zm-2.109-5.163c1.237 0 2.051.872 2.092 2.249h-4.275c.091-1.361.955-2.249 2.183-2.249zm5.808 7.645h2.058v-5.271c0-1.278.93-2.108 2.266-2.108.349 0 .897.058 1.054.116v-1.876c-.19-.05-.556-.083-.855-.083-1.17 0-2.149.664-2.398 1.56h-.142v-1.411h-1.983zm15.731-9.222c-1.245 0-2.299.622-2.822 1.652h-.141v-1.503h-1.984v12.086h2.059v-4.391h.141c.465.963 1.469 1.527 2.772 1.527 2.291 0 3.719-1.801 3.719-4.681 0-2.906-1.444-4.69-3.744-4.69zm-.647 7.661c-1.403 0-2.275-1.137-2.283-2.971.008-1.835.888-2.972 2.291-2.972 1.411 0 2.266 1.112 2.266 2.972 0 1.859-.846 2.971-2.274 2.971zm11.966-.921c-.298.681-1.004 1.063-2.025 1.063-1.353 0-2.225-.963-2.274-2.499v-.108h6.341v-.656c0-2.847-1.552-4.565-4.142-4.565-2.631 0-4.266 1.834-4.266 4.748 0 2.905 1.61 4.682 4.283 4.682 2.141 0 3.66-1.03 4.034-2.665zm-2.108-5.163c1.237 0 2.05.872 2.092 2.249h-4.275c.091-1.361.954-2.249 2.183-2.249zm5.807 7.645h2.059v-5.271c0-1.278.93-2.108 2.266-2.108.349 0 .896.058 1.054.116v-1.876c-.191-.05-.556-.083-.855-.083-1.17 0-2.15.664-2.399 1.56h-.141v-1.411h-1.984zm7.708-10.592c.681 0 1.237-.539 1.237-1.22 0-.672-.556-1.22-1.237-1.22-.672 0-1.228.548-1.228 1.22 0 .681.556 1.22 1.228 1.22zm-1.021 10.592h2.051v-9.073h-2.051zm8.115.183c2.715 0 4.367-1.777 4.367-4.724 0-2.93-1.661-4.706-4.367-4.706-2.697 0-4.366 1.785-4.366 4.706 0 2.947 1.644 4.724 4.366 4.724zm0-1.685c-1.436 0-2.258-1.113-2.258-3.03 0-1.918.822-3.03 2.258-3.03 1.428 0 2.25 1.112 2.25 3.03 0 1.917-.814 3.03-2.25 3.03zm9.319 1.651c1.262 0 2.307-.589 2.822-1.585h.141v1.436h1.992v-12.584h-2.058v4.956h-.141c-.482-.997-1.511-1.594-2.756-1.594-2.291 0-3.736 1.809-3.736 4.681 0 2.881 1.436 4.69 3.736 4.69zm.639-7.653c1.411 0 2.283 1.137 2.283 2.972 0 1.843-.864 2.971-2.283 2.971-1.411 0-2.266-1.112-2.266-2.971 0-1.851.863-2.972 2.266-2.972z" fill="#1e429f"/><path d="m34.5708 187v-9.16h-1.4219v9.16zm2.0592 0h1.3647v-4.043c0-1.111.6411-1.797 1.6504-1.797s1.4917.559 1.4917 1.701v4.139h1.3647v-4.462c0-1.644-.8505-2.565-2.393-2.565-1.041 0-1.7266.464-2.063 1.225h-.1016v-1.092h-1.3139zm10.2413.114c.9521 0 1.7583-.45 2.1708-1.206h.108v1.092h1.3076v-9.598h-1.3648v3.796h-.1015c-.3745-.755-1.1743-1.212-2.1201-1.212-1.7457 0-2.8692 1.39-2.8692 3.561 0 2.183 1.1108 3.567 2.8692 3.567zm.3872-5.96c1.1425 0 1.8598.927 1.8598 2.399 0 1.486-.7109 2.393-1.8598 2.393-1.1553 0-1.8472-.895-1.8472-2.393 0-1.491.6982-2.399 1.8472-2.399zm5.8741-2.279c.476 0 .8632-.387.8632-.857 0-.476-.3872-.863-.8632-.863-.4761 0-.8633.387-.8633.863 0 .47.3872.857.8633.857zm-.6792 8.125h1.3584v-6.894h-1.3584zm9.1368-6.894h-1.4473l-1.7139 5.498h-.1079l-1.7202-5.498h-1.46l2.4947 6.894h1.4663zm2.0083-1.231c.4761 0 .8633-.387.8633-.857 0-.476-.3872-.863-.8633-.863-.476 0-.8632.387-.8632.863 0 .47.3872.857.8632.857zm-.6792 8.125h1.3584v-6.894h-1.3584zm5.8107.114c.9521 0 1.7583-.45 2.1709-1.206h.1079v1.092h1.3076v-9.598h-1.3648v3.796h-.1015c-.3745-.755-1.1743-1.212-2.1201-1.212-1.7456 0-2.8692 1.39-2.8692 3.561 0 2.183 1.1109 3.567 2.8692 3.567zm.3872-5.96c1.1425 0 1.8598.927 1.8598 2.399 0 1.486-.7109 2.393-1.8598 2.393-1.1553 0-1.8472-.895-1.8472-2.393 0-1.491.6982-2.399 1.8472-2.399zm10.9966-1.048h-1.3647v4.044c0 1.111-.603 1.784-1.7075 1.784-1.003 0-1.4537-.546-1.4537-1.689v-4.139h-1.3647v4.476c0 1.618.8506 2.551 2.3804 2.551 1.0473 0 1.7519-.444 2.0884-1.225h.1079v1.092h1.3139zm3.8111 7.008c.9078 0 1.6631-.393 2.0757-1.092h.1079v.978h1.314v-4.716c0-1.448-.9775-2.311-2.7104-2.311-1.5679 0-2.6851.756-2.8248 1.917h1.3204c.1523-.501.6792-.787 1.4409-.787.9331 0 1.4155.425 1.4155 1.181v.603l-1.8726.114c-1.644.102-2.5708.819-2.5708 2.057 0 1.256.9712 2.056 2.3042 2.056zm.3492-1.098c-.7427 0-1.2823-.374-1.2823-1.016 0-.628.4317-.964 1.3838-1.028l1.6885-.114v.597c0 .888-.7617 1.561-1.79 1.561zm5.0743.984h1.3647v-9.598h-1.3647zm10.3961-7.014c-.9394 0-1.7519.476-2.1709 1.263h-.1016v-1.143h-1.3139v9.192h1.3647v-3.339h.1079c.3619.73 1.1426 1.155 2.1265 1.155 1.7458 0 2.8568-1.384 2.8568-3.561 0-2.19-1.111-3.567-2.8695-3.567zm-.3872 5.96c-1.1426 0-1.8599-.92-1.8599-2.393 0-1.479.7173-2.399 1.8663-2.399 1.1553 0 1.8473.901 1.8473 2.399s-.692 2.393-1.8537 2.393zm4.8837 1.054h1.365v-9.598h-1.365zm5.246.114c.908 0 1.663-.393 2.076-1.092h.107v.978h1.314v-4.716c0-1.448-.977-2.311-2.71-2.311-1.568 0-2.685.756-2.825 1.917h1.321c.152-.501.679-.787 1.44-.787.934 0 1.416.425 1.416 1.181v.603l-1.873.114c-1.644.102-2.57.819-2.57 2.057 0 1.256.971 2.056 2.304 2.056zm.349-1.098c-.743 0-1.282-.374-1.282-1.016 0-.628.431-.964 1.384-1.028l1.688-.114v.597c0 .888-.762 1.561-1.79 1.561zm5.011.984h1.365v-4.043c0-1.111.641-1.797 1.65-1.797s1.492.559 1.492 1.701v4.139h1.364v-4.462c0-1.644-.85-2.565-2.393-2.565-1.041 0-1.726.464-2.063 1.225h-.101v-1.092h-1.314zm16.699-3.06v-1.263h-6.5v1.263zm6.581 3.06h1.422v-9.16h-1.415l-2.412 1.714v1.397l2.297-1.644h.108zm9.394.114c.907 0 1.663-.393 2.075-1.092h.108v.978h1.314v-4.716c0-1.448-.977-2.311-2.71-2.311-1.568 0-2.685.756-2.825 1.917h1.32c.153-.501.68-.787 1.441-.787.933 0 1.416.425 1.416 1.181v.603l-1.873.114c-1.644.102-2.571.819-2.571 2.057 0 1.256.972 2.056 2.305 2.056zm.349-1.098c-.743 0-1.282-.374-1.282-1.016 0-.628.431-.964 1.383-1.028l1.689-.114v.597c0 .888-.762 1.561-1.79 1.561zm10.863-3.694c-.178-1.34-1.225-2.349-2.958-2.349-2.012 0-3.237 1.365-3.237 3.555 0 2.234 1.231 3.605 3.243 3.605 1.708 0 2.774-.958 2.952-2.317h-1.327c-.177.749-.768 1.156-1.631 1.156-1.136 0-1.841-.921-1.841-2.444 0-1.492.698-2.393 1.841-2.393.914 0 1.473.514 1.631 1.187zm7.334 0c-.178-1.34-1.225-2.349-2.958-2.349-2.012 0-3.237 1.365-3.237 3.555 0 2.234 1.231 3.605 3.243 3.605 1.708 0 2.774-.958 2.952-2.317h-1.327c-.177.749-.768 1.156-1.631 1.156-1.136 0-1.841-.921-1.841-2.444 0-1.492.699-2.393 1.841-2.393.914 0 1.473.514 1.631 1.187zm4.402 4.811c2.018 0 3.256-1.352 3.256-3.58s-1.244-3.58-3.256-3.58c-2.019 0-3.263 1.359-3.263 3.58 0 2.228 1.238 3.58 3.263 3.58zm0-1.161c-1.187 0-1.854-.883-1.854-2.419s.667-2.425 1.854-2.425c1.18 0 1.853.889 1.853 2.425 0 1.53-.673 2.419-1.853 2.419zm10.647-5.866h-1.365v4.044c0 1.111-.603 1.784-1.707 1.784-1.003 0-1.454-.546-1.454-1.689v-4.139h-1.364v4.476c0 1.618.85 2.551 2.38 2.551 1.047 0 1.752-.444 2.088-1.225h.108v1.092h1.314zm1.901 6.894h1.364v-4.043c0-1.111.641-1.797 1.651-1.797 1.009 0 1.491.559 1.491 1.701v4.139h1.365v-4.462c0-1.644-.85-2.565-2.393-2.565-1.041 0-1.726.464-2.063 1.225h-.101v-1.092h-1.314zm8.197-8.633v1.758h-1.098v1.092h1.098v3.968c0 1.326.603 1.859 2.12 1.859.267 0 .521-.031.743-.069v-1.086c-.191.019-.311.032-.521.032-.679 0-.977-.324-.977-1.067v-3.637h1.498v-1.092h-1.498v-1.758z" fill="#64748b"/><path d="m201.969 252v-6.88h2.498v-.87h-5.962v.87h2.497v6.88zm6.704-1.499c-.242.511-.747.785-1.494.785-.983 0-1.622-.725-1.67-1.869v-.043h4.163v-.355c0-1.799-.951-2.911-2.514-2.911-1.59 0-2.61 1.182-2.61 3.002 0 1.832 1.004 2.992 2.61 2.992 1.267 0 2.17-.612 2.438-1.601zm-1.526-3.577c.919 0 1.531.677 1.552 1.703h-3.19c.07-1.026.714-1.703 1.638-1.703zm4.045 5.076h.924v-3.588c0-.816.639-1.407 1.52-1.407.182 0 .515.032.59.054v-.924c-.118-.016-.311-.027-.461-.027-.769 0-1.435.397-1.606.961h-.086v-.859h-.881zm4.367 0h.923v-3.588c0-.816.586-1.472 1.343-1.472.731 0 1.209.441 1.209 1.128v3.932h.924v-3.722c0-.736.537-1.338 1.342-1.338.817 0 1.22.419 1.22 1.273v3.787h.923v-4.001c0-1.214-.66-1.891-1.842-1.891-.8 0-1.461.403-1.772 1.015h-.086c-.269-.602-.817-1.015-1.601-1.015-.773 0-1.353.371-1.617 1.015h-.086v-.913h-.88zm9.507-4.206c0 .838.494 1.306 1.579 1.569l.993.241c.618.151.919.419.919.817 0 .532-.559.902-1.338.902-.741 0-1.203-.311-1.358-.8h-.951c.102.961.988 1.579 2.277 1.579 1.316 0 2.321-.714 2.321-1.751 0-.832-.527-1.305-1.617-1.568l-.892-.215c-.682-.167-1.004-.414-1.004-.811 0-.516.537-.865 1.224-.865.699 0 1.15.306 1.273.768h.913c-.123-.951-.966-1.552-2.18-1.552-1.23 0-2.159.725-2.159 1.686zm10.748 4.308c.773 0 1.407-.338 1.783-.956h.086v.854h.881v-3.964c0-1.203-.79-1.928-2.203-1.928-1.235 0-2.148.612-2.272 1.541h.935c.129-.456.612-.719 1.305-.719.865 0 1.311.392 1.311 1.106v.526l-1.671.103c-1.348.08-2.111.676-2.111 1.713 0 1.058.833 1.724 1.956 1.724zm.171-.811c-.671 0-1.17-.344-1.17-.935 0-.58.386-.886 1.267-.945l1.558-.102v.532c0 .827-.704 1.45-1.655 1.45zm4.357.709h.923v-3.427c0-1.015.597-1.633 1.52-1.633.924 0 1.365.495 1.365 1.537v3.523h.923v-3.749c0-1.375-.725-2.143-2.024-2.143-.887 0-1.451.376-1.741 1.015h-.086v-.913h-.88zm8.636.102c.801 0 1.488-.381 1.853-1.026h.086v.924h.881v-8.089h-.924v3.212h-.08c-.328-.634-1.01-1.015-1.816-1.015-1.471 0-2.433 1.182-2.433 2.997 0 1.821.951 2.997 2.433 2.997zm.215-5.162c1.048 0 1.703.838 1.703 2.165 0 1.337-.65 2.165-1.703 2.165-1.058 0-1.692-.812-1.692-2.165 0-1.348.64-2.165 1.692-2.165zm12.435 1.042c-.161-1.031-1.021-1.874-2.428-1.874-1.622 0-2.653 1.171-2.653 2.975 0 1.843 1.036 3.019 2.658 3.019 1.391 0 2.256-.784 2.423-1.848h-.935c-.172.656-.714 1.016-1.493 1.016-1.031 0-1.697-.849-1.697-2.187 0-1.31.655-2.143 1.697-2.143.833 0 1.343.468 1.493 1.042zm3.813 4.12c1.649 0 2.67-1.139 2.67-2.997 0-1.864-1.021-2.997-2.67-2.997s-2.669 1.133-2.669 2.997c0 1.858 1.02 2.997 2.669 2.997zm0-.832c-1.095 0-1.713-.795-1.713-2.165 0-1.375.618-2.165 1.713-2.165 1.096 0 1.714.79 1.714 2.165 0 1.37-.618 2.165-1.714 2.165zm4.19.73h.924v-3.427c0-1.015.596-1.633 1.52-1.633s1.364.495 1.364 1.537v3.523h.924v-3.749c0-1.375-.725-2.143-2.025-2.143-.886 0-1.45.376-1.74 1.015h-.086v-.913h-.881zm8.637.102c.8 0 1.488-.381 1.853-1.026h.086v.924h.881v-8.089h-.924v3.212h-.081c-.327-.634-1.009-1.015-1.815-1.015-1.472 0-2.433 1.182-2.433 2.997 0 1.821.95 2.997 2.433 2.997zm.215-5.162c1.047 0 1.702.838 1.702 2.165 0 1.337-.65 2.165-1.702 2.165-1.058 0-1.692-.812-1.692-2.165 0-1.348.639-2.165 1.692-2.165zm4.952-1.847c.355 0 .645-.29.645-.645 0-.354-.29-.644-.645-.644-.354 0-.644.29-.644.644 0 .355.29.645.644.645zm-.462 6.907h.924v-5.79h-.924zm3.142-7.289v1.499h-.934v.773h.934v3.513c0 1.107.478 1.547 1.671 1.547.182 0 .36-.022.542-.054v-.779c-.172.017-.263.022-.429.022-.602 0-.86-.29-.86-.972v-3.277h1.289v-.773h-1.289v-1.499zm4.163.382c.355 0 .645-.29.645-.645 0-.354-.29-.644-.645-.644-.354 0-.644.29-.644.644 0 .355.29.645.644.645zm-.462 6.907h.924v-5.79h-.924zm5.135.102c1.649 0 2.67-1.139 2.67-2.997 0-1.864-1.021-2.997-2.67-2.997s-2.669 1.133-2.669 2.997c0 1.858 1.02 2.997 2.669 2.997zm0-.832c-1.095 0-1.713-.795-1.713-2.165 0-1.375.618-2.165 1.713-2.165 1.096 0 1.714.79 1.714 2.165 0 1.37-.618 2.165-1.714 2.165zm4.19.73h.924v-3.427c0-1.015.596-1.633 1.52-1.633s1.364.495 1.364 1.537v3.523h.924v-3.749c0-1.375-.725-2.143-2.025-2.143-.886 0-1.45.376-1.74 1.015h-.086v-.913h-.881zm6.359-4.206c0 .838.495 1.306 1.58 1.569l.993.241c.618.151.919.419.919.817 0 .532-.559.902-1.338.902-.741 0-1.203-.311-1.359-.8h-.95c.102.961.988 1.579 2.277 1.579 1.316 0 2.32-.714 2.32-1.751 0-.832-.526-1.305-1.616-1.568l-.892-.215c-.682-.167-1.004-.414-1.004-.811 0-.516.537-.865 1.224-.865.698 0 1.15.306 1.273.768h.913c-.123-.951-.967-1.552-2.18-1.552-1.23 0-2.16.725-2.16 1.686zm10.748 4.308c.774 0 1.408-.338 1.784-.956h.085v.854h.881v-3.964c0-1.203-.789-1.928-2.202-1.928-1.235 0-2.148.612-2.272 1.541h.935c.129-.456.612-.719 1.305-.719.865 0 1.31.392 1.31 1.106v.526l-1.67.103c-1.348.08-2.111.676-2.111 1.713 0 1.058.833 1.724 1.955 1.724zm.172-.811c-.671 0-1.171-.344-1.171-.935 0-.58.387-.886 1.268-.945l1.557-.102v.532c0 .827-.703 1.45-1.654 1.45zm7.176-5.183c-.789 0-1.482.403-1.853 1.069h-.086v-.967h-.881v7.724h.924v-2.804h.086c.317.612.983.972 1.81.972 1.472 0 2.433-1.187 2.433-2.997 0-1.821-.956-2.997-2.433-2.997zm-.22 5.162c-1.042 0-1.703-.838-1.703-2.165 0-1.332.661-2.165 1.708-2.165 1.058 0 1.692.811 1.692 2.165 0 1.353-.634 2.165-1.697 2.165zm6.993-5.162c-.789 0-1.482.403-1.853 1.069h-.086v-.967h-.881v7.724h.924v-2.804h.086c.317.612.983.972 1.81.972 1.472 0 2.433-1.187 2.433-2.997 0-1.821-.956-2.997-2.433-2.997zm-.22 5.162c-1.042 0-1.703-.838-1.703-2.165 0-1.332.661-2.165 1.708-2.165 1.059 0 1.692.811 1.692 2.165 0 1.353-.633 2.165-1.697 2.165zm4.227.73h.924v-8.089h-.924zm3.282 2.095c1.026 0 1.488-.398 1.982-1.741l2.261-6.144h-.983l-1.584 4.764h-.086l-1.59-4.764h-.999l2.143 5.795-.107.344c-.242.698-.532.951-1.064.951-.129 0-.274-.006-.386-.027v.789c.129.022.29.033.413.033z" fill="#6b7280"/><path d="m198 253.987h144.267v.645h-144.267z" fill="#6b7280"/><rect fill="#31c48d" height="22" rx="11" width="102" x="32" y="233"/><path d="m46.6533 244.6h.9829c.8701 0 1.4073.441 1.4073 1.15 0 .682-.5747 1.144-1.3965 1.144-.8325 0-1.3911-.425-1.4395-1.096h-1.5522c.0698 1.45 1.2622 2.401 3.0132 2.401 1.7509 0 3.0293-.962 3.0293-2.315 0-1.042-.6553-1.73-1.7349-1.891v-.097c.8325-.209 1.4233-.821 1.4287-1.761.0054-1.134-.9507-2.084-2.6694-2.084-1.7456 0-2.8467.961-2.9004 2.374h1.4985c.0537-.715.5371-1.123 1.3213-1.123.7573 0 1.2139.457 1.2139 1.053 0 .645-.4995 1.09-1.2354 1.09h-.9668zm8.4652 3.4h1.563v-3.566c0-.677.4351-1.171 1.0474-1.171s.9775.365.9775.999v3.738h1.5039v-3.636c0-.639.4082-1.101 1.042-1.101.6606 0 .9883.354.9883 1.069v3.668h1.563v-4.061c0-1.219-.7359-1.981-1.9175-1.981-.8272 0-1.5093.435-1.7832 1.09h-.0967c-.2363-.677-.8057-1.09-1.6382-1.09-.7788 0-1.3965.413-1.6382 1.09h-.0966v-.962h-1.5147zm12.9016.124c1.8208 0 2.9165-1.15 2.9165-3.083 0-1.918-1.1119-3.083-2.9165-3.083-1.8047 0-2.9165 1.17-2.9165 3.083 0 1.928 1.0957 3.083 2.9165 3.083zm0-1.236c-.8379 0-1.3106-.677-1.3106-1.847 0-1.161.478-1.843 1.3106-1.843.8271 0 1.3105.682 1.3105 1.843 0 1.17-.478 1.847-1.3105 1.847zm4.2648 1.112h1.563v-3.421c0-.801.4458-1.316 1.1709-1.316.7412 0 1.0903.435 1.0903 1.267v3.47h1.563v-3.824c0-1.413-.709-2.218-2.0249-2.218-.8755 0-1.4771.413-1.751 1.079h-.0967v-.951h-1.5146zm7.423-7.326v1.466h-.9238v1.187h.9238v3.078c0 1.149.5693 1.616 2.0088 1.616.3008 0 .5908-.032.7842-.069v-1.155c-.1504.016-.2578.027-.4619.027-.5318 0-.7681-.247-.7681-.779v-2.718h1.23v-1.187h-1.23v-1.466zm4.2219 7.326h1.563v-3.405c0-.784.4511-1.316 1.2353-1.316.709 0 1.0903.429 1.0903 1.267v3.454h1.563v-3.808c0-1.418-.7573-2.218-2.0302-2.218-.8702 0-1.5147.408-1.7886 1.079h-.0967v-3.228h-1.5361zm6.9074-4.189c0 .907.5586 1.45 1.708 1.702l1.0742.242c.521.118.7466.301.7466.601 0 .393-.419.661-1.0259.661-.623 0-1.0044-.242-1.1226-.65h-1.5253c.1074 1.117 1.0527 1.757 2.6157 1.757 1.5522 0 2.6103-.763 2.6103-1.934 0-.881-.5156-1.364-1.665-1.617l-1.1118-.241c-.5479-.124-.8003-.312-.8003-.613 0-.386.4136-.65.9721-.65.5801 0 .94.242 1.0206.634h1.4448c-.086-1.117-.9722-1.745-2.4761-1.745-1.477 0-2.4653.746-2.4653 1.853zm9.7968 4.189h1.563v-4.673h1.225v-1.187h-1.257v-.499c0-.516.226-.768.838-.768.204 0 .365.016.467.032v-1.08c-.225-.032-.488-.059-.805-.059-1.429 0-2.031.591-2.031 1.767v.607h-.9557v1.187h.9557zm4.104 0h1.563v-3.309c0-.832.586-1.342 1.44-1.342.252 0 .617.043.741.086v-1.375c-.135-.043-.398-.07-.613-.07-.752 0-1.364.446-1.52 1.036h-.096v-.94h-1.515zm8.551-1.67c-.166.402-.591.628-1.208.628-.817 0-1.332-.564-1.354-1.466v-.081h4.066v-.467c0-1.869-1.031-2.986-2.777-2.986-1.762 0-2.847 1.192-2.847 3.115 0 1.912 1.064 3.051 2.869 3.051 1.45 0 2.476-.693 2.707-1.794zm-1.268-3.207c.731 0 1.204.505 1.236 1.316h-2.525c.054-.795.564-1.316 1.289-1.316zm7.955 3.207c-.166.402-.591.628-1.208.628-.817 0-1.332-.564-1.354-1.466v-.081h4.066v-.467c0-1.869-1.031-2.986-2.777-2.986-1.761 0-2.846 1.192-2.846 3.115 0 1.912 1.063 3.051 2.868 3.051 1.45 0 2.476-.693 2.707-1.794zm-1.267-3.207c.73 0 1.203.505 1.235 1.316h-2.524c.053-.795.564-1.316 1.289-1.316z" fill="#fff"/><circle cx="48" cy="133" fill="#fff" r="24"/><path d="m57.4646 131.184c-5.1575-3.063-13.6647-3.344-18.5881-1.85-.7908.24-1.6269-.206-1.8663-.997-.2398-.791.2061-1.627.9973-1.867 5.652-1.715 15.0472-1.384 20.9846 2.141.7113.422.9446 1.34.5229 2.05-.4218.711-1.341.946-2.0504.523zm-.1689 4.537c-.3617.587-1.1294.771-1.7157.411-4.2999-2.643-10.8567-3.409-15.9437-1.865-.6595.2-1.3563-.172-1.5567-.831-.1987-.66.1732-1.355.8318-1.556 5.8111-1.763 13.0353-.909 17.9739 2.126.5863.361.7709 1.129.4104 1.715zm-1.9578 4.357c-.2874.471-.9014.619-1.3711.332-3.7574-2.297-8.4865-2.816-14.0559-1.543-.5367.123-1.0717-.214-1.194-.75-.123-.537.2121-1.072.7499-1.194 6.0949-1.393 11.3231-.794 15.5404 1.783.4702.287.6182.902.3307 1.372zm-7.3379-23.078c-8.8364 0-16 7.163-16 16s7.1636 16 16 16c8.8369 0 16.0002-7.163 16.0002-16s-7.1633-16-16.0002-16z" fill="#1ed760"/><path d="m80.916 137.49c.1641 3.61 3.1856 5.838 7.752 5.838 4.7441 0 7.7109-2.379 7.7109-6.152 0-2.926-1.7363-4.594-5.8926-5.455l-2.1328-.438c-2.4609-.519-3.4453-1.381-3.4453-2.721 0-1.654 1.5586-2.693 3.7461-2.693 2.2559 0 3.8145 1.121 3.9785 2.981h3.377c-.0821-3.528-2.9668-5.907-7.3282-5.907-4.2793 0-7.3281 2.352-7.3281 5.825 0 2.884 1.8457 4.744 5.7969 5.55l2.1191.438c2.5703.533 3.5547 1.408 3.5547 2.83 0 1.641-1.6543 2.816-4.0332 2.816-2.4609 0-4.2383-1.093-4.498-2.912zm26.054-9.228c-2.105 0-3.746 1.066-4.566 2.748h-.068v-2.502h-3.3226v19.263h3.4046v-7.177h.068c.793 1.627 2.434 2.638 4.539 2.638 3.637 0 5.961-2.857 5.961-7.478 0-4.635-2.338-7.492-6.016-7.492zm-1.039 12.181c-2.119 0-3.527-1.845-3.541-4.689.014-2.816 1.422-4.69 3.541-4.69 2.202 0 3.569 1.832 3.569 4.69 0 2.871-1.367 4.689-3.569 4.689zm15.992 2.844c4.252 0 7.014-2.83 7.014-7.533 0-4.69-2.789-7.547-7.014-7.547-4.224 0-7.013 2.871-7.013 7.547 0 4.703 2.761 7.533 7.013 7.533zm0-2.693c-2.16 0-3.554-1.75-3.554-4.84 0-3.076 1.408-4.84 3.554-4.84 2.16 0 3.555 1.764 3.555 4.84 0 3.09-1.395 4.84-3.555 4.84zm10.483-15.477v3.391h-2.079v2.625h2.079v8.012c0 2.816 1.23 3.923 4.361 3.923.724 0 1.394-.054 1.764-.136v-2.598c-.219.041-.657.068-.971.068-1.203 0-1.75-.547-1.75-1.736v-7.533h2.734v-2.625h-2.734v-3.391zm10.577 1.203c1.039 0 1.86-.834 1.86-1.845 0-1.026-.821-1.846-1.86-1.846s-1.873.82-1.873 1.846c0 1.011.834 1.845 1.873 1.845zm-1.695 16.68h3.404v-14.492h-3.404zm7.543 0h3.404v-11.867h2.844v-2.584h-2.899v-1.19c0-1.175.588-1.791 1.887-1.791.397 0 .793.041 1.08.082v-2.379c-.424-.082-1.162-.15-1.832-.15-3.144 0-4.484 1.326-4.484 4.143v1.285h-1.983v2.584h1.983zm10.455 5.387c3.308 0 4.908-1.217 6.138-4.813l5.25-15.066h-3.582l-3.418 11.594h-.068l-3.404-11.594h-3.719l5.154 14.506c.014.041-.205.765-.205.806-.369 1.34-1.094 1.873-2.502 1.873-.205 0-.806-.013-.984-.054v2.693c.178.041 1.135.055 1.34.055z" fill="#475569"/><path d="m89.1865 497h1.4219v-9.16h-1.4155l-2.4121 1.714v1.397l2.2978-1.644h.1079zm4.3951 0h1.4917l3.9863-7.928v-1.232h-6.2397v1.2h4.7988v.102zm7.0104 1.955 3.294-11.553h-1.206l-3.2878 11.553zm7.486-1.733c2.133 0 3.377-1.758 3.377-4.792 0-3.041-1.263-4.812-3.377-4.812-2.126 0-3.389 1.771-3.389 4.793 0 3.047 1.25 4.811 3.389 4.811zm0-1.18c-1.244 0-1.955-1.27-1.955-3.631 0-2.33.724-3.606 1.955-3.606 1.232 0 1.943 1.263 1.943 3.606 0 2.367-.698 3.631-1.943 3.631zm8.325 1.18c1.942 0 3.256-1.301 3.256-3.205 0-1.829-1.27-3.022-2.818-3.022-.927 0-1.606.298-2.025.863h-.108l.266-2.812h4.209v-1.206h-5.313l-.514 5.288h1.301c.336-.635.978-1.016 1.79-1.016 1.079 0 1.822.775 1.822 1.93 0 1.193-.749 1.993-1.86 1.993-.997 0-1.739-.603-1.841-1.517h-1.358c.089 1.593 1.371 2.704 3.193 2.704zm5.226 1.733 3.295-11.553h-1.206l-3.288 11.553zm4.173-8.461h1.346c0-1.016.679-1.702 1.714-1.702 1.015 0 1.618.68 1.618 1.568 0 .743-.304 1.2-1.466 2.412l-3.136 3.263v.965h6.17v-1.212h-4.227v-.108l2.018-2.032c1.606-1.612 2.07-2.367 2.07-3.427 0-1.505-1.238-2.603-2.958-2.603-1.848 0-3.149 1.194-3.149 2.876zm11.27 6.728c2.133 0 3.377-1.758 3.377-4.792 0-3.041-1.263-4.812-3.377-4.812-2.127 0-3.39 1.771-3.39 4.793 0 3.047 1.251 4.811 3.39 4.811zm0-1.18c-1.244 0-1.955-1.27-1.955-3.631 0-2.33.723-3.606 1.955-3.606 1.231 0 1.942 1.263 1.942 3.606 0 2.367-.698 3.631-1.942 3.631zm5.049-5.548h1.345c0-1.016.68-1.702 1.714-1.702 1.016 0 1.619.68 1.619 1.568 0 .743-.305 1.2-1.466 2.412l-3.136 3.263v.965h6.17v-1.212h-4.228v-.108l2.019-2.032c1.606-1.612 2.069-2.367 2.069-3.427 0-1.505-1.238-2.603-2.958-2.603-1.847 0-3.148 1.194-3.148 2.876zm11.269 6.728c2.133 0 3.377-1.758 3.377-4.792 0-3.041-1.263-4.812-3.377-4.812-2.126 0-3.389 1.771-3.389 4.793 0 3.047 1.25 4.811 3.389 4.811zm0-1.18c-1.244 0-1.955-1.27-1.955-3.631 0-2.33.724-3.606 1.955-3.606 1.232 0 1.943 1.263 1.943 3.606 0 2.367-.699 3.631-1.943 3.631z" fill="#64748b"/><path d="m162.215 421.423c0 2.355.718 4.412 2.063 5.897h1.784c-1.371-2.075-1.923-3.751-1.923-5.897 0-2.152.552-3.834 1.923-5.909h-1.784c-1.345 1.485-2.063 3.548-2.063 5.909zm13.25 2.876h-4.329v-.127c.66-.349 1.054-1.067 1.01-1.803 0-.14-.026-.26-.07-.374h2.183v-1.403h-2.558c-.158-.394-.26-.698-.26-1.13 0-.781.705-1.263 1.841-1.263.635 0 1.18.057 1.771.197v-1.594c-.565-.139-1.206-.197-2.057-.197-2.177 0-3.466.895-3.466 2.419 0 .565.159 1.06.362 1.568h-1.39v1.403h1.784c.038.101.07.228.07.38-.026 1.08-.769 1.892-1.867 2.051v1.574h6.976zm1.006-4.399c0 1.714 1.181 2.945 2.806 2.945.571 0 1.123-.209 1.459-.558l.127.019c-.069.152-.171.304-.419.641l-2.297 3.047h2.031c.241-.292 1.631-2.089 1.93-2.539.926-1.308 1.314-2.336 1.314-3.434 0-2.006-1.422-3.371-3.498-3.371-1.968 0-3.453 1.396-3.453 3.25zm3.485-1.72c.971 0 1.695.704 1.695 1.656 0 .953-.724 1.664-1.695 1.664s-1.695-.711-1.695-1.664c0-.952.724-1.656 1.695-1.656zm7.93 7.941c.769 0 1.397-.648 1.397-1.429 0-.787-.628-1.434-1.397-1.434-.768 0-1.396.647-1.396 1.434 0 .781.628 1.429 1.396 1.429zm4.497-6.221c0 1.714 1.181 2.945 2.806 2.945.571 0 1.123-.209 1.46-.558l.127.019c-.07.152-.172.304-.419.641l-2.298 3.047h2.031c.241-.292 1.632-2.089 1.93-2.539.927-1.308 1.314-2.336 1.314-3.434 0-2.006-1.422-3.371-3.498-3.371-1.968 0-3.453 1.396-3.453 3.25zm3.485-1.72c.971 0 1.695.704 1.695 1.656 0 .953-.724 1.664-1.695 1.664s-1.695-.711-1.695-1.664c0-.952.724-1.656 1.695-1.656zm4.471 1.72c0 1.714 1.181 2.945 2.806 2.945.571 0 1.123-.209 1.46-.558l.127.019c-.07.152-.172.304-.419.641l-2.298 3.047h2.031c.241-.292 1.632-2.089 1.93-2.539.927-1.308 1.314-2.336 1.314-3.434 0-2.006-1.422-3.371-3.498-3.371-1.967 0-3.453 1.396-3.453 3.25zm3.485-1.72c.971 0 1.695.704 1.695 1.656 0 .953-.724 1.664-1.695 1.664s-1.695-.711-1.695-1.664c0-.952.724-1.656 1.695-1.656zm9.734 3.243c0-2.361-.718-4.424-2.063-5.909h-1.784c1.371 2.075 1.923 3.757 1.923 5.909 0 2.146-.552 3.822-1.923 5.897h1.784c1.345-1.485 2.063-3.542 2.063-5.897z" fill="#98a6ba"/><path d="m221.187 497h1.421v-9.16h-1.415l-2.412 1.714v1.397l2.298-1.644h.108zm4.395 0h1.491l3.987-7.928v-1.232h-6.24v1.2h4.799v.102zm7.01 1.955 3.294-11.553h-1.206l-3.288 11.553zm7.486-1.733c2.133 0 3.377-1.758 3.377-4.792 0-3.041-1.263-4.812-3.377-4.812-2.126 0-3.389 1.771-3.389 4.793 0 3.047 1.25 4.811 3.389 4.811zm0-1.18c-1.244 0-1.955-1.27-1.955-3.631 0-2.33.724-3.606 1.955-3.606 1.232 0 1.943 1.263 1.943 3.606 0 2.367-.698 3.631-1.943 3.631zm8.509 1.174c1.942 0 3.32-1.327 3.32-3.187 0-1.764-1.27-3.053-3.009-3.053-1.086 0-1.968.508-2.406 1.39h-.108c.025-2.323.863-3.548 2.292-3.548.863 0 1.491.444 1.669 1.219h1.428c-.228-1.454-1.409-2.419-3.129-2.419-2.228 0-3.625 1.816-3.625 4.926 0 3.117 1.505 4.672 3.568 4.672zm-.013-1.187c-1.092 0-1.923-.863-1.923-1.993 0-1.118.806-1.924 1.936-1.924s1.91.806 1.91 1.955c0 1.111-.831 1.962-1.923 1.962zm5.309 2.926 3.295-11.553h-1.206l-3.289 11.553zm4.173-8.461h1.346c0-1.016.679-1.702 1.714-1.702 1.015 0 1.618.68 1.618 1.568 0 .743-.304 1.2-1.466 2.412l-3.136 3.263v.965h6.17v-1.212h-4.227v-.108l2.018-2.032c1.606-1.612 2.07-2.367 2.07-3.427 0-1.505-1.238-2.603-2.958-2.603-1.848 0-3.149 1.194-3.149 2.876zm11.27 6.728c2.133 0 3.377-1.758 3.377-4.792 0-3.041-1.263-4.812-3.377-4.812-2.127 0-3.39 1.771-3.39 4.793 0 3.047 1.251 4.811 3.39 4.811zm0-1.18c-1.244 0-1.955-1.27-1.955-3.631 0-2.33.723-3.606 1.955-3.606 1.231 0 1.942 1.263 1.942 3.606 0 2.367-.698 3.631-1.942 3.631zm5.049-5.548h1.345c0-1.016.68-1.702 1.714-1.702 1.016 0 1.619.68 1.619 1.568 0 .743-.305 1.2-1.466 2.412l-3.136 3.263v.965h6.17v-1.212h-4.228v-.108l2.019-2.032c1.606-1.612 2.069-2.367 2.069-3.427 0-1.505-1.238-2.603-2.958-2.603-1.847 0-3.148 1.194-3.148 2.876zm11.269 6.728c2.133 0 3.377-1.758 3.377-4.792 0-3.041-1.263-4.812-3.377-4.812-2.126 0-3.389 1.771-3.389 4.793 0 3.047 1.25 4.811 3.389 4.811zm0-1.18c-1.244 0-1.955-1.27-1.955-3.631 0-2.33.724-3.606 1.955-3.606 1.232 0 1.943 1.263 1.943 3.606 0 2.367-.699 3.631-1.943 3.631z" fill="#64748b"/><path d="m254.019 471c36.608-36.604 36.608-95.957 0-132.562-36.581-36.584-95.981-36.584-132.566 0-36.604 36.605-36.604 95.958 0 132.562" stroke="#e2e8f0" stroke-linecap="round" stroke-linejoin="round" stroke-miterlimit="1.5" stroke-width="8"/><path d="m254.019 338.438c-36.581-36.584-95.981-36.584-132.566 0-36.604 36.605-36.604 95.958 0 132.562" stroke="url(#a)" stroke-linecap="round" stroke-linejoin="round" stroke-miterlimit="1.5" stroke-width="8"/><path d="m161.013 404.383h-6.66v-.195c1.015-.538 1.621-1.641 1.552-2.774 0-.215-.039-.4-.107-.576h3.359v-2.158h-3.935c-.244-.606-.401-1.075-.401-1.739 0-1.201 1.084-1.943 2.833-1.943.976 0 1.816.088 2.724.303v-2.451c-.869-.215-1.855-.303-3.164-.303-3.35 0-5.332 1.377-5.332 3.721 0 .869.244 1.63.557 2.412h-2.139v2.158h2.744c.059.156.108.351.108.586-.04 1.66-1.182 2.91-2.872 3.154v2.422h10.733zm3.583 2.617h2.91l5.967-11.768v-2.334h-10.02v2.315h7.227v.166zm16.532.186c1.182 0 2.149-.997 2.149-2.198 0-1.211-.967-2.207-2.149-2.207-1.181 0-2.148.996-2.148 2.207 0 1.201.967 2.198 2.148 2.198zm13.857-.186h2.598v-2.666h1.875v-2.227h-1.914v-3.603h-2.471v3.555h-3.438v-.176l4.141-8.975h-2.803l-4.287 9.199v2.227h6.299zm11.552.283c3.125 0 5.224-2.002 5.224-5.01 0-2.744-1.816-4.648-4.414-4.648-1.318 0-2.382.488-2.988 1.377h-.176l.303-3.76h6.416v-2.334h-8.613l-.664 8.145h2.675c.508-.85 1.28-1.28 2.295-1.28 1.504 0 2.53 1.036 2.53 2.569 0 1.523-1.016 2.549-2.53 2.549-1.308 0-2.295-.762-2.461-1.895h-2.675c.078 2.549 2.129 4.287 5.078 4.287zm18.29-.283v-2.314h-3.604v-11.778h-2.714l-3.809 2.549v2.617l3.633-2.412h.176v9.024h-3.799v2.314z" fill="#1a57db"/><rect fill="#cfd8e3" height="38" rx="16" width="186" x="95" y="560"/><path d="m112.011 576.529v.044h1.662v-.051c0-1.106.74-1.846 1.861-1.846 1.098 0 1.823.659 1.823 1.67 0 .762-.358 1.319-1.757 2.791l-3.494 3.64v1.223h7.148v-1.509h-4.709v-.132l2.234-2.277c1.743-1.766 2.307-2.71 2.307-3.838 0-1.802-1.414-3.025-3.501-3.025-2.102 0-3.574 1.355-3.574 3.31zm12.584 7.683c2.271 0 3.794-1.479 3.794-3.691 0-2.065-1.355-3.501-3.31-3.501-.967 0-1.751.352-2.227.996h-.124l.256-3.076h4.783v-1.509h-6.189l-.513 6.05h1.699c.396-.689 1.055-1.047 1.89-1.047 1.216 0 2.044.857 2.044 2.131 0 1.267-.821 2.117-2.044 2.117-1.084 0-1.904-.652-2.021-1.604h-1.714c.08 1.867 1.567 3.134 3.676 3.134zm18.139-5.691c.82 0 1.494-.688 1.494-1.53 0-.843-.674-1.524-1.494-1.524-.821 0-1.495.681-1.495 1.524 0 .842.674 1.53 1.495 1.53zm0 5.582c.82 0 1.494-.696 1.494-1.531 0-.843-.674-1.524-1.494-1.524-.821 0-1.495.681-1.495 1.524 0 .835.674 1.531 1.495 1.531zm18.072.124c2.439 0 3.808-1.977 3.808-5.515 0-3.53-1.369-5.508-3.808-5.508-2.446 0-3.816 1.978-3.816 5.508 0 3.538 1.37 5.515 3.816 5.515zm-2.08-5.515c0-2.622.725-4.028 2.08-4.028.893 0 1.516.615 1.831 1.801l-3.897 2.857c-.007-.198-.014-.41-.014-.63zm2.08 4.036c-.901 0-1.516-.616-1.831-1.795l3.889-2.864c.007.198.015.411.015.623 0 2.629-.725 4.036-2.073 4.036zm5.187-5.845c0 1.955 1.37 3.376 3.252 3.376.659 0 1.34-.263 1.699-.681l.132.037c-.073.154-.168.293-.432.659l-2.747 3.699h2.007c.198-.235 2.036-2.725 2.278-3.106 1.062-1.509 1.502-2.666 1.502-3.904 0-2.226-1.59-3.772-3.86-3.772-2.205 0-3.831 1.575-3.831 3.692zm3.845-2.183c1.209 0 2.11.908 2.11 2.117 0 1.208-.901 2.117-2.11 2.117-1.201 0-2.102-.909-2.102-2.117 0-1.209.901-2.117 2.102-2.117zm18.058 3.801c.82 0 1.494-.688 1.494-1.53 0-.843-.674-1.524-1.494-1.524s-1.494.681-1.494 1.524c0 .842.674 1.53 1.494 1.53zm0 5.582c.82 0 1.494-.696 1.494-1.531 0-.843-.674-1.524-1.494-1.524s-1.494.681-1.494 1.524c0 .835.674 1.531 1.494 1.531zm16.776-4.849h1.238c1.311 0 2.153.681 2.153 1.743 0 1.04-.82 1.699-2.117 1.699-1.216 0-2.043-.637-2.131-1.633h-1.648c.095 1.912 1.604 3.149 3.823 3.149 2.263 0 3.845-1.281 3.845-3.12 0-1.421-.849-2.373-2.27-2.549v-.124c1.15-.256 1.846-1.172 1.846-2.424 0-1.641-1.414-2.776-3.457-2.776-2.125 0-3.487 1.179-3.589 3.098h1.618c.081-1.018.806-1.648 1.912-1.648s1.831.615 1.831 1.582c0 .974-.747 1.641-1.853 1.641h-1.201zm11.317 4.746h1.641v-2.095h1.494v-1.45h-1.509v-2.827h-1.582v2.812h-2.929v-.117l3.281-6.892h-1.795l-3.361 7.061v1.413h4.76zm17.069-5.479c.821 0 1.494-.688 1.494-1.53 0-.843-.673-1.524-1.494-1.524-.82 0-1.494.681-1.494 1.524 0 .842.674 1.53 1.494 1.53zm0 5.582c.821 0 1.494-.696 1.494-1.531 0-.843-.673-1.524-1.494-1.524-.82 0-1.494.681-1.494 1.524 0 .835.674 1.531 1.494 1.531zm22.123-.103v-1.487h-2.813v-9.082h-1.728l-2.974 1.963v1.721l2.842-1.867h.124v7.265h-2.951v1.487zm9.032 0v-1.487h-2.812v-9.082h-1.729l-2.973 1.963v1.721l2.841-1.867h.125v7.265h-2.952v1.487z" fill="#364152"/><path d="m120.492 553v-4.958h.097l3.577 4.958h1.343v-7.75h-1.552v4.936h-.097l-3.567-4.936h-1.353v7.75zm12.107-1.337h-3.513v-1.961h3.314v-1.246h-3.314v-1.869h3.513v-1.337h-5.135v7.75h5.135zm1.311 1.337h1.751l1.686-2.664h.097l1.665 2.664h1.847l-2.513-3.878 2.551-3.872h-1.815l-1.633 2.744h-.097l-1.617-2.744h-1.906l2.46 3.845zm12.063 0v-6.413h2.326v-1.337h-6.274v1.337h2.326v6.413zm6.736-7.75v7.75h1.622v-2.444h1.531c1.633 0 2.766-1.063 2.766-2.642 0-1.601-1.091-2.664-2.686-2.664zm1.622 1.289h1.182c.934 0 1.466.478 1.466 1.38 0 .881-.543 1.364-1.472 1.364h-1.176zm10.995 5.124h-3.513v-1.961h3.314v-1.246h-3.314v-1.869h3.513v-1.337h-5.135v7.75h5.135zm3.4-1.499h1.327l1.444 2.836h1.837l-1.633-3.078c.892-.349 1.408-1.208 1.408-2.202 0-1.531-1.048-2.47-2.75-2.47h-3.255v7.75h1.622zm0-3.647h1.407c.806 0 1.311.473 1.311 1.225 0 .768-.478 1.214-1.295 1.214h-1.423zm7.708 6.483v-7.75h-1.623v7.75zm5.339-7.949c-2.283 0-3.733 1.557-3.733 4.071 0 2.508 1.428 4.077 3.733 4.077 2.288 0 3.727-1.569 3.727-4.077s-1.445-4.071-3.727-4.071zm0 1.375c1.256 0 2.067 1.047 2.067 2.696 0 1.644-.805 2.702-2.067 2.702-1.279 0-2.074-1.058-2.074-2.702 0-1.649.811-2.696 2.074-2.696zm5.339-1.176v7.75h3.05c2.321 0 3.637-1.418 3.637-3.926 0-2.433-1.332-3.824-3.637-3.824zm1.622 1.337h1.171c1.407 0 2.239.913 2.239 2.514 0 1.659-.805 2.562-2.239 2.562h-1.171zm13.063 6.413c1.654 0 2.68-.854 2.68-2.218 0-.999-.747-1.767-1.773-1.848v-.097c.795-.118 1.402-.832 1.402-1.654 0-1.198-.897-1.933-2.401-1.933h-3.389v7.75zm-1.859-6.547h1.354c.773 0 1.219.376 1.219 1.009 0 .645-.478 1.01-1.354 1.01h-1.219zm0 5.339v-2.251h1.407c.956 0 1.477.387 1.477 1.112 0 .741-.504 1.139-1.439 1.139zm11.21-.129h-3.513v-1.961h3.314v-1.246h-3.314v-1.869h3.513v-1.337h-5.135v7.75h5.135zm8.588-1.81v-.983h-3.255v1.181h1.682l-.006.145c-.032.967-.768 1.617-1.831 1.617-1.279 0-2.084-1.026-2.084-2.712 0-1.655.768-2.67 2.019-2.67.903 0 1.552.462 1.794 1.273h1.612c-.226-1.606-1.574-2.653-3.406-2.653-2.256 0-3.679 1.574-3.679 4.066 0 2.529 1.413 4.082 3.717 4.082 2.116 0 3.437-1.289 3.437-3.346zm3.25 3.147v-7.75h-1.622v7.75zm3.502 0v-4.958h.097l3.577 4.958h1.343v-7.75h-1.552v4.936h-.097l-3.567-4.936h-1.353v7.75zm6.623-2.143c.059 1.434 1.257 2.342 3.104 2.342 1.945 0 3.142-.956 3.142-2.503 0-1.198-.671-1.869-2.229-2.202l-.934-.199c-.908-.199-1.278-.483-1.278-.972 0-.607.537-.999 1.348-.999.784 0 1.353.413 1.428 1.047h1.526c-.049-1.37-1.257-2.32-2.965-2.32-1.789 0-2.965.956-2.965 2.401 0 1.176.693 1.901 2.106 2.202l1.009.22c.951.209 1.338.505 1.338 1.015 0 .602-.596 1.026-1.44 1.026-.913 0-1.547-.414-1.622-1.058zm12.381 2.143v-7.75h-1.622v7.75zm3.502 0v-4.958h.096l3.578 4.958h1.342v-7.75h-1.552v4.936h-.097l-3.566-4.936h-1.354v7.75zm7.944-3.679c.58 0 .95-.387.95-.913 0-.527-.37-.908-.95-.908-.575 0-.951.381-.951.908 0 .526.376.913.951.913zm0 3.813c.58 0 .95-.386.95-.913 0-.526-.37-.908-.95-.908-.575 0-.951.382-.951.908 0 .527.376.913.951.913z" fill="#3f83f8"/><path d="m137.189 648.193c1.789 0 3.1-1.058 3.282-2.626h-1.364c-.188.87-.935 1.423-1.918 1.423-1.321 0-2.143-1.101-2.143-2.868 0-1.762.822-2.863 2.138-2.863.978 0 1.724.607 1.918 1.542h1.364c-.161-1.606-1.52-2.745-3.282-2.745-2.197 0-3.556 1.552-3.556 4.071 0 2.509 1.365 4.066 3.561 4.066zm6.371-.096c.768 0 1.412-.333 1.74-.903h.091v.806h1.284v-4.012c0-1.241-.849-1.971-2.358-1.971-1.396 0-2.369.655-2.476 1.681h1.257c.123-.403.542-.623 1.155-.623.719 0 1.106.327 1.106.913v.505l-1.515.091c-1.428.081-2.229.698-2.229 1.751 0 1.074.811 1.762 1.945 1.762zm.392-1.026c-.591 0-1.015-.296-1.015-.8 0-.489.349-.763 1.095-.812l1.327-.091v.478c0 .698-.602 1.225-1.407 1.225zm4.399.929h1.332v-3.421c0-.881.499-1.434 1.294-1.434.811 0 1.187.456 1.187 1.369v3.486h1.332v-3.797c0-1.397-.714-2.186-2.024-2.186-.876 0-1.467.397-1.746 1.052h-.091v-.94h-1.284zm11.87-3.91c-.139-1.214-1.053-2.073-2.562-2.073-1.767 0-2.803 1.133-2.803 3.034 0 1.923 1.041 3.067 2.809 3.067 1.487 0 2.411-.827 2.556-2.041h-1.267c-.14.618-.602.945-1.295.945-.907 0-1.455-.725-1.455-1.971 0-1.224.542-1.944 1.455-1.944.731 0 1.171.414 1.295.983zm5.173 2.304c-.194.44-.65.688-1.311.688-.875 0-1.439-.624-1.471-1.617v-.07h4.103v-.424c0-1.843-1.004-2.954-2.68-2.954-1.703 0-2.761 1.187-2.761 3.072 0 1.88 1.042 3.029 2.772 3.029 1.385 0 2.368-.666 2.61-1.724zm-1.364-3.341c.8 0 1.326.564 1.353 1.456h-2.766c.059-.881.618-1.456 1.413-1.456zm4.146 4.947h1.332v-8.143h-1.332zm5.957-4.195c0 .881.532 1.397 1.66 1.654l1.042.242c.558.129.811.344.811.677 0 .446-.468.752-1.139.752-.666 0-1.079-.269-1.208-.704h-1.316c.102 1.058 1.026 1.692 2.492 1.692s2.503-.746 2.503-1.869c0-.865-.521-1.343-1.644-1.601l-1.036-.231c-.591-.139-.87-.349-.87-.682 0-.435.456-.73 1.063-.73.623 0 1.015.268 1.112.682h1.251c-.096-1.058-.972-1.67-2.368-1.67-1.386 0-2.353.735-2.353 1.788zm11.376-1.676h-1.332v3.422c0 .886-.472 1.423-1.337 1.423-.795 0-1.166-.44-1.166-1.353v-3.492h-1.332v3.814c0 1.375.752 2.175 2.036 2.175.897 0 1.472-.381 1.756-1.053h.092v.935h1.283zm4.969 5.968c1.482 0 2.411-1.166 2.411-3.03 0-1.874-.924-3.034-2.411-3.034-.806 0-1.483.392-1.789 1.031h-.091v-3.207h-1.332v8.143h1.283v-.929h.092c.333.644 1.015 1.026 1.837 1.026zm-.419-4.952c.907 0 1.461.725 1.461 1.922 0 1.198-.548 1.923-1.461 1.923s-1.483-.736-1.483-1.923.575-1.922 1.483-1.922zm4.103.66c0 .881.532 1.397 1.66 1.654l1.042.242c.559.129.811.344.811.677 0 .446-.467.752-1.139.752-.666 0-1.079-.269-1.208-.704h-1.316c.102 1.058 1.026 1.692 2.492 1.692 1.467 0 2.503-.746 2.503-1.869 0-.865-.521-1.343-1.643-1.601l-1.037-.231c-.591-.139-.87-.349-.87-.682 0-.435.456-.73 1.063-.73.623 0 1.015.268 1.112.682h1.252c-.097-1.058-.973-1.67-2.369-1.67-1.386 0-2.353.735-2.353 1.788zm11.339.285c-.14-1.214-1.053-2.073-2.562-2.073-1.767 0-2.804 1.133-2.804 3.034 0 1.923 1.042 3.067 2.809 3.067 1.488 0 2.412-.827 2.557-2.041h-1.268c-.139.618-.601.945-1.294.945-.908 0-1.456-.725-1.456-1.971 0-1.224.543-1.944 1.456-1.944.73 0 1.171.414 1.294.983zm1.343 3.91h1.332v-3.411c0-.827.601-1.364 1.466-1.364.226 0 .58.038.682.075v-1.214c-.123-.032-.359-.053-.553-.053-.757 0-1.391.429-1.552 1.009h-.091v-.913h-1.284zm5.323-6.854c.44 0 .8-.349.8-.789 0-.435-.36-.79-.8-.79-.435 0-.795.355-.795.79 0 .44.36.789.795.789zm-.661 6.854h1.327v-5.871h-1.327zm6.252-5.967c-.805 0-1.487.403-1.826 1.069h-.091v-.973h-1.284v7.821h1.332v-2.842h.091c.301.623.951.989 1.794.989 1.483 0 2.407-1.166 2.407-3.03 0-1.879-.935-3.034-2.423-3.034zm-.419 4.957c-.907 0-1.471-.736-1.477-1.923.006-1.187.575-1.922 1.483-1.922.913 0 1.466.719 1.466 1.922 0 1.204-.548 1.923-1.472 1.923zm4.673-6.3v1.477h-.929v1.037h.929v3.238c0 1.134.538 1.585 1.886 1.585.257 0 .505-.022.698-.059v-1.021c-.161.016-.263.027-.451.027-.559 0-.806-.263-.806-.849v-2.921h1.257v-1.037h-1.257v-1.477zm4.663.456c.44 0 .8-.349.8-.789 0-.435-.36-.79-.8-.79-.435 0-.795.355-.795.79 0 .44.36.789.795.789zm-.661 6.854h1.327v-5.871h-1.327zm5.586.118c1.757 0 2.825-1.149 2.825-3.056 0-1.896-1.074-3.045-2.825-3.045-1.745 0-2.825 1.154-2.825 3.045 0 1.907 1.063 3.056 2.825 3.056zm0-1.09c-.929 0-1.461-.72-1.461-1.961 0-1.24.532-1.96 1.461-1.96.924 0 1.456.72 1.456 1.96 0 1.241-.527 1.961-1.456 1.961zm4.238.972h1.332v-3.421c0-.881.5-1.434 1.295-1.434.811 0 1.187.456 1.187 1.369v3.486h1.332v-3.797c0-1.397-.715-2.186-2.025-2.186-.876 0-1.467.397-1.746 1.052h-.091v-.94h-1.284z" fill="#6b7280"/><path d="m133 650.003h108.746v.887h-108.746z" fill="#6b7280"/><g fill="#1a57db"><path clip-rule="evenodd" d="m17.5371 66.5827-9.24495-9.1369c-.38953-.3846-.38953-1.006 0-1.3916l9.24495-9.1369c.5624-.5564 1.4773-.5564 2.0406 0 .5623.5565.5623 1.4596 0 2.016l-7.9086 7.8172 7.9086 7.8152c.5623.5574.5623 1.4605 0 2.017-.5633.5564-1.4782.5564-2.0406 0z" fill-rule="evenodd"/><path d="m31.7007 63c2.5483 0 4.0591-1.2534 4.0591-3.3618 0-1.5855-1.0376-2.7061-2.6729-2.9136v-.1328c1.1538-.2075 2.0669-1.3364 2.0669-2.5815 0-1.8345-1.3447-2.9883-3.5444-2.9883h-4.5821v11.978zm-3.1792-10.6582h2.7724c1.4859 0 2.3492.7056 2.3492 1.9258 0 1.27-.9214 1.9175-2.731 1.9175h-2.3906zm0 9.3384v-4.2085h2.8139c1.9092 0 2.8887.7055 2.8887 2.0918 0 1.3862-.9463 2.1167-2.7475 2.1167zm11.5763 1.4775c1.1953 0 2.1748-.5229 2.7559-1.4775h.1328v1.3198h1.3613v-6.126c0-1.8594-1.2202-2.98-3.4033-2.98-1.9092 0-3.3203.9463-3.5112 2.3824h1.4443c.1992-.7056.9463-1.1123 2.0171-1.1123 1.3364 0 2.0254.6059 2.0254 1.7099v.8135l-2.5816.1577c-2.0835.1245-3.2622 1.0459-3.2622 2.648 0 1.6352 1.2866 2.6645 3.0215 2.6645zm.2656-1.2534c-1.0376 0-1.8095-.5313-1.8095-1.4443 0-.8965.5976-1.3697 1.959-1.461l2.4072-.1577v.8218c0 1.2783-1.0874 2.2412-2.5567 2.2412zm13.6184-5.1133c-.2491-1.5937-1.5772-2.897-3.752-2.897-2.5068 0-4.1006 1.8096-4.1006 4.5987 0 2.8471 1.6021 4.665 4.1089 4.665 2.1499 0 3.4863-1.2119 3.7437-2.8555h-1.4444c-.2656 1.0127-1.104 1.5689-2.3076 1.5689-1.5937 0-2.623-1.3115-2.623-3.3784 0-2.0254 1.0127-3.312 2.623-3.312 1.2866 0 2.0752.7221 2.3076 1.6103zm3.3419 1.1704h-.1328v-7.4624h-1.4277v12.501h1.4277v-3.395l.855-.7969 3.3535 4.1919h1.8179l-4.1089-5.1133 3.8515-3.8349h-1.7514z"/></g></svg>