<svg fill="none" height="55" viewBox="0 0 321 55" width="321" xmlns="http://www.w3.org/2000/svg"><path d="m18.824 18.2663c-7.36-1.92-9.088-3.84-9.088-7.424 0-3.19999 3.264-5.31199 8.448-5.31199 5.824 0 10.432 3.2 10.688 10.36799l6.464-4.032c-1.024-7.23199-8.256-11.647989-16.448-11.647989-10.368 0-16.576 4.863999-16.576 12.095989 0 6.528 3.712 10.496 14.528 13.184 7.36 1.856 9.92 3.712 9.92 7.744 0 4.224-2.624 6.656-8.256 6.656-6.272 0-11.456-3.712-11.392-11.776l-6.656 4.288c.704 8 7.872 12.672 17.344 12.672 10.752 0 16.64-5.312 16.64-13.056 0-8.448-5.824-11.2-15.616-13.76zm44.8995-6.4v19.136c-.064 5.44-2.304 8.832-7.232 8.832-4.16 0-6.336-2.112-6.336-6.848v-21.12h-7.616v22.144c0 7.68 4.16 11.072 11.2 11.072 5.44 0 8.448-2.432 9.984-7.296v6.784h7.616v-32.704zm34.4845-.96c-5.312 0-8.32 2.496-9.856 7.168v-6.208h-7.616v42.304h7.616v-16.32c1.536 4.672 4.544 7.168 9.856 7.168 8.32 0 14.272-6.784 14.272-17.024 0-10.304-5.952-17.088-14.272-17.088zm-1.856 29.248c-4.864 0-8.192-4.736-8.192-12.16 0-7.488 3.328-12.16 8.192-12.16s8 4.672 8 12.16c0 7.424-3.136 12.16-8 12.16zm46.674-7.04c-.96 5.568-4.608 7.04-8 7.04-5.44 0-8.832-4.16-9.152-11.2h22.656v-.384c.192-10.56-5.248-17.664-14.784-17.664-9.472 0-15.744 6.784-15.744 17.088 0 10.048 6.72 17.024 16.384 17.024 7.36 0 11.968-2.624 14.592-8.192zm-9.28-17.28c4.544 0 6.272 2.816 6.592 9.28h-14.336c.576-5.824 3.008-9.28 7.744-9.28zm38.039-4.928c-4.096 0-7.168 3.008-8.064 10.88l.192-9.92h-7.616v32.704h7.616v-14.528c0-10.112 3.008-13.952 5.888-13.952 2.432 0 4.096 1.152 3.712 10.112l6.656-4.032c.64-7.616-3.072-11.264-8.384-11.264zm44.649-4.35199v-5.44h-29.824v43.45599h7.744v-19.328h20.288v-5.44h-20.288v-13.24799zm6.677 38.01599h7.552v-43.45599h-7.552zm31.336.448c9.984 0 16.32-6.656 16.32-17.024 0-10.432-6.336-17.088-16.32-17.088s-16.32 6.656-16.32 17.088c0 10.368 6.336 17.024 16.32 17.024zm0-4.864c-5.312 0-8.256-4.416-8.256-12.16 0-7.808 2.944-12.16 8.256-12.16s8.256 4.352 8.256 12.16c0 7.744-2.944 12.16-8.256 12.16zm58.428-28.288-4.992 19.968c-.576 2.496-.96 4.992-1.216 7.488-.192-2.432-.512-4.928-1.024-7.424l-4.16-20.032h-8.896l-4.032 19.584c-.576 2.752-.896 5.568-1.152 8.32-.32-2.816-.704-5.568-1.408-8.384l-4.8-19.52h-7.488l8.896 32.704h8.96l4.608-21.632c.448-2.24.704-4.48.896-6.656.128 2.24.448 4.48.896 6.72l4.544 21.568h8.96l8.896-32.704z" fill="#000"/></svg>