<svg height="1022.7983" viewBox="0 0 4887.1699 1022.7983" width="4887.1699" xmlns="http://www.w3.org/2000/svg"><g fill="#e10070" transform="matrix(.13333333 0 0 -.13333333 -.026563 1023.9957)"><path d="m15940.2 3790.96c99.4 0 185.3 34.91 255.1 104.7 69.8 69.82 104.7 155.74 104.7 255.08 0 96.66-37.6 182.57-107.4 252.39-67.1 69.79-150.3 104.7-247 104.7-99.3 0-185.3-32.22-255-102.04-75.2-67.13-110.1-153.04-110.1-255.07 0-99.32 34.9-185.24 104.7-255.06 69.8-69.79 153-104.7 255-104.7z" transform="scale(1.69863)"/><path d="m11953.6 2134.22-1591.7 5468.2-2157.17-.04v-351.13l205.23-.04c168.75.04 296.45-13.63 383.09-45.59 150.5-45.58 246.29-159.6 287.34-337.46 22.77-77.54 31.91-246.28 31.91-506.25v-4309.76c0-405.9-9.14-688.67-36.48-857.42-36.48-218.91-114.02-387.66-241.72-497.109-127.69-113.992-278.2-173.281-451.48-173.281l-177.89-.039v-360.281l2303.17-.04v360.321l-146-.039c-401.31.078-661.28 196.168-766.16 583.828-36.48 141.36-54.72 456.05-54.72 944.06v4875.31l1961.08-6763.44h342l1965.6 6763.44v-5308.59c0-250.82-9.1-456.06-31.9-615.67-13.7-132.259-59.3-237.149-136.8-310.11-114-109.5-314.7-168.75-592.9-168.75l-91.2-.039v-360.281l2795.7-.04v360.36l-155.1-.039c-383.1.039-615.7 114.058-697.8 346.64-36.5 123.118-59.2 373.979-59.2 747.929v4528.71c0 250.82 13.6 460.62 31.9 624.8 18.2 127.7 63.8 232.62 136.8 305.59 114 113.98 310.1 173.28 588.3 173.28l155.1-.04v351.21l-2175.5-.04z"/><path d="m14495.4 295.181c-320.8 0-550.5 145.822-696.3 441.122-164.1 339.047-244.3 834.857-244.3 1491.107 0 794.75 131.2 1327.03 397.4 1600.45 156.7 164.06 339 247.89 543.2 247.89 131.2 0 251.5-32.81 360.9-102.07 164.1-102.08 288-244.25 371.9-433.82 134.9-306.26 204.1-751.01 204.1-1337.97 0-1272.361-313.5-1906.709-936.9-1906.709zm0 4068.579c-557.8 0-1009.9-222.37-1356.2-659.84-302.6-382.83-452.1-889.57-452.1-1520.26 0-627.08 149.5-1133.81 452.1-1520.269 342.7-437.469 787.4-656.21217 1330.7-656.21217 572.3 0 1031.7 218.74317 1374.4 656.21217 302.6 386.459 455.7 896.849 455.7 1531.199 0 623.42-153.1 1126.53-455.7 1509.33-342.7 437.47-794.8 659.87-1348.9 659.87z" transform="scale(1.25097)"/><path d="m14904.6 281.889c-125 0-235.5 31.993-331.4 98.846-119.2 78.486-209.3 186.051-270.4 319.764-119.1 252.923-177.3 610.481-177.3 1072.721 0 598.85 125 1014.55 375 1244.22 133.8 119.19 279.1 180.22 433.2 180.22 220.9 0 386.6-116.25 497.1-348.84 119.2-249.99 177.3-604.66 177.3-1061.06 0-1002.954-235.5-1505.871-703.5-1505.871zm125 3165.791c-232.6 0-436-69.77-613.4-212.22-93-75.59-171.5-183.13-232.5-319.78v1979.73l-1014.6-49.43v-218.04l52.3-.03c133.7.03 226.8-29.03 276.2-87.17 58.1-61.06 84.3-220.96 84.3-479.67v-3253.006c0-293.617-8.7-485.469-29.1-581.402-2.9-14.546-14.5-55.252-37.8-122.112l235.5-.025c52.3 87.251 101.8 162.818 148.3 226.79 52.3 75.567 98.8 110.453 139.5 110.453 34.9 0 75.6-17.434 122.1-55.226 119.2-98.826 197.7-159.88 235.5-183.138 177.3-113.3925 369.2-171.5078 581.4-171.5078 386.6 0 700.6 162.7678 939 482.5508 255.8 345.951 383.7 773.283 383.7 1287.853 0 534.89-142.5 962.21-427.3 1279.08-221 244.22-502.9 366.3-843.1 366.3z" transform="scale(1.56881)"/><path d="m14961 1877.08c81.3 292.01 221.1 440.09 417.1 440.09 175.2 0 302.4-118.88 383.8-356.66 43.8-135.58 66.7-306.59 66.7-513.09l-919.8-.02c2.1 168.97 18.8 312.88 52.2 429.68zm965.7-1464.177c-118.9-139.738-264.9-210.657-442.2-210.657-225.3 0-385.9 112.636-477.6 335.796-66.8 156.426-100.2 400.473-102.2 729.998h1395.3c-10.4 277.42-62.6 511.02-156.4 698.74-177.3 352.47-440.1 529.76-790.5 529.76-235.7 0-438-93.85-604.9-281.57-212.7-237.78-319.1-554.8-319.1-951.09 0-429.659 106.4-759.205 319.1-986.549 171-181.4502 390.1-273.22394 657-273.22394 365 0 652.9 214.82294 867.7 644.48094l-152.3 79.265c-64.6-133.5-129.3-239.865-193.9-314.95z" transform="scale(2.18659)"/><path d="m15983.2 338.214c-47.7 54.785-71.5 188.193-71.5 400.222v3273.344l-855.3-40.51v-178.69l66.7-.02c109.6.02 183.5-23.79 224-71.44 47.6-52.42 71.4-183.44 71.4-395.47v-2587.214c0-212.029-23.8-345.437-71.4-400.222-40.5-47.646-114.4-71.481-224-71.481l-95.3-.017v-181.0372l1272.2-.0204v181.0746l-92.9-.017c-107.2.017-183.4 23.852-223.9 71.498z" transform="scale(1.91435)"/><path d="m15949 371.915c-52.4 57.619-76 204.343-76 440.103v2276.552l-940.5-44.54v-199.1l73.3-.02c120.6.02 201.8-26.19 246.3-75.95 52.4-57.65 78.6-204.35 78.6-434.88v-1522.062c0-233.157-26.2-379.858-78.6-440.103-44.5-52.393-125.7-78.581-246.3-78.581l-104.7-.041v-199.0768l1398.9-.0224v199.1402l-102.2-.041c-120.5.041-204.3 26.229-248.8 78.622z" transform="scale(1.74088)"/><path d="m4592.73 4181.95v-1505l1505-.07v1505.07l-1505-.04z"/><path d="m73.1602 7602.42-72.960981-2622.38 392.179781-68.4c72.973 770.74 278.211 1345.39 611.141 1719.38 351.17 392.18 830.03 597.42 1450.27 615.66v-5490.98c0-478.86-68.4-788.981-205.24-934.919-118.55-123.121-323.78-196.129-606.56-223.48-82.07-9.141-228.01-9.141-428.67-9.141v-424.14l3671.29 4.57v419.57c-200.66 0-346.6 0-428.71 9.141-282.74 27.351-487.97 100.32-606.56 223.48-136.8 145.938-205.24 456.059-205.24 934.919v5490.98c620.28-18.24 1099.14-223.48 1450.28-615.66 332.92-373.99 533.59-948.64 611.13-1719.38l392.22 68.4-72.96 2622.38-5951.6098-.04z"/><path d="m1505.2 4181.95-1505.000781-.04v-1504.96l1505.000781-.04z"/><path d="m16068.8 2161.9v265.68l50.7-.02 66.9-214.95 62.9 214.97 50.7-.02v-265.66l-34.5-.01v208.9l-60.8-208.89-40.6-.01-60.8 204.85v-204.84l-34.5-.01zm-144 0v231.21l-73-.02v34.49l184.6-.02v-34.45l-73.1-.02v-231.19l-38.5-.01z" transform="scale(2.24871)"/></g></svg>