<svg width="640" height="241" viewBox="0 0 640 241" fill="none" xmlns="http://www.w3.org/2000/svg">
<path d="M0 106.973V2.97146H39.9947C51.0034 2.97146 59.3356 5.4972 64.9915 10.5487C70.6473 15.6002 73.4752 21.9393 73.4752 29.566C73.4752 36.2023 71.6573 41.5014 68.0214 45.4633C64.3855 49.3262 59.9921 51.951 54.8413 53.3377C58.8812 54.1301 62.4665 55.7149 65.5974 58.092C68.8293 60.4692 71.3543 63.4406 73.1722 67.0064C74.9902 70.5721 75.8991 74.435 75.8991 78.5951C75.8991 83.9437 74.5357 88.7971 71.8088 93.1552C69.1828 97.4143 65.2945 100.782 60.1436 103.258C54.9928 105.734 48.6805 106.973 41.2067 106.973H0ZM16.0585 47.5433H38.0253C44.1861 47.5433 48.8825 46.1567 52.1144 43.3833C55.3463 40.5109 56.9622 36.5985 56.9622 31.646C56.9622 26.7927 55.3463 22.9298 52.1144 20.0573C48.9835 17.1849 44.1861 15.7487 37.7223 15.7487H16.0585V47.5433ZM16.0585 94.0467H39.0858C45.5496 94.0467 50.5489 92.5609 54.0838 89.5895C57.7197 86.618 59.5376 82.458 59.5376 77.1094C59.5376 71.7607 57.6692 67.5512 53.9323 64.4807C50.1954 61.3111 45.1456 59.7263 38.7828 59.7263H16.0585V94.0467Z" fill="#9AA5B7"/>
<path d="M120.467 108.755C113.296 108.755 106.833 107.171 101.076 104.001C95.4199 100.732 90.9256 96.2257 87.5927 90.4809C84.2598 84.6371 82.5933 77.8522 82.5933 70.1264C82.5933 62.4006 84.2598 55.6653 87.5927 49.9205C91.0266 44.0766 95.6219 39.5699 101.379 36.4004C107.136 33.1318 113.549 31.4975 120.619 31.4975C127.789 31.4975 134.203 33.1318 139.859 36.4004C145.615 39.5699 150.16 44.0766 153.493 49.9205C156.927 55.6653 158.644 62.4006 158.644 70.1264C158.644 77.8522 156.927 84.6371 153.493 90.4809C150.16 96.2257 145.615 100.732 139.859 104.001C134.102 107.171 127.638 108.755 120.467 108.755ZM120.467 95.2353C124.305 95.2353 127.84 94.2943 131.072 92.4124C134.405 90.5304 137.081 87.7571 139.101 84.0923C141.121 80.3284 142.131 75.6732 142.131 70.1264C142.131 64.5797 141.121 59.9739 139.101 56.3091C137.182 52.5453 134.556 49.7224 131.223 47.8405C127.991 45.9586 124.457 45.0176 120.619 45.0176C116.781 45.0176 113.195 45.9586 109.862 47.8405C106.631 49.7224 104.005 52.5453 101.985 56.3091C99.9648 59.9739 98.9548 64.5797 98.9548 70.1264C98.9548 75.6732 99.9648 80.3284 101.985 84.0923C104.005 87.7571 106.631 90.5304 109.862 92.4124C113.094 94.2943 116.629 95.2353 120.467 95.2353Z" fill="#9AA5B7"/>
<path d="M168.435 106.973V0H184.494V45.1662C187.019 40.9071 190.503 37.589 194.947 35.2118C199.492 32.7356 204.491 31.4975 209.945 31.4975C218.934 31.4975 226.004 34.2708 231.155 39.8175C236.305 45.3643 238.881 53.6348 238.881 64.6292V106.973H222.974V66.2635C222.974 52.0005 217.166 44.869 205.552 44.869C199.492 44.869 194.442 46.949 190.402 51.1091C186.463 55.2691 184.494 61.2121 184.494 68.9378V106.973H168.435Z" fill="#9AA5B7"/>
<path d="M285.366 108.755C277.993 108.755 271.429 107.171 265.672 104.001C260.016 100.732 255.572 96.2257 252.34 90.4809C249.108 84.7361 247.492 78.0503 247.492 70.4236C247.492 62.6978 249.058 55.9129 252.189 50.0691C255.421 44.2252 259.864 39.669 265.52 36.4004C271.277 33.1318 277.943 31.4975 285.518 31.4975C292.89 31.4975 299.304 33.1318 304.758 36.4004C310.211 39.5699 314.453 43.829 317.483 49.1776C320.513 54.5263 322.028 60.4197 322.028 66.8578C322.028 67.8483 321.978 68.9378 321.877 70.1264C321.877 71.216 321.826 72.4541 321.725 73.8408H263.248C263.753 80.9723 266.126 86.4199 270.368 90.1838C274.711 93.8486 279.71 95.681 285.366 95.681C289.911 95.681 293.698 94.6905 296.728 92.7095C299.859 90.6295 302.182 87.8561 303.697 84.3894H319.756C317.736 91.3228 313.696 97.1172 307.636 101.772C301.677 106.428 294.254 108.755 285.366 108.755ZM285.366 44.4233C280.013 44.4233 275.266 46.0081 271.126 49.1776C266.985 52.2481 264.46 56.9034 263.551 63.1435H305.969C305.666 57.3987 303.596 52.8424 299.758 49.4748C295.92 46.1071 291.123 44.4233 285.366 44.4233Z" fill="#9AA5B7"/>
<path d="M331.115 106.973V33.2803H345.356L346.719 43.6804C349.143 39.9166 352.325 36.9451 356.264 34.7661C360.303 32.587 364.949 31.4975 370.201 31.4975C382.119 31.4975 390.4 36.1032 395.046 45.3147C397.773 41.0557 401.409 37.688 405.954 35.2118C410.6 32.7356 415.599 31.4975 420.952 31.4975C430.345 31.4975 437.718 34.2708 443.07 39.8175C448.423 45.3643 451.1 53.6348 451.1 64.6292V106.973H435.041V66.2635C435.041 52.0005 429.486 44.869 418.377 44.869C412.721 44.869 408.075 46.949 404.439 51.1091C400.904 55.2691 399.137 61.2121 399.137 68.9378V106.973H383.078V66.2635C383.078 52.0005 377.473 44.869 366.262 44.869C360.707 44.869 356.112 46.949 352.476 51.1091C348.941 55.2691 347.174 61.2121 347.174 68.9378V106.973H331.115Z" fill="#9AA5B7"/>
<path d="M471.402 19.3145C468.372 19.3145 465.847 18.423 463.828 16.6402C461.909 14.7582 460.949 12.4306 460.949 9.65724C460.949 6.88388 461.909 4.60576 463.828 2.82288C465.847 0.940962 468.372 0 471.402 0C474.432 0 476.907 0.940962 478.826 2.82288C480.846 4.60576 481.855 6.88388 481.855 9.65724C481.855 12.4306 480.846 14.7582 478.826 16.6402C476.907 18.423 474.432 19.3145 471.402 19.3145ZM463.373 106.973V33.2803H479.432V106.973H463.373Z" fill="#9AA5B7"/>
<path d="M528.657 108.755C521.284 108.755 514.669 107.121 508.811 103.852C503.054 100.584 498.509 96.0772 495.176 90.3323C491.945 84.4885 490.329 77.7532 490.329 70.1264C490.329 62.4997 491.945 55.8139 495.176 50.0691C498.509 44.2252 503.054 39.669 508.811 36.4004C514.669 33.1318 521.284 31.4975 528.657 31.4975C537.949 31.4975 545.725 33.8746 551.987 38.629C558.35 43.3833 562.44 49.8215 564.258 57.9434H547.442C546.432 53.8825 544.21 50.7129 540.777 48.4348C537.343 46.1567 533.303 45.0176 528.657 45.0176C524.718 45.0176 521.082 46.0081 517.749 47.9891C514.416 49.871 511.74 52.6939 509.72 56.4577C507.7 60.1225 506.69 64.6788 506.69 70.1264C506.69 75.5741 507.7 80.1799 509.72 83.9437C511.74 87.6085 514.416 90.4314 517.749 92.4124C521.082 94.3933 524.718 95.3838 528.657 95.3838C533.303 95.3838 537.343 94.2448 540.777 91.9666C544.21 89.6885 546.432 86.4694 547.442 82.3094H564.258C562.541 90.2333 558.501 96.6219 552.139 101.475C545.776 106.329 537.949 108.755 528.657 108.755Z" fill="#9AA5B7"/>
<path d="M599.551 108.755C593.188 108.755 587.936 107.715 583.795 105.635C579.654 103.555 576.574 100.832 574.554 97.4639C572.534 93.9972 571.524 90.2333 571.524 86.1723C571.524 79.0408 574.352 73.395 580.008 69.235C585.664 65.0749 593.743 62.9949 604.247 62.9949H623.941V61.6578C623.941 55.9129 622.326 51.6043 619.094 48.7319C615.963 45.8595 611.872 44.4233 606.823 44.4233C602.379 44.4233 598.49 45.5128 595.157 47.6919C591.925 49.7719 589.956 52.892 589.249 57.052H573.191C573.696 51.7034 575.513 47.1471 578.644 43.3833C581.876 39.5204 585.916 36.5985 590.764 34.6175C595.713 32.5375 601.116 31.4975 606.974 31.4975C617.478 31.4975 625.608 34.2213 631.365 39.669C637.122 45.0176 640 52.3472 640 61.6578V106.973H626.062L624.699 94.3438C622.578 98.4048 619.498 101.822 615.458 104.595C611.418 107.369 606.116 108.755 599.551 108.755ZM602.732 95.9781C607.075 95.9781 610.711 94.9876 613.64 93.0067C616.67 90.9266 618.993 88.2028 620.609 84.8351C622.326 81.4675 623.386 77.7532 623.79 73.6922H605.914C599.551 73.6922 595.006 74.7817 592.279 76.9608C589.653 79.1399 588.34 81.8637 588.34 85.1323C588.34 88.5 589.603 91.1743 592.128 93.1552C594.753 95.0372 598.288 95.9781 602.732 95.9781Z" fill="#9AA5B7"/>
<path d="M39.2373 240.816C31.4605 240.816 24.6432 239.479 18.7854 236.804C12.9276 234.13 8.33224 230.317 4.99935 225.364C1.76745 220.412 0.100997 214.519 0 207.684H16.9675C17.0685 213.231 19.0379 217.936 22.8758 221.799C26.7136 225.662 32.117 227.593 39.0857 227.593C45.2466 227.593 50.0439 226.157 53.4778 223.284C57.0127 220.313 58.7801 216.549 58.7801 211.993C58.7801 208.328 57.9217 205.357 56.2047 203.078C54.5888 200.8 52.3163 198.918 49.3874 197.433C46.5595 195.947 43.2771 194.61 39.5403 193.421C35.8034 192.233 31.8645 190.945 27.7236 189.558C19.5429 186.884 13.3821 183.417 9.2412 179.158C5.20133 174.899 3.18139 169.303 3.18139 162.369C3.0804 156.526 4.44385 151.425 7.27176 147.066C10.2007 142.708 14.2405 139.341 19.3914 136.963C24.6432 134.487 30.7535 133.249 37.7223 133.249C44.5901 133.249 50.5994 134.487 55.7503 136.963C61.0021 139.44 65.0925 142.906 68.0214 147.364C70.9503 151.722 72.4652 156.823 72.5662 162.667H55.5987C55.5987 159.992 54.8917 157.467 53.4778 155.089C52.0638 152.613 49.9934 150.583 47.2665 148.998C44.5396 147.413 41.2067 146.621 37.2679 146.621C32.218 146.522 28.0266 147.76 24.6937 150.335C21.4618 152.91 19.8458 156.476 19.8458 161.032C19.8458 165.093 21.0578 168.213 23.4818 170.392C25.9057 172.571 29.2386 174.404 33.4805 175.89C37.7223 177.276 42.5702 178.911 48.024 180.792C53.2758 182.476 57.9722 184.507 62.113 186.884C66.2539 189.261 69.5363 192.381 71.9603 196.244C74.4852 200.107 75.7477 205.01 75.7477 210.953C75.7477 216.202 74.3842 221.105 71.6573 225.661C68.9304 230.119 64.8399 233.783 59.3861 236.656C53.9323 239.429 47.216 240.816 39.2373 240.816Z" fill="#9AA5B7"/>
<path d="M116.635 239.033C109.262 239.033 103.404 237.3 99.0613 233.833C94.7185 230.267 92.5471 223.978 92.5471 214.964V178.564H79.6699V165.341H92.5471L94.5165 146.621H108.606V165.341H129.815V178.564H108.606V214.964C108.606 219.025 109.464 221.848 111.181 223.433C112.999 224.919 116.079 225.661 120.422 225.661H129.057V239.033H116.635Z" fill="#9AA5B7"/>
<path d="M166.522 240.816C157.432 240.816 150.261 238.043 145.009 232.496C139.858 226.949 137.283 218.679 137.283 207.684V165.341H153.342V206.05C153.342 220.313 159.3 227.444 171.218 227.444C177.177 227.444 182.075 225.364 185.913 221.204C189.751 217.044 191.67 211.101 191.67 203.376V165.341H207.728V239.033H193.488L192.276 226.107C189.953 230.663 186.519 234.279 181.974 236.953C177.53 239.528 172.379 240.816 166.522 240.816Z" fill="#9AA5B7"/>
<path d="M254.82 240.816C247.548 240.816 241.135 239.132 235.58 235.764C230.025 232.397 225.682 227.791 222.551 221.947C219.42 216.103 217.855 209.467 217.855 202.038C217.855 194.61 219.42 188.023 222.551 182.278C225.682 176.434 230.025 171.878 235.58 168.609C241.236 165.242 247.699 163.558 254.971 163.558C260.93 163.558 266.131 164.697 270.575 166.975C275.12 169.253 278.655 172.472 281.18 176.632V132.061H297.238V239.033H282.846L281.18 227.593C278.756 231.06 275.423 234.13 271.181 236.804C266.939 239.479 261.486 240.816 254.82 240.816ZM257.698 227.147C264.566 227.147 270.171 224.82 274.514 220.164C278.958 215.509 281.18 209.517 281.18 202.187C281.18 194.758 278.958 188.766 274.514 184.21C270.171 179.554 264.566 177.227 257.698 177.227C250.83 177.227 245.175 179.554 240.731 184.21C236.287 188.766 234.065 194.758 234.065 202.187C234.065 207.04 235.075 211.349 237.095 215.113C239.115 218.877 241.892 221.848 245.427 224.027C249.063 226.107 253.153 227.147 257.698 227.147Z" fill="#9AA5B7"/>
<path d="M319 151.375C315.971 151.375 313.446 150.484 311.426 148.701C309.507 146.819 308.547 144.491 308.547 141.718C308.547 138.944 309.507 136.666 311.426 134.883C313.446 133.002 315.971 132.061 319 132.061C322.03 132.061 324.505 133.002 326.424 134.883C328.444 136.666 329.454 138.944 329.454 141.718C329.454 144.491 328.444 146.819 326.424 148.701C324.505 150.484 322.03 151.375 319 151.375ZM310.971 239.033V165.341H327.03V239.033H310.971Z" fill="#9AA5B7"/>
<path d="M375.801 240.816C368.63 240.816 362.166 239.231 356.409 236.062C350.753 232.793 346.259 228.286 342.926 222.541C339.593 216.698 337.927 209.913 337.927 202.187C337.927 194.461 339.593 187.726 342.926 181.981C346.36 176.137 350.955 171.63 356.712 168.461C362.469 165.192 368.882 163.558 375.952 163.558C383.123 163.558 389.536 165.192 395.192 168.461C400.949 171.63 405.494 176.137 408.826 181.981C412.26 187.726 413.977 194.461 413.977 202.187C413.977 209.913 412.26 216.698 408.826 222.541C405.494 228.286 400.949 232.793 395.192 236.062C389.435 239.231 382.971 240.816 375.801 240.816ZM375.801 227.296C379.638 227.296 383.173 226.355 386.405 224.473C389.738 222.591 392.415 219.818 394.435 216.153C396.454 212.389 397.464 207.734 397.464 202.187C397.464 196.64 396.454 192.034 394.435 188.37C392.516 184.606 389.89 181.783 386.557 179.901C383.325 178.019 379.79 177.078 375.952 177.078C372.114 177.078 368.529 178.019 365.196 179.901C361.964 181.783 359.338 184.606 357.318 188.37C355.298 192.034 354.288 196.64 354.288 202.187C354.288 207.734 355.298 212.389 357.318 216.153C359.338 219.818 361.964 222.591 365.196 224.473C368.428 226.355 371.963 227.296 375.801 227.296Z" fill="#9AA5B7"/>
</svg>
