<svg width="416" height="62" viewBox="0 0 416 62" fill="none" xmlns="http://www.w3.org/2000/svg">
<path d="M0.352 47V2.2H8.544V40.6H28.384V47H0.352ZM44.354 47.768C41.6233 47.768 39.3833 47.3413 37.634 46.488C35.8847 45.592 34.5833 44.4187 33.73 42.968C32.8767 41.5173 32.45 39.9173 32.45 38.168C32.45 35.224 33.602 32.8347 35.906 31C38.21 29.1653 41.666 28.248 46.274 28.248H54.338V27.48C54.338 25.304 53.7193 23.704 52.482 22.68C51.2447 21.656 49.7087 21.144 47.874 21.144C46.21 21.144 44.7593 21.5493 43.522 22.36C42.2847 23.128 41.5167 24.28 41.218 25.816H33.218C33.4313 23.512 34.1993 21.5067 35.522 19.8C36.8873 18.0933 38.6367 16.792 40.77 15.896C42.9033 14.9573 45.2927 14.488 47.938 14.488C52.4607 14.488 56.0233 15.6187 58.626 17.88C61.2287 20.1413 62.53 23.3413 62.53 27.48V47H55.554L54.786 41.88C53.8473 43.5867 52.5247 44.9947 50.818 46.104C49.154 47.2133 46.9993 47.768 44.354 47.768ZM46.21 41.368C48.5567 41.368 50.37 40.6 51.65 39.064C52.9727 37.528 53.8047 35.6293 54.146 33.368H47.17C44.994 33.368 43.4367 33.7733 42.498 34.584C41.5593 35.352 41.09 36.312 41.09 37.464C41.09 38.7013 41.5593 39.6613 42.498 40.344C43.4367 41.0267 44.674 41.368 46.21 41.368ZM68.3475 47V15.256H75.5795L76.2195 20.632C77.2008 18.7547 78.6088 17.2613 80.4435 16.152C82.3208 15.0427 84.5182 14.488 87.0355 14.488C90.9608 14.488 94.0115 15.7253 96.1875 18.2C98.3635 20.6747 99.4515 24.3013 99.4515 29.08V47H91.2595V29.848C91.2595 27.1173 90.7048 25.0267 89.5955 23.576C88.4862 22.1253 86.7582 21.4 84.4115 21.4C82.1075 21.4 80.2088 22.2107 78.7155 23.832C77.2648 25.4533 76.5395 27.7147 76.5395 30.616V47H68.3475ZM119.877 47.768C116.89 47.768 114.224 47.0427 111.877 45.592C109.53 44.1413 107.674 42.1573 106.309 39.64C104.944 37.1227 104.261 34.264 104.261 31.064C104.261 27.864 104.944 25.0267 106.309 22.552C107.674 20.0347 109.53 18.072 111.877 16.664C114.224 15.2133 116.89 14.488 119.877 14.488C122.266 14.488 124.357 14.936 126.149 15.832C127.941 16.728 129.392 17.9867 130.501 19.608V0.919998H138.693V47H131.397L130.501 42.456C129.477 43.864 128.112 45.1013 126.405 46.168C124.741 47.2347 122.565 47.768 119.877 47.768ZM121.605 40.6C124.25 40.6 126.405 39.7253 128.069 37.976C129.776 36.184 130.629 33.9013 130.629 31.128C130.629 28.3547 129.776 26.0933 128.069 24.344C126.405 22.552 124.25 21.656 121.605 21.656C119.002 21.656 116.848 22.5307 115.141 24.28C113.434 26.0293 112.581 28.2907 112.581 31.064C112.581 33.8373 113.434 36.12 115.141 37.912C116.848 39.704 119.002 40.6 121.605 40.6ZM149.451 10.328C147.958 10.328 146.72 9.88 145.739 8.984C144.8 8.088 144.331 6.95733 144.331 5.592C144.331 4.22667 144.8 3.11733 145.739 2.264C146.72 1.368 147.958 0.919998 149.451 0.919998C150.944 0.919998 152.16 1.368 153.099 2.264C154.08 3.11733 154.571 4.22667 154.571 5.592C154.571 6.95733 154.08 8.088 153.099 8.984C152.16 9.88 150.944 10.328 149.451 10.328ZM145.355 47V15.256H153.547V47H145.355ZM160.098 47V15.256H167.33L167.97 20.632C168.951 18.7547 170.359 17.2613 172.194 16.152C174.071 15.0427 176.268 14.488 178.786 14.488C182.711 14.488 185.762 15.7253 187.938 18.2C190.113 20.6747 191.201 24.3013 191.201 29.08V47H183.01V29.848C183.01 27.1173 182.455 25.0267 181.346 23.576C180.236 22.1253 178.508 21.4 176.162 21.4C173.858 21.4 171.959 22.2107 170.466 23.832C169.015 25.4533 168.29 27.7147 168.29 30.616V47H160.098ZM210.475 37.528C208.939 37.528 207.51 37.3573 206.187 37.016L203.819 39.384C204.544 39.768 205.526 40.088 206.763 40.344C208 40.6 210.006 40.856 212.779 41.112C217.003 41.496 220.075 42.4987 221.995 44.12C223.915 45.7413 224.875 47.9813 224.875 50.84C224.875 52.7173 224.363 54.488 223.339 56.152C222.315 57.8587 220.736 59.224 218.603 60.248C216.47 61.3147 213.739 61.848 210.411 61.848C205.888 61.848 202.24 60.9947 199.467 59.288C196.694 57.624 195.307 55.1067 195.307 51.736C195.307 48.8773 196.694 46.4027 199.467 44.312C198.614 43.928 197.867 43.5227 197.227 43.096C196.63 42.6693 196.096 42.2213 195.627 41.752V40.28L201.195 34.392C198.72 32.216 197.483 29.4213 197.483 26.008C197.483 23.8747 197.995 21.9333 199.019 20.184C200.086 18.4347 201.579 17.048 203.499 16.024C205.419 15 207.744 14.488 210.475 14.488C212.267 14.488 213.931 14.744 215.467 15.256H227.499V20.248L222.059 20.632C222.912 22.2533 223.339 24.0453 223.339 26.008C223.339 28.1413 222.827 30.0827 221.803 31.832C220.779 33.5813 219.286 34.968 217.323 35.992C215.403 37.016 213.12 37.528 210.475 37.528ZM210.475 31.256C212.139 31.256 213.504 30.808 214.571 29.912C215.68 29.016 216.235 27.736 216.235 26.072C216.235 24.408 215.68 23.128 214.571 22.232C213.504 21.336 212.139 20.888 210.475 20.888C208.726 20.888 207.318 21.336 206.251 22.232C205.184 23.128 204.651 24.408 204.651 26.072C204.651 27.736 205.184 29.016 206.251 29.912C207.318 30.808 208.726 31.256 210.475 31.256ZM202.795 50.904C202.795 52.4827 203.52 53.656 204.971 54.424C206.464 55.2347 208.278 55.64 210.411 55.64C212.459 55.64 214.123 55.2133 215.403 54.36C216.683 53.5493 217.323 52.44 217.323 51.032C217.323 49.88 216.896 48.92 216.043 48.152C215.232 47.384 213.59 46.9147 211.115 46.744C209.366 46.616 207.744 46.424 206.251 46.168C205.014 46.8507 204.118 47.5973 203.563 48.408C203.051 49.2187 202.795 50.0507 202.795 50.904ZM244.723 61.08V15.256H252.019L252.915 19.8C253.939 18.392 255.283 17.1547 256.947 16.088C258.653 15.0213 260.851 14.488 263.539 14.488C266.525 14.488 269.192 15.2133 271.539 16.664C273.885 18.1147 275.741 20.0987 277.107 22.616C278.472 25.1333 279.155 27.992 279.155 31.192C279.155 34.392 278.472 37.2507 277.107 39.768C275.741 42.2427 273.885 44.2053 271.539 45.656C269.192 47.064 266.525 47.768 263.539 47.768C261.149 47.768 259.059 47.32 257.267 46.424C255.475 45.528 254.024 44.2693 252.915 42.648V61.08H244.723ZM261.811 40.6C264.413 40.6 266.568 39.7253 268.275 37.976C269.981 36.2267 270.835 33.9653 270.835 31.192C270.835 28.4187 269.981 26.136 268.275 24.344C266.568 22.552 264.413 21.656 261.811 21.656C259.165 21.656 256.989 22.552 255.283 24.344C253.619 26.0933 252.787 28.3547 252.787 31.128C252.787 33.9013 253.619 36.184 255.283 37.976C256.989 39.7253 259.165 40.6 261.811 40.6ZM295.417 47.768C292.686 47.768 290.446 47.3413 288.697 46.488C286.947 45.592 285.646 44.4187 284.793 42.968C283.939 41.5173 283.513 39.9173 283.513 38.168C283.513 35.224 284.665 32.8347 286.969 31C289.273 29.1653 292.729 28.248 297.337 28.248H305.401V27.48C305.401 25.304 304.782 23.704 303.545 22.68C302.307 21.656 300.771 21.144 298.937 21.144C297.273 21.144 295.822 21.5493 294.585 22.36C293.347 23.128 292.579 24.28 292.281 25.816H284.281C284.494 23.512 285.262 21.5067 286.585 19.8C287.95 18.0933 289.699 16.792 291.833 15.896C293.966 14.9573 296.355 14.488 299.001 14.488C303.523 14.488 307.086 15.6187 309.689 17.88C312.291 20.1413 313.593 23.3413 313.593 27.48V47H306.617L305.849 41.88C304.91 43.5867 303.587 44.9947 301.881 46.104C300.217 47.2133 298.062 47.768 295.417 47.768ZM297.273 41.368C299.619 41.368 301.433 40.6 302.713 39.064C304.035 37.528 304.867 35.6293 305.209 33.368H298.233C296.057 33.368 294.499 33.7733 293.561 34.584C292.622 35.352 292.153 36.312 292.153 37.464C292.153 38.7013 292.622 39.6613 293.561 40.344C294.499 41.0267 295.737 41.368 297.273 41.368ZM332.85 37.528C331.314 37.528 329.885 37.3573 328.562 37.016L326.194 39.384C326.919 39.768 327.901 40.088 329.138 40.344C330.375 40.6 332.381 40.856 335.154 41.112C339.378 41.496 342.45 42.4987 344.37 44.12C346.29 45.7413 347.25 47.9813 347.25 50.84C347.25 52.7173 346.738 54.488 345.714 56.152C344.69 57.8587 343.111 59.224 340.978 60.248C338.845 61.3147 336.114 61.848 332.786 61.848C328.263 61.848 324.615 60.9947 321.842 59.288C319.069 57.624 317.682 55.1067 317.682 51.736C317.682 48.8773 319.069 46.4027 321.842 44.312C320.989 43.928 320.242 43.5227 319.602 43.096C319.005 42.6693 318.471 42.2213 318.002 41.752V40.28L323.57 34.392C321.095 32.216 319.858 29.4213 319.858 26.008C319.858 23.8747 320.37 21.9333 321.394 20.184C322.461 18.4347 323.954 17.048 325.874 16.024C327.794 15 330.119 14.488 332.85 14.488C334.642 14.488 336.306 14.744 337.842 15.256H349.874V20.248L344.434 20.632C345.287 22.2533 345.714 24.0453 345.714 26.008C345.714 28.1413 345.202 30.0827 344.178 31.832C343.154 33.5813 341.661 34.968 339.698 35.992C337.778 37.016 335.495 37.528 332.85 37.528ZM332.85 31.256C334.514 31.256 335.879 30.808 336.946 29.912C338.055 29.016 338.61 27.736 338.61 26.072C338.61 24.408 338.055 23.128 336.946 22.232C335.879 21.336 334.514 20.888 332.85 20.888C331.101 20.888 329.693 21.336 328.626 22.232C327.559 23.128 327.026 24.408 327.026 26.072C327.026 27.736 327.559 29.016 328.626 29.912C329.693 30.808 331.101 31.256 332.85 31.256ZM325.17 50.904C325.17 52.4827 325.895 53.656 327.346 54.424C328.839 55.2347 330.653 55.64 332.786 55.64C334.834 55.64 336.498 55.2133 337.778 54.36C339.058 53.5493 339.698 52.44 339.698 51.032C339.698 49.88 339.271 48.92 338.418 48.152C337.607 47.384 335.965 46.9147 333.49 46.744C331.741 46.616 330.119 46.424 328.626 46.168C327.389 46.8507 326.493 47.5973 325.938 48.408C325.426 49.2187 325.17 50.0507 325.17 50.904ZM368.022 47.768C364.822 47.768 361.984 47.0853 359.51 45.72C357.035 44.3547 355.094 42.4347 353.686 39.96C352.278 37.4853 351.574 34.6267 351.574 31.384C351.574 28.0987 352.256 25.176 353.622 22.616C355.03 20.056 356.95 18.072 359.382 16.664C361.856 15.2133 364.758 14.488 368.086 14.488C371.2 14.488 373.952 15.1707 376.342 16.536C378.731 17.9013 380.587 19.7787 381.91 22.168C383.275 24.5147 383.958 27.1387 383.958 30.04C383.958 30.5093 383.936 31 383.894 31.512C383.894 32.024 383.872 32.5573 383.83 33.112H359.702C359.872 35.5867 360.726 37.528 362.262 38.936C363.84 40.344 365.739 41.048 367.958 41.048C369.622 41.048 371.008 40.6853 372.118 39.96C373.27 39.192 374.123 38.2107 374.678 37.016H382.998C382.4 39.0213 381.398 40.856 379.99 42.52C378.624 44.1413 376.918 45.4213 374.87 46.36C372.864 47.2987 370.582 47.768 368.022 47.768ZM368.086 21.144C366.08 21.144 364.31 21.72 362.774 22.872C361.238 23.9813 360.256 25.688 359.83 27.992H375.638C375.51 25.9013 374.742 24.2373 373.334 23C371.926 21.7627 370.176 21.144 368.086 21.144ZM401.968 47.768C399.152 47.768 396.677 47.32 394.544 46.424C392.41 45.4853 390.704 44.2053 389.424 42.584C388.144 40.9627 387.376 39.0853 387.12 36.952H395.376C395.632 38.1893 396.314 39.256 397.424 40.152C398.576 41.0053 400.048 41.432 401.84 41.432C403.632 41.432 404.933 41.0693 405.744 40.344C406.597 39.6187 407.024 38.7867 407.024 37.848C407.024 36.4827 406.426 35.5653 405.232 35.096C404.037 34.584 402.373 34.0933 400.24 33.624C398.874 33.3253 397.488 32.9627 396.08 32.536C394.672 32.1093 393.37 31.576 392.176 30.936C391.024 30.2533 390.085 29.4 389.36 28.376C388.634 27.3093 388.272 26.008 388.272 24.472C388.272 21.656 389.381 19.288 391.6 17.368C393.861 15.448 397.018 14.488 401.072 14.488C404.826 14.488 407.813 15.3627 410.032 17.112C412.293 18.8613 413.637 21.272 414.064 24.344H406.32C405.85 21.9973 404.08 20.824 401.008 20.824C399.472 20.824 398.277 21.1227 397.424 21.72C396.613 22.3173 396.208 23.064 396.208 23.96C396.208 24.8987 396.826 25.6453 398.064 26.2C399.301 26.7547 400.944 27.2667 402.992 27.736C405.21 28.248 407.237 28.824 409.072 29.464C410.949 30.0613 412.442 30.9787 413.552 32.216C414.661 33.4107 415.216 35.1387 415.216 37.4C415.258 39.3627 414.746 41.1333 413.68 42.712C412.613 44.2907 411.077 45.528 409.072 46.424C407.066 47.32 404.698 47.768 401.968 47.768Z" fill="#059669"/>
</svg>
