<svg width="57" height="544" viewBox="0 0 57 544" fill="none" xmlns="http://www.w3.org/2000/svg">
<mask id="mask0" mask-type="alpha" maskUnits="userSpaceOnUse" x="0" y="0" width="57" height="40">
<rect x="0.123291" width="55.9999" height="40" rx="4" fill="white"/>
</mask>
<g mask="url(#mask0)">
<rect x="0.123291" width="55.9999" height="40" fill="#043CAE"/>
<path fill-rule="evenodd" clip-rule="evenodd" d="M26.2387 8.70093L28.1243 8.14864L30.0099 8.70093L29.4577 6.81531L30.0099 4.92969L28.1243 5.48197L26.2387 4.92969L26.791 6.81531L26.2387 8.70093ZM26.2387 35.3474L28.1243 34.7951L30.0099 35.3474L29.4577 33.4617L30.0099 31.5761L28.1243 32.1284L26.2387 31.5761L26.791 33.4617L26.2387 35.3474ZM41.4561 21.4855L39.5705 22.0378L40.1227 20.1522L39.5705 18.2666L41.4561 18.8189L43.3417 18.2666L42.7894 20.1522L43.3417 22.0378L41.4561 21.4855ZM12.9055 22.0378L14.7911 21.4855L16.6768 22.0378L16.1245 20.1522L16.6768 18.2666L14.7911 18.8189L12.9055 18.2666L13.4578 20.1522L12.9055 22.0378ZM39.6728 14.8319L37.7871 15.3842L38.3394 13.4986L37.7871 11.6129L39.6728 12.1652L41.5584 11.6129L41.0061 13.4986L41.5584 15.3842L39.6728 14.8319ZM14.691 28.7097L16.5766 28.1574L18.4622 28.7097L17.9099 26.8241L18.4622 24.9384L16.5766 25.4907L14.691 24.9384L15.2433 26.8241L14.691 28.7097ZM34.7902 9.93965L32.9046 10.4919L33.4569 8.60632L32.9046 6.7207L34.7902 7.27298L36.6758 6.7207L36.1235 8.60632L36.6758 10.4919L34.7902 9.93965ZM19.5698 33.5609L21.4554 33.0086L23.3411 33.5609L22.7888 31.6753L23.3411 29.7897L21.4554 30.3419L19.5698 29.7897L20.1221 31.6753L19.5698 33.5609ZM39.6728 28.1574L37.7871 28.7097L38.3394 26.8241L37.7871 24.9384L39.6728 25.4907L41.5584 24.9384L41.0061 26.8241L41.5584 28.7097L39.6728 28.1574ZM14.691 15.3842L16.5766 14.8319L18.4622 15.3842L17.9099 13.4986L18.4622 11.6129L16.5766 12.1652L14.691 11.6129L15.2433 13.4986L14.691 15.3842ZM34.7902 33.0086L32.9046 33.5609L33.4569 31.6753L32.9046 29.7897L34.7902 30.3419L36.6758 29.7897L36.1235 31.6753L36.6758 33.5609L34.7902 33.0086ZM19.5698 10.4919L21.4554 9.93965L23.3411 10.4919L22.7888 8.60632L23.3411 6.7207L21.4554 7.27298L19.5698 6.7207L20.1221 8.60632L19.5698 10.4919Z" fill="#FFD429"/>
</g>
<mask id="mask1" mask-type="alpha" maskUnits="userSpaceOnUse" x="0" y="72" width="57" height="40">
<rect x="0.123291" y="72" width="55.9999" height="40" rx="4" fill="white"/>
</mask>
<g mask="url(#mask1)">
<rect x="0.123291" y="72" width="55.9999" height="40" fill="#0A17A7"/>
<path fill-rule="evenodd" clip-rule="evenodd" d="M-2.42259 68.207L21.4695 84.3224V69.4443H34.8028V84.4058L58.7039 68.2843L61.6863 72.7058L42.8007 85.4443H56.1361V98.7776H42.9001L61.6896 111.451L58.7073 115.873L34.8028 99.749V114.778H21.4695V99.8324L-2.42596 115.95L-5.40833 111.529L13.4958 98.7776H0.136178V85.4443H13.5951L-5.40496 72.6286L-2.42259 68.207Z" fill="white"/>
<path d="M37.4576 84.723L62.7883 68.0586" stroke="#DB1F35" stroke-width="0.666667" stroke-linecap="round"/>
<path d="M40.151 99.4737L62.8586 114.779" stroke="#DB1F35" stroke-width="0.666667" stroke-linecap="round"/>
<path d="M16.135 84.7168L-7.55103 68.7539" stroke="#DB1F35" stroke-width="0.666667" stroke-linecap="round"/>
<path d="M18.704 99.2549L-7.55103 116.666" stroke="#DB1F35" stroke-width="0.666667" stroke-linecap="round"/>
<path fill-rule="evenodd" clip-rule="evenodd" d="M0.123291 96H24.1232V112H32.1232V96H56.1232V88H32.1232V72H24.1232V88H0.123291V96Z" fill="#E6273E"/>
</g>
<mask id="mask2" mask-type="alpha" maskUnits="userSpaceOnUse" x="0" y="144" width="57" height="40">
<rect x="0.123291" y="144" width="55.9999" height="40" rx="4" fill="white"/>
</mask>
<g mask="url(#mask2)">
<path fill-rule="evenodd" clip-rule="evenodd" d="M56.1232 144H0.123341V146.667H56.1232V144ZM56.1244 149.343H0.124491V152.01H56.1244V149.343ZM0.124491 154.803H56.1244V157.47H0.124491V154.803ZM56.1236 160.174H0.123779V162.84H56.1236V160.174ZM0.124491 165.328H56.1244V167.995H0.124491V165.328ZM56.1244 170.713H0.124491V173.379H56.1244V170.713ZM0.122925 176.117H56.1228V178.784H0.122925V176.117ZM56.1244 181.365H0.124491V184.032H56.1244V181.365Z" fill="#D02F44"/>
<rect x="0.123291" y="144" width="24" height="18.6666" fill="#46467F"/>
<g filter="url(#filter0_d)">
<path fill-rule="evenodd" clip-rule="evenodd" d="M10.8224 147.884C10.8224 148.62 10.2254 149.217 9.48904 149.217C8.75266 149.217 8.15571 148.62 8.15571 147.884C8.15571 147.148 8.75266 146.551 9.48904 146.551C10.2254 146.551 10.8224 147.148 10.8224 147.884ZM5.48087 147.885C5.48087 148.622 4.88392 149.219 4.14754 149.219C3.41116 149.219 2.8142 148.622 2.8142 147.885C2.8142 147.149 3.41116 146.552 4.14754 146.552C4.88392 146.552 5.48087 147.149 5.48087 147.885ZM14.8225 149.217C15.5589 149.217 16.1558 148.62 16.1558 147.884C16.1558 147.148 15.5589 146.551 14.8225 146.551C14.0861 146.551 13.4892 147.148 13.4892 147.884C13.4892 148.62 14.0861 149.217 14.8225 149.217ZM21.4907 147.884C21.4907 148.62 20.8937 149.217 20.1574 149.217C19.421 149.217 18.824 148.62 18.824 147.884C18.824 147.148 19.421 146.551 20.1574 146.551C20.8937 146.551 21.4907 147.148 21.4907 147.884ZM6.8189 151.792C7.55528 151.792 8.15224 151.195 8.15224 150.459C8.15224 149.723 7.55528 149.126 6.8189 149.126C6.08252 149.126 5.48557 149.723 5.48557 150.459C5.48557 151.195 6.08252 151.792 6.8189 151.792ZM13.4898 150.459C13.4898 151.195 12.8929 151.792 12.1565 151.792C11.4201 151.792 10.8231 151.195 10.8231 150.459C10.8231 149.723 11.4201 149.126 12.1565 149.126C12.8929 149.126 13.4898 149.723 13.4898 150.459ZM17.4905 151.792C18.2269 151.792 18.8238 151.195 18.8238 150.459C18.8238 149.723 18.2269 149.126 17.4905 149.126C16.7541 149.126 16.1572 149.723 16.1572 150.459C16.1572 151.195 16.7541 151.792 17.4905 151.792ZM21.4898 153.266C21.4898 154.003 20.8929 154.6 20.1565 154.6C19.4201 154.6 18.8232 154.003 18.8232 153.266C18.8232 152.53 19.4201 151.933 20.1565 151.933C20.8929 151.933 21.4898 152.53 21.4898 153.266ZM14.8213 154.6C15.5577 154.6 16.1547 154.003 16.1547 153.266C16.1547 152.53 15.5577 151.933 14.8213 151.933C14.085 151.933 13.488 152.53 13.488 153.266C13.488 154.003 14.085 154.6 14.8213 154.6ZM10.8212 153.266C10.8212 154.003 10.2243 154.6 9.4879 154.6C8.75152 154.6 8.15457 154.003 8.15457 153.266C8.15457 152.53 8.75152 151.933 9.4879 151.933C10.2243 151.933 10.8212 152.53 10.8212 153.266ZM4.14705 154.6C4.88343 154.6 5.48039 154.003 5.48039 153.266C5.48039 152.53 4.88343 151.933 4.14705 151.933C3.41067 151.933 2.81372 152.53 2.81372 153.266C2.81372 154.003 3.41067 154.6 4.14705 154.6ZM8.15181 155.821C8.15181 156.557 7.55485 157.154 6.81848 157.154C6.0821 157.154 5.48514 156.557 5.48514 155.821C5.48514 155.084 6.0821 154.487 6.81848 154.487C7.55485 154.487 8.15181 155.084 8.15181 155.821ZM12.1559 157.154C12.8923 157.154 13.4892 156.557 13.4892 155.821C13.4892 155.084 12.8923 154.487 12.1559 154.487C11.4195 154.487 10.8226 155.084 10.8226 155.821C10.8226 156.557 11.4195 157.154 12.1559 157.154ZM18.8231 155.821C18.8231 156.557 18.2262 157.154 17.4898 157.154C16.7534 157.154 16.1564 156.557 16.1564 155.821C16.1564 155.084 16.7534 154.487 17.4898 154.487C18.2262 154.487 18.8231 155.084 18.8231 155.821ZM20.1574 159.809C20.8937 159.809 21.4907 159.212 21.4907 158.475C21.4907 157.739 20.8937 157.142 20.1574 157.142C19.421 157.142 18.824 157.739 18.824 158.475C18.824 159.212 19.421 159.809 20.1574 159.809ZM16.1558 158.475C16.1558 159.212 15.5589 159.809 14.8225 159.809C14.0861 159.809 13.4892 159.212 13.4892 158.475C13.4892 157.739 14.0861 157.142 14.8225 157.142C15.5589 157.142 16.1558 157.739 16.1558 158.475ZM9.48904 159.809C10.2254 159.809 10.8224 159.212 10.8224 158.475C10.8224 157.739 10.2254 157.142 9.48904 157.142C8.75266 157.142 8.15571 157.739 8.15571 158.475C8.15571 159.212 8.75266 159.809 9.48904 159.809ZM5.48153 158.475C5.48153 159.212 4.88457 159.809 4.14819 159.809C3.41181 159.809 2.81486 159.212 2.81486 158.475C2.81486 157.739 3.41181 157.142 4.14819 157.142C4.88457 157.142 5.48153 157.739 5.48153 158.475Z" fill="url(#paint0_linear)"/>
</g>
</g>
<mask id="mask3" mask-type="alpha" maskUnits="userSpaceOnUse" x="0" y="216" width="57" height="40">
<rect x="0.373291" y="216.25" width="55.4999" height="39.5" rx="3.75" fill="white" stroke="white" stroke-width="0.5"/>
</mask>
<g mask="url(#mask3)">
<rect x="40.1364" y="216" width="16" height="40" fill="#FF3131"/>
<path fill-rule="evenodd" clip-rule="evenodd" d="M0.123291 256H16.1233V216H0.123291V256Z" fill="#FF3131"/>
<path fill-rule="evenodd" clip-rule="evenodd" d="M31.5719 235.387C31.3387 235.62 30.9447 235.409 31.0093 235.086L32.1268 229.499L29.4601 230.832L28.1268 226.832L26.7934 230.832L24.1268 229.499L25.2442 235.086C25.3089 235.409 24.9148 235.62 24.6816 235.387L23.0292 233.734C22.899 233.604 22.6879 233.604 22.5577 233.734L21.4601 234.832L18.7935 233.499L20.1268 236.165L19.0292 237.263C18.899 237.393 18.899 237.604 19.0292 237.734L22.7934 241.499H26.7934L27.4601 245.499H28.7934L29.4601 241.499H33.4601L37.2244 237.734C37.3546 237.604 37.3546 237.393 37.2244 237.263L36.1268 236.165L37.4601 233.499L34.7934 234.832L33.6958 233.734C33.5656 233.604 33.3546 233.604 33.2244 233.734L31.5719 235.387Z" fill="#FF3131"/>
</g>
<mask id="mask4" mask-type="alpha" maskUnits="userSpaceOnUse" x="0" y="288" width="56" height="40">
<rect x="0.123291" y="288" width="55.8488" height="40" rx="4" fill="white"/>
</mask>
<g mask="url(#mask4)">
<rect x="0.123291" y="288" width="55.8488" height="40" fill="#0A17A7"/>
<path d="M0.123291 287.667H-0.775951L-0.093977 288.253L9.09811 296.153V298.495L-0.0708014 305.062L-0.210042 305.162V305.333V306.667V307.269L0.3003 306.949L10.857 300.333H13.3136L22.4477 306.875C22.5609 306.956 22.6966 307 22.8359 307H23.1593C23.7778 307 24.0629 306.231 23.5938 305.828L15.0837 298.514V296.171L24.1134 289.704C24.2882 289.579 24.3919 289.377 24.3919 289.162V288V287.398L23.8815 287.718L13.3248 294.333H10.8682L1.64712 287.729L1.56008 287.667H1.45303H0.123291Z" fill="#FF2E3B" stroke="white" stroke-width="0.666667"/>
<path fill-rule="evenodd" clip-rule="evenodd" d="M0.123291 294.667V300H9.43145V307.333C9.43145 307.702 9.72993 308 10.0981 308H14.0837C14.4519 308 14.7504 307.702 14.7504 307.333V300H24.7216C25.0898 300 25.3883 299.702 25.3883 299.333V295.333C25.3883 294.965 25.0898 294.667 24.7216 294.667H14.7504V288H9.43145V294.667H0.123291Z" fill="url(#paint1_linear)"/>
<path fill-rule="evenodd" clip-rule="evenodd" d="M0.123291 296H10.7612V294.667V288H13.4206V294.667V296H24.0585V298.667H13.4206V300V306.667H10.7612V300V298.667H0.123291V296Z" fill="url(#paint2_linear)"/>
<path fill-rule="evenodd" clip-rule="evenodd" d="M12.0869 320.477L9.74206 321.713L10.1899 319.095L8.2929 317.24L10.9145 316.859L12.0869 314.477L13.2593 316.859L15.8808 317.24L13.9838 319.095L14.4317 321.713L12.0869 320.477Z" fill="white"/>
<path fill-rule="evenodd" clip-rule="evenodd" d="M40.0267 322.453L38.1461 323.005L38.6969 321.12L38.1461 319.234L40.0267 319.786L41.9072 319.234L41.3564 321.12L41.9072 323.005L40.0267 322.453Z" fill="white"/>
<path fill-rule="evenodd" clip-rule="evenodd" d="M40.0267 297.131L38.1461 297.683L38.6969 295.798L38.1461 293.912L40.0267 294.464L41.9072 293.912L41.3564 295.798L41.9072 297.683L40.0267 297.131Z" fill="white"/>
<path fill-rule="evenodd" clip-rule="evenodd" d="M48.0057 305.236L46.1251 305.789L46.6759 303.903L46.1251 302.017L48.0057 302.57L49.8862 302.017L49.3354 303.903L49.8862 305.789L48.0057 305.236Z" fill="white"/>
<path fill-rule="evenodd" clip-rule="evenodd" d="M32.0477 307.967L30.1671 308.519L30.7179 306.633L30.1671 304.748L32.0477 305.3L33.9282 304.748L33.3774 306.633L33.9282 308.519L32.0477 307.967Z" fill="white"/>
<path fill-rule="evenodd" clip-rule="evenodd" d="M44.1155 311.499L43.1051 311.795L43.4011 310.782L43.1051 309.769L44.1155 310.066L45.1258 309.769L44.8299 310.782L45.1258 311.795L44.1155 311.499Z" fill="white"/>
</g>
<rect x="0.123291" y="360" width="55.9999" height="40" rx="4" fill="#7EDCE2"/>
<rect x="0.123291" y="432" width="55.9999" height="40" rx="4" fill="#AFECEF"/>
<rect x="0.123291" y="504" width="55.9999" height="40" rx="4" fill="#D5F5F6"/>
<defs>
<filter id="filter0_d" x="2.81372" y="146.551" width="18.677" height="14.2578" filterUnits="userSpaceOnUse" color-interpolation-filters="sRGB">
<feFlood flood-opacity="0" result="BackgroundImageFix"/>
<feColorMatrix in="SourceAlpha" type="matrix" values="0 0 0 0 0 0 0 0 0 0 0 0 0 0 0 0 0 0 127 0"/>
<feOffset dy="1"/>
<feColorMatrix type="matrix" values="0 0 0 0 0 0 0 0 0 0 0 0 0 0 0 0 0 0 0.06 0"/>
<feBlend mode="normal" in2="BackgroundImageFix" result="effect1_dropShadow"/>
<feBlend mode="normal" in="SourceGraphic" in2="effect1_dropShadow" result="shape"/>
</filter>
<linearGradient id="paint0_linear" x1="2.81372" y1="146.551" x2="2.81372" y2="159.809" gradientUnits="userSpaceOnUse">
<stop stop-color="white"/>
<stop offset="1" stop-color="#F0F0F0"/>
</linearGradient>
<linearGradient id="paint1_linear" x1="0.123291" y1="288" x2="0.123291" y2="308" gradientUnits="userSpaceOnUse">
<stop stop-color="white"/>
<stop offset="1" stop-color="#F0F0F0"/>
</linearGradient>
<linearGradient id="paint2_linear" x1="0.123291" y1="288" x2="0.123291" y2="306.667" gradientUnits="userSpaceOnUse">
<stop stop-color="#FF2E3B"/>
<stop offset="1" stop-color="#FC0D1B"/>
</linearGradient>
</defs>
</svg>
