<svg width="1100" height="414" viewBox="0 0 1100 414" fill="none" xmlns="http://www.w3.org/2000/svg">
<path d="M0 183.859V5.10719H68.741C87.6621 5.10719 101.983 9.44831 111.704 18.1305C121.425 26.8128 126.285 37.7081 126.285 50.8166C126.285 62.2227 123.161 71.3305 116.912 78.1401C110.663 84.7794 103.111 89.2908 94.2585 91.6741C101.202 93.0361 107.364 95.7599 112.746 99.8457C118.3 103.931 122.64 109.039 125.765 115.167C128.889 121.296 130.452 127.935 130.452 135.085C130.452 144.278 128.108 152.62 123.421 160.111C118.908 167.431 112.225 173.219 103.372 177.475C94.5188 181.731 83.6696 183.859 70.824 183.859H0ZM27.6005 81.7151H65.356C75.9449 81.7151 84.0167 79.3318 89.5716 74.565C95.1264 69.6281 97.9038 62.9036 97.9038 54.3916C97.9038 46.0499 95.1264 39.4105 89.5716 34.4736C84.1903 29.5366 75.9449 27.0681 64.8352 27.0681H27.6005V81.7151ZM27.6005 161.643H67.1787C78.2883 161.643 86.881 159.089 92.9566 153.982C99.2057 148.875 102.33 141.725 102.33 132.532C102.33 123.339 99.1189 116.104 92.6962 110.826C86.2734 105.378 77.594 102.655 66.6579 102.655H27.6005V161.643Z" fill="#9AA5B7"/>
<path d="M207.053 186.923C194.728 186.923 183.618 184.2 173.724 178.752C164.003 173.134 156.278 165.388 150.55 155.514C144.821 145.47 141.957 133.809 141.957 120.53C141.957 107.251 144.821 95.6748 150.55 85.8009C156.452 75.7567 164.35 68.0108 174.245 62.5631C184.139 56.9452 195.162 54.1363 207.313 54.1363C219.638 54.1363 230.661 56.9452 240.382 62.5631C250.276 68.0108 258.088 75.7567 263.816 85.8009C269.718 95.6748 272.669 107.251 272.669 120.53C272.669 133.809 269.718 145.47 263.816 155.514C258.088 165.388 250.276 173.134 240.382 178.752C230.487 184.2 219.378 186.923 207.053 186.923ZM207.053 163.686C213.649 163.686 219.725 162.068 225.28 158.834C231.008 155.599 235.608 150.833 239.08 144.534C242.552 138.065 244.288 130.063 244.288 120.53C244.288 110.996 242.552 103.08 239.08 96.7813C235.782 90.3122 231.268 85.4604 225.54 82.2258C219.985 78.9913 213.91 77.374 207.313 77.374C200.717 77.374 194.555 78.9913 188.826 82.2258C183.271 85.4604 178.758 90.3122 175.286 96.7813C171.814 103.08 170.079 110.996 170.079 120.53C170.079 130.063 171.814 138.065 175.286 144.534C178.758 150.833 183.271 155.599 188.826 158.834C194.381 162.068 200.457 163.686 207.053 163.686Z" fill="#9AA5B7"/>
<path d="M289.499 183.859V0H317.099V77.6294C321.439 70.3091 327.428 64.606 335.065 60.5203C342.877 56.2643 351.47 54.1363 360.843 54.1363C376.293 54.1363 388.444 58.903 397.297 68.4364C406.15 77.9698 410.576 92.1849 410.576 111.081V183.859H383.236V113.89C383.236 89.3759 373.255 77.1187 353.292 77.1187C342.877 77.1187 334.197 80.6937 327.254 87.8438C320.484 94.9938 317.099 105.208 317.099 118.487V183.859H289.499Z" fill="#9AA5B7"/>
<path d="M490.473 186.923C477.801 186.923 466.518 184.2 456.623 178.752C446.902 173.134 439.265 165.388 433.71 155.514C428.155 145.64 425.377 134.149 425.377 121.041C425.377 107.762 428.068 96.1004 433.449 86.0562C439.004 76.0121 446.642 68.1811 456.363 62.5631C466.258 56.9452 477.714 54.1363 490.733 54.1363C503.405 54.1363 514.428 56.9452 523.802 62.5631C533.176 68.0108 540.466 75.3311 545.674 84.5241C550.882 93.717 553.486 103.846 553.486 114.912C553.486 116.614 553.399 118.487 553.225 120.53C553.225 122.402 553.138 124.53 552.965 126.914H452.457C453.325 139.171 457.405 148.534 464.695 155.003C472.16 161.302 480.752 164.452 490.473 164.452C498.285 164.452 504.794 162.749 510.002 159.344C515.383 155.769 519.376 151.003 521.979 145.044H549.58C546.108 156.961 539.165 166.92 528.749 174.921C518.508 182.923 505.749 186.923 490.473 186.923ZM490.473 76.3526C481.273 76.3526 473.114 79.0764 465.997 84.5241C458.88 89.8015 454.54 97.8028 452.978 108.528H525.885C525.364 98.654 521.806 90.823 515.209 85.0348C508.613 79.2466 500.368 76.3526 490.473 76.3526Z" fill="#9AA5B7"/>
<path d="M569.104 183.859V57.2006H593.58L595.924 75.0758C600.09 68.6067 605.558 63.4995 612.328 59.7542C619.272 56.0089 627.257 54.1363 636.283 54.1363C656.767 54.1363 671.001 62.0524 678.986 77.8847C683.673 70.5644 689.922 64.7763 697.733 60.5203C705.719 56.2643 714.311 54.1363 723.511 54.1363C739.655 54.1363 752.327 58.903 761.527 68.4364C770.727 77.9698 775.327 92.1849 775.327 111.081V183.859H747.727V113.89C747.727 89.3759 738.18 77.1187 719.085 77.1187C709.364 77.1187 701.379 80.6937 695.13 87.8438C689.054 94.9938 686.016 105.208 686.016 118.487V183.859H658.416V113.89C658.416 89.3759 648.782 77.1187 629.513 77.1187C619.966 77.1187 612.068 80.6937 605.818 87.8438C599.743 94.9938 596.705 105.208 596.705 118.487V183.859H569.104Z" fill="#9AA5B7"/>
<path d="M810.223 33.1968C805.015 33.1968 800.675 31.6646 797.204 28.6003C793.905 25.3657 792.256 21.3651 792.256 16.5984C792.256 11.8317 793.905 7.91615 797.204 4.85183C800.675 1.61728 805.015 0 810.223 0C815.43 0 819.683 1.61728 822.982 4.85183C826.453 7.91615 828.189 11.8317 828.189 16.5984C828.189 21.3651 826.453 25.3657 822.982 28.6003C819.683 31.6646 815.43 33.1968 810.223 33.1968ZM796.422 183.859V57.2006H824.023V183.859H796.422Z" fill="#9AA5B7"/>
<path d="M908.629 186.923C895.957 186.923 884.587 184.114 874.519 178.496C864.624 172.879 856.813 165.133 851.084 155.259C845.53 145.215 842.752 133.638 842.752 120.53C842.752 107.421 845.53 95.9301 851.084 86.0562C856.813 76.0121 864.624 68.1811 874.519 62.5631C884.587 56.9452 895.957 54.1363 908.629 54.1363C924.599 54.1363 937.965 58.222 948.728 66.3935C959.664 74.565 966.694 85.6306 969.819 99.5903H940.916C939.181 92.6105 935.362 87.1628 929.46 83.2473C923.558 79.3318 916.614 77.374 908.629 77.374C901.859 77.374 895.61 79.0764 889.881 82.4812C884.153 85.7158 879.553 90.5676 876.081 97.0367C872.609 103.336 870.874 111.167 870.874 120.53C870.874 129.893 872.609 137.809 876.081 144.278C879.553 150.577 884.153 155.429 889.881 158.834C895.61 162.239 901.859 163.941 908.629 163.941C916.614 163.941 923.558 161.983 929.46 158.068C935.362 154.152 939.181 148.619 940.916 141.469H969.819C966.868 155.088 959.924 166.069 948.988 174.411C938.052 182.752 924.599 186.923 908.629 186.923Z" fill="#9AA5B7"/>
<path d="M1030.48 186.923C1019.54 186.923 1010.52 185.136 1003.4 181.561C996.281 177.986 990.987 173.304 987.515 167.516C984.043 161.558 982.307 155.089 982.307 148.109C982.307 135.851 987.167 126.148 996.888 118.998C1006.61 111.848 1020.5 108.273 1038.55 108.273H1072.4V105.974C1072.4 96.1004 1069.62 88.695 1064.07 83.758C1058.69 78.821 1051.66 76.3526 1042.98 76.3526C1035.34 76.3526 1028.66 78.2252 1022.93 81.9705C1017.37 85.5455 1013.99 90.9081 1012.77 98.0581H985.171C986.039 88.8652 989.164 81.0342 994.545 74.565C1000.1 67.9257 1007.04 62.9036 1015.38 59.4988C1023.88 55.9238 1033.17 54.1363 1043.24 54.1363C1061.29 54.1363 1075.26 58.8179 1085.16 68.1811C1095.05 77.374 1100 89.9717 1100 105.974V183.859H1076.04L1073.7 162.153C1070.06 169.133 1064.76 175.007 1057.82 179.773C1050.87 184.54 1041.76 186.923 1030.48 186.923ZM1035.95 164.962C1043.41 164.962 1049.66 163.26 1054.69 159.855C1059.9 156.28 1063.89 151.599 1066.67 145.81C1069.62 140.022 1071.44 133.638 1072.14 126.658H1041.41C1030.48 126.658 1022.67 128.531 1017.98 132.276C1013.47 136.022 1011.21 140.703 1011.21 146.321C1011.21 152.109 1013.38 156.706 1017.72 160.111C1022.23 163.345 1028.31 164.962 1035.95 164.962Z" fill="#9AA5B7"/>
<path d="M67.4391 413.902C54.0728 413.902 42.3555 411.604 32.2874 407.007C22.2193 402.411 14.321 395.856 8.59263 387.344C3.0378 378.832 0.173589 368.703 0 356.957H29.1629C29.3365 366.49 32.7213 374.576 39.3177 381.216C45.9141 387.855 55.201 391.175 67.1786 391.175C77.7675 391.175 86.0129 388.706 91.9149 383.769C97.9905 378.662 101.028 372.193 101.028 364.362C101.028 358.063 99.5529 352.956 96.6019 349.04C93.8244 345.125 89.9187 341.89 84.8846 339.337C80.0241 336.783 74.3826 334.485 67.9598 332.442C61.5371 330.399 54.7671 328.186 47.65 325.803C33.5893 321.206 23.0004 315.248 15.8833 307.928C8.93979 300.607 5.46802 290.989 5.46802 279.072C5.29443 269.028 7.63787 260.26 12.4983 252.77C17.5324 245.279 24.4759 239.491 33.3289 235.405C42.3555 231.149 52.8576 229.021 64.8352 229.021C76.6392 229.021 86.9678 231.149 95.8208 235.405C104.847 239.661 111.878 245.62 116.912 253.281C121.946 260.771 124.55 269.538 124.723 279.583H95.5603C95.5603 274.986 94.3452 270.645 91.9149 266.559C89.4847 262.303 85.9262 258.813 81.2393 256.09C76.5524 253.366 70.8241 252.004 64.0541 252.004C55.3747 251.834 48.1707 253.962 42.4423 258.388C36.8875 262.814 34.1101 268.943 34.1101 276.774C34.1101 283.754 36.1931 289.116 40.3593 292.861C44.5254 296.607 50.2538 299.756 57.5445 302.31C64.8352 304.693 73.1674 307.502 82.5412 310.737C91.5678 313.631 99.6397 317.121 106.757 321.206C113.874 325.292 119.516 330.655 123.682 337.294C128.021 343.933 130.191 352.36 130.191 362.575C130.191 371.597 127.848 380.024 123.161 387.855C118.474 395.516 111.444 401.815 102.07 406.752C92.6961 411.519 81.1526 413.902 67.4391 413.902Z" fill="#9AA5B7"/>
<path d="M200.466 410.838C187.794 410.838 177.726 407.858 170.262 401.9C162.797 395.771 159.065 384.961 159.065 369.469V306.906H136.933V284.179H159.065L162.45 252.004H186.666V284.179H223.119V306.906H186.666V369.469C186.666 376.449 188.141 381.301 191.092 384.025C194.217 386.578 199.511 387.855 206.976 387.855H221.817V410.838H200.466Z" fill="#9AA5B7"/>
<path d="M286.209 413.902C270.586 413.902 258.261 409.135 249.235 399.602C240.382 390.068 235.955 375.853 235.955 356.957V284.179H263.556V354.148C263.556 378.662 273.798 390.919 294.281 390.919C304.523 390.919 312.942 387.344 319.538 380.194C326.134 373.044 329.433 362.83 329.433 349.551V284.179H357.033V410.838H332.557L330.474 388.621C326.482 396.452 320.58 402.666 312.768 407.263C305.13 411.689 296.277 413.902 286.209 413.902Z" fill="#9AA5B7"/>
<path d="M437.971 413.902C425.473 413.902 414.45 411.008 404.903 405.22C395.356 399.431 387.891 391.515 382.51 381.471C377.129 371.427 374.438 360.021 374.438 347.253C374.438 334.485 377.129 323.164 382.51 313.29C387.891 303.246 395.356 295.415 404.903 289.797C414.624 284.009 425.733 281.115 438.232 281.115C448.473 281.115 457.413 283.073 465.051 286.988C472.863 290.904 478.938 296.436 483.278 303.586V226.979H510.878V410.838H486.142L483.278 391.175C479.112 397.133 473.383 402.411 466.093 407.007C458.802 411.604 449.428 413.902 437.971 413.902ZM442.919 390.409C454.723 390.409 464.357 386.408 471.821 378.407C479.459 370.406 483.278 360.106 483.278 347.508C483.278 334.74 479.459 324.441 471.821 316.61C464.357 308.609 454.723 304.608 442.919 304.608C431.115 304.608 421.394 308.609 413.756 316.61C406.118 324.441 402.299 334.74 402.299 347.508C402.299 355.85 404.035 363.256 407.507 369.725C410.978 376.194 415.752 381.301 421.828 385.046C428.077 388.621 435.107 390.409 442.919 390.409Z" fill="#9AA5B7"/>
<path d="M548.282 260.175C543.074 260.175 538.735 258.643 535.263 255.579C531.965 252.344 530.316 248.344 530.316 243.577C530.316 238.81 531.965 234.895 535.263 231.83C538.735 228.596 543.074 226.979 548.282 226.979C553.49 226.979 557.743 228.596 561.041 231.83C564.513 234.895 566.248 238.81 566.248 243.577C566.248 248.344 564.513 252.344 561.041 255.579C557.743 258.643 553.49 260.175 548.282 260.175ZM534.482 410.838V284.179H562.082V410.838H534.482Z" fill="#9AA5B7"/>
<path d="M645.907 413.902C633.582 413.902 622.473 411.178 612.578 405.73C602.857 400.112 595.133 392.367 589.404 382.493C583.676 372.448 580.811 360.787 580.811 347.508C580.811 334.23 583.676 322.653 589.404 312.779C595.306 302.735 603.204 294.989 613.099 289.542C622.993 283.924 634.016 281.115 646.167 281.115C658.492 281.115 669.515 283.924 679.236 289.542C689.13 294.989 696.942 302.735 702.67 312.779C708.572 322.653 711.524 334.23 711.524 347.508C711.524 360.787 708.572 372.448 702.67 382.493C696.942 392.367 689.13 400.112 679.236 405.73C669.341 411.178 658.232 413.902 645.907 413.902ZM645.907 390.664C652.503 390.664 658.579 389.047 664.134 385.812C669.862 382.578 674.463 377.811 677.934 371.512C681.406 365.043 683.142 357.042 683.142 347.508C683.142 337.975 681.406 330.059 677.934 323.76C674.636 317.291 670.123 312.439 664.394 309.204C658.839 305.97 652.764 304.353 646.167 304.353C639.571 304.353 633.409 305.97 627.68 309.204C622.126 312.439 617.612 317.291 614.141 323.76C610.669 330.059 608.933 337.975 608.933 347.508C608.933 357.042 610.669 365.043 614.141 371.512C617.612 377.811 622.126 382.578 627.68 385.812C633.235 389.047 639.311 390.664 645.907 390.664Z" fill="#9AA5B7"/>
</svg>
