<svg fill="none" height="20" viewBox="0 0 28 20" width="28" xmlns="http://www.w3.org/2000/svg" xmlns:xlink="http://www.w3.org/1999/xlink"><filter id="a" color-interpolation-filters="sRGB" filterUnits="userSpaceOnUse" height="7.66667" width="9.33333" x="1.33333" y="1.33333"><feFlood flood-opacity="0" result="BackgroundImageFix"/><feColorMatrix in="SourceAlpha" type="matrix" values="0 0 0 0 0 0 0 0 0 0 0 0 0 0 0 0 0 0 127 0"/><feOffset dy="1"/><feColorMatrix type="matrix" values="0 0 0 0 0 0 0 0 0 0 0 0 0 0 0 0 0 0 0.06 0"/><feBlend in2="BackgroundImageFix" mode="normal" result="effect1_dropShadow"/><feBlend in="SourceGraphic" in2="effect1_dropShadow" mode="normal" result="shape"/></filter><linearGradient id="b" gradientUnits="userSpaceOnUse" x1="1.33333" x2="1.33333" y1="1.33333" y2="7.99999"><stop offset="0" stop-color="#fff"/><stop offset="1" stop-color="#f0f0f0"/></linearGradient><mask id="c" height="20" maskUnits="userSpaceOnUse" width="28" x="0" y="0"><rect fill="#fff" height="20" rx="2" width="28"/></mask><mask id="d" height="20" maskUnits="userSpaceOnUse" width="14" x="14" y="0"><path d="m26 20h-12v-20h14v18c0 1.1046-.8954 2-2 2z" fill="#fff"/></mask><g mask="url(#c)"><rect fill="#fff" height="20" rx="2" width="28"/><path clip-rule="evenodd" d="m28 0h-28v1.33333h28zm0 2.66667h-28v1.33333h28zm-28 2.66666h28v1.33334h-28zm28 2.66667h-28v1.33333h28zm-28 2.6667h28v1.3333h-28zm28 2.6666h-28v1.3334h28zm-28 2.6667h28v1.3333h-28zm28 2.6667h-28v1.3333h28z" fill="#d02f44" fill-rule="evenodd"/><path d="m0 0h12v9.33333h-12z" fill="#46467f"/><g filter="url(#a)"><path clip-rule="evenodd" d="m2.66667 1.99999c0 .36819-.29848.66667-.66667.66667s-.66667-.29848-.66667-.66667c0-.36818.29848-.66666.66667-.66666s.66667.29848.66667.66666zm2.66666 0c0 .36819-.29847.66667-.66666.66667s-.66667-.29848-.66667-.66667c0-.36818.29848-.66666.66667-.66666s.66666.29848.66666.66666zm2 .66667c.36819 0 .66667-.29848.66667-.66667 0-.36818-.29848-.66666-.66667-.66666s-.66666.29848-.66666.66666c0 .36819.29847.66667.66666.66667zm3.33337-.66667c0 .36819-.2985.66667-.6667.66667-.36819 0-.66667-.29848-.66667-.66667 0-.36818.29848-.66666.66667-.66666.3682 0 .6667.29848.6667.66666zm-7.33337 2c.36819 0 .66667-.29847.66667-.66666s-.29848-.66667-.66667-.66667-.66666.29848-.66666.66667.29847.66666.66666.66666zm3.33334-.66666c0 .36819-.29848.66666-.66667.66666s-.66667-.29847-.66667-.66666.29848-.66667.66667-.66667.66667.29848.66667.66667zm2 .66666c.36819 0 .66666-.29847.66666-.66666s-.29847-.66667-.66666-.66667-.66667.29848-.66667.66667.29848.66666.66667.66666zm2.00003.66667c0 .36819-.2985.66667-.6667.66667-.36819 0-.66667-.29848-.66667-.66667s.29848-.66667.66667-.66667c.3682 0 .6667.29848.6667.66667zm-3.33337.66667c.36819 0 .66667-.29848.66667-.66667s-.29848-.66667-.66667-.66667-.66666.29848-.66666.66667.29847.66667.66666.66667zm-2-.66667c0 .36819-.29847.66667-.66666.66667s-.66667-.29848-.66667-.66667.29848-.66667.66667-.66667.66666.29848.66666.66667zm-3.33333.66667c.36819 0 .66667-.29848.66667-.66667s-.29848-.66667-.66667-.66667-.66667.29848-.66667.66667.29848.66667.66667.66667zm2 .66666c0 .36819-.29848.66667-.66667.66667s-.66666-.29848-.66666-.66667.29847-.66666.66666-.66666.66667.29847.66667.66666zm2 .66667c.36819 0 .66667-.29848.66667-.66667s-.29848-.66666-.66667-.66666-.66667.29847-.66667.66666.29848.66667.66667.66667zm3.33333-.66667c0 .36819-.29847.66667-.66666.66667s-.66667-.29848-.66667-.66667.29848-.66666.66667-.66666.66666.29847.66666.66666zm.66667 2.00001c.3682 0 .6667-.29848.6667-.66667s-.2985-.66667-.6667-.66667c-.36819 0-.66667.29848-.66667.66667s.29848.66667.66667.66667zm-2-.66667c0 .36819-.29848.66667-.66667.66667s-.66666-.29848-.66666-.66667.29847-.66667.66666-.66667.66667.29848.66667.66667zm-3.33333.66667c.36819 0 .66666-.29848.66666-.66667s-.29847-.66667-.66666-.66667-.66667.29848-.66667.66667.29848.66667.66667.66667zm-2-.66667c0 .36819-.29848.66667-.66667.66667s-.66667-.29848-.66667-.66667.29848-.66667.66667-.66667.66667.29848.66667.66667z" fill="url(#b)" fill-rule="evenodd"/></g><g mask="url(#d)"><path d="m0 0h28v20h-28z" fill="#0a17a7"/><path clip-rule="evenodd" d="m-1.28247-1.91644 11.94917 8.05979v-7.47668h6.6666v7.47668l11.9492-8.05979 1.4912 2.210764-9.4474 6.372346h6.6737v6.66663h-6.6737l9.4474 6.3724-1.4912 2.2108-11.9492-8.0598v7.4766h-6.6666v-7.4766l-11.94917 8.0598-1.49118-2.2108 9.44739-6.3724h-6.67374v-6.66663h6.67374l-9.44739-6.372346z" fill="#fff" fill-rule="evenodd"/><path d="m18.668 6.33219 12.6653-8.33219" stroke="#db1f35" stroke-linecap="round" stroke-width=".666667"/><path d="m20.0128 13.6975 11.3538 7.6528" stroke="#db1f35" stroke-linecap="round" stroke-width=".666667"/><path clip-rule="evenodd" d="m0 12h12v8h4v-8h12v-4h-12v-8h-4v8h-12z" fill="#e6273e" fill-rule="evenodd"/></g><rect height="19.5" rx="1.75" stroke="#000" stroke-opacity=".1" stroke-width=".5" width="27.5" x=".25" y=".25"/></g></svg>