<svg width="204" height="48" viewBox="0 0 204 48" fill="none" xmlns="http://www.w3.org/2000/svg">
<path d="M14.5076 0.895508H0.895508V46.7467H14.5076V0.895508Z" fill="white"/>
<path fill-rule="evenodd" clip-rule="evenodd" d="M0 0H15.4031V47.6423H0V0ZM1.79106 1.79106V45.8512H13.6121V1.79106H1.79106Z" fill="#2E5BDC"/>
<path d="M15.224 47.1062C23.1374 47.1062 29.5525 40.6911 29.5525 32.7777C29.5525 24.8643 23.1374 18.4492 15.224 18.4492C7.3106 18.4492 0.895508 24.8643 0.895508 32.7777C0.895508 40.6911 7.3106 47.1062 15.224 47.1062Z" fill="white"/>
<path fill-rule="evenodd" clip-rule="evenodd" d="M15.224 19.3428C7.80521 19.3428 1.79106 25.357 1.79106 32.7758C1.79106 40.1946 7.80521 46.2088 15.224 46.2088C22.6429 46.2088 28.657 40.1946 28.657 32.7758C28.657 25.357 22.6429 19.3428 15.224 19.3428ZM0 32.7758C0 24.3678 6.81603 17.5518 15.224 17.5518C23.632 17.5518 30.4481 24.3678 30.4481 32.7758C30.4481 41.1838 23.632 47.9998 15.224 47.9998C6.81603 47.9998 0 41.1838 0 32.7758Z" fill="#2E5BDC"/>
<path d="M63.2246 18.4492H49.6125V46.748H63.2246V18.4492Z" fill="white"/>
<path fill-rule="evenodd" clip-rule="evenodd" d="M48.717 17.5518H64.1202V47.6416H48.717V17.5518ZM50.5081 19.3428V45.8505H62.3291V19.3428H50.5081Z" fill="#2E5BDC"/>
<path d="M48.8961 47.1062C56.8095 47.1062 63.2246 40.6911 63.2246 32.7777C63.2246 24.8643 56.8095 18.4492 48.8961 18.4492C40.9827 18.4492 34.5676 24.8643 34.5676 32.7777C34.5676 40.6911 40.9827 47.1062 48.8961 47.1062Z" fill="white"/>
<path fill-rule="evenodd" clip-rule="evenodd" d="M48.8962 19.3428C41.4773 19.3428 35.4632 25.357 35.4632 32.7758C35.4632 40.1946 41.4773 46.2088 48.8962 46.2088C56.315 46.2088 62.3291 40.1946 62.3291 32.7758C62.3291 25.357 56.315 19.3428 48.8962 19.3428ZM33.6721 32.7758C33.6721 24.3678 40.4882 17.5518 48.8962 17.5518C57.3042 17.5518 64.1202 24.3678 64.1202 32.7758C64.1202 41.1838 57.3042 47.9998 48.8962 47.9998C40.4882 47.9998 33.6721 41.1838 33.6721 32.7758Z" fill="#2E5BDC"/>
<path d="M71.8215 32.4195C71.8215 13.7925 100.12 13.7925 100.12 32.4195H71.8215Z" fill="white"/>
<path fill-rule="evenodd" clip-rule="evenodd" d="M72.7408 31.522H99.2016C98.9916 27.5658 97.3905 24.616 95.1082 22.6129C92.6395 20.4464 89.3208 19.3428 85.9712 19.3428C82.6216 19.3428 79.3029 20.4464 76.8342 22.6129C74.5519 24.616 72.9507 27.5658 72.7408 31.522ZM96.2896 21.2668C99.1443 23.7722 101.016 27.5138 101.016 32.4176V33.3131H70.9263V32.4176C70.9263 27.5138 72.7981 23.7722 75.6528 21.2668C78.4901 18.7766 82.2461 17.5518 85.9712 17.5518C89.6963 17.5518 93.4523 18.7766 96.2896 21.2668Z" fill="#2E5BDC"/>
<path d="M85.4336 18.4492H71.8215V46.748H85.4336V18.4492Z" fill="white"/>
<path fill-rule="evenodd" clip-rule="evenodd" d="M70.9263 17.5518H86.3294V47.6416H70.9263V17.5518ZM72.7173 19.3428V45.8505H84.5383V19.3428H72.7173Z" fill="#2E5BDC"/>
<path d="M120.18 0.895508H106.568V46.7467H120.18V0.895508Z" fill="white"/>
<path fill-rule="evenodd" clip-rule="evenodd" d="M105.673 0H121.076V47.6423H105.673V0ZM107.464 1.79106V45.8512H119.285V1.79106H107.464Z" fill="#2E5BDC"/>
<path d="M120.897 47.1062C128.81 47.1062 135.225 40.6911 135.225 32.7777C135.225 24.8643 128.81 18.4492 120.897 18.4492C112.983 18.4492 106.568 24.8643 106.568 32.7777C106.568 40.6911 112.983 47.1062 120.897 47.1062Z" fill="white"/>
<path fill-rule="evenodd" clip-rule="evenodd" d="M120.896 19.3428C113.478 19.3428 107.463 25.357 107.463 32.7758C107.463 40.1946 113.478 46.2088 120.896 46.2088C128.315 46.2088 134.329 40.1946 134.329 32.7758C134.329 25.357 128.315 19.3428 120.896 19.3428ZM105.672 32.7758C105.672 24.3678 112.488 17.5518 120.896 17.5518C129.304 17.5518 136.12 24.3678 136.12 32.7758C136.12 41.1838 129.304 47.9998 120.896 47.9998C112.488 47.9998 105.672 41.1838 105.672 32.7758Z" fill="#2E5BDC"/>
<path d="M168.897 18.4492H155.285V46.748H168.897V18.4492Z" fill="white"/>
<path fill-rule="evenodd" clip-rule="evenodd" d="M154.389 17.5518H169.793V47.6416H154.389V17.5518ZM156.18 19.3428V45.8505H168.001V19.3428H156.18Z" fill="#2E5BDC"/>
<path d="M154.569 47.1062C162.482 47.1062 168.897 40.6911 168.897 32.7777C168.897 24.8643 162.482 18.4492 154.569 18.4492C146.656 18.4492 140.24 24.8643 140.24 32.7777C140.24 40.6911 146.656 47.1062 154.569 47.1062Z" fill="white"/>
<path fill-rule="evenodd" clip-rule="evenodd" d="M154.569 19.3428C147.15 19.3428 141.136 25.357 141.136 32.7758C141.136 40.1946 147.15 46.2088 154.569 46.2088C161.988 46.2088 168.002 40.1946 168.002 32.7758C168.002 25.357 161.988 19.3428 154.569 19.3428ZM139.345 32.7758C139.345 24.3678 146.161 17.5518 154.569 17.5518C162.977 17.5518 169.793 24.3678 169.793 32.7758C169.793 41.1838 162.977 47.9998 154.569 47.9998C146.161 47.9998 139.345 41.1838 139.345 32.7758Z" fill="#2E5BDC"/>
<path d="M187.275 25.1283C187.275 25.3671 187.23 25.591 187.141 25.7999C187.052 26.0089 186.93 26.188 186.775 26.3372C186.62 26.4865 186.439 26.6059 186.231 26.6954C186.023 26.785 185.805 26.8298 185.579 26.8298C185.341 26.8298 185.121 26.785 184.919 26.6954C184.716 26.6059 184.538 26.4865 184.384 26.3372C184.229 26.188 184.107 26.0089 184.017 25.7999C183.928 25.591 183.884 25.3671 183.884 25.1283C183.884 24.8895 183.928 24.6656 184.017 24.4566C184.107 24.2477 184.229 24.0692 184.384 23.9193C184.538 23.77 184.716 23.6506 184.919 23.5611C185.121 23.4715 185.341 23.4268 185.579 23.4268C185.805 23.4268 186.023 23.4715 186.231 23.5611C186.439 23.6506 186.62 23.77 186.775 23.9193C186.93 24.0692 187.052 24.2477 187.141 24.4566C187.23 24.6656 187.275 24.8895 187.275 25.1283ZM183.444 28.3582H186.74V38.9971C186.74 39.618 186.573 40.0777 186.24 40.3762C185.906 40.6747 185.473 40.8239 184.937 40.8239H180.743V38.6747H183.955C184.312 38.6747 184.49 38.4777 184.49 38.0836V30.5074H183.444V28.3582Z" fill="#2E5BDC"/>
<path d="M190.976 30.8657C190.976 31.1522 191.124 31.3582 191.422 31.4836C191.719 31.6089 192.261 31.7134 193.045 31.797C193.95 31.8931 194.688 32.1642 195.259 32.6119C195.83 33.0597 196.116 33.6842 196.116 34.4836V34.5911C196.116 35.4753 195.795 36.1791 195.152 36.7045C194.509 37.2305 193.605 37.4926 192.439 37.4926C191.749 37.4926 191.16 37.403 190.672 37.2239C190.184 37.0448 189.78 36.8209 189.459 36.5523C189.137 36.2836 188.89 35.9857 188.718 35.6567C188.545 35.3284 188.429 35.009 188.37 34.6985L190.44 34.0179C190.535 34.4 190.735 34.7344 191.038 35.0209C191.342 35.3075 191.808 35.4508 192.439 35.4508C192.998 35.4508 193.382 35.3642 193.59 35.1911C193.798 35.0185 193.903 34.8305 193.903 34.6269C193.903 34.5081 193.876 34.3976 193.822 34.2955C193.769 34.1946 193.671 34.0985 193.528 34.009C193.385 33.9194 193.192 33.8454 192.947 33.7851C192.703 33.726 192.398 33.6776 192.029 33.6418C191.029 33.5582 190.235 33.2991 189.646 32.8627C189.057 32.4269 188.763 31.7857 188.763 30.9373V30.8298C188.763 30.3886 188.857 30 189.048 29.6656C189.238 29.3319 189.488 29.0477 189.798 28.8149C190.107 28.5821 190.464 28.4059 190.869 28.2865C191.273 28.1671 191.69 28.1074 192.118 28.1074C192.677 28.1074 193.162 28.1767 193.573 28.3134C193.983 28.4513 194.331 28.6298 194.617 28.8507C194.902 29.0722 195.134 29.3164 195.313 29.585C195.491 29.8537 195.627 30.1134 195.723 30.3642L193.689 31.188C193.581 30.8657 193.396 30.6125 193.135 30.4268C192.873 30.2424 192.534 30.1492 192.118 30.1492C191.737 30.1492 191.452 30.2185 191.261 30.3552C191.071 30.4925 190.976 30.6627 190.976 30.8657Z" fill="#2E5BDC"/>
<path d="M173.912 32.4195C173.912 13.7925 202.211 13.7925 202.211 32.4195C202.211 51.0466 173.912 51.0466 173.912 32.4195Z" fill="white"/>
<path fill-rule="evenodd" clip-rule="evenodd" d="M178.925 22.6129C176.473 24.7643 174.808 28.0078 174.808 32.4176C174.808 36.8273 176.473 40.0708 178.925 42.2222C181.393 44.3888 184.712 45.4923 188.062 45.4923C191.411 45.4923 194.73 44.3888 197.199 42.2222C199.65 40.0708 201.315 36.8273 201.315 32.4176C201.315 28.0078 199.65 24.7643 197.199 22.6129C194.73 20.4464 191.411 19.3428 188.062 19.3428C184.712 19.3428 181.393 20.4464 178.925 22.6129ZM198.38 21.2668C201.235 23.7722 203.106 27.5138 203.106 32.4176C203.106 37.3214 201.235 41.063 198.38 43.5684C195.543 46.0585 191.787 47.2834 188.062 47.2834C184.336 47.2834 180.58 46.0585 177.743 43.5684C174.888 41.063 173.017 37.3214 173.017 32.4176C173.017 27.5138 174.888 23.7722 177.743 21.2668C180.58 18.7766 184.336 17.5518 188.062 17.5518C191.787 17.5518 195.543 18.7766 198.38 21.2668Z" fill="#2E5BDC"/>
<path d="M187.275 25.1283C187.275 25.3671 187.23 25.591 187.141 25.7999C187.052 26.0089 186.93 26.188 186.775 26.3372C186.62 26.4865 186.439 26.6059 186.231 26.6954C186.023 26.785 185.805 26.8298 185.579 26.8298C185.341 26.8298 185.121 26.785 184.919 26.6954C184.716 26.6059 184.538 26.4865 184.384 26.3372C184.229 26.188 184.107 26.0089 184.017 25.7999C183.928 25.591 183.884 25.3671 183.884 25.1283C183.884 24.8895 183.928 24.6656 184.017 24.4566C184.107 24.2477 184.229 24.0692 184.384 23.9193C184.538 23.77 184.716 23.6506 184.919 23.5611C185.121 23.4715 185.341 23.4268 185.579 23.4268C185.805 23.4268 186.023 23.4715 186.231 23.5611C186.439 23.6506 186.62 23.77 186.775 23.9193C186.93 24.0692 187.052 24.2477 187.141 24.4566C187.23 24.6656 187.275 24.8895 187.275 25.1283ZM183.444 28.3582H186.74V38.9971C186.74 39.618 186.573 40.0777 186.24 40.3762C185.906 40.6747 185.473 40.8239 184.937 40.8239H180.743V38.6747H183.955C184.312 38.6747 184.49 38.4777 184.49 38.0836V30.5074H183.444V28.3582Z" fill="#2E5BDC"/>
<path d="M190.976 30.8657C190.976 31.1522 191.124 31.3582 191.422 31.4836C191.719 31.6089 192.261 31.7134 193.045 31.797C193.95 31.8931 194.688 32.1642 195.259 32.6119C195.83 33.0597 196.116 33.6842 196.116 34.4836V34.5911C196.116 35.4753 195.795 36.1791 195.152 36.7045C194.509 37.2305 193.605 37.4926 192.439 37.4926C191.749 37.4926 191.16 37.403 190.672 37.2239C190.184 37.0448 189.78 36.8209 189.459 36.5523C189.137 36.2836 188.89 35.9857 188.718 35.6567C188.545 35.3284 188.429 35.009 188.37 34.6985L190.44 34.0179C190.535 34.4 190.735 34.7344 191.038 35.0209C191.342 35.3075 191.808 35.4508 192.439 35.4508C192.998 35.4508 193.382 35.3642 193.59 35.1911C193.798 35.0185 193.903 34.8305 193.903 34.6269C193.903 34.5081 193.876 34.3976 193.822 34.2955C193.769 34.1946 193.671 34.0985 193.528 34.009C193.385 33.9194 193.192 33.8454 192.947 33.7851C192.703 33.726 192.398 33.6776 192.029 33.6418C191.029 33.5582 190.235 33.2991 189.646 32.8627C189.057 32.4269 188.763 31.7857 188.763 30.9373V30.8298C188.763 30.3886 188.857 30 189.048 29.6656C189.238 29.3319 189.488 29.0477 189.798 28.8149C190.107 28.5821 190.464 28.4059 190.869 28.2865C191.273 28.1671 191.69 28.1074 192.118 28.1074C192.677 28.1074 193.162 28.1767 193.573 28.3134C193.983 28.4513 194.331 28.6298 194.617 28.8507C194.902 29.0722 195.134 29.3164 195.313 29.585C195.491 29.8537 195.627 30.1134 195.723 30.3642L193.689 31.188C193.581 30.8657 193.396 30.6125 193.135 30.4268C192.873 30.2424 192.534 30.1492 192.118 30.1492C191.737 30.1492 191.452 30.2185 191.261 30.3552C191.071 30.4925 190.976 30.6627 190.976 30.8657Z" fill="#2E5BDC"/>
</svg>
