<svg width="174" height="32" viewBox="0 0 174 32" fill="none" xmlns="http://www.w3.org/2000/svg">
<g clip-path="url(#clip0)">
<path d="M73.8134 8.03974V25.1597H69.52V23.0664C68.4534 24.6264 66.5067 25.5464 64.08 25.5464C59.1067 25.5464 56.1867 21.5597 56.1867 16.6131C56.1867 11.6397 59.1067 7.65307 64.08 7.65307C66.5067 7.65307 68.4267 8.57307 69.52 10.1464V8.05307H73.8134V8.03974ZM65.0667 11.7464C62.48 11.7464 60.84 13.8264 60.84 16.5997C60.84 19.3864 62.48 21.4664 65.0667 21.4664C67.6534 21.4664 69.28 19.3864 69.28 16.5997C69.2934 13.8264 67.6667 11.7464 65.0667 11.7464ZM80.1334 30.9331H75.48V8.0664H79.7734V10.1597C80.84 8.59974 82.7867 7.6664 85.2134 7.6664C90.1867 7.6664 93.1067 11.6664 93.1067 16.6131C93.1067 21.5864 90.1867 25.5597 85.2134 25.5597C84.2562 25.5999 83.3025 25.4214 82.4246 25.0379C81.5467 24.6544 80.7677 24.0759 80.1467 23.3464V30.9464L80.1334 30.9331ZM84.2267 21.4664C86.8134 21.4664 88.4534 19.3864 88.4534 16.5997C88.4534 13.8264 86.8134 11.7464 84.2267 11.7464C81.64 11.7464 80 13.8264 80 16.5997C80 19.3864 81.6267 21.4664 84.2267 21.4664V21.4664ZM111.68 8.03974V25.1597H107.387V23.0664C106.32 24.6264 104.373 25.5464 101.947 25.5464C96.9734 25.5464 94.0534 21.5597 94.0534 16.6131C94.0534 11.6397 96.96 7.65307 101.947 7.65307C104.373 7.65307 106.293 8.57307 107.387 10.1464V8.05307H111.68V8.03974ZM102.933 11.7464C100.347 11.7464 98.7067 13.8264 98.7067 16.5997C98.7067 19.3864 100.347 21.4664 102.933 21.4664C105.52 21.4664 107.147 19.3864 107.147 16.5997C107.16 13.8264 105.533 11.7464 102.933 11.7464ZM50.56 18.8797C50.0134 20.3597 48.6267 21.1864 46.92 21.1864C46.3213 21.1847 45.7289 21.0644 45.1769 20.8324C44.6249 20.6005 44.1244 20.2615 43.7041 19.8351C43.2839 19.4086 42.9523 18.9032 42.7284 18.3479C42.5046 17.7926 42.393 17.1984 42.4 16.5997C42.3948 16.0011 42.5081 15.4073 42.7336 14.8526C42.959 14.298 43.2921 13.7935 43.7136 13.3683C44.1351 12.9431 44.6366 12.6056 45.1893 12.3753C45.7419 12.145 46.3347 12.0264 46.9334 12.0264C48.6267 12.0264 49.96 12.7464 50.56 14.3331H55.2267C54.8702 12.4111 53.8355 10.6811 52.3111 9.45757C50.7866 8.23408 48.8736 7.59848 46.92 7.6664C41.9867 7.6664 38.04 11.6664 38.04 16.5997C38.04 21.5464 41.9734 25.5464 46.92 25.5464C51.08 25.5464 54.68 22.6264 55.24 18.8797H50.5734H50.56ZM125.147 18.8797C124.6 20.3597 123.213 21.1864 121.507 21.1864C120.909 21.1829 120.318 21.0613 119.768 20.8286C119.217 20.5959 118.718 20.2566 118.299 19.8304C117.881 19.4041 117.55 18.8992 117.327 18.3448C117.104 17.7904 116.993 17.1973 117 16.5997C116.995 16.0033 117.107 15.4117 117.331 14.8588C117.555 14.3059 117.886 13.8026 118.304 13.3777C118.723 12.9529 119.221 12.6148 119.771 12.3829C120.32 12.151 120.91 12.0299 121.507 12.0264C123.213 12.0264 124.56 12.7464 125.16 14.3331H129.827C129.47 12.4088 128.433 10.6769 126.906 9.4531C125.379 8.22933 123.462 7.59522 121.507 7.6664C116.573 7.6664 112.627 11.6664 112.627 16.5997C112.627 21.5464 116.573 25.5464 121.507 25.5464C125.667 25.5464 129.267 22.6264 129.827 18.8797H125.16H125.147ZM130.373 3.86641C130.373 2.23974 131.56 1.06641 133.187 1.06641C134.827 1.06641 136.013 2.23974 136.013 3.86641C136.013 5.50641 134.827 6.63974 133.187 6.63974C132.817 6.65455 132.449 6.59316 132.104 6.45938C131.76 6.3256 131.446 6.1223 131.183 5.86213C130.921 5.60197 130.714 5.29052 130.577 4.94717C130.44 4.60382 130.375 4.23593 130.387 3.86641H130.373ZM130.867 8.03974H135.52V25.1597H130.853V8.03974H130.867ZM137.267 8.03974V3.79974H141.92V8.03974H145.493V11.8264H141.92V25.1597H137.253V11.7197" fill="black"/>
<path fill-rule="evenodd" clip-rule="evenodd" d="M153.787 21.2C154.39 21.2 154.987 21.0812 155.544 20.8503C156.102 20.6195 156.608 20.2812 157.034 19.8546C157.461 19.4281 157.799 18.9217 158.03 18.3644C158.261 17.8072 158.38 17.2099 158.38 16.6067C158.38 16.0034 158.261 15.4062 158.03 14.8489C157.799 14.2916 157.461 13.7852 157.034 13.3587C156.608 12.9321 156.102 12.5938 155.544 12.363C154.987 12.1321 154.39 12.0133 153.787 12.0133C152.57 12.0133 151.403 12.4966 150.543 13.3567C149.683 14.2169 149.2 15.3835 149.2 16.6C149.2 17.8164 149.683 18.9831 150.543 19.8433C151.403 20.7034 152.57 21.1867 153.787 21.1867V21.2ZM153.787 25.5467C154.961 25.5467 156.125 25.3152 157.21 24.8656C158.296 24.416 159.282 23.757 160.113 22.9262C160.944 22.0955 161.603 21.1092 162.052 20.0237C162.502 18.9383 162.733 17.7749 162.733 16.6C162.733 15.4251 162.502 14.2617 162.052 13.1762C161.603 12.0908 160.944 11.1045 160.113 10.2737C159.282 9.44296 158.296 8.78396 157.21 8.33434C156.125 7.88473 154.961 7.65332 153.787 7.65332C151.414 7.65332 149.138 8.59591 147.46 10.2737C145.782 11.9516 144.84 14.2272 144.84 16.6C144.84 18.9728 145.782 21.2484 147.46 22.9262C149.138 24.6041 151.414 25.5467 153.787 25.5467V25.5467Z" fill="black"/>
<path d="M173.28 12.2669C173.28 12.2669 172.8 12.1736 172.387 12.1736C169.693 12.1736 168.307 13.5069 168.307 16.6536V25.1869H163.693V8.02689H167.947V10.2669C168.56 9.25355 169.853 7.89355 172.733 7.89355L173.28 7.93355V12.2669Z" fill="black"/>
<path d="M4.98667 6.75977L0.04 11.7331L7.66667 19.3731L0 27.0664L4.93333 31.9998L12.6133 24.3064L20.24 31.9464L25.1867 26.9998L4.98667 6.75977Z" fill="#53B9FF"/>
<path d="M17.5599 19.3594L12.6133 24.306L20.2399 31.946L25.1866 26.9994L17.5599 19.3594V19.3594Z" fill="#119EFF"/>
<path d="M17.5599 19.3594L12.6133 24.306L14.5199 26.2127L17.5599 19.3594Z" fill="black" fill-opacity="0.2"/>
<path fill-rule="evenodd" clip-rule="evenodd" d="M24.32 12.6267L32 4.93333L27.0534 0L19.3734 7.66667L11.7334 0.04L6.80005 4.98667L27 25.2267L31.9334 20.2667L24.3334 12.6267H24.32Z" fill="#53B9FF"/>
<path d="M14.4134 12.6267L19.3734 7.66671L11.7334 0.0400391L6.80005 4.98671L14.4134 12.6267V12.6267Z" fill="#119EFF"/>
<path d="M14.4133 12.6268L19.3733 7.66677L17.4667 5.77344L14.4133 12.6268V12.6268Z" fill="black" fill-opacity="0.2"/>
</g>
<defs>
<clipPath id="clip0">
<rect width="173.333" height="32" fill="white"/>
</clipPath>
</defs>
</svg>
