<svg width="215" height="30" viewBox="0 0 215 30" fill="none" xmlns="http://www.w3.org/2000/svg">
<g clip-path="url(#clip0)">
<path d="M14.8924 7.44923C16.9487 7.44923 18.6155 5.7822 18.6155 3.72609C18.6155 1.66996 16.9487 0.00292969 14.8924 0.00292969C14.889 0.00292969 14.8858 0.0034163 14.8824 0.0034163C6.66231 0.0087695 0 6.674 0 14.8956C0 23.1205 6.66766 29.7879 14.8924 29.7879C16.9487 29.7879 18.6155 28.1209 18.6155 26.0648C18.6155 24.0086 16.9487 22.3416 14.8924 22.3416C14.8912 22.3416 14.8902 22.3418 14.889 22.3418C10.7782 22.3399 7.44606 19.0068 7.44606 14.8956C7.44606 10.7831 10.7799 7.44923 14.8924 7.44923Z" fill="url(#paint0_linear)"/>
<path d="M88.3184 7.6609C88.3194 7.6609 88.3206 7.66115 88.3216 7.66115C90.378 7.66115 92.0447 5.99435 92.0447 3.938C92.0447 1.88164 90.378 0.214844 88.3216 0.214844C80.0966 0.214844 73.4292 6.8825 73.4292 15.1072C73.4292 23.3288 80.0915 29.994 88.3116 29.9994C88.315 29.9994 88.3182 29.9998 88.3216 29.9998C90.378 29.9998 92.0447 28.3328 92.0447 26.2766C92.0447 24.2205 90.378 22.5535 88.3216 22.5535C84.2092 22.5535 80.8753 19.2196 80.8753 15.1072C80.8753 10.9957 84.2074 7.66261 88.3184 7.6609Z" fill="url(#paint1_linear)"/>
<path d="M35.628 0C27.403 0 20.7354 6.66766 20.7354 14.8926V26.0621C20.7354 28.1182 22.4022 29.7852 24.4585 29.7852C26.5148 29.7852 28.1816 28.1184 28.1816 26.0621V14.8926C28.1816 10.7801 31.5154 7.4463 35.628 7.4463C37.6843 7.4463 39.3511 5.77951 39.3511 3.72316C39.3511 1.66679 37.6843 0 35.628 0Z" fill="url(#paint2_linear)"/>
<path d="M56.3709 0.00488281C48.146 0.00488281 41.4785 6.67254 41.4785 14.8972C41.4785 23.0681 48.0598 29.6991 56.2106 29.7857C58.2669 29.7857 59.9337 28.1189 59.9337 26.0625C59.9337 24.0062 58.2669 22.3394 56.2106 22.3394C52.1726 22.2537 48.9248 18.956 48.9248 14.8972C48.9248 10.7848 52.2586 7.45094 56.3711 7.45094C60.4836 7.45094 63.8175 10.7848 63.8175 14.8972C63.8175 16.5818 63.2546 18.1328 62.311 19.3801C61.6898 20.0453 61.3065 20.9359 61.3065 21.9179C61.3065 23.974 62.9733 25.6411 65.0297 25.6411C66.1959 25.6411 67.2353 25.1041 67.918 24.2649C67.921 24.2612 67.9264 24.2566 67.9268 24.2614C67.9271 24.2663 67.9337 24.2747 67.9368 24.2709C70.0149 21.7111 71.2637 18.4513 71.2637 14.8972C71.2635 6.67254 64.5958 0.00488281 56.3709 0.00488281Z" fill="url(#paint3_linear)"/>
<path d="M109.064 0.216797C100.84 0.216797 94.1721 6.88445 94.1721 15.1092C94.1721 23.2801 100.753 29.911 108.904 29.9976C110.96 29.9976 112.627 28.3308 112.627 26.2745C112.627 24.2182 110.96 22.5514 108.904 22.5514C108.903 22.5514 108.902 22.5514 108.902 22.5514C104.865 22.4645 101.618 19.1671 101.618 15.1094C101.618 10.9969 104.952 7.6631 109.065 7.6631C113.177 7.6631 116.511 10.9969 116.511 15.1094C116.511 16.794 115.948 18.3449 115.005 19.5923C114.383 20.2574 114 21.1481 114 22.1302C114 24.1862 115.667 25.8533 117.723 25.8533C118.889 25.8533 119.929 25.3163 120.612 24.477C120.614 24.4733 120.62 24.4687 120.62 24.4735C120.62 24.4784 120.628 24.487 120.63 24.4831C122.708 21.9233 123.958 18.6635 123.958 15.1094C123.958 6.88445 117.29 0.216797 109.064 0.216797Z" fill="url(#paint4_linear)"/>
<path d="M155.846 1.27941C155.845 0.692748 155.37 0.217773 154.783 0.217773C154.196 0.217773 153.721 0.692991 153.72 1.27941V28.9367C153.72 29.5241 154.195 30.0005 154.783 30.0005C155.371 30.0005 155.848 29.5244 155.848 28.9367L155.846 1.27941Z" fill="#162B40"/>
<path d="M139.793 8.72417C136.312 8.72417 133.223 10.3956 131.282 12.979V1.11046C131.281 0.523803 130.806 0.0488281 130.218 0.0488281C129.631 0.0488281 129.156 0.524047 129.155 1.11046V19.3617C129.155 25.2366 133.918 29.9992 139.793 29.9992C145.667 29.9992 150.43 25.2366 150.43 19.3617C150.43 13.4868 145.667 8.72417 139.793 8.72417ZM139.793 27.8716C135.092 27.8716 131.282 24.0615 131.282 19.3617C131.282 14.6618 135.092 10.8518 139.793 10.8518C144.492 10.8518 148.302 14.6618 148.302 19.3617C148.302 24.0615 144.492 27.8716 139.793 27.8716Z" fill="#162B40"/>
<path d="M169.436 8.72559C163.561 8.72559 158.798 13.4883 158.798 19.3631C158.798 25.238 163.561 30.0006 169.436 30.0006C175.31 30.0006 180.073 25.238 180.073 19.3631C180.073 13.4883 175.31 8.72559 169.436 8.72559ZM169.436 27.873C164.736 27.873 160.926 24.063 160.926 19.3631C160.926 14.6632 164.736 10.8532 169.436 10.8532C174.136 10.8532 177.946 14.6632 177.946 19.3631C177.946 24.063 174.136 27.873 169.436 27.873Z" fill="#162B40"/>
<path d="M193.69 27.873C188.989 27.873 185.179 24.063 185.179 19.3631C185.179 14.6632 188.989 10.8532 193.69 10.8532C194.276 10.8532 194.753 10.377 194.753 9.78942C194.753 9.20178 194.276 8.72559 193.69 8.72559C187.814 8.72559 183.052 13.4883 183.052 19.3631C183.052 25.238 187.814 30.0006 193.69 30.0006C194.276 30.0006 194.753 29.5245 194.753 28.9368C194.753 28.3492 194.276 27.873 193.69 27.873Z" fill="#162B40"/>
<path d="M214.601 28.3649L207.598 17.4239L214.458 10.5636L214.457 10.5633C214.871 10.1477 214.871 9.4754 214.456 9.06054C214.042 8.64566 213.368 8.64517 212.953 9.05931V9.05907L201.658 20.3541V1.27941C201.656 0.692748 201.181 0.217773 200.594 0.217773C200.008 0.217773 199.532 0.692991 199.531 1.27941H199.53V28.9367C199.53 29.5241 200.006 30.0005 200.594 30.0005C201.181 30.0005 201.658 29.5244 201.658 28.9367V23.3631L206.057 18.9642L212.809 29.512C213.126 30.0054 213.784 30.1492 214.278 29.8326C214.771 29.5161 214.916 28.8596 214.601 28.3649Z" fill="#162B40"/>
</g>
<defs>
<linearGradient id="paint0_linear" x1="123.958" y1="0.000916335" x2="0" y2="0.000916335" gradientUnits="userSpaceOnUse">
<stop stop-color="#34D7A1"/>
<stop offset="0.505208" stop-color="#62D3EF"/>
<stop offset="1" stop-color="#617BE5"/>
</linearGradient>
<linearGradient id="paint1_linear" x1="123.958" y1="-3.08118e-05" x2="0.000120061" y2="-3.08118e-05" gradientUnits="userSpaceOnUse">
<stop stop-color="#34D7A1"/>
<stop offset="0.505208" stop-color="#62D3EF"/>
<stop offset="1" stop-color="#617BE5"/>
</linearGradient>
<linearGradient id="paint2_linear" x1="123.958" y1="0" x2="-4.63931e-05" y2="0" gradientUnits="userSpaceOnUse">
<stop stop-color="#34D7A1"/>
<stop offset="0.505208" stop-color="#62D3EF"/>
<stop offset="1" stop-color="#617BE5"/>
</linearGradient>
<linearGradient id="paint3_linear" x1="123.958" y1="0.000671397" x2="-8.62786e-05" y2="0.000671397" gradientUnits="userSpaceOnUse">
<stop stop-color="#34D7A1"/>
<stop offset="0.505208" stop-color="#62D3EF"/>
<stop offset="1" stop-color="#617BE5"/>
</linearGradient>
<linearGradient id="paint4_linear" x1="123.958" y1="1.31435e-06" x2="7.47814e-05" y2="1.31435e-06" gradientUnits="userSpaceOnUse">
<stop stop-color="#34D7A1"/>
<stop offset="0.505208" stop-color="#62D3EF"/>
<stop offset="1" stop-color="#617BE5"/>
</linearGradient>
<clipPath id="clip0">
<rect width="214.8" height="30" fill="white"/>
</clipPath>
</defs>
</svg>
