<svg fill="none" height="88" viewBox="0 0 63 88" width="63" xmlns="http://www.w3.org/2000/svg"><path d="m62.3582 17.2793-5.6811 63.6412-25.5363 7.0795-25.4658-7.0694-5.675-63.6513z" fill="#264de4"/><path d="m51.8386 76.9489 4.8548-54.3844h-25.4893v60.105z" fill="#2965f1"/><g fill="#ebebeb"><path d="m13.0103 46.1455.6996 7.8065h17.4696v-7.8065z"/><path d="m31.1625 30.2891h-19.5751l.7096 7.8067h18.8655z"/><path d="m31.1474 74.4192v-8.1222l-.0341.0093-8.6942-2.3477-.5559-6.2262h-7.8366l1.0938 12.2575 15.9912 4.4394z"/></g><path d="m14.6365 0h9.4551v3.95395h-5.5012v3.95394h5.5012v3.95391h-9.4551z" fill="#000"/><path d="m26.0205 0h9.4551v3.43822h-5.5011v.68764h5.5011v7.90794h-9.4551v-3.61016h5.5012v-.68765h-5.5012z" fill="#000"/><path d="m37.4043 0h9.4551v3.43822h-5.5012v.68764h5.5012v7.90794h-9.4551v-3.61016h5.5011v-.68765h-5.5011z" fill="#000"/><path d="m40.7156 53.8963-.9062 10.1245-8.7069 2.35v8.1217l16.0041-4.4355.1173-1.3188 1.8345-20.5521.1904-2.0963 1.4095-15.8007h-19.5558v7.8067h11.0004l-.7104 7.994h-10.29v7.8065z" fill="#fff"/></svg>