<svg width="63" height="88" viewBox="0 0 63 88" fill="none" xmlns="http://www.w3.org/2000/svg">
<path d="M62.3582 17.2793L56.6771 80.9205L31.1408 88L5.675 80.9306L0 17.2793H62.3582Z" fill="#264DE4"/>
<path d="M51.8386 76.9489L56.6934 22.5645H31.2041V82.6695L51.8386 76.9489Z" fill="#2965F1"/>
<path d="M13.0103 46.1455L13.7099 53.952H31.1795V46.1455H13.0103Z" fill="#EBEBEB"/>
<path d="M31.1625 30.2891H11.5874L12.297 38.0958H31.1625V30.2891Z" fill="#EBEBEB"/>
<path d="M31.1474 74.4192V66.297L31.1133 66.3063L22.4191 63.9586L21.8632 57.7324H14.0266L15.1204 69.9899L31.1116 74.4293L31.1474 74.4192Z" fill="#EBEBEB"/>
<path d="M14.6365 0H24.0916V3.95395H18.5904V7.90789H24.0916V11.8618H14.6365V0Z" fill="black"/>
<path d="M26.0205 0H35.4756V3.43822H29.9745V4.12586H35.4756V12.0338H26.0205V8.42364H31.5217V7.73599H26.0205V0Z" fill="black"/>
<path d="M37.4043 0H46.8594V3.43822H41.3582V4.12586H46.8594V12.0338H37.4043V8.42364H42.9054V7.73599H37.4043V0Z" fill="black"/>
<path d="M40.7156 53.8963L39.8094 64.0208L31.1025 66.3708V74.4925L47.1066 70.057L47.2239 68.7382L49.0584 48.1861L49.2488 46.0898L50.6583 30.2891H31.1025V38.0958H42.1029L41.3925 46.0898H31.1025V53.8963H40.7156Z" fill="white"/>
</svg>
