<svg fill="none" height="65" viewBox="0 0 65 65" width="65" xmlns="http://www.w3.org/2000/svg" xmlns:xlink="http://www.w3.org/1999/xlink"><linearGradient id="a" gradientUnits="userSpaceOnUse" x1="32.9811" x2="32.9811" y1="26.666" y2="64.4351"><stop offset="0" stop-color="#00583e"/><stop offset="1" stop-color="#00835c"/></linearGradient><clipPath id="b"><path d="m.975098.5h64v64h-64z"/></clipPath><g clip-path="url(#b)"><path d="m58.8347 26.9831c3.0772-.1478 5.801 2.2393 6.0667 5.3191 1.151 14.8994-12.4847 31.5901-31.7001 32.1238-16.193.3997-32.20838-12.5644-32.20838-32.1664 0-3.0892 2.55275-5.5936 5.63342-5.5936s5.57806 2.5044 5.57806 5.5936c0 12.8938 10.3674 21.2383 20.7226 20.9829 12.7475-.3543 21.0346-11.392 20.6036-20.4043-.1479-3.0856 2.2272-5.7069 5.3041-5.8551z" fill="url(#a)"/><g fill="#00a672"><path d="m44.9 32.6934c0-3.1627 2.5799-5.7266 5.7621-5.7266h8.3973c3.1825 0 5.8421 2.5639 5.8421 5.7266 0 3.1629-2.6596 5.7268-5.8421 5.7268h-8.3973c-3.1822 0-5.7621-2.5639-5.7621-5.7268z"/><path d="m27.2804 32.7017c0-3.1673 2.5634-5.7349 5.7219-5.7349 3.1587 0 5.7221 2.5676 5.7221 5.7349 0 3.1674-2.5634 5.7352-5.7221 5.7352-3.1585 0-5.7219-2.5678-5.7219-5.7352z"/><path clip-rule="evenodd" d="m38.5659 5.90646c.128 3.08657-2.2638 5.69264-5.3418 5.82084-13.2873.5533-21.3991 10.9967-21.0042 20.9128.1229 3.0867-2.22291 5.689-5.30115 5.8123-3.07822.1233-5.78519-2.368-5.9081-5.4546-.643431-16.1594 12.81165-32.134244 31.75055-32.44797 3.078-.128184 5.6769 2.27006 5.8047 5.35663z" fill-rule="evenodd"/></g></g></svg>