<svg width="63" height="88" viewBox="0 0 63 88" fill="none" xmlns="http://www.w3.org/2000/svg">
<path d="M5.79346 0H9.74727V3.91941H13.3917V0H17.3455V11.8614H13.3917V7.90759H9.78166V11.8614H5.79346V0ZM22.5714 3.95379H19.0817V0H30.0321V3.95379H26.5252V11.8614H22.5714V3.95379ZM31.7683 0H35.9112L38.4554 4.17727L40.9996 0H45.1425V11.8614H41.1887V5.98226L38.421 10.2455L35.6534 5.98226V11.8614H31.7683V0ZM47.1022 0H51.0561V7.94197H56.6602V11.8614H47.1022" fill="black"/>
<path d="M5.67287 80.9526L0 17.2793H62.3672L56.6943 80.9182L31.132 88.0007" fill="#E44D26"/>
<path d="M31.2031 82.645V22.5645H56.6966L51.8317 76.8862" fill="#F16529"/>
<path d="M11.5868 30.2881H31.184V38.0925H20.1477L20.8697 46.0861H31.184V53.8733H13.7184L11.5868 30.2881ZM14.0622 57.7928H21.9011L22.4512 64.0329L31.184 66.3708V74.519L15.1624 70.0495" fill="#EBEBEB"/>
<path d="M50.6642 30.2881H31.1014V38.0925H49.9422L50.6642 30.2881ZM49.2374 46.0861H31.1014V53.8905H40.7281L39.817 64.0329L31.1014 66.3708V74.4847L47.0886 70.0495" fill="white"/>
</svg>
