<svg width="164" height="38" viewBox="0 0 164 38" fill="none" xmlns="http://www.w3.org/2000/svg">
<path d="M70.4501 14.9469L70.4504 14.9453L69.4041 18.6537L70.4501 14.9469Z" fill="#131B28"/>
<path d="M75.8242 22.9326L74.6711 22.9258L75.8242 22.9326Z" fill="#131B28"/>
<path d="M75.5529 28.5117H75.5541L68.6459 28.537L75.5532 28.5117H75.5529Z" fill="#131B28"/>
<path d="M76.9818 22.9326L75.8284 22.9258L76.9818 22.9326Z" fill="#131B28"/>
<path d="M76.1476 27.9936L77.3509 23.4043L76.1476 27.9945V27.9936Z" fill="#131B28"/>
<path d="M101.573 6.88477L99.3313 17.4231L101.573 6.88477Z" fill="#131B28"/>
<path d="M95.8059 6.88539L94.104 14.7579L95.8059 6.88477V6.88539Z" fill="#131B28"/>
<path d="M101.215 6.40527H96.4218C96.1558 6.40527 95.8917 6.61879 95.8349 6.8785L94.1334 14.7516L92.4315 22.6248C92.375 22.8848 92.1113 23.0974 91.8453 23.0974H88.4525C85.0959 23.0974 85.4842 20.7759 86.1716 17.595C86.1785 17.5629 86.1853 17.5317 86.1922 17.4989L86.2677 17.0981C86.2721 17.0722 86.2774 17.0463 86.2818 17.0226L86.435 16.2063L86.5992 15.3316C86.6492 15.0679 86.725 14.6823 86.7744 14.4398L87.5479 10.6599L88.3223 6.88006C88.3757 6.61941 88.2012 6.40527 87.9353 6.40527H83.0151C82.7488 6.40527 82.4857 6.61941 82.4311 6.87943L81.3735 11.8986L80.3156 16.917C80.3146 16.9192 80.3143 16.9224 80.314 16.9245L80.2157 17.3912C78.997 22.9544 79.3204 28.2595 85.9428 28.4255C86.0511 28.4287 86.1348 28.4293 86.1348 28.4293H96.5301C96.7961 28.4293 97.0595 28.2158 97.1151 27.9551L99.357 17.4177L101.599 6.87943C101.654 6.6191 101.481 6.40559 101.215 6.40559V6.40527Z" fill="#131B28"/>
<path d="M120.319 23.165C120.585 23.165 120.759 23.3786 120.706 23.6392L120.24 25.9139" fill="#131B28"/>
<path d="M119.802 28.1545L120.267 25.8779L119.802 28.1551C119.802 28.1545 119.802 28.1545 119.802 28.1545Z" fill="#131B28"/>
<path d="M119.218 28.6725C119.219 28.6725 119.219 28.6719 119.22 28.6719C117.809 28.6834 113.57 28.7153 110.384 28.7153C114.262 28.7153 119.218 28.6725 119.218 28.6725H119.218Z" fill="#131B28"/>
<path d="M107.512 20.2615C107.508 20.0124 107.792 19.5832 108.058 19.5832L107.459 19.5732C107.189 22.2865 107.512 20.2615 107.512 20.2615Z" fill="#131B28"/>
<path d="M110.796 28.751C110.765 28.751 110.734 28.751 110.704 28.7516C110.734 28.751 110.765 28.751 110.796 28.751Z" fill="#131B28"/>
<path d="M120.315 23.165C120.581 23.165 120.755 23.3786 120.702 23.6392L120.237 25.9139L120.161 26.285" fill="#131B28"/>
<path d="M111.535 28.751C111.496 28.751 111.459 28.751 111.422 28.7516C111.459 28.751 111.496 28.751 111.535 28.751Z" fill="#131B28"/>
<path d="M111.832 28.751C111.735 28.751 111.637 28.7516 111.542 28.7516C111.637 28.7516 111.735 28.751 111.832 28.751Z" fill="#131B28"/>
<path d="M113.057 28.6719C112.669 28.6734 112.282 28.675 111.901 28.6759C112.282 28.6753 112.67 28.6737 113.057 28.6719Z" fill="#131B28"/>
<path d="M119.19 28.6719H119.19C118.157 28.6803 115.604 28.6993 113.058 28.7093C115.603 28.7 118.156 28.6803 119.19 28.6719Z" fill="#131B28"/>
<path d="M119.802 28.1834L120.192 26.2773L119.802 28.1849C119.802 28.1843 119.802 28.1843 119.802 28.1834Z" fill="#131B28"/>
<path d="M40.9589 20.3202L41.7034 17.0195L40.8522 20.7925L40.0353 24.6358L40.7514 21.2667C40.8066 21.006 40.9003 20.58 40.9589 20.3202Z" fill="#131B28"/>
<path d="M49.8537 6.40527H44.5896C44.3233 6.40527 44.0576 6.61785 43.9983 6.87694L43.4989 9.08012L42.9998 11.2842C42.9411 11.5433 43.1109 11.7559 43.3772 11.7559H48.6822C48.9482 11.7559 49.2126 11.5433 49.2697 11.2833L49.7523 9.08012L50.2345 6.8785V6.87787C50.2914 6.61816 50.1203 6.40527 49.8537 6.40527Z" fill="#131B28"/>
<path d="M48.7219 13.6686V13.668L47.178 20.811L48.7219 13.6686Z" fill="#131B28"/>
<path d="M42.4566 13.668L41.7112 16.9687L42.4566 13.668Z" fill="#131B28"/>
<path d="M48.349 13.1895H43.0433C42.7774 13.1895 42.5114 13.402 42.4527 13.6621L41.7073 16.9628L40.9628 20.2635C40.9041 20.5232 40.8105 20.9493 40.7552 21.2099L40.0392 24.579L39.3237 27.9481C39.2678 28.2078 39.1536 28.628 39.0684 28.8802C39.0684 28.8802 38.0773 31.8294 36.4107 31.796C36.3398 31.7944 36.2708 31.7935 36.2028 31.7919C35.3952 31.7766 34.7609 31.7654 34.7609 31.7654H34.7597C34.4941 31.7613 34.2269 31.9686 34.1647 32.2271L33.6147 34.5401L33.065 36.8523C33.0035 37.1107 33.1702 37.3239 33.4346 37.3286C34.3798 37.3398 36.4962 37.3636 37.7773 37.3636C41.9395 37.3636 44.1337 35.0574 45.5402 28.4213L47.1865 20.8051L48.7304 13.6621C48.7866 13.4023 48.6146 13.1895 48.3487 13.1895H48.349Z" fill="#131B28"/>
<path d="M123.706 28.4474C123.44 28.4474 123.267 28.2339 123.323 27.9732L127.315 9.27832" fill="#131B28"/>
<path d="M129.258 27.9519L130.873 19.9727L129.258 27.9519Z" fill="#131B28"/>
<path d="M123.382 28.2003C123.349 28.0701 123.368 27.7508 123.425 27.4901L125.319 18.6162L123.323 27.9633C123.268 28.224 123.44 28.4372 123.706 28.4372H124.191C123.924 28.4372 123.414 28.3304 123.382 28.2003Z" fill="#131B28"/>
<path d="M128.929 28.3168C128.784 28.3755 128.447 28.4236 128.181 28.4236H128.666C128.932 28.4236 129.193 28.21 129.245 27.9488L129.342 27.4746C129.289 27.7353 129.074 28.2581 128.929 28.3168Z" fill="#131B28"/>
<path d="M130.057 23.9729L130.769 20.4512C130.769 20.4534 130.769 20.4565 130.768 20.458L130.057 23.9729Z" fill="#131B28"/>
<path d="M145.812 10.5557L146.032 11.464C146.092 11.7241 145.924 11.9351 145.659 11.9357" fill="#131B28"/>
<path d="M129.338 27.4784L130.049 23.9629L129.338 27.4784Z" fill="#131B28"/>
<path d="M145.579 9.59766L145.796 10.5282L145.579 9.59766Z" fill="#131B28"/>
<path d="M130.775 20.4887C130.828 20.228 130.915 19.806 130.971 19.5475L131.732 15.9824L130.87 20.0208L130.775 20.4887Z" fill="#131B28"/>
<path d="M127.368 8.95898C127.315 9.21058 127.247 9.52835 127.202 9.73874L125.308 18.6133L127.304 9.26552L127.368 8.95898Z" fill="#131B28"/>
<path d="M146.014 11.4452L145.795 10.5368L145.577 9.60626L145.467 9.13522C145.036 7.46083 143.771 6.4944 141.024 6.4944L136.747 6.49003L132.809 6.48535H128.377C128.111 6.48535 127.848 6.69793 127.793 6.95858H127.793L127.597 7.88474L127.366 8.97821L127.301 9.28475L125.306 18.6325L123.412 27.5064C123.355 27.7671 123.336 28.0861 123.369 28.2166C123.401 28.3467 123.911 28.4535 124.178 28.4535H128.176C128.442 28.4535 128.779 28.4054 128.924 28.3467C129.069 28.288 129.283 27.7655 129.336 27.5048L130.047 23.9894L130.758 20.4745C130.759 20.473 130.759 20.4698 130.76 20.4677L130.855 19.9997L131.716 15.9614L132.478 12.3947C132.534 12.1356 132.796 11.9237 133.062 11.9228L145.642 11.9168C145.907 11.9162 146.075 11.7049 146.015 11.4452H146.014Z" fill="#131B28"/>
<path d="M162.209 3.22356C161.943 3.22544 161.507 3.22731 161.241 3.22731H157.215C156.948 3.22731 156.607 3.40711 156.457 3.62687L147.554 16.6708C147.403 16.8912 147.232 16.8584 147.173 16.5993L146.517 13.7253C146.458 13.4656 146.192 13.2537 145.926 13.2537H140.202C139.935 13.2537 139.778 13.4625 139.85 13.7185L142.415 22.7035C142.489 22.9598 142.494 23.3803 142.428 23.6381L141.31 27.9867C141.244 28.2449 141.408 28.4559 141.674 28.4559H147.331C147.597 28.4559 147.869 28.2449 147.935 27.9867L149.053 23.6381C149.119 23.3803 149.304 22.9948 149.465 22.7822L163.919 3.59752C164.08 3.38495 163.993 3.2117 163.727 3.21389L162.21 3.22356H162.209Z" fill="#131B28"/>
<path d="M116.765 14.4623L116.765 14.457C116.731 14.7457 116.465 14.9577 116.199 14.9577H108.942C108.691 14.9577 108.564 14.7869 108.6 14.5765C108.603 14.5706 108.604 14.5653 108.607 14.56C108.607 14.56 108.605 14.5606 108.603 14.5622C108.605 14.5537 108.605 14.5459 108.607 14.5375C108.607 14.5375 108.62 14.4866 108.64 14.4142C109.333 12.5716 110.745 11.362 113.398 11.362C116.385 11.362 116.968 12.8213 116.765 14.4623H116.765ZM114.636 6.08594C105.321 6.08594 103.114 11.74 101.876 17.4465C100.637 23.2628 100.744 28.7012 110.383 28.7012H110.725C110.756 28.7005 110.787 28.7005 110.817 28.7005H111.439C111.476 28.6999 111.514 28.6999 111.552 28.6999C111.648 28.6999 111.745 28.6993 111.842 28.6993H111.911C112.292 28.6987 112.679 28.6968 113.067 28.6955H113.086C115.632 28.6856 118.185 28.6665 119.219 28.6581C119.484 28.654 119.742 28.4408 119.797 28.1824L120.187 26.2751L120.263 25.9039L120.729 23.629C120.782 23.3683 120.608 23.1548 120.341 23.1548H111.676C108.229 23.1548 107.206 22.239 107.583 19.5463H121.435L121.434 19.5479C121.437 19.5479 121.441 19.5463 121.443 19.5463C121.664 19.5426 121.867 19.3909 121.948 19.1889C121.963 19.1502 121.976 19.1099 121.982 19.0678L121.98 19.0693C124.037 11.3111 123.447 6.08625 114.636 6.08625L114.636 6.08594Z" fill="#131B28"/>
<path d="M70.6015 14.4467L70.4704 14.9109C70.4704 14.9124 70.4701 14.9124 70.4701 14.9124L69.4241 18.6193L68.3787 22.3255C68.3062 22.5814 68.0294 22.7912 67.7628 22.7912H62.2264C58.027 22.7912 57.0044 19.5067 58.027 14.6621C59.0493 9.70666 61.054 6.62633 65.1872 6.31449C70.8353 5.88871 71.9653 9.86149 70.6015 14.447V14.4467ZM74.3982 22.5059C74.3982 22.5059 77.0085 16.1682 77.6012 12.5073C78.4097 7.6068 75.9562 0.5 66.4792 0.5C57.0562 0.5 52.9645 7.28528 51.4031 14.6615C49.842 22.091 51.8876 28.6069 61.2569 28.5536L68.6484 28.5261L75.5566 28.5008C75.8226 28.4986 76.0948 28.2876 76.1625 28.0307L77.3659 23.4405C77.433 23.183 77.2704 22.971 77.0044 22.9694L75.8507 22.9626L74.6979 22.9557C74.4716 22.9542 74.342 22.8081 74.3692 22.6136C74.3742 22.5786 74.3823 22.5427 74.3976 22.5053L74.3982 22.5059Z" fill="#131B28"/>
<path d="M121.036 18.2947C121.036 18.4701 120.894 18.6125 120.718 18.6125C120.542 18.6125 120.4 18.4701 120.4 18.2947C120.4 18.1193 120.542 17.9775 120.718 17.9775C120.894 17.9775 121.036 18.1196 121.036 18.2947Z" fill="#131B28"/>
<path d="M2.43772 10.0193C-0.164395 13.7589 0.15962 18.6241 2.1471 22.5975C2.19455 22.6927 2.24387 22.7863 2.29288 22.8803C2.32409 22.9396 2.35344 23.0008 2.38559 23.0592C2.40401 23.0944 2.42461 23.1288 2.44365 23.1622C2.47767 23.2255 2.51232 23.2858 2.54728 23.3473C2.60909 23.4562 2.67215 23.5645 2.73707 23.6729C2.77297 23.7322 2.80824 23.7918 2.84539 23.8511C2.91687 23.9669 2.99054 24.0812 3.06546 24.1957C3.09667 24.2444 3.12727 24.2931 3.15942 24.3402C3.26305 24.4951 3.36887 24.649 3.47813 24.8007C3.48094 24.8047 3.48375 24.8091 3.48718 24.8128C3.50435 24.8372 3.52339 24.8609 3.54118 24.8853C3.63545 25.0154 3.73316 25.1443 3.8318 25.2717C3.86801 25.3182 3.90453 25.3647 3.94105 25.4112C4.02908 25.5217 4.11867 25.6313 4.20981 25.7412C4.24384 25.7824 4.27786 25.8233 4.3122 25.8639C4.43457 26.0078 4.55911 26.151 4.68647 26.2912C4.68866 26.2934 4.69178 26.2965 4.69397 26.299C4.69927 26.3049 4.70395 26.3087 4.70864 26.3149C4.83287 26.4507 4.95992 26.5831 5.08884 26.7157C5.1288 26.7569 5.16969 26.7981 5.21089 26.8384C5.31047 26.9389 5.41192 27.0382 5.51462 27.1365C5.55613 27.1762 5.59703 27.2164 5.63854 27.2545C5.77558 27.3834 5.91386 27.5098 6.05464 27.6335C6.05714 27.6356 6.05901 27.6372 6.0612 27.6388C6.08523 27.66 6.10989 27.68 6.13362 27.7003C6.25786 27.808 6.38428 27.9147 6.51164 28.0196C6.56345 28.0617 6.61621 28.1029 6.66834 28.1448C6.77228 28.2278 6.87748 28.3102 6.9833 28.3907C7.03949 28.4335 7.09536 28.4763 7.15186 28.519C7.26892 28.6049 7.3866 28.6895 7.50553 28.7728C7.54892 28.804 7.59075 28.8343 7.63414 28.8643C7.64632 28.8724 7.65755 28.8808 7.66973 28.8893C7.78241 28.967 7.89791 29.0416 8.0131 29.1165C8.06242 29.1493 8.11174 29.1836 8.16168 29.2155C8.33836 29.3275 8.51785 29.438 8.69921 29.5448C8.74853 29.5729 8.79816 29.6003 8.84779 29.6284C8.98108 29.7055 9.11531 29.7811 9.25141 29.8547C9.32477 29.8944 9.40031 29.9318 9.4746 29.9699C9.57074 30.0202 9.66595 30.0714 9.76334 30.1201C9.7855 30.1307 9.8086 30.1413 9.83014 30.1522C9.86947 30.1713 9.90912 30.1894 9.94845 30.2094C10.0995 30.2818 10.2519 30.3526 10.4061 30.421C10.4388 30.4357 10.4704 30.45 10.5028 30.4647C10.6792 30.5415 10.8571 30.6155 11.0366 30.6863C11.0797 30.7038 11.1231 30.7207 11.1665 30.7375C11.3325 30.8015 11.5011 30.8646 11.6703 30.9242C11.6915 30.9317 11.7121 30.9385 11.7337 30.946C11.9191 31.011 12.1067 31.0712 12.2952 31.1299C12.3402 31.1427 12.3854 31.1574 12.4307 31.1702C12.623 31.2282 12.8128 31.2975 13.0107 31.334C25.5936 33.6287 29.2486 23.7724 29.2486 23.7724C26.1789 27.7717 20.7299 28.8265 15.5672 27.6522C15.3718 27.6079 15.182 27.547 14.9913 27.4905C14.9429 27.4761 14.8951 27.4618 14.8474 27.4471C14.6613 27.39 14.4762 27.3297 14.2927 27.2667C14.2677 27.2576 14.2421 27.2483 14.2165 27.2392C14.052 27.1812 13.8891 27.1203 13.7274 27.0579C13.6815 27.0394 13.6359 27.022 13.59 27.0035C13.4124 26.9336 13.2361 26.8603 13.0619 26.7841C13.0263 26.7688 12.9919 26.7529 12.9564 26.7376C12.8065 26.6698 12.6586 26.6012 12.5109 26.5303C12.4682 26.5097 12.4257 26.49 12.3823 26.4688C12.2665 26.4123 12.1519 26.3521 12.0377 26.2934C11.9612 26.2531 11.8835 26.215 11.8076 26.1729C11.6681 26.0983 11.5311 26.0206 11.3947 25.9413C11.3485 25.9154 11.3016 25.8904 11.2551 25.8636C11.0738 25.7568 10.8946 25.6463 10.7173 25.5342C10.6683 25.503 10.6205 25.4696 10.5721 25.4375C10.4435 25.3544 10.3155 25.2698 10.1894 25.1831C10.1476 25.1546 10.1073 25.1244 10.0661 25.0963C9.94439 25.0101 9.8239 24.923 9.70434 24.8347C9.65003 24.7944 9.59665 24.7538 9.5439 24.7136C9.43433 24.6296 9.32539 24.545 9.21738 24.4582C9.16838 24.4192 9.11968 24.3805 9.07161 24.3415C8.93457 24.2288 8.79879 24.1152 8.66519 23.9984C8.65114 23.9863 8.63584 23.9741 8.62055 23.9613C8.47571 23.8339 8.33368 23.7038 8.1929 23.5727C8.15232 23.5336 8.11267 23.4956 8.07272 23.4568C7.96846 23.3576 7.86607 23.2577 7.76556 23.1556C7.72498 23.1154 7.68471 23.0757 7.64507 23.0351C7.51708 22.9043 7.39129 22.7717 7.2683 22.6368C7.26205 22.63 7.2555 22.6237 7.24957 22.6168C7.11909 22.4745 6.99204 22.3287 6.86718 22.1817C6.83347 22.1414 6.80069 22.1024 6.76698 22.0628C6.67427 21.9507 6.58187 21.8374 6.49197 21.7228C6.45826 21.6816 6.42455 21.6395 6.39114 21.597C6.28283 21.4566 6.17701 21.3164 6.07337 21.1741C3.20718 17.2643 2.17738 11.8719 4.46828 7.44336" fill="#0868AC"/>
<path d="M10.5237 6.8999C8.64199 9.60752 8.74407 13.2322 10.2118 16.0959C10.4581 16.576 10.7347 17.0418 11.044 17.4853C11.3262 17.8893 11.6387 18.37 12.0126 18.6946C12.1484 18.8441 12.2901 18.9896 12.435 19.1329C12.4715 19.1703 12.509 19.2059 12.5461 19.2428C12.6869 19.3792 12.8298 19.5131 12.9775 19.6436C12.9837 19.6479 12.989 19.6542 12.995 19.6589C12.9965 19.6604 12.9981 19.6611 12.9993 19.6626C13.1626 19.8059 13.3315 19.9439 13.5032 20.0797C13.5412 20.1084 13.5787 20.139 13.6174 20.1686C13.7891 20.3007 13.9645 20.4302 14.1443 20.5535C14.1496 20.5576 14.1543 20.5613 14.1596 20.565C14.2389 20.62 14.3198 20.6709 14.4 20.7236C14.4384 20.7486 14.4752 20.7754 14.5139 20.7989C14.6422 20.8813 14.7724 20.9612 14.9044 21.0383C14.9232 21.0495 14.9416 21.0595 14.9597 21.0701C15.0736 21.1357 15.1891 21.2006 15.3049 21.263C15.3455 21.2858 15.3864 21.3058 15.4276 21.327C15.5078 21.3688 15.5877 21.4116 15.6692 21.4519C15.6814 21.4581 15.6942 21.4634 15.7057 21.4687C15.8715 21.5502 16.0388 21.6289 16.2095 21.7035C16.2461 21.7197 16.2838 21.7341 16.321 21.7494C16.4574 21.8071 16.5954 21.8636 16.734 21.917C16.7926 21.9392 16.8519 21.9604 16.9106 21.9816C17.0364 22.0281 17.1625 22.0709 17.2899 22.1136C17.3473 22.1317 17.4038 22.1508 17.4613 22.1683C17.6423 22.2248 17.8209 22.2956 18.0097 22.3268C27.7249 23.9363 29.9677 16.4565 29.9677 16.4565C27.9459 19.3686 24.0305 20.7576 19.8524 19.6732C19.6666 19.6245 19.4837 19.5712 19.302 19.514C19.2465 19.4972 19.1919 19.4791 19.1366 19.4606C19.0074 19.4188 18.8791 19.3745 18.7517 19.328C18.6937 19.3068 18.6353 19.2855 18.5782 19.2634C18.4386 19.21 18.3007 19.1544 18.1639 19.0964C18.1265 19.0804 18.0887 19.0661 18.0522 19.0492C17.8808 18.9746 17.7119 18.896 17.5456 18.8136C17.4597 18.7717 17.3754 18.7277 17.2911 18.684C17.2425 18.659 17.1934 18.6338 17.1444 18.6088C17.0364 18.5501 16.9291 18.4889 16.8229 18.4274C16.7979 18.4127 16.7714 18.399 16.7461 18.3837C16.6144 18.3069 16.4849 18.2276 16.3566 18.1462C16.3169 18.1209 16.2788 18.0934 16.2392 18.0675C16.1546 18.0126 16.07 17.957 15.987 17.9008C15.8078 17.7772 15.6336 17.6477 15.4619 17.5166C15.4223 17.4853 15.3826 17.4547 15.3436 17.4235C13.5147 15.9795 12.0651 14.0064 11.3758 11.7689C10.6535 9.44832 10.8093 6.8434 12.0607 4.72949" fill="#0868AC"/>
<path d="M17.3172 4.51771C16.2081 6.15028 16.0989 8.1774 16.8687 9.9804C17.6803 11.8939 19.3437 13.3954 21.2847 14.1071C21.3649 14.1367 21.4448 14.1636 21.526 14.191C21.5613 14.2017 21.5965 14.2138 21.6321 14.2244C21.7467 14.2603 21.86 14.3022 21.9783 14.3243C27.3427 15.3607 28.7976 11.5715 29.185 11.0139C27.9105 12.8491 25.7685 13.2895 23.1405 12.6515C22.9329 12.6009 22.7047 12.526 22.5046 12.4552C22.248 12.3637 21.9952 12.2594 21.7495 12.1414C21.2828 11.9173 20.838 11.6451 20.4257 11.3336C18.0739 9.54932 16.613 6.14528 18.1476 3.37305" fill="#0868AC"/>
</svg>
