<svg width="143" height="89" viewBox="0 0 143 89" fill="none" xmlns="http://www.w3.org/2000/svg">
<g clip-path="url(#clip0)">
<path d="M70.6005 88.7334C70.1256 88.7261 69.661 88.5916 69.254 88.3436L64.9899 85.7774C64.3487 85.42 64.6693 85.2901 64.8617 85.2251C65.5381 85.0053 66.1845 84.6996 66.7853 84.3156C66.8368 84.2918 66.8936 84.2823 66.9499 84.288C67.0062 84.2937 67.0601 84.3144 67.1059 84.3481L70.3761 86.2971C70.4394 86.3342 70.5113 86.3537 70.5845 86.3537C70.6576 86.3537 70.7295 86.3342 70.7928 86.2971L83.617 78.8257C83.6659 78.7871 83.7056 78.7378 83.7334 78.6816C83.7611 78.6254 83.7761 78.5637 83.7773 78.5009V63.4931C83.7724 63.4275 83.7525 63.364 83.7191 63.3076C83.6857 63.2512 83.6398 63.2035 83.5849 63.1683L70.7608 55.6969C70.7063 55.6684 70.6458 55.6535 70.5845 55.6535C70.5231 55.6535 70.4627 55.6684 70.4081 55.6969L57.584 63.1683C57.5292 63.2035 57.4832 63.2512 57.4498 63.3076C57.4164 63.364 57.3965 63.4275 57.3916 63.4931V78.4684C57.3881 78.5401 57.4042 78.6115 57.4381 78.6745C57.4721 78.7376 57.5225 78.7899 57.584 78.8257L61.1106 80.8722C63.0342 81.8468 64.1884 80.7098 64.1884 79.5729V64.7925C64.1839 64.7429 64.1898 64.6929 64.2055 64.6457C64.2212 64.5986 64.2464 64.5552 64.2796 64.5185C64.3129 64.4818 64.3533 64.4526 64.3983 64.4326C64.4433 64.4127 64.4919 64.4025 64.5411 64.4027H66.1441C66.1959 64.3976 66.2481 64.4043 66.297 64.4221C66.3459 64.4399 66.3904 64.4684 66.4271 64.5057C66.4639 64.5429 66.4921 64.588 66.5097 64.6375C66.5272 64.6871 66.5338 64.74 66.5288 64.7925V79.5729C66.5288 82.1716 65.1502 83.6334 62.7457 83.6334C62.0083 83.6334 61.4312 83.6334 59.7961 82.8213L56.4298 80.8722C56.0214 80.6295 55.6824 80.2832 55.4463 79.8674C55.2102 79.4516 55.0851 78.9806 55.0833 78.5009V63.5256C55.0818 63.0452 55.2056 62.573 55.442 62.1566C55.6785 61.7402 56.0192 61.3944 56.4298 61.1542L69.254 53.6503C69.6633 53.4285 70.1203 53.3125 70.5845 53.3125C71.0486 53.3125 71.5056 53.4285 71.915 53.6503L84.7391 61.1217C85.1545 61.3646 85.4983 61.7155 85.735 62.1381C85.9717 62.5607 86.0928 63.0397 86.0856 63.5256V78.4684C86.0872 78.945 85.9669 79.4139 85.7366 79.8294C85.5062 80.245 85.1736 80.593 84.7712 80.8397L71.947 88.3436C71.5368 88.5802 71.0725 88.7035 70.6005 88.701V88.7334Z" fill="#679E63"/>
<path d="M74.5449 78.4004C68.9343 78.4004 67.748 75.8017 67.748 73.5928C67.7478 73.543 67.7579 73.4937 67.7776 73.4481C67.7973 73.4025 67.8262 73.3615 67.8624 73.3279C67.8986 73.2942 67.9414 73.2686 67.988 73.2527C68.0345 73.2368 68.0838 73.2309 68.1328 73.2354H69.7999C69.8881 73.2351 69.9733 73.2682 70.0386 73.3284C70.1039 73.3885 70.1446 73.4713 70.1526 73.5603C70.4091 75.2495 71.1465 76.1265 74.5449 76.1265C77.2379 76.1265 78.3921 75.4769 78.3921 74.0476C78.3921 73.203 78.0715 72.5858 73.8716 72.1635C70.3449 71.8386 68.1969 71.0265 68.1969 68.2004C68.1969 65.6016 70.377 64.0099 74.0319 64.0099C78.1356 64.0099 80.1554 65.4717 80.444 68.5577C80.4519 68.6184 80.4442 68.6802 80.4218 68.7371C80.3993 68.794 80.3628 68.8441 80.3157 68.8825C80.2449 68.9458 80.1536 68.9805 80.0592 68.98H78.3921C78.3039 68.9804 78.2187 68.9472 78.1534 68.8871C78.0881 68.8269 78.0475 68.7442 78.0394 68.6552C77.6227 66.8685 76.6608 66.3163 74.0319 66.3163C71.0823 66.3163 70.7297 67.3558 70.7297 68.1354C70.7297 69.0775 71.1465 69.3373 75.1219 69.8896C79.0974 70.4418 80.9249 71.1564 80.9249 73.9501C80.9249 76.7437 78.6165 78.4004 74.5128 78.4004H74.5449ZM93.0117 62.678C93.0117 63.1728 92.8669 63.6564 92.5956 64.0677C92.3244 64.479 91.9388 64.7996 91.4877 64.9889C91.0366 65.1783 90.5403 65.2278 90.0614 65.1313C89.5825 65.0348 89.1427 64.7965 88.7974 64.4467C88.4522 64.0969 88.217 63.6512 88.1218 63.166C88.0265 62.6808 88.0754 62.1779 88.2623 61.7208C88.4491 61.2638 88.7655 60.8731 89.1715 60.5983C89.5775 60.3235 90.0547 60.1768 90.543 60.1768C91.1977 60.1768 91.8256 60.4403 92.2886 60.9094C92.7516 61.3784 93.0117 62.0147 93.0117 62.678V62.678ZM88.4591 62.678C88.4527 63.097 88.5695 63.5084 88.7946 63.8598C89.0197 64.2113 89.3429 64.487 89.7231 64.6518C90.1032 64.8166 90.5232 64.8631 90.9295 64.7853C91.3359 64.7076 91.7102 64.5091 92.0048 64.2151C92.2995 63.9211 92.5012 63.545 92.5842 63.1346C92.6673 62.7241 92.6279 62.2979 92.4712 61.9102C92.3144 61.5225 92.0474 61.1908 91.704 60.9573C91.3607 60.7238 90.9565 60.5991 90.543 60.599C89.9958 60.599 89.4706 60.817 89.0807 61.206C88.6908 61.5949 88.4675 62.1237 88.4591 62.678V62.678ZM89.6133 61.2812H90.5751C90.8957 61.2812 91.5369 61.2812 91.5369 62.0284C91.5477 62.1858 91.5017 62.3419 91.4073 62.4674C91.3129 62.5929 91.1766 62.6793 91.0239 62.7105C91.3766 62.7105 91.4086 63.0029 91.4728 63.3602C91.4814 63.6141 91.5245 63.8655 91.601 64.1074H91.0239L90.9277 63.2303C90.8957 63.0679 90.8315 62.9704 90.6071 62.9704H90.1583V64.1074H89.6133V61.2812ZM90.1262 62.5156H90.5751C90.6282 62.5201 90.6817 62.5134 90.7322 62.4958C90.7826 62.4783 90.8289 62.4503 90.8681 62.4136C90.9073 62.3769 90.9385 62.3324 90.9598 62.2829C90.9811 62.2334 90.992 62.1799 90.9918 62.1258C90.9918 61.736 90.7354 61.736 90.5751 61.736H90.1262V62.5156Z" fill="#679E63"/>
<path fill-rule="evenodd" clip-rule="evenodd" d="M30.9409 30.1042C30.9383 29.8127 30.8599 29.527 30.7136 29.2761C30.5672 29.0251 30.3581 28.8177 30.1073 28.6749L16.5137 20.7487C16.2865 20.6258 16.0338 20.559 15.7763 20.5538H15.616C15.3587 20.5602 15.1063 20.6269 14.8786 20.7487L1.31706 28.6749C1.06155 28.8204 0.849369 29.0329 0.70272 29.2901C0.556071 29.5473 0.480353 29.8397 0.483492 30.1367V51.4464C0.486159 51.5958 0.529474 51.7416 0.608668 51.8677C0.687862 51.9938 0.799863 52.0953 0.932338 52.161C1.05418 52.2323 1.1924 52.2698 1.33309 52.2698C1.47379 52.2698 1.612 52.2323 1.73385 52.161L9.81308 47.4833C10.0664 47.3351 10.2767 47.122 10.423 46.8655C10.5693 46.6089 10.6465 46.3178 10.6466 46.0215V36.1138C10.6459 35.8255 10.7195 35.542 10.8601 35.2913C11.0007 35.0406 11.2034 34.8314 11.4482 34.6845L14.9107 32.638C15.154 32.4934 15.4301 32.415 15.7122 32.4106C16.0053 32.4077 16.2937 32.4864 16.5458 32.638L19.9762 34.652C20.221 34.799 20.4237 35.0081 20.5643 35.2588C20.7049 35.5095 20.7784 35.793 20.7777 36.0813V46.0215C20.7811 46.321 20.8631 46.6143 21.0152 46.8711C21.1673 47.128 21.3841 47.3393 21.6434 47.4833L29.6585 52.161C29.7841 52.2385 29.9282 52.2794 30.0753 52.2794C30.2223 52.2794 30.3665 52.2385 30.4921 52.161C30.6164 52.0883 30.7201 51.9843 30.7931 51.8591C30.8661 51.7339 30.906 51.5918 30.9088 51.4464L30.9409 30.1042ZM96.248 0.803347C96.1211 0.736452 95.9793 0.703771 95.8364 0.708448C95.6934 0.713125 95.554 0.755002 95.4316 0.830051C95.3093 0.905101 95.208 1.0108 95.1376 1.13697C95.0672 1.26314 95.0301 1.40555 95.0297 1.55049V22.6653C95.0233 22.7679 94.9902 22.867 94.9339 22.9525C94.8776 23.0381 94.8001 23.107 94.7091 23.1525C94.6253 23.198 94.5317 23.2218 94.4366 23.2218C94.3415 23.2218 94.2479 23.198 94.1641 23.1525L90.7657 21.171C90.5209 21.0315 90.2449 20.9583 89.9641 20.9583C89.6834 20.9583 89.4074 21.0315 89.1626 21.171L75.5049 29.1296C75.2579 29.2741 75.0534 29.4827 74.9125 29.734C74.7716 29.9852 74.6994 30.27 74.7034 30.559V46.4438C74.7059 46.7353 74.7844 47.0209 74.9307 47.2719C75.0771 47.5228 75.2862 47.7302 75.537 47.8731L89.0985 55.8317C89.3471 55.9771 89.629 56.0537 89.9161 56.0537C90.2031 56.0537 90.485 55.9771 90.7336 55.8317L104.327 47.8731C104.578 47.7302 104.787 47.5228 104.933 47.2719C105.08 47.0209 105.158 46.7353 105.161 46.4438V6.81294C105.155 6.51821 105.072 6.23037 104.92 5.97912C104.767 5.72786 104.552 5.5223 104.295 5.38363L96.248 0.803347ZM94.9656 41.2138C94.9658 41.285 94.9483 41.355 94.9147 41.4175C94.8811 41.48 94.8324 41.5328 94.7732 41.5711L90.1245 44.2998C90.0611 44.3369 89.9892 44.3564 89.9161 44.3564C89.8429 44.3564 89.771 44.3369 89.7077 44.2998L85.0589 41.5711C84.9981 41.5397 84.9458 41.4937 84.9067 41.4371C84.8676 41.3804 84.8428 41.3149 84.8345 41.2463V35.7564C84.8394 35.6909 84.8593 35.6273 84.8927 35.5709C84.9261 35.5145 84.972 35.4668 85.0268 35.4316L89.7077 32.6704C89.771 32.6334 89.8429 32.6139 89.9161 32.6139C89.9892 32.6139 90.0611 32.6334 90.1245 32.6704L94.7732 35.3991C94.8384 35.4334 94.8934 35.4845 94.9328 35.5472C94.9722 35.61 94.9946 35.6821 94.9976 35.7564L94.9656 41.2138ZM141.485 35.6265C141.736 35.4836 141.945 35.2762 142.091 35.0253C142.238 34.7743 142.316 34.4887 142.319 34.1972V30.3316C142.316 30.0401 142.238 29.7544 142.091 29.5035C141.945 29.2525 141.736 29.0451 141.485 28.9023L127.988 20.9436C127.739 20.7982 127.457 20.7217 127.17 20.7217C126.883 20.7217 126.601 20.7982 126.353 20.9436L112.759 28.9023C112.512 29.0467 112.308 29.2553 112.167 29.5066C112.026 29.7578 111.954 30.0426 111.958 30.3316V46.2489C111.96 46.5404 112.039 46.826 112.185 47.077C112.331 47.3279 112.54 47.5353 112.791 47.6782L126.257 55.4744C126.501 55.6139 126.777 55.6871 127.058 55.6871C127.339 55.6871 127.615 55.6139 127.86 55.4744L136.035 50.8616C136.161 50.7874 136.266 50.6809 136.339 50.5526C136.412 50.4243 136.451 50.2788 136.451 50.1307C136.451 49.9827 136.412 49.8372 136.339 49.7089C136.266 49.5806 136.161 49.474 136.035 49.3998L122.377 41.4737C122.253 41.401 122.149 41.297 122.076 41.1718C122.003 41.0466 121.963 40.9044 121.96 40.759V35.7889C121.96 35.6428 121.999 35.4993 122.072 35.3736C122.145 35.2478 122.251 35.1444 122.377 35.0743L126.641 32.573C126.763 32.5017 126.901 32.4642 127.042 32.4642C127.183 32.4642 127.321 32.5017 127.443 32.573L131.707 35.0743C131.833 35.1444 131.939 35.2478 132.012 35.3736C132.085 35.4993 132.124 35.6428 132.124 35.7889V39.687C132.12 39.833 132.155 39.9772 132.225 40.1046C132.296 40.232 132.399 40.3379 132.523 40.411C132.648 40.4841 132.79 40.5219 132.934 40.5202C133.078 40.5186 133.219 40.4777 133.342 40.4017L141.485 35.6265Z" fill="#333333"/>
<path fill-rule="evenodd" clip-rule="evenodd" d="M126.96 34.8687C127.009 34.8402 127.064 34.8252 127.12 34.8252C127.177 34.8252 127.232 34.8402 127.281 34.8687L129.91 36.3955C129.955 36.4221 129.994 36.4597 130.022 36.5051C130.05 36.5504 130.066 36.602 130.07 36.6554V39.7089C130.072 39.7678 130.058 39.8261 130.03 39.8776C130.001 39.9291 129.96 39.9718 129.91 40.0012L127.313 41.528C127.264 41.5565 127.209 41.5715 127.152 41.5715C127.096 41.5715 127.041 41.5565 126.992 41.528L124.363 40.0012C124.319 39.9679 124.284 39.9234 124.261 39.8722C124.239 39.8209 124.23 39.7647 124.235 39.7089V36.6554C124.235 36.6049 124.246 36.5552 124.269 36.5101C124.291 36.465 124.323 36.4257 124.363 36.3955L126.96 34.8687Z" fill="#679E63"/>
<path fill-rule="evenodd" clip-rule="evenodd" d="M53.6391 21.035C53.3954 20.8924 53.119 20.8174 52.8376 20.8174C52.5562 20.8174 52.2797 20.8924 52.0361 21.035L38.4745 28.9611C38.2275 29.1056 38.023 29.3142 37.8821 29.5655C37.7412 29.8167 37.669 30.1015 37.673 30.3905V46.1778C37.669 46.4668 37.7412 46.7515 37.8821 47.0028C38.023 47.254 38.2275 47.4627 38.4745 47.6071L51.9719 55.5008C52.2156 55.6433 52.492 55.7184 52.7734 55.7184C53.0548 55.7184 53.3313 55.6433 53.5749 55.5008L67.1044 47.6071C67.3574 47.4669 67.5684 47.2601 67.7151 47.0085C67.8618 46.757 67.9388 46.47 67.938 46.1778V30.358C67.9388 30.0658 67.8618 29.7788 67.7151 29.5273C67.5684 29.2757 67.3574 29.0689 67.1044 28.9287L53.6391 21.035Z" fill="url(#paint0_linear)"/>
<path d="M67.1701 28.9597L53.6406 21.0335C53.5098 20.9599 53.3695 20.9053 53.2238 20.8711L37.9951 47.2159C38.124 47.3685 38.2754 47.5 38.444 47.6057L52.0376 55.4994C52.4173 55.7172 52.8662 55.7756 53.2879 55.6618L67.5548 29.2196C67.4392 29.1062 67.3099 29.008 67.1701 28.9272V28.9597Z" fill="url(#paint1_linear)"/>
<path d="M51.5561 18.1104L51.3638 18.2403H51.6202L51.5561 18.1104V18.1104Z" fill="url(#paint2_linear)"/>
<path d="M67.1702 47.6052C67.3647 47.4938 67.5356 47.3447 67.6732 47.1663C67.8107 46.988 67.9122 46.7839 67.9718 46.5657L53.1278 20.8381C52.7324 20.7597 52.3224 20.8289 51.9736 21.033L38.5403 28.8943L53.0637 55.7263C53.2795 55.6917 53.4864 55.6144 53.6728 55.4989L67.1702 47.6052Z" fill="url(#paint3_linear)"/>
<path d="M68.4541 47.3411L68.3579 47.1787V47.4061L68.4541 47.3411Z" fill="url(#paint4_linear)"/>
<path d="M67.173 47.6062L53.6756 55.4999C53.4892 55.6154 53.2822 55.6926 53.0664 55.7272L53.3229 56.2145L68.3592 47.4113V47.1839L67.9745 46.5342C67.9187 46.7582 67.819 46.9686 67.6813 47.1527C67.5436 47.3369 67.3707 47.4911 67.173 47.6062V47.6062Z" fill="url(#paint5_linear)"/>
<path d="M67.173 47.6062L53.6756 55.4999C53.4892 55.6154 53.2822 55.6926 53.0664 55.7272L53.3229 56.2145L68.3592 47.4113V47.1839L67.9745 46.5342C67.9187 46.7582 67.819 46.9686 67.6813 47.1527C67.5436 47.3369 67.3707 47.4911 67.173 47.6062V47.6062Z" fill="url(#paint6_linear)"/>
</g>
<defs>
<linearGradient id="paint0_linear" x1="58.3199" y1="26.9146" x2="45.8441" y2="52.0254" gradientUnits="userSpaceOnUse">
<stop stop-color="#3F873F"/>
<stop offset="0.3" stop-color="#3F8B3D"/>
<stop offset="0.6" stop-color="#3E9637"/>
<stop offset="0.9" stop-color="#3DA92E"/>
<stop offset="1" stop-color="#3DAE2B"/>
</linearGradient>
<linearGradient id="paint1_linear" x1="50.7872" y1="40.1018" x2="85.3441" y2="14.9056" gradientUnits="userSpaceOnUse">
<stop offset="0.1" stop-color="#3F873F"/>
<stop offset="0.4" stop-color="#529F44"/>
<stop offset="0.7" stop-color="#63B649"/>
<stop offset="0.9" stop-color="#6ABF4B"/>
</linearGradient>
<linearGradient id="paint2_linear" x1="37.2255" y1="18.1753" x2="68.4516" y2="18.1753" gradientUnits="userSpaceOnUse">
<stop offset="0.1" stop-color="#6ABF4B"/>
<stop offset="0.3" stop-color="#63B649"/>
<stop offset="0.6" stop-color="#529F44"/>
<stop offset="0.9" stop-color="#3F873F"/>
</linearGradient>
<linearGradient id="paint3_linear" x1="3420.22" y1="4061.01" x2="6286.84" y2="4061.01" gradientUnits="userSpaceOnUse">
<stop offset="0.1" stop-color="#6ABF4B"/>
<stop offset="0.3" stop-color="#63B649"/>
<stop offset="0.6" stop-color="#529F44"/>
<stop offset="0.9" stop-color="#3F873F"/>
</linearGradient>
<linearGradient id="paint4_linear" x1="79.3806" y1="79.7859" x2="88.7489" y2="79.7859" gradientUnits="userSpaceOnUse">
<stop offset="0.1" stop-color="#6ABF4B"/>
<stop offset="0.3" stop-color="#63B649"/>
<stop offset="0.6" stop-color="#529F44"/>
<stop offset="0.9" stop-color="#3F873F"/>
</linearGradient>
<linearGradient id="paint5_linear" x1="1810.21" y1="1556.67" x2="3299.73" y2="1556.67" gradientUnits="userSpaceOnUse">
<stop offset="0.1" stop-color="#6ABF4B"/>
<stop offset="0.3" stop-color="#63B649"/>
<stop offset="0.6" stop-color="#529F44"/>
<stop offset="0.9" stop-color="#3F873F"/>
</linearGradient>
<linearGradient id="paint6_linear" x1="3516.89" y1="805.472" x2="3100.24" y2="2148.19" gradientUnits="userSpaceOnUse">
<stop stop-color="#3F873F"/>
<stop offset="0.3" stop-color="#3F8B3D"/>
<stop offset="0.6" stop-color="#3E9637"/>
<stop offset="0.9" stop-color="#3DA92E"/>
<stop offset="1" stop-color="#3DAE2B"/>
</linearGradient>
<clipPath id="clip0">
<rect width="141.835" height="88" fill="white" transform="translate(0.483398 0.697266)"/>
</clipPath>
</defs>
</svg>
