<svg fill="none" height="65" viewBox="0 0 87 65" width="87" xmlns="http://www.w3.org/2000/svg" xmlns:xlink="http://www.w3.org/1999/xlink"><clipPath id="a"><path d="m.51416.977539h86.1936v64h-86.1936z"/></clipPath><g clip-path="url(#a)"><path d="m49.6275 18.6041-2.9498 5.0908-10.0878-17.41457-30.96798 53.45267h20.96738c0 2.8115 2.2868 5.0907 5.1078 5.0907h-26.07518c-1.82465 0-3.51054-.9708-4.42272-2.5458-.912173-1.575-.91208-3.5154.00025-5.0903l30.96795-53.45264c.9124-1.57516 2.5987-2.54551 4.4235-2.54551 1.8249 0 3.5112.97035 4.4236 2.54551z" fill="#00c58e"/><path d="m71.9825 57.188-19.4053-33.4928-2.9497-5.0907-2.9497 5.0907-19.4032 33.4928c-.9123 1.5749-.9124 3.5153-.0002 5.0903s2.5981 2.5458 4.4227 2.5458h35.8565c1.8251 0 3.5117-.9698 4.4243-2.5449.9127-1.5752.9128-3.516.0003-5.0912zm-40.2854 2.5453 17.9304-30.9474 17.9261 30.9474z" fill="#2f495e"/><path d="m85.8564 62.2788c-.9122 1.5748-2.598 2.5454-4.4225 2.5454h-13.8803c2.8209 0 5.1077-2.2792 5.1077-5.0908h8.762l-24.8621-42.9169-3.984 6.8788-2.9498-5.0907 2.5114-4.3335c.9124-1.5752 2.5986-2.5455 4.4235-2.5455s3.5111.9703 4.4235 2.5455l24.8706 42.917c.9124 1.575.9124 3.5156 0 5.0907z" fill="#108775"/></g></svg>