<svg width="98" height="73" viewBox="0 0 98 73" fill="none" xmlns="http://www.w3.org/2000/svg">
<g clip-path="url(#clip0)">
<path d="M55.7665 20.8073L52.448 26.5344L41.0992 6.94305L6.26027 67.0773H29.8486C29.8486 70.2403 32.4213 72.8043 35.5948 72.8043H6.26027C4.20754 72.8043 2.31091 71.7122 1.28471 69.9403C0.258514 68.1684 0.258618 65.9855 1.28499 64.2137L36.1239 4.07952C37.1504 2.30746 39.0474 1.21582 41.1004 1.21582C43.1534 1.21582 45.0505 2.30746 46.0769 4.07952L55.7665 20.8073V20.8073Z" fill="#00C58E"/>
<path d="M80.9158 64.214L59.0849 26.5347L55.7664 20.8076L52.448 26.5347L30.6195 64.214C29.5931 65.9858 29.593 68.1687 30.6192 69.9406C31.6454 71.7125 33.542 72.8046 35.5947 72.8046H75.9333C77.9865 72.8046 79.8839 71.7137 80.9107 69.9416C81.9375 68.1696 81.9376 65.9862 80.911 64.214H80.9158ZM35.5947 67.0776L55.7664 32.2618L75.9333 67.0776H35.5947L35.5947 67.0776Z" fill="#2F495E"/>
<path d="M96.5239 69.9407C95.4977 71.7123 93.6012 72.8042 91.5487 72.8042H75.9333C79.1068 72.8042 81.6795 70.2402 81.6795 67.0772H91.5367L63.5669 18.7956L59.0848 26.5343L55.7664 20.8072L58.5916 15.9321C59.618 14.16 61.5151 13.0684 63.5681 13.0684C65.6211 13.0684 67.5181 14.16 68.5445 15.9321L96.5239 64.2136C97.5504 65.9856 97.5504 68.1688 96.5239 69.9407V69.9407Z" fill="#108775"/>
</g>
<defs>
<clipPath id="clip0">
<rect width="96.9677" height="72" fill="white" transform="translate(0.51416 0.977539)"/>
</clipPath>
</defs>
</svg>
