<svg fill="none" height="40" viewBox="0 0 81 40" width="81" xmlns="http://www.w3.org/2000/svg" xmlns:xlink="http://www.w3.org/1999/xlink"><clipPath id="a"><path d="m.375 0h80v40h-80z"/></clipPath><g clip-path="url(#a)" fill="#000"><path d="m6.4382 8.89844h11.3632c3.3352.028 5.752.9896 7.2504 2.88316 1.4984 1.8936 1.9928 4.48 1.484 7.7592-.1976 1.4984-.636 2.968-1.3144 4.4096-.6504 1.4416-1.5544 2.7416-2.7136 3.9008-1.4136 1.4696-2.9256 2.4024-4.5368 2.7984s-3.2792.5936-5.0032.5936h-5.088l-1.6112 8.056h-5.8936zm4.9608 4.83356-2.544 12.72c.1696.028.3392.0424.5088.0424h.5936c2.7136.028 4.9752-.24 6.784-.8056 1.8088-.5936 3.0248-2.6568 3.6464-6.1904.5088-2.968 0-4.6784-1.5264-5.1304-1.4984-.452-3.3776-.664-5.6392-.636-.3392.028-.664.0424-.9752.0424-.2824 0-.5792 0-.8904 0z"/><path d="m33.2494.799805h5.8512l-1.6536 8.098395h5.2576c2.8832.0568 5.0312.6504 6.4448 1.7808 1.4416 1.1304 1.8656 3.2792 1.272 6.4448l-2.8408 14.1192h-5.936l2.7136-13.4832c.2824-1.4136.1976-2.4168-.2544-3.0104s-1.4272-.8904-2.9256-.8904l-4.7064-.0424-3.4768 17.4264h-5.8512z"/><path d="m56.7046 8.89844h11.3631c3.3352.028 5.752.9896 7.2504 2.88316 1.4984 1.8936 1.9928 4.48 1.484 7.7592-.1976 1.4984-.636 2.968-1.3144 4.4096-.6504 1.4416-1.5544 2.7416-2.7136 3.9008-1.4136 1.4696-2.9255 2.4024-4.5367 2.7984s-3.2793.5936-5.0033.5936h-5.0879l-1.6112 8.056h-5.8936zm4.9608 4.83356-2.544 12.72c.1696.028.3392.0424.5088.0424h.5936c2.7135.028 4.9752-.24 6.7839-.8056 1.8088-.5936 3.0248-2.6568 3.6464-6.1904.5088-2.968.0001-4.6784-1.5263-5.1304-1.4984-.452-3.3777-.664-5.6392-.636-.3392.028-.6641.0424-.9753.0424-.2824 0-.5791 0-.8903 0z"/></g></svg>