<svg fill="none" height="41" viewBox="0 0 155 41" width="155" xmlns="http://www.w3.org/2000/svg" xmlns:xlink="http://www.w3.org/1999/xlink"><clipPath id="a"><path d="m.859619.580078h153.548v40h-153.548z"/></clipPath><g clip-path="url(#a)"><g fill="#8e75ff"><path clip-rule="evenodd" d="m34.3808 6.67969h-22.2297v11.14581h10.9381c.3897 0 .7058.3161.7058.7058v10.7871h11.2916v-21.93162c.0002-.09279-.018-.18471-.0533-.27049-.0354-.08578-.0874-.16374-.153-.22942-.0655-.06568-.1434-.11778-.2291-.15333s-.1776-.05385-.2704-.05385z" fill-rule="evenodd"/><path clip-rule="evenodd" d="m12.15 6.67969v11.14581h-10.42843c-.07006-.0001-.13851-.0211-.19666-.0602-.05814-.0391-.10336-.0946-.1299-.1594-.02655-.0649-.03323-.1361-.01919-.2048.01403-.0686.04815-.1315.09801-.1808zm12.2464 33.19101c-.0496.0487-.1126.0818-.1809.0949-.0684.0132-.1391.0058-.2033-.021-.0642-.0269-.1191-.0721-.1577-.13s-.0593-.126-.0594-.1956v-10.3006h11.2916l-10.6903 10.551z" fill-rule="evenodd" opacity=".405"/><path d="m12.1499 17.8252h11.2929c.1936 0 .3523.1574.3523.3523v11.1406h-10.9381c-.1872 0-.3667-.0744-.4991-.2067-.1323-.1324-.2067-.3119-.2067-.4991v-10.7871z" opacity=".405"/></g><path clip-rule="evenodd" d="m148.951 5.97649c.631.62452 1.376.93549 2.235.93549.886 0 1.645-.31097 2.276-.93549.631-.62451.946-1.36.946-2.21032 0-.84903-.315-1.59226-.946-2.22968-.293-.30737-.647-.550926-1.038-.715444-.392-.164517-.813-.246453-1.238-.240683-.859 0-1.604.31871-2.235.954837-.631.63871-.946 1.38065-.946 2.23226 0 .84903.315 1.58452.946 2.20903zm-68.4643 8.14451c0 .0645-.0542.1187-.12.1187h-4.4323v8.2839c0 .6903.1755 1.1948.5239 1.5135s.8594.4968 1.5303.5368c.6142.0374 1.3626.0348 2.2465-.0064l.1251-.0065c.0162-.0009.0323.0015.0475.0071.0151.0056.029.0142.0407.0253s.021.0245.0274.0393c.0064.0149.0096.0309.0096.047v4.4271c.0002.0294-.0105.0578-.0301.0797-.0195.0219-.0465.0358-.0757.039l-.0813.0091c-3.471.3651-5.9264.0258-7.3639-1.0168-1.4632-1.062-2.1935-2.96-2.1935-5.6942v-8.2839h-3.3858c-.0315 0-.0617-.0125-.084-.0348-.0222-.0222-.0347-.0524-.0347-.0839v-4.70064c0-.06451.0529-.11871.1187-.11871h3.3845v-3.28645c0-.09548.0568-.18064.1432-.21935l4.8852-2.12516c.0181-.00821.038-.01175.0578-.01028s.0389.00789.0556.01868.0305.0256.0399.04306c.0095.01747.0145.03704.0144.05692v5.52258h4.431c.0645 0 .1187.05291.1187.11871v4.70064zm9.4193-1.3935c.4826-1.2749 1.2813-2.231 2.3949-2.86843 1.0986-.62547 2.341-.95452 3.6051-.95484.0659 0 .12.05291.12.12v5.39997c0 .0271-.0057.0538-.0167.0785-.011.0246-.027.0468-.0471.0649-.02.0181-.0437.0318-.0693.0402-.0257.0084-.0529.0114-.0798.0087-1.498-.1342-2.8438.1923-4.0361.9781-1.2477.8219-1.871 2.1896-1.871 4.1019v9.3987c0 .0157-.0031.0312-.0091.0457-.0061.0145-.0149.0277-.0261.0387-.0111.011-.0244.0198-.0389.0256-.0146.0059-.0302.0089-.0459.0087h-4.9574c-.0315 0-.0617-.0125-.0839-.0348-.0223-.0222-.0348-.0524-.0348-.0839v-19.67613c0-.06451.0529-.11871.1187-.11871h4.9574c.0646 0 .1188.05291.1188.11871v3.30583zm24.563-3.42585c-.016-.00017-.032.00278-.046.00867-.015.00589-.028.0146-.039.02564s-.02.02419-.026.03867c-.006.01449-.009.03003-.009.04573v2.23224c-1.557-1.93933-3.745-2.90837-6.564-2.90837-2.684 0-4.987 1.01549-6.906 3.04647-1.9201 2.031-2.8801 4.52-2.8801 7.4671s.96 5.4361 2.8801 7.4671c1.919 2.0309 4.222 3.0464 6.906 3.0464 2.819 0 5.006-.969 6.564-2.9071v2.231c0 .0645.054.1187.12.1187h4.956c.066 0 .12-.0529.12-.1187v-19.67613c0-.0157-.003-.03124-.009-.04573-.006-.01448-.015-.02763-.026-.03867-.012-.01104-.025-.01976-.039-.02564-.015-.00589-.031-.00884-.046-.00867h-4.956zm-9.704 14.01805c1.047 1.0361 2.375 1.5536 3.987 1.5536 1.611 0 2.946-.5252 4.007-1.5742 1.061-1.0478 1.59-2.3949 1.59-4.0413 0-1.6465-.529-2.9936-1.59-4.0426-1.061-1.0477-2.396-1.5729-4.008-1.5729-1.61 0-2.939.5252-3.987 1.5742-1.045 1.0477-1.57 2.3948-1.57 4.0413 0 1.6464.524 3 1.571 4.0619zm37.871-11.529c-1.92-2.03098-4.236-3.04647-6.947-3.04647-2.819 0-4.993.96904-6.524 2.90707v-2.23094c0-.03148-.012-.06168-.034-.08394-.023-.02226-.053-.03477-.084-.03477h-4.958c-.031 0-.061.01251-.084.03477-.022.02226-.034.05246-.034.08394v27.63874c0 .0658.052.12.118.12h4.958c.064 0 .118-.0542.118-.12v-10.1949c1.531 1.9381 3.705 2.9071 6.524 2.9071 2.711 0 5.027-1.0155 6.947-3.0464 1.919-2.031 2.879-4.52 2.879-7.4671s-.96-5.4361-2.879-7.4671zm-11.9 11.529c1.047 1.0361 2.375 1.5536 3.987 1.5536 1.61 0 2.946-.5252 4.006-1.5742 1.061-1.0478 1.591-2.3949 1.591-4.0413 0-1.6465-.53-2.9936-1.591-4.0426-1.06-1.0477-2.396-1.5729-4.006-1.5729-1.612 0-2.94.5252-3.987 1.5742-1.047 1.0477-1.571 2.3948-1.571 4.0413 0 1.6464.524 3 1.571 4.0619zm17.992 5.8942c-.032 0-.062-.0125-.084-.0348-.022-.0222-.035-.0524-.035-.0839v-19.67613c0-.06451.053-.11871.119-.11871h4.957c.066 0 .119.05291.119.11871v19.67743c0 .0315-.012.0617-.035.0839-.022.0223-.052.0348-.084.0348h-4.957zm-92.6258-12.9626c-.7123-.3316-1.0671-.7638-1.0671-1.2942 0-.5045.2206-.9032.6645-1.1948.4426-.2916 1-.4387 1.671-.4387 1.2864 0 2.258.4968 2.9161 1.489.0219.0337.055.0586.0935.0704.0384.0118.0798.0097.1168-.0059l4.3845-1.9187c.0152-.0068.0288-.0167.0398-.029.0111-.0124.0195-.027.0246-.0428s.0069-.0325.0051-.049c-.0018-.0166-.007-.0325-.0153-.0469-.0505-.0841-.1021-.1676-.1548-.2503-.7497-1.1678-1.7213-2.0387-2.9407-2.70068-1.3419-.73032-2.8322-1.09549-4.4696-1.09549-2.1755 0-3.9936.56387-5.4581 1.69287-1.4619 1.1278-2.1935 2.6749-2.1935 4.6387 0 1.302.3561 2.3833 1.067 3.2465.6872.8451 1.5823 1.497 2.5975 1.8916 1.0193.3974 2.04.7303 3.0606.9948 1.0194.2659 1.8865.5652 2.5974.8968.711.3316 1.0671.7626 1.0671 1.2942 0 1.142-.9264 1.7123-2.778 1.7123-1.7639 0-2.9858-.6452-3.6658-1.9329-.0273-.0543-.0743-.0961-.1314-.117-.057-.0208-.1199-.0192-.1757.0047l-4.3717 1.9161c-.0145.0064-.0277.0157-.0386.0273s-.0194.0252-.025.0402c-.0055.0149-.008.0308-.0072.0467.0007.0159.0046.0315.0115.0458l.049.0994c1.5278 3.0194 4.3123 4.529 8.3549 4.529 2.3083 0 4.2348-.5509 5.778-1.6516 1.5445-1.1032 2.3162-2.6761 2.3162-4.72 0-1.3548-.3562-2.4826-1.0671-3.3858-.6703-.8716-1.5696-1.5399-2.5975-1.9303-1.0004-.3789-2.0224-.6982-3.0606-.9561-1.0207-.2529-1.8865-.5446-2.5974-.8775z" fill="#2f2e8b" fill-rule="evenodd"/></g></svg>