<svg fill="none" height="73" viewBox="0 0 73 73" width="73" xmlns="http://www.w3.org/2000/svg" xmlns:xlink="http://www.w3.org/1999/xlink"><clipPath id="a"><path d="m.18103.259766h72v72h-72z"/></clipPath><g clip-path="url(#a)" fill="#003c56"><path d="m36.1172 2.41593c6.756 0 13.3323 2.01243 18.9024 5.78572 5.4263 3.66545 9.7027 8.84025 12.2542 14.87755 4.4561 10.5293 3.2702 22.5679-3.1264 32.0191-3.6655 5.4264-8.8403 9.7028-14.8776 12.2542-10.5293 4.4561-22.5679 3.2702-32.0191-3.1264-5.4264-3.6655-9.70276-8.8403-12.25423-14.8776-4.456078-10.5293-3.27019-22.5679 3.12645-32.0191 3.66548-5.4263 8.84028-9.70273 14.87758-12.25419 4.1326-1.76087 8.6246-2.65928 13.1167-2.65928zm0-2.156164c-19.8368 0-35.93617 16.099434-35.93617 35.936134s16.09937 35.9361 35.93617 35.9361c19.8367 0 35.9361-16.0994 35.9361-35.9361s-16.0994-35.936134-35.9361-35.936134z"/><path d="m6.17529 36.2047c0 11.4636 6.54041 21.957 16.89001 26.9521l-14.30261-39.1344c-1.72493 3.8451-2.5874 7.9778-2.5874 12.1823zm50.16681-1.5093c0-3.7014-1.3296-6.2529-2.4796-8.2653-1.1499-2.0124-2.9467-4.5639-2.9467-7.0076 0-2.4436 2.0843-5.3185 5.031-5.3185h.3953c-12.1823-11.17614-31.1207-10.34961-42.2968 1.8687-1.0781 1.1859-2.0843 2.4436-2.9468 3.7733h1.9406c3.1264 0 7.9778-.3953 7.9778-.3953 1.6171-.1078 1.7968 2.2639.1797 2.4796 0 0-1.6171.1796-3.4139.2875l10.8886 32.4503 6.5404-19.6571-4.6717-12.7932c-1.6171-.1079-3.1265-.2875-3.1265-.2875-1.6171-.1078-1.4374-2.5515.1797-2.4796 0 0 4.9592.3953 7.87.3953 2.9109 0 7.9779-.3953 7.9779-.3953 1.6171-.1078 1.7968 2.2639.1796 2.4796 0 0-1.6171.1796-3.4139.2875l10.8168 32.1987 3.0905-9.7746c1.3656-4.2764 2.1921-7.295 2.1921-9.8824zm-19.7289 4.0967-8.984 26.1256c6.0372 1.7609 12.4698 1.6171 18.3993-.4672l-.2157-.3953zm25.7662-16.9618c.1438 1.0062.2156 2.0483.2156 3.0905 0 3.0545-.575 6.4685-2.264 10.7089l-9.1637 26.449c14.0151-8.1575 19.0102-26.0177 11.2121-40.2484z"/></g></svg>