<svg fill="none" height="40" viewBox="0 0 40 40" width="40" xmlns="http://www.w3.org/2000/svg"><path clip-rule="evenodd" d="m40 30.3371-11.3381-11.3381-7.6609-7.6609-11.33808-11.3381-9.66292 9.66292 11.3381 11.33808 7.6609 7.6609 11.3381 11.3381zm-34.21859-20.67418 8.45759 8.43718 3.8611-3.8815-2.9622-2.9622-2.4311 2.431-2.88045-2.8805 2.43105-2.43101-2.59448-2.59448zm19.99999 12.21658-3.8815 3.8815 8.4372 8.4372 3.8815-3.8816-2.5945-2.5944-2.431 2.431-2.8805-2.8805 2.431-2.431z" fill="#fce96a" fill-rule="evenodd"/><g fill="#fdf6b2"><path d="m31.8693 15.7917-3.2074 3.2074-9.6629 9.6629-9.72423 9.7242h-7.66088v-7.6609l9.72421-9.7242 9.6629-9.6629 3.2074-3.20734z"/><path d="m31.5861.765315-5.186 5.185855 7.6561 7.65603 5.1859-5.18588z"/></g></svg>