<svg width="171" height="60" viewBox="0 0 171 60" fill="none" xmlns="http://www.w3.org/2000/svg">
<path d="M0.0395002 44.8691V0.0691376H8.2315V38.4691H28.0715V44.8691H0.0395002ZM48.892 45.6371C45.82 45.6371 43.0467 44.9331 40.572 43.5251C38.14 42.1171 36.1987 40.1758 34.748 37.7011C33.34 35.1838 32.636 32.2825 32.636 28.9971C32.636 25.7118 33.3613 22.8318 34.812 20.3571C36.2627 17.8398 38.204 15.8771 40.636 14.4691C43.1107 13.0611 45.884 12.3571 48.956 12.3571C51.9853 12.3571 54.716 13.0611 57.148 14.4691C59.6227 15.8771 61.564 17.8398 62.972 20.3571C64.4227 22.8318 65.148 25.7118 65.148 28.9971C65.148 32.2825 64.4227 35.1838 62.972 37.7011C61.564 40.1758 59.6227 42.1171 57.148 43.5251C54.6733 44.9331 51.9213 45.6371 48.892 45.6371ZM48.892 38.5331C51.0253 38.5331 52.8813 37.7438 54.46 36.1651C56.0387 34.5438 56.828 32.1545 56.828 28.9971C56.828 25.8398 56.0387 23.4718 54.46 21.8931C52.8813 20.2718 51.0467 19.4611 48.956 19.4611C46.78 19.4611 44.9027 20.2718 43.324 21.8931C41.788 23.4718 41.02 25.8398 41.02 28.9971C41.02 32.1545 41.788 34.5438 43.324 36.1651C44.9027 37.7438 46.7587 38.5331 48.892 38.5331ZM83.9125 35.3971C82.3765 35.3971 80.9472 35.2265 79.6245 34.8851L77.2565 37.2531C77.9818 37.6371 78.9632 37.9571 80.2005 38.2131C81.4378 38.4691 83.4432 38.7251 86.2165 38.9811C90.4405 39.3651 93.5125 40.3678 95.4325 41.9891C97.3525 43.6105 98.3125 45.8505 98.3125 48.7091C98.3125 50.5865 97.8005 52.3571 96.7765 54.0211C95.7525 55.7278 94.1738 57.0931 92.0405 58.1171C89.9072 59.1838 87.1765 59.7171 83.8485 59.7171C79.3258 59.7171 75.6778 58.8638 72.9045 57.1571C70.1312 55.4931 68.7445 52.9758 68.7445 49.6051C68.7445 46.7465 70.1312 44.2718 72.9045 42.1811C72.0512 41.7971 71.3045 41.3918 70.6645 40.9651C70.0672 40.5385 69.5338 40.0905 69.0645 39.6211V38.1491L74.6325 32.2611C72.1578 30.0851 70.9205 27.2905 70.9205 23.8771C70.9205 21.7438 71.4325 19.8025 72.4565 18.0531C73.5232 16.3038 75.0165 14.9171 76.9365 13.8931C78.8565 12.8691 81.1818 12.3571 83.9125 12.3571C85.7045 12.3571 87.3685 12.6131 88.9045 13.1251H100.937V18.1171L95.4965 18.5011C96.3498 20.1225 96.7765 21.9145 96.7765 23.8771C96.7765 26.0105 96.2645 27.9518 95.2405 29.7011C94.2165 31.4505 92.7232 32.8371 90.7605 33.8611C88.8405 34.8851 86.5578 35.3971 83.9125 35.3971ZM83.9125 29.1251C85.5765 29.1251 86.9418 28.6771 88.0085 27.7811C89.1178 26.8851 89.6725 25.6051 89.6725 23.9411C89.6725 22.2771 89.1178 20.9971 88.0085 20.1011C86.9418 19.2051 85.5765 18.7571 83.9125 18.7571C82.1632 18.7571 80.7552 19.2051 79.6885 20.1011C78.6218 20.9971 78.0885 22.2771 78.0885 23.9411C78.0885 25.6051 78.6218 26.8851 79.6885 27.7811C80.7552 28.6771 82.1632 29.1251 83.9125 29.1251ZM76.2325 48.7731C76.2325 50.3518 76.9578 51.5251 78.4085 52.2931C79.9018 53.1038 81.7152 53.5091 83.8485 53.5091C85.8965 53.5091 87.5605 53.0825 88.8405 52.2291C90.1205 51.4185 90.7605 50.3091 90.7605 48.9011C90.7605 47.7491 90.3338 46.7891 89.4805 46.0211C88.6698 45.2531 87.0272 44.7838 84.5525 44.6131C82.8032 44.4851 81.1818 44.2931 79.6885 44.0371C78.4512 44.7198 77.5552 45.4665 77.0005 46.2771C76.4885 47.0878 76.2325 47.9198 76.2325 48.7731ZM120.892 45.6371C117.82 45.6371 115.047 44.9331 112.572 43.5251C110.14 42.1171 108.199 40.1758 106.748 37.7011C105.34 35.1838 104.636 32.2825 104.636 28.9971C104.636 25.7118 105.361 22.8318 106.812 20.3571C108.263 17.8398 110.204 15.8771 112.636 14.4691C115.111 13.0611 117.884 12.3571 120.956 12.3571C123.985 12.3571 126.716 13.0611 129.148 14.4691C131.623 15.8771 133.564 17.8398 134.972 20.3571C136.423 22.8318 137.148 25.7118 137.148 28.9971C137.148 32.2825 136.423 35.1838 134.972 37.7011C133.564 40.1758 131.623 42.1171 129.148 43.5251C126.673 44.9331 123.921 45.6371 120.892 45.6371ZM120.892 38.5331C123.025 38.5331 124.881 37.7438 126.46 36.1651C128.039 34.5438 128.828 32.1545 128.828 28.9971C128.828 25.8398 128.039 23.4718 126.46 21.8931C124.881 20.2718 123.047 19.4611 120.956 19.4611C118.78 19.4611 116.903 20.2718 115.324 21.8931C113.788 23.4718 113.02 25.8398 113.02 28.9971C113.02 32.1545 113.788 34.5438 115.324 36.1651C116.903 37.7438 118.759 38.5331 120.892 38.5331ZM157.593 45.6371C154.777 45.6371 152.302 45.1891 150.169 44.2931C148.035 43.3545 146.329 42.0745 145.049 40.4531C143.769 38.8318 143.001 36.9545 142.745 34.8211H151.001C151.257 36.0585 151.939 37.1251 153.049 38.0211C154.201 38.8745 155.673 39.3011 157.465 39.3011C159.257 39.3011 160.558 38.9385 161.369 38.2131C162.222 37.4878 162.649 36.6558 162.649 35.7171C162.649 34.3518 162.051 33.4345 160.857 32.9651C159.662 32.4531 157.998 31.9625 155.865 31.4931C154.499 31.1945 153.113 30.8318 151.705 30.4051C150.297 29.9785 148.995 29.4451 147.801 28.8051C146.649 28.1225 145.71 27.2691 144.985 26.2451C144.259 25.1785 143.897 23.8771 143.897 22.3411C143.897 19.5251 145.006 17.1571 147.225 15.2371C149.486 13.3171 152.643 12.3571 156.697 12.3571C160.451 12.3571 163.438 13.2318 165.657 14.9811C167.918 16.7305 169.262 19.1411 169.689 22.2131H161.945C161.475 19.8665 159.705 18.6931 156.633 18.6931C155.097 18.6931 153.902 18.9918 153.049 19.5891C152.238 20.1865 151.833 20.9331 151.833 21.8291C151.833 22.7678 152.451 23.5145 153.689 24.0691C154.926 24.6238 156.569 25.1358 158.617 25.6051C160.835 26.1171 162.862 26.6931 164.697 27.3331C166.574 27.9305 168.067 28.8478 169.177 30.0851C170.286 31.2798 170.841 33.0078 170.841 35.2691C170.883 37.2318 170.371 39.0025 169.305 40.5811C168.238 42.1598 166.702 43.3971 164.697 44.2931C162.691 45.1891 160.323 45.6371 157.593 45.6371Z" fill="#0284C7"/>
</svg>
